<?xml version="1.0" encoding="UTF-8"?>
<svg width="266px" height="266px" viewBox="0 0 266 266" version="1.1" xmlns="http://www.w3.org/2000/svg" xmlns:xlink="http://www.w3.org/1999/xlink">
    <title>blush/happy</title>
    <defs>
        <path d="M76.916556,-3.10752092e-15 L189.083444,3.10752092e-15 C215.829006,-1.80555915e-15 225.527593,2.78476833 235.305371,8.01398111 C245.083149,13.2431939 252.756806,20.9168511 257.986019,30.6946289 C263.215232,40.4724067 266,50.1709938 266,76.916556 L266,189.083444 C266,215.829006 263.215232,225.527593 257.986019,235.305371 C252.756806,245.083149 245.083149,252.756806 235.305371,257.986019 C225.527593,263.215232 215.829006,266 189.083444,266 L76.916556,266 C50.1709938,266 40.4724067,263.215232 30.6946289,257.986019 C20.9168511,252.756806 13.2431939,245.083149 8.01398111,235.305371 C2.78476833,225.527593 1.2037061e-15,215.829006 -2.07168062e-15,189.083444 L2.07168062e-15,76.916556 C-1.2037061e-15,50.1709938 2.78476833,40.4724067 8.01398111,30.6946289 C13.2431939,20.9168511 20.9168511,13.2431939 30.6946289,8.01398111 C40.4724067,2.78476833 50.1709938,1.80555915e-15 76.916556,-3.10752092e-15 Z" id="path-1"></path>
        <path d="M61.8514259,62.8241206 C29.0377743,62.8241206 -4.29336159,45.0531552 0.453662129,17.363947 C5.20068585,-10.3252613 37.9888327,3.365726 61.8514259,3.51532953 L61.9820101,3.51480905 L61.982298,3.50546419 L62.4907045,3.51397069 L62.4907045,3.51397069 L62.9976015,3.50546419 L62.9972211,3.51480905 L63.1284736,3.51532953 C86.7524409,3.36722203 119.124343,-10.0527957 124.375451,16.5456298 L124.526237,17.363947 C129.273261,45.0531552 95.9421252,62.8241206 63.1284736,62.8241206 L61.9817348,62.8204036 L61.9817348,62.8204036 L62.9981647,62.8204036 L61.8514259,62.8241206 L61.8514259,62.8241206 Z" id="path-3"></path>
    </defs>
    <g id="Logo" stroke="none" stroke-width="1" fill="none" fill-rule="evenodd">
        <g id="Blushy-Icon-Rounded" transform="translate(0.000000, 0.000000)">
            <mask id="mask-2" fill="white">
                <use xlink:href="#path-1"></use>
            </mask>
            <use id="Container" fill="#91D7E0" fill-rule="evenodd" xlink:href="#path-1"></use>
            <g id="Blushy-Expressions/Happy-3" mask="url(#mask-2)" fill-rule="evenodd" stroke-width="1">
                <g id="blushes" transform="translate(-51.462312, 114.286432)" fill="#FF5989">
                    <g id="Group-7">
                        <ellipse id="blush-circles" cx="64.3613009" cy="62.4899497" rx="63.8266332" ry="62.4899497"></ellipse>
                    </g>
                    <g id="Group-7" transform="translate(240.603015, 0.000000)">
                        <ellipse id="blush-circles" cx="64.3613009" cy="62.4899497" rx="63.8266332" ry="62.4899497"></ellipse>
                    </g>
                </g>
                <g id="Group-6" transform="translate(33.417085, 80.201005)" fill="#000000">
                    <circle id="Oval" fill-rule="nonzero" cx="16.4412101" cy="16.5080445" r="16.3743719"></circle>
                    <circle id="Oval" fill-rule="nonzero" cx="182.189954" cy="16.5080445" r="16.3743719"></circle>
                </g>
                <g id="Oval" transform="translate(70.844221, 110.944724)">
                    <mask id="mask-4" fill="white">
                        <use xlink:href="#path-3"></use>
                    </mask>
                    <use id="Path" fill="#000000" fill-rule="nonzero" xlink:href="#path-3"></use>
                    <ellipse fill="#FF5989" mask="url(#mask-4)" cx="48.4547739" cy="70.1758794" rx="27.7361809" ry="27.4020101"></ellipse>
                    <rect id="Rectangle" fill="#FFFFFF" mask="url(#mask-4)" x="16.7085427" y="-10.6934673" width="24.7286432" height="28.0703518" rx="12.3643216"></rect>
                    <rect id="Rectangle" fill="#FFFFFF" mask="url(#mask-4)" x="44.7788945" y="-10.6934673" width="24.7286432" height="28.0703518" rx="12.3643216"></rect>
                    <ellipse fill="#FF5989" mask="url(#mask-4)" cx="76.5251256" cy="70.1758794" rx="27.7361809" ry="27.4020101"></ellipse>
                </g>
            </g>
        </g>
    </g>
</svg>