<?xml version="1.0" encoding="UTF-8"?><svg width="266px" height="266px" viewBox="0 0 266 266" version="1.1" xmlns="http://www.w3.org/2000/svg" xmlns:xlink="http://www.w3.org/1999/xlink"><title>blush/happy</title><defs><path d="M76.92,-3.11e-15 L189.08,3.11e-15 C215.83,-1.81e-15 225.53,2.78 235.31,8.01 C245.08,13.24 252.76,20.92 257.99,30.69 C263.22,40.47 266,50.17 266,76.92 L266,189.08 C266,215.83 263.22,225.53 257.99,235.31 C252.76,245.08 245.08,252.76 235.31,257.99 C225.53,263.22 215.83,266 189.08,266 L76.92,266 C50.17,266 40.47,263.22 30.69,257.99 C20.92,252.76 13.24,245.08 8.01,235.31 C2.78,225.53 1.20e-15,215.83 -2.07e-15,189.08 L2.07e-15,76.92 C-1.20e-15,50.17 2.78,40.47 8.01,30.69 C13.24,20.92 20.92,13.24 30.69,8.01 C40.47,2.78 50.17,1.81e-15 76.92,-3.11e-15 Z" id="path-1"></path><path d="M61.85,62.82 C29.04,62.82 -4.29,45.05 0.45,17.36 C5.20,-10.33 37.99,3.37 61.85,3.52 L61.98,3.51 L61.98,3.51 L62.49,3.51 L62.49,3.51 L63.00,3.51 L63.00,3.51 L63.13,3.52 C86.75,3.37 119.12,-10.05 124.38,16.55 L124.53,17.36 C129.27,45.05 95.94,62.82 63.13,62.82 L61.98,62.82 L61.98,62.82 L63.00,62.82 L61.85,62.82 L61.85,62.82 Z" id="path-3"></path></defs><g id="Logo" stroke="none" stroke-width="1" fill="none" fill-rule="evenodd"><g id="Blushy-Icon-Rounded" transform="translate(0.00, 0.00)"><mask id="mask-2" fill="white"><use xlink:href="#path-1"></use></mask><use id="Container" fill="#91D7E0" fill-rule="evenodd" xlink:href="#path-1"></use><g id="Blushy-Expressions/Happy-3" mask="url(#mask-2)" fill-rule="evenodd" stroke-width="1"><g id="blushes" transform="translate(-51.46, 114.29)" fill="#FF5989"><g id="Group-7"><ellipse id="blush-circles" cx="64.36" cy="62.49" rx="63.83" ry="62.49"></ellipse></g><g id="Group-7" transform="translate(240.60, 0.00)"><ellipse id="blush-circles" cx="64.36" cy="62.49" rx="63.83" ry="62.49"></ellipse></g></g><g id="Group-6" transform="translate(33.42, 80.20)" fill="#000000"><circle id="Oval" fill-rule="nonzero" cx="16.44" cy="16.51" r="16.37"></circle><circle id="Oval" fill-rule="nonzero" cx="182.19" cy="16.51" r="16.37"></circle></g><g id="Oval" transform="translate(70.84, 110.94)"><mask id="mask-4" fill="white"><use xlink:href="#path-3"></use></mask><use id="Path" fill="#000000" fill-rule="nonzero" xlink:href="#path-3"></use><ellipse fill="#FF5989" mask="url(#mask-4)" cx="48.45" cy="70.18" rx="27.74" ry="27.40"></ellipse><rect id="Rectangle" fill="#FFFFFF" mask="url(#mask-4)" x="16.71" y="-10.69" width="24.73" height="28.07" rx="12.36"></rect><rect id="Rectangle" fill="#FFFFFF" mask="url(#mask-4)" x="44.78" y="-10.69" width="24.73" height="28.07" rx="12.36"></rect><ellipse fill="#FF5989" mask="url(#mask-4)" cx="76.53" cy="70.18" rx="27.74" ry="27.40"></ellipse></g></g></g></g></svg>