<?xml version="1.0" encoding="UTF-8"?>
<svg width="177px" height="255px" viewBox="0 0 177 255" version="1.1" xmlns="http://www.w3.org/2000/svg" xmlns:xlink="http://www.w3.org/1999/xlink">
    <!-- Generator: Sketch 62 (91390) - https://sketch.com -->
    <title>mix-6</title>
    <desc>Created with Sketch.</desc>
    <g id="Mix-N-Match" stroke="none" stroke-width="1" fill="none" fill-rule="evenodd">
        <g id="Artboard" transform="translate(-430.000000, -276.000000)">
            <g id="a-person/sitting" transform="translate(418.000000, 248.000000)">
                <g id="pose/sitting/closed_legs-1" transform="translate(-10.327869, 81.104136)">
                    <path d="M196.711045,187.616109 C192.840366,182.116064 184.681301,181.205551 179.439844,177.351405 C176.678594,175.237425 173.756685,173.838232 171.610858,170.991859 C175.027436,166.983552 170.802162,157.587305 169.932824,152.161085 C166.487424,137.954479 163.300765,123.520798 159.202905,109.330988 C166.304323,111.538584 164.454274,98.3204811 163.440047,95.26396 C163.369884,94.8437941 162.848751,94.7599432 162.529368,94.6275265 C162.618701,94.0274197 162.864792,93.8957843 162.118695,93.7300355 C161.869214,90.1336917 162.888136,86.1066356 161.046564,82.9296765 C158.970899,79.4621037 154.009179,76.5601338 149.909754,76.512219 C147.029958,65.0920925 146.502304,59.7057145 132.858812,64.5466711 C133.16059,63.4343448 133.254357,62.4142024 132.728659,61.2905484 C130.676991,55.0997748 128.098712,48.327253 125.856639,42.0535399 C123.272621,34.8339003 120.600575,27.3684369 117.144611,20.4315987 C114.737696,16.0265625 107.207477,14.8488742 102.103345,15.5781426 C100.885802,13.4330441 97.816646,7.49968231 93.9342296,8.87150368 C93.9050169,7.0819903 93.8772388,5.29247692 93.8540251,3.50283334 C93.8339414,1.94716498 93.9978715,0.352045041 93.3988813,-1.12498056 C92.7642881,-2.68963294 91.4722794,-3.51538191 89.9547854,-4.11431683 C85.3616142,-5.62936177 80.0846839,-8.06338121 75.2377276,-6.55732029 C71.0029333,-4.62731761 71.496158,2.62995079 69.4468368,6.57497887 C66.5748659,2.32267113 61.6771787,5.17386177 60.6410417,9.73436058 C48.8431646,14.430401 38.7025851,9.09558347 37.9476201,27.5298889 C38.5981237,30.8903044 39.1512083,34.0423948 38.8429102,37.4357517 L38.4859679,37.4722086 C35.4663686,53.8060753 34.3051649,71.3151565 35.0350905,89.51757 C34.8888967,96.6844773 32.2734496,103.373669 29.7442059,109.841125 C27.8838542,114.596668 25.9628601,119.514054 25.0521811,124.559299 C24.0423877,128.761348 20.330422,148.968371 28.5844367,142.259779 C28.90069,165.248724 49.4155504,168.191969 67.8893058,163.114172 C87.5010512,159.042847 109.57879,160.213374 121.818639,140.517269 C125.970881,147.612825 127.403476,151.993643 128.445742,159.413536 C129.589601,164.849 131.250532,171.022169 134.303647,174.617471 C131.674764,179.342864 130.387201,185.09919 130.514085,188.850899 C130.563926,190.324598 129.88899,191.007016 130.85903,191.923072 C135.512441,196.317515 145.894841,196.366825 153.789649,198.323259 C159.202905,199.011248 178.776855,201.643185 181.768261,199.927577 C183.854489,200.510106 181.428353,195.088608 183.514451,194.972857 C184.228197,194.978147 184.323729,194.070442 185.056624,194.103794 C189.735539,194.316722 199.82328,195.69013 197.384333,191.923072 L196.711045,187.616109 Z" id="🎨-Background" fill="#FFFFFF"></path>
                    <path d="M195.549451,192.939541 C192.099747,193.683783 188.551711,193.475979 185.056624,193.766853 C185.169562,193.474546 185.264242,193.17547 185.338317,192.871445 C188.949864,192.434743 192.73747,192.22746 196.180653,191.035449 C196.261901,191.423194 196.322804,191.815236 196.346931,192.211054 C196.350191,192.264047 196.343018,192.856211 196.427657,192.746841 C196.322804,192.882512 195.705947,192.910115 195.549451,192.939541 M178.121092,183.998485 C171.842975,181.935675 165.184833,180.16439 160.345571,175.3789 C160.355222,175.352468 160.364481,175.325777 160.37361,175.299085 C161.36971,175.017325 162.465316,174.415786 163.423857,175.069927 C166.493665,174.964072 169.699756,173.889505 171.849626,171.61837 C171.996342,171.649488 172.138493,171.693367 172.276862,171.747661 C176.413455,178.776944 185.226422,180.115824 191.680728,184.188712 C194.297088,185.709876 199.170257,189.806591 192.935829,189.898384 C190.474792,190.271156 187.99954,190.546927 185.517767,190.737414 C185.326319,186.779496 181.401649,185.045579 178.121092,183.998485 M182.509774,194.135979 C181.261324,195.836564 179.007383,196.508542 176.968234,196.342273 C175.468477,196.138765 174.145038,195.611833 172.58529,195.72537 C160.760157,195.27669 149.131948,192.82965 137.600767,190.33157 C127.272783,188.395839 135.163595,180.77947 134.303647,174.617471 C135.761281,175.505327 137.413754,176.153869 139.115392,176.629372 C141.307386,182.723274 147.29794,181.131539 151.539907,178.212122 C153.176599,178.15926 155.169451,178.410161 156.508017,177.324266 C156.586135,177.388326 156.668426,177.442491 156.753586,177.488843 C157.815806,176.863737 158.78791,176.209466 159.901904,175.727324 C163.666818,182.085669 171.663917,183.537175 178.080663,185.991766 C182.006377,187.048626 185.220945,190.079237 182.509774,194.135979 M182.295244,199.582901 C178.976736,200.574009 175.464825,200.40214 172.040813,200.123115 C160.792499,199.149194 149.618782,197.233905 138.706284,194.336492 C136.118224,193.649019 131.097295,192.850873 130.85903,189.605948 C133.162788,192.624319 137.275645,192.979904 140.730566,193.758259 C152.071603,195.979006 163.688205,198.846993 175.286941,198.29402 C177.736502,198.990347 180.406331,198.440628 182.478866,197.084822 C182.413007,197.917211 182.353278,198.749991 182.295244,199.582901 M120.967931,93.5849616 C122.64766,89.1333127 124.469409,84.7415573 126.231429,80.317251 C129.500771,82.1479086 133.191479,82.8171533 136.960566,83.24422 C137.049117,83.2884891 137.143145,83.32755 137.244737,83.3587988 C137.423404,83.3952557 137.57338,83.3783293 137.693491,83.3236439 C142.719636,83.8548732 147.846069,84.0631984 152.267224,86.1165035 C153.978122,86.9107433 155.583514,87.981014 157.036454,89.4549147 C158.626067,90.9756886 159.906729,92.8115543 160.766286,94.8375168 C161.034808,95.4624924 161.177089,96.1122065 161.600934,96.6265093 C161.728739,97.3178886 161.873368,98.0040597 161.971178,98.7019491 C162.218965,101.429707 162.556866,104.303293 161.503124,106.920378 C160.84962,108.52318 159.510402,107.234168 158.622154,106.606588 C157.177301,105.598815 155.84695,104.44261 154.520773,103.286405 C150.446649,99.4597319 145.685244,96.2059529 139.970514,95.6682135 C133.800641,94.8114761 127.115504,93.7412055 120.967931,93.5849616 M118.495287,93.5940758 C118.156212,94.4586253 117.823526,95.3257789 117.496318,96.1942346 C115.875145,95.9169017 112.424529,95.2632814 111.012018,94.5185188 C111.515415,94.5354453 112.013726,94.2737367 112.141531,93.6734998 C112.197609,93.4078852 112.28616,93.159197 112.35541,92.9000925 C113.207011,90.1280655 113.933285,87.300051 115.13583,84.6426028 C116.312162,81.8367229 117.711501,79.110267 118.780763,76.262722 C120.593644,76.1481432 123.457529,78.3954512 124.752407,79.312082 C122.44278,83.9642439 120.391372,88.7361928 118.502982,93.5732433 C118.46777,93.5732433 118.431385,93.5732433 118.396173,93.5745453 C118.428776,93.5810555 118.462684,93.5875656 118.495287,93.5940758 M107.815708,93.2659636 C98.5170794,92.6852572 89.0935145,93.2972124 79.9019556,91.6501414 C78.1596283,91.35458 76.5359775,90.8207467 75.0282645,90.0929106 C70.641147,87.9758058 67.2322628,84.2168382 64.7217987,79.913621 C55.6528287,66.2748312 45.6735709,52.7271837 41.2095093,36.7473396 C38.5645887,29.0132669 38.0495849,17.4525209 47.294483,14.124526 C51.3946903,12.5959399 56.3464992,12.6896863 59.8756249,9.91635716 C59.4764285,11.3824457 59.2521169,12.9162399 59.0461936,14.2742597 C58.6992931,16.4890169 58.3574788,18.780594 58.6393028,21.0200898 C58.6419111,21.0396203 58.6445194,21.0591508 58.6483014,21.0773792 C58.1854631,22.3377466 59.6420539,23.5278043 61.0713883,23.4041112 C64.0866839,23.3351035 65.565445,19.7154533 68.5871309,19.6047805 C69.6904309,19.5644175 70.3491506,20.2219439 71.0246937,21.0044654 C72.6599513,22.9015267 74.2615622,24.8350448 76.2371996,26.3896716 C76.3781769,26.5003443 76.5659726,26.366235 76.4864203,26.1969708 C75.4886249,24.0681477 74.0894161,22.1828048 72.7018141,20.2909516 C69.8248875,15.7012873 65.9529042,17.8131839 62.6795198,20.6034394 C62.0416663,21.0656609 61.3936406,21.4406463 60.7375291,21.2765902 C60.7805657,21.1190443 60.7923029,20.9367597 60.764916,20.7336427 C60.5211728,18.9368379 60.7596995,17.0423807 61.0074855,15.2598983 C61.5736115,11.9332054 61.4053778,7.59483333 64.6173373,5.58058915 C66.0192848,4.78895343 67.7146631,4.68869693 69.0787906,5.58709931 C68.8283963,6.20035659 68.5297488,6.89043378 68.4867123,7.53884593 C68.2128435,7.34614513 68.027656,7.40603862 67.9780988,7.82399104 C69.0409706,10.954077 70.78082,13.8302667 72.2569729,16.7819742 C73.4098302,18.9967314 74.5692082,21.2088845 75.752191,23.4080173 C76.1015694,24.0889802 76.3963044,24.8103062 77.077064,25.1878956 C77.0784985,25.1944058 77.0796723,25.2009159 77.0809764,25.2074261 C77.5413368,26.7242939 77.5413368,28.3544385 77.8960621,29.8973469 C78.1139835,30.8400184 78.3643778,31.787898 78.6315955,32.7305695 C78.8845981,33.6146496 79.1520767,34.4948235 79.4233372,35.3606751 C82.6522505,46.5334154 85.7105826,57.758237 88.8587698,68.955716 C85.1315457,67.0313121 83.2417205,63.4337964 81.535909,59.7568568 C77.0366357,50.2819668 72.3236143,39.9399231 67.2882102,31.1980773 C71.9714973,41.1364909 78.3955467,64.418133 86.3952546,70.2056671 C87.6157966,71.0129272 88.946147,71.6209764 90.3350531,72.1027284 C90.9152637,72.6274475 91.523122,72.7407243 91.9311866,72.6014068 C94.4456935,73.3058064 97.0787465,73.7107385 99.549956,74.2276453 C103.835481,75.1260477 108.12218,76.0179399 112.410183,76.9059261 C113.860384,77.2053935 115.317105,77.6064195 116.798605,77.6767293 C116.87281,77.6806354 116.944668,77.6780313 117.011049,77.6689171 C113.746924,81.4161664 111.549453,86.5318519 110.293569,91.3272373 C109.270995,91.032978 108.111747,92.1227791 107.815708,93.2659636 M71.0116523,93.6787079 C63.759215,104.546773 52.3936594,111.288697 43.0338668,120.061791 C37.4260769,125.9613 32.9541905,132.811293 27.8394948,139.123546 C27.6816942,139.318851 27.5224591,139.514156 27.3634848,139.708159 C26.9695049,140.192515 26.4218977,140.725046 26.1048619,141.19508 C26.0958634,141.209402 26.0867344,141.222422 26.0789096,141.232839 C25.3380293,139.687326 25.7436159,137.710841 25.7162291,135.949191 C25.829689,132.93108 26.2248426,129.939009 26.8183554,126.980792 C28.7561729,115.103652 35.4282691,104.53245 36.8796434,92.5876047 C36.8313903,79.8836742 36.1990142,67.1432868 37.2708846,54.4432624 C37.6621257,48.646614 38.0729289,42.8473616 38.6545741,37.0650355 C42.6714471,51.9667968 54.400857,68.0416892 61.0597814,78.3329536 C63.7461736,82.2663936 66.151133,86.5578925 69.9343046,89.5668895 C70.8486352,90.2882154 71.8136967,90.9079829 72.8178823,91.4418162 C72.1382964,92.114967 71.5566513,92.8818641 71.0116523,93.6787079 M94.7665112,35.5624901 C95.7654803,35.3007816 97.9706459,35.039073 99.1169825,34.2864983 C99.7101041,36.3170179 100.351609,38.3319131 101.028456,40.33509 C99.3857652,39.8503433 97.6078349,40.077548 95.9157169,40.262046 C93.7109426,40.5024011 91.5091678,40.7638493 89.3083059,41.0376667 C87.2923706,41.2883079 85.277609,41.5485842 83.2637604,41.8161519 C82.5454416,39.2438566 81.8220367,36.6731237 81.0872858,34.1055158 C85.2879117,36.0494502 90.2698462,36.320273 94.7665112,35.5624901 M97.0525333,16.211684 C97.0487513,16.0411177 97.0083231,15.8627393 96.9195113,15.6791527 C96.9066004,15.6531121 96.8947327,15.6270714 96.8816913,15.6010308 C96.5387033,14.3784223 96.190629,13.1571159 95.8359037,11.9371115 C95.7824341,11.7313904 95.4563998,11.7717534 95.4627901,11.9878908 C95.4601818,12.1389265 95.4590081,12.2886603 95.4575735,12.439696 C95.4342295,12.3771985 95.4120591,12.3147009 95.3897584,12.2509013 C94.9503946,10.9788156 94.6282727,9.668971 94.4156983,8.33829385 C98.1794383,9.11300315 101.279372,17.3158075 103.030829,23.1801616 C101.591061,22.7322624 99.7026705,22.6307039 99.1431956,23.8220636 C98.4492642,21.2844024 97.7608102,18.7454391 97.0525333,16.211684 M91.2131286,64.7842645 C92.1511945,64.7229387 93.0895212,64.6646077 94.0273263,64.5996363 C95.9463641,64.4666988 97.8648804,64.3281625 99.7836574,64.1924907 C100.243887,64.1599399 100.704117,64.1263475 101.164347,64.0924946 C102.467441,64.0208829 103.770666,63.9487503 105.07389,63.8793519 C106.514701,63.8027924 107.972335,63.6721986 109.42397,63.6189454 C109.697187,63.6129561 109.970534,63.6085292 110.243751,63.6056647 C110.297611,63.7150354 110.353298,63.8224531 110.413549,63.9246627 C108.50038,64.4532878 106.752836,65.0652431 105.352193,65.6824064 C102.170098,67.0742791 99.1105922,68.9062388 96.4971013,71.2095341 C96.0132664,71.1092776 95.5294315,71.0077191 95.0454662,70.9048586 C93.7179849,70.6184114 92.3734195,70.3124338 91.0782808,69.8762529 C90.74703,69.0650867 90.638917,68.111999 90.3572234,67.3125511 C90.1338247,66.5114105 89.910426,65.7100095 89.6870273,64.9087388 C90.1973362,64.9001454 90.7192519,64.8164247 91.2131286,64.7842645 M88.0466835,58.2319164 C88.0638981,58.2300936 88.0809823,58.2280103 88.0980665,58.2260573 C88.1001532,58.2260573 88.1023702,58.2259271 88.1044568,58.2259271 C88.3139012,58.2192867 88.5232153,58.2112141 88.7325293,58.2014489 C89.1510269,58.1820486 89.5693941,58.1570496 89.9873701,58.1273632 C90.8243653,58.0678603 91.6596652,57.9884364 92.4937914,57.8975545 C94.1647823,57.71527 95.8304264,57.4874143 97.4977657,57.2754434 C98.4801723,57.1504483 99.4591881,57.0429004 100.437421,56.9513675 C102.724617,56.799811 105.018725,56.6836697 107.303443,56.6515095 C108.034673,58.3897228 108.776857,60.1227279 109.525432,61.851827 C109.595986,62.0131488 109.664583,62.1886628 109.734224,62.3708171 C106.375549,62.3068874 103.002529,62.6249739 99.6557216,62.8249661 C97.7795898,62.9370711 95.9031972,63.0460512 94.0273263,63.161281 C93.0889996,63.2188309 92.1510641,63.2826305 91.2131286,63.343826 C90.586882,63.3845796 89.9138168,63.3576275 89.2875701,63.4757219 C89.1550697,63.0003498 89.0225694,62.5249778 88.8900691,62.0497359 C88.5429077,60.8180133 88.1996588,59.5851187 87.8556274,58.3524846 C87.9227905,58.3201942 87.9872149,58.280352 88.0466835,58.2319164 M85.1885365,48.7472611 C84.6501886,46.8026757 84.1114496,44.8580903 83.5698414,42.9144162 C83.6715641,42.9003543 83.7732868,42.8862923 83.8748791,42.8722304 C84.2551655,42.8198887 84.6355823,42.7679376 85.0159991,42.7161167 C85.8540377,42.6021889 86.6922067,42.4896933 87.5306365,42.3787601 C88.180488,42.2928259 88.83047,42.208324 89.4805824,42.1240825 C90.1983795,42.063538 90.9164374,42.005858 91.6347562,41.9528653 C94.8829707,41.7136819 98.1567463,41.4918156 101.415785,41.4734569 C102.100066,43.4530671 102.820602,45.4205683 103.567481,47.3784344 C100.795798,47.5469174 98.0269846,47.7699556 95.2590838,47.9919521 C93.6668628,48.1196815 92.0750329,48.2522284 90.4837247,48.3894626 C89.7094585,48.4562569 88.935453,48.524223 88.1614476,48.5932307 C87.7314736,48.6315105 87.3014995,48.670311 86.8715255,48.709372 C86.6232178,48.7318972 86.2990093,48.8161387 86.0196631,48.8179615 C85.9834081,48.7893168 85.9455881,48.7615835 85.9054207,48.7338502 C85.7017145,48.5936213 85.4015021,48.6182297 85.1885365,48.7472611 M85.8366927,50.388473 C87.6647018,50.1659557 89.488668,49.9263817 91.315373,49.7045154 C92.3285572,49.6062119 93.3418718,49.5092105 94.3554472,49.4148132 C97.5761444,49.1146947 100.800493,48.8546788 104.021321,48.5585966 C104.895223,50.8128054 105.802903,53.0543844 106.73197,55.2865889 C102.787868,55.0268334 98.771647,55.6882659 94.8717551,56.1460605 C92.7899609,56.390452 90.7025589,56.6108861 88.6069409,56.6888778 C88.2751684,56.7011169 87.8114172,56.6839301 87.4135249,56.7719475 C86.8720472,54.8264506 86.332656,52.8803027 85.793917,50.9338944 C85.8018722,50.7529119 85.8159569,50.5712784 85.8366927,50.388473 M118.217376,76.3955293 C118.079137,76.5270346 117.943507,76.662446 117.809311,76.8017635 C117.81192,76.7574944 117.813093,76.7145273 117.81192,76.6702582 C117.814528,76.6689562 117.817136,76.6676541 117.81831,76.6663521 C117.93829,76.5491692 118.071443,76.4593289 118.217376,76.3955293 M115.777335,20.6958837 C119.832028,30.5158124 123.333506,40.6130739 127.131284,50.5527895 C128.349218,53.9276576 129.549154,57.3090358 130.683754,60.7138507 C131.114119,61.8388067 131.271919,63.1017782 132.156124,63.9858582 C132.19264,64.0223151 132.233069,64.0561679 132.276105,64.0848126 C131.088166,64.5828401 130.014992,65.1364642 129.15061,65.696208 C129.548111,67.0419887 130.028033,68.3629006 130.601332,69.6374602 C130.806212,70.0927809 130.131712,70.4896404 129.925789,70.0317156 C129.197037,68.4117268 128.609002,66.7263761 128.14825,65.0074328 C127.57443,64.234937 126.910493,63.5419953 126.050154,63.1095904 C124.389987,62.5067493 122.296847,62.2984241 120.04056,62.3661298 C120.004174,62.3010282 119.955921,62.2385307 119.897235,62.1799392 C119.149834,61.4612173 118.853925,60.3180328 118.482246,59.3662471 C117.401116,56.5890119 116.481569,53.7466751 115.726474,50.8626732 C114.983246,48.0073161 114.522755,45.0842533 113.750706,42.2354063 C113.59434,41.7367279 113.107766,39.3279679 112.654057,39.4607752 C112.663186,39.5154606 112.671011,39.5688439 112.678836,39.6235292 C112.655361,39.6079049 112.629148,39.6013947 112.603196,39.6026967 C112.420616,45.4956955 113.963411,51.4316614 115.730517,57.0317029 C116.219568,58.8975154 117.330693,60.6435409 117.686722,62.5262798 C116.138711,62.6864298 114.560575,62.9494404 113.030822,63.2814586 C113.008782,63.1577656 112.977353,63.0353745 112.940837,62.9116814 C112.920101,62.7398131 112.867805,62.6044018 112.792165,62.5015412 C112.599153,62.0302055 112.343542,61.570588 112.154572,61.1461254 C111.765939,60.2685556 111.379784,59.3909857 110.997803,58.5095098 C108.917573,53.6893857 106.948457,48.8171803 105.211216,43.8616448 C103.068649,37.8527651 101.317192,31.7280046 99.6270305,25.5863175 C100.759022,26.1917626 102.935496,24.9821745 104.269759,27.7463894 C104.557973,28.4429767 105.198174,28.9403531 105.992524,28.7229137 C106.688933,28.5315149 107.215805,27.7203487 106.970627,27.0029288 C106.935415,26.8857459 106.897595,26.769865 106.854559,26.6565882 C105.554204,22.8064783 104.501895,18.8548098 102.626546,15.2312536 C107.439986,15.7169117 113.133849,16.0619503 115.777335,20.6958837 M160.613702,85.054045 C161.029722,87.018812 160.762243,89.0851375 160.650218,91.0850593 C158.747482,88.5604184 156.336002,86.4055547 153.515283,84.970715 C153.327488,83.7077435 152.530529,82.6075261 152.162763,81.3810115 C151.483438,79.6506104 150.932961,77.8824504 150.43752,76.0973639 C155.037211,77.0543578 159.514314,80.3901649 160.613702,85.054045 M143.936787,100.104498 C145.498491,108.518623 147.979091,116.721297 149.796014,125.078522 C149.902693,125.569519 149.14825,125.777323 149.041441,125.286196 C147.224517,116.928971 144.744048,108.726297 143.182213,100.312173 C143.090924,99.8198741 143.845106,99.6108979 143.936787,100.104498 M143.135264,177.462152 C144.381759,177.636494 145.625645,177.788832 146.879572,177.921639 C144.383323,178.964306 142.055569,178.709499 140.024636,176.866732 C141.064294,177.119326 142.112038,177.312418 143.135264,177.462152 M198.135555,189.860755 C198.065262,189.526914 197.880596,189.310386 197.647807,189.193203 C197.68328,182.190613 182.940661,179.91453 178.473339,175.455329 C176.429626,174.012937 174.942779,171.630218 172.569249,170.737154 C173.91225,168.662235 173.551395,165.991897 173.2534,163.660347 C172.601592,159.406477 170.963726,154.652366 170.535447,152.022781 C167.303926,138.506383 164.169954,124.957433 160.513153,111.547801 C160.438817,111.291301 160.300579,110.783508 160.127128,110.222332 C160.521108,110.31738 160.897874,110.348629 161.251295,110.303058 C166.380466,109.167686 165.228913,98.8087157 164.024021,95.0549562 C163.894781,94.6122652 163.593525,94.3323282 163.240104,94.2008229 C163.285749,93.9716652 163.244147,93.7281851 163.08113,93.4951213 C162.993752,93.3701262 162.859296,93.280286 162.713233,93.2347149 C162.55804,89.6723541 163.448766,85.8430767 161.570939,82.5879956 C159.460714,79.0282389 154.426745,76.0830416 150.376225,75.8760184 C149.795884,73.7771421 149.287271,71.6574333 148.726361,69.5546509 C148.110939,67.3529141 147.234428,64.9871211 145.391813,63.5106163 C143.00785,61.3935116 137.918976,62.0393197 133.697615,63.535355 C133.928447,62.4325335 133.402749,61.4351766 133.080758,60.4013629 C132.030797,57.3077338 130.949798,54.224521 129.846367,51.1504224 C125.885833,40.7862442 122.633184,30.0431746 117.678898,20.106063 C115.62749,16.7377051 111.682475,15.2195353 107.89526,14.9070475 C106.118895,14.7286691 104.229331,14.6596613 102.436142,14.8692886 C102.37876,14.7599178 102.320074,14.6518491 102.260084,14.5437804 C100.790321,12.0009111 97.8076287,7.26672115 94.3752701,8.07918939 C94.0125895,5.66131516 94.007373,3.18354743 94.3060204,0.764371163 C94.327017,0.592502881 94.045193,0.518287032 93.9747695,0.674530924 C91.7003543,5.76808182 92.1230251,12.036066 94.8980987,16.8587941 C95.1015441,17.1934165 95.3781516,17.3665868 95.6649313,17.416064 C96.1070338,22.4796681 97.2117685,27.4768686 98.5745918,32.3816248 C98.3698423,32.389437 98.1729176,32.4324041 98.0084659,32.5053179 C93.6606029,34.0950995 88.8795055,34.354204 84.3542799,33.4258548 C83.0800075,33.1576362 81.8462937,32.7969732 80.6060592,32.4298 C80.3714449,31.6173318 80.1365698,30.8074676 79.900521,29.9963014 C79.3084427,27.4339016 79.1572932,24.9717582 77.6549272,22.9080368 C77.5661154,22.755699 77.4749562,22.6046633 77.3874486,22.4536275 C76.1811217,20.2688171 74.9552328,18.0957249 73.7203453,15.9278409 C73.4202633,15.5723861 71.4146307,11.6259258 69.8534481,9.2393003 C70.0490687,9.23409217 70.2513404,9.18461493 70.4481347,9.08566047 C71.5488264,8.53750481 71.5370892,6.94772321 71.7379263,5.88135864 C72.3534791,2.56768609 73.0656684,-0.751194594 73.261289,-4.12215657 C73.2715917,-4.29402486 73.0082864,-4.36693867 72.9312119,-4.21069478 C71.4302804,-1.23945676 70.3895789,1.94010645 69.278454,5.07149446 C69.2561533,5.13399202 69.2328092,5.19779161 69.2080306,5.26289323 C68.1777622,3.96606893 66.3689239,3.65748724 64.7933958,4.00643193 C62.1604732,4.69260303 60.8327312,6.82923825 60.0672026,9.25883078 C52.4966862,12.8667627 43.4877065,9.18201087 38.8932312,18.7272107 C36.8236959,23.7152969 36.86282,29.3713258 38.2033427,35.2578145 C34.7121674,53.102169 33.6193004,71.3566638 34.3458353,89.5135061 C34.0874857,101.795578 26.5417479,112.451412 24.3794884,124.404069 C23.300967,129.114823 22.6241198,133.944061 22.707715,138.783716 C22.5420896,141.340907 23.6714724,145.116801 26.9525511,144.122049 C27.3268385,143.987939 27.6660446,143.782218 27.9789071,143.53353 C29.3495553,164.241054 45.3331911,168.246106 63.755433,164.679839 C64.5012691,164.692859 65.2341942,164.520991 66.018111,164.300947 C66.3989191,164.18767 66.7769885,164.069186 67.1551883,163.94419 C67.4396206,163.876485 67.7250962,163.807477 68.0107022,163.735865 C68.2223637,163.692768 68.4345468,163.651884 68.6465995,163.610089 C73.8991425,160.142646 79.3550004,156.984176 84.5445535,153.418951 C84.910364,153.167528 85.3584655,153.75162 85.0186074,154.032468 C81.5519499,156.894857 78.1584545,159.88237 74.5513415,162.57302 C84.8282034,160.941834 95.2858187,161.219818 104.881399,156.992639 C111.61466,154.051348 117.951332,148.157047 121.767368,141.797921 C121.82501,141.898958 121.881219,142.000387 121.93834,142.101555 C121.752892,141.575403 121.567704,141.049252 121.384473,140.52245 C118.131564,131.169821 115.188387,121.70743 111.632657,112.461698 C111.451642,111.991143 112.208433,111.789458 112.3871,112.254023 C113.383983,114.84624 114.334307,117.455903 115.255159,120.075983 C118.550844,129.4527 121.496759,138.951027 125.006975,148.252616 C125.027189,148.306 125.03397,148.355607 125.032275,148.401569 C125.765331,150.206576 126.364973,152.045437 126.780471,153.930259 C127.211227,155.902578 127.841126,160.115173 128.464373,163.660347 C129.010154,166.584191 129.407655,169.975595 131.441327,172.219909 C131.438979,172.224596 131.436762,172.229153 131.434285,172.233971 L131.434415,172.233971 C131.362687,172.373548 131.29409,172.511824 131.227188,172.649449 C131.371295,172.792803 131.554265,172.886679 131.723542,172.993837 C131.749755,172.870925 131.775186,172.748664 131.804007,172.623539 C132.298667,173.147607 132.847578,173.618552 133.437178,174.043665 C132.772329,178.95402 127.818564,183.710866 130.383672,188.850899 C129.161043,191.660685 132.161863,193.946794 134.631507,194.526589 C138.417548,195.735396 142.324613,196.644344 146.202073,197.507201 C153.878616,198.936052 177.904344,204.218007 183.655328,200.106449 C183.572907,199.228879 184.653776,196.377558 183.378069,196.335502 C183.943673,195.778102 184.41251,195.126435 184.767627,194.419041 C188.287363,195.562746 192.198992,195.153127 195.782761,194.731138 C198.681075,194.793636 198.574788,191.974605 198.135555,189.860755" id="🖍-Ink" fill="#000000"></path>
                </g>
                <g id="Head" stroke-width="1" transform="translate(43.989071, 22.917966)">
                    <g id="head/Long-Bangs">
                        <path d="M51.7498652,25.8690362 C50.4364408,21.1344391 45.415949,19.0685117 40.8943825,18.7406575 C28.6521603,17.4698563 16.1911403,24.2846408 10.7637814,35.3350475 C6.41931876,43.7259515 6.2832714,52.5404559 15.6219599,57.3314567 C16.1319781,57.6122018 16.6645647,57.9122998 17.2084991,58.1847689 C17.681031,58.6235207 18.1677158,59.0450839 18.6988998,59.3990392 C23.7841639,62.7381868 30.0256393,64.1824007 36.0742004,63.8691885 C45.0047468,63.6894098 48.1928707,57.6381755 50.1438179,49.8780248 C52.2014863,42.1522511 53.3522149,33.7691138 51.7498652,25.8690362 L51.7498652,25.8690362 Z" id="🎨-Background" fill="#FFFFFF"></path>
                        <path d="M57.6120783,70.496173 C57.1951384,69.2369581 56.6723698,68.0159398 56.1840273,66.7821893 C56.0807486,66.1672239 56.0118962,65.5471656 55.994173,64.9220144 C55.9264681,62.6887859 56.3448106,60.4364591 56.8138998,58.2617988 C57.7676339,53.842451 58.778745,49.4689391 59.2862131,44.9681052 C60.1927705,36.917533 59.6534262,28.5461093 55.9863953,21.1970815 C52.8089818,14.8309798 47.4244645,9.62478183 40.4690911,7.67420827 C38.4129526,7.09731214 36.2967596,6.77913437 34.166031,6.65206698 C33.902224,6.61017803 33.6387996,6.56918034 33.3766503,6.52971051 C30.4129344,6.0835741 27.4127523,5.86126983 24.4171603,6.05365342 C19.4495829,6.37284976 14.5284171,7.79834725 10.3911494,10.6177664 C6.2257031,13.4566658 3.2660674,17.4372618 1.88889071,22.2924329 C0.456249545,27.343298 0.577761384,32.8134346 -1.89620947,37.5487957 C-2.62706557,38.9478102 -3.48019854,40.2778161 -4.2938051,41.6299761 C-6.4525847,44.0352167 -8.79637341,46.7091067 -9.30996175,50.0162965 C-9.94365938,54.1034612 -7.58865027,57.5577079 -5.35987067,60.7471249 C-3.34529872,63.6271493 -0.611601093,67.6046896 -2.68482514,71.1506083 C-3.66278506,72.8236198 -5.22981603,74.0751954 -6.40668306,75.6005134 C-7.62690164,77.1843995 -8.57936066,79.0025581 -9.07152823,80.9454923 C-9.99593625,84.5944145 -9.14548087,88.397651 -6.67316758,91.2496645 C-5.38537158,92.7342395 -3.73163752,93.7158923 -1.94147359,94.4810978 C-0.109233151,95.2628551 1.68093078,96.0051425 3.19568488,97.3356578 C3.88803461,97.9429839 4.52173224,98.6088781 5.12100364,99.3066028 C5.67947359,100.178759 6.32974681,100.99362 7.062898,101.739727 C7.87000182,102.560954 9.45105829,101.4367 8.71025683,100.470326 C8.65542987,100.399026 8.60187796,100.328999 8.547051,100.257698 C8.00515665,99.5523344 7.4607122,98.8469703 6.89076685,98.1645242 C5.19113115,95.4753555 4.53703279,92.1829351 5.38238798,89.0419005 C5.60169581,88.2257662 5.91025683,87.4516483 6.29417304,86.7208198 C6.37564845,86.9334476 6.46490164,87.1435289 6.55925501,87.3510639 C6.92646812,88.1557391 7.44171403,89.1092538 8.09695993,89.9242422 C8.12246084,90.4830586 8.20674135,91.0370367 8.36981967,91.5794286 C9.37965574,94.9420035 12.7559763,96.6010096 15.8007851,97.8920551 C16.0991457,98.0193771 16.3936812,98.1416062 16.6831166,98.2625622 C17.478745,98.5947454 18.320275,97.4629798 17.8242823,96.7804064 C17.6942277,96.6010096 17.5679982,96.4176659 17.4481439,96.2317757 C16.0200929,94.0240117 15.3404936,91.3833527 15.7255574,88.7528795 C16.1310219,85.970893 17.7732805,83.6689106 19.4040638,81.4598734 C21.0055209,79.2877595 22.7255574,77.0710828 23.442133,74.4215113 C24.2352113,71.4943778 23.5135355,68.5761567 22.2894918,65.8820225 C21.1687268,63.416686 19.675776,61.1443696 18.4238087,58.7468957 C18.8524791,59.1738065 19.2947923,59.5867119 19.7504936,59.9849752 C20.2629344,60.4328941 20.7894007,60.9454926 21.3967049,61.2612513 C21.845776,61.4946325 22.295612,60.9359435 21.9400018,60.558179 C21.4725701,60.0618777 20.8744463,59.6783837 20.3553752,59.2354304 C19.8570874,58.8103021 19.3732077,58.3681127 18.9013133,57.913955 C18.320275,57.3548839 17.7675428,56.7694572 17.2345738,56.1663327 C16.808071,55.0814217 16.4566685,53.9673539 16.1705483,52.8366069 C15.7816594,51.3061961 15.4220965,49.6777473 15.4501475,48.0913147 C15.4781985,46.4641391 16.3248288,45.3246069 17.451969,44.2321839 C17.9293461,43.7696229 18.4113133,43.3125368 18.892388,42.8545595 C19.9170146,42.1034868 20.8834991,41.2644346 21.8223151,40.4276742 C23.4951749,38.9366058 25.1132077,37.3604864 26.6584353,35.7382763 C27.0729526,35.3030896 27.4840273,34.8630647 27.8900018,34.4179468 C29.30849,32.9644385 30.6613133,31.4467599 31.9364863,29.8766245 C33.2038816,29.4157188 34.4215501,28.8058462 35.5639909,28.08775 C35.0667231,28.590672 34.5643552,29.0872279 34.0645373,29.5876035 C32.9514226,30.7029445 31.7950838,31.8233784 30.5046102,32.7323304 C30.3720055,32.8266761 30.4523333,33.0265717 30.6156667,32.9947412 C32.2565228,32.6675235 33.7916776,32.1225852 35.2248288,31.2542489 C36.6822058,30.370634 37.9661767,29.1699873 39.1647195,27.9655208 C39.8430437,27.6599479 40.4972696,27.2665228 41.0951384,26.8794639 C41.1270146,26.8590923 41.1588907,26.8374476 41.1907668,26.8169487 C40.6016958,28.6810706 39.7373424,30.79207 37.8947741,31.456691 C37.834847,31.4783357 37.8386721,31.5776469 37.9100747,31.5738273 C39.4623151,31.4829193 40.7098197,30.7855765 41.6946648,29.7691647 C42.4867231,29.2000353 43.2425701,28.5969108 43.9638634,27.9403111 C44.6625883,27.3042102 45.3244645,26.6220187 45.9530619,25.9156361 C45.0745556,27.6534545 44.0904754,29.3526944 43.1199107,31.0327086 C43.0689089,31.121834 43.1760128,31.24279 43.267816,31.1804022 C45.3168142,29.7951384 46.8710947,28.0075371 48.1423151,25.893864 C48.3300018,25.5826889 48.5091457,25.266421 48.683827,24.947734 C48.5519872,25.4464544 48.4080346,25.9419917 48.2538816,26.4349826 C47.9747741,27.3273828 47.7000018,28.2218201 47.4203843,29.1137109 C47.269674,29.5946062 47.0859399,30.0645519 46.8843552,30.5264762 C46.74002,30.8570042 46.5510583,31.1868956 46.5217322,31.5493814 C46.5198197,31.5734453 46.5460856,31.5892332 46.5671239,31.584013 C47.384173,31.3800431 48.1449927,30.4495737 48.7271785,29.8731868 C49.0514226,29.552208 49.3551384,29.1999079 49.6345009,28.8283822 C49.6863953,30.9682837 49.7220965,33.1084397 49.6749199,35.2547073 C49.5870692,39.1965974 49.3320601,43.1372144 49.0055209,47.066245 C48.7173607,50.5397174 48.5044281,54.1849473 46.5638087,57.2037527 C45.0618051,59.540112 42.6264681,61.1569745 39.9807486,61.9401323 C39.7474153,62.0101595 39.5128069,62.0725473 39.2769235,62.1285689 C35.4466867,63.0363751 31.6317505,62.007613 28.2452295,60.1894544 C27.2277432,59.6432428 26.3581621,61.125144 27.3399472,61.7350165 C31.0146284,64.0193012 35.6723698,64.7972388 39.8315683,63.7735696 C39.7003661,68.6791603 42.1215501,73.3329079 44.5301111,77.493792 C45.8778342,79.822512 47.2268324,82.1359534 48.1794189,84.6607493 C48.9876703,86.8048523 49.5372149,89.0291683 49.7220965,91.3171452 C49.9414044,94.0138259 49.7259217,96.7257852 49.3485082,99.3995479 C49.3281075,99.5445677 49.3077067,99.6911154 49.286031,99.8361352 C49.201878,100.410485 49.7182714,100.891635 50.2780164,100.597648 C52.7528798,99.2989635 53.8200929,96.5308552 54.4690911,93.9718096 C55.0760128,91.5743357 55.4878525,89.1297527 55.7173607,86.6686178 C56.0539727,87.5967954 56.3268324,88.547891 56.53849,89.5179576 C56.5679435,89.6568659 56.595867,89.7956469 56.623918,89.9344279 C56.7845738,90.7454693 58.0137177,90.6881744 58.2100747,89.9344279 C58.245776,89.7981934 58.2802022,89.6619588 58.3120783,89.524451 C59.3257395,85.4310476 59.5985993,81.1619398 59.0630801,76.9767372 C58.7812951,74.7754666 58.3108033,72.6033527 57.6120783,70.496173" id="🖍-Ink" fill="#000000"></path>
                    </g>
                    <g id="face/Contempt" transform="translate(20.273224, 23.681898)" fill="#000000">
                        <path d="M24.2999247,27.9882607 C23.8791776,28.537613 23.1173091,28.9583315 22.2641093,29.1595417 C21.4510679,29.3512813 20.5525123,29.3434575 19.7770547,29.0484039 L19.7104877,29.0219342 C19.1307051,28.7814861 18.574177,28.2959687 18.3628459,27.7892884 C18.2788224,27.5878365 18.2503953,27.3830968 18.3078992,27.1920277 C18.3596258,27.0201548 18.480894,26.8619676 18.6828819,26.7260671 C18.7462954,26.683405 18.8313573,26.6802997 18.9123955,26.6945684 C19.0129478,26.7122732 19.1120569,26.7592515 19.171852,26.822693 C19.5036188,27.1749692 19.9849337,27.5184103 20.5546373,27.5125667 C20.9941995,27.5080659 21.3531712,27.3347454 21.7012755,27.1388745 L21.945885,26.9989833 C22.1818985,26.8645118 22.4212494,26.7381574 22.6920553,26.6804549 C23.1768121,26.5770864 23.7647735,26.7659324 24.1230746,27.07756 C24.2793064,27.2134405 24.3928096,27.3731628 24.4236549,27.5451816 C24.449561,27.6896557 24.4131799,27.8404221 24.2999247,27.9882607 Z M21.7796016,18.3811197 C22.7424367,18.9655337 24.2095018,20.328273 23.1737128,21.7771064 C21.95449,23.0545906 20.1990846,21.5898677 19.3340512,20.9274305 C18.5319517,20.414038 17.6307479,21.7344451 18.3749363,22.3339174 C24.6256858,26.9551007 27.1623723,18.5339358 22.2665901,17.6939922 C21.7275469,17.601434 21.5273449,18.2003249 21.7796016,18.3811197 Z M10.9173224,9.39906533 L11.1939361,9.32332933 L11.4759836,9.24731673 L11.6667082,9.19696089 C12.9767962,8.85454303 14.4217955,8.5531975 15.720929,8.70032201 C16.1947359,8.75405191 16.5792896,9.02028228 16.646357,9.51594696 C16.7028415,9.93419984 16.4321494,10.4737906 15.9714754,10.5481467 C14.4456284,10.7946421 12.8835701,10.7146839 11.3507104,10.9688187 C10.5873406,11.0952495 9.82983607,11.2522375 9.06939891,11.3936923 C8.49116576,11.5014068 7.89367942,11.5392214 7.31047359,11.6263097 L7.44448087,11.6448987 C7.49140255,11.6512648 7.47967213,11.7300771 7.43338798,11.7268941 C7.24115893,11.7077321 7.04863701,11.704752 6.85582223,11.7182096 L6.7731694,11.7249842 C6.6473224,11.742682 6.57311475,11.5926967 6.68531876,11.5165581 C7.39590164,11.0351535 7.99887067,10.5133878 8.79449909,10.1585413 C9.48264117,9.85169516 10.190929,9.59870628 10.9173224,9.39906533 Z M22.8439836,8.66075032 C23.8512696,7.64395656 25.9933461,8.03470788 27.1916339,8.49981527 C27.8755683,8.76540903 28.5258415,9.10115723 29.0674809,9.60344266 L29.1202821,9.65285539 L29.2016202,9.73096292 C29.5672326,10.0883966 29.974945,10.5802432 29.9169162,11.0955296 C29.9081184,11.1740873 29.8652769,11.2638493 29.7764062,11.2796372 C29.2964791,11.364561 28.8250947,11.1116995 28.3818889,10.9595496 L28.0883654,10.8589731 C27.6475881,10.7090472 27.2040018,10.5658005 26.7495756,10.4623571 C26.1844754,10.3340165 25.6080273,10.2597877 25.0278816,10.2671724 C24.4414882,10.2748117 23.8116157,10.4400757 23.2530182,10.2075857 C22.630031,9.94848537 22.3070619,9.20288754 22.8439836,8.66075032 Z M12.8927576,16.8612563 C12.6357469,17.1233294 12.2963317,17.2711965 11.8619353,17.1832335 C11.5224864,17.1145574 10.8761799,16.7737276 10.3598804,16.2488455 C10.0066624,15.8897559 9.711323,15.4410556 9.63103712,14.921268 C9.61239164,14.8005532 9.54824019,14.7231665 9.46400674,14.6744314 C9.39748106,14.6359414 9.30977027,14.6166045 9.2142328,14.6262635 C9.13312192,14.634464 9.0469918,14.6637913 8.98043678,14.7026797 C8.85383163,14.7766556 8.80205533,14.8816776 8.79152959,14.9601 C8.68995916,15.716854 8.98269324,16.4677282 9.4389899,17.1008395 C10.0547898,17.9552614 10.9591161,18.5813783 11.4906442,18.727926 C12.4002352,18.9788535 13.3586733,18.7790973 14.0653129,18.1469315 C14.6303967,17.6414711 14.9200384,16.9829442 15.1887782,16.305774 L15.2405997,16.1745121 C15.3010428,16.0208562 15.3610284,15.8683303 15.4245808,15.7174217 C15.5519558,15.4150269 15.5111616,15.1536438 15.3876572,14.9499139 C15.2508366,14.724218 14.9982919,14.5653472 14.7171396,14.5165519 C14.4572792,14.4714519 14.1791845,14.5207815 13.9596567,14.6792842 C13.7742081,14.8131811 13.624656,15.0253331 13.5715219,15.3390511 C13.4851143,15.849174 13.2846661,16.4344731 12.9312146,16.8206541 L12.8927576,16.8612563 Z M28.4897163,13.9087158 C28.2777767,13.7984422 28.1119675,13.7651942 27.8768638,13.8355323 C27.746852,13.8745276 27.6183563,13.9492641 27.5177553,14.0497211 C27.4180542,14.1492794 27.34612,14.2730882 27.3181591,14.4104367 C27.2493899,14.7494094 27.0636591,15.0667098 26.7989848,15.2735586 C26.572763,15.450356 26.2872199,15.5440628 25.9704986,15.4911971 C25.6287321,15.4342264 25.3031166,15.21535 25.078854,14.9572996 C25.0163914,14.8853426 24.9651793,14.8052475 24.9156607,14.7241792 L24.8860763,14.6754787 C24.7755799,14.4933199 24.6681815,14.3239989 24.5157906,14.1902239 C24.4580242,14.1393266 24.370979,14.1040748 24.2866722,14.1040748 C24.2524077,14.1040748 24.2176341,14.1096424 24.1844981,14.1199548 C23.8443306,14.4608846 23.7789136,14.7195148 23.7898806,14.9760416 C23.8013812,15.2450478 23.9075895,15.5174139 24.0792229,15.7715396 C24.4818326,16.3676558 25.2462536,16.8564156 25.7620909,16.967122 C26.4685266,17.1187157 27.1701016,16.9367375 27.7325921,16.5427416 C28.3113617,16.1373429 28.7402287,15.5079231 28.8739367,14.7985971 C28.9061023,14.6277632 28.8924338,14.4433662 28.8272799,14.283486 C28.7636148,14.127259 28.6526678,13.9934535 28.4897163,13.9087158 Z" id="🖍-Ink"></path>
                    </g>
                    <g id="facial-hair/*-None" transform="translate(15.683060, 43.034847)"></g>
                    <g id="accessories/*-None" transform="translate(5.992714, 30.684610)"></g>
                </g>
            </g>
        </g>
    </g>
</svg>