<?xml version="1.0" encoding="UTF-8"?><svg width="177px" height="255px" viewBox="0 0 177 255" version="1.1" xmlns="http://www.w3.org/2000/svg" xmlns:xlink="http://www.w3.org/1999/xlink"><title>mix-6</title><desc>Created with Sketch.</desc><g id="Mix-N-Match" stroke="none" stroke-width="1" fill="none" fill-rule="evenodd"><g id="Artboard" transform="translate(-430.00, -276.00)"><g id="a-person/sitting" transform="translate(418.00, 248.00)"><g id="pose/sitting/closed_legs-1" transform="translate(-10.33, 81.10)"><path d="M196.71,187.62 C192.84,182.12 184.68,181.21 179.44,177.35 C176.68,175.24 173.76,173.84 171.61,170.99 C175.03,166.98 170.80,157.59 169.93,152.16 C166.49,137.95 163.30,123.52 159.20,109.33 C166.30,111.54 164.45,98.32 163.44,95.26 C163.37,94.84 162.85,94.76 162.53,94.63 C162.62,94.03 162.86,93.90 162.12,93.73 C161.87,90.13 162.89,86.11 161.05,82.93 C158.97,79.46 154.01,76.56 149.91,76.51 C147.03,65.09 146.50,59.71 132.86,64.55 C133.16,63.43 133.25,62.41 132.73,61.29 C130.68,55.10 128.10,48.33 125.86,42.05 C123.27,34.83 120.60,27.37 117.14,20.43 C114.74,16.03 107.21,14.85 102.10,15.58 C100.89,13.43 97.82,7.50 93.93,8.87 C93.91,7.08 93.88,5.29 93.85,3.50 C93.83,1.95 94.00,0.35 93.40,-1.12 C92.76,-2.69 91.47,-3.52 89.95,-4.11 C85.36,-5.63 80.08,-8.06 75.24,-6.56 C71.00,-4.63 71.50,2.63 69.45,6.57 C66.57,2.32 61.68,5.17 60.64,9.73 C48.84,14.43 38.70,9.10 37.95,27.53 C38.60,30.89 39.15,34.04 38.84,37.44 L38.49,37.47 C35.47,53.81 34.31,71.32 35.04,89.52 C34.89,96.68 32.27,103.37 29.74,109.84 C27.88,114.60 25.96,119.51 25.05,124.56 C24.04,128.76 20.33,148.97 28.58,142.26 C28.90,165.25 49.42,168.19 67.89,163.11 C87.50,159.04 109.58,160.21 121.82,140.52 C125.97,147.61 127.40,151.99 128.45,159.41 C129.59,164.85 131.25,171.02 134.30,174.62 C131.67,179.34 130.39,185.10 130.51,188.85 C130.56,190.32 129.89,191.01 130.86,191.92 C135.51,196.32 145.89,196.37 153.79,198.32 C159.20,199.01 178.78,201.64 181.77,199.93 C183.85,200.51 181.43,195.09 183.51,194.97 C184.23,194.98 184.32,194.07 185.06,194.10 C189.74,194.32 199.82,195.69 197.38,191.92 L196.71,187.62 Z" id="🎨-Background" fill="#FFFFFF"></path><path d="M195.55,192.94 C192.10,193.68 188.55,193.48 185.06,193.77 C185.17,193.47 185.26,193.18 185.34,192.87 C188.95,192.43 192.74,192.23 196.18,191.04 C196.26,191.42 196.32,191.82 196.35,192.21 C196.35,192.26 196.34,192.86 196.43,192.75 C196.32,192.88 195.71,192.91 195.55,192.94 M178.12,184.00 C171.84,181.94 165.18,180.16 160.35,175.38 C160.36,175.35 160.36,175.33 160.37,175.30 C161.37,175.02 162.47,174.42 163.42,175.07 C166.49,174.96 169.70,173.89 171.85,171.62 C172.00,171.65 172.14,171.69 172.28,171.75 C176.41,178.78 185.23,180.12 191.68,184.19 C194.30,185.71 199.17,189.81 192.94,189.90 C190.47,190.27 188.00,190.55 185.52,190.74 C185.33,186.78 181.40,185.05 178.12,184.00 M182.51,194.14 C181.26,195.84 179.01,196.51 176.97,196.34 C175.47,196.14 174.15,195.61 172.59,195.73 C160.76,195.28 149.13,192.83 137.60,190.33 C127.27,188.40 135.16,180.78 134.30,174.62 C135.76,175.51 137.41,176.15 139.12,176.63 C141.31,182.72 147.30,181.13 151.54,178.21 C153.18,178.16 155.17,178.41 156.51,177.32 C156.59,177.39 156.67,177.44 156.75,177.49 C157.82,176.86 158.79,176.21 159.90,175.73 C163.67,182.09 171.66,183.54 178.08,185.99 C182.01,187.05 185.22,190.08 182.51,194.14 M182.30,199.58 C178.98,200.57 175.46,200.40 172.04,200.12 C160.79,199.15 149.62,197.23 138.71,194.34 C136.12,193.65 131.10,192.85 130.86,189.61 C133.16,192.62 137.28,192.98 140.73,193.76 C152.07,195.98 163.69,198.85 175.29,198.29 C177.74,198.99 180.41,198.44 182.48,197.08 C182.41,197.92 182.35,198.75 182.30,199.58 M120.97,93.58 C122.65,89.13 124.47,84.74 126.23,80.32 C129.50,82.15 133.19,82.82 136.96,83.24 C137.05,83.29 137.14,83.33 137.24,83.36 C137.42,83.40 137.57,83.38 137.69,83.32 C142.72,83.85 147.85,84.06 152.27,86.12 C153.98,86.91 155.58,87.98 157.04,89.45 C158.63,90.98 159.91,92.81 160.77,94.84 C161.03,95.46 161.18,96.11 161.60,96.63 C161.73,97.32 161.87,98.00 161.97,98.70 C162.22,101.43 162.56,104.30 161.50,106.92 C160.85,108.52 159.51,107.23 158.62,106.61 C157.18,105.60 155.85,104.44 154.52,103.29 C150.45,99.46 145.69,96.21 139.97,95.67 C133.80,94.81 127.12,93.74 120.97,93.58 M118.50,93.59 C118.16,94.46 117.82,95.33 117.50,96.19 C115.88,95.92 112.42,95.26 111.01,94.52 C111.52,94.54 112.01,94.27 112.14,93.67 C112.20,93.41 112.29,93.16 112.36,92.90 C113.21,90.13 113.93,87.30 115.14,84.64 C116.31,81.84 117.71,79.11 118.78,76.26 C120.59,76.15 123.46,78.40 124.75,79.31 C122.44,83.96 120.39,88.74 118.50,93.57 C118.47,93.57 118.43,93.57 118.40,93.57 C118.43,93.58 118.46,93.59 118.50,93.59 M107.82,93.27 C98.52,92.69 89.09,93.30 79.90,91.65 C78.16,91.35 76.54,90.82 75.03,90.09 C70.64,87.98 67.23,84.22 64.72,79.91 C55.65,66.27 45.67,52.73 41.21,36.75 C38.56,29.01 38.05,17.45 47.29,14.12 C51.39,12.60 56.35,12.69 59.88,9.92 C59.48,11.38 59.25,12.92 59.05,14.27 C58.70,16.49 58.36,18.78 58.64,21.02 C58.64,21.04 58.64,21.06 58.65,21.08 C58.19,22.34 59.64,23.53 61.07,23.40 C64.09,23.34 65.57,19.72 68.59,19.60 C69.69,19.56 70.35,20.22 71.02,21.00 C72.66,22.90 74.26,24.84 76.24,26.39 C76.38,26.50 76.57,26.37 76.49,26.20 C75.49,24.07 74.09,22.18 72.70,20.29 C69.82,15.70 65.95,17.81 62.68,20.60 C62.04,21.07 61.39,21.44 60.74,21.28 C60.78,21.12 60.79,20.94 60.76,20.73 C60.52,18.94 60.76,17.04 61.01,15.26 C61.57,11.93 61.41,7.59 64.62,5.58 C66.02,4.79 67.71,4.69 69.08,5.59 C68.83,6.20 68.53,6.89 68.49,7.54 C68.21,7.35 68.03,7.41 67.98,7.82 C69.04,10.95 70.78,13.83 72.26,16.78 C73.41,19.00 74.57,21.21 75.75,23.41 C76.10,24.09 76.40,24.81 77.08,25.19 C77.08,25.19 77.08,25.20 77.08,25.21 C77.54,26.72 77.54,28.35 77.90,29.90 C78.11,30.84 78.36,31.79 78.63,32.73 C78.88,33.61 79.15,34.49 79.42,35.36 C82.65,46.53 85.71,57.76 88.86,68.96 C85.13,67.03 83.24,63.43 81.54,59.76 C77.04,50.28 72.32,39.94 67.29,31.20 C71.97,41.14 78.40,64.42 86.40,70.21 C87.62,71.01 88.95,71.62 90.34,72.10 C90.92,72.63 91.52,72.74 91.93,72.60 C94.45,73.31 97.08,73.71 99.55,74.23 C103.84,75.13 108.12,76.02 112.41,76.91 C113.86,77.21 115.32,77.61 116.80,77.68 C116.87,77.68 116.94,77.68 117.01,77.67 C113.75,81.42 111.55,86.53 110.29,91.33 C109.27,91.03 108.11,92.12 107.82,93.27 M71.01,93.68 C63.76,104.55 52.39,111.29 43.03,120.06 C37.43,125.96 32.95,132.81 27.84,139.12 C27.68,139.32 27.52,139.51 27.36,139.71 C26.97,140.19 26.42,140.73 26.10,141.20 C26.10,141.21 26.09,141.22 26.08,141.23 C25.34,139.69 25.74,137.71 25.72,135.95 C25.83,132.93 26.22,129.94 26.82,126.98 C28.76,115.10 35.43,104.53 36.88,92.59 C36.83,79.88 36.20,67.14 37.27,54.44 C37.66,48.65 38.07,42.85 38.65,37.07 C42.67,51.97 54.40,68.04 61.06,78.33 C63.75,82.27 66.15,86.56 69.93,89.57 C70.85,90.29 71.81,90.91 72.82,91.44 C72.14,92.11 71.56,92.88 71.01,93.68 M94.77,35.56 C95.77,35.30 97.97,35.04 99.12,34.29 C99.71,36.32 100.35,38.33 101.03,40.34 C99.39,39.85 97.61,40.08 95.92,40.26 C93.71,40.50 91.51,40.76 89.31,41.04 C87.29,41.29 85.28,41.55 83.26,41.82 C82.55,39.24 81.82,36.67 81.09,34.11 C85.29,36.05 90.27,36.32 94.77,35.56 M97.05,16.21 C97.05,16.04 97.01,15.86 96.92,15.68 C96.91,15.65 96.89,15.63 96.88,15.60 C96.54,14.38 96.19,13.16 95.84,11.94 C95.78,11.73 95.46,11.77 95.46,11.99 C95.46,12.14 95.46,12.29 95.46,12.44 C95.43,12.38 95.41,12.31 95.39,12.25 C94.95,10.98 94.63,9.67 94.42,8.34 C98.18,9.11 101.28,17.32 103.03,23.18 C101.59,22.73 99.70,22.63 99.14,23.82 C98.45,21.28 97.76,18.75 97.05,16.21 M91.21,64.78 C92.15,64.72 93.09,64.66 94.03,64.60 C95.95,64.47 97.86,64.33 99.78,64.19 C100.24,64.16 100.70,64.13 101.16,64.09 C102.47,64.02 103.77,63.95 105.07,63.88 C106.51,63.80 107.97,63.67 109.42,63.62 C109.70,63.61 109.97,63.61 110.24,63.61 C110.30,63.72 110.35,63.82 110.41,63.92 C108.50,64.45 106.75,65.07 105.35,65.68 C102.17,67.07 99.11,68.91 96.50,71.21 C96.01,71.11 95.53,71.01 95.05,70.90 C93.72,70.62 92.37,70.31 91.08,69.88 C90.75,69.07 90.64,68.11 90.36,67.31 C90.13,66.51 89.91,65.71 89.69,64.91 C90.20,64.90 90.72,64.82 91.21,64.78 M88.05,58.23 C88.06,58.23 88.08,58.23 88.10,58.23 C88.10,58.23 88.10,58.23 88.10,58.23 C88.31,58.22 88.52,58.21 88.73,58.20 C89.15,58.18 89.57,58.16 89.99,58.13 C90.82,58.07 91.66,57.99 92.49,57.90 C94.16,57.72 95.83,57.49 97.50,57.28 C98.48,57.15 99.46,57.04 100.44,56.95 C102.72,56.80 105.02,56.68 107.30,56.65 C108.03,58.39 108.78,60.12 109.53,61.85 C109.60,62.01 109.66,62.19 109.73,62.37 C106.38,62.31 103.00,62.62 99.66,62.82 C97.78,62.94 95.90,63.05 94.03,63.16 C93.09,63.22 92.15,63.28 91.21,63.34 C90.59,63.38 89.91,63.36 89.29,63.48 C89.16,63.00 89.02,62.52 88.89,62.05 C88.54,60.82 88.20,59.59 87.86,58.35 C87.92,58.32 87.99,58.28 88.05,58.23 M85.19,48.75 C84.65,46.80 84.11,44.86 83.57,42.91 C83.67,42.90 83.77,42.89 83.87,42.87 C84.26,42.82 84.64,42.77 85.02,42.72 C85.85,42.60 86.69,42.49 87.53,42.38 C88.18,42.29 88.83,42.21 89.48,42.12 C90.20,42.06 90.92,42.01 91.63,41.95 C94.88,41.71 98.16,41.49 101.42,41.47 C102.10,43.45 102.82,45.42 103.57,47.38 C100.80,47.55 98.03,47.77 95.26,47.99 C93.67,48.12 92.08,48.25 90.48,48.39 C89.71,48.46 88.94,48.52 88.16,48.59 C87.73,48.63 87.30,48.67 86.87,48.71 C86.62,48.73 86.30,48.82 86.02,48.82 C85.98,48.79 85.95,48.76 85.91,48.73 C85.70,48.59 85.40,48.62 85.19,48.75 M85.84,50.39 C87.66,50.17 89.49,49.93 91.32,49.70 C92.33,49.61 93.34,49.51 94.36,49.41 C97.58,49.11 100.80,48.85 104.02,48.56 C104.90,50.81 105.80,53.05 106.73,55.29 C102.79,55.03 98.77,55.69 94.87,56.15 C92.79,56.39 90.70,56.61 88.61,56.69 C88.28,56.70 87.81,56.68 87.41,56.77 C86.87,54.83 86.33,52.88 85.79,50.93 C85.80,50.75 85.82,50.57 85.84,50.39 M118.22,76.40 C118.08,76.53 117.94,76.66 117.81,76.80 C117.81,76.76 117.81,76.71 117.81,76.67 C117.81,76.67 117.82,76.67 117.82,76.67 C117.94,76.55 118.07,76.46 118.22,76.40 M115.78,20.70 C119.83,30.52 123.33,40.61 127.13,50.55 C128.35,53.93 129.55,57.31 130.68,60.71 C131.11,61.84 131.27,63.10 132.16,63.99 C132.19,64.02 132.23,64.06 132.28,64.08 C131.09,64.58 130.01,65.14 129.15,65.70 C129.55,67.04 130.03,68.36 130.60,69.64 C130.81,70.09 130.13,70.49 129.93,70.03 C129.20,68.41 128.61,66.73 128.15,65.01 C127.57,64.23 126.91,63.54 126.05,63.11 C124.39,62.51 122.30,62.30 120.04,62.37 C120.00,62.30 119.96,62.24 119.90,62.18 C119.15,61.46 118.85,60.32 118.48,59.37 C117.40,56.59 116.48,53.75 115.73,50.86 C114.98,48.01 114.52,45.08 113.75,42.24 C113.59,41.74 113.11,39.33 112.65,39.46 C112.66,39.52 112.67,39.57 112.68,39.62 C112.66,39.61 112.63,39.60 112.60,39.60 C112.42,45.50 113.96,51.43 115.73,57.03 C116.22,58.90 117.33,60.64 117.69,62.53 C116.14,62.69 114.56,62.95 113.03,63.28 C113.01,63.16 112.98,63.04 112.94,62.91 C112.92,62.74 112.87,62.60 112.79,62.50 C112.60,62.03 112.34,61.57 112.15,61.15 C111.77,60.27 111.38,59.39 111.00,58.51 C108.92,53.69 106.95,48.82 105.21,43.86 C103.07,37.85 101.32,31.73 99.63,25.59 C100.76,26.19 102.94,24.98 104.27,27.75 C104.56,28.44 105.20,28.94 105.99,28.72 C106.69,28.53 107.22,27.72 106.97,27.00 C106.94,26.89 106.90,26.77 106.85,26.66 C105.55,22.81 104.50,18.85 102.63,15.23 C107.44,15.72 113.13,16.06 115.78,20.70 M160.61,85.05 C161.03,87.02 160.76,89.09 160.65,91.09 C158.75,88.56 156.34,86.41 153.52,84.97 C153.33,83.71 152.53,82.61 152.16,81.38 C151.48,79.65 150.93,77.88 150.44,76.10 C155.04,77.05 159.51,80.39 160.61,85.05 M143.94,100.10 C145.50,108.52 147.98,116.72 149.80,125.08 C149.90,125.57 149.15,125.78 149.04,125.29 C147.22,116.93 144.74,108.73 143.18,100.31 C143.09,99.82 143.85,99.61 143.94,100.10 M143.14,177.46 C144.38,177.64 145.63,177.79 146.88,177.92 C144.38,178.96 142.06,178.71 140.02,176.87 C141.06,177.12 142.11,177.31 143.14,177.46 M198.14,189.86 C198.07,189.53 197.88,189.31 197.65,189.19 C197.68,182.19 182.94,179.91 178.47,175.46 C176.43,174.01 174.94,171.63 172.57,170.74 C173.91,168.66 173.55,165.99 173.25,163.66 C172.60,159.41 170.96,154.65 170.54,152.02 C167.30,138.51 164.17,124.96 160.51,111.55 C160.44,111.29 160.30,110.78 160.13,110.22 C160.52,110.32 160.90,110.35 161.25,110.30 C166.38,109.17 165.23,98.81 164.02,95.05 C163.89,94.61 163.59,94.33 163.24,94.20 C163.29,93.97 163.24,93.73 163.08,93.50 C162.99,93.37 162.86,93.28 162.71,93.23 C162.56,89.67 163.45,85.84 161.57,82.59 C159.46,79.03 154.43,76.08 150.38,75.88 C149.80,73.78 149.29,71.66 148.73,69.55 C148.11,67.35 147.23,64.99 145.39,63.51 C143.01,61.39 137.92,62.04 133.70,63.54 C133.93,62.43 133.40,61.44 133.08,60.40 C132.03,57.31 130.95,54.22 129.85,51.15 C125.89,40.79 122.63,30.04 117.68,20.11 C115.63,16.74 111.68,15.22 107.90,14.91 C106.12,14.73 104.23,14.66 102.44,14.87 C102.38,14.76 102.32,14.65 102.26,14.54 C100.79,12.00 97.81,7.27 94.38,8.08 C94.01,5.66 94.01,3.18 94.31,0.76 C94.33,0.59 94.05,0.52 93.97,0.67 C91.70,5.77 92.12,12.04 94.90,16.86 C95.10,17.19 95.38,17.37 95.66,17.42 C96.11,22.48 97.21,27.48 98.57,32.38 C98.37,32.39 98.17,32.43 98.01,32.51 C93.66,34.10 88.88,34.35 84.35,33.43 C83.08,33.16 81.85,32.80 80.61,32.43 C80.37,31.62 80.14,30.81 79.90,30.00 C79.31,27.43 79.16,24.97 77.65,22.91 C77.57,22.76 77.47,22.60 77.39,22.45 C76.18,20.27 74.96,18.10 73.72,15.93 C73.42,15.57 71.41,11.63 69.85,9.24 C70.05,9.23 70.25,9.18 70.45,9.09 C71.55,8.54 71.54,6.95 71.74,5.88 C72.35,2.57 73.07,-0.75 73.26,-4.12 C73.27,-4.29 73.01,-4.37 72.93,-4.21 C71.43,-1.24 70.39,1.94 69.28,5.07 C69.26,5.13 69.23,5.20 69.21,5.26 C68.18,3.97 66.37,3.66 64.79,4.01 C62.16,4.69 60.83,6.83 60.07,9.26 C52.50,12.87 43.49,9.18 38.89,18.73 C36.82,23.72 36.86,29.37 38.20,35.26 C34.71,53.10 33.62,71.36 34.35,89.51 C34.09,101.80 26.54,112.45 24.38,124.40 C23.30,129.11 22.62,133.94 22.71,138.78 C22.54,141.34 23.67,145.12 26.95,144.12 C27.33,143.99 27.67,143.78 27.98,143.53 C29.35,164.24 45.33,168.25 63.76,164.68 C64.50,164.69 65.23,164.52 66.02,164.30 C66.40,164.19 66.78,164.07 67.16,163.94 C67.44,163.88 67.73,163.81 68.01,163.74 C68.22,163.69 68.43,163.65 68.65,163.61 C73.90,160.14 79.36,156.98 84.54,153.42 C84.91,153.17 85.36,153.75 85.02,154.03 C81.55,156.89 78.16,159.88 74.55,162.57 C84.83,160.94 95.29,161.22 104.88,156.99 C111.61,154.05 117.95,148.16 121.77,141.80 C121.83,141.90 121.88,142.00 121.94,142.10 C121.75,141.58 121.57,141.05 121.38,140.52 C118.13,131.17 115.19,121.71 111.63,112.46 C111.45,111.99 112.21,111.79 112.39,112.25 C113.38,114.85 114.33,117.46 115.26,120.08 C118.55,129.45 121.50,138.95 125.01,148.25 C125.03,148.31 125.03,148.36 125.03,148.40 C125.77,150.21 126.36,152.05 126.78,153.93 C127.21,155.90 127.84,160.12 128.46,163.66 C129.01,166.58 129.41,169.98 131.44,172.22 C131.44,172.22 131.44,172.23 131.43,172.23 L131.43,172.23 C131.36,172.37 131.29,172.51 131.23,172.65 C131.37,172.79 131.55,172.89 131.72,172.99 C131.75,172.87 131.78,172.75 131.80,172.62 C132.30,173.15 132.85,173.62 133.44,174.04 C132.77,178.95 127.82,183.71 130.38,188.85 C129.16,191.66 132.16,193.95 134.63,194.53 C138.42,195.74 142.32,196.64 146.20,197.51 C153.88,198.94 177.90,204.22 183.66,200.11 C183.57,199.23 184.65,196.38 183.38,196.34 C183.94,195.78 184.41,195.13 184.77,194.42 C188.29,195.56 192.20,195.15 195.78,194.73 C198.68,194.79 198.57,191.97 198.14,189.86" id="🖍-Ink" fill="#000000"></path></g><g id="Head" stroke-width="1" transform="translate(43.99, 22.92)"><g id="head/Long-Bangs"><path d="M51.75,25.87 C50.44,21.13 45.42,19.07 40.89,18.74 C28.65,17.47 16.19,24.28 10.76,35.34 C6.42,43.73 6.28,52.54 15.62,57.33 C16.13,57.61 16.66,57.91 17.21,58.18 C17.68,58.62 18.17,59.05 18.70,59.40 C23.78,62.74 30.03,64.18 36.07,63.87 C45.00,63.69 48.19,57.64 50.14,49.88 C52.20,42.15 53.35,33.77 51.75,25.87 L51.75,25.87 Z" id="🎨-Background" fill="#FFFFFF"></path><path d="M57.61,70.50 C57.20,69.24 56.67,68.02 56.18,66.78 C56.08,66.17 56.01,65.55 55.99,64.92 C55.93,62.69 56.34,60.44 56.81,58.26 C57.77,53.84 58.78,49.47 59.29,44.97 C60.19,36.92 59.65,28.55 55.99,21.20 C52.81,14.83 47.42,9.62 40.47,7.67 C38.41,7.10 36.30,6.78 34.17,6.65 C33.90,6.61 33.64,6.57 33.38,6.53 C30.41,6.08 27.41,5.86 24.42,6.05 C19.45,6.37 14.53,7.80 10.39,10.62 C6.23,13.46 3.27,17.44 1.89,22.29 C0.46,27.34 0.58,32.81 -1.90,37.55 C-2.63,38.95 -3.48,40.28 -4.29,41.63 C-6.45,44.04 -8.80,46.71 -9.31,50.02 C-9.94,54.10 -7.59,57.56 -5.36,60.75 C-3.35,63.63 -0.61,67.60 -2.68,71.15 C-3.66,72.82 -5.23,74.08 -6.41,75.60 C-7.63,77.18 -8.58,79.00 -9.07,80.95 C-10.00,84.59 -9.15,88.40 -6.67,91.25 C-5.39,92.73 -3.73,93.72 -1.94,94.48 C-0.11,95.26 1.68,96.01 3.20,97.34 C3.89,97.94 4.52,98.61 5.12,99.31 C5.68,100.18 6.33,100.99 7.06,101.74 C7.87,102.56 9.45,101.44 8.71,100.47 C8.66,100.40 8.60,100.33 8.55,100.26 C8.01,99.55 7.46,98.85 6.89,98.16 C5.19,95.48 4.54,92.18 5.38,89.04 C5.60,88.23 5.91,87.45 6.29,86.72 C6.38,86.93 6.46,87.14 6.56,87.35 C6.93,88.16 7.44,89.11 8.10,89.92 C8.12,90.48 8.21,91.04 8.37,91.58 C9.38,94.94 12.76,96.60 15.80,97.89 C16.10,98.02 16.39,98.14 16.68,98.26 C17.48,98.59 18.32,97.46 17.82,96.78 C17.69,96.60 17.57,96.42 17.45,96.23 C16.02,94.02 15.34,91.38 15.73,88.75 C16.13,85.97 17.77,83.67 19.40,81.46 C21.01,79.29 22.73,77.07 23.44,74.42 C24.24,71.49 23.51,68.58 22.29,65.88 C21.17,63.42 19.68,61.14 18.42,58.75 C18.85,59.17 19.29,59.59 19.75,59.98 C20.26,60.43 20.79,60.95 21.40,61.26 C21.85,61.49 22.30,60.94 21.94,60.56 C21.47,60.06 20.87,59.68 20.36,59.24 C19.86,58.81 19.37,58.37 18.90,57.91 C18.32,57.35 17.77,56.77 17.23,56.17 C16.81,55.08 16.46,53.97 16.17,52.84 C15.78,51.31 15.42,49.68 15.45,48.09 C15.48,46.46 16.32,45.32 17.45,44.23 C17.93,43.77 18.41,43.31 18.89,42.85 C19.92,42.10 20.88,41.26 21.82,40.43 C23.50,38.94 25.11,37.36 26.66,35.74 C27.07,35.30 27.48,34.86 27.89,34.42 C29.31,32.96 30.66,31.45 31.94,29.88 C33.20,29.42 34.42,28.81 35.56,28.09 C35.07,28.59 34.56,29.09 34.06,29.59 C32.95,30.70 31.80,31.82 30.50,32.73 C30.37,32.83 30.45,33.03 30.62,32.99 C32.26,32.67 33.79,32.12 35.22,31.25 C36.68,30.37 37.97,29.17 39.16,27.97 C39.84,27.66 40.50,27.27 41.10,26.88 C41.13,26.86 41.16,26.84 41.19,26.82 C40.60,28.68 39.74,30.79 37.89,31.46 C37.83,31.48 37.84,31.58 37.91,31.57 C39.46,31.48 40.71,30.79 41.69,29.77 C42.49,29.20 43.24,28.60 43.96,27.94 C44.66,27.30 45.32,26.62 45.95,25.92 C45.07,27.65 44.09,29.35 43.12,31.03 C43.07,31.12 43.18,31.24 43.27,31.18 C45.32,29.80 46.87,28.01 48.14,25.89 C48.33,25.58 48.51,25.27 48.68,24.95 C48.55,25.45 48.41,25.94 48.25,26.43 C47.97,27.33 47.70,28.22 47.42,29.11 C47.27,29.59 47.09,30.06 46.88,30.53 C46.74,30.86 46.55,31.19 46.52,31.55 C46.52,31.57 46.55,31.59 46.57,31.58 C47.38,31.38 48.14,30.45 48.73,29.87 C49.05,29.55 49.36,29.20 49.63,28.83 C49.69,30.97 49.72,33.11 49.67,35.25 C49.59,39.20 49.33,43.14 49.01,47.07 C48.72,50.54 48.50,54.18 46.56,57.20 C45.06,59.54 42.63,61.16 39.98,61.94 C39.75,62.01 39.51,62.07 39.28,62.13 C35.45,63.04 31.63,62.01 28.25,60.19 C27.23,59.64 26.36,61.13 27.34,61.74 C31.01,64.02 35.67,64.80 39.83,63.77 C39.70,68.68 42.12,73.33 44.53,77.49 C45.88,79.82 47.23,82.14 48.18,84.66 C48.99,86.80 49.54,89.03 49.72,91.32 C49.94,94.01 49.73,96.73 49.35,99.40 C49.33,99.54 49.31,99.69 49.29,99.84 C49.20,100.41 49.72,100.89 50.28,100.60 C52.75,99.30 53.82,96.53 54.47,93.97 C55.08,91.57 55.49,89.13 55.72,86.67 C56.05,87.60 56.33,88.55 56.54,89.52 C56.57,89.66 56.60,89.80 56.62,89.93 C56.78,90.75 58.01,90.69 58.21,89.93 C58.25,89.80 58.28,89.66 58.31,89.52 C59.33,85.43 59.60,81.16 59.06,76.98 C58.78,74.78 58.31,72.60 57.61,70.50" id="🖍-Ink" fill="#000000"></path></g><g id="face/Contempt" transform="translate(20.27, 23.68)" fill="#000000"><path d="M24.30,27.99 C23.88,28.54 23.12,28.96 22.26,29.16 C21.45,29.35 20.55,29.34 19.78,29.05 L19.71,29.02 C19.13,28.78 18.57,28.30 18.36,27.79 C18.28,27.59 18.25,27.38 18.31,27.19 C18.36,27.02 18.48,26.86 18.68,26.73 C18.75,26.68 18.83,26.68 18.91,26.69 C19.01,26.71 19.11,26.76 19.17,26.82 C19.50,27.17 19.98,27.52 20.55,27.51 C20.99,27.51 21.35,27.33 21.70,27.14 L21.95,27.00 C22.18,26.86 22.42,26.74 22.69,26.68 C23.18,26.58 23.76,26.77 24.12,27.08 C24.28,27.21 24.39,27.37 24.42,27.55 C24.45,27.69 24.41,27.84 24.30,27.99 Z M21.78,18.38 C22.74,18.97 24.21,20.33 23.17,21.78 C21.95,23.05 20.20,21.59 19.33,20.93 C18.53,20.41 17.63,21.73 18.37,22.33 C24.63,26.96 27.16,18.53 22.27,17.69 C21.73,17.60 21.53,18.20 21.78,18.38 Z M10.92,9.40 L11.19,9.32 L11.48,9.25 L11.67,9.20 C12.98,8.85 14.42,8.55 15.72,8.70 C16.19,8.75 16.58,9.02 16.65,9.52 C16.70,9.93 16.43,10.47 15.97,10.55 C14.45,10.79 12.88,10.71 11.35,10.97 C10.59,11.10 9.83,11.25 9.07,11.39 C8.49,11.50 7.89,11.54 7.31,11.63 L7.44,11.64 C7.49,11.65 7.48,11.73 7.43,11.73 C7.24,11.71 7.05,11.70 6.86,11.72 L6.77,11.72 C6.65,11.74 6.57,11.59 6.69,11.52 C7.40,11.04 8.00,10.51 8.79,10.16 C9.48,9.85 10.19,9.60 10.92,9.40 Z M22.84,8.66 C23.85,7.64 25.99,8.03 27.19,8.50 C27.88,8.77 28.53,9.10 29.07,9.60 L29.12,9.65 L29.20,9.73 C29.57,10.09 29.97,10.58 29.92,11.10 C29.91,11.17 29.87,11.26 29.78,11.28 C29.30,11.36 28.83,11.11 28.38,10.96 L28.09,10.86 C27.65,10.71 27.20,10.57 26.75,10.46 C26.18,10.33 25.61,10.26 25.03,10.27 C24.44,10.27 23.81,10.44 23.25,10.21 C22.63,9.95 22.31,9.20 22.84,8.66 Z M12.89,16.86 C12.64,17.12 12.30,17.27 11.86,17.18 C11.52,17.11 10.88,16.77 10.36,16.25 C10.01,15.89 9.71,15.44 9.63,14.92 C9.61,14.80 9.55,14.72 9.46,14.67 C9.40,14.64 9.31,14.62 9.21,14.63 C9.13,14.63 9.05,14.66 8.98,14.70 C8.85,14.78 8.80,14.88 8.79,14.96 C8.69,15.72 8.98,16.47 9.44,17.10 C10.05,17.96 10.96,18.58 11.49,18.73 C12.40,18.98 13.36,18.78 14.07,18.15 C14.63,17.64 14.92,16.98 15.19,16.31 L15.24,16.17 C15.30,16.02 15.36,15.87 15.42,15.72 C15.55,15.42 15.51,15.15 15.39,14.95 C15.25,14.72 15.00,14.57 14.72,14.52 C14.46,14.47 14.18,14.52 13.96,14.68 C13.77,14.81 13.62,15.03 13.57,15.34 C13.49,15.85 13.28,16.43 12.93,16.82 L12.89,16.86 Z M28.49,13.91 C28.28,13.80 28.11,13.77 27.88,13.84 C27.75,13.87 27.62,13.95 27.52,14.05 C27.42,14.15 27.35,14.27 27.32,14.41 C27.25,14.75 27.06,15.07 26.80,15.27 C26.57,15.45 26.29,15.54 25.97,15.49 C25.63,15.43 25.30,15.22 25.08,14.96 C25.02,14.89 24.97,14.81 24.92,14.72 L24.89,14.68 C24.78,14.49 24.67,14.32 24.52,14.19 C24.46,14.14 24.37,14.10 24.29,14.10 C24.25,14.10 24.22,14.11 24.18,14.12 C23.84,14.46 23.78,14.72 23.79,14.98 C23.80,15.25 23.91,15.52 24.08,15.77 C24.48,16.37 25.25,16.86 25.76,16.97 C26.47,17.12 27.17,16.94 27.73,16.54 C28.31,16.14 28.74,15.51 28.87,14.80 C28.91,14.63 28.89,14.44 28.83,14.28 C28.76,14.13 28.65,13.99 28.49,13.91 Z" id="🖍-Ink"></path></g><g id="facial-hair/*-None" transform="translate(15.68, 43.03)"></g><g id="accessories/*-None" transform="translate(5.99, 30.68)"></g></g></g></g></g></svg>