<?xml version="1.0" encoding="UTF-8"?><svg width="140px" height="376px" viewBox="0 0 140 376" version="1.1" xmlns="http://www.w3.org/2000/svg" xmlns:xlink="http://www.w3.org/1999/xlink"><title>mix-2</title><desc>Created with Sketch.</desc><g id="Mix-N-Match" stroke="none" stroke-width="1" fill="none" fill-rule="evenodd"><g id="Artboard" transform="translate(-207.00, -137.00)"><g id="a-person/standing" transform="translate(213.00, 120.00)"><g id="pose/standing/crossed_arms-2" transform="translate(-18.57, 81.10)"><path d="M150.80,306.21 C151.10,304.99 150.61,303.40 150.33,301.81 C149.88,299.35 148.84,295.77 146.85,294.65 C146.50,293.72 136.72,286.26 131.62,282.51 C129.00,280.58 126.85,276.95 126.32,276.99 C125.31,274.51 125.18,272.06 124.56,269.18 C126.87,268.88 130.80,269.42 132.62,268.11 C132.94,268.14 132.94,264.58 132.99,264.08 C131.62,260.38 128.25,169.77 131.62,126.61 C131.97,121.81 132.90,116.43 131.99,111.48 C133.49,111.15 134.39,109.59 134.39,109.53 C137.98,102.49 132.47,78.55 129.02,71.93 C131.76,71.86 135.37,71.48 137.07,69.20 C137.87,68.93 138.38,68.47 138.77,67.73 C139.22,67.03 139.64,66.29 140.01,65.53 C141.84,61.75 142.96,57.54 142.35,53.36 C142.47,53.33 143.07,53.32 143.10,53.15 C143.16,52.13 142.97,51.22 142.66,50.25 C139.52,39.34 135.75,28.59 130.76,18.31 C128.26,12.80 123.09,10.80 117.73,8.73 C115.15,7.72 112.57,6.55 109.88,5.89 C109.84,5.70 110.00,5.13 109.65,5.17 C109.21,5.26 109.30,5.96 109.14,6.36 C102.92,1.27 106.86,-1.35 103.11,-4.14 C99.23,-6.15 96.93,-6.24 92.64,-5.80 C91.07,-5.75 89.80,-5.04 89.43,-3.46 C88.07,-0.17 84.89,2.25 81.42,2.99 C81.13,2.48 80.34,1.02 79.90,1.48 C74.89,1.65 65.21,5.61 60.51,6.98 C55.81,8.18 55.87,9.46 54.63,14.57 C52.40,23.68 52.82,57.89 58.65,65.10 C60.77,66.51 62.35,67.39 63.42,67.73 C63.38,71.10 63.95,76.13 63.42,79.42 C62.22,85.40 60.77,91.40 59.44,97.41 C59.44,98.08 54.13,108.00 56.62,106.17 C57.13,106.42 58.03,107.48 58.59,107.71 C55.94,113.74 56.43,121.13 56.62,128.57 C56.66,133.00 55.63,137.85 54.63,142.39 C47.27,180.82 42.28,224.47 39.55,262.97 C39.44,264.54 39.36,265.75 39.31,266.87 C39.26,267.25 39.78,267.24 39.97,267.05 L40.24,266.79 C40.53,266.88 41.00,267.00 41.31,267.09 C41.34,268.35 41.22,269.66 41.07,270.81 C40.93,271.90 39.14,276.70 39.55,277.77 C38.19,277.70 35.63,279.94 34.41,282.35 C33.78,282.91 31.78,283.83 31.32,284.69 C30.70,285.29 28.24,286.83 23.94,289.32 C21.56,291.22 13.92,298.76 14.54,300.29 C14.54,300.29 14.47,300.77 14.45,300.93 C13.14,308.55 15.32,308.24 22.39,309.36 C32.72,311.18 42.48,305.66 51.21,300.98 C54.11,299.03 56.93,299.55 56.62,297.19 C56.04,294.27 55.94,283.85 52.63,284.08 C53.18,283.49 53.04,278.01 52.63,276.99 C52.37,274.35 54.76,271.90 54.63,269.18 C56.02,269.29 58.85,269.94 59.44,268.39 C59.42,268.24 58.76,268.24 58.65,268.20 L58.66,268.11 L58.59,268.10 C64.36,247.77 78.42,154.44 93.69,147.28 C93.79,148.04 95.47,147.13 96.48,147.28 C101.21,184.08 106.61,218.77 109.50,258.14 C109.79,259.31 110.45,267.45 110.73,268.80 C111.32,269.29 111.79,269.58 112.14,269.68 C112.30,273.83 111.76,282.50 111.75,282.51 L111.47,283.18 C109.86,286.80 108.66,291.65 110.73,295.20 C109.20,295.09 108.53,296.40 108.46,297.76 C107.55,303.72 131.51,309.02 137.07,309.36 C138.90,309.68 151.93,307.35 150.80,306.21 Z" id="🎨-Background" fill="#FFFFFF"></path><path d="M148.61,306.70 C145.59,307.39 142.64,308.54 139.66,309.21 C129.95,308.50 120.42,305.23 111.90,301.21 C109.43,300.13 107.98,298.21 109.08,295.75 C112.70,300.21 126.07,303.32 132.20,305.24 C136.01,306.07 140.33,307.96 144.18,306.20 C146.61,305.78 149.39,304.62 150.33,302.42 C150.39,303.36 150.29,304.29 150.21,305.22 C150.31,306.36 149.75,306.52 148.61,306.70 L148.61,306.70 Z M112.55,269.10 C112.47,268.92 112.21,268.91 112.12,269.08 C111.93,269.07 111.73,269.05 111.54,269.04 C111.87,267.98 111.92,266.87 111.75,265.77 C111.54,262.75 111.30,259.72 111.05,256.70 C108.41,227.75 105.37,198.71 100.19,170.07 C100.25,170.03 100.29,169.96 100.28,169.87 C100.02,167.84 99.47,165.87 99.09,163.86 C98.70,161.83 98.38,159.80 98.02,157.76 C97.92,157.16 97.81,156.55 97.69,155.95 C97.78,154.47 97.42,152.92 97.23,151.50 C97.10,150.49 96.91,149.47 96.65,148.47 C96.76,148.13 96.70,147.73 96.43,147.48 C96.42,147.47 96.42,147.47 96.42,147.47 C96.44,147.40 96.46,147.34 96.48,147.28 C96.67,146.82 97.07,146.61 97.36,146.28 C98.20,146.13 99.06,146.09 99.91,146.22 C100.03,146.25 100.13,146.07 100.00,146.01 C96.60,144.02 92.37,145.93 89.87,148.52 C82.17,159.45 79.39,173.32 75.13,185.86 C67.44,213.13 62.03,241.02 55.85,268.63 C50.96,268.41 46.08,267.69 41.17,267.82 C40.99,267.40 40.67,266.96 40.30,266.78 C43.34,224.69 48.58,182.75 56.37,141.27 C57.23,130.41 55.88,119.33 59.11,108.71 C82.00,117.71 107.60,119.05 131.62,114.21 C127.13,165.08 124.76,216.48 130.92,267.35 C128.95,268.12 126.84,268.46 124.74,268.70 C120.71,269.19 116.60,269.25 112.55,269.10 L112.55,269.10 Z M51.63,281.10 C51.26,281.80 51.65,282.53 52.41,282.73 C50.14,283.33 49.71,285.75 47.92,286.85 C47.75,286.53 47.28,286.48 46.96,286.38 C46.00,282.83 44.90,278.64 40.41,277.34 C40.70,276.97 40.66,276.54 40.65,276.11 C40.98,274.42 42.18,270.64 41.44,268.70 C45.56,269.64 49.79,270.02 53.97,270.63 C53.12,273.72 52.40,278.38 51.63,281.10 L51.63,281.10 Z M54.49,296.14 C54.63,296.10 54.76,296.06 54.90,296.02 C55.55,298.90 51.10,299.84 48.90,300.86 C45.59,302.24 42.28,303.61 38.98,305.00 C32.30,308.35 26.02,309.29 18.59,306.90 C13.86,306.00 14.76,305.10 14.07,301.45 C18.81,307.82 28.52,305.09 34.55,302.33 C40.03,300.24 45.54,298.23 51.21,296.46 C52.34,296.75 53.42,296.45 54.49,296.14 L54.49,296.14 Z M102.62,63.35 C99.76,64.13 96.87,64.53 93.97,65.10 C94.22,63.24 94.59,61.38 94.60,59.49 C97.14,61.04 99.84,62.31 102.62,63.35 L102.62,63.35 Z M75.69,44.53 C81.79,43.26 88.24,43.73 94.01,46.14 C95.99,46.80 98.66,48.51 100.71,47.72 C99.19,52.55 101.11,57.53 103.10,61.92 C98.54,60.41 94.53,57.74 90.38,55.40 C91.93,53.35 77.80,50.88 76.27,50.93 C75.83,48.82 75.31,46.72 74.86,44.61 C75.11,44.71 75.43,44.58 75.69,44.53 L75.69,44.53 Z M107.20,46.82 C107.24,46.84 107.26,46.87 107.27,46.91 C113.24,47.74 119.24,50.45 125.37,49.67 C129.51,49.13 127.60,51.50 124.84,51.41 C118.62,52.03 112.85,48.36 107.06,47.11 L107.20,46.82 Z M110.46,6.88 C110.45,6.95 110.43,7.01 110.42,7.08 C110.36,7.08 110.30,7.07 110.23,7.05 C110.19,7.02 110.16,6.98 110.12,6.94 C110.23,6.90 110.35,6.89 110.46,6.88 L110.46,6.88 Z M152.54,305.48 C152.46,304.04 151.70,302.59 150.61,301.62 C151.34,298.66 149.89,294.89 146.79,293.62 C145.95,292.24 144.12,291.63 142.80,290.65 C143.91,290.58 144.93,289.79 144.08,288.95 C142.28,289.49 140.54,290.23 138.82,290.96 C138.36,291.06 137.26,291.98 137.18,291.16 C137.50,290.51 140.01,289.85 140.83,289.40 C140.23,289.02 139.62,288.63 139.01,288.25 C140.09,288.22 141.47,287.41 140.42,286.50 C137.58,287.13 134.63,287.69 132.13,289.12 C130.07,288.61 136.07,286.77 136.63,286.69 C135.68,286.05 134.77,285.38 133.92,284.65 C134.86,284.64 136.81,283.69 135.56,282.85 C133.98,282.45 131.79,283.74 130.23,284.16 C130.23,284.16 130.23,284.16 130.23,284.16 C129.05,284.60 127.88,285.07 126.72,285.56 C126.25,285.75 126.06,285.11 126.52,284.91 C128.32,284.16 130.14,283.44 132.00,282.82 C131.49,282.27 131.01,281.70 130.53,281.12 C130.66,280.22 129.73,279.42 129.38,278.60 C129.45,278.19 129.24,277.53 128.74,277.44 C128.35,277.06 127.75,277.03 127.20,277.12 C126.33,275.44 125.57,272.83 125.30,270.75 C127.61,270.44 130.30,270.43 132.30,269.15 C132.90,269.12 133.49,268.69 133.51,267.97 C133.56,265.38 133.31,262.84 133.08,260.26 C132.85,257.69 132.63,255.12 132.43,252.55 C129.01,211.30 129.63,169.83 132.88,128.58 C133.23,123.75 133.40,118.80 132.60,114.00 C133.59,113.69 137.32,113.05 137.04,111.70 C140.27,103.46 135.49,82.37 131.97,74.09 C134.59,73.93 137.73,73.37 139.45,71.21 C141.11,70.63 141.69,68.69 142.51,67.29 C144.29,63.57 145.44,59.37 144.99,55.23 C146.83,54.74 144.55,49.71 144.35,48.35 C141.31,38.33 137.82,28.36 133.26,18.92 C131.63,15.47 128.77,12.74 125.27,11.22 C121.07,9.39 116.84,7.49 112.44,6.15 C112.47,5.41 111.69,5.11 111.15,5.38 C111.12,5.37 111.08,5.36 111.05,5.35 C110.51,5.23 109.69,5.44 109.26,5.89 C107.83,3.80 107.46,1.16 106.94,-1.29 C104.82,0.93 106.77,8.34 110.07,8.98 C107.92,24.47 89.90,20.80 84.41,9.51 C83.22,7.33 82.42,5.18 81.23,2.96 C84.66,3.66 88.16,1.77 89.40,-1.51 C89.66,-2.04 89.88,-2.34 90.35,-2.67 C90.93,-3.08 90.78,-4.12 89.96,-4.09 C86.75,-3.37 88.86,1.75 81.03,2.64 C80.75,2.20 80.42,1.79 80.06,1.58 C79.91,1.41 79.44,1.37 79.19,1.55 C73.30,1.91 67.56,3.40 61.91,5.00 C57.06,6.19 51.97,8.78 50.77,14.05 C48.47,22.43 52.14,64.10 58.47,69.25 C59.51,70.26 60.77,70.96 62.12,71.45 C60.82,80.71 58.80,89.92 57.08,99.13 C56.95,100.71 54.19,109.53 57.69,108.08 C57.79,108.12 57.88,108.17 57.98,108.21 C57.77,108.63 57.58,109.06 57.39,109.49 C56.79,110.88 56.30,112.28 56.08,113.78 C55.85,115.34 55.81,116.92 55.74,118.49 C55.71,119.07 55.69,119.65 55.68,120.22 C55.01,125.74 55.02,131.38 54.97,136.93 C51.91,157.90 47.51,178.72 45.01,199.80 C41.98,222.33 39.57,244.95 38.17,267.64 C38.12,268.68 39.33,268.88 39.91,268.31 C40.00,268.33 40.08,268.35 40.17,268.38 C40.17,269.29 40.09,270.20 39.98,271.10 C39.78,272.42 38.27,275.74 38.65,276.93 C37.28,276.74 35.06,277.02 34.66,278.14 C33.09,280.15 33.19,282.88 31.32,284.69 C33.12,285.08 34.91,285.61 36.65,286.16 C37.01,286.36 36.79,286.88 36.34,286.75 C35.37,286.46 34.40,286.16 33.42,285.89 L33.42,285.89 C32.48,285.63 31.53,285.39 30.57,285.21 C30.54,285.24 30.55,285.30 30.59,285.32 C29.90,285.85 29.12,286.32 28.34,286.76 C28.84,286.87 35.55,288.66 33.54,289.23 C31.60,288.42 29.57,287.65 27.47,287.25 C26.56,287.77 25.67,288.30 24.77,288.83 C25.20,288.92 32.43,290.49 29.92,290.94 C27.98,290.24 25.97,289.76 23.94,289.32 C21.45,290.80 18.96,292.27 16.50,293.79 C15.48,294.42 14.36,295.03 13.70,295.98 C12.82,297.24 12.81,298.82 13.42,300.26 C11.66,307.82 14.76,308.11 21.99,309.70 C32.24,312.32 41.13,306.03 50.03,302.62 C51.89,301.75 53.95,301.10 55.61,299.95 C57.19,298.83 58.23,296.48 56.78,294.87 C57.78,293.01 56.45,288.45 56.13,286.27 C55.87,284.89 55.69,282.67 53.65,282.60 C54.19,282.25 54.18,281.58 53.99,281.04 C53.76,278.40 54.58,273.71 54.77,270.73 C56.34,270.84 58.66,271.30 59.47,269.57 C59.78,269.07 59.38,268.53 58.87,268.47 C58.87,268.47 58.87,268.46 58.87,268.46 C58.98,268.47 58.94,268.46 58.87,268.44 C67.16,234.27 72.51,199.26 84.47,166.07 C87.21,159.66 88.43,151.39 94.55,147.26 C94.63,147.77 94.72,148.37 95.05,148.74 C95.06,148.81 95.08,148.88 95.10,148.94 C95.31,149.78 95.55,150.60 95.77,151.43 C100.55,188.23 106.08,224.95 108.74,261.99 C109.14,263.71 108.48,269.81 110.89,269.54 C111.19,269.71 111.58,269.79 111.90,269.87 C111.40,272.07 111.54,275.39 111.55,277.40 C111.52,279.41 111.19,281.48 111.41,283.47 C111.67,284.77 114.11,283.99 113.72,282.68 C113.66,278.91 113.43,274.27 112.78,270.09 C116.53,270.82 120.37,271.00 124.19,270.82 C123.98,273.03 124.64,275.79 125.40,277.60 C123.11,278.36 120.90,279.40 119.14,280.95 C117.46,282.47 115.93,285.95 112.98,284.80 C112.16,284.43 111.27,283.80 110.98,282.99 C110.71,282.79 110.85,283.28 110.91,283.40 L110.80,283.43 C110.12,283.00 108.87,287.48 108.77,288.04 C108.25,290.44 107.65,293.17 108.88,295.41 C106.23,296.51 106.51,300.08 108.48,301.58 C116.28,306.62 129.28,310.74 138.95,311.43 C140.67,311.55 142.47,311.05 144.10,310.51 C146.01,310.00 147.93,309.45 149.83,308.85 C151.49,308.47 152.75,307.04 152.54,305.48 L152.54,305.48 Z" id="🖍-Ink" fill="#000000"></path></g><g id="Head" stroke-width="1" transform="translate(48.67, 23.03)"><g id="head/Long-Curly"><path d="M43.98,18.77 C35.56,11.93 22.06,9.71 13.04,16.61 C6.04,23.08 3.14,41.48 4.38,50.73 C4.72,56.66 9.26,63.38 15.92,61.50 C17.05,61.39 18.14,60.96 19.29,60.87 C20.65,60.71 22.03,60.71 23.39,60.90 C26.36,61.32 28.99,62.90 31.87,63.63 C37.21,65.00 43.18,64.08 47.78,61.00 C62.99,51.02 56.10,28.43 43.98,18.77 L43.98,18.77 Z" id="🎨-Background" fill="#FFFFFF"></path><path d="M42.86,63.80 C43.02,63.74 43.17,63.69 43.33,63.63 C43.34,63.66 43.35,63.70 43.37,63.73 C43.40,63.79 43.42,63.84 43.44,63.89 C43.25,63.89 43.05,63.86 42.86,63.80 M42.55,-2.47 C42.48,-2.63 42.40,-2.78 42.31,-2.92 C42.53,-2.85 42.74,-2.75 42.94,-2.63 C42.81,-2.58 42.68,-2.53 42.55,-2.47 M9.28,17.76 C9.27,17.76 9.26,17.76 9.25,17.76 C9.36,17.45 9.57,17.17 9.79,16.96 C9.83,16.92 9.87,16.89 9.92,16.85 C9.68,17.14 9.46,17.44 9.28,17.76 M70.16,49.53 C70.04,48.46 69.90,47.40 69.71,46.34 C69.54,45.33 69.39,44.25 68.87,43.35 C68.36,42.46 67.84,41.59 67.23,40.80 C67.32,40.40 67.44,40.02 67.54,39.72 C68.11,37.97 68.68,35.74 67.48,34.11 C67.20,33.73 66.87,33.45 66.48,33.18 C66.31,33.07 66.04,32.97 65.91,32.82 C65.82,32.71 65.85,32.77 65.85,32.71 C65.83,32.43 66.51,31.82 66.66,31.59 C66.96,31.16 67.18,30.69 67.35,30.20 C68.02,28.27 67.57,26.14 67.16,24.21 C66.95,23.19 66.72,22.16 66.64,21.11 C66.57,20.13 66.70,19.17 66.78,18.19 C66.86,17.23 66.84,16.23 66.42,15.34 C66.22,14.91 65.92,14.52 65.54,14.22 C65.18,13.93 64.73,13.76 64.37,13.47 C64.02,13.18 64.12,12.79 64.21,12.38 C64.34,11.84 64.50,11.30 64.51,10.73 C64.54,9.75 64.14,8.80 63.51,8.06 C62.87,7.29 61.95,6.77 60.95,6.66 C60.49,6.60 60.05,6.69 59.59,6.66 C59.14,6.63 59.05,6.41 58.96,6.00 C58.77,5.06 58.85,4.13 58.39,3.26 C57.98,2.48 57.25,1.95 56.44,1.64 C54.96,1.07 53.25,1.19 51.69,1.53 C50.77,-1.18 47.90,-2.95 45.08,-2.97 C44.64,-3.72 43.89,-4.27 43.04,-4.60 C41.63,-5.15 40.14,-4.83 38.67,-4.83 L38.66,-4.83 C38.51,-4.84 38.37,-4.84 38.22,-4.84 C38.08,-4.85 37.94,-4.86 37.80,-4.87 C36.13,-5.07 34.48,-5.75 32.83,-5.09 C32.09,-4.79 31.50,-4.33 31.13,-3.74 C30.57,-3.59 30.02,-3.42 29.48,-3.21 C27.13,-3.15 24.81,-1.90 23.62,0.14 C21.95,-0.05 20.13,0.27 19.03,1.64 C18.74,1.99 18.52,2.41 18.37,2.85 C17.24,3.22 16.20,3.87 15.52,4.84 C14.89,5.73 14.77,6.89 15.20,7.84 C14.19,8.57 13.40,9.61 13.02,10.84 C12.79,11.59 12.76,12.37 12.91,13.10 C11.88,13.33 10.89,13.75 10.02,14.39 C9.10,15.05 7.96,16.11 7.90,17.33 C7.90,17.42 7.90,17.51 7.91,17.60 C5.89,17.46 3.84,17.80 2.48,19.41 C1.46,20.62 1.01,22.18 1.29,23.60 C-1.11,24.08 -3.38,25.33 -4.96,27.18 C-6.11,28.53 -7.13,30.24 -7.06,32.07 C-7.05,32.62 -6.92,33.17 -6.69,33.69 L-6.69,33.69 C-6.79,33.87 -6.89,34.07 -6.98,34.28 C-8.47,35.32 -9.54,36.95 -10.15,38.74 C-10.64,40.19 -10.95,42.08 -10.43,43.55 C-10.35,43.78 -10.25,43.99 -10.13,44.19 C-10.23,44.29 -10.32,44.40 -10.41,44.50 C-11.41,45.67 -12.42,47.14 -12.36,48.75 C-12.33,49.40 -12.09,50.05 -11.69,50.58 C-13.08,51.99 -14.19,53.75 -14.08,55.73 C-13.99,57.45 -13.04,59.19 -11.56,60.02 C-11.81,61.34 -11.48,62.74 -10.45,63.77 C-9.93,64.29 -9.33,64.63 -8.68,64.81 C-8.54,66.37 -7.15,67.62 -5.68,67.98 C-5.41,68.05 -5.13,68.09 -4.86,68.11 C-3.54,68.76 -1.96,68.69 -0.61,68.09 C-0.21,68.60 0.31,69.01 0.92,69.30 C1.16,69.42 1.42,69.52 1.69,69.60 C3.60,70.17 5.55,69.40 7.22,68.51 C7.28,68.48 7.38,68.45 7.46,68.41 C7.69,68.66 8.11,68.92 8.33,69.04 C9.08,69.47 9.98,69.67 10.84,69.61 C11.84,69.55 12.72,69.22 13.54,68.75 C13.66,68.77 13.78,68.78 13.90,68.78 C14.66,68.83 15.35,68.58 15.97,68.20 C16.37,68.25 16.79,68.25 17.21,68.17 C18.14,68.41 19.05,68.03 19.78,67.44 C20.10,67.17 20.38,66.86 20.67,66.56 C20.97,66.26 21.20,66.18 21.56,65.98 C22.40,65.49 22.50,64.24 22.13,63.35 C22.20,63.19 22.24,63.01 22.24,62.82 C22.24,61.12 21.46,59.57 20.50,58.21 C20.07,57.61 19.60,57.01 19.09,56.48 C18.68,56.04 18.10,55.34 17.49,55.17 C17.46,55.14 17.42,55.12 17.38,55.09 C17.50,54.68 17.57,54.26 17.54,53.83 C17.51,53.39 17.36,52.97 17.14,52.62 C17.90,51.14 18.22,49.51 18.07,47.82 C18.69,46.94 19.16,45.97 19.41,44.90 C19.56,44.24 19.64,43.54 19.63,42.87 C19.62,42.54 19.51,42.13 19.50,41.79 C19.52,41.90 19.66,41.50 19.71,41.41 C20.33,40.26 21.12,39.37 21.26,38.02 C21.33,37.23 21.14,36.36 20.67,35.71 C20.97,34.51 20.97,33.23 20.49,32.09 C20.36,31.79 20.22,31.49 20.05,31.21 C20.13,30.97 20.20,30.73 20.29,30.51 C20.33,30.43 20.36,30.34 20.40,30.25 C20.75,29.95 21.07,29.61 21.34,29.29 C21.94,28.56 22.40,27.73 22.46,26.77 C22.49,26.29 22.37,25.83 22.23,25.38 C22.17,25.17 22.14,24.94 22.06,24.74 C22.02,24.63 21.92,24.51 21.89,24.41 C21.88,24.39 21.87,24.37 21.87,24.35 C21.87,24.34 21.88,24.31 21.88,24.24 C21.88,23.79 21.94,23.34 21.94,22.89 C22.36,23.32 22.87,23.64 23.45,23.82 C24.61,24.19 25.82,24.02 26.85,23.45 C27.96,24.21 29.20,24.89 30.50,25.17 C31.28,25.33 32.05,25.26 32.83,25.37 C33.60,25.47 34.35,25.80 35.08,26.07 C36.70,26.65 38.31,27.25 39.94,27.82 C41.25,28.28 42.67,28.64 44.04,28.38 C44.43,28.98 44.93,29.48 45.57,29.85 C46.03,30.11 46.53,30.29 47.05,30.38 C47.51,30.45 48.05,30.42 48.43,30.74 C48.79,31.05 49.02,31.50 49.35,31.85 C49.71,32.24 50.17,32.57 50.64,32.81 C51.02,33.01 51.40,33.14 51.80,33.24 C51.76,34.11 51.73,34.98 51.72,35.86 C51.70,37.76 51.71,39.66 51.68,41.56 C51.66,43.45 51.60,45.35 51.50,47.24 C51.40,49.02 51.27,50.80 50.84,52.53 C49.44,58.28 44.17,62.39 38.27,62.60 C36.52,62.67 34.79,62.42 33.12,61.91 C31.38,61.37 29.83,60.27 28.06,59.94 C27.59,59.85 27.15,60.32 27.42,60.77 C27.88,61.54 28.43,62.01 29.20,62.47 C29.99,62.96 30.88,63.32 31.76,63.63 C33.37,64.21 35.08,64.55 36.79,64.64 C38.10,64.71 39.41,64.62 40.69,64.37 C40.78,64.65 40.94,64.92 41.06,65.17 C41.08,65.21 41.14,65.18 41.13,65.15 C41.11,65.08 41.10,65.02 41.09,64.98 C41.52,65.54 42.19,65.93 42.87,66.11 C43.35,66.25 43.86,66.29 44.36,66.23 C44.52,66.21 44.67,66.19 44.82,66.15 C45.32,66.60 45.97,66.89 46.62,67.04 C46.51,67.71 46.84,68.45 47.62,68.64 C47.94,68.72 48.25,68.72 48.57,68.69 C48.82,68.81 49.09,68.90 49.38,68.97 C49.75,69.05 50.20,68.94 50.48,68.67 C50.64,68.78 50.78,68.86 50.93,69.03 C51.52,69.74 52.79,69.17 52.85,68.35 C53.03,68.35 53.22,68.35 53.41,68.36 C53.46,68.38 53.50,68.40 53.55,68.42 C54.37,68.80 55.22,69.14 56.13,68.84 C56.30,68.78 56.46,68.71 56.59,68.63 C57.24,68.69 57.87,68.69 58.52,68.48 C58.90,68.36 59.27,68.16 59.57,67.90 C60.57,68.19 61.63,68.33 62.63,67.96 C63.38,67.69 63.98,67.26 64.40,66.69 C65.05,66.72 65.71,66.56 66.30,66.25 C67.32,65.73 68.03,64.73 68.52,63.73 C69.61,61.53 70.26,59.16 70.51,56.72 C70.76,54.31 70.41,51.92 70.16,49.53" id="🖍-Ink" fill="#000000"></path></g><g id="face/Smiling" transform="translate(20.36, 23.79)" fill="#000000"><path d="M18.77,30.82 C17.91,30.47 17.14,29.88 16.58,29.14 C16.39,28.88 16.34,28.60 16.38,28.35 C16.42,28.07 16.59,27.81 16.82,27.64 C17.05,27.47 17.33,27.39 17.61,27.43 C17.85,27.47 18.09,27.60 18.28,27.87 L18.32,27.92 C18.65,28.38 19.09,28.75 19.58,28.98 C20.06,29.21 20.60,29.32 21.15,29.26 C22.20,29.14 22.93,28.57 23.70,27.80 C23.80,27.70 23.89,27.60 23.99,27.50 C24.05,27.41 24.13,27.35 24.23,27.32 C24.33,27.28 24.45,27.28 24.56,27.32 C24.66,27.36 24.75,27.42 24.81,27.52 C24.87,27.60 24.91,27.71 24.90,27.83 C24.83,28.63 24.41,29.35 23.81,29.91 C23.15,30.53 22.27,30.96 21.45,31.11 C20.54,31.28 19.61,31.16 18.77,30.82 L18.77,30.82 Z M21.88,18.47 C22.84,19.06 24.32,20.42 23.28,21.88 C22.05,23.16 20.29,21.69 19.42,21.03 C18.61,20.51 17.71,21.84 18.46,22.44 C24.74,27.08 27.28,18.62 22.37,17.78 C21.82,17.68 21.62,18.29 21.88,18.47 Z M10.63,13.07 C10.73,11.74 12.75,11.44 12.95,12.75 C13.13,13.93 12.92,15.01 12.39,16.06 C11.89,17.07 10.61,16.60 10.52,15.68 C10.39,14.45 10.56,13.89 10.63,13.07 Z M26.00,12.48 C26.28,12.11 26.69,11.86 27.18,12.00 C28.70,12.45 28.25,14.61 27.72,15.66 C27.43,16.23 26.49,16.37 26.06,15.87 C25.37,15.05 25.04,13.41 25.92,12.61 C25.94,12.57 25.97,12.52 26.00,12.48 Z M12.37,7.27 L12.61,7.23 C13.35,7.10 14.28,6.98 14.81,7.57 C15.08,7.89 15.18,8.48 14.81,8.78 C14.15,9.32 13.42,9.11 12.63,9.15 C11.97,9.19 11.35,9.30 10.72,9.48 C9.34,9.87 8.22,10.59 7.04,11.38 C6.89,11.48 6.73,11.28 6.81,11.14 C7.49,9.81 8.80,8.72 10.12,8.05 C10.82,7.70 11.59,7.41 12.37,7.27 Z M24.62,6.68 L24.80,6.71 C26.80,7.13 29.40,7.97 30.35,9.93 C30.39,10.21 30.35,10.27 30.32,10.31 L30.31,10.32 C30.28,10.35 30.26,10.40 30.14,10.44 C30.11,10.43 30.07,10.42 30.04,10.41 C29.61,10.30 29.26,10.14 28.93,9.98 L28.57,9.80 C28.15,9.60 27.73,9.40 27.28,9.25 C26.32,8.94 25.34,8.72 24.34,8.60 C24.13,8.58 23.92,8.51 23.75,8.38 C23.60,8.26 23.48,8.10 23.42,7.88 C23.35,7.60 23.37,7.38 23.52,7.13 C23.64,6.94 23.80,6.80 23.99,6.73 C24.18,6.65 24.40,6.63 24.62,6.68 Z" id="🖍-Ink"></path></g></g></g></g></g></svg>