<?xml version="1.0" encoding="UTF-8"?>
<svg width="116px" height="378px" viewBox="0 0 116 378" version="1.1" xmlns="http://www.w3.org/2000/svg" xmlns:xlink="http://www.w3.org/1999/xlink">
    <!-- Generator: Sketch 62 (91390) - https://sketch.com -->
    <title>mix-5</title>
    <desc>Created with Sketch.</desc>
    <g id="Mix-N-Match" stroke="none" stroke-width="1" fill="none" fill-rule="evenodd">
        <g id="Artboard" transform="translate(-625.000000, -145.000000)">
            <g id="a-person/standing" transform="translate(690.250000, 330.000000) scale(-1, 1) translate(-690.250000, -330.000000) translate(615.000000, 120.000000)">
                <g id="pose/standing/shirt-3" transform="translate(-15.445717, 80.911577)">
                    <path d="M67.168801,129.543072 C67.0495754,130.134211 66.8698434,130.774102 66.6827077,131.347885 C67.6150673,132.245059 68.9347187,133.447502 69.8816305,134.316345 C68.9449308,128.531933 71.794857,123.193172 73.5392018,117.721814 C72.8812908,116.878241 70.5899634,116.015014 70.6637455,115.079809 C70.8405415,111.615287 71.1014592,107.748505 71.4776454,103.411313 C72.7512149,89.8664084 74.018402,75.7412124 71.0124868,62.1552142 C70.807097,60.6785141 70.495502,59.1256244 68.5143655,59.0912944 C62.6629919,82.3740474 67.4044439,105.815943 67.2753892,129.245588 L67.4456751,129.398095 L67.168801,129.543072 Z M58.4064842,320.307686 C53.5985262,320.307686 49.1787535,319.435524 44.899907,317.666572 C43.6651433,317.232279 42.1312942,316.692826 41.9173519,315.818879 C41.565547,313.427393 41.8091042,311.07649 42.0668307,308.588268 C42.4744189,304.319991 42.433826,301.001851 43.5859999,296.405716 C44.8191042,292.137311 45.8700512,288.801431 44.6666895,284.387666 C44.5701857,283.07381 45.5980279,281.73711 46.2770012,280.50825 C47.2382098,278.714412 47.7259626,276.84732 48.4894405,275.007922 C46.9895466,274.745789 45.4320822,274.386536 43.9920563,273.940884 L43.7502862,274.81113 C43.6971835,275.002434 43.5507684,275.099426 43.3153807,275.099426 C43.1697315,275.099426 42.7971195,275.029362 42.7427404,274.717967 C42.9686818,271.357201 43.2959779,268.013154 43.6397408,264.598532 C47.2091055,231.706828 52.6139575,204.592388 61.6904223,177.550438 C63.8704384,171.217129 66.0973023,164.624366 66.113131,157.743309 C64.8737718,157.477603 63.4934863,157.325096 62.2302565,157.499809 C53.2297438,155.414613 55.0089372,136.379845 55.3669969,130.683108 C54.7321908,130.492443 54.0218154,130.22278 53.4951293,129.861486 L53.2820805,129.965624 C44.3447548,107.789982 48.0149634,71.1259344 50.059287,46.4777666 C51.400639,37.617949 49.5139639,21.6137922 57.3714936,17.2356335 C63.715726,14.9895077 70.0318752,13.727083 76.6614066,12.2457885 C77.8891496,11.5411942 79.4043617,11.1390611 80.7743074,10.683072 L80.0666127,9.68839562 C79.1384656,8.38092069 79.2619036,5.81650866 80.475988,4.9153783 C81.2221055,4.95672744 82.2704995,5.70598906 82.9835555,6.05783956 C84.0092277,3.93754786 84.9586925,1.71975387 85.6400911,-0.827939836 L85.8850525,-0.740264357 C86.6020656,-7.94649954 95.9482561,-9.20420237 101.217926,-6.7961258 C106.970498,-3.63904284 103.974412,3.50287147 106.589844,8.6584959 L107.537777,7.39517776 C109.001674,7.36812215 112.098093,9.28677302 112.8437,10.0069371 C113.377535,10.25567 112.991392,11.9299271 113.069131,12.603382 C120.786245,14.3502552 131.349456,14.8298541 133.802516,23.4894348 C137.883505,39.7729535 137.309715,56.4665178 141.940239,72.6922242 C146.787769,85.8446946 153.907478,101.938441 153.967346,113.983674 C154.105592,116.241158 154.409528,129.008979 152.540469,128.495688 L151.306854,129.726208 C152.987501,132.407903 151.65317,136.421577 151.009428,139.59691 C149.423242,146.334394 146.323631,153.594102 139.703036,150.365296 C132.582305,189.673774 114.685442,229.327338 120.790585,269.87144 C120.863729,270.10856 120.715527,270.368651 120.461374,270.265023 L120.160757,270.126427 C119.384259,270.366354 118.398924,270.450073 117.58796,270.631933 C118.278039,273.217147 118.648098,275.769307 119.006286,278.629034 C119.440681,278.887976 119.237972,279.573045 119.260055,279.987174 C125.738576,279.676928 129.372021,286.458952 134.018118,290.188924 C137.085816,292.924986 140.579484,295.530109 144.402746,297.932315 C147.562097,299.726919 150.227823,301.781613 149.747857,305.171477 C149.793429,305.165734 150.768296,305.015014 150.816037,305.01093 C152.285678,309.899699 147.460104,310.910583 142.490413,311.499809 C130.345995,312.720629 119.964558,310.022598 105.904233,304.910875 C104.179802,305.115196 102.835897,302.55206 102.606509,300.81412 C102.379418,299.649453 103.024947,298.465005 102.532216,297.211513 C100.836762,293.609799 99.9541857,284.075506 102.34457,279.798168 C103.183617,278.82876 104.259711,277.933883 104.120189,276.26052 C104.081128,274.584348 103.923352,272.909453 104.065299,271.26289 C101.192141,270.985187 98.3479588,270.366226 95.8414126,269.362361 C95.3976992,269.533245 94.8937349,269.323054 94.8627158,268.767265 C94.3817285,261.103382 93.8060245,252.728651 93.6815652,244.882653 C93.1039465,227.806992 97.0099257,211.144695 99.9992463,194.583601 C100.206678,189.270875 101.187673,184.13835 101.496843,178.823072 C101.8295,173.782179 101.888219,168.847211 102.177603,163.813847 L100.452533,163.439407 C86.1306522,200.353464 74.9151471,237.297511 67.0651488,273.447375 C67.2427107,273.599243 67.7473133,273.77 67.725868,274.078204 C67.7199961,274.242835 67.7239533,274.253428 67.6113655,274.269891 C65.7148612,274.651094 63.8380152,274.930711 61.9584885,275.148049 C62.4883659,279.659189 59.6616721,284.872753 62.1633676,289.097894 C62.8277887,290.11618 62.8563824,290.328924 62.4493048,291.029307 C66.0939834,297.811331 68.3527599,303.454722 69.8166564,309.517475 L70.7598663,308.719973 C72.127259,309.712862 72.1555975,311.58876 72.1854677,313.570839 C72.088198,314.725679 72.6521581,315.935779 71.7882192,316.907739 C69.7084087,319.337767 62.4598998,320.294029 58.4064842,320.307686 L58.4064842,320.307686 Z" id="🎨-Background" fill="#FFFFFF"></path>
                    <path d="M85.0443204,-1.91401823 C86.0384629,-1.10885871 85.0015575,4.69878031 84.2004226,5.88373929 C89.6184737,9.3725512 95.0933032,12.7812241 100.682334,15.9766102 L101.260919,16.3064011 L101.243048,16.3012963 C101.475244,16.4054348 101.867897,16.4978323 102.098306,16.4520164 L102.256329,16.399642 C102.288884,16.3892853 102.307795,16.3845334 102.298718,16.391907 C102.391903,16.3422625 102.482535,16.289938 102.570613,16.2299562 C104.164203,14.7763555 105.325185,12.3125087 106.573735,10.3964102 C104.448225,8.52153327 105.50747,4.86762261 105.593379,2.37148769 C105.995222,2.36153327 106.042581,3.63659253 106.157594,4.00643756 L106.222303,4.3591996 C106.375535,5.18516904 106.550183,6.02688195 106.866055,6.79482407 C107.785266,5.63028441 112.43915,8.38166089 113.311003,9.26696627 C114.260723,9.87239927 113.969425,10.9492634 113.957043,11.8959544 C122.788801,13.6143683 134.050899,14.8231923 135.237666,25.9098651 C136.634035,31.8572489 137.380025,37.9106855 138.070104,43.9721623 L138.18249,44.9395022 C139.388778,55.369508 140.459494,65.9290833 143.865439,75.9156445 L145.166634,79.0193571 C147.982215,85.7506699 150.728801,92.5372476 152.526657,99.6199289 C153.920473,102.642372 157.631913,131.488753 152.049244,129.263557 C153.95813,132.378525 152.52921,136.477194 151.866576,139.807459 C150.492801,145.273201 147.750994,154.205763 140.374324,151.571798 C134.811951,181.302974 123.794177,209.947076 121.008587,240.195371 C120.104055,250.027021 120.123075,259.976593 121.659349,269.74724 C121.866781,270.675553 120.979482,271.495772 120.072781,271.088662 C119.617451,271.218835 119.13557,271.257759 118.668625,271.346328 C119.206412,273.509651 119.521408,275.768738 119.807501,277.979753 L119.83918,278.225216 L119.840457,278.226492 C120.063717,278.474077 120.173242,278.788024 120.163412,279.142682 C123.533515,279.154678 126.353315,281.330613 128.598689,283.642591 C132.492286,287.717778 136.603399,291.603065 141.2629,294.801624 C144.598281,297.513056 150.449655,299.102572 150.637429,304.143721 C152.340032,303.855681 151.932571,307.576593 151.63055,308.559273 C151.276958,309.660768 150.249371,310.295043 149.263781,310.785872 C135.091506,315.53579 119.481248,310.909792 106.006966,305.809045 C103.645431,306.121716 101.957763,302.995772 101.70527,300.935207 C101.448055,299.797851 102.052225,298.692272 101.700037,297.583885 L101.583924,297.279345 C101.159904,296.165284 100.759007,295.076147 100.51761,293.895644 L100.482314,293.649568 C99.9077511,289.571725 99.4451229,282.666103 101.629701,279.254988 C104.177734,277.070631 102.858848,274.977267 103.114405,272.067513 C100.598412,271.780366 98.1105032,271.211178 95.7566271,270.304943 C94.8285339,270.502738 94.0187437,269.750849 93.9574844,268.85075 L93.8667523,267.410882 C93.3918109,259.918509 92.8971946,252.418116 92.773689,244.90981 C92.192496,227.87384 96.052521,211.201971 99.0918807,194.562007 C99.3908383,188.147404 100.615262,181.812691 100.787335,175.382007 C100.916262,171.507313 101.076719,167.642828 101.271131,163.774769 C87.4870414,199.297121 76.1742666,235.810959 68.0551809,273.047513 C68.8019366,273.554295 68.883633,274.936301 67.7717967,275.158361 C66.1455287,275.482645 64.5077721,275.748097 62.863633,275.948461 C63.1267208,279.946948 60.7484634,285.355262 62.9517119,288.74487 L63.0395889,288.880299 C63.4577296,289.530177 63.8668366,290.272101 63.439337,291.026729 C66.3026665,296.401223 68.7847038,302.009263 70.3120427,307.928954 C72.0567704,307.212873 73.0509129,310.759327 72.9993421,312.040768 C72.8872649,313.720257 73.7925626,316.551652 72.3443671,317.700111 C64.7377984,322.603302 54.4117623,321.843065 46.120859,319.127805 C44.5830528,318.468261 42.8207093,318.019546 41.5025897,316.965654 C40.9051852,316.359455 40.9460333,315.362864 40.8973985,314.575444 L40.8825122,314.167961 C40.8043267,311.901447 40.8119521,309.592045 41.4323819,307.359765 C41.2664362,304.125727 41.7489553,300.848425 42.384655,297.684706 C42.7917327,295.130886 43.9639477,292.704687 44.1217237,290.12713 C44.9538777,287.82064 43.4530902,285.664232 43.8564659,283.359273 C44.1856262,281.954559 45.2174707,280.740878 45.8148354,279.432815 L45.85675,279.339218 C46.3973501,278.149665 46.7846419,276.917103 47.2532471,275.696921 C46.3558637,275.525909 45.4699689,275.315335 44.5968391,275.062645 C44.1791665,276.576228 41.7617204,276.148698 41.8332047,274.605763 C43.8186813,249.723156 47.7642322,224.97889 53.8715452,200.771141 C56.7208332,186.453748 64.0791215,173.104614 65.1881495,158.493949 C64.3052741,158.328287 63.2995398,158.28581 62.4344491,158.385577 L62.3313302,158.398233 C61.7786033,158.467021 61.247577,158.564013 60.6548955,158.284651 C53.0507522,153.588334 53.8323565,139.198069 54.409337,131.322208 C54.065957,131.207349 53.7378951,131.06569 53.4391928,130.888297 C53.1749561,131.084833 52.7741334,131.096191 52.6196763,130.733876 C52.2303421,129.818835 51.7299519,128.92549 51.3914226,127.995134 C42.5805986,97.699619 48.2067967,65.7741313 49.9807564,34.8916882 C50.6719841,28.5471486 50.6772178,19.9330009 56.9802191,16.4365743 C59.0953887,15.4347511 61.482454,15.0046691 63.7367628,14.4268022 C68.9100567,12.8839945 74.3135045,12.1928004 79.3241716,10.2188897 C78.1583391,8.59938195 78.4355961,6.2375041 79.4070168,4.60868004 C80.1773879,3.43622789 81.6562195,4.33327438 82.5703251,4.83201641 C83.6253569,2.67586326 84.3491355,0.377157703 85.0443204,-1.91401823 Z M70.631169,309.312363 L70.677778,309.529278 C70.9246505,310.689939 71.1378666,311.909093 71.0141207,313.08981 C74.2911656,316.284159 59.1902331,316.688589 57.5238828,316.681314 C53.7108332,316.642135 42.5000511,315.371287 41.9455372,310.774897 L41.9519021,310.884813 C42.0260877,312.346879 41.7781586,315.07714 42.5735779,316.157942 C48.5851529,319.285161 55.5798925,320.522317 62.3084807,319.751743 L62.5502489,319.719597 C65.2325368,319.35111 70.3266765,318.266127 71.6500757,316.030193 C71.3575007,313.948571 72.075918,310.966456 70.631169,309.312363 Z M59.7566186,288.663192 C56.0763255,284.657431 50.0311784,287.585562 46.1503463,289.819437 C46.0038035,291.573712 44.7740181,292.218835 44.7242344,294.059127 C43.8973141,299.679418 41.992002,306.033147 44.4194048,311.460221 C51.6556593,315.333767 60.2609659,315.071506 68.0896466,313.403885 C68.2946534,313.137158 68.5535287,313.057139 68.9232047,312.955809 C69.1560393,311.30899 68.6853917,309.653748 68.3743073,308.05517 C67.5915541,304.695426 66.5789023,301.396684 65.6783277,298.067568 C64.0644417,297.025289 63.4745685,294.835954 62.6325855,293.184797 C62.404091,292.721661 62.1704905,292.258397 61.9254014,291.798835 C60.6114943,291.368498 60.2676037,289.799783 59.7566186,288.663192 Z M102.898675,299.7126 C102.502959,303.752308 106.443787,305.36301 109.629689,306.332418 C113.215393,307.607222 116.889176,308.665198 120.583383,309.580111 C128.151529,311.529774 136.041609,312.384067 143.799316,311.161716 L143.934097,311.137676 C146.172409,310.743692 150.182145,310.270233 150.691042,307.678817 L150.696461,307.619375 C150.730992,307.195045 150.797059,305.596308 150.637429,305.187531 C150.578709,305.186383 150.521267,305.173621 150.466377,305.146693 C149.817912,307.220531 147.4551,308.481552 145.177815,308.806985 C144.103763,309.885508 142.125179,309.485544 140.693451,309.547057 C131.242842,309.453384 122.157314,306.527805 113.202373,303.808334 C110.352957,302.817996 104.673018,302.108297 102.898675,299.7126 Z M103.710533,278.918069 C102.070351,278.340202 101.758756,282.934423 101.549154,284.05621 C101.02068,288.799874 101.032807,296.196647 104.873302,299.560859 C108.880508,301.276975 113.205181,302.064651 117.338506,303.415006 L118.316703,303.702313 C126.151334,305.99592 134.202563,308.140753 142.425669,307.802609 C143.046178,306.561752 146.983559,307.593183 148.485368,305.38177 C150.499566,301.870284 145.41333,299.608206 143.006479,298.112363 C138.38438,295.145435 134.066983,291.695845 130.173769,287.820895 C128.34326,285.999874 126.668485,283.914551 124.518849,282.450613 L124.406746,282.37529 C122.56496,281.154329 120.200967,280.396967 118.038031,281.19878 C115.931797,281.978543 115.158234,284.384195 113.391678,285.627094 C109.454874,288.178749 105.423236,284.146008 104.144164,280.496185 L104.10625,280.385708 C104.060295,280.272253 104.185393,280.203338 104.279854,280.233967 C104.270919,280.198233 104.264536,280.161223 104.256877,280.125362 C103.760317,279.995572 103.713214,279.377121 103.710533,278.918069 Z M47.7178951,275.782427 C48.2321992,278.689118 46.7832377,281.297048 45.7020376,283.868479 C45.4109943,285.57311 46.4807059,287.207039 46.2333192,288.941406 C49.7725584,286.163101 55.1290308,283.699637 59.399197,286.237121 C59.4221741,283.786547 60.2655613,281.408206 60.9986584,279.091761 L61.2962578,278.172455 C61.5281529,277.458431 61.7640511,276.747533 62.0249689,276.045453 C57.2702411,276.541898 52.4564112,276.591542 47.7178951,275.782427 Z M117.35893,271.545544 C113.197394,272.119455 108.990415,272.449355 104.800669,272.217978 L105.276805,279.442718 L105.276805,279.442718 C105.295953,279.738671 105.170855,279.94414 104.985762,280.061552 C105.603463,282.408753 107.547964,284.497905 109.959027,285.005836 C113.682849,285.487349 114.18375,280.549318 117.346165,279.636574 C116.740591,278.27652 117.174475,276.488552 117.115117,275.007896 C117.148306,273.842718 117.208302,272.688899 117.35893,271.545544 Z M103.655643,278.083429 C103.575223,278.249336 103.480762,278.403885 103.377365,278.553201 C103.487144,278.563411 103.593094,278.596593 103.692662,278.656574 C103.681173,278.466292 103.668408,278.274861 103.655643,278.083429 Z M66.1774413,130.881916 C62.5353158,132.143703 58.5609159,132.402007 54.8088832,131.44332 C55.631974,137.61136 56.4586389,152.221898 61.702013,155.78456 C62.5879078,155.656939 63.4776321,155.594277 64.3724625,155.683739 C64.9047653,155.736702 65.4313238,155.822591 65.9591589,155.904396 C66.1573576,155.931997 66.5524223,155.952655 66.8046482,155.934868 L66.8476067,155.931324 C66.7807882,155.936164 66.7286625,155.935129 66.7987903,155.930392 L66.906326,155.924815 L66.9614734,155.920609 C68.7795374,155.757305 70.4202074,153.189205 72.2191419,154.42157 C72.4832509,154.021734 72.8825418,153.765344 73.1892861,153.409409 C74.5545087,151.018306 73.1041432,147.940986 74.0164617,145.420476 C73.6718052,144.949428 73.7854142,144.243812 74.3266525,143.840531 C75.1700397,143.06549 76.9531902,143.642591 77.4387729,142.529737 C77.4054892,142.590239 77.4031359,142.520371 77.4160401,142.48394 L77.4191674,142.476392 L77.3335485,142.405575 C73.6073183,139.32003 70.0044694,135.87214 67.5626217,131.591747 L67.4807534,131.447149 C67.0136801,131.900458 66.2459897,131.554222 66.1774413,130.881916 Z M151.25781,128.788808 C148.692034,130.192636 145.929676,131.209774 143.063921,131.798106 C142.475325,137.43435 141.798777,143.073147 140.875991,148.66332 L141.094645,148.702427 C142.374372,148.9366 143.72246,149.252273 144.828052,148.369792 C148.468007,144.831889 149.779872,137.716264 151.209303,132.910959 L151.265702,132.692206 C151.566018,131.513728 151.910771,129.883223 151.25781,128.788808 Z M113.949384,12.2903026 C113.56707,14.2034658 115.675347,35.0333473 111.830257,31.4704303 C109.2281,27.383247 106.251289,23.5584521 103.590541,19.5135114 C103.224057,20.9595825 104.296577,22.6777411 103.789676,23.903794 C110.561027,57.8389262 115.473531,92.2971759 117.293828,126.866966 C120.286595,128.968881 122.910963,131.517212 125.48376,134.099364 C126.285533,134.781242 126.867619,135.895881 127.863294,136.287933 C131.905221,131.717067 136.574295,127.754696 140.823654,123.382791 C140.784083,123.082882 140.739405,122.784377 140.688345,122.485745 C140.476445,121.243867 142.073353,120.614824 142.689905,121.376593 C143.978921,118.103885 144.099295,114.257012 143.780041,110.745781 C143.153277,104.84332 140.951305,99.2038851 139.378139,93.5158268 C134.844247,76.1147329 131.706469,57.8599836 133.191428,39.8461823 C133.213128,39.6788715 133.43524,39.6764467 133.454898,39.8460547 C134.686982,58.8771212 136.606974,77.9611504 142.328654,96.2532926 L142.464816,96.7053885 C144.700327,104.098751 147.465448,111.935835 145.551831,119.689573 C145.710628,120.733384 145.209727,121.773493 144.452759,122.523903 C144.115762,123.3394 143.740469,124.14724 143.294969,124.907987 C143.448532,126.673748 143.37424,128.443338 143.218379,130.200294 C146.15932,129.571123 148.902658,128.366893 151.525876,126.915462 C151.68161,126.029646 151.818196,125.141406 151.924146,124.249464 C153.9603,107.706109 147.74959,91.6175953 141.535944,76.5996919 C135.615129,59.0981604 136.77126,40.104742 131.823014,22.4001659 C128.692512,15.4962644 120.141712,14.9536208 113.949384,12.2903026 Z M80.3875007,11.0077138 L80.1838682,11.0788538 C78.7583257,11.5810984 77.3289238,12.1630705 75.8048459,12.2060729 C71.0216202,13.7978431 66.11704,15.0200058 61.2546247,16.348501 L60.7842055,16.4774129 C58.7086075,17.0480055 56.6125855,17.7000201 55.2122589,19.4434476 C53.8693751,21.1151522 53.3077127,23.2681149 52.8688501,25.3240857 C50.8123997,43.2891358 49.6472055,61.4357903 48.6023858,79.5081696 C48.0901241,94.5556809 48.3820609,109.854733 52.2277891,124.496921 C52.7706869,126.503119 53.4312785,128.515827 53.6651343,130.576902 C53.944689,130.580603 54.2255202,130.599874 54.5076279,130.627823 C54.5118404,130.493183 54.7165919,130.515262 54.7016567,130.646966 C58.4383713,131.236702 62.322267,130.887914 65.8289553,129.438525 C64.9627187,103.078452 59.3328187,74.4688077 72.0851088,50.0148788 C72.1374455,49.9218432 72.2957322,49.9856536 72.2599901,50.0888988 L71.9456353,50.995848 C70.9342009,53.9184066 69.945893,56.8454263 69.234672,59.859546 C70.2482174,59.7089535 70.9873141,62.0828277 71.1789176,62.6646509 C76.7060588,79.4464011 73.3018739,97.3537666 72.598264,114.588571 C82.1143573,121.508042 91.7236355,128.313931 101.613234,134.691269 C106.105002,131.772326 110.128292,127.944213 114.74337,125.297103 C113.424357,89.6911595 106.159509,54.4623355 102.210639,19.2965561 C100.745849,21.1168113 99.2543798,22.9160091 97.7645702,24.7154622 C95.8485355,27.0675132 93.996326,29.4808222 92.1070978,31.8557174 C91.7164871,32.3484613 90.8650579,32.1570301 90.5867797,31.6604576 C86.8658938,24.9361185 84.5000185,17.5096098 80.3875007,11.0077138 Z M69.1708467,60.1276773 C63.6811071,82.7282972 68.2423166,106.0025 68.1560249,128.860275 C68.564379,129.22157 68.4129854,129.906383 67.9364659,130.154478 C67.8662581,130.469573 67.7832852,130.782244 67.6862708,131.095043 C68.0692225,131.458634 68.4547271,131.819801 68.8440613,132.177139 C68.547912,127.201205 71.0524159,122.680877 72.5038026,118.008808 C71.4602594,117.078069 69.5052912,116.501351 69.7656983,114.801697 C69.9673862,111.105799 70.2252403,107.412326 70.5377288,103.72549 L70.7307975,101.661149 C71.9473726,88.5752526 72.9811582,75.2762771 70.1205668,62.3353892 L70.1034683,62.2371611 C70.0101731,61.6710122 69.8315737,60.242768 69.1708467,60.1276773 Z M151.504176,128.654933 L151.459498,128.679054 L151.559066,128.763284 C151.538641,128.728954 151.52077,128.691943 151.504176,128.654933 Z M118.667348,120.954283 C117.394672,119.707555 119.359086,117.730199 120.615295,119.006789 C121.88644,120.255942 119.920876,122.233043 118.667348,120.954283 Z M117.828671,106.1261 C117.547547,105.388779 118.329422,104.218855 119.156184,104.709006 L119.181767,104.724696 L119.193256,104.709382 C119.975753,105.171369 119.687263,106.128525 119.227721,106.69899 C118.718523,107.223511 118.084483,106.600594 117.828671,106.1261 Z M116.633836,89.0541276 C114.420504,86.1550939 119.070685,84.9657958 118.308612,88.534711 C118.146113,89.2021677 116.807314,90.1757867 116.633836,89.0541276 Z M113.360864,72.9012926 C112.186223,71.465814 114.711662,70.2303172 115.23988,71.9440091 C115.542539,73.0872361 114.116044,73.7920857 113.360864,72.9012926 Z M125.113701,37.2911249 C125.809269,37.3990921 129.325786,36.6808423 128.421127,38.1449079 C129.836005,45.2135679 133.815128,53.83767 128.133913,60.0142607 L128.083247,60.0640313 C127.245382,60.9010149 125.905392,62.8901798 124.623267,62.0702315 C121.777298,59.6699398 118.110409,57.9547165 115.935371,54.8825014 C115.021138,52.4725105 115.799678,49.7794567 115.557781,47.2583081 C115.454384,44.0690647 114.923357,40.9091741 114.809525,37.7250356 C114.804642,37.5706144 114.971865,37.5208423 115.076538,37.5859289 C118.413962,37.3206053 121.769001,37.3794385 125.113701,37.2911249 Z M115.190147,37.8092653 C116.699998,42.7235588 116.73408,47.9778341 116.69387,53.0714348 C116.717358,53.5965943 116.810288,54.1074603 117.084226,54.5087001 C119.242669,57.0534585 122.318026,58.6482078 124.8801,60.7618633 C125.917389,60.0843245 126.738692,59.2184175 127.47396,58.2362479 C131.976194,52.3454002 127.896483,44.930505 127.901589,38.3709243 L127.32453,38.3720412 C123.283225,38.3773832 119.203828,38.3243195 115.190147,37.8092653 Z M111.792746,56.060222 L111.831648,56.0603391 C113.380177,56.0642954 113.025053,58.688051 111.563582,58.3282881 C110.331561,58.0366848 110.519918,56.076124 111.792746,56.060222 L111.792746,56.060222 Z M108.755232,42.6679034 C107.682329,40.8399909 111.222717,40.1329717 110.849977,42.2440747 L110.858065,42.1574621 C110.859679,42.1408244 110.86121,42.1258979 110.862742,42.1126253 L110.835936,42.3104376 L110.835936,42.3104376 C110.707136,43.2441112 108.863479,43.913227 108.755232,42.6679034 Z M106.378391,27.5294877 C107.362322,27.2691413 108.08827,28.6510191 107.24399,29.2701076 C105.98944,30.2166709 104.909133,27.8587493 106.378391,27.5294877 Z M82.2537517,6.11856153 L82.1337126,6.00756046 C80.8497796,4.82867609 79.8871143,4.23912088 79.6024498,6.64167912 C79.4042085,7.81336554 79.5743667,9.2910866 80.6976915,9.98406746 C86.0759922,15.3012598 88.1144439,22.8925269 91.579901,29.4321987 C94.7091266,25.6426272 97.6216016,21.6977411 100.648196,17.8315971 C96.4786186,15.2911778 92.2679375,12.7702844 88.1550367,10.1193455 C86.1892182,8.81263628 84.0740486,7.62308295 82.2537517,6.11856153 Z M109.328434,9.25292799 C107.710846,11.8930191 106.217334,14.7485342 104.154757,17.0848879 C103.891797,17.3490629 103.618625,17.5584886 103.336517,17.7180146 C103.740275,17.6013692 104.274365,17.90332 104.223688,18.3459088 C107.226157,21.3386162 109.680622,24.819856 112.02569,28.3424448 C112.474126,22.5152799 111.619506,16.6638669 111.950376,10.8277685 C111.188302,10.1271304 110.280707,9.64727621 109.328434,9.25292799 Z" id="🖍-Ink" fill="#000000"></path>
                </g>
                <g id="Head" stroke-width="1" transform="translate(51.570823, 22.971741)">
                    <g id="head/hat-hip">
                        <path d="M53.4320571,36.1411978 C53.3812522,33.282237 53.325086,30.3661021 52.9000096,27.5349626 C52.4843794,24.7671231 51.3410134,22.2652452 49.3762162,20.2553455 C45.2029367,15.9860474 39.1535771,14.943258 33.5226559,13.9876335 L23.895379,12.3537046 C20.9582675,11.8553455 17.8248294,11.0587366 14.857337,11.7655005 C13.3951,12.1137776 12.1533154,12.9228933 11.0183743,13.8801768 C9.92440912,14.8028751 8.74823694,15.7937229 8.00697019,17.0350902 C7.26442693,18.2782443 7.00899818,19.7314622 6.76761098,21.1374603 C6.49533236,22.7226381 6.28381539,24.3201951 6.1335707,25.9215807 C5.83244304,29.1299672 5.79133957,32.362474 6.00974966,35.5774968 C6.11557197,37.1368952 6.28394304,38.6918268 6.49890657,40.2398669 C6.60549478,41.0075059 6.7259969,41.7732306 6.86207239,42.5362753 C6.90215466,42.7612707 6.93266315,43.0103865 6.97376662,43.2620547 C6.67008596,44.1255369 6.49750242,45.0197758 6.51141633,45.910186 C6.55239215,48.5330483 8.76674627,50.1843336 10.9990991,51.0709152 C12.2934757,51.5849717 13.6466992,51.9342698 14.9184816,52.5085634 C16.2563871,53.1125925 17.1670461,54.0918268 18.0817899,55.2088915 C19.82639,57.3393929 21.7951445,59.2542151 24.0431983,60.8517721 C28.8094146,64.2389553 34.8462645,65.840979 40.6293451,64.6250082 C42.0169066,64.3332671 43.4167225,63.8802133 44.6639961,63.1975697 C45.9808391,62.4768952 46.9710245,61.4325743 47.8025402,60.1978432 C49.3464736,57.9056463 50.4537145,55.324516 51.2913574,52.6979526 C52.1457225,50.0186819 52.7521903,47.3345615 53.0829329,44.5408149 C53.4125266,41.7561294 53.4819685,38.9431121 53.4320571,36.1411978 L53.4320571,36.1411978 Z" id="🎨-Background" fill="#FFFFFF"></path>
                        <path d="M22.7104372,2.39465087 C26.6944109,1.84677484 32.1932137,3.62746764 34.1772863,7.21795077 C43.6497231,4.98535278 55.5969211,4.91222607 63.4041565,12.3444777 C71.550687,21.1607767 61.3182188,32.7851158 54.5332091,35.4059362 C55.0272167,37.8061003 54.2569733,53.1824904 48.806933,60.0412142 C44.4816217,65.8525542 34.4090997,68.534505 29.7481951,61.5933382 L29.7118382,61.5360656 C29.2124904,60.7344456 29.6425497,60.7601862 30.155145,61.356474 C34.7191628,65.3691267 40.9246391,65.4376591 45.7065564,61.2029462 C54.6686463,53.4627457 53.744584,34.4842589 49.4800344,23.5049152 C37.3366374,22.1715333 24.3349182,25.8512233 15.9476387,34.9900201 L16.5147901,38.4036208 C16.6114215,38.9851887 16.721201,39.5662461 16.8049398,40.149856 C16.858553,40.5237849 16.8645526,40.8956718 16.605422,41.1983883 C15.7497803,42.1976591 14.307712,40.6960729 13.1212002,40.0988077 C12.7709271,40.049546 12.4200157,40.0305305 12.0758698,40.0547785 C6.37525148,40.7888532 7.49844869,51.8446418 13.763793,49.9067201 C14.2902239,49.5788624 14.7424898,49.678917 14.9467307,50.1546873 C16.4401145,51.5222716 17.4248109,53.9613601 19.9059546,56.3106035 C20.7813821,57.191825 21.5780492,57.9290902 22.5627455,58.6359818 C23.1411302,59.2207402 24.8863685,59.8169845 24.333131,60.8176591 C23.2869071,63.0946691 17.1174283,55.9421623 16.0266544,53.9641677 C12.6090662,55.3133747 8.8216743,54.8550884 5.28000975,54.5253163 C-13.4042014,53.5541222 -10.9099097,33.8635114 4.40509288,21.4318432 C7.28795293,19.3100201 10.4686217,17.5790994 13.7748986,16.2471212 C14.226271,16.0652616 14.0290509,15.3242954 13.571296,15.5087074 C11.3836209,16.3901841 9.2509631,17.4393546 7.21800042,18.6536664 L7.21492263,17.9276849 C7.21194411,16.7049183 7.23112716,15.4319009 7.44355895,14.3146873 C7.54976421,13.5405397 7.72834733,12.7136846 8.00330662,12.0916609 C8.34324003,10.1846235 13.6681828,3.63869827 22.7104372,2.39465087 Z M11.8265172,42.5929772 C12.1150075,42.3189754 12.6535651,42.6456846 12.910398,42.6375169 C13.5671601,42.7273619 14.191116,43.0046819 14.6777199,43.3469608 C14.9990164,43.5269061 15.2241919,43.695876 15.4123489,43.8513181 L15.4174549,43.8499143 C15.4160507,43.8499143 15.4142636,43.8513181 15.4127318,43.851701 L15.430442,43.8636653 C15.7044147,44.0582766 16.7073494,45.1544411 16.0737064,44.85965 C16.0264757,44.7982644 15.9780961,44.7393036 15.9293336,44.6814913 C15.9240999,44.6894038 15.9168238,44.6971887 15.9081436,44.7047183 L15.9437357,44.7575262 C16.4822925,45.5674698 15.5524649,44.7141623 15.4094129,44.4875077 C15.4026474,44.4929954 15.3949884,44.4966964 15.387457,44.5006527 L15.5737545,44.7273379 C15.5997997,44.7595215 15.6202756,44.7852151 15.6372691,44.8069426 L15.6765536,44.8448581 C16.299234,45.4567606 16.3186871,46.0074507 15.5952721,45.1027675 C15.6237382,45.1453929 15.6465876,45.1905706 15.6497789,45.2306436 L15.6926501,45.2852816 C16.2606489,46.017031 15.7986494,45.7571567 15.5164021,45.4446292 L15.4927832,45.4177472 L15.4976159,45.4250462 C15.7601906,45.82945 15.239207,45.5456986 15.1471464,45.3293789 L15.1432615,45.3195953 C15.0429452,45.2377648 14.9812145,45.1459289 14.9600414,45.1227379 L14.9561258,45.1188478 C14.4677348,44.6185743 13.7597848,44.1952562 13.1584231,44.0029316 C13.0712377,43.9863409 12.9830312,43.9730684 12.8939311,43.9636244 C12.5322971,43.8829681 12.1667059,43.8277083 11.7972852,43.797845 C11.7520969,43.792485 11.7062704,43.7593036 11.6720601,43.716423 C11.1134396,43.6975881 11.2858785,43.4686673 11.5176458,43.4261569 L11.5217022,43.4254592 L11.4757222,43.4215898 C11.1172229,43.3866102 10.8723887,43.2580113 11.2348774,43.1790818 L11.2808111,43.1699508 C11.2751945,43.1611449 11.2702161,43.1523391 11.2653654,43.1435333 C10.9549193,43.1094585 11.1575007,42.807763 11.3298289,42.8807621 C11.2573234,42.6437703 11.5887042,42.7620747 11.630063,42.7268514 C11.6615927,42.6918833 11.7007814,42.6609991 11.7233756,42.65934 C11.8231983,42.5888933 11.7748187,42.5952744 11.8265172,42.5929772 Z M13.7260085,38.7559818 L13.6532477,38.7984795 C13.5944008,38.8328095 13.5338944,38.8556536 13.4731327,38.8690538 C13.5589139,38.9055533 13.6436739,38.9449881 13.7275403,38.987103 C13.7261787,38.9356293 13.7252142,38.8842123 13.7252142,38.8328898 L13.7260085,38.7559818 Z" id="🖍-Ink" fill="#000000"></path>
                    </g>
                    <g id="face/Smile" transform="translate(20.296438, 23.737466)" fill="#000000">
                        <path d="M18.7118561,30.7472357 C17.8537539,30.3972547 17.0881098,29.8134634 16.5283501,29.0677079 C16.3337422,28.8084526 16.2832836,28.5346831 16.3241081,28.2842859 C16.3700124,28.0027319 16.5366229,27.7475533 16.7638422,27.5763874 C16.9917654,27.4046913 17.2768683,27.320015 17.5525034,27.3631805 C17.7920141,27.4006889 18.0304356,27.531796 18.2191284,27.8037074 L18.2585511,27.8580833 C18.5913379,28.3081957 19.0249897,28.6775075 19.5191057,28.9155504 C19.9953532,29.144985 20.5279879,29.2520709 21.0791779,29.1897982 C22.1289547,29.071241 22.8525138,28.5036428 23.6215781,27.732854 C23.7169058,27.6355399 23.8122946,27.5351752 23.9081459,27.433195 C23.9686778,27.3407504 24.052681,27.2813362 24.1459473,27.2501625 C24.249503,27.2155497 24.3666487,27.2175081 24.4739452,27.2549435 C24.5774331,27.2910501 24.6699462,27.3594705 24.7319787,27.4505336 C24.7909355,27.5370816 24.8243623,27.644 24.8135161,27.7669826 C24.7431223,28.5657791 24.3254049,29.2786708 23.7320546,29.8384415 C23.0730634,30.4601383 22.1995224,30.8902322 21.3771217,31.0410797 C20.4710776,31.207244 19.5478429,31.0881968 18.7118561,30.7472357 L18.7118561,30.7472357 Z M21.80454,18.4242494 C22.7684777,19.0100347 24.2372226,20.3759715 23.2002476,21.8282044 C21.9796288,23.1086862 20.2222133,21.6405264 19.3561894,20.9765349 C18.5531715,20.4619378 17.6509358,21.7854431 18.3959763,22.386322 C24.6538831,27.0183485 27.1934742,18.5774241 22.2920862,17.7355096 C21.7524258,17.6427343 21.5519946,18.2430304 21.80454,18.4242494 Z M10.590311,13.0360036 C10.6968135,11.7143276 12.7102037,11.4141987 12.9104874,12.7220565 C13.0898364,13.8936153 12.8787024,14.9698414 12.3508674,16.0246272 C11.8465201,17.0323209 10.578884,16.5621843 10.4830185,15.6445909 C10.3545147,14.414595 10.5240603,13.8581618 10.590311,13.0360036 Z M25.9165085,12.4508751 C26.197212,12.0833273 26.6025025,11.8324248 27.0880852,11.9742115 C28.605212,12.4174385 28.1580522,14.570784 27.6252388,15.6189335 C27.3357273,16.1881222 26.3999211,16.3324613 25.9770148,15.8312944 C25.2877019,15.0140109 24.9575975,13.3818687 25.8339186,12.5768368 C25.8576616,12.5352325 25.8840852,12.4932452 25.9165085,12.4508751 Z M12.3294987,7.25275296 L12.5691461,7.21081741 C13.3105149,7.08262935 14.2323216,6.95945488 14.7567739,7.55534184 C15.0349245,7.8713309 15.1306624,8.45864175 14.7567739,8.76110301 C14.0991183,9.29328168 13.3720207,9.08704649 12.5839062,9.13209663 C11.9344202,9.1693619 11.310209,9.2768186 10.6845937,9.45561531 C9.31209495,9.84779398 8.19374847,10.5637466 7.02153346,11.3498906 C6.86771455,11.4530082 6.71070437,11.2563446 6.78410344,11.112516 C7.46077901,9.78742935 8.77213312,8.69895169 10.0856573,8.03545123 C10.7867141,7.68130356 11.5538939,7.38752051 12.3294987,7.25275296 Z M24.5335266,6.65917435 L24.7169515,6.69670517 C26.7130533,7.11384757 29.3064569,7.94712375 30.2517074,9.90730942 C30.2877258,10.1844866 30.249669,10.2438912 30.2187219,10.2827028 L30.2084182,10.295618 C30.1829177,10.3287608 30.1625704,10.374448 30.0424018,10.4121723 C30.009055,10.4042289 29.9753763,10.3958158 29.9413408,10.3868985 C29.5080545,10.2733765 29.1652412,10.116984 28.8333616,9.95470814 L28.47352,9.77746847 C28.0560318,9.57281342 27.6348574,9.37560686 27.1885093,9.23002152 C26.2359642,8.91939957 25.2561896,8.70058578 24.2612353,8.58374419 C24.0455867,8.55844126 23.8379305,8.48567686 23.6741047,8.36097052 C23.5186012,8.24259919 23.3998065,8.07871133 23.3456428,7.86086864 C23.2754466,7.57894541 23.2956195,7.36550639 23.4469187,7.11117036 C23.5606864,6.92016944 23.7234697,6.78778084 23.9103862,6.71175881 C24.1009395,6.63425764 24.3178825,6.61598676 24.5335266,6.65917435 Z" id="🖍-Ink"></path>
                    </g>
                    <g id="facial-hair/Full-2" transform="translate(15.701018, 43.135825)" fill="#000000">
                        <path d="M31.6741483,14.2582407 C31.2286479,14.1124977 30.7910618,13.9428897 30.3514333,13.7794075 C28.1036347,12.6506016 25.3883799,12.4458979 23.0310571,13.3965451 C21.8740325,13.8631267 20.7951301,14.7014676 19.6341483,15.2508751 C19.3584231,15.3537375 19.0804002,15.4471559 18.7993137,15.525515 C18.6269855,15.4655333 18.4546572,15.4017229 18.2836055,15.3379125 C17.0521606,14.8738833 15.8938595,14.3015041 14.7692581,13.6718232 C14.6492666,13.5029809 14.5248073,13.3388605 14.3910296,13.1812489 C15.2048018,13.0657521 16.0015966,12.8738104 16.7224392,12.6757429 C18.9358998,12.0695442 21.0217098,11.0817593 23.2275113,10.4487603 C25.2814087,9.85787603 27.5101873,9.53499544 29.5730202,10.2688149 C30.5521,10.6172197 31.4137412,11.227247 32.3660143,11.638186 C32.8587454,11.8500365 33.4497675,12.0580583 34.0254715,12.0886873 C33.6540084,12.9782042 33.1842543,13.8090155 32.5421721,14.5007201 C32.2485758,14.438186 31.9575325,14.3501276 31.6741483,14.2582407 Z M36.4637246,7.29116682 C36.2666322,7.45490428 35.4532429,7.98325433 35.1893892,8.29822242 C35.1212238,8.27231541 35.0534413,8.24577028 34.9860419,8.21845943 C34.8700075,8.07603464 34.6990834,8.01350046 34.5248404,8.01732908 C33.3084583,7.45171376 32.2255987,6.65242479 31.259284,5.65021878 C30.572524,4.93937101 29.8691695,4.19534184 28.951362,3.78312671 C27.8701619,3.29561531 26.8068328,3.52022789 25.6707429,3.59424795 C24.4618922,3.67464904 23.2683595,3.33134913 22.0607853,3.49597995 C21.1774435,3.61721969 20.3502679,3.99114859 19.6354248,4.51822242 C18.176379,5.59406563 17.1704927,7.10509572 15.9373883,8.40810392 C14.5383383,9.8859526 12.8176089,10.8303464 10.9041271,11.312753 C10.88115,11.2974385 10.8568964,11.282124 10.8326428,11.2680857 C9.4221042,9.99187785 8.1481517,8.5510392 7.02099733,7.01576117 C5.92064958,5.51621696 3.01915254,-1.23364631 2.31835102,-1.82580675 C2.02730776,-2.07211486 1.70818138,-2.17804011 1.40309656,-2.16910665 C0.850369678,-2.15634458 0.339767472,-1.77220602 0.111272986,-1.1672835 C-0.27678469,-0.138659982 -0.0827558524,1.19114859 -0.0521197201,2.2669918 C-0.0138245547,3.58403829 0.0729778202,4.89980857 0.210840416,6.21047402 C0.347426506,7.50582498 0.528690288,8.79734731 0.754631764,10.0799362 C0.868240755,10.7282498 0.994614801,11.3752871 1.1337539,12.0197721 C1.17715509,12.2226892 1.23204483,12.4039107 1.29842311,12.5723701 C1.36607791,12.8901459 1.43883872,13.2066454 1.51670556,13.5205925 C2.02475475,15.5765634 2.82640021,17.6350866 4.35693032,19.1524977 C5.9500092,20.7337192 8.11496255,21.7840383 10.1254587,22.7233273 C12.040217,23.617949 14.0468837,24.4130264 16.1058871,25.0358159 C17.8942713,25.8462078 19.8090296,26.4868642 21.7314469,26.823783 C23.847893,27.1951595 26.0728421,27.2181313 28.1165274,26.4830356 C29.1211373,26.1218687 30.0708574,25.6177666 30.9324986,24.9898724 C32.1541144,24.3555971 33.2531856,23.4839471 34.153122,22.3302552 C35.7649793,20.2626328 36.5343339,17.7535095 36.8709782,15.1662015 C36.9571419,14.5039834 37.2810846,11.9659545 37.3065576,11.5708032 C37.3888217,10.2946788 37.4710857,9.01859355 37.5533497,7.74243391 C37.5921555,7.14019143 36.8528035,6.96828624 36.4637246,7.29116682 Z" id="🖍-Ink"></path>
                    </g>
                    <g id="accessories/Glasses-5" transform="translate(5.999576, 30.756609)" fill="#000000">
                        <path d="M46.8591771,9.49910848 C46.4981813,10.481278 45.9487733,11.5037758 45.2769485,12.3303756 C42.5587576,14.6316335 39.9175401,13.3574676 38.5764434,10.2385433 C38.0668624,8.03440474 39.4198306,5.66014768 40.8534739,4.03872562 C42.9239659,1.96399453 46.3030036,3.05285506 47.2550214,5.51925433 C47.3128471,5.83881677 47.3478234,6.15761349 47.3645456,6.47538924 C47.3447598,7.50796901 47.2203005,8.39046673 46.8591771,9.37148769 M20.7316622,7.51830629 C24.3125155,3.25998359 31.0116164,3.03230811 30.8406923,9.58627347 C30.0714701,17.8821349 17.118641,15.8459453 20.7316622,7.51830629 Z M47.9854379,3.96598177 C47.8599574,3.75349316 47.7206906,3.54789608 47.5686588,3.35123245 C47.5124926,3.31779581 47.480197,3.0212051 47.2736584,2.99925433 C44.5129599,-0.0456499544 39.6631325,1.6819526 37.9107458,4.71600912 C37.5907258,5.09963719 37.3296804,5.54873473 37.1371834,6.02322881 C35.4105821,5.70660164 33.3976605,5.76811486 31.7918166,6.42012944 C30.1995036,2.26326527 25.3787805,1.89214403 22.2019413,3.66824248 C20.2260384,4.63981951 18.9448098,6.67447767 17.0231584,7.79218049 C12.505733,8.11723063 7.65743745,7.10532543 3.22158079,8.23821513 C-0.276810221,8.96539836 2.64766391,10.736392 3.23434584,9.5544959 C7.41656086,8.31912671 12.371317,9.36306472 16.7136058,9.08472379 C17.1651058,9.84827894 18.0309595,10.4731103 18.8938772,10.4464376 C19.8258539,18.7061823 31.8740235,17.3365561 32.2896537,9.9941495 C32.7610672,9.24897174 33.3473662,8.5358268 34.1865409,8.07154239 C34.5078374,8.00505196 34.8181559,7.91865269 35.1017954,7.78490611 C35.5866122,7.71650137 36.3336232,7.92197083 36.7796342,8.32550775 C38.3074837,17.490722 47.1096274,16.4233017 48.6826652,8.39416773 C48.7139396,8.36226253 48.8013802,8.24255424 48.8685244,8.05048496 C49.4069544,7.33874385 50.725074,7.07418596 50.5144506,5.87263628 C50.3269319,4.67083136 48.8089116,4.68512489 47.9854379,3.96598177 Z" id="🖍-Ink"></path>
                    </g>
                </g>
            </g>
        </g>
    </g>
</svg>