<?xml version="1.0" encoding="UTF-8"?>
<svg width="140px" height="376px" viewBox="0 0 140 376" version="1.1" xmlns="http://www.w3.org/2000/svg" xmlns:xlink="http://www.w3.org/1999/xlink">
    <!-- Generator: Sketch 62 (91390) - https://sketch.com -->
    <title>mix-2</title>
    <desc>Created with Sketch.</desc>
    <g id="Mix-N-Match" stroke="none" stroke-width="1" fill="none" fill-rule="evenodd">
        <g id="Artboard" transform="translate(-207.000000, -137.000000)">
            <g id="a-person/standing" transform="translate(213.000000, 120.000000)">
                <g id="pose/standing/crossed_arms-2" transform="translate(-18.570823, 81.104224)">
                    <path d="M150.80087,306.20922 C151.103452,304.987605 150.61069,303.402136 150.326622,301.8145 C149.884812,299.345257 148.841216,295.766851 146.853249,294.64784 C146.500739,293.716286 136.719876,286.255118 131.618183,282.505456 C128.997968,280.579641 126.852012,276.946944 126.320887,276.989415 C125.310634,274.507414 125.180781,272.057316 124.560644,269.183473 C126.865475,268.88125 130.802271,269.424519 132.618753,268.113999 C132.944319,268.135613 132.939452,264.584341 132.98684,264.082658 C131.618183,260.37951 128.254815,169.76943 131.618183,126.610351 C131.974359,121.806499 132.902054,116.431302 131.98568,111.475896 C133.486587,111.14637 134.38644,109.592907 134.391819,109.530592 C137.981495,102.491221 132.474797,78.5547539 129.023442,71.927701 C131.764239,71.8564111 135.374279,71.4840351 137.07114,69.1979553 C137.874424,68.934031 138.380831,68.4739331 138.770691,67.7347429 C139.219592,67.0305656 139.636219,66.2917545 140.01135,65.534489 C141.837438,61.7451278 142.963982,57.5375073 142.354987,53.362498 C142.471151,53.3257155 143.068875,53.3219235 143.098589,53.154822 C143.157247,52.1284498 142.968593,51.224054 142.659933,50.2546884 C139.524026,39.3357058 135.749154,28.5855943 130.759366,18.3059456 C128.258965,12.8039837 123.085774,10.7962378 117.725594,8.73072691 C115.146939,7.71863793 112.567132,6.55057072 109.875899,5.88772639 C109.841959,5.69964241 110.002693,5.12742726 109.649976,5.17406905 C109.214394,5.26482462 109.300332,5.9644515 109.13883,6.35705152 C102.915811,1.26841935 106.862175,-1.35375946 103.109844,-4.14063814 C99.2271333,-6.15381924 96.9253759,-6.23560037 92.6444811,-5.79989778 C91.0651927,-5.75426719 89.8014802,-5.04313786 89.4290392,-3.45516812 C88.071448,-0.169512975 84.8904582,2.24878179 81.4201478,2.99012085 C81.1333886,2.48022115 80.3449612,1.01789352 79.9033598,1.47950822 C74.8914149,1.65040173 65.2060403,5.60531282 60.5149224,6.98029769 C55.8056179,8.18173464 55.8652869,9.46193772 54.6332088,14.573322 C52.397666,23.6814907 52.8165981,57.8898896 58.650398,65.0986377 C60.7653562,66.509788 62.3538327,67.3884897 63.4158276,67.7347429 C63.3800948,71.1048336 63.945032,76.1254484 63.4158276,79.421342 C62.2243493,85.3986962 60.7720824,91.4007087 59.444845,97.4099159 C59.4389535,98.0794594 54.1275701,108.003226 56.6172131,106.166121 C57.1310485,106.418669 58.0343589,107.478876 58.5877695,107.714739 C55.942772,113.736207 56.4297118,121.127415 56.6172131,128.566085 C56.6640884,132.995792 55.6279645,137.850028 54.6332088,142.386416 C47.2736558,180.822666 42.2814344,224.465371 39.5487059,262.966843 C39.4372809,264.54331 39.3641503,265.746643 39.3113835,266.86769 C39.2570799,267.251694 39.7764226,267.244363 39.9691749,267.049453 L40.2351859,266.790964 C40.5314226,266.875653 41.0049145,267.004455 41.3051215,267.08573 C41.3432877,268.346828 41.2182869,269.655959 41.06575,270.805192 C40.9255082,271.903613 39.1383547,276.702059 39.5487059,277.774188 C38.1863759,277.701634 35.6288534,279.935102 34.4086863,282.351248 C33.7829137,282.91057 31.7811839,283.830213 31.3221644,284.690242 C30.70271,285.286094 28.2417131,286.829761 23.9391737,289.321242 C21.5630049,291.220031 13.9187932,298.760573 14.5425167,300.291157 C14.5425167,300.291157 14.4723318,300.769709 14.4487661,300.929226 C13.1367695,308.554591 15.3214667,308.235415 22.389906,309.357219 C32.7155396,311.176628 42.4817432,305.658493 51.2082368,300.981673 C54.1081028,299.028153 56.932789,299.54659 56.6172131,297.187325 C56.0448475,294.274551 55.9431562,283.846517 52.6331953,284.082127 C53.1775125,283.48539 53.041113,278.012248 52.6331953,276.989415 C52.3741003,274.354849 54.760515,271.895017 54.6332088,269.183473 C56.0197449,269.286237 58.8522436,269.935557 59.444845,268.390942 C59.4182054,268.235217 58.7634879,268.238377 58.650398,268.201215 L58.6623089,268.113999 L58.5877695,268.096303 C64.3602215,247.772995 78.4224171,154.441434 93.6912194,147.277684 C93.7856105,148.043419 95.4655299,147.134852 96.4829549,147.277684 C101.205707,184.082229 106.612814,218.774391 109.497183,258.14019 C109.785607,259.307752 110.452928,267.450897 110.734512,268.801581 C111.323996,269.288046 111.792536,269.579395 112.140131,269.675628 C112.297768,273.82925 111.763719,282.496229 111.745405,282.505456 L111.469282,283.180214 C109.86092,286.803106 108.662648,291.65104 110.734512,295.201504 C109.196847,295.089639 108.52548,296.399022 108.456704,297.759092 C107.550576,303.723301 131.507322,309.016191 137.07114,309.357219 C138.899149,309.675875 151.931128,307.354156 150.80087,306.20922 Z" id="🎨-Background" fill="#FFFFFF"></path>
                    <path d="M148.610486,306.702107 C145.590486,307.393796 142.644001,308.537186 139.662039,309.212884 C129.950139,308.498042 120.415879,305.233916 111.89661,301.205441 C109.427074,300.125757 107.979063,298.20983 109.082938,295.751758 C112.696692,300.213514 126.073576,303.317093 132.197593,305.239417 C136.006148,306.074125 140.330717,307.961398 144.17667,306.200259 C146.613674,305.78412 149.387643,304.616296 150.325533,302.424691 C150.390083,303.358669 150.294155,304.28753 150.212828,305.218949 C150.308371,306.361956 149.750094,306.517001 148.610486,306.702107 L148.610486,306.702107 Z M112.54518,269.104927 C112.465133,268.915087 112.211289,268.910737 112.115233,269.083564 C111.930421,269.068596 111.733571,269.049919 111.53736,269.041604 C111.873684,267.979318 111.920944,266.868037 111.753935,265.770699 C111.542996,262.745921 111.301447,259.723317 111.045682,256.701993 C108.408241,227.748041 105.37031,198.707228 100.190203,170.071553 C100.252448,170.027675 100.293303,169.959619 100.282289,169.872886 C100.022554,167.843745 99.4737539,165.865902 99.0905545,163.857485 C98.7040253,161.831927 98.3779472,159.795622 98.0215155,157.764819 C97.9150855,157.158456 97.8068624,156.551581 97.6939006,155.945346 C97.7750999,154.472294 97.4190524,152.922999 97.2310388,151.495871 C97.0989939,150.494221 96.9085469,149.469417 96.64625,148.467895 C96.7567785,148.130814 96.6991449,147.731049 96.4278828,147.477119 C96.4241686,147.473665 96.4201983,147.470467 96.4166122,147.467141 C96.436848,147.400364 96.459133,147.336785 96.4829549,147.277684 C96.6694316,146.817283 97.0729947,146.611197 97.3648768,146.28371 C98.2028692,146.132375 99.0600728,146.090671 99.9051092,146.224864 C100.031391,146.248403 100.125141,146.074169 99.9977072,146.005729 C96.6016801,144.021234 92.3741924,145.934731 89.8695647,148.522007 C82.1722789,159.448819 79.3881924,173.32263 75.1349617,185.859629 C67.4356266,213.128557 62.0348472,241.02227 55.8497386,268.633013 C50.9572874,268.405563 46.0762348,267.692511 41.1731534,267.815319 C40.988982,267.399819 40.6723815,266.955281 40.2953298,266.776698 C43.3417131,224.686421 48.5759956,182.752851 56.3692093,141.273925 C57.2340974,130.409029 55.8809888,119.332034 59.1069328,108.708148 C82.0020677,117.709566 107.602523,119.049577 131.618183,114.208396 C127.127886,165.080189 124.755816,216.484021 130.92389,267.345324 C128.952309,268.124129 126.835236,268.458524 124.738782,268.70286 C120.707504,269.189741 116.597845,269.251273 112.54518,269.104927 L112.54518,269.104927 Z M51.6268616,281.09556 C51.2642823,281.799017 51.6488904,282.531258 52.4088853,282.731204 C50.1354324,283.330019 49.7136826,285.745876 47.9216623,286.848075 C47.7537564,286.530822 47.2789837,286.477477 46.9613586,286.384988 C46.0040007,282.829066 44.8988446,278.644779 40.4136707,277.337006 C40.699021,276.972548 40.659574,276.542466 40.6462543,276.111232 C40.9795045,274.419173 42.1794358,270.641046 41.4360906,268.700301 C45.5571483,269.638373 49.7874536,270.02253 53.9660168,270.630556 C53.1158573,273.718529 52.3954375,278.381382 51.6268616,281.09556 L51.6268616,281.09556 Z M54.4934282,296.135276 C54.6281627,296.098946 54.7628972,296.061464 54.8950702,296.021679 C55.5526054,298.90203 51.0968887,299.842021 48.899256,300.864138 C45.5872458,302.235235 42.2792059,303.61132 38.9789786,304.997895 C32.2966843,308.346579 26.0206427,309.289639 18.5921856,306.902949 C13.8648226,305.998138 14.7641627,305.095502 14.0711508,301.452592 C18.8110651,307.820297 28.5206597,305.087315 34.5482365,302.334248 C40.0266292,300.238587 45.544725,298.226204 51.212284,296.462635 C52.3445919,296.745733 53.4236207,296.450355 54.4934282,296.135276 L54.4934282,296.135276 Z M102.616449,63.3537456 C99.762306,64.1260266 96.8682034,64.526047 93.9662882,65.0986377 C94.2192356,63.2379738 94.5910363,61.3779495 94.5976962,59.4929799 C97.1375444,61.0411239 99.8369735,62.3060428 102.616449,63.3537456 L102.616449,63.3537456 Z M75.6861949,44.5334721 C81.7857496,43.2633083 88.2440414,43.7271631 94.0072721,46.1402056 C95.9861534,46.7976104 98.6595834,48.5105213 100.714541,47.7175165 C99.1901966,52.5493582 101.110035,57.5274177 103.095449,61.9248273 C98.5381686,60.4070014 94.5257182,57.7369583 90.3763561,55.3955535 C91.9299014,53.3529808 77.8012195,50.8772552 76.2675257,50.9309835 C75.8322,48.8185639 75.3134977,46.7236699 74.8587047,44.6140646 C75.1124205,44.7087289 75.4274841,44.5820835 75.6861949,44.5334721 L75.6861949,44.5334721 Z M107.204595,46.8188459 C107.237126,46.8427678 107.261204,46.8738534 107.272347,46.9149173 C113.242418,47.7409267 119.237848,50.4547201 125.367884,49.6679835 C129.509562,49.134154 127.602531,51.4996085 124.844059,51.4108288 C118.620784,52.0336939 112.850766,48.3589306 107.060767,47.1061646 L107.204595,46.8188459 Z M110.462942,6.88217949 C110.44847,6.94742106 110.433741,7.01279055 110.420037,7.07841589 C110.358561,7.07841589 110.297214,7.07201966 110.233176,7.05411021 C110.193345,7.01560489 110.155563,6.97594825 110.117013,6.93680331 C110.230102,6.90482215 110.347163,6.88512176 110.462942,6.88217949 L110.462942,6.88217949 Z M152.542505,305.482858 C152.456695,304.040252 151.698493,302.594703 150.613701,301.624011 C151.337963,298.662811 149.887262,294.890186 146.791954,293.615544 C145.950247,292.23754 144.123391,291.631433 142.80371,290.64846 C143.910787,290.580788 144.925522,289.793284 144.075491,288.945783 C142.276939,289.490486 140.537045,290.226181 138.824431,290.963667 C138.361825,291.060633 137.26256,291.976574 137.17611,291.159519 C137.501804,290.509022 140.013476,289.851874 140.832641,289.400683 C140.225567,289.017293 139.617213,288.632752 139.0127,288.246803 C140.086991,288.220706 141.467763,287.414909 140.415118,286.500504 C137.578777,287.130916 134.629474,287.686621 132.129969,289.121168 C130.067968,288.610109 136.070954,286.774518 136.625389,286.687274 C135.684041,286.047011 134.772149,285.377581 133.91533,284.654807 C134.855013,284.637409 136.813915,283.693197 135.561089,282.850046 C133.983722,282.445165 131.793517,283.744367 130.228061,284.16089 C130.22678,284.159867 130.22678,284.161018 130.22678,284.161018 C129.047341,284.597369 127.8793,285.068899 126.721377,285.556036 C126.253905,285.752912 126.055389,285.108556 126.516458,284.913471 C128.315394,284.156796 130.136103,283.441186 131.996772,282.823949 C131.489596,282.271571 131.011878,281.696933 130.533007,281.120121 C130.660057,280.216078 129.725496,279.422177 129.379182,278.604483 C129.452569,278.185786 129.242142,277.529021 128.744957,277.442032 C128.349974,277.059537 127.753787,277.034464 127.203066,277.121581 C126.329213,275.443593 125.574981,272.830732 125.297956,270.748631 C127.612777,270.440076 130.298758,270.43061 132.299668,269.154434 C132.895087,269.117208 133.488713,268.685846 133.505107,267.968956 C133.564277,265.383727 133.308256,262.836492 133.078362,260.264055 C132.848596,257.694433 132.632534,255.123659 132.430432,252.551734 C129.01481,211.296676 129.630208,169.825426 132.878566,128.581242 C133.22552,123.745946 133.399317,118.800507 132.595393,113.999112 C133.593478,113.691069 137.32378,113.049271 137.036509,111.699027 C140.273467,103.464773 135.486037,82.374349 131.966034,74.0866231 C134.585672,73.9336253 137.730161,73.3725478 139.450588,71.2147149 C141.107617,70.6312506 141.688436,68.6906338 142.514389,67.2925453 C144.290912,63.5667401 145.442047,59.3737541 144.992505,55.2254138 C146.826662,54.7398118 144.552313,49.7058492 144.349699,48.3507435 C141.308182,38.3278477 137.823015,28.3598316 133.255873,18.9215514 C131.625483,15.4707842 128.767882,12.7444542 125.270164,11.2207438 C121.065473,9.38950249 116.840419,7.49468268 112.443616,6.15479997 C112.470384,5.40669666 111.686951,5.11374923 111.152496,5.38418192 C111.118428,5.3731804 111.084104,5.36192303 111.04914,5.35360793 C110.508665,5.22542744 109.690268,5.43611933 109.255454,5.88756539 C107.83024,3.80200994 107.461385,1.1631804 106.93551,-1.28670444 C104.815747,0.928054907 106.772984,8.34231136 110.074236,8.98065533 C107.923991,24.473353 89.897485,20.7982059 84.4120482,9.50847241 C83.2218506,7.32748517 82.4192068,5.18282853 81.2318268,2.96308013 C84.6579515,3.66397925 88.1620736,1.77466019 89.4042696,-1.50814199 C89.6591381,-2.04005266 89.8795545,-2.33683783 90.3495885,-2.6694419 C90.927077,-3.07880076 90.7797912,-4.12010735 89.9639557,-4.09375333 C86.7464646,-3.37213197 88.8596962,1.74523753 81.0333111,2.64198927 C80.7501381,2.20448699 80.4159913,1.79001115 80.0637861,1.576377 C79.9149634,1.41276138 79.4449294,1.36683643 79.1914697,1.55462981 C73.3025978,1.90846937 67.5584502,3.39546542 61.9104867,4.99695403 C57.0596597,6.18806038 51.9731754,8.7769993 50.7719634,14.0492855 C48.4730236,22.4335946 52.1401847,64.1012093 58.4704019,69.2536301 C59.5142102,70.2629555 60.7667802,70.9575864 62.1230906,71.4462585 C60.824926,80.7112008 58.8013467,89.918449 57.0786148,99.1267207 C56.9497717,100.714905 54.1900193,109.527762 57.6929888,108.07748 C57.7880202,108.123405 57.8843323,108.167667 57.9802602,108.212313 C57.7732916,108.633313 57.5784901,109.059941 57.3900923,109.491559 C56.7851958,110.876855 56.3037632,112.27763 56.0829625,113.778186 C55.8533247,115.338355 55.8079863,116.915538 55.7384417,118.488883 C55.7125707,119.073626 55.6913103,119.648392 55.68401,120.220087 C55.0073917,125.741826 55.0210957,131.378826 54.9664078,136.927045 C51.9059362,157.90157 47.5119515,178.718363 45.0142399,199.803415 C41.9764375,222.329153 39.5665851,244.947765 38.1653204,267.636608 C38.1174205,268.677787 39.3250363,268.883106 39.9122585,268.305526 C39.9964036,268.329448 40.0808047,268.352218 40.165334,268.375501 C40.1667428,269.285685 40.0884892,270.198299 39.9828277,271.102087 C39.7820066,272.419454 38.2714943,275.735645 38.651876,276.930845 C37.2768667,276.740237 35.0632246,277.019753 34.664144,278.144978 C33.0901067,280.146103 33.1907734,282.875119 31.3221644,284.690242 C33.1207165,285.083099 34.9072297,285.609764 36.6516063,286.162783 C37.0121364,286.356205 36.7938972,286.882998 36.3379515,286.747014 C35.3694511,286.457905 34.3983891,286.15984 33.4219481,285.890047 L33.4219481,285.889024 C32.4777818,285.62729 31.5295172,285.39242 30.5689574,285.213326 C30.5357861,285.240318 30.5471847,285.298524 30.5889371,285.321934 C29.9015605,285.8541 29.1212017,286.31706 28.3385376,286.76083 C28.8431517,286.871485 35.5476029,288.663965 33.5416979,289.225682 C31.5967564,288.420269 29.5697191,287.650674 27.4669897,287.251549 C26.5571474,287.765934 25.6670287,288.302194 24.7685851,288.830267 C25.2022458,288.921989 32.4297539,290.489322 29.9248701,290.942559 C27.9821059,290.236927 25.9683883,289.763094 23.9391737,289.321242 C21.4511958,290.798004 18.9592475,292.270417 16.5038005,293.788499 C15.476898,294.419551 14.3604714,295.028472 13.7010151,295.978185 C12.8249846,297.241185 12.8146105,298.817728 13.4166894,300.261997 C11.6591211,307.818762 14.7607047,308.11043 21.9900058,309.697463 C32.23777,312.316464 41.1252534,306.034213 50.0307954,302.621056 C51.8909515,301.751296 53.9470617,301.097089 55.6142093,299.950757 C57.1885028,298.831416 58.2261635,296.479777 56.7844273,294.866775 C57.780848,293.006623 56.4501525,288.445342 56.1321432,286.265634 C55.8697182,284.890572 55.6931033,282.672103 53.6473671,282.601489 C54.1943739,282.246242 54.1769557,281.579371 53.9949617,281.042727 C53.7554621,278.402234 54.577317,273.713156 54.7748081,270.730721 C56.3384714,270.843295 58.6573908,271.300881 59.4688718,269.570701 C59.7822704,269.070643 59.3778107,268.534127 58.8653841,268.466071 C58.8656402,268.465176 58.8657683,268.464536 58.8660244,268.463769 C58.9755282,268.472084 58.9445342,268.459803 58.8715316,268.442277 C67.1614188,234.268744 72.5081508,199.256281 84.4709625,166.071221 C87.2094545,159.661173 88.4293654,151.394939 94.5487717,147.257216 C94.6322763,147.77416 94.7202636,148.370416 95.0455732,148.742421 C95.0632475,148.809326 95.0815622,148.876103 95.0985961,148.943007 C95.3123527,149.776308 95.5530049,150.601422 95.7654807,151.434979 C100.553167,188.230328 106.080612,224.948794 108.73688,261.991421 C109.139419,263.706635 108.484573,269.812862 110.889303,269.538719 C111.18682,269.706045 111.575142,269.786254 111.897762,269.866207 C111.400833,272.067406 111.539666,275.392423 111.554907,277.399689 C111.520454,279.405419 111.188741,281.482532 111.412616,283.468562 C111.670046,284.774289 114.114991,283.987808 113.715398,282.675429 C113.659429,278.911886 113.4312,274.269373 112.784039,270.091098 C116.530991,270.821164 120.371565,270.99834 124.186908,270.823339 C123.982245,273.029143 124.636706,275.788734 125.398366,277.5981 C123.113899,278.364113 120.901281,279.395185 119.135516,280.951005 C117.463374,282.468063 115.926734,285.946974 112.978968,284.797187 C112.161852,284.434265 111.266611,283.804492 110.984846,282.993194 C110.711919,282.790433 110.854722,283.278977 110.908002,283.395517 L110.796577,283.433894 C110.118549,283.002021 108.873152,287.481814 108.769155,288.040588 C108.248532,290.439048 107.6453,293.171518 108.878018,295.413653 C106.229179,296.512142 106.514401,300.084949 108.478426,301.5809 C116.275738,306.624073 129.277107,310.740816 138.954811,311.431482 C140.667297,311.550324 142.468923,311.049243 144.098544,310.51068 C146.01326,309.999493 147.93438,309.453127 149.827323,308.852393 C151.494855,308.470154 152.74973,307.042515 152.542505,305.482858 L152.542505,305.482858 Z" id="🖍-Ink" fill="#000000"></path>
                </g>
                <g id="Head" stroke-width="1" transform="translate(48.668363, 23.026436)">
                    <g id="head/Long-Curly">
                        <path d="M43.9817534,18.768835 C35.5582843,11.9304953 22.0596015,9.71010723 13.0427627,16.6092112 C6.0365676,23.0838611 3.13721391,41.4827508 4.3771045,50.7281206 C4.72188142,56.6580674 9.25764478,63.3793561 15.9158611,61.5038529 C17.046504,61.3926864 18.1443598,60.9597894 19.2853768,60.8690908 C20.6502682,60.7121273 22.0255337,60.7094409 23.3877355,60.9017116 C26.3559934,61.3210486 28.9872869,62.8951613 31.8681978,63.6311118 C37.2139052,64.9965794 43.1784692,64.0780805 47.7799349,61.0022604 C62.9858526,51.0167186 56.0979985,28.4335418 43.9817534,18.768835 L43.9817534,18.768835 Z" id="🎨-Background" fill="#FFFFFF"></path>
                        <path d="M42.8599604,63.7954438 C43.0163395,63.7415875 43.1724625,63.6854286 43.3274328,63.6278625 C43.3376788,63.6636814 43.3543285,63.6980931 43.3736678,63.7314815 C43.3954405,63.7852098 43.4172131,63.837531 43.4414193,63.8899801 C43.2468739,63.8913873 43.0520723,63.8567197 42.8599604,63.7954438 M42.5475863,-2.47220769 C42.478426,-2.62686858 42.3988917,-2.77526117 42.3092394,-2.91866469 C42.5269663,-2.84817821 42.7448213,-2.75095548 42.9420562,-2.62558933 C42.8088586,-2.58081571 42.6780944,-2.52964585 42.5475863,-2.47220769 M9.27507574,17.7604818 C9.26611052,17.7589467 9.25727337,17.7576674 9.24843622,17.7561323 C9.3626788,17.4523113 9.5661894,17.1655043 9.79096039,16.9583943 C9.8313039,16.9211682 9.87497735,16.8867565 9.91724198,16.8511934 C9.67863893,17.1350582 9.46219279,17.4378558 9.27507574,17.7604818 M70.1552276,49.5304389 C70.0425219,48.4635474 69.8990783,47.4006215 69.7133701,46.3438361 C69.5353463,45.3320801 69.385499,44.2498376 68.8693582,43.3518066 C68.3570596,42.4576133 67.8434803,41.5888771 67.2339731,40.8022685 C67.3209358,40.4005851 67.436331,40.0232074 67.5361012,39.7187467 C68.1124371,37.9661791 68.6799358,35.7402903 67.4823098,34.1118096 C67.2043879,33.7344319 66.8651182,33.4453222 66.4769239,33.184356 C66.3117076,33.0730615 66.037756,32.9720011 65.910834,32.8184915 C65.8211818,32.7097555 65.8520478,32.7686009 65.8480774,32.7148725 C65.8263047,32.4257628 66.5051003,31.8155623 66.6639129,31.5865772 C66.9611741,31.1630187 67.1826152,30.6859877 67.3516737,30.1985948 C68.0202233,28.2694912 67.5655584,26.1446629 67.1635321,24.2115936 C66.9509282,23.1870451 66.7165516,22.1598102 66.6395787,21.1133867 C66.5678569,20.1309254 66.7023353,19.1714906 66.7817416,18.1941463 C66.8587144,17.2294666 66.8382225,16.2343408 66.4244133,15.3412988 C66.2220554,14.9063551 65.9160851,14.5225811 65.5432598,14.2232375 C65.1796559,13.930418 64.7261436,13.7602782 64.3715049,13.46861 C64.0178908,13.1780931 64.1190698,12.7854924 64.2114116,12.383809 C64.3380774,11.83885 64.4981707,11.2977288 64.5135397,10.7348604 C64.5417161,9.75367837 64.1408425,8.79795336 63.5146856,8.05611835 C62.8690613,7.28984974 61.9469239,6.77162701 60.9505032,6.65521559 C60.4945575,6.60148724 60.0462963,6.69244166 59.592912,6.6604605 C59.1446508,6.62975858 59.0474422,6.40589046 58.9627848,5.9965316 C58.7682394,5.05884397 58.8475176,4.13266955 58.3852963,3.257665 C57.9754574,2.47988317 57.2465846,1.95270571 56.4409952,1.64197675 C54.9644226,1.07143285 53.2469417,1.18912352 51.689426,1.52543741 C50.7699782,-1.17620313 47.8998255,-2.94795943 45.0757797,-2.96970662 C44.6350749,-3.71678654 43.8883997,-4.27453798 43.0368315,-4.60215299 C41.6280104,-5.14583273 40.1358128,-4.82845169 38.6682055,-4.82845169 L38.6618018,-4.82845169 C38.5143879,-4.83753434 38.367102,-4.84124415 38.2199443,-4.8399649 C38.0814956,-4.84776831 37.943175,-4.85928153 37.8048544,-4.87450456 C36.1347611,-5.07163643 34.4825982,-5.75475403 32.8278739,-5.08558022 C32.090164,-4.7875158 31.5035821,-4.32826633 31.1322937,-3.74237147 C30.5726075,-3.59026907 30.0204778,-3.41616363 29.4788501,-3.21404269 C27.1311139,-3.15276679 24.8052785,-1.89526755 23.6181546,0.142699939 C21.9467806,-0.0466285324 20.1332437,0.274462321 19.0278315,1.63813902 C18.7399197,1.99300198 18.5169417,2.40990839 18.3691436,2.85252765 C17.2420868,3.21660119 16.199175,3.86530705 15.5166652,4.84239547 C14.8938383,5.73403023 14.7742165,6.88688712 15.195454,7.8440193 C14.1892997,8.57203844 13.4030494,9.6142405 13.0243327,10.8448756 C12.7941826,11.5925951 12.7599867,12.365132 12.908041,13.1010825 C11.8779366,13.3293001 10.8926584,13.7523469 10.0197017,14.3872369 C9.10486455,15.0523171 7.96231069,16.1108935 7.90211561,17.3292478 C7.89763299,17.4186671 7.90109101,17.5080864 7.90826319,17.5972499 C5.89428948,17.4558932 3.84074071,17.7966844 2.47943537,19.4094304 C1.45727167,20.6194696 1.01298075,22.1777197 1.28577973,23.596404 C-1.11049678,24.0825176 -3.37626522,25.3336206 -4.95670628,27.183411 C-6.10540772,28.527899 -7.1261626,30.2369722 -7.06481484,32.0674459 C-7.04560365,32.618929 -6.91612019,33.174122 -6.69198957,33.6870998 L-6.69198957,33.6882511 C-6.78804555,33.8687528 -6.88679109,34.0695945 -6.98156633,34.2832287 C-8.4659514,35.3205696 -9.54433986,36.9466197 -10.1514137,38.738844 C-10.6418115,40.1906607 -10.9504713,42.0763979 -10.4267741,43.5539275 C-10.3472398,43.7790749 -10.2460608,43.9914298 -10.1282321,44.1883058 C-10.2269777,44.293332 -10.3203441,44.3982302 -10.4112771,44.5044076 C-11.4116681,45.6722317 -12.4247385,47.1433651 -12.3554501,48.7513778 C-12.3272737,49.3988045 -12.0866215,50.0499409 -11.6933042,50.584538 C-13.0766384,51.9854407 -14.1907597,53.7533593 -14.0807436,55.7272366 C-13.9859684,57.4452645 -13.0419302,59.1901566 -11.5627962,60.0152706 C-11.8098522,61.3392906 -11.4794196,62.7362277 -10.4472661,63.7698589 C-9.93227795,64.2866744 -9.32533223,64.626954 -8.68226947,64.808607 C-8.53882587,66.3680084 -7.15318634,67.6229491 -5.68160874,67.9835687 C-5.40740093,68.0514967 -5.1333212,68.0924325 -4.8606503,68.1114933 C-3.53635852,68.7601992 -1.95719822,68.685875 -0.606010772,68.0910254 C-0.207698643,68.5964556 0.311003647,69.008373 0.915515946,69.3038789 C1.16013851,69.4241281 1.41897735,69.5239093 1.68908677,69.6043739 C3.5973989,70.1685216 5.55450746,69.4036601 7.22319194,68.5107461 C7.27698329,68.4826027 7.37560076,68.4467838 7.46269152,68.4071272 C7.69322587,68.6642557 8.11331069,68.9188257 8.33231832,69.0441919 C9.0752793,69.4701809 9.9833285,69.6683362 10.8363056,69.6121773 C11.8365685,69.5456565 12.7188747,69.2156109 13.5359909,68.7461275 C13.6552284,68.7665954 13.7754905,68.7781086 13.8960087,68.7845049 C14.6644566,68.8253128 15.3495278,68.5823839 15.9656949,68.19861 C16.3728442,68.2523383 16.7903675,68.2472214 17.2130138,68.1730251 C18.1442445,68.4095577 19.051013,68.0335872 19.7796296,67.4361791 C20.1025058,67.1713751 20.3751767,66.8605182 20.6673149,66.5637331 C20.9707237,66.2553067 21.2013862,66.1837969 21.5560249,65.9765589 C22.3950418,65.4866076 22.4960927,64.2444593 22.1323607,63.3463004 C22.201521,63.189081 22.2413522,63.0138242 22.2413522,62.8193788 C22.2386627,61.123098 21.4562547,59.5675343 20.4956949,58.2102539 C20.0665168,57.6051703 19.6004532,57.0127513 19.0893073,56.4755957 C18.6781877,56.0443617 18.1006992,55.3447419 17.4923446,55.1693572 C17.455203,55.1426209 17.4166525,55.1156288 17.3782301,55.0901718 C17.4961869,54.6781266 17.5652191,54.2586617 17.53589,53.8301141 C17.505024,53.3899254 17.3628612,52.9728911 17.1350164,52.6173885 C17.8994939,51.1373004 18.2223701,49.5139366 18.0686805,47.8202144 C18.6909952,46.9386857 19.1624379,45.965307 19.4056517,44.8984155 C19.555499,44.2383244 19.6414371,43.5436936 19.6297823,42.8668443 C19.6246593,42.5420436 19.5055499,42.1312776 19.5031165,41.7949637 C19.5210469,41.9011411 19.6593675,41.5045747 19.7131589,41.4059448 C20.3303506,40.2611472 21.1231326,39.3682332 21.2551775,38.0186282 C21.3318942,37.2292053 21.1449053,36.3568871 20.6710291,35.7095884 C20.974566,34.5147723 20.9707237,33.2315602 20.4930053,32.0918795 C20.3649307,31.7874189 20.2177729,31.4893545 20.0487144,31.206641 C20.1267119,30.9687012 20.1985617,30.7282028 20.2906474,30.5118823 C20.3266364,30.4261727 20.3623692,30.3393119 20.3982301,30.2523232 C20.7453124,29.9464553 21.0681885,29.6126999 21.3397068,29.2850849 C21.9415295,28.5598801 22.4014455,27.7283699 22.4590791,26.7700864 C22.4872556,26.290369 22.3745499,25.8311196 22.2349485,25.3758358 C22.1733446,25.1698771 22.136203,24.940892 22.0632004,24.7400503 C22.0223446,24.6286279 21.9235991,24.5149029 21.889147,24.4100047 C21.8813344,24.3869783 21.8749307,24.3677896 21.8698077,24.3524386 C21.8749307,24.3370877 21.878901,24.3051065 21.878901,24.244854 C21.8800537,23.7856045 21.9402488,23.336589 21.9429383,22.8940977 C22.3643039,23.3188075 22.8714795,23.6359327 23.4478154,23.8215514 C24.6093243,24.1938121 25.8210384,24.0249515 26.8493497,23.4505699 C27.9560427,24.2078838 29.1995193,24.8934319 30.5034472,25.1685978 C31.2781707,25.3322135 32.0544311,25.2645413 32.8317161,25.3656018 C33.6040062,25.4666623 34.3508094,25.8031041 35.0781453,26.0653496 C36.6971368,26.6499652 38.3120299,27.2498039 39.9360164,27.8191964 C41.2475007,28.2784459 42.6665677,28.6430311 44.0396559,28.3846234 C44.4251606,28.9780658 44.9259324,29.4796583 45.5675863,29.8480813 C46.0272462,30.1103268 46.5318603,30.2880141 47.0531241,30.3764101 C47.5141928,30.4544441 48.0547958,30.4237422 48.4286457,30.739716 C48.7936584,31.0467352 49.0216313,31.5045775 49.3495024,31.8501019 C49.7146432,32.2364344 50.1653378,32.5715969 50.6379332,32.8120953 C51.0170342,33.0052615 51.4039477,33.1445714 51.7970087,33.2355258 C51.7625567,34.1092511 51.7291292,34.9816972 51.7188832,35.8567018 C51.6998001,37.757662 51.7073565,39.6584942 51.6818696,41.5595823 C51.6562547,43.4540184 51.5960596,45.3487103 51.4961614,47.2407157 C51.4012581,49.0163098 51.2680605,50.7981721 50.8441334,52.5303997 C49.4378739,58.2780539 44.170164,62.3933897 38.2736075,62.6031861 C36.5229553,62.6658692 34.7899774,62.4202539 33.1160418,61.9058689 C31.3820393,61.372551 29.8334888,60.2748297 28.0558128,59.9372366 C27.5909019,59.8501199 27.1528866,60.3171727 27.4192818,60.7660603 C27.8779171,61.5375738 28.4349137,62.0083365 29.1969578,62.4725751 C29.9949909,62.9575374 30.8837008,63.3170056 31.7610121,63.6317002 C33.3747526,64.2097917 35.0821156,64.5450822 36.7944735,64.6384672 C38.1007068,64.7099771 39.4121911,64.6205577 40.6916567,64.3749424 C40.7814371,64.6499804 40.9402496,64.9173429 41.0605117,65.1719129 C41.0784422,65.2090111 41.1387653,65.1834262 41.1272386,65.1450488 C41.1078993,65.0810864 41.0952199,65.0247996 41.0900969,64.9787467 C41.5202997,65.5390567 42.185007,65.9265404 42.8677729,66.1147176 C43.3492055,66.2477592 43.8603514,66.2885672 44.3560003,66.2324082 C44.5160936,66.2143709 44.6683743,66.1876346 44.8196304,66.1543742 C45.3241165,66.5957142 45.9696126,66.8899409 46.6176703,67.0370542 C46.5063735,67.7124964 46.8405202,68.4493423 47.6154998,68.6412293 C47.9406813,68.7218218 48.2531835,68.723101 48.5658137,68.6936784 C48.8181207,68.811369 49.0896389,68.9034748 49.3778069,68.9661579 C49.7529375,69.0480296 50.2011987,68.9430035 50.4842437,68.6719312 C50.639214,68.7806671 50.7839383,68.8561427 50.9273819,69.028713 C51.5179341,69.7401019 52.7908679,69.1733958 52.8472208,68.3508403 C53.0342098,68.3508403 53.2224795,68.3533988 53.4108773,68.359795 C53.4555753,68.380263 53.5004014,68.4007309 53.5465083,68.4224781 C54.3700282,68.8048449 55.2230053,69.1388561 56.1337441,68.8382332 C56.3013938,68.7830977 56.4550834,68.7128671 56.5946847,68.6309953 C57.2363387,68.6885614 57.8690274,68.6898406 58.5197746,68.4800442 C58.9039986,68.3558294 59.265041,68.1589534 59.5660164,67.9005456 C60.5701215,68.1947723 61.6294269,68.3278139 62.6284091,67.9631007 C63.3762369,67.6907492 63.9783158,67.2609224 64.4021148,66.6940883 C65.0503005,66.7172426 65.7084761,66.5611746 66.3014617,66.2528762 C67.3158128,65.7283851 68.0266271,64.7317242 68.5222759,63.7327607 C69.6135999,61.5286191 70.2590961,59.160734 70.5125558,56.7186525 C70.7623014,54.3136692 70.4062539,51.9214784 70.1552276,49.5304389" id="🖍-Ink" fill="#000000"></path>
                    </g>
                    <g id="face/Smiling" transform="translate(20.363868, 23.793984)" fill="#000000">
                        <path d="M18.7740217,30.8204434 C17.9130687,30.4696291 17.1448809,29.8844479 16.5832616,29.1369167 C16.3880071,28.8770441 16.3373809,28.6026228 16.3783411,28.3516294 C16.4243978,28.069405 16.5915618,27.8136189 16.8195361,27.6420455 C17.0482164,27.4699405 17.3342665,27.3850626 17.6108174,27.428331 C17.8511238,27.4659286 18.0903374,27.5973479 18.2796571,27.8699067 L18.3192107,27.9244121 C18.6531031,28.3755962 19.0881957,28.7457873 19.5839533,28.9843969 C20.061783,29.2143778 20.5961872,29.3217187 21.1492084,29.2592977 C22.2024729,29.1404582 22.9284357,28.5715086 23.7000551,27.7988846 C23.7956995,27.7013388 23.8914053,27.6007352 23.9875749,27.4985121 C24.048308,27.4058474 24.1325902,27.3462917 24.2261664,27.3150439 C24.3300661,27.2803487 24.447601,27.2823117 24.5552539,27.3198362 C24.6590857,27.3560288 24.7519061,27.4246121 24.8141447,27.515892 C24.8732974,27.6026461 24.9068353,27.709819 24.8959531,27.8330945 C24.8253254,28.6337928 24.4062202,29.348382 23.8108987,29.9094854 C23.1497181,30.5326624 22.273275,30.9637804 21.4481421,31.114987 C20.5390879,31.2815469 19.6127859,31.1622163 18.7740217,30.8204434 L18.7740217,30.8204434 Z M21.8769804,18.4681167 C22.8441205,19.0552967 24.3177449,20.4244857 23.2773248,21.8801764 C22.0526508,23.1637069 20.2893967,21.6920515 19.4204957,21.026479 C18.6148099,20.5106567 17.7095768,21.8373132 18.4570925,22.4396228 C24.7357897,27.0826779 27.283818,18.6216561 22.3661463,17.777737 C21.824693,17.6847408 21.6235959,18.2864662 21.8769804,18.4681167 Z M10.6254947,13.0670418 C10.732351,11.7422189 12.7524303,11.4413754 12.9533794,12.7523471 C13.1333243,13.9266954 12.9214888,15.0054839 12.3919002,16.062781 C11.8858773,17.072874 10.6140298,16.6016181 10.5178458,15.6818399 C10.3889151,14.4489155 10.559024,13.8911574 10.6254947,13.0670418 Z M26.0026098,12.4805201 C26.284246,12.1120971 26.690883,11.8605972 27.1780789,12.0027215 C28.700246,12.4470038 28.2516005,14.6054763 27.717017,15.6561214 C27.4265437,16.2266653 26.4876285,16.3713481 26.0633172,15.868988 C25.3717142,15.0497586 25.0405131,13.4137303 25.9197455,12.6067817 C25.9435674,12.5650782 25.9700789,12.522991 26.0026098,12.4805201 Z M12.3704605,7.27002142 L12.6109041,7.22798602 C13.3547359,7.09949276 14.2796051,6.97602501 14.8057997,7.57333075 C15.0848744,7.89007217 15.1809304,8.47878137 14.8057997,8.78196278 C14.1459592,9.31540854 13.4164461,9.10868232 12.6257132,9.15383971 C11.9740695,9.19119371 11.3477845,9.29890626 10.7200907,9.47812868 C9.34303215,9.87124111 8.22097023,10.5888984 7.04486081,11.3769142 C6.89053087,11.4802773 6.73299907,11.2831454 6.80664198,11.1389743 C7.48556565,9.81073276 8.80127642,8.71966348 10.1191645,8.05458326 C10.8225504,7.69959237 11.592279,7.40510985 12.3704605,7.27002142 Z M24.6150333,6.67502952 L24.7990676,6.71264971 C26.801801,7.1307853 29.4038205,7.96604548 30.3522114,9.93089825 C30.3883495,10.2087354 30.3501662,10.2682814 30.3191163,10.3071854 L30.3087784,10.3201314 C30.2831932,10.3533531 30.2627783,10.3991491 30.1422104,10.4369632 C30.1087528,10.4290009 30.0749622,10.4205678 30.0408137,10.4116292 C29.6060879,10.2978369 29.2621357,10.1410721 28.9291535,9.97840982 L28.5681164,9.80074815 C28.1492412,9.59560584 27.7266676,9.39792973 27.2788366,9.25199776 C26.3231269,8.94063623 25.3400973,8.72130146 24.3418375,8.60418168 C24.1254723,8.5788185 23.9171263,8.50588085 23.7527562,8.38087759 C23.5967361,8.26222443 23.4775467,8.09794635 23.423203,7.87958499 C23.3527737,7.59699052 23.3730135,7.38304331 23.5248154,7.12810171 C23.6389611,6.93664603 23.8022853,6.80394222 23.9898227,6.72773918 C24.1810091,6.65005349 24.3986728,6.63173911 24.6150333,6.67502952 Z" id="🖍-Ink"></path>
                    </g>
                </g>
            </g>
        </g>
    </g>
</svg>