<?xml version="1.0" encoding="UTF-8"?><svg width="236px" height="314px" viewBox="0 0 236 314" version="1.1" xmlns="http://www.w3.org/2000/svg" xmlns:xlink="http://www.w3.org/1999/xlink"><title>mix-3</title><desc>Created with Sketch.</desc><g id="Mix-N-Match" stroke="none" stroke-width="1" fill="none" fill-rule="evenodd"><g id="Artboard" transform="translate(-327.00, -220.00)"><g id="a-person/sitting" transform="translate(337.00, 196.00)"><g id="pose/sitting/wheelchair" transform="translate(-10.38, 81.54)"><path d="M183.30,198.35 C180.53,197.85 179.54,201.06 179.42,203.09 C178.30,202.60 177.14,202.03 176.13,201.38 C174.48,200.32 172.68,198.49 170.72,198.54 L170.64,198.04 C170.54,197.17 168.76,197.75 168.28,198.06 C167.51,197.91 166.67,197.14 166.15,196.44 C168.23,195.67 169.14,195.64 168.81,192.98 C168.81,192.57 168.71,192.19 168.82,191.82 C166.34,180.81 165.86,169.79 165.55,158.56 L166.82,158.31 C170.84,169.56 174.67,181.36 178.10,193.38 C178.19,193.92 178.50,193.93 178.80,193.64 C179.84,193.69 180.84,193.65 181.90,193.49 L181.89,193.44 C182.21,193.45 182.53,193.43 182.82,193.41 C183.07,195.02 183.36,196.69 183.30,198.35 L183.30,198.35 Z M181.63,192.22 C181.70,192.18 182.50,191.83 182.59,191.79 L182.61,191.99 C182.27,192.12 181.92,192.25 181.57,192.37 L181.54,192.26 L181.63,192.22 Z M147.49,216.30 C146.14,216.63 144.71,217.04 143.39,217.42 L143.91,216.17 C140.91,208.21 138.63,199.80 136.97,191.58 C135.79,186.23 134.56,180.70 132.93,175.39 C130.87,167.07 126.42,158.50 117.01,157.79 C117.01,157.79 116.85,157.51 116.85,157.51 L116.67,157.34 C116.21,151.50 115.59,145.68 114.99,140.09 C120.02,141.48 124.35,141.03 129.17,140.99 C130.72,140.77 132.80,141.23 134.04,140.51 C134.04,140.51 134.87,139.68 134.87,139.68 C140.33,161.26 141.75,183.50 143.70,205.36 C143.77,205.85 144.14,206.02 144.54,205.81 C145.00,206.32 145.96,206.12 146.61,206.20 C146.06,209.47 146.71,213.38 148.30,216.10 L147.49,216.30 Z M134.67,214.46 C131.30,211.63 127.31,210.23 123.15,210.38 C121.69,208.22 119.62,205.62 117.30,204.65 C116.22,201.01 116.35,197.03 116.58,193.61 C117.12,190.11 115.91,189.70 113.06,189.96 C114.29,188.48 114.18,188.12 113.93,186.18 C114.74,186.31 117.21,187.92 117.54,186.78 C117.95,184.56 118.23,182.64 118.39,180.90 C118.48,179.40 117.42,177.84 117.55,176.32 C117.17,172.42 117.56,168.06 115.77,164.46 C123.05,165.44 124.82,173.38 126.71,179.23 C130.59,191.28 133.30,203.58 136.18,215.73 L134.67,214.46 Z M112.24,186.87 C112.06,187.26 112.04,187.63 111.98,188.01 C108.55,187.38 109.16,192.41 108.84,195.16 C108.20,194.95 107.74,194.88 107.07,195.01 C106.97,194.11 107.56,193.70 105.49,193.60 C95.84,193.78 92.17,203.87 88.85,211.58 C87.31,215.30 85.12,215.87 81.87,215.81 C79.69,215.85 77.46,216.44 75.23,216.37 C83.33,200.41 86.28,177.48 82.99,157.59 L82.99,157.59 C82.79,156.33 82.56,155.02 82.31,153.76 C89.26,153.83 97.34,154.00 104.03,153.71 C104.91,154.52 106.00,154.88 107.11,154.89 C107.11,155.77 107.21,156.74 107.29,157.62 C101.04,157.46 94.10,157.56 87.77,157.65 C94.10,157.74 101.07,157.86 107.30,157.68 C107.29,159.36 107.46,160.90 108.96,161.71 C109.53,165.98 108.79,170.44 109.31,175.40 C109.72,178.77 109.38,185.24 112.47,186.31 L112.24,186.87 Z M68.22,212.82 L67.97,213.24 C67.46,213.07 67.15,213.10 66.65,213.49 C63.04,215.44 57.84,213.63 53.88,213.50 C54.63,211.03 54.66,207.10 51.23,207.05 C52.37,196.23 51.61,185.49 51.78,174.68 C58.02,173.49 57.81,172.85 51.75,171.74 C51.71,165.69 51.67,159.57 51.67,153.47 C51.67,150.53 51.64,147.67 51.37,144.83 C51.94,143.66 51.81,142.46 52.10,141.23 C53.33,140.54 55.46,141.34 56.23,140.16 C59.54,140.11 62.91,140.08 66.26,139.90 C66.56,139.91 66.67,139.63 66.80,139.42 C67.38,139.27 68.37,139.62 68.85,139.37 C68.85,139.37 69.51,138.53 69.51,138.53 C72.23,144.08 74.34,150.63 75.59,157.26 C71.65,157.30 67.15,157.29 63.09,157.27 C67.04,157.56 71.31,157.74 75.68,157.80 C79.07,174.65 76.64,198.30 68.22,212.82 L68.22,212.82 Z M62.77,220.81 C54.57,231.13 41.19,234.57 30.20,226.27 C0.86,203.98 2.18,128.43 40.70,117.98 C39.66,121.93 36.03,138.32 42.59,138.79 L42.57,138.74 L42.90,138.55 C44.28,139.03 46.22,138.37 46.67,140.28 C46.68,140.28 47.41,140.34 47.45,140.35 C46.98,142.72 47.12,145.18 46.98,147.60 C46.42,147.38 45.73,147.26 45.13,147.31 C42.87,147.20 42.93,144.73 43.02,143.02 C43.10,142.18 42.85,141.21 42.89,140.43 C42.91,139.88 42.88,139.45 42.67,139.00 C41.97,141.22 41.31,144.13 41.73,146.40 C42.34,148.51 45.03,149.52 46.98,148.48 C46.89,156.09 46.87,163.63 46.82,171.17 C45.54,170.50 44.38,170.92 43.05,171.28 C41.38,171.63 39.40,171.14 37.72,171.54 C37.53,170.71 36.75,169.70 35.93,170.37 C34.89,170.38 34.31,171.35 33.79,173.47 C33.47,175.14 33.66,177.38 35.25,178.19 C36.15,178.68 37.06,178.33 37.50,177.34 C37.75,177.44 38.15,177.74 38.44,177.65 C41.11,177.00 43.98,176.35 46.80,175.74 C46.95,186.39 46.48,196.96 47.36,207.63 C43.33,207.97 35.67,206.90 33.91,210.43 C32.30,211.13 31.15,212.72 31.15,214.33 C31.10,216.93 33.99,217.81 36.25,217.84 C45.40,218.53 54.46,219.76 63.68,219.74 L62.77,220.81 Z M79.35,139.63 C85.17,140.42 91.01,140.42 96.84,140.68 C94.94,153.59 97.60,146.08 103.51,153.34 C96.76,153.33 88.59,153.25 82.24,153.41 C81.25,148.55 79.92,143.90 78.26,139.47 L79.35,139.63 Z M124.39,74.12 C126.96,77.70 130.33,80.83 134.11,82.97 C130.85,83.21 127.52,83.43 124.30,83.88 C123.94,80.78 123.57,77.68 123.21,74.58 L124.39,74.12 Z M235.51,209.58 C235.20,206.53 231.75,205.41 229.23,206.25 C227.81,202.49 222.97,202.95 219.85,201.29 C213.59,198.26 207.19,192.34 199.94,194.67 C199.29,192.88 198.57,191.17 197.78,189.68 C198.09,189.83 198.48,189.82 198.76,189.54 L198.76,189.55 C199.03,189.24 199.29,188.89 199.33,188.51 C200.27,187.46 200.66,185.79 200.90,184.55 C199.75,180.63 198.36,176.87 197.12,172.99 C192.30,158.19 188.91,144.45 185.28,130.30 C181.24,119.78 180.15,92.17 165.51,92.11 C165.47,91.38 165.44,90.53 165.21,89.86 C164.79,90.44 164.61,91.28 164.56,92.01 C158.29,91.91 152.87,93.07 148.74,94.87 C140.83,94.52 133.89,94.99 124.78,96.06 C125.89,94.16 125.15,92.02 125.05,89.92 C138.25,90.55 151.67,89.33 164.80,88.60 C166.92,88.42 169.17,88.53 171.22,88.00 C173.44,87.48 175.55,84.70 173.29,82.59 C171.75,81.64 169.85,82.15 168.17,82.07 C159.66,82.07 150.95,82.24 142.76,82.54 C152.85,77.41 157.94,66.70 163.97,57.57 C167.03,52.58 169.32,48.38 171.17,44.36 C171.49,43.69 171.58,42.96 171.39,42.59 C171.31,42.22 170.17,42.18 169.86,42.09 C178.25,28.99 191.13,34.76 198.02,27.17 C196.71,27.23 195.41,27.29 194.11,27.35 L193.81,26.10 C196.27,24.99 198.60,23.27 201.15,20.68 C201.15,20.68 201.14,20.67 201.14,20.67 C196.92,21.99 192.98,22.95 189.11,23.61 L188.64,22.41 C192.12,20.15 195.22,17.07 197.60,13.50 C193.16,15.46 188.98,18.24 184.38,20.03 L183.69,18.94 C186.31,16.43 192.20,12.67 190.52,9.16 C183.98,12.31 178.01,16.38 171.71,19.93 C171.71,17.05 173.74,12.52 172.50,10.11 C171.20,8.51 170.59,9.87 169.93,11.16 C169.93,11.16 167.20,15.75 166.53,16.88 C164.01,21.34 160.48,25.76 160.57,31.04 C158.38,29.99 156.66,33.79 155.25,35.87 C151.26,42.64 137.76,53.27 134.78,54.72 C122.65,43.74 124.46,25.13 111.56,14.76 C107.42,10.54 104.36,10.05 99.49,8.50 C98.33,8.23 97.02,7.24 95.98,8.19 C94.44,6.91 92.94,2.79 92.31,1.03 C91.91,-0.67 91.26,-4.86 90.34,-5.64 C89.42,-6.43 74.49,-7.08 73.18,-6.69 C71.87,-6.30 72.39,-3.16 72.39,-3.16 C72.39,-3.16 71.01,2.54 71.01,2.54 L70.89,2.51 C70.87,2.52 70.69,2.66 70.66,2.67 C69.68,2.67 68.74,2.20 67.79,2.20 C66.80,2.22 66.00,2.90 65.23,3.48 C63.87,4.51 62.46,5.57 60.81,6.22 C41.61,12.34 39.07,21.56 33.33,39.28 C28.60,39.42 24.62,38.83 20.51,38.60 C19.06,38.78 19.53,41.59 19.58,43.20 C19.44,47.15 22.40,46.74 25.33,46.71 C27.27,46.73 29.22,46.92 31.14,46.69 C29.07,56.22 24.92,71.12 29.46,80.01 C33.15,86.97 36.27,88.30 39.25,88.50 C40.01,95.17 39.25,101.14 39.39,107.59 C-4.54,119.42 -6.56,188.07 13.07,221.50 C28.84,248.82 58.50,247.32 73.20,220.14 C76.75,222.07 83.80,221.94 88.49,221.51 C92.19,221.30 93.40,219.73 94.72,216.31 C96.19,212.98 97.60,209.69 99.10,206.36 C100.53,202.83 103.39,198.79 108.55,198.94 C108.53,201.02 108.14,203.36 109.55,205.01 C104.31,206.79 107.46,215.07 108.98,218.95 C101.79,228.75 104.21,245.93 114.28,253.04 C130.89,264.19 146.94,243.11 142.08,226.96 C142.88,227.34 144.36,227.86 144.99,227.04 C145.25,226.85 144.89,226.00 144.83,225.72 C155.98,225.07 166.91,223.76 177.96,222.72 C177.59,232.98 187.77,243.09 197.99,242.86 C211.32,243.48 219.31,225.92 215.27,214.56 C220.37,214.42 225.55,213.99 230.86,213.27 C233.77,212.98 235.62,212.29 235.51,209.58 L235.51,209.58 Z" id="🎨-Background" fill="#FFFFFF"></path><path d="M71.92,-2.63 C71.60,-2.53 71.64,-3.20 72.08,-3.14 C72.44,-3.08 72.58,-2.59 72.65,-2.28 L72.66,-2.23 C73.27,0.64 72.56,3.67 71.12,6.18 C70.76,6.77 70.39,7.57 69.67,7.73 C70.01,10.15 70.48,12.56 71.06,14.94 C73.11,15.65 75.05,16.72 77.10,17.46 C81.05,18.86 85.27,19.24 89.43,19.54 C92.29,19.69 95.23,19.57 97.94,18.59 C99.09,18.27 100.07,17.25 101.27,17.25 C100.46,15.05 99.57,12.87 98.57,10.74 C95.48,10.74 93.15,7.74 92.23,5.08 C91.90,4.02 91.80,2.91 91.59,1.83 L91.51,1.42 C91.44,1.06 91.38,0.69 91.35,0.33 C91.34,0.19 91.54,-1.00 91.50,-1.17 C91.49,-1.12 91.43,-1.16 91.40,-1.17 C91.32,-1.27 91.39,-1.47 91.55,-1.46 C91.81,-1.47 91.94,-0.90 92.00,-0.75 C93.25,1.82 93.73,4.98 95.97,6.91 C97.08,6.21 98.46,7.13 99.59,7.41 L99.92,7.51 C105.23,9.18 107.68,9.59 111.94,13.83 C119.22,19.50 121.37,26.75 124.24,35.09 L124.40,35.54 C127.16,42.89 129.38,47.44 134.87,53.46 C136.86,52.53 149.22,42.66 153.46,36.85 L153.59,36.68 C154.81,35.02 157.59,29.20 159.87,29.75 C160.07,24.63 163.48,20.39 165.88,16.08 L169.29,10.36 L169.29,10.36 C169.62,9.80 169.94,9.04 170.40,8.59 C171.20,7.83 172.51,8.53 172.99,9.31 C174.29,11.50 172.65,15.70 172.41,18.27 C178.26,14.88 183.95,11.18 189.99,8.15 C190.50,7.90 191.14,8.09 191.30,8.68 C192.32,12.90 186.75,16.43 184.06,18.95 C188.46,17.19 192.59,14.67 196.84,12.57 L197.13,12.43 C197.71,12.13 198.49,12.77 198.08,13.38 C195.67,17.00 192.55,20.13 188.92,22.50 C192.98,21.81 196.96,20.80 200.90,19.57 C201.54,19.37 202.00,20.22 201.54,20.67 L201.33,20.89 C199.18,23.05 196.80,24.97 194.00,26.23 C195.31,26.17 196.62,26.11 197.93,26.05 C198.58,26.02 198.79,26.82 198.42,27.25 C196.97,28.94 195.01,30.04 192.92,30.76 C184.17,33.11 176.82,32.91 170.92,41.16 C172.40,41.43 172.18,43.08 171.72,44.11 L171.69,44.17 C169.58,48.76 167.09,53.16 164.44,57.46 C158.79,65.86 154.14,75.95 145.19,81.33 C150.97,81.14 156.75,81.02 162.54,80.98 C164.14,80.96 165.74,80.95 167.35,80.95 L168.55,80.95 C170.14,80.95 172.24,80.62 173.61,81.60 C176.24,83.72 174.19,87.62 171.27,88.18 C169.43,88.67 167.45,88.60 165.56,88.74 C165.92,89.44 166.01,90.29 166.06,91.03 C172.68,91.45 176.54,96.64 178.35,102.57 C181.97,113.94 184.75,125.56 187.75,137.10 L188.09,138.44 C190.99,149.81 194.03,161.16 197.67,172.32 C198.90,176.19 200.32,180.00 201.46,183.90 C201.56,184.25 201.48,184.57 201.31,184.82 C201.09,186.34 200.12,188.89 198.48,189.30 C199.16,190.62 199.76,192.04 200.27,193.42 C207.66,191.45 213.86,197.25 220.07,200.24 C223.19,201.87 227.75,201.41 229.51,205.02 C232.34,204.31 235.80,205.89 236.09,209.06 C236.34,212.32 233.56,213.26 230.83,213.46 C225.94,214.12 221.01,214.56 216.07,214.72 C218.86,224.12 214.23,237.81 204.69,241.68 C192.15,246.97 177.57,236.14 177.25,222.97 C166.71,223.97 156.17,225.21 145.61,225.86 C146.05,227.36 144.05,227.99 142.91,227.55 C145.70,240.21 137.46,256.30 123.74,256.25 C106.06,256.13 98.91,231.55 108.17,218.39 L108.08,218.17 C106.61,214.36 103.84,206.53 108.52,204.28 C107.53,202.77 107.78,200.87 107.81,199.17 C103.47,199.36 101.23,202.48 99.62,206.16 C98.14,209.45 96.72,212.77 95.26,216.08 C93.88,219.66 92.52,221.46 88.46,221.70 L88.04,221.73 C83.51,222.06 77.49,222.33 73.41,220.51 C63.71,238.24 43.36,248.76 25.75,236.05 C-10.40,211.11 -9.07,117.67 38.67,106.60 C38.69,104.82 38.71,103.04 38.74,101.26 C38.64,100.12 38.66,98.99 38.77,97.84 L38.79,97.37 C38.92,94.47 38.95,91.53 38.59,88.65 C32.80,88.18 29.29,80.77 28.71,79.65 C24.24,71.08 28.37,55.23 30.23,46.95 C28.43,47.10 26.78,46.88 25.02,46.90 L24.40,46.91 C21.13,46.96 18.93,46.82 18.85,42.74 C18.85,41.08 18.11,38.01 20.29,37.49 C21.28,37.30 22.44,37.65 23.43,37.74 C26.55,37.99 29.66,38.19 32.79,38.17 C35.50,30.40 37.62,22.10 42.78,15.52 C47.17,9.96 54.18,7.77 60.49,5.14 C62.20,4.48 63.65,3.33 65.12,2.23 L65.22,2.15 C65.95,1.59 66.75,1.11 67.70,1.09 C68.63,1.06 69.49,1.48 70.39,1.54 C70.55,1.42 70.76,1.35 70.94,1.40 C71.42,0.07 71.78,-1.32 71.95,-2.72 L71.94,-2.79 C71.91,-2.89 71.90,-2.87 71.91,-2.70 C71.95,-2.70 71.96,-2.64 71.92,-2.63 Z M123.74,211.87 C121.74,211.87 119.83,212.30 118.05,213.07 C117.64,215.36 119.53,218.57 120.16,220.88 C120.19,221.84 120.36,222.81 120.58,223.75 C120.74,226.50 121.91,229.03 122.45,231.63 C122.55,232.13 123.31,231.92 123.21,231.42 C122.73,229.09 122.10,226.79 121.55,224.47 C121.81,224.62 122.24,224.42 122.15,224.04 C121.95,223.22 121.95,222.39 121.98,221.55 C135.47,223.26 134.68,245.66 120.92,245.97 C111.99,246.19 107.02,233.96 112.06,226.64 C111.23,224.86 110.34,223.11 109.49,221.32 C102.26,233.41 109.83,254.01 123.74,253.63 C146.16,253.00 146.17,212.51 123.74,211.87 Z M204.71,214.51 C207.37,219.47 207.08,226.13 203.71,230.70 C199.89,235.90 191.55,235.29 187.81,230.30 C186.33,228.53 185.19,226.35 185.13,224.00 C185.12,223.48 185.46,222.56 185.01,222.15 L182.11,222.46 C180.67,222.62 179.22,222.77 177.78,222.92 C181.97,234.11 192.26,244.24 204.84,238.64 C212.63,234.34 215.51,224.08 214.38,215.71 C214.31,215.31 214.46,214.98 214.69,214.76 C211.36,214.84 208.02,214.86 204.71,214.51 Z M68.13,129.58 C45.90,94.45 16.63,117.19 9.14,149.43 C3.51,171.63 5.51,198.73 17.26,218.38 C31.06,241.78 54.34,241.75 68.13,218.38 C78.56,200.94 81.30,177.61 77.85,157.07 C77.85,157.25 77.78,157.43 77.65,157.58 C81.71,182.25 77.14,212.77 57.57,227.75 C43.13,238.41 26.23,229.70 18.12,215.10 C2.43,188.63 3.64,140.10 29.38,120.20 C36.73,114.97 45.37,113.97 53.33,117.72 C53.41,117.22 53.71,117.77 53.83,117.96 C67.53,125.23 74.30,140.84 77.43,156.38 C77.62,156.48 77.74,156.64 77.81,156.82 C77.38,154.31 76.86,151.84 76.24,149.43 C74.33,141.98 71.60,135.30 68.13,129.58 Z M118.47,232.96 C117.29,232.20 117.85,234.47 118.26,234.89 C118.56,235.31 119.14,234.96 118.94,234.50 C118.69,234.13 119.14,233.00 118.47,232.96 Z M39.71,118.45 C6.47,127.78 4.29,189.13 20.37,213.75 C27.78,227.02 42.82,235.37 56.06,225.62 C58.23,224.08 60.28,222.18 62.20,219.92 C53.68,219.85 45.18,218.71 36.69,218.07 L36.50,218.05 C35.21,217.94 33.89,217.88 32.70,217.33 C29.11,215.57 30.09,211.05 33.36,209.47 C35.14,205.95 43.04,206.74 46.58,206.55 C45.78,196.42 46.19,186.23 46.08,176.08 C43.55,176.63 41.04,177.21 38.52,177.82 C38.22,177.89 37.92,177.85 37.66,177.72 C37.05,178.69 35.85,178.80 34.88,178.31 C32.93,177.32 32.71,174.76 33.08,172.86 L33.11,172.70 C33.44,171.36 34.08,169.37 35.65,169.26 C36.64,168.65 37.71,169.37 38.07,170.34 C39.73,170.07 41.23,170.50 42.85,170.18 C43.92,169.96 45.00,169.41 46.10,169.79 C46.14,162.84 46.16,155.88 46.24,148.93 C44.16,149.63 41.63,148.19 41.02,146.11 C40.62,144.73 40.98,143.15 41.17,141.76 L41.20,141.50 C41.33,140.63 41.48,139.73 41.78,138.88 C37.10,138.24 38.06,128.45 38.41,124.99 C38.85,122.72 39.12,120.75 39.71,118.45 Z M116.91,157.93 C114.84,157.91 113.35,160.15 114.55,161.94 C116.96,164.66 120.45,162.21 124.19,169.55 C130.39,184.23 133.25,200.12 137.11,215.53 C139.05,217.55 140.23,220.11 141.66,222.51 C142.18,223.41 142.34,224.68 143.30,225.25 C143.48,225.33 143.63,225.35 143.78,225.33 C141.80,224.23 142.21,218.81 142.62,216.83 L142.60,216.83 C142.42,216.85 141.76,216.99 142.07,216.68 L142.39,216.58 L142.39,216.58 L142.71,216.47 L142.73,216.39 C137.15,203.45 135.94,189.01 131.94,175.53 L131.59,174.34 C130.21,169.73 128.61,164.92 125.12,161.50 C124.99,161.49 124.85,161.44 124.72,161.33 L124.60,161.22 C122.54,159.44 120.00,158.00 117.18,158.26 C117.07,158.27 117.05,158.10 117.15,158.07 C117.22,158.05 117.29,158.04 117.35,158.02 C117.21,157.99 117.06,157.96 116.91,157.93 Z M107.00,194.50 C106.40,194.73 105.79,194.57 105.12,194.58 C104.42,194.60 103.74,194.72 103.06,194.91 C91.95,198.12 93.59,214.80 85.50,216.74 C83.48,217.13 81.45,216.83 79.42,216.56 C78.12,216.60 76.94,216.56 75.70,216.29 C75.12,217.46 74.51,218.60 73.87,219.71 C75.35,219.48 76.85,219.54 78.34,219.52 C81.84,219.57 85.34,219.43 88.82,218.99 C90.06,218.85 91.20,218.51 91.93,217.43 C93.59,214.64 94.72,211.54 96.21,208.65 L96.40,208.21 C98.53,203.42 101.35,197.68 107.34,197.67 C107.37,197.32 107.64,197.04 107.95,196.96 C107.98,196.46 108.01,195.96 108.05,195.47 C107.71,195.13 107.45,194.71 107.00,194.50 Z M33.07,210.78 C32.42,211.87 32.49,213.78 33.65,214.54 C34.43,214.98 35.56,214.93 36.43,215.00 L37.93,215.11 C38.43,215.14 38.94,215.18 39.44,215.22 L40.19,215.28 C47.35,215.85 54.51,216.47 61.67,217.12 L61.70,217.11 C61.80,217.08 61.95,217.03 61.95,217.03 L62.06,216.98 C62.22,216.90 62.03,216.97 62.01,216.98 L62.01,216.98 C62.81,216.46 63.67,217.05 63.86,217.83 C64.57,216.87 65.27,215.86 65.94,214.80 C64.99,215.08 63.99,215.12 63.02,215.06 C62.35,215.82 61.14,215.54 60.25,215.52 C53.92,215.02 47.60,214.29 41.29,213.58 C39.69,213.39 38.09,213.20 36.49,213.01 L36.12,212.98 C34.71,212.85 33.00,212.58 33.07,210.78 Z M170.86,198.38 C170.20,199.10 168.92,199.30 168.08,199.72 C167.10,200.21 166.16,200.80 165.32,201.50 C161.53,205.02 157.66,210.61 151.71,208.14 C150.46,207.66 149.30,206.89 148.52,205.79 C148.17,205.96 147.77,205.63 147.42,205.59 C147.72,207.23 147.85,208.78 148.31,210.39 C148.51,211.09 148.74,211.78 149.02,212.46 C149.31,213.15 149.82,213.84 149.80,214.62 C154.31,213.66 158.86,213.04 163.43,212.48 C165.15,212.42 168.04,211.50 169.46,212.37 C171.14,213.42 170.39,215.35 171.28,216.07 C172.65,216.74 174.42,216.24 175.90,216.20 C182.36,215.65 188.87,215.28 195.32,214.74 C199.19,214.03 196.65,212.85 198.32,211.90 C198.32,205.95 191.16,206.58 186.97,206.05 C185.70,206.56 184.42,207.02 183.13,207.45 C182.49,207.66 182.05,206.80 182.49,206.35 L183.39,205.44 L183.39,205.44 C182.77,205.30 182.17,205.15 181.56,204.97 C180.71,205.35 179.82,205.64 178.99,206.07 L178.83,206.15 C178.27,206.45 177.60,205.83 177.94,205.25 C178.20,204.80 178.41,204.34 178.57,203.87 C177.78,203.51 177.01,203.10 176.27,202.63 L176.13,202.53 L173.74,203.86 C173.28,204.12 172.58,203.69 172.78,203.13 C173.03,202.35 173.75,202.03 174.30,201.51 C174.23,201.37 174.20,201.20 174.23,201.06 C173.16,200.13 172.22,198.93 170.86,198.38 Z M202.61,216.30 L202.53,216.31 C202.54,216.32 202.54,216.33 202.55,216.34 L202.58,216.33 L202.55,216.34 C202.57,216.37 202.60,216.39 202.64,216.40 C202.63,216.38 202.62,216.36 202.62,216.34 L202.61,216.30 Z M115.66,140.49 L115.85,142.28 C116.36,147.05 116.85,151.80 117.23,156.57 C117.28,156.62 117.32,156.67 117.35,156.73 L118.48,156.94 C120.45,157.29 122.08,157.67 123.86,159.02 C129.81,162.19 131.80,169.19 133.62,175.20 C137.62,188.36 138.99,202.26 144.40,214.99 C144.56,215.36 144.55,215.69 144.44,215.95 C145.37,215.68 146.31,215.43 147.26,215.20 C145.99,212.76 145.44,209.09 145.79,206.36 L145.65,206.35 C145.21,206.34 144.68,206.34 144.33,206.07 C143.63,206.26 143.04,205.60 142.98,204.97 L142.97,204.94 C141.05,183.38 139.65,161.59 134.44,140.51 C133.76,141.20 132.53,141.04 131.62,141.08 L131.57,141.08 C130.75,141.12 129.93,141.15 129.10,141.18 L128.75,141.18 C124.40,141.25 119.92,141.56 115.66,140.49 Z M83.69,157.79 C86.69,176.66 84.03,199.32 76.22,215.23 C78.11,215.19 79.95,214.68 81.83,214.69 C85.19,214.74 86.83,214.06 88.17,210.87 C91.42,203.48 94.66,193.99 103.80,192.59 L104.23,192.55 C105.50,192.43 107.65,192.30 107.65,193.81 C107.82,193.79 108.01,193.81 108.17,193.86 C108.20,193.50 108.23,193.15 108.26,192.80 L108.28,192.10 C108.36,189.90 108.60,186.86 111.34,186.88 C111.38,186.64 111.46,186.40 111.55,186.16 C108.79,184.80 108.89,177.81 108.58,174.99 C108.33,170.98 108.35,166.96 108.44,162.95 C108.45,162.55 108.52,162.02 108.37,161.69 C106.95,160.76 106.63,159.55 106.59,157.88 C98.96,158.07 91.31,157.87 83.69,157.79 Z M116.83,164.95 C117.50,166.45 117.54,168.19 117.73,169.81 C117.89,171.73 118.01,173.66 118.12,175.58 L118.14,176.03 C118.18,176.70 118.24,177.35 118.48,178.00 L118.54,178.15 C118.83,178.92 119.05,179.64 118.97,180.49 C118.78,182.49 118.47,184.51 118.11,186.47 C117.60,188.14 115.70,187.08 114.62,186.69 L114.63,186.80 C114.70,187.52 114.70,188.24 114.30,188.80 C117.28,188.70 117.49,190.84 117.15,193.23 L117.13,193.55 C116.93,196.92 116.86,200.45 117.77,203.70 C119.32,204.37 120.45,205.63 121.52,206.87 C122.16,207.61 122.95,208.39 123.45,209.26 C127.65,209.18 131.66,210.68 135.01,213.49 L134.62,211.81 C132.02,200.80 129.49,189.76 126.01,178.98 C124.26,173.88 122.89,166.43 116.83,164.95 Z M52.25,156.32 C52.26,161.12 52.30,165.91 52.33,170.70 C53.77,170.91 55.16,171.32 56.50,171.92 C57.35,172.30 56.96,173.45 56.26,173.72 C55.00,174.20 53.67,174.47 52.35,174.75 C52.21,185.17 52.91,195.64 51.87,206.03 C54.98,206.49 55.21,209.99 54.62,212.45 C58.06,212.75 61.53,213.62 64.98,213.02 C65.99,212.96 66.64,211.81 67.57,212.03 C75.70,197.78 78.35,175.58 75.06,157.98 C67.44,157.86 59.80,157.39 52.25,156.32 Z M50.17,175.21 C49.45,175.36 48.73,175.51 48.01,175.67 C47.90,185.97 48.34,196.31 47.52,206.58 C47.83,206.57 47.76,206.77 47.50,206.79 C47.49,206.96 47.47,207.14 47.45,207.31 C47.41,207.83 46.69,207.83 46.64,207.31 C46.63,207.21 46.62,207.10 46.62,207.00 C45.24,207.30 43.85,207.51 42.46,207.74 C40.43,208.25 35.53,207.92 35.16,210.57 L36.74,210.71 C42.09,211.18 46.79,211.62 52.10,212.18 C52.36,210.55 53.62,208.14 51.64,207.11 C51.35,207.38 50.80,207.26 50.75,206.74 C49.65,196.27 50.32,185.72 50.17,175.21 Z M207.80,196.42 C201.46,193.89 198.17,196.84 193.09,200.08 C190.47,201.56 186.89,202.21 184.25,200.49 C183.04,200.56 182.47,199.23 182.57,198.16 C182.57,198.09 182.57,198.02 182.57,197.95 C181.10,198.84 182.01,201.30 181.70,202.76 C184.71,203.70 187.84,203.93 190.97,204.16 C195.03,204.25 199.91,206.24 200.39,210.77 L200.40,210.90 L200.71,210.89 C200.71,210.44 201.00,209.96 201.58,209.92 L201.61,209.92 C209.99,209.39 218.45,209.42 226.79,208.57 C227.79,208.28 228.14,207.62 227.88,206.64 C227.23,204.29 223.92,204.17 221.97,203.62 C219.63,202.96 217.52,201.80 215.45,200.56 C214.57,200.81 213.68,201.02 212.78,201.19 C212.35,201.28 211.78,200.89 211.98,200.39 L212.12,200.02 C212.27,199.65 212.45,199.23 212.68,198.88 C212.01,198.48 211.33,198.08 210.64,197.72 C209.47,198.13 208.36,198.67 207.31,199.34 C206.67,199.75 206.02,198.86 206.50,198.33 L206.51,198.32 C207.06,197.75 207.49,197.12 207.80,196.42 Z M165.72,197.20 C160.07,199.95 154.08,202.01 148.30,204.50 L148.42,204.55 C148.62,204.62 148.85,204.73 148.93,204.91 C151.10,206.63 154.16,207.33 156.74,206.11 C160.46,204.12 162.30,199.82 166.11,197.88 C165.95,197.66 165.82,197.43 165.72,197.20 Z M112.03,189.59 C111.84,189.55 111.29,189.31 111.15,189.38 C110.77,190.31 110.76,191.42 110.66,192.41 C110.31,196.30 109.59,200.15 109.20,204.03 C111.16,203.49 113.18,203.17 115.20,203.13 C115.03,201.92 114.90,200.73 114.83,199.52 C114.70,197.16 114.80,194.79 115.15,192.46 L115.17,192.33 C115.55,190.30 115.25,190.21 113.34,189.50 C112.93,189.64 112.47,189.66 112.03,189.59 Z M155.14,97.82 C151.87,94.70 147.00,95.08 142.80,95.06 C133.85,95.06 124.93,95.88 116.10,97.32 C115.85,97.76 115.15,97.86 114.81,97.53 C112.38,97.94 109.96,98.38 107.54,98.86 C108.21,103.08 108.75,107.32 109.34,111.56 L109.38,111.82 C109.64,113.66 109.77,115.71 108.52,117.23 C108.49,121.92 108.31,126.63 108.29,131.32 C108.98,130.67 110.09,130.74 110.97,130.58 C112.79,130.16 114.52,129.86 116.36,129.76 C118.21,129.48 120.06,129.20 121.91,128.91 C122.20,128.87 122.43,128.99 122.57,129.18 C124.94,128.90 127.30,128.42 129.68,128.27 L129.54,127.85 C128.84,125.72 128.19,123.42 129.20,121.30 C129.44,120.81 130.23,120.84 130.48,121.30 C131.35,122.94 131.39,124.80 131.72,126.59 C131.91,127.61 132.31,128.70 132.50,129.78 C133.48,131.41 133.97,133.31 134.61,135.09 C141.60,157.14 142.44,180.49 145.08,203.31 C149.16,201.62 153.30,200.03 157.40,198.38 C160.34,196.94 167.02,195.81 166.69,191.66 C166.71,191.32 166.69,190.98 166.65,190.64 C166.73,190.51 166.84,190.40 166.97,190.31 C165.62,185.00 165.05,179.51 164.70,174.05 C163.80,159.03 163.36,143.99 162.90,128.96 L162.88,128.32 C162.53,117.89 162.42,106.03 155.14,97.82 Z M166.13,158.07 C166.66,168.08 166.43,178.24 168.82,188.05 L168.90,188.35 C169.13,189.29 169.74,190.61 169.35,191.60 C169.34,192.80 169.76,194.68 168.73,195.53 C168.29,195.85 167.72,196.05 167.18,196.25 C167.44,196.55 167.80,196.76 168.16,196.88 L168.22,196.86 C169.21,196.39 170.96,196.08 171.20,197.46 C173.08,197.61 174.90,199.40 176.41,200.36 C177.18,200.85 177.99,201.28 178.81,201.66 C179.07,199.67 180.24,197.15 182.57,197.22 C182.57,196.01 182.37,194.82 182.19,193.64 C181.10,193.81 180.02,193.88 178.92,193.84 C178.19,194.36 177.47,193.78 177.38,193.00 C174.01,181.31 170.25,169.57 166.13,158.07 Z M196.63,188.50 C192.15,189.91 187.24,189.94 182.94,191.87 C184.23,193.72 184.72,195.96 185.04,198.16 C185.33,198.39 185.53,198.75 185.55,199.14 C185.56,199.28 185.54,199.42 185.50,199.55 C190.29,200.55 193.80,196.50 197.65,194.45 C197.12,192.54 196.87,190.49 196.63,188.50 Z M185.05,198.33 L185.05,198.36 L185.05,198.36 C185.05,198.58 185.22,198.51 185.05,198.33 Z M181.95,192.29 C181.88,192.32 181.81,192.36 181.73,192.39 C181.81,192.38 181.89,192.37 181.96,192.36 C181.96,192.33 181.96,192.31 181.95,192.29 Z M170.82,95.24 C165.60,91.71 155.19,93.36 149.00,93.77 C161.22,94.70 163.25,111.48 164.22,121.14 C165.00,131.51 165.29,141.92 165.86,152.31 C170.73,165.30 174.68,178.63 178.84,191.86 C182.23,189.97 185.92,188.76 189.75,188.14 L190.31,188.06 C193.51,187.59 196.77,187.00 199.41,185.00 C189.96,161.93 186.00,137.01 178.81,113.20 C176.69,107.24 176.00,99.42 170.82,95.24 Z M198.77,187.55 C198.59,187.66 198.40,187.76 198.22,187.85 C198.31,187.83 198.42,187.83 198.53,187.84 C198.61,187.75 198.70,187.64 198.77,187.55 Z M112.89,137.71 C112.03,136.27 110.12,134.96 108.42,135.59 C110.97,137.14 110.42,141.64 110.61,144.27 L110.60,144.42 C110.54,146.90 110.75,152.13 109.39,153.90 C109.48,155.05 109.48,156.23 109.60,157.38 C109.64,157.80 109.55,158.58 109.80,158.95 C112.53,160.48 111.21,164.15 111.37,166.70 C111.25,171.58 111.59,176.45 111.73,181.32 C111.72,182.58 111.60,183.92 112.02,185.13 C112.56,183.98 114.09,184.06 114.42,185.22 C114.69,184.87 115.23,184.84 115.69,184.90 C115.85,183.36 116.10,181.81 116.15,180.27 C116.18,179.50 115.73,178.86 115.56,178.13 C115.23,175.34 115.61,172.48 115.64,169.68 L115.65,169.59 C115.76,168.43 115.84,165.56 116.50,164.85 C112.25,164.09 110.91,158.75 115.05,156.78 C114.99,156.52 115.05,156.24 115.23,156.05 C114.88,151.82 114.42,147.60 114.02,143.38 C113.85,141.47 113.85,139.42 112.89,137.71 Z M35.89,173.72 C36.21,173.28 35.52,172.81 35.24,173.28 C34.95,173.77 34.78,174.37 34.90,174.94 C34.96,175.25 35.48,175.34 35.61,175.03 C35.73,174.78 35.78,174.51 35.84,174.24 C35.99,174.11 36.00,173.88 35.89,173.72 Z M38.31,171.17 C38.32,171.24 38.33,171.32 38.34,171.39 C38.46,171.35 38.58,171.31 38.71,171.28 C38.58,171.25 38.44,171.21 38.31,171.17 Z M48.60,140.06 C48.28,140.26 47.90,140.39 47.50,140.45 C48.23,150.43 47.82,160.49 47.99,170.49 C48.71,170.66 49.46,170.52 50.19,170.58 C50.37,161.84 50.04,153.12 50.60,144.39 C50.11,143.14 49.79,141.62 50.16,140.29 C49.63,140.24 49.11,140.17 48.60,140.06 Z M103.73,153.91 C97.27,154.16 90.76,154.05 84.28,153.97 C83.87,153.96 83.45,153.95 83.03,153.95 C83.19,154.82 83.35,155.70 83.49,156.59 C91.16,156.50 98.84,156.32 106.49,156.48 L106.46,156.13 C106.43,155.77 106.40,155.40 106.39,155.03 C105.44,154.96 104.51,154.55 103.73,153.91 Z M69.29,139.31 C68.82,139.92 67.79,139.53 67.11,139.58 C66.94,139.86 66.64,140.07 66.21,140.09 C62.97,140.26 59.71,140.30 56.46,140.34 C55.51,141.44 53.82,140.81 52.60,141.26 C52.45,142.02 52.44,142.80 52.27,143.57 C52.20,143.88 52.09,144.17 51.97,144.46 C52.23,147.35 52.25,150.28 52.25,153.18 C53.86,152.71 55.60,152.79 57.26,152.68 C60.86,152.59 64.46,152.63 68.07,152.62 C69.66,152.59 71.46,152.69 73.01,152.67 C73.41,152.52 73.97,152.75 74.05,153.21 C74.35,154.38 73.02,154.47 72.23,154.41 C71.28,154.39 70.32,154.36 69.37,154.35 C65.46,154.25 61.55,154.18 57.65,154.00 C55.86,153.85 53.98,153.90 52.25,153.36 L52.25,155.55 C52.25,155.76 52.25,155.96 52.25,156.13 C59.74,156.10 67.23,156.22 74.72,156.15 C73.57,150.32 71.69,144.38 69.29,139.31 Z M165.98,154.94 C165.95,155.32 166.09,155.64 166.27,155.97 C166.17,155.63 166.08,155.28 165.98,154.94 Z M79.18,139.81 C80.61,143.77 81.79,147.94 82.69,152.28 C89.14,152.14 95.57,152.21 102.02,152.22 C99.65,149.43 97.13,150.20 95.94,148.42 C95.09,147.05 95.80,142.55 96.03,140.84 C91.01,140.62 85.97,140.60 80.97,140.03 C80.40,139.95 79.79,139.90 79.18,139.81 Z M43.69,138.31 C43.57,138.40 43.44,138.49 43.31,138.57 C43.65,139.47 43.30,140.39 43.60,141.31 C43.62,142.40 43.56,143.49 43.62,144.53 C43.61,145.51 44.22,146.13 45.11,146.19 C45.43,146.21 45.85,146.14 46.29,146.27 C46.37,144.34 46.30,142.38 46.61,140.47 C46.41,140.45 46.21,140.42 46.02,140.37 C45.99,139.46 45.11,138.59 44.20,139.05 C44.01,138.81 43.85,138.56 43.69,138.31 Z M102.38,137.62 C102.10,137.65 101.83,137.71 101.58,137.82 C101.64,140.28 105.19,138.55 105.68,141.57 C105.76,142.28 105.67,143.00 105.65,143.71 C105.64,144.07 105.35,144.65 105.75,144.86 C105.95,145.16 106.51,145.10 106.46,144.67 C106.46,144.59 106.45,144.51 106.44,144.43 C106.62,144.12 106.73,143.80 106.78,143.46 C106.99,143.35 106.93,143.07 106.84,142.88 C106.78,142.45 106.96,141.70 106.49,141.47 C106.44,138.63 105.39,138.18 102.75,137.95 C102.57,137.93 102.46,138.02 102.41,138.14 C102.34,137.99 102.34,137.80 102.38,137.62 Z M100.04,100.25 C98.15,100.85 96.04,100.98 94.08,101.35 C81.41,103.13 69.25,108.35 56.33,108.21 C55.89,108.18 55.48,108.12 55.09,108.01 C55.09,108.21 55.12,108.42 55.16,108.62 C55.40,108.83 55.55,109.15 55.60,109.48 C65.29,114.39 72.61,124.37 77.20,134.88 C82.89,134.10 88.57,133.23 94.27,132.52 L95.30,132.38 L95.30,132.38 L97.37,132.12 C98.38,131.99 99.50,131.67 100.50,131.88 C100.96,127.32 100.96,122.86 101.30,118.27 C100.30,117.46 100.53,115.74 100.49,114.56 C100.26,109.79 100.24,105.02 100.04,100.25 Z M106.57,118.52 C106.23,118.61 105.87,118.65 105.54,118.60 C104.66,119.03 103.35,118.81 102.37,118.71 C102.48,119.77 102.58,120.83 102.62,121.89 C102.79,126.05 102.72,130.29 102.35,134.44 C103.69,134.54 105.03,134.70 106.37,134.81 C106.39,129.39 106.64,123.95 106.57,118.52 Z M55.41,121.90 C56.48,126.35 61.32,133.15 66.19,133.56 C63.23,128.77 59.82,125.00 56.06,122.34 C55.84,122.19 55.63,122.04 55.41,121.90 Z M98.86,88.32 C98.71,88.33 98.56,88.33 98.40,88.32 C99.33,89.68 99.17,91.78 98.04,92.97 C101.97,95.41 101.85,100.85 101.98,104.93 C102.13,108.88 102.34,112.82 102.51,116.77 C102.51,116.70 102.74,116.80 102.83,116.81 C103.36,116.88 103.90,116.90 104.43,116.88 C105.25,116.56 106.31,116.55 106.87,115.77 C107.54,114.88 107.38,113.55 107.27,112.53 C106.99,110.04 106.62,107.56 106.31,105.08 C105.44,99.78 105.55,89.46 98.86,88.32 Z M97.40,93.54 C94.25,95.52 90.10,94.75 86.53,94.97 C83.93,95.01 81.32,95.02 78.72,95.01 C69.95,94.96 61.18,94.61 52.41,94.25 L52.43,94.61 C52.59,97.53 52.89,100.44 53.74,103.24 C54.22,105.15 54.94,105.86 56.96,105.69 C67.74,105.54 77.97,101.69 88.47,99.76 C92.23,99.14 96.05,98.60 99.82,98.16 L99.78,97.93 C99.48,96.25 98.99,94.36 97.40,93.54 Z M99.69,9.00 C99.84,9.28 99.93,9.54 99.86,9.80 C112.49,36.82 109.16,67.55 115.82,96.05 C115.95,96.13 116.03,96.25 116.10,96.38 C118.25,95.95 120.42,95.57 122.60,95.25 C122.35,94.61 122.74,94.03 123.18,93.61 C123.18,93.54 123.27,93.34 123.28,93.34 C122.45,83.23 121.26,73.13 120.23,63.03 C119.59,55.99 118.41,48.89 118.73,41.82 C118.74,41.74 118.85,41.76 118.87,41.82 C120.57,47.93 121.56,57.21 123.26,69.55 C135.52,83.93 142.75,86.44 154.54,69.78 L155.15,68.89 C160.66,60.77 166.04,52.50 170.22,43.61 C164.99,43.44 162.16,37.95 159.93,33.91 C159.55,33.71 159.30,33.40 159.09,32.98 C157.32,35.19 155.91,37.92 154.12,40.16 C149.67,46.01 139.43,53.27 139.21,53.50 L139.17,53.54 C138.49,54.15 136.47,56.48 135.84,56.42 C133.11,58.94 127.05,47.17 126.32,44.95 C124.54,40.63 123.10,39.30 121.56,34.89 L121.29,34.09 C119.17,27.73 117.03,21.01 111.71,16.56 L111.50,16.34 C108.09,12.74 104.78,9.93 99.69,9.00 Z M164.77,88.79 C163.26,88.88 161.74,88.97 160.23,89.06 L158.83,89.15 C147.79,89.81 136.73,90.62 125.67,90.14 C125.78,91.70 126.32,93.31 125.72,94.82 C133.35,93.93 141.03,93.38 148.70,93.75 C153.25,91.60 158.78,90.92 163.90,90.89 C163.99,90.18 164.28,89.37 164.77,88.79 Z M87.14,76.58 C79.72,73.26 72.45,76.64 69.84,84.66 C70.02,84.81 70.15,85.07 70.18,85.34 C70.87,86.26 72.13,86.23 73.16,86.36 C75.24,86.63 77.26,87.30 79.09,88.32 C80.11,88.87 80.98,89.67 82.03,90.16 L82.59,90.69 C83.53,91.57 84.49,92.41 85.74,92.88 C87.03,92.94 85.36,90.43 85.09,89.94 L84.99,89.78 C84.45,88.92 83.75,87.93 84.49,86.95 C85.85,87.60 86.94,88.54 88.03,89.59 L88.23,89.78 C89.29,90.82 90.51,92.12 92.03,92.29 C92.29,92.32 92.48,92.01 92.41,91.79 C91.73,89.52 89.73,87.94 87.87,86.58 C87.88,85.93 88.33,85.44 88.92,85.30 C91.53,86.80 93.36,89.18 95.91,90.73 C96.19,90.89 96.48,90.67 96.50,90.39 C96.49,88.38 94.44,86.84 93.03,85.65 C92.74,85.43 92.44,85.21 92.13,85.00 C92.20,84.59 92.57,84.24 93.03,84.18 C93.87,84.42 98.89,88.32 98.90,86.51 L98.89,86.46 C98.76,85.83 98.03,84.45 97.33,84.62 C94.73,81.41 90.99,78.07 87.14,76.58 Z M67.62,2.88 C64.99,4.38 62.47,6.01 59.85,7.51 C56.50,9.42 52.90,10.91 49.68,13.06 C39.88,20.28 37.04,35.51 33.47,46.61 L32.97,48.76 C30.93,57.51 27.86,71.43 31.56,78.56 L31.58,78.61 C32.05,79.59 34.24,83.57 35.38,84.27 C38.69,86.34 45.63,87.05 51.66,86.64 C57.40,86.37 63.06,85.28 68.66,84.12 C68.79,82.19 69.73,80.58 70.73,79.01 L70.83,78.85 L70.94,78.67 C72.35,76.61 73.93,74.94 76.26,74.03 C68.50,71.71 55.73,74.69 47.08,68.62 C46.39,68.13 46.99,67.10 47.74,67.49 C48.19,67.72 48.65,67.93 49.12,68.12 C48.71,66.65 49.77,65.77 50.41,64.50 L50.43,64.45 C55.89,53.43 60.19,41.05 64.00,29.82 C62.89,37.68 61.10,45.45 58.56,52.96 C60.89,54.75 62.83,57.00 64.92,59.04 C67.17,61.42 69.89,63.44 71.60,66.27 C71.98,66.93 71.24,67.59 70.60,67.27 C69.10,66.50 67.85,65.29 66.70,64.08 L66.23,63.57 C63.36,60.45 60.54,57.23 58.35,53.58 C56.89,57.80 55.09,61.31 53.17,65.29 L52.92,65.80 C52.50,66.68 52.10,67.66 51.40,68.31 C51.86,69.24 53.05,69.46 53.96,69.73 C61.40,71.82 69.30,70.07 76.76,71.97 L77.25,72.10 C77.75,72.23 78.24,72.38 78.54,72.83 C85.05,73.07 91.39,75.74 96.46,79.85 L96.59,79.95 C98.73,81.66 100.92,83.92 101.31,86.76 C101.38,87.29 101.18,88.04 100.54,88.17 C101.78,88.32 102.90,88.95 103.81,89.83 C95.08,59.54 69.49,35.41 67.62,2.88 Z M95.27,89.00 C95.39,89.19 95.50,89.38 95.58,89.58 C95.54,89.55 95.50,89.52 95.46,89.49 C95.47,89.40 95.40,89.29 95.33,89.21 L95.33,89.20 C95.30,89.16 95.26,89.12 95.23,89.08 C95.25,89.06 95.26,89.03 95.27,89.00 Z M123.79,74.04 C124.12,76.92 124.46,79.80 124.80,82.68 C127.19,82.36 129.59,82.17 132.00,82.00 L131.86,81.91 L131.86,81.91 C130.65,81.15 129.53,80.26 128.47,79.29 C127.32,78.22 126.22,77.07 125.20,75.87 C124.70,75.28 124.23,74.67 123.79,74.04 Z M66.87,43.19 C67.24,46.49 69.30,49.28 71.21,51.88 C71.71,52.56 70.57,53.21 70.08,52.54 L69.88,52.27 C67.87,49.53 65.95,46.65 65.56,43.19 C65.47,42.35 66.78,42.36 66.87,43.19 Z M189.82,10.40 C183.89,14.11 177.69,17.37 171.63,20.86 C170.89,21.28 170.14,20.59 170.28,19.83 C170.59,18.12 170.90,16.42 171.20,14.71 L171.43,13.39 C171.52,12.91 171.88,11.19 171.54,10.54 C170.03,13.09 168.48,15.60 166.92,18.11 L165.22,20.84 C163.40,23.77 161.36,26.74 160.63,30.15 C161.07,30.57 161.30,31.18 161.36,31.78 C161.86,31.99 162.21,32.55 162.07,33.15 C164.25,35.76 165.74,39.51 169.24,40.61 C173.19,34.91 179.70,31.57 186.50,30.74 L187.71,30.53 C190.66,30.01 193.74,29.38 196.09,27.54 C193.75,27.65 191.42,27.76 189.09,27.86 C188.31,27.90 188.14,26.67 188.90,26.50 C192.29,25.77 195.74,24.22 198.45,21.93 C193.92,23.52 189.18,24.47 184.40,24.84 C183.41,24.85 183.24,23.43 184.17,23.15 C188.38,21.42 192.16,18.66 195.06,15.15 L195.15,15.04 L189.08,18.24 C186.55,19.58 183.84,21.23 180.88,21.22 C180.02,21.22 179.83,20.15 180.47,19.70 L181.30,19.08 C184.10,16.99 189.41,12.92 189.82,10.40 Z" id="🖍-Ink" fill="#000000"></path></g><g id="Head" stroke-width="1" transform="translate(44.20, 23.04)"><g id="head/Afro"><path d="M25.03,10.58 C44.45,9.63 53.21,23.29 53.78,29.39 C54.17,33.62 51.67,38.51 51.67,42.29 C51.67,44.22 54.04,48.37 52.93,51.18 C50.48,57.45 45.29,64.41 38.67,64.41 C32.05,64.41 23.44,66.24 16.12,55.77 C15.44,54.79 6.76,49.21 5.92,43.91 C3.82,30.71 11.18,11.26 25.03,10.58 Z" id="🎨-Background" fill="#FFFFFF"></path><path d="M24.12,2.08 C24.81,1.29 25.98,0.97 27.03,1.03 C28.54,1.12 29.85,2.05 31.36,2.12 C32.94,2.20 34.46,1.65 36.04,1.90 C37.01,2.06 37.97,2.51 38.59,3.27 C40.75,2.65 43.08,3.47 44.45,5.25 C46.15,4.98 47.99,6.10 48.50,7.73 C50.65,7.80 52.68,9.52 52.92,11.68 C53.78,11.91 54.52,12.50 54.98,13.28 C55.51,14.19 55.60,15.23 55.50,16.25 C56.52,16.77 57.03,17.88 57.16,19.05 C58.09,19.74 58.49,20.98 58.30,22.14 C59.01,22.54 59.37,23.47 59.37,24.30 C59.36,25.07 59.16,25.75 59.45,26.50 C59.70,27.16 59.80,27.71 59.66,28.41 L59.64,28.47 C59.62,28.59 59.60,28.70 59.58,28.80 C59.77,28.97 59.93,29.18 60.05,29.43 C60.49,30.32 60.43,31.34 60.09,32.24 C60.24,32.82 60.22,33.43 60.00,33.99 C60.41,34.58 60.63,35.30 60.56,36.05 C60.49,36.89 60.11,37.64 59.53,38.20 C59.68,39.34 59.21,40.58 58.37,41.39 C58.49,42.08 58.39,42.80 58.01,43.45 C57.74,43.91 57.38,44.26 56.96,44.50 C56.98,44.88 56.93,45.27 56.80,45.67 C56.62,46.21 56.32,46.71 55.93,47.12 C56.16,48.62 55.26,50.29 53.67,50.71 C53.54,50.75 53.41,50.77 53.29,50.77 C53.13,52.22 52.79,53.64 52.26,55.00 C50.90,58.45 48.44,61.47 45.22,63.35 C43.63,64.28 41.85,64.92 40.02,65.19 C38.71,65.38 37.45,65.33 36.13,65.20 C34.48,65.04 32.82,64.79 31.21,64.36 L30.95,64.29 C30.29,64.12 29.59,63.91 29.01,63.55 C28.36,63.15 28.03,62.53 27.88,61.80 C27.80,61.39 28.05,60.96 28.50,60.95 L28.53,60.95 C28.62,60.95 28.72,60.95 28.82,60.94 L28.89,60.94 L28.90,60.94 C28.90,60.94 28.90,60.94 28.91,60.94 C28.95,60.93 28.99,60.92 29.04,60.91 C29.53,60.83 29.95,60.91 30.41,61.06 L30.47,61.08 C31.25,61.35 32.01,61.59 32.81,61.78 C33.64,61.97 34.47,62.12 35.31,62.23 L35.40,62.24 L35.42,62.25 L35.44,62.25 L35.44,62.25 C35.44,62.25 35.44,62.25 35.44,62.25 L35.69,62.28 L35.69,62.28 C35.89,62.30 36.08,62.32 36.27,62.34 C36.63,62.38 36.99,62.41 37.35,62.43 C43.54,62.78 48.74,57.91 50.31,52.07 C50.88,49.95 50.92,47.85 50.75,45.74 C50.70,45.58 50.66,45.41 50.67,45.23 C50.67,45.13 50.67,45.03 50.68,44.94 C50.47,42.90 50.11,40.85 49.88,38.81 C49.61,36.41 49.47,34.01 49.52,31.60 C49.55,30.41 49.67,29.23 49.84,28.05 L49.90,27.63 L49.90,27.63 C49.15,27.48 48.45,27.13 47.89,26.61 C46.68,27.31 45.12,27.37 43.92,26.63 C42.59,27.47 40.72,27.55 39.37,26.73 C38.56,27.31 37.53,27.56 36.52,27.34 C36.07,27.24 35.62,27.03 35.24,26.73 C34.96,26.78 34.68,26.80 34.40,26.78 L34.35,26.81 L34.35,26.81 C33.71,27.15 33.00,27.37 32.27,27.35 C31.73,27.33 31.17,27.22 30.66,27.02 C30.11,27.35 29.51,27.58 28.87,27.66 C27.93,27.78 26.91,27.57 26.13,27.04 C24.70,27.85 22.94,27.98 21.40,27.43 C21.09,27.97 20.65,28.43 20.14,28.78 C20.23,29.11 20.26,29.46 20.23,29.80 C20.17,30.35 20.04,30.85 19.81,31.29 C20.05,31.79 20.12,32.40 19.99,33.01 C19.79,33.89 19.29,34.65 18.63,35.24 C18.57,36.64 17.80,37.95 16.55,38.67 C16.49,38.71 16.43,38.74 16.37,38.77 C16.31,38.84 16.25,38.91 16.17,38.96 C15.38,39.70 14.12,39.64 13.13,39.22 C13.11,39.23 13.09,39.23 13.07,39.23 C12.72,39.24 12.47,39.10 12.33,38.90 C12.18,38.90 12.04,38.92 11.90,38.94 C11.37,39.04 10.79,39.23 10.31,39.48 C9.07,40.12 8.50,41.24 8.33,42.60 C8.14,44.07 8.56,45.58 9.71,46.58 C10.26,47.07 10.98,47.37 11.70,47.50 C12.50,47.64 13.35,47.29 13.94,47.98 C14.06,48.11 14.14,48.30 14.07,48.48 C13.87,49.05 13.54,49.27 13.03,49.35 C13.77,50.23 14.54,51.09 15.38,51.88 C16.30,52.74 17.24,53.57 18.07,54.52 C18.94,55.52 19.73,56.58 20.27,57.80 C20.59,58.50 20.84,59.22 21.11,59.93 L21.16,60.06 C21.46,60.82 21.86,61.55 21.40,62.34 C21.21,62.66 20.79,62.96 20.41,62.91 C19.33,62.77 18.96,62.04 18.63,61.09 C18.38,60.37 18.19,59.63 17.92,58.92 C17.87,58.78 17.81,58.65 17.75,58.52 C17.13,58.70 16.44,58.56 15.89,58.20 C15.29,58.47 14.63,58.60 14.00,58.59 C13.14,58.57 12.36,58.34 11.69,57.91 C11.64,57.89 11.59,57.88 11.53,57.87 C10.52,58.26 9.32,58.19 8.40,57.55 C7.80,57.14 7.39,56.60 7.16,55.99 C6.39,55.98 5.63,55.70 5.07,55.16 C4.56,54.65 4.27,54.00 4.18,53.33 C3.52,53.20 2.89,52.88 2.40,52.34 C2.00,51.89 1.75,51.31 1.66,50.72 C0.86,50.48 0.13,49.96 -0.27,49.22 C-0.64,48.54 -0.70,47.79 -0.52,47.12 L-0.56,47.05 L-0.56,47.05 C-1.40,46.61 -2.03,45.90 -2.10,44.88 C-2.12,44.59 -2.08,44.30 -2.01,44.02 C-2.03,43.72 -2.02,43.41 -1.94,43.11 C-3.06,42.02 -3.46,40.27 -2.85,38.83 C-3.95,37.65 -4.24,35.79 -3.44,34.39 C-3.99,33.73 -4.27,32.88 -4.22,31.97 C-4.16,30.84 -3.64,29.85 -3.02,28.94 C-3.48,28.43 -3.73,27.72 -3.71,27.03 C-3.69,26.03 -3.16,25.18 -2.50,24.47 C-3.07,22.72 -2.43,20.82 -1.01,19.71 C-1.30,19.24 -1.40,18.65 -1.31,18.06 C-1.15,17.02 -0.37,16.32 0.47,15.76 C0.30,15.19 0.34,14.58 0.62,13.98 C0.99,13.20 1.70,12.70 2.43,12.28 C2.62,10.53 4.57,9.04 6.21,9.94 C5.80,8.64 6.97,7.24 8.32,7.09 C8.98,5.10 11.25,3.84 13.29,4.33 C14.34,2.91 16.28,2.36 17.93,2.97 C19.74,1.58 21.99,1.38 24.12,2.08 Z M11.19,41.24 C12.47,41.17 13.42,42.21 14.10,43.16 C14.73,44.05 13.11,44.99 12.64,44.01 C12.47,43.66 12.28,43.29 12.02,42.98 C11.98,43.04 11.94,43.10 11.90,43.17 L11.86,43.23 C11.83,43.28 11.80,43.33 11.78,43.38 C11.78,43.39 11.74,43.51 11.74,43.51 C11.64,43.83 11.41,44.03 11.10,44.14 C10.69,44.29 10.31,43.98 10.18,43.63 C9.97,43.06 10.45,42.56 10.95,42.34 C10.46,42.26 9.98,42.42 9.63,42.80 C9.58,42.85 9.50,42.81 9.49,42.75 C9.45,41.85 10.39,41.28 11.19,41.24 Z" id="🖍-Ink" fill="#000000"></path></g><g id="face/Smiling" transform="translate(20.37, 23.81)" fill="#000000"><path d="M18.78,30.84 C17.92,30.49 17.15,29.90 16.59,29.15 C16.39,28.89 16.34,28.62 16.38,28.37 C16.43,28.09 16.60,27.83 16.82,27.66 C17.05,27.49 17.34,27.40 17.62,27.44 C17.86,27.48 18.10,27.61 18.28,27.89 L18.32,27.94 C18.66,28.39 19.09,28.76 19.59,29.00 C20.07,29.23 20.60,29.34 21.16,29.28 C22.21,29.16 22.94,28.59 23.71,27.82 C23.80,27.72 23.90,27.62 23.99,27.51 C24.06,27.42 24.14,27.36 24.23,27.33 C24.34,27.30 24.45,27.30 24.56,27.34 C24.67,27.37 24.76,27.44 24.82,27.53 C24.88,27.62 24.91,27.73 24.90,27.85 C24.83,28.65 24.41,29.37 23.82,29.93 C23.16,30.55 22.28,30.98 21.45,31.13 C20.55,31.30 19.62,31.18 18.78,30.84 L18.78,30.84 Z M21.88,18.48 C22.85,19.07 24.32,20.44 23.28,21.89 C22.06,23.18 20.30,21.70 19.43,21.04 C18.62,20.52 17.71,21.85 18.46,22.45 C24.74,27.10 27.29,18.63 22.37,17.79 C21.83,17.70 21.63,18.30 21.88,18.48 Z M10.63,13.07 C10.74,11.75 12.76,11.45 12.96,12.76 C13.14,13.93 12.93,15.01 12.40,16.07 C11.89,17.08 10.62,16.61 10.52,15.69 C10.39,14.46 10.56,13.90 10.63,13.07 Z M26.01,12.49 C26.29,12.12 26.70,11.87 27.19,12.01 C28.71,12.45 28.26,14.61 27.73,15.67 C27.43,16.24 26.50,16.38 26.07,15.88 C25.38,15.06 25.05,13.42 25.93,12.61 C25.95,12.57 25.98,12.53 26.01,12.49 Z M12.37,7.27 L12.61,7.23 C13.36,7.10 14.28,6.98 14.81,7.58 C15.09,7.89 15.19,8.48 14.81,8.79 C14.15,9.32 13.42,9.11 12.63,9.16 C11.98,9.20 11.35,9.30 10.72,9.48 C9.35,9.88 8.22,10.60 7.05,11.38 C6.89,11.49 6.73,11.29 6.81,11.15 C7.49,9.82 8.80,8.72 10.12,8.06 C10.83,7.70 11.60,7.41 12.37,7.27 Z M24.62,6.68 L24.81,6.72 C26.81,7.13 29.41,7.97 30.36,9.94 C30.40,10.21 30.36,10.27 30.33,10.31 L30.32,10.33 C30.29,10.36 30.27,10.41 30.15,10.44 C30.12,10.44 30.08,10.43 30.05,10.42 C29.61,10.30 29.27,10.15 28.94,9.98 L28.58,9.81 C28.16,9.60 27.73,9.40 27.29,9.26 C26.33,8.95 25.35,8.73 24.35,8.61 C24.13,8.58 23.92,8.51 23.76,8.39 C23.60,8.27 23.48,8.10 23.43,7.88 C23.36,7.60 23.38,7.39 23.53,7.13 C23.65,6.94 23.81,6.81 24.00,6.73 C24.19,6.65 24.41,6.64 24.62,6.68 Z" id="🖍-Ink"></path></g></g></g></g></g></svg>