<?xml version="1.0" encoding="UTF-8"?><svg width="107px" height="361px" viewBox="0 0 107 361" version="1.1" xmlns="http://www.w3.org/2000/svg" xmlns:xlink="http://www.w3.org/1999/xlink"><title>mix-4</title><desc>Created with Sketch.</desc><g id="Mix-N-Match" stroke="none" stroke-width="1" fill="none" fill-rule="evenodd"><g id="Artboard" transform="translate(-507.00, -155.00)"><g id="a-person/standing" transform="translate(483.00, 126.00)"><g id="pose/standing/polka_dots" transform="translate(-15.45, 80.91)"><path d="M142.19,97.68 C140.86,85.64 138.85,73.28 133.77,62.13 C132.02,47.70 134.96,27.03 121.60,17.30 C121.77,15.58 118.68,14.09 117.24,13.17 C114.91,11.64 111.76,8.64 109.00,10.32 C108.13,10.05 105.98,11.14 104.99,8.78 C103.98,6.37 104.13,1.52 103.32,1.08 C103.68,-2.41 87.99,-4.75 83.89,0.19 C81.95,3.97 84.18,5.18 79.79,10.15 C77.86,10.27 76.01,10.76 74.23,11.44 C72.75,11.64 71.28,11.89 69.82,12.15 C51.20,13.87 49.79,27.65 48.14,42.45 C46.73,62.33 40.59,82.14 43.24,102.18 C41.78,109.34 41.68,116.99 43.43,124.09 C37.69,132.48 41.85,137.12 45.43,145.09 C46.04,146.53 46.57,148.01 46.84,149.54 C46.77,150.72 46.77,151.91 46.98,153.09 C47.59,155.77 52.06,155.39 52.26,152.68 C52.61,150.90 52.50,149.06 52.77,147.27 C52.76,147.36 52.73,147.54 52.73,147.55 C53.39,143.05 54.44,141.31 57.36,137.87 C61.11,132.45 58.81,125.64 59.66,119.58 C59.90,117.55 60.21,115.55 60.41,113.52 C61.68,114.26 63.05,114.88 64.49,115.27 C63.58,122.25 65.16,129.26 66.90,136.02 C71.64,153.41 77.92,171.27 75.19,189.52 C75.19,189.51 72.22,204.44 69.87,211.81 C67.03,221.15 64.74,230.51 60.72,239.47 C58.57,245.92 54.02,252.04 54.20,258.98 C52.62,261.31 55.45,264.10 57.95,264.09 C57.95,266.19 57.39,269.22 56.29,273.17 C56.02,275.37 54.90,278.17 56.60,280.04 C54.29,285.92 53.48,292.29 52.84,298.52 C52.60,301.48 52.32,305.04 55.49,306.72 C58.43,307.99 61.87,307.43 65.01,307.81 C68.06,307.81 71.21,308.61 74.21,307.92 C77.65,306.94 78.34,303.22 77.69,300.24 C77.27,297.14 76.77,294.04 76.22,290.96 C74.60,284.25 74.14,276.80 72.06,270.34 C73.23,270.12 74.40,269.53 75.19,268.67 C77.20,268.61 78.68,267.11 79.18,265.34 C79.53,264.20 81.06,263.97 82.09,263.60 C82.29,264.59 82.85,265.42 83.31,266.31 C82.92,268.21 84.22,270.44 86.38,270.48 C86.69,270.78 86.98,271.09 87.30,271.37 C84.85,274.99 83.03,279.07 82.57,283.37 C82.01,286.67 81.43,291.96 85.80,292.93 C87.45,293.15 89.22,293.57 90.84,292.97 C92.64,293.78 94.56,294.17 96.50,294.51 C104.81,295.92 112.83,295.80 121.22,296.74 C123.43,297.05 132.29,297.96 133.77,296.74 C135.57,297.11 134.48,295.77 135.24,294.51 C135.84,293.57 137.45,291.77 136.41,291.25 C134.23,290.31 132.30,288.46 130.30,287.40 C120.98,282.10 100.87,273.06 101.01,272.81 C100.98,272.99 101.13,268.44 101.87,267.24 C102.92,266.20 105.01,266.38 106.11,265.39 C106.80,265.42 112.01,263.92 111.57,261.41 C110.99,259.41 112.86,256.95 111.57,255.26 C115.86,216.07 125.84,178.07 131.35,139.09 C131.47,138.98 131.59,138.88 131.72,138.77 C134.56,139.24 136.76,136.39 137.63,134.14 C138.04,133.72 138.44,133.29 138.81,132.82 C141.12,129.81 141.17,125.89 141.43,122.30 C142.00,121.88 142.37,121.23 142.40,120.46 C142.49,118.15 142.59,115.85 142.69,113.55 C142.69,113.55 142.69,113.55 142.69,113.55 C143.40,112.41 143.50,111.12 143.30,109.81 C143.37,105.56 144.02,101.59 142.19,97.68 Z" id="🎨-Background" fill="#FFFFFF"></path><path d="M83.80,-0.23 C83.84,-0.61 84.34,-0.60 84.39,-0.23 C84.92,4.24 83.15,9.37 78.81,11.46 C82.06,14.33 84.36,18.18 88.26,20.35 C96.46,25.69 108.31,20.69 110.14,11.27 C108.11,10.81 104.34,10.85 103.73,8.49 C103.43,8.18 103.28,5.57 103.30,3.65 C103.28,3.29 103.26,2.93 103.25,2.58 C103.22,2.29 103.21,2.00 103.22,1.70 C103.22,1.06 104.18,1.08 104.22,1.70 C104.24,1.96 104.25,2.22 104.26,2.48 C104.27,2.55 104.28,2.62 104.28,2.69 C104.42,3.17 104.51,3.67 104.62,4.12 C104.67,4.37 104.73,4.62 104.80,4.86 C104.89,5.51 105.06,6.14 105.34,6.74 C106.09,8.34 107.95,9.70 109.78,9.72 C110.17,9.72 110.56,9.66 110.96,9.67 C111.59,9.69 112.12,9.94 112.69,10.20 C113.20,10.43 113.69,10.59 114.18,10.59 C134.68,17.54 131.86,42.98 134.98,60.19 C138.16,77.27 144.74,93.74 145.70,111.20 C145.99,113.01 143.99,113.68 142.75,114.54 C142.42,119.09 144.34,123.70 143.01,128.21 C141.78,131.90 136.82,140.76 132.08,139.36 C126.71,180.18 114.23,218.02 113.04,259.34 C114.24,262.79 110.81,265.30 107.64,265.81 L107.21,266.05 C105.76,266.88 104.27,267.69 102.69,268.21 C102.65,268.23 102.61,268.25 102.57,268.27 C102.49,268.32 102.41,268.34 102.33,268.35 C102.42,269.41 102.75,270.41 103.18,271.37 C109.75,272.89 115.53,276.87 121.71,279.47 C125.69,281.92 137.86,285.46 138.79,289.77 L138.81,289.90 C139.18,291.83 138.14,294.21 135.95,294.40 C137.09,295.25 136.34,296.96 135.09,297.29 C133.59,297.69 131.96,297.52 130.41,297.65 C115.83,298.10 101.12,296.81 86.90,293.55 C85.71,293.27 84.47,292.91 83.46,292.20 C77.29,287.31 83.71,276.98 85.23,270.65 C84.68,270.56 84.13,270.44 83.60,270.28 L83.48,270.25 C82.96,270.09 82.42,269.90 82.02,269.53 C82.00,269.52 81.99,269.50 81.97,269.49 C79.37,269.45 82.02,263.73 82.25,262.20 C81.20,264.44 80.34,266.84 79.07,268.99 C78.20,270.31 76.29,269.39 75.01,269.30 C75.43,277.13 77.30,284.76 79.22,292.34 C80.78,298.64 83.46,306.21 74.63,308.12 C68.55,309.72 54.06,309.11 51.47,302.45 C50.70,297.03 52.38,291.54 53.20,286.19 L53.35,285.43 C54.34,280.24 55.25,275.02 56.68,269.93 C56.88,269.10 57.12,268.28 57.38,267.48 C57.42,267.01 57.44,266.53 57.41,266.06 C57.37,265.44 57.26,264.83 57.13,264.23 C57.12,264.15 57.10,264.06 57.09,263.96 C54.53,262.78 52.62,261.45 52.38,260.01 C52.13,258.64 52.64,257.25 53.01,255.94 L53.03,255.87 C61.28,226.91 76.96,200.82 74.29,169.93 C73.31,154.74 66.11,140.77 64.90,125.62 C64.20,122.60 63.57,119.54 63.47,116.43 C63.04,116.33 62.60,116.23 62.17,116.12 C61.92,117.47 61.60,118.81 61.08,120.06 C60.88,122.55 61.01,125.06 61.44,127.52 C61.54,128.09 61.27,128.58 60.80,128.76 C61.92,132.26 62.14,136.64 59.25,139.35 L59.01,139.51 C56.50,141.18 56.23,141.66 55.65,144.78 L53.72,152.66 C53.48,153.63 53.19,154.62 52.50,155.39 C50.65,157.42 47.72,156.10 46.76,153.93 C45.90,151.71 45.90,149.27 45.27,146.98 C44.79,144.62 43.45,142.61 42.12,140.63 C39.16,136.09 38.93,129.76 42.23,125.31 C42.52,124.57 42.78,123.85 43.09,123.13 C41.94,121.79 42.68,119.67 42.55,118.03 C42.55,116.68 42.52,115.32 42.48,113.97 C42.24,105.98 41.42,98.03 41.39,90.03 C41.07,79.25 43.90,68.82 45.55,58.24 C46.96,47.81 46.88,37.16 49.20,26.85 C53.50,6.60 77.66,14.32 81.75,6.34 C82.98,4.34 83.53,2.07 83.80,-0.23 Z M54.29,299.97 C53.92,302.66 55.82,303.31 57.98,304.13 C63.51,306.15 69.90,306.63 75.52,304.70 C76.51,304.28 77.23,303.65 77.58,302.73 C69.78,303.44 61.59,302.92 54.29,299.97 Z M84.03,287.98 C84.52,290.39 87.63,290.68 89.72,291.09 C94.70,292.13 99.73,292.97 104.79,293.56 C114.60,294.74 124.52,294.94 134.37,294.50 C134.63,294.38 134.81,294.16 135.14,294.16 L135.18,294.16 C135.20,294.16 135.22,294.16 135.24,294.16 C135.07,294.06 134.93,293.91 134.83,293.75 C117.89,291.88 100.86,290.62 84.03,287.98 Z M100.58,267.24 C96.52,267.95 92.36,268.32 88.26,267.68 C87.98,271.07 86.66,274.38 85.63,277.63 C91.30,279.13 95.06,272.83 100.13,271.63 C99.85,270.13 99.95,268.55 100.58,267.24 Z M58.66,264.64 C58.67,264.66 58.68,264.69 58.68,264.73 C58.66,268.69 58.26,272.63 57.67,276.55 C61.28,272.67 67.31,271.68 72.28,273.30 L72.26,273.05 C72.13,271.61 71.94,270.14 72.18,268.72 L71.95,268.66 C69.38,267.95 63.36,266.53 58.66,264.64 Z M132.92,115.29 C110.72,121.25 87.09,121.62 64.66,116.69 C65.77,120.28 66.61,123.93 67.21,127.64 C68.48,137.16 71.98,146.16 74.34,155.44 C77.07,166.39 77.72,175.62 76.36,186.80 L76.32,187.14 C73.34,212.23 61.11,235.13 55.37,259.48 C62.13,263.59 70.48,265.19 78.22,266.89 C83.09,256.84 87.21,246.54 89.90,235.72 C99.62,201.78 112.42,169.81 109.57,133.97 C108.94,133.55 109.15,132.68 109.49,132.11 C109.37,129.53 109.21,126.95 108.93,124.37 C108.92,124.29 109.07,124.27 109.09,124.35 C109.54,126.56 110.01,128.75 110.41,130.97 C113.14,128.19 114.90,124.72 117.30,121.70 C117.65,123.95 112.97,132.67 110.91,134.02 C115.29,160.97 107.99,185.64 100.10,211.28 C94.79,229.68 89.63,248.14 84.15,266.50 C84.22,266.50 84.28,266.50 84.35,266.50 C84.02,265.89 90.99,266.31 91.56,266.01 C96.70,265.52 101.73,264.31 106.72,263.08 L107.33,262.93 C108.58,262.60 110.02,262.13 110.25,260.80 L110.25,260.63 C110.25,260.58 110.25,260.54 110.26,260.54 L110.22,260.39 C110.21,260.35 110.21,260.33 110.21,260.32 L110.16,260.24 C110.10,260.16 110.05,260.09 110.12,260.17 C109.56,259.56 109.51,258.60 110.16,258.01 C111.38,213.18 125.82,172.15 131.16,127.82 C131.69,123.63 132.34,119.46 132.92,115.29 Z M44.49,123.97 C41.92,127.16 41.48,131.61 42.49,135.49 C43.02,137.42 44.10,139.05 45.21,140.70 C47.15,143.46 48.05,146.66 48.55,149.95 L48.56,150.01 C48.79,151.06 48.93,153.98 50.42,153.65 C50.81,153.40 51.00,152.29 51.14,151.71 L52.86,144.66 C53.35,142.62 53.65,140.20 55.42,138.79 L55.63,138.65 C57.07,137.73 58.48,136.65 58.70,134.84 C59.20,132.63 58.27,130.48 57.93,128.33 C53.33,127.28 48.83,125.79 44.49,123.97 Z M142.19,114.86 L142.04,114.94 C140.27,115.82 134.98,118.68 133.62,117.58 C133.65,124.11 133.13,130.60 132.36,137.08 C132.56,137.03 132.76,137.04 132.94,137.11 C136.78,136.04 140.96,128.78 141.28,125.05 C141.54,121.65 140.87,118.11 142.19,114.86 Z M79.04,14.81 L78.84,14.55 C76.77,11.82 75.60,10.84 72.00,12.30 C72.49,12.90 72.71,13.70 72.51,14.53 L72.49,14.58 C71.36,19.25 65.54,21.96 61.28,19.42 C59.79,19.80 58.24,18.73 58.18,17.22 C53.97,19.70 52.02,24.24 51.23,28.81 C53.99,27.35 57.71,28.74 58.82,31.64 C61.24,36.93 54.19,42.44 49.88,37.98 C48.95,46.91 48.51,55.91 46.82,64.74 C48.08,62.67 51.08,62.19 52.86,63.89 C58.72,68.94 51.98,80.43 44.90,74.96 C44.05,79.87 43.74,84.86 43.78,89.84 C46.05,88.96 47.29,92.88 47.46,94.54 C47.66,96.54 46.63,100.73 44.22,100.97 L44.41,104.16 C44.75,109.63 45.05,115.10 44.98,120.59 C45.10,120.62 45.20,120.68 45.29,120.75 C45.30,120.91 45.32,121.07 45.35,121.22 C45.38,121.38 45.47,121.46 45.59,121.49 L45.60,121.49 C45.59,121.60 45.57,121.71 45.53,121.82 C49.96,123.68 54.54,125.21 59.21,126.42 C59.09,124.86 59.12,123.32 59.28,121.78 C57.52,120.10 59.69,114.02 59.90,111.65 C60.71,106.91 61.33,102.14 61.88,97.36 C60.24,97.22 59.41,95.52 58.98,94.12 C58.41,92.59 58.08,90.96 58.47,89.35 C58.87,87.43 61.02,85.60 63.05,86.27 L63.17,84.99 C63.98,76.85 64.68,68.71 65.88,60.62 C61.96,62.80 58.25,58.05 59.20,54.35 C59.48,52.78 60.43,51.27 61.84,50.45 C63.09,49.73 65.66,49.03 66.48,50.60 C66.86,50.65 67.22,50.84 67.49,51.11 C68.34,46.72 69.37,42.30 71.01,38.15 C65.83,34.89 66.80,26.69 73.62,26.68 C82.82,27.47 80.37,40.89 71.50,38.37 C68.71,55.16 67.10,72.09 65.68,89.04 C66.75,90.78 66.58,93.38 65.11,94.85 C64.47,100.98 63.69,107.10 62.67,113.18 C69.42,114.68 76.25,115.93 83.16,116.50 C83.49,114.37 85.82,113.23 87.82,113.05 C89.15,112.91 90.60,113.42 91.87,113.66 C93.41,114.25 94.66,115.59 95.22,117.07 C101.67,117.11 108.12,116.70 114.51,115.86 C113.86,112.65 118.54,110.20 121.39,110.70 C122.53,110.84 123.64,111.27 124.49,112.04 C125.33,112.22 126.11,112.94 126.32,113.81 C128.58,113.27 130.89,112.86 133.08,112.06 C135.22,111.36 135.92,109.59 135.37,107.51 C129.30,109.94 124.16,100.30 129.95,96.82 C130.69,96.27 132.23,95.92 132.66,96.95 C132.74,96.97 132.81,96.98 132.88,97.00 C132.40,95.02 131.92,93.04 131.43,91.06 C128.65,90.79 127.73,86.71 130.03,85.28 C129.25,81.99 128.49,78.70 127.77,75.40 C123.96,76.18 120.80,71.45 121.61,68.03 L121.64,67.92 C122.09,66.06 123.48,64.23 125.52,63.92 C125.04,61.13 124.61,58.33 124.24,55.51 C123.72,54.95 123.48,54.12 123.69,53.38 C123.83,47.97 122.74,42.40 123.18,36.91 C119.14,41.82 110.71,38.48 112.64,32.00 C112.52,26.00 121.06,23.87 123.94,29.18 C124.25,28.05 124.64,26.92 124.84,25.75 C124.87,25.62 125.08,25.65 125.09,25.77 L125.09,25.79 C125.52,33.46 125.20,41.19 126.03,48.86 C129.11,49.01 130.36,56.35 127.02,56.88 C128.28,65.41 130.18,73.84 132.25,82.23 C135.84,81.30 137.23,89.02 134.27,90.31 C135.13,93.72 135.99,97.13 136.82,100.54 L136.84,100.54 C137.27,99.79 138.43,99.88 139.17,100.02 C141.63,100.92 140.59,105.37 137.92,105.09 C139.38,109.48 138.45,113.55 133.58,115.06 L133.59,115.20 C133.74,115.08 133.92,114.99 134.14,114.92 C137.18,114.07 140.02,112.74 142.65,111.03 C141.87,98.36 138.20,86.07 135.23,73.78 C131.82,73.24 130.73,67.78 133.40,65.77 C131.55,57.61 131.02,49.26 130.12,40.98 C127.66,40.44 127.04,36.50 129.26,35.29 C127.85,25.00 122.56,16.33 112.68,11.91 C112.36,13.38 111.83,14.80 111.12,16.13 C111.18,16.14 111.25,16.14 111.31,16.15 C111.33,16.18 111.35,16.21 111.37,16.24 C111.91,16.79 112.25,17.40 112.47,18.06 C112.49,18.20 112.51,18.35 112.54,18.49 C112.51,18.55 112.49,18.60 112.46,18.66 C113.51,22.68 108.55,24.73 105.20,23.84 C104.68,23.73 104.34,23.44 104.16,23.08 C98.23,26.26 90.49,25.59 85.15,21.38 C81.27,23.45 76.27,18.61 79.04,14.81 Z M51.21,104.97 C56.88,104.14 58.74,113.25 54.17,115.78 C52.69,116.65 50.66,116.73 49.21,115.76 C45.35,113.42 46.42,105.45 51.21,104.97 Z M72.81,99.52 C80.03,99.49 80.65,110.56 74.35,112.55 C69.67,113.90 65.08,108.71 67.48,104.39 C67.70,101.70 70.03,99.56 72.81,99.52 Z M95.31,100.52 C95.69,97.66 98.69,94.93 101.71,95.72 C104.48,96.41 105.20,99.64 105.69,102.02 C106.81,106.97 101.19,111.98 96.45,109.26 C93.43,107.45 92.98,103.04 95.31,100.52 Z M111.45,83.83 C112.46,82.23 114.73,81.52 116.58,82.08 C121.66,83.69 121.05,91.80 116.97,94.21 C109.95,97.87 104.35,87.36 111.45,83.83 Z M78.37,88.57 C78.25,83.75 83.25,79.37 87.93,82.11 C95.52,87.17 87.75,98.78 80.47,92.27 C79.17,91.44 78.41,90.09 78.37,88.57 Z M68.93,76.28 C65.42,70.84 71.45,62.77 77.21,67.98 C79.18,70.00 79.09,73.70 77.95,76.10 C76.09,79.30 70.93,79.37 68.93,76.28 Z M94.44,66.07 C97.18,63.45 101.97,63.43 104.05,66.88 C106.52,71.14 103.57,78.44 98.01,78.09 C92.22,77.68 90.64,69.59 94.44,66.07 Z M80.07,57.56 C75.68,53.07 80.45,45.88 86.42,47.61 C96.17,51.18 87.70,64.62 80.07,57.56 Z M104.08,56.55 C100.17,49.43 109.68,43.04 114.53,49.89 C118.24,56.09 108.21,63.24 104.08,56.55 Z M91.31,36.31 C87.92,30.39 93.84,23.80 100.06,27.28 C108.92,33.40 97.58,45.17 91.31,36.31 Z" id="🖍-Ink" fill="#000000"></path></g><g id="Head" stroke-width="1" transform="translate(51.57, 22.97)"><g id="head/hat-beanie"><path d="M31.25,7.49 C36.96,7.49 43.82,10.26 44.40,10.32 L44.42,10.32 C44.73,10.32 45.93,11.23 48.02,13.06 L45.75,17.47 L45.93,17.65 C46.81,18.49 47.56,19.25 48.15,19.86 C52.97,24.79 53.84,44.15 52.71,50.90 C51.57,57.65 49.46,64.25 39.66,64.25 C29.86,64.25 18.95,58.36 17.27,56.53 C16.15,55.30 14.89,54.72 13.49,54.77 C13.44,54.70 13.38,54.62 13.32,54.55 L13.12,54.52 C11.19,54.24 9.80,53.87 8.97,53.39 C7.33,52.47 5.53,47.61 5.53,46.54 C5.53,45.48 2.85,37.77 2.80,36.95 L2.80,36.93 C2.80,36.25 -0.71,33.11 -0.71,32.12 C-0.71,31.12 -1.41,31.18 -0.71,27.67 L-0.50,26.64 C0.25,22.91 1.72,16.72 7.33,14.03 C13.49,11.08 25.48,7.49 31.25,7.49 Z" id="Path" fill="#FFFFFF"></path><path d="M6.38,13.89 C9.45,10.63 26.91,5.59 35.74,6.65 L36.00,6.69 C36.71,6.78 37.40,6.91 38.09,7.10 C40.30,7.61 42.59,8.40 44.42,9.71 C45.95,10.78 50.77,12.52 49.35,15.32 C49.87,16.32 50.07,17.55 49.71,18.54 C49.67,18.88 49.56,19.19 49.43,19.51 C50.56,21.17 51.45,23.05 52.17,24.84 C53.43,29.33 54.21,34.01 54.33,38.60 C54.71,47.31 53.76,57.72 46.17,63.35 C41.58,66.92 34.40,67.04 29.24,62.61 C28.95,62.27 27.58,61.34 28.04,61.17 C28.17,61.32 28.31,61.46 28.46,61.59 C28.45,61.58 28.45,61.56 28.45,61.55 L28.32,61.43 C28.06,61.19 27.73,60.85 28.11,60.92 C28.12,60.94 28.14,60.95 28.16,60.97 C28.24,61.02 28.30,61.06 28.35,61.10 L28.37,61.12 L28.36,61.11 C28.15,60.88 28.02,60.65 28.34,60.79 L28.38,60.82 C28.53,60.97 28.67,61.11 28.82,61.25 C28.82,61.23 28.82,61.22 28.83,61.20 L28.69,61.07 C28.56,60.93 28.58,60.93 28.64,60.83 C28.36,60.43 28.89,60.66 28.93,60.82 C29.26,60.74 29.56,61.37 29.77,61.45 C39.22,68.71 52.93,62.26 52.70,42.03 L52.70,41.64 C52.64,35.17 52.09,28.52 49.41,22.66 C49.15,22.10 48.86,21.55 48.54,21.02 C48.32,20.62 48.09,20.23 47.83,19.86 C47.12,19.80 46.42,19.67 45.73,19.47 C45.49,19.41 45.25,19.34 45.02,19.26 C41.59,19.45 38.23,19.65 34.79,19.85 L33.72,19.91 C30.80,20.10 27.79,20.40 25.44,22.20 C23.13,23.84 23.12,27.08 21.14,28.88 C18.33,30.79 18.30,32.52 17.76,35.33 C17.80,37.46 19.28,40.54 16.57,41.44 C17.03,42.09 16.39,41.77 16.34,41.55 C16.34,41.55 16.33,41.55 16.33,41.55 C16.73,42.30 16.14,41.83 16.08,41.59 C16.05,41.58 16.02,41.55 15.99,41.52 C16.40,42.18 15.74,41.72 15.78,41.60 C14.98,40.38 13.36,40.20 12.21,40.52 C12.20,40.56 12.14,40.56 12.11,40.54 C7.23,41.60 8.49,51.70 13.49,50.72 C13.71,50.68 13.70,50.78 13.74,50.79 C13.63,50.49 13.95,50.61 13.95,50.67 L13.97,50.67 C13.99,50.67 13.98,50.67 13.99,50.67 C13.88,50.05 14.51,50.95 14.46,50.99 C14.48,50.98 14.50,50.97 14.52,50.97 L14.50,50.91 C14.39,50.63 14.40,50.75 14.40,50.59 C14.32,50.39 14.32,50.48 14.34,50.35 C14.61,50.14 14.69,50.78 14.79,50.83 C14.63,50.61 14.75,50.43 14.90,50.55 C16.03,52.92 17.48,55.15 19.36,56.90 C19.57,57.06 19.78,57.22 19.99,57.37 C20.79,58.07 22.02,58.52 22.77,59.13 C22.77,59.14 22.76,59.16 22.75,59.17 L22.77,59.18 L22.77,59.18 L22.79,59.20 L23.05,59.32 C23.13,59.39 23.19,59.46 23.26,59.54 C23.32,59.62 23.38,59.70 23.43,59.79 C23.45,59.90 23.40,59.94 23.30,59.90 C23.25,59.88 23.21,59.86 23.16,59.85 C23.16,59.85 23.17,59.85 23.17,59.85 C23.18,59.88 23.28,60.11 23.17,60.07 L23.15,60.06 C23.09,60.04 23.03,60.02 22.97,59.99 C23.04,60.08 23.11,60.18 23.17,60.26 C23.23,60.33 23.27,60.40 23.28,60.49 C23.28,60.54 23.25,60.56 23.20,60.55 C23.13,60.53 23.06,60.50 22.98,60.48 L23.00,60.52 C23.06,60.62 23.13,60.79 23.00,60.73 C22.89,60.70 22.78,60.66 22.67,60.61 C22.67,60.63 22.65,60.64 22.61,60.62 C22.27,60.50 21.94,60.35 21.63,60.18 C21.35,59.98 21.07,59.78 20.79,59.58 C20.53,59.42 20.28,59.25 20.04,59.05 C18.42,58.01 17.01,56.68 15.89,55.21 C14.01,56.83 10.26,55.28 7.94,54.01 C5.89,52.87 5.09,50.77 4.88,48.51 C4.44,45.46 1.95,44.42 2.13,37.73 C2.12,37.73 2.12,37.73 2.11,37.73 C2.02,37.70 1.93,37.67 1.85,37.62 C1.77,37.58 1.69,37.53 1.61,37.47 L1.52,37.34 L1.52,37.34 C1.47,37.32 1.43,37.29 1.39,37.26 L1.38,37.28 C1.32,37.35 1.36,37.25 1.36,37.23 L1.20,37.01 C0.81,36.49 0.39,35.90 0.05,35.43 L0.04,35.45 C0.03,35.46 0.03,35.47 0.03,35.48 C-0.78,34.31 -1.55,32.89 -1.77,31.52 C-2.02,30.46 -1.92,29.37 -1.70,28.39 C-0.76,24.97 2.33,17.22 6.38,13.89 Z M28.53,61.27 L28.48,61.23 L28.53,61.28 C28.55,61.31 28.57,61.34 28.61,61.37 C28.61,61.36 28.61,61.35 28.61,61.34 C28.59,61.32 28.56,61.30 28.53,61.27 Z M35.70,8.38 C29.71,7.86 23.82,9.18 18.11,10.78 L17.71,10.89 C14.46,11.82 11.03,12.65 8.28,14.63 C4.45,17.57 2.46,22.25 0.74,26.56 C-0.77,29.77 -0.00,33.38 2.27,35.62 C2.51,33.39 2.91,31.23 3.54,29.09 C3.68,28.76 3.58,28.65 3.86,28.60 C4.29,34.38 2.18,38.64 6.35,45.48 C8.17,48.71 6.07,51.07 11.18,52.77 L11.32,52.82 C12.39,53.23 13.55,53.54 14.60,53.32 L14.50,53.17 C14.41,53.01 14.38,52.93 14.52,52.87 C14.51,52.86 14.51,52.85 14.50,52.84 C14.39,52.63 14.28,52.42 14.18,52.20 C14.14,52.21 14.09,52.22 14.05,52.23 C14.08,52.29 14.08,52.34 14.00,52.36 C13.72,52.45 13.43,52.49 13.14,52.47 L13.07,52.47 C12.74,52.45 12.53,52.39 12.34,52.33 C12.28,52.32 12.22,52.31 12.16,52.30 C11.55,52.16 10.91,51.82 10.49,51.48 C5.76,48.80 6.25,39.65 12.08,38.79 C12.20,33.03 14.94,23.32 19.49,17.83 C23.60,12.79 34.81,10.60 42.62,11.37 C42.73,11.41 42.84,11.45 42.96,11.49 C44.16,11.59 45.31,12.13 46.51,12.38 C45.65,11.73 44.67,11.30 43.66,10.93 C41.64,9.70 39.33,9.03 37.10,8.56 C36.64,8.45 36.17,8.39 35.70,8.38 Z M11.82,43.41 C12.13,43.24 12.09,43.41 12.17,43.36 C14.42,43.18 16.85,45.15 18.11,46.80 C18.01,46.90 17.74,46.59 17.70,46.54 C17.69,46.55 17.68,46.56 17.68,46.56 L17.71,46.61 C18.22,47.34 17.21,46.48 17.11,46.30 C17.10,46.31 17.08,46.32 17.06,46.31 C17.14,46.39 17.39,46.60 17.43,46.74 L17.49,46.80 C18.11,47.32 18.06,47.72 17.36,46.97 C17.38,47.00 17.38,47.04 17.37,47.06 L17.40,47.08 C17.74,47.32 18.02,47.98 17.30,47.30 C17.38,47.80 16.59,46.83 16.57,46.84 C15.21,45.78 13.22,44.74 11.52,44.60 L11.46,44.60 C11.15,44.56 11.00,44.46 11.11,44.26 C10.73,44.17 10.82,43.98 11.00,43.98 C10.73,43.81 10.97,43.64 11.13,43.70 C11.02,43.40 11.45,43.60 11.49,43.56 C11.72,43.21 11.78,43.50 11.82,43.41 Z M7.09,24.86 C8.17,24.47 11.37,25.66 11.12,27.23 C10.96,27.59 10.46,27.80 10.11,27.59 L9.65,27.28 C8.85,26.75 8.12,26.28 7.26,25.81 C6.79,25.57 6.59,25.08 7.09,24.86 Z M13.25,22.53 L12.83,22.26 C10.58,20.78 7.38,18.54 13.04,20.86 C13.69,21.13 14.55,21.30 14.90,21.91 C15.45,23.04 14.00,23.12 13.25,22.53 Z M13.51,15.90 C13.32,15.21 15.58,16.02 16.23,16.23 L16.33,16.27 C16.97,16.51 17.70,16.73 18.09,17.28 C18.53,18.04 17.63,18.20 17.07,17.85 C15.92,17.10 14.66,16.54 13.51,15.90 Z M19.24,12.70 C17.97,11.31 21.36,12.64 21.87,13.01 L21.89,13.02 C22.27,13.29 22.19,13.86 21.83,14.03 C20.82,14.05 20.07,13.21 19.24,12.70 Z M25.01,11.18 C22.99,9.73 25.65,10.42 26.57,10.99 C27.20,11.54 26.55,12.48 25.01,11.18 Z" id="🖍-Ink" fill="#000000"></path></g><g id="face/Calm" transform="translate(20.30, 23.74)" fill="#000000"><path d="M21.83,30.65 C20.89,30.92 19.88,30.95 18.93,30.66 C18.06,30.41 17.16,29.85 16.52,29.11 C15.95,28.45 15.59,27.64 15.60,26.79 C15.60,26.69 15.64,26.61 15.69,26.55 C15.75,26.48 15.83,26.43 15.92,26.41 C16.01,26.39 16.10,26.40 16.18,26.43 C16.25,26.47 16.32,26.52 16.35,26.60 C16.45,26.73 16.55,26.86 16.65,26.98 C17.44,27.96 18.21,28.69 19.39,28.95 C20.04,29.09 20.68,29.03 21.27,28.81 C21.91,28.58 22.48,28.17 22.93,27.65 C23.13,27.42 23.37,27.32 23.60,27.32 C23.87,27.32 24.13,27.44 24.33,27.64 C24.52,27.83 24.65,28.09 24.66,28.37 C24.67,28.61 24.59,28.86 24.39,29.09 C23.70,29.83 22.80,30.37 21.83,30.65 Z M21.80,18.42 C22.77,19.01 24.24,20.38 23.20,21.83 C21.98,23.11 20.22,21.64 19.36,20.98 C18.55,20.46 17.65,21.79 18.40,22.39 C24.65,27.02 27.19,18.58 22.29,17.74 C21.75,17.64 21.55,18.24 21.80,18.42 Z M12.79,15.85 C12.48,15.65 12.11,15.58 11.71,15.76 C11.39,15.91 10.84,16.39 10.45,17.02 C10.19,17.45 10.00,17.95 10.04,18.48 C10.05,18.60 10.01,18.69 9.94,18.75 C9.88,18.81 9.80,18.85 9.70,18.86 C9.62,18.87 9.53,18.86 9.46,18.84 C9.32,18.79 9.24,18.70 9.22,18.63 C8.95,17.91 9.06,17.11 9.36,16.39 C9.77,15.42 10.51,14.60 11.00,14.34 C11.83,13.89 12.81,13.87 13.64,14.33 C14.35,14.72 14.79,15.35 15.23,15.99 C15.33,16.13 15.42,16.26 15.52,16.39 C15.71,16.66 15.73,16.92 15.65,17.15 C15.57,17.40 15.36,17.61 15.10,17.73 C14.85,17.83 14.57,17.84 14.32,17.74 C14.11,17.65 13.92,17.47 13.79,17.18 C13.59,16.68 13.24,16.14 12.79,15.85 L12.79,15.85 Z M28.52,16.95 C28.31,17.06 28.14,17.09 27.91,17.02 C27.78,16.98 27.65,16.91 27.55,16.81 C27.45,16.71 27.38,16.58 27.35,16.45 C27.28,16.11 27.09,15.79 26.83,15.58 C26.60,15.40 26.32,15.31 26.00,15.36 C25.66,15.42 25.33,15.64 25.11,15.90 C25.03,15.99 24.97,16.08 24.91,16.18 C24.80,16.36 24.70,16.53 24.54,16.67 C24.49,16.72 24.40,16.75 24.31,16.75 C24.28,16.75 24.25,16.75 24.21,16.74 C23.87,16.40 23.81,16.14 23.82,15.88 C23.83,15.61 23.93,15.34 24.11,15.08 C24.51,14.49 25.28,14.00 25.79,13.88 C26.50,13.73 27.20,13.91 27.76,14.31 C28.34,14.72 28.77,15.35 28.91,16.06 C28.94,16.23 28.93,16.41 28.86,16.57 C28.80,16.73 28.69,16.86 28.52,16.95 Z M14.35,9.48 C13.92,9.89 13.42,9.95 12.91,10.01 C12.63,10.04 12.40,10.07 12.18,10.12 C11.57,10.26 10.97,10.46 10.42,10.76 C9.85,11.07 9.22,11.45 8.77,11.93 C8.66,12.05 8.56,12.17 8.46,12.29 C8.37,12.40 8.28,12.50 8.18,12.61 C8.08,12.72 7.97,12.85 7.87,12.97 C7.81,13.07 7.80,13.10 7.79,13.12 C7.77,13.16 7.74,13.21 7.72,13.26 C7.68,13.32 7.64,13.39 7.60,13.46 C7.53,13.58 7.49,13.61 7.46,13.62 C7.41,13.65 7.35,13.66 7.30,13.65 C7.26,13.65 7.21,13.63 7.17,13.59 C6.95,13.40 6.89,13.10 6.89,12.78 C6.90,12.29 7.08,11.76 7.25,11.42 C7.63,10.66 8.17,9.86 8.81,9.28 C9.54,8.63 10.34,8.13 11.26,7.79 C11.83,7.57 12.50,7.38 13.12,7.40 C13.57,7.42 14.00,7.56 14.35,7.89 C14.57,8.09 14.67,8.38 14.67,8.67 C14.67,8.97 14.56,9.27 14.35,9.48 Z M29.39,13.26 C29.36,13.31 29.32,13.34 29.28,13.36 C29.24,13.37 29.19,13.38 29.14,13.37 C29.09,13.36 29.05,13.34 29.02,13.31 C28.98,13.28 28.96,13.24 28.94,13.19 C28.66,11.95 28.12,11.03 26.95,10.44 C26.37,10.15 25.71,9.96 25.09,9.81 C24.91,9.77 24.71,9.74 24.52,9.71 C23.91,9.62 23.30,9.52 22.91,9.03 C22.67,8.74 22.57,8.36 22.63,8.02 C22.68,7.69 22.87,7.39 23.22,7.21 C24.07,6.77 25.14,7.21 26.01,7.58 C26.07,7.60 26.14,7.63 26.20,7.66 C27.05,8.02 27.82,8.49 28.46,9.17 C28.96,9.70 29.43,10.49 29.62,11.31 C29.78,11.99 29.74,12.68 29.39,13.26 Z" id="🖍-Ink"></path></g><g id="facial-hair/*-None" transform="translate(15.70, 43.14)"></g></g></g></g></g></svg>