<?xml version="1.0" encoding="UTF-8"?><svg width="168px" height="348px" viewBox="0 0 168 348" version="1.1" xmlns="http://www.w3.org/2000/svg" xmlns:xlink="http://www.w3.org/1999/xlink"><title>mix-1</title><desc>Created with Sketch.</desc><g id="Mix-N-Match" stroke="none" stroke-width="1" fill="none" fill-rule="evenodd"><g id="Artboard" transform="translate(-62.00, -167.00)"><g id="a-person/standing" transform="translate(168.50, 363.50) scale(-1, 1) translate(-168.50, -363.50) translate(93.00, 153.00)"><g id="pose/standing/pointing_finger-1" transform="translate(-18.57, 81.10)"><path d="M104.42,139.59 C104.28,144.73 103.45,149.84 102.83,154.95 C102.33,160.00 101.38,165.09 100.63,170.04 C100.60,170.91 99.41,171.33 98.83,170.69 C98.85,159.43 101.85,147.87 100.79,136.38 C101.65,135.90 102.52,135.37 103.36,134.84 C104.48,136.32 104.61,138.04 104.42,139.59 M59.98,73.21 C58.69,77.89 55.97,81.92 54.77,86.60 L53.51,86.48 C52.89,76.15 54.64,66.00 56.67,56.01 L57.94,56.09 C58.39,61.84 61.33,67.29 59.98,73.21 M198.79,35.16 C198.73,34.97 198.66,34.78 198.59,34.58 L197.85,34.73 C199.23,32.13 197.94,31.27 196.39,29.11 L196.22,29.51 L195.62,28.20 C195.50,27.86 195.38,27.58 195.05,27.46 C194.73,25.83 193.78,24.34 192.51,23.53 L192.26,23.80 C191.76,23.36 191.15,23.19 190.57,22.99 C191.81,21.11 192.61,18.68 193.45,16.67 C194.13,14.56 195.20,12.51 195.40,10.36 C195.24,8.31 193.29,9.64 192.34,10.67 C189.45,13.21 186.96,17.24 185.09,22.12 C181.88,21.29 180.04,22.17 179.15,26.56 C178.33,29.54 177.49,32.60 177.38,35.69 C176.94,35.54 176.18,34.98 175.77,35.42 C168.64,43.23 160.21,49.24 152.07,55.83 C145.92,51.30 142.71,42.33 139.33,35.60 C133.42,24.06 127.52,7.15 112.33,7.21 C110.32,7.00 108.35,6.76 106.45,6.17 C105.72,5.97 104.81,5.73 104.56,5.28 C104.11,3.84 104.02,2.28 103.23,0.96 C101.06,-2.57 96.36,-2.85 92.67,-2.08 C86.41,-0.92 86.57,-1.60 86.12,4.99 C85.98,6.55 84.77,6.78 83.48,7.10 C82.01,7.56 80.51,7.94 79.00,8.25 C79.16,8.20 79.32,8.16 79.47,8.12 C54.98,8.50 38.72,36.94 35.49,57.06 C31.74,77.64 36.59,100.54 44.25,117.83 C43.92,124.12 45.16,130.45 45.94,136.65 C46.43,138.20 48.13,138.35 48.61,136.56 C48.61,136.56 49.21,134.19 49.21,134.19 L49.85,136.54 C50.26,138.00 50.91,138.18 51.50,138.18 C52.22,138.18 52.62,137.83 52.65,135.93 L53.85,135.64 C54.32,136.53 54.78,137.31 55.51,137.86 C56.98,148.54 57.90,159.65 61.47,170.00 C62.89,173.83 65.07,177.32 66.68,181.08 C59.12,198.16 57.85,217.09 56.03,235.37 C56.18,235.38 56.93,235.45 57.09,235.46 L56.68,236.57 C56.11,236.80 55.78,237.31 55.61,237.87 C55.23,237.84 53.63,237.85 53.72,238.21 C53.91,240.36 54.51,241.89 55.65,243.01 C55.67,243.36 55.69,243.71 55.71,244.03 C53.45,251.94 51.79,260.36 50.78,269.05 C49.50,270.28 49.18,274.34 51.09,275.42 C56.37,279.05 63.45,280.78 70.12,280.12 C77.34,279.44 85.95,276.56 82.50,268.32 C82.45,268.07 82.10,268.05 81.82,268.11 C81.21,267.52 80.55,267.07 79.83,266.81 C78.40,263.25 77.12,259.51 76.00,255.78 C75.46,254.07 74.90,252.30 74.94,250.42 C75.21,245.80 75.69,243.90 78.89,240.26 C80.87,241.22 84.65,234.31 85.52,232.86 C87.34,228.56 89.66,224.66 91.61,220.45 C91.91,219.74 92.96,219.73 93.37,220.34 C93.56,220.60 93.60,220.92 93.50,221.22 C91.81,226.12 89.50,230.79 87.27,235.35 C88.03,238.00 88.33,242.43 90.23,244.41 C91.26,251.27 84.20,254.42 88.75,262.04 C87.21,262.15 87.06,262.76 87.09,264.63 C87.09,265.98 87.05,267.39 87.30,268.64 C87.61,270.18 89.03,270.60 91.17,271.05 C92.90,271.44 94.57,271.87 96.29,272.29 C98.02,272.87 99.85,272.82 100.57,271.06 C109.17,273.98 133.97,273.64 142.18,269.78 C144.44,268.87 146.04,268.36 143.96,265.80 C142.81,258.51 124.12,263.73 121.47,255.73 C121.10,254.69 120.55,254.14 119.49,253.96 C119.66,253.13 119.44,252.21 118.52,251.98 C118.25,251.89 117.95,251.87 117.67,251.61 C116.96,250.16 115.80,249.27 114.46,248.50 C115.01,247.71 114.56,247.34 114.31,246.45 C114.06,244.75 114.64,243.13 114.61,241.48 C114.92,240.96 115.16,240.23 115.66,239.87 C116.11,239.54 115.83,239.40 115.65,239.04 C115.79,238.92 116.10,238.65 116.24,238.54 C116.77,237.94 116.21,237.08 115.52,237.02 C115.44,236.73 115.34,236.40 115.27,236.12 C117.18,230.39 119.42,222.95 120.17,215.07 C120.89,202.46 120.22,191.83 124.05,179.01 C129.42,158.72 139.85,139.69 139.99,118.22 C139.81,114.66 140.80,110.87 139.90,107.37 L141.01,106.80 C141.17,106.98 141.46,106.98 141.52,106.73 C142.25,105.54 141.43,104.12 141.26,102.83 C141.64,102.42 141.45,102.05 140.99,101.83 C136.06,84.41 127.81,81.86 130.08,60.09 C133.79,67.94 142.00,75.89 151.04,74.73 C160.16,76.09 181.42,53.88 185.52,46.69 C186.28,46.75 186.28,46.21 186.40,45.70 C190.15,46.15 193.66,43.20 193.73,39.60 C197.02,41.64 200.54,38.72 198.79,35.16" id="🎨-Background" fill="#FFFFFF"></path><path d="M172.56,58.80 L172.21,59.11 C166.43,64.25 160.30,69.38 153.07,72.28 C152.09,72.64 151.07,72.74 150.06,72.95 C141.65,73.03 135.94,66.52 130.61,60.90 C131.06,51.28 130.69,41.36 126.89,32.37 L126.80,32.14 C125.87,29.79 124.74,27.46 122.92,25.67 C122.87,25.62 122.81,25.69 122.85,25.73 C124.40,27.63 125.30,29.95 125.95,32.29 L125.98,32.41 C128.20,40.34 128.58,48.65 128.29,56.84 L128.28,57.09 C128.08,62.62 127.60,68.18 128.27,73.70 C128.76,79.40 131.28,84.55 134.02,89.47 C136.41,94.01 138.20,98.87 139.29,103.89 C138.94,105.38 137.68,106.46 136.36,107.29 C133.99,108.75 131.24,109.55 128.55,110.23 C117.56,113.05 106.12,114.36 94.81,112.99 C82.75,111.42 70.98,108.18 59.30,104.89 C58.10,104.52 56.76,104.18 55.61,103.61 C55.54,103.53 55.45,103.45 55.35,103.40 C55.15,100.59 54.89,97.82 54.69,95.02 C54.96,89.61 56.46,84.34 58.76,79.45 C62.98,71.43 61.59,66.56 59.02,58.39 C58.43,56.31 58.01,54.13 58.06,51.99 C58.33,50.64 58.59,49.29 58.83,47.94 C58.93,47.68 59.04,47.42 59.16,47.16 C59.18,47.11 59.12,47.08 59.09,47.12 C59.03,47.20 58.98,47.28 58.93,47.36 C59.11,46.32 59.27,45.29 59.42,44.25 C59.44,44.11 59.26,44.06 59.21,44.19 C54.59,56.60 51.91,69.91 52.02,83.17 C52.09,87.08 52.36,90.98 52.64,94.88 L52.62,95.26 C52.52,96.73 52.46,98.23 52.98,99.64 C53.09,102.05 53.50,104.43 53.37,106.85 C53.07,109.05 52.41,110.62 50.75,112.14 C49.11,113.81 47.23,115.19 45.09,116.14 C36.19,90.13 30.97,63.12 43.84,37.40 C49.82,24.87 60.10,13.62 73.90,10.05 C71.93,12.22 73.47,15.47 74.88,17.54 L74.97,17.66 C81.74,27.69 96.65,30.08 107.84,27.90 C113.26,26.97 118.34,23.46 118.77,17.60 C119.11,13.68 116.87,9.80 113.49,7.87 L113.90,7.91 C117.19,8.28 120.39,8.81 122.91,11.16 C132.22,19.77 136.54,32.02 142.04,43.12 L142.26,43.52 C144.61,47.89 146.89,52.60 150.80,55.77 L150.07,56.39 L150.07,56.39 C149.98,56.47 150.08,56.65 150.19,56.60 C150.57,56.45 150.94,56.29 151.32,56.13 C151.84,56.55 152.45,56.12 152.51,55.59 C161.36,51.35 168.84,44.64 175.78,37.83 C177.53,41.89 180.49,46.31 185.22,46.97 C180.75,50.64 176.80,54.87 172.56,58.80 Z M101.44,136.56 C102.01,136.24 102.58,135.90 103.14,135.55 C104.06,137.02 103.83,138.32 103.73,139.95 C103.52,142.67 103.56,145.44 103.01,148.12 C102.05,154.95 101.49,162.09 100.07,168.75 C100.04,169.12 100.00,169.49 99.97,169.87 C99.94,170.36 99.17,170.36 99.21,169.87 C100.14,158.81 102.13,147.69 101.44,136.56 Z M106.65,269.72 C113.85,270.92 121.21,270.07 128.43,269.30 L129.48,269.16 C132.90,268.72 136.33,268.25 139.68,267.51 C139.97,267.28 140.40,267.17 140.57,266.83 L140.78,266.84 C140.95,266.74 141.13,266.65 141.31,266.56 C141.84,266.47 142.27,266.35 142.81,266.20 C143.55,266.45 143.63,267.10 143.13,267.56 C143.18,267.80 142.90,267.93 142.71,268.03 C142.68,268.09 142.64,268.15 142.57,268.20 C142.24,268.41 141.91,268.65 141.53,268.76 C140.61,269.71 138.64,270.08 137.55,270.27 L137.44,270.29 C128.40,271.91 119.14,272.34 109.98,271.61 C108.41,271.48 106.83,271.32 105.26,271.13 L104.83,271.07 C103.47,270.90 101.97,270.83 100.93,269.84 C100.41,269.34 99.37,269.65 99.40,270.44 L99.40,270.47 C99.49,271.76 96.47,270.69 95.88,270.52 L95.86,270.52 C94.19,270.07 92.53,269.57 90.85,269.14 L90.44,269.06 C88.99,268.77 88.87,268.62 88.86,266.82 L88.80,266.33 C88.73,265.68 88.65,265.02 88.55,264.38 L88.51,264.13 C88.46,263.86 87.99,262.18 88.77,262.40 C88.86,262.43 88.96,262.35 88.96,262.25 C94.39,265.71 100.26,268.60 106.65,269.72 Z M77.98,274.07 L78.44,273.79 C79.22,273.33 79.99,272.82 80.54,272.11 C81.44,272.14 81.81,271.29 81.78,270.54 C82.54,273.00 81.60,274.97 79.37,276.22 C71.64,280.32 61.74,279.72 54.04,275.82 C53.30,275.43 52.58,275.02 51.88,274.57 L51.72,274.47 C51.46,274.31 51.20,274.13 51.06,273.84 C50.73,272.85 50.73,271.88 50.69,270.78 C51.28,271.56 52.25,272.11 53.05,272.65 C54.59,273.68 56.25,274.49 57.97,275.14 C64.36,277.52 71.95,277.37 77.98,274.07 Z M54.59,71.77 C55.20,66.42 56.26,61.14 57.28,55.85 C57.70,61.53 60.65,67.07 59.34,72.81 C58.06,77.44 55.31,81.54 54.13,86.20 C53.91,81.39 54.05,76.57 54.59,71.77 Z M62.19,118.22 C61.49,118.34 60.78,118.34 60.08,118.29 C57.23,117.94 56.78,119.67 56.79,122.07 C56.71,123.63 56.61,125.19 56.53,126.74 L56.48,127.68 C56.42,128.92 56.27,130.32 56.42,131.62 C55.91,132.80 55.63,134.03 55.55,135.32 C55.31,135.26 55.06,135.29 54.88,135.41 C53.83,133.55 53.58,131.28 53.37,129.19 C53.26,128.16 51.75,128.11 51.73,129.19 C51.70,130.65 51.67,132.12 51.65,133.58 L51.61,135.84 L51.61,135.84 L51.61,135.88 C51.62,136.20 51.76,137.01 51.37,136.98 L51.34,136.98 C50.61,136.92 50.57,134.30 50.41,133.65 L49.80,129.26 L49.80,129.26 C49.66,128.28 48.25,128.60 48.15,129.46 L48.15,129.49 C47.98,131.49 47.80,133.49 47.65,135.50 C47.61,135.85 47.60,136.47 47.22,136.62 C46.89,136.32 46.82,135.82 46.75,135.40 C46.12,129.61 44.94,123.90 44.21,118.13 C44.69,118.06 45.12,117.77 45.26,117.32 C49.05,116.54 53.03,114.41 54.94,110.94 C55.32,111.27 55.61,111.71 55.98,112.06 C56.56,112.60 57.20,113.10 57.82,113.61 C59.53,115.06 61.26,116.43 62.94,117.93 C62.69,118.01 62.47,118.17 62.19,118.22 Z M103.45,-0.21 C103.47,-0.28 103.58,-0.26 103.58,-0.19 C103.69,1.27 104.04,2.81 104.57,4.24 C104.76,4.27 104.94,4.38 105.08,4.58 C105.26,4.86 106.11,5.06 106.56,5.19 L106.63,5.21 C108.48,5.78 110.42,6.02 112.35,6.22 C121.41,6.72 124.71,9.56 129.82,16.74 C135.89,24.82 139.30,34.41 143.87,43.34 C145.00,45.51 146.21,47.62 147.55,49.67 L147.68,49.87 C148.87,51.68 150.19,53.52 152.01,54.75 C156.42,51.05 161.14,47.75 165.50,43.99 L165.91,43.64 C169.18,40.81 172.31,37.81 175.29,34.67 C175.64,34.30 176.30,34.20 176.78,34.42 C176.97,31.59 177.77,28.82 178.51,26.08 C179.28,22.56 180.62,20.19 184.68,21.06 C186.31,16.95 188.49,12.94 191.80,9.94 L192.01,9.75 C192.71,9.11 193.64,8.20 194.63,8.28 C195.52,8.35 195.98,9.17 196.02,9.99 C196.06,10.97 195.63,11.97 195.33,12.89 L195.30,12.97 C194.91,14.18 194.48,15.37 194.03,16.56 C193.60,17.70 193.14,18.83 192.65,19.95 C192.16,20.89 191.79,22.44 190.89,23.01 C190.43,23.29 189.95,22.91 189.90,22.44 C189.83,21.82 190.18,21.27 190.45,20.73 C190.69,20.23 190.93,19.72 191.16,19.22 C192.09,17.19 192.93,15.12 193.65,13.01 C193.86,12.30 194.73,10.45 194.43,9.81 C194.13,9.81 193.50,10.45 193.28,10.64 C189.81,13.52 187.55,17.49 184.97,21.12 C186.59,21.58 188.35,21.80 189.70,22.89 C192.46,25.30 190.24,30.09 186.53,29.20 C187.57,31.40 188.46,34.95 186.62,36.94 C186.07,37.46 185.00,37.29 184.83,36.47 C184.65,35.59 184.86,34.84 185.06,34.00 C185.42,32.27 185.64,30.50 185.39,28.74 L185.32,28.70 C184.69,28.32 184.29,27.89 184.31,27.10 C184.23,26.53 184.84,25.76 185.45,26.23 C185.65,26.38 185.89,26.39 186.10,26.54 C186.45,26.88 186.89,27.14 187.39,27.14 L187.44,27.14 C188.09,27.13 188.56,26.74 188.76,26.14 C189.30,24.48 187.43,23.93 186.21,23.61 L185.90,23.51 C182.58,22.50 181.37,22.48 180.54,26.38 C179.64,29.29 178.84,32.29 177.31,34.95 L177.50,35.40 C179.04,39.06 180.97,43.27 185.10,44.40 C185.24,43.17 186.57,43.13 187.52,43.16 C188.76,43.09 190.00,42.47 190.87,41.57 C191.63,40.80 192.02,39.73 192.86,39.05 C192.48,38.18 193.34,37.22 194.24,37.72 C194.85,38.06 195.21,38.53 195.95,38.63 C196.60,38.72 197.19,38.49 197.69,38.08 C198.97,36.99 198.36,35.39 198.68,33.97 C198.26,34.68 197.57,35.23 196.84,35.61 C191.91,38.43 191.96,32.91 194.68,33.82 C197.64,33.14 197.59,32.07 196.48,29.57 L196.46,29.51 C196.28,28.98 195.88,28.05 196.26,27.48 C196.28,27.45 196.31,27.45 196.34,27.47 C196.68,27.80 196.81,28.36 197.10,28.75 L197.44,29.16 C198.47,30.40 199.55,31.88 198.88,33.55 C198.95,33.53 199.03,33.56 199.06,33.65 C199.37,34.80 200.00,35.94 199.87,37.17 C199.60,39.88 196.66,41.37 194.23,40.24 C193.76,43.72 190.33,46.23 186.89,46.07 C186.78,46.55 186.43,46.97 185.88,47.01 C180.81,55.12 160.90,75.99 151.14,75.12 C150.20,75.54 149.02,75.33 148.03,75.20 C140.44,74.22 134.11,68.67 130.57,62.10 C129.27,83.63 136.61,83.36 141.53,101.20 C142.02,101.51 142.31,102.18 141.93,102.75 C142.14,103.83 142.57,104.93 142.40,106.04 C142.32,106.36 142.15,106.64 142.00,106.93 C141.70,107.52 140.88,107.45 140.50,106.99 C141.15,109.33 140.87,111.78 140.71,114.16 C140.61,115.56 140.61,116.94 140.61,118.34 C140.42,139.64 130.01,158.85 124.66,179.06 C123.14,184.73 121.98,190.50 121.52,196.35 C121.04,202.58 121.38,208.84 120.79,215.06 C120.11,222.26 118.19,229.26 115.92,236.11 C116.06,236.66 116.34,237.29 116.16,237.77 C112.92,238.32 109.79,239.31 106.64,240.23 C106.52,240.27 106.44,240.35 106.40,240.44 L105.68,240.68 L105.68,240.68 C105.22,240.83 105.42,241.57 105.89,241.42 L106.68,241.15 C109.37,240.26 112.09,239.41 114.89,239.01 L114.97,238.98 C115.53,238.76 116.19,238.59 116.49,239.21 C116.64,239.52 116.52,239.83 116.30,240.08 C116.12,240.29 115.89,240.42 115.74,240.66 C115.56,240.97 115.41,241.30 115.23,241.61 C115.24,243.17 114.72,244.72 114.92,246.28 C115.07,246.93 115.60,247.55 115.26,248.24 L115.41,248.34 C116.30,248.91 117.14,249.53 117.72,250.41 C117.85,250.60 117.94,250.99 118.09,251.13 C118.24,251.27 118.52,251.29 118.71,251.35 C119.65,251.64 120.24,252.49 120.16,253.47 C122.36,254.11 121.60,256.34 123.88,257.90 C126.21,259.59 129.37,259.77 132.12,260.21 L136.82,260.96 L136.82,260.96 L137.09,260.99 C140.07,261.36 143.94,262.05 144.54,265.52 L144.59,265.58 C145.31,266.43 146.00,268.06 145.11,268.99 C144.39,269.63 143.41,269.93 142.53,270.30 C141.32,271.18 139.58,271.59 138.25,271.83 C126.77,273.96 114.94,274.20 103.38,272.56 L103.19,272.53 C102.38,272.41 101.54,272.24 100.81,271.90 C99.77,273.63 97.79,273.41 96.12,272.92 C94.80,272.60 93.49,272.28 92.18,271.96 L92.05,271.92 C90.03,271.40 87.15,271.25 86.66,268.77 C86.41,267.50 86.42,266.08 86.44,264.79 L86.43,264.37 C86.43,263.28 86.52,261.80 87.75,261.57 C86.04,258.40 86.41,254.49 88.01,251.35 L88.09,251.19 C89.27,249.04 90.00,247.24 89.61,244.69 C88.83,243.96 88.46,242.90 88.17,241.86 C87.57,239.67 87.03,237.46 86.58,235.23 L87.28,233.80 C89.33,229.60 91.35,225.38 92.88,220.96 C93.02,220.55 92.36,220.27 92.18,220.66 C90.24,224.85 87.88,228.84 86.08,233.09 C84.89,235.32 83.46,237.41 81.85,239.35 L81.78,239.45 C81.16,240.31 80.64,240.59 79.61,240.94 C79.45,241.01 79.28,241.01 79.12,240.97 C78.15,242.29 76.96,243.34 76.45,244.92 C75.89,246.67 75.68,248.59 75.57,250.42 C75.51,252.80 76.50,255.04 77.12,257.30 C78.07,260.35 79.14,263.36 80.31,266.33 C80.94,266.58 81.50,266.97 82.03,267.45 C82.47,267.41 82.93,267.61 83.09,268.14 L83.16,268.36 C83.74,270.28 84.23,272.49 83.48,274.41 C81.40,279.06 74.74,280.22 70.18,280.78 C63.42,281.42 56.34,279.81 50.72,275.96 C49.92,275.41 49.38,274.77 49.25,273.79 L49.23,273.66 C49.05,272.01 49.01,270.06 50.16,268.78 C51.13,260.41 52.74,252.05 55.05,243.94 C55.03,243.71 55.02,243.49 55.01,243.26 C53.72,241.91 53.21,240.02 53.07,238.21 C53.05,237.45 53.82,237.29 54.42,237.19 L54.64,237.19 C56.59,237.18 58.60,237.27 60.34,238.00 L60.26,238.00 C60.17,238.01 60.08,238.02 60.01,238.07 C60.88,238.34 61.83,238.47 62.67,238.84 C63.29,238.87 63.82,239.16 64.45,239.21 L64.55,239.22 C64.66,239.23 64.74,239.20 64.80,239.14 C66.48,239.44 68.15,239.84 69.83,240.09 C70.32,240.16 70.52,239.42 70.04,239.35 C67.79,239.02 65.56,238.41 63.30,238.13 C62.80,237.94 62.32,237.69 61.82,237.49 C61.79,237.43 61.73,237.37 61.64,237.32 C61.09,237.07 60.52,236.85 59.94,236.68 C58.44,236.21 56.87,236.02 55.32,235.93 L55.43,234.81 C57.22,216.61 58.53,197.92 65.96,180.97 C64.38,177.32 62.23,173.84 60.85,170.09 C60.28,168.59 59.93,167.06 59.47,165.53 C59.18,164.79 58.93,164.05 58.82,163.27 C57.00,154.94 55.97,146.46 54.89,138.02 C54.17,137.42 53.69,136.56 53.27,135.77 L53.27,135.89 C53.25,137.19 53.06,138.69 51.42,138.65 C50.09,138.62 49.51,137.63 49.22,136.54 C48.64,138.83 46.07,138.95 45.32,136.70 C44.99,135.79 45.00,134.75 44.90,133.80 C44.36,128.57 43.24,123.34 43.57,118.08 C43.23,117.96 42.93,117.70 42.79,117.27 C36.39,97.87 30.69,77.12 34.84,56.65 C39.00,36.59 50.26,14.14 71.53,8.46 C75.84,7.37 80.21,7.00 84.63,6.72 C85.27,5.49 85.68,4.08 85.76,2.69 C85.79,2.29 85.77,1.89 85.77,1.48 C85.77,1.11 85.92,0.67 85.85,0.32 C85.83,0.24 85.95,0.21 85.98,0.29 C86.07,0.53 86.26,0.65 86.39,0.86 C86.71,1.44 86.80,2.13 86.88,2.78 C87.20,5.32 86.48,7.94 84.94,9.97 L84.89,10.04 C84.41,10.68 83.50,11.84 82.57,11.28 C81.75,10.80 82.27,9.82 82.76,9.29 L82.80,9.25 C83.46,8.57 84.01,7.83 84.46,7.03 C82.46,7.57 80.48,8.15 78.49,8.71 L78.39,8.76 C76.83,9.61 74.52,10.52 74.72,12.62 C78.87,25.14 97.22,28.35 108.56,25.36 L108.74,25.32 C110.91,24.72 113.08,23.76 114.55,22.00 L114.62,21.93 C117.24,18.83 117.04,13.70 113.75,11.15 C111.80,9.56 109.11,8.71 106.68,8.16 C107.39,9.33 108.95,10.16 109.24,11.55 C109.31,12.03 109.04,12.48 108.52,12.49 C107.18,12.52 106.19,11.09 105.49,10.13 C104.03,8.12 103.20,5.70 103.02,3.23 C102.93,2.02 103.15,0.94 103.45,-0.21 Z M191.93,22.37 C191.85,22.32 191.89,22.18 191.99,22.22 C195.62,23.72 197.11,29.12 194.37,32.09 C193.46,33.05 192.10,33.60 190.86,33.10 C189.34,32.84 188.45,31.30 188.25,29.88 C188.24,29.82 188.31,29.79 188.36,29.83 L188.36,29.84 C188.94,30.55 189.85,31.02 190.67,31.39 C190.91,31.26 191.16,31.16 191.41,31.10 C191.78,31.02 192.15,31.30 192.11,31.67 C193.82,31.36 194.51,29.32 194.56,27.78 L194.56,27.73 C194.63,25.60 193.67,23.62 191.93,22.37 Z" id="🖍-Ink" fill="#000000"></path></g><g id="Head" stroke-width="1" transform="translate(48.67, 23.03)"><g id="head/Bun"><path d="M15.42,3.39 C23.49,2.95 30.65,0.69 36.33,5.76 C42.45,1.19 46.03,-0.23 47.05,1.51 C48.08,3.26 46.65,5.61 47.03,7.77 C49.53,12.01 49.38,19.19 49.53,20.87 C49.88,25.12 52.12,41.07 52.12,44.86 C52.12,46.80 50.52,51.87 49.53,54.68 C47.31,60.96 43.09,64.16 36.16,64.16 C29.23,64.16 17.92,58.37 14.29,53.24 C13.97,52.79 11.92,54.10 9.77,51.82 C7.44,49.36 6.15,44.65 6.15,41.84 C6.15,38.28 3.84,35.81 4.11,31.26 C4.71,21.08 6.79,3.86 15.42,3.39 Z" id="🎨-Background" fill="#FFFFFF"></path><path d="M14.52,-8.44 C14.63,-8.45 14.73,-8.44 14.84,-8.43 C14.96,-8.43 15.07,-8.41 15.19,-8.39 C15.78,-8.28 16.31,-7.96 16.72,-7.52 C16.73,-7.51 16.74,-7.50 16.75,-7.49 C16.94,-7.34 17.12,-7.18 17.28,-7.00 C17.31,-7.03 17.34,-7.06 17.37,-7.09 C17.45,-7.16 17.54,-7.23 17.63,-7.30 C18.02,-7.63 18.47,-7.87 18.96,-8.00 L19.02,-8.02 C19.04,-8.03 19.05,-8.03 19.06,-8.03 C19.41,-8.15 19.77,-8.20 20.14,-8.20 C20.58,-8.22 21.02,-8.15 21.43,-7.98 C21.91,-7.78 22.33,-7.46 22.69,-7.08 C22.92,-6.89 23.13,-6.68 23.34,-6.45 C23.78,-5.98 24.14,-5.42 24.36,-4.81 C24.39,-4.72 24.42,-4.64 24.44,-4.55 C24.98,-4.61 25.53,-4.65 26.07,-4.68 C26.68,-4.71 27.29,-4.73 27.90,-4.71 C29.59,-4.65 31.24,-4.35 32.84,-3.81 C33.16,-3.72 33.47,-3.60 33.77,-3.45 C34.24,-3.26 34.68,-3.02 35.10,-2.73 L35.46,-2.52 C35.64,-2.42 35.82,-2.31 35.99,-2.20 C36.40,-1.93 36.80,-1.64 37.17,-1.32 C37.56,-1.00 37.93,-0.66 38.28,-0.30 C38.38,-0.20 38.47,-0.10 38.56,-0.00 C39.37,0.44 40.09,1.00 40.77,1.67 C41.30,1.36 41.85,1.08 42.42,0.83 C43.01,0.58 43.76,0.32 44.37,0.14 C44.93,-0.01 45.47,-0.12 46.03,-0.19 C46.28,-0.24 46.53,-0.27 46.79,-0.30 L46.78,-0.30 L46.78,-0.30 C46.96,-0.32 47.14,-0.33 47.32,-0.35 L47.31,-0.35 L47.31,-0.35 C47.39,-0.36 47.47,-0.36 47.54,-0.37 L47.73,-0.38 L47.73,-0.38 C47.79,-0.39 47.87,-0.26 47.87,-0.21 L47.88,-0.16 L47.88,-0.16 C47.92,-0.12 47.96,-0.06 47.99,-0.03 C48.02,-0.03 48.05,-0.04 48.09,-0.04 C48.19,-0.05 48.30,0.13 48.36,0.20 L48.41,0.26 C48.48,0.33 48.54,0.42 48.55,0.51 C48.61,1.04 48.67,1.57 48.73,2.10 C48.75,2.51 48.73,2.91 48.66,3.30 C48.61,3.69 48.56,4.07 48.51,4.45 C48.43,4.72 48.35,4.99 48.27,5.26 C48.23,5.36 48.20,5.46 48.16,5.56 C47.96,6.24 47.72,6.89 47.43,7.53 C47.64,7.76 47.84,8.00 48.02,8.25 C48.06,8.29 48.10,8.34 48.14,8.38 C48.16,8.36 48.17,8.35 48.19,8.34 C48.25,8.31 48.30,8.34 48.34,8.40 C48.74,8.78 49.03,9.23 49.21,9.74 L49.33,10.01 C49.35,10.06 49.36,10.10 49.38,10.14 C49.53,10.53 49.64,10.93 49.73,11.34 C49.81,11.65 49.87,11.98 49.91,12.30 C50.19,13.23 50.41,14.18 50.61,15.12 C50.65,15.26 50.63,15.40 50.58,15.51 L50.70,15.62 L50.70,15.62 L50.91,15.83 C51.26,16.17 51.61,16.54 51.87,16.95 C52.13,17.37 52.33,17.83 52.55,18.28 L52.59,18.38 L52.59,18.38 L52.69,18.57 C52.79,18.78 52.84,18.90 52.93,19.15 C53.09,19.57 53.17,20.00 53.21,20.45 C53.26,21.10 53.26,21.81 52.97,22.42 C52.97,22.43 52.97,22.43 52.96,22.43 C52.83,23.02 52.51,23.57 52.02,23.91 C51.91,24.01 51.80,24.10 51.68,24.17 C51.39,24.34 51.13,24.36 50.81,24.28 L50.77,24.27 C50.73,24.26 50.70,24.25 50.66,24.24 C50.71,24.28 50.74,24.33 50.66,24.37 C50.59,24.40 50.52,24.42 50.46,24.43 C50.48,24.47 50.49,24.50 50.43,24.53 C50.31,24.60 50.21,24.62 50.11,24.60 L50.13,24.78 C50.30,26.13 50.45,26.39 50.58,27.84 C50.66,29.32 50.80,30.79 50.99,32.26 L51.06,32.80 C51.27,34.49 51.51,36.20 51.87,37.86 C52.05,38.59 52.21,39.32 52.34,40.06 C52.53,40.62 52.66,41.20 52.74,41.78 C52.84,42.38 52.92,42.98 52.96,43.59 C53.11,43.97 53.18,44.37 53.17,44.77 C53.19,45.31 53.17,45.85 53.12,46.38 C53.08,46.94 53.01,47.49 52.89,48.04 C52.78,48.79 52.58,49.52 52.29,50.22 C52.07,51.01 51.79,51.78 51.47,52.53 C50.98,53.70 50.38,54.78 49.70,55.85 C49.07,56.85 48.39,57.82 47.61,58.71 C46.60,59.87 45.45,60.93 44.20,61.83 C43.48,62.36 42.72,62.83 41.93,63.24 C40.96,63.74 39.98,64.19 38.93,64.49 C38.28,64.68 37.61,64.81 36.94,64.91 C35.61,65.11 34.24,65.08 32.91,64.85 C32.05,64.73 31.21,64.53 30.41,64.25 C29.76,64.01 29.13,63.74 28.51,63.44 C28.18,63.28 27.87,63.11 27.58,62.90 C27.08,62.58 26.61,62.22 26.17,61.81 C26.03,61.69 25.89,61.57 25.76,61.43 C25.69,61.38 25.73,61.29 25.80,61.27 L25.83,61.27 L25.83,61.27 C25.80,61.24 25.77,61.21 25.74,61.19 C25.73,61.18 25.73,61.18 25.72,61.17 C25.71,61.16 25.69,61.14 25.68,61.13 C25.63,61.09 25.68,60.99 25.72,60.97 C25.74,60.96 25.76,60.96 25.79,60.96 C25.78,60.95 25.78,60.95 25.77,60.95 C25.77,60.94 25.77,60.93 25.77,60.92 L25.75,60.91 L25.75,60.91 C25.68,60.85 25.72,60.76 25.79,60.74 C25.83,60.73 25.89,60.74 25.96,60.75 L25.98,60.76 L25.94,60.72 C25.86,60.65 25.88,60.58 25.98,60.55 C26.05,60.56 26.12,60.57 26.19,60.58 L26.24,60.60 C26.27,60.60 26.29,60.61 26.32,60.62 C26.27,60.58 26.23,60.54 26.19,60.50 C26.14,60.46 26.19,60.36 26.23,60.34 C26.28,60.31 26.38,60.35 26.43,60.38 C26.55,60.39 26.70,60.45 26.76,60.49 C26.91,60.64 27.07,60.78 27.23,60.92 C27.33,60.95 27.43,60.99 27.50,61.06 C27.68,61.23 27.87,61.40 28.07,61.56 L28.22,61.66 C28.24,61.68 28.27,61.70 28.29,61.71 C28.58,61.88 28.86,62.04 29.14,62.21 C30.17,62.55 31.20,62.90 32.22,63.25 L32.36,63.29 L32.36,63.29 L33.36,63.41 L33.36,63.41 C34.01,63.48 34.67,63.48 35.32,63.40 C35.82,63.41 36.30,63.36 36.78,63.26 C37.60,63.12 38.40,62.92 39.18,62.63 C40.08,62.31 40.93,61.88 41.76,61.42 C42.06,61.25 42.36,61.07 42.65,60.88 C42.74,60.82 42.83,60.75 42.93,60.68 C43.54,60.22 44.13,59.72 44.70,59.20 C44.97,58.96 45.22,58.71 45.47,58.44 C45.51,58.40 45.54,58.37 45.58,58.33 C45.81,58.07 46.04,57.80 46.26,57.53 L46.47,57.29 L46.47,57.29 C47.31,56.24 48.06,55.12 48.74,53.96 C49.40,52.80 49.95,51.59 50.39,50.34 C50.53,49.90 50.66,49.44 50.76,48.99 C50.95,48.44 51.07,47.87 51.13,47.30 C51.15,47.18 51.16,47.07 51.18,46.96 L51.19,46.78 C51.19,46.75 51.19,46.72 51.19,46.69 C51.22,46.51 51.24,46.33 51.26,46.15 C51.27,45.97 51.27,45.79 51.27,45.61 L51.26,44.51 L51.26,44.51 C51.26,44.47 51.25,44.44 51.25,44.40 L51.22,44.16 C51.16,43.65 51.11,43.15 51.05,42.64 C51.05,42.64 51.05,42.64 51.05,42.63 C51.03,42.44 51.00,42.26 50.97,42.07 C50.96,41.95 50.94,41.84 50.93,41.73 L50.89,41.53 L50.89,41.53 C50.83,41.19 50.76,40.85 50.67,40.51 L50.64,40.37 L50.41,39.25 L50.16,38.15 C50.00,37.41 49.86,36.67 49.76,35.92 C49.56,34.72 49.39,33.53 49.25,32.32 C49.24,32.27 49.23,32.21 49.23,32.15 C49.08,31.04 48.97,29.92 48.91,28.80 C48.81,27.69 48.76,26.58 48.74,25.47 C48.74,25.42 48.78,25.38 48.82,25.36 L48.81,25.15 C48.81,24.96 48.80,25.18 48.80,24.97 L48.80,24.38 C48.80,24.33 48.80,24.29 48.80,24.29 C48.12,24.34 47.66,24.30 47.00,24.27 L46.88,24.26 C46.28,24.23 45.68,24.17 45.08,24.07 C45.08,24.10 45.06,24.12 45.02,24.12 C44.96,24.13 44.90,24.13 44.84,24.13 L44.86,24.21 L44.86,24.21 C44.87,24.25 44.85,24.28 44.81,24.29 L44.64,24.30 C44.41,24.31 44.18,24.31 43.95,24.28 C43.75,24.26 43.55,24.21 43.35,24.15 C43.23,24.13 43.11,24.10 42.98,24.07 C42.65,23.97 42.33,23.85 42.00,23.75 C41.67,23.68 41.33,23.66 40.98,23.74 C40.61,23.83 40.29,23.99 39.90,23.89 C39.82,23.87 39.74,23.84 39.67,23.81 L39.60,23.81 C39.59,23.81 39.57,23.80 39.56,23.80 C39.15,23.74 38.79,23.49 38.40,23.35 C38.26,23.31 38.13,23.32 38.00,23.38 L37.97,23.39 L37.84,23.49 C37.78,23.55 37.73,23.61 37.68,23.67 L37.61,23.77 C37.47,23.94 37.32,24.09 37.14,24.21 C36.92,24.41 36.66,24.53 36.35,24.53 C36.18,24.54 36.00,24.50 35.83,24.45 C35.20,24.65 34.51,24.68 33.88,24.49 C33.62,24.45 33.38,24.39 33.14,24.28 C33.03,24.23 32.92,24.17 32.81,24.11 C32.36,24.30 31.93,24.55 31.50,24.77 L31.40,24.81 C30.96,25.04 30.47,25.25 29.97,25.22 C29.33,25.18 28.71,25.09 28.09,24.99 C28.09,24.99 28.08,24.99 28.08,24.98 L27.99,24.97 L27.99,24.97 L27.68,24.92 L27.68,24.92 L27.43,24.87 L27.43,24.87 L27.30,24.92 C26.28,25.31 25.15,25.61 24.12,25.34 C23.67,25.28 23.25,25.13 22.87,24.87 C22.86,24.86 22.84,24.86 22.83,24.85 C22.77,24.82 22.71,24.78 22.66,24.74 L22.65,24.74 L22.65,24.74 L22.64,24.73 L22.64,24.72 C22.08,24.47 21.75,23.92 21.81,23.30 C21.77,23.10 21.78,22.91 21.81,22.71 C21.63,22.92 21.44,23.14 21.25,23.35 C20.56,24.18 19.88,25.03 19.25,25.92 L19.11,26.12 C18.76,26.61 18.44,27.12 18.14,27.63 C17.84,28.15 17.53,28.66 17.22,29.16 C16.80,29.61 16.40,30.08 16.01,30.56 L15.85,30.77 L15.29,31.50 C14.90,31.97 14.57,32.48 14.32,33.03 C14.11,33.42 13.91,33.82 13.73,34.23 C13.68,34.36 13.62,34.48 13.57,34.61 C13.39,35.10 13.24,35.60 13.12,36.11 C13.02,36.48 12.96,36.86 12.92,37.25 L12.90,37.37 C12.89,37.52 12.88,37.68 12.87,37.83 C12.91,37.85 12.94,37.87 12.96,37.89 L13.05,37.92 L13.05,37.92 L13.13,37.95 C13.25,37.98 13.45,38.06 13.40,38.15 L13.15,38.62 L13.15,38.62 C13.18,38.65 13.19,38.68 13.18,38.71 C13.01,39.02 12.84,39.34 12.68,39.66 C12.67,39.67 12.66,39.68 12.65,39.68 C12.80,39.75 12.93,39.82 13.07,39.90 C13.32,40.05 13.51,40.23 13.69,40.44 C13.87,40.55 14.05,40.67 14.21,40.81 C14.41,41.02 14.59,41.25 14.74,41.50 C14.88,41.74 14.99,41.99 15.08,42.25 C15.12,42.39 15.13,42.53 15.13,42.67 C14.98,43.76 13.73,43.02 13.70,42.92 C13.53,42.26 13.33,41.84 12.89,41.35 L12.88,41.34 L12.88,41.34 C12.62,41.23 12.37,41.12 12.10,41.03 C12.06,41.04 12.02,41.05 11.98,41.05 C12.03,41.12 12.01,41.18 11.91,41.19 C11.51,41.27 11.10,41.29 10.69,41.26 L10.07,41.17 L10.07,41.17 C9.81,41.27 9.56,41.40 9.33,41.55 L9.25,41.60 L9.24,41.61 C8.64,42.09 8.18,42.73 7.86,43.43 C7.83,43.49 7.80,43.56 7.78,43.62 L7.74,43.72 L7.74,43.72 C7.32,45.35 7.69,47.14 8.45,48.62 C8.86,49.28 9.30,49.93 9.75,50.56 L10.18,51.13 L10.18,51.13 C10.44,51.38 10.70,51.63 10.94,51.88 C10.98,51.92 11.02,51.96 11.06,52.00 C11.20,52.08 11.33,52.16 11.46,52.22 C11.52,52.24 11.57,52.25 11.62,52.27 C11.89,52.39 12.16,52.46 12.45,52.47 C12.83,52.49 13.20,52.45 13.55,52.34 L13.63,52.31 L13.68,52.29 C13.87,52.17 14.05,52.01 14.23,51.83 C14.26,51.79 14.34,51.79 14.42,51.81 C14.46,51.77 14.51,51.72 14.55,51.67 C14.58,51.64 14.63,51.63 14.66,51.66 C14.78,51.64 15.11,51.83 15.03,51.93 C15.01,51.95 14.99,51.97 14.98,52.00 C15.04,52.02 15.09,52.06 15.15,52.09 C15.41,52.17 15.81,52.44 15.78,52.52 L15.78,52.52 C15.71,52.64 15.63,52.74 15.53,52.82 L15.50,52.84 L15.42,52.89 C15.53,52.96 15.62,53.04 15.57,53.09 C15.55,53.13 15.53,53.17 15.51,53.20 C15.72,53.47 15.94,53.74 16.16,54.02 C16.37,54.48 16.64,54.92 16.95,55.32 C17.22,55.76 17.54,56.15 17.91,56.50 C17.94,56.53 17.97,56.56 18.00,56.59 C18.28,56.79 18.57,56.98 18.87,57.16 L18.99,57.24 C19.06,57.28 19.18,57.33 19.12,57.43 C19.12,57.44 19.11,57.46 19.10,57.46 C19.29,57.59 19.48,57.70 19.68,57.81 L19.70,57.82 C19.78,57.87 19.88,57.96 19.77,58.03 C19.68,58.09 19.44,57.92 19.32,57.85 C19.30,57.85 19.27,57.84 19.25,57.83 C19.29,57.85 19.32,57.88 19.36,57.90 L19.42,57.93 C19.47,57.96 19.69,58.10 19.53,58.16 C19.46,58.17 19.39,58.15 19.32,58.11 C19.25,58.07 19.17,58.03 19.10,57.99 C19.13,58.03 19.13,58.07 19.06,58.09 C19.04,58.10 19.02,58.09 19.00,58.09 C19.15,58.19 19.30,58.28 19.46,58.36 L19.49,58.38 C19.56,58.42 19.67,58.51 19.59,58.58 C19.50,58.66 19.25,58.49 19.19,58.45 L19.01,58.34 L19.01,58.34 C18.99,58.34 18.98,58.35 18.96,58.35 C19.02,58.38 19.07,58.42 19.13,58.45 L19.20,58.50 C19.30,58.55 19.44,58.64 19.39,58.73 C19.34,58.82 19.19,58.74 19.09,58.69 L18.99,58.62 C18.99,58.62 18.98,58.62 18.98,58.61 L18.97,58.63 C18.97,58.63 18.97,58.63 18.97,58.64 C18.92,58.72 18.80,58.67 18.72,58.62 L18.65,58.58 C18.54,58.51 18.42,58.44 18.31,58.37 L18.15,58.27 L18.14,58.27 C17.57,57.92 17.03,57.58 16.53,57.13 C16.23,56.87 15.95,56.59 15.68,56.28 C15.15,55.68 14.75,54.99 14.36,54.29 C14.36,54.28 14.37,54.25 14.38,54.22 C14.34,54.13 14.30,54.04 14.26,53.95 C13.86,54.06 13.42,54.09 13.02,54.07 C12.80,54.05 12.58,54.01 12.37,53.96 C11.69,53.86 11.03,53.55 10.46,53.18 C10.42,53.15 10.39,53.13 10.36,53.11 C10.12,52.97 9.90,52.82 9.69,52.65 C9.28,52.30 8.88,51.93 8.53,51.53 C8.27,51.22 8.02,50.91 7.79,50.58 C7.56,50.25 7.32,49.92 7.09,49.60 C6.43,48.57 6.02,47.40 5.85,46.19 C5.77,45.75 5.73,45.30 5.74,44.85 C5.75,44.53 5.78,44.20 5.85,43.87 C5.81,43.84 5.77,43.80 5.74,43.76 C5.71,43.80 5.69,43.83 5.68,43.81 L5.39,43.52 C5.18,43.31 5.04,43.16 4.80,42.82 C4.42,42.28 4.13,41.68 3.92,41.05 C3.77,40.61 3.67,40.10 3.63,39.60 C3.62,39.52 3.60,39.44 3.59,39.35 C3.51,38.69 3.59,38.05 3.69,37.39 C3.70,37.35 3.72,37.32 3.75,37.31 C3.75,37.26 3.76,37.20 3.77,37.15 C2.92,36.25 2.31,35.17 2.36,33.87 C2.38,33.45 2.46,33.05 2.62,32.67 L2.64,32.63 L2.64,32.63 C1.94,32.52 1.37,32.02 0.95,31.41 C0.91,31.38 0.88,31.35 0.84,31.32 C0.09,30.67 -0.43,29.76 -0.79,28.80 C-1.05,28.24 -1.22,27.64 -1.29,27.02 C-1.30,26.98 -1.30,26.93 -1.30,26.89 C-1.48,25.91 -1.52,24.92 -1.44,23.95 C-1.62,23.34 -1.76,22.73 -1.86,22.10 C-1.91,21.80 -1.94,21.50 -1.96,21.20 L-1.96,21.19 L-1.97,21.13 L-1.98,21.00 C-1.98,20.98 -1.98,20.95 -1.98,20.93 C-2.20,18.19 -1.59,15.49 -0.57,12.96 C-0.48,12.73 -0.39,12.50 -0.30,12.27 L-0.20,12.04 L-0.20,12.04 C0.82,10.40 2.35,9.07 3.64,7.67 C4.09,7.19 3.37,6.46 2.92,6.95 C2.06,7.88 1.14,8.77 0.30,9.73 C0.16,9.74 0.01,9.74 -0.14,9.73 C-0.40,9.72 -0.64,9.68 -0.88,9.62 C-1.49,9.53 -2.03,9.29 -2.53,8.93 C-3.19,8.62 -3.76,8.04 -3.82,7.28 C-3.82,7.20 -3.82,7.12 -3.82,7.05 C-3.88,6.68 -3.82,6.29 -3.67,5.93 C-3.64,5.83 -3.61,5.73 -3.56,5.63 C-3.44,5.35 -3.23,5.08 -2.97,4.89 C-2.97,4.89 -2.96,4.88 -2.96,4.88 C-2.93,4.85 -2.90,4.82 -2.87,4.80 C-2.83,4.76 -2.78,4.72 -2.74,4.69 C-2.91,4.40 -3.06,4.11 -3.20,3.80 C-3.34,3.46 -3.42,3.12 -3.46,2.76 C-3.47,2.61 -3.48,2.47 -3.48,2.33 C-3.49,2.26 -3.50,2.20 -3.50,2.13 C-3.53,1.62 -3.47,1.10 -3.28,0.63 C-3.27,0.59 -3.25,0.55 -3.24,0.52 C-3.20,0.41 -3.16,0.30 -3.11,0.20 C-2.92,-0.21 -2.65,-0.55 -2.32,-0.83 C-2.14,-1.01 -1.94,-1.17 -1.72,-1.30 C-1.59,-1.38 -1.45,-1.46 -1.29,-1.51 C-1.01,-1.66 -0.66,-1.79 -0.37,-1.80 C-0.34,-1.80 -0.31,-1.80 -0.27,-1.80 C-0.25,-2.54 -0.15,-3.33 0.14,-4.00 C0.31,-4.48 0.56,-4.91 0.94,-5.22 C1.17,-5.45 1.44,-5.64 1.78,-5.76 L1.84,-5.78 L1.86,-5.79 C2.17,-5.94 2.50,-5.99 2.84,-5.99 C3.23,-6.01 3.64,-5.94 3.98,-5.76 C4.05,-5.72 4.13,-5.67 4.20,-5.62 C4.26,-5.73 4.32,-5.84 4.39,-5.95 C4.64,-6.35 4.94,-6.69 5.28,-7.01 C5.32,-7.04 5.37,-7.08 5.41,-7.11 C5.58,-7.26 5.76,-7.41 5.94,-7.53 C6.34,-7.81 6.78,-8.02 7.24,-8.15 C7.76,-8.34 8.32,-8.43 8.88,-8.42 L9.00,-8.41 L9.00,-8.41 C9.02,-8.41 9.05,-8.41 9.07,-8.41 C9.63,-8.37 10.17,-8.23 10.70,-8.03 C11.24,-7.82 11.70,-7.49 12.12,-7.12 C12.22,-7.26 12.34,-7.39 12.48,-7.51 C12.52,-7.55 12.56,-7.58 12.60,-7.61 C12.63,-7.64 12.66,-7.67 12.69,-7.70 C12.85,-7.83 13.01,-7.95 13.19,-8.05 C13.38,-8.17 13.60,-8.25 13.82,-8.30 C14.04,-8.38 14.28,-8.42 14.52,-8.44 Z M11.89,44.30 C11.91,44.30 13.10,44.74 13.69,45.03 L13.72,45.04 C14.40,45.38 14.73,45.62 15.34,46.06 C15.38,46.09 15.42,46.13 15.42,46.17 C15.42,46.81 15.27,47.58 14.74,47.24 C14.66,47.19 14.58,47.14 14.51,47.09 L14.39,47.02 L14.39,47.02 C14.39,47.02 14.39,47.02 14.39,47.02 C13.23,46.31 12.01,45.76 10.72,45.36 C10.63,45.33 11.28,44.35 11.46,44.40 C11.36,44.36 11.87,44.30 11.89,44.30 Z M24.06,16.40 C23.29,16.48 22.52,16.56 21.75,16.64 C21.26,16.70 20.76,16.75 20.27,16.79 C19.53,16.84 18.79,16.85 18.06,16.75 C17.80,16.72 17.54,16.66 17.29,16.60 C17.11,16.73 16.93,16.85 16.75,16.96 L14.72,18.52 L14.72,18.52 C13.35,19.59 12.02,20.72 10.82,21.97 C8.72,24.16 7.01,26.72 5.94,29.56 C5.84,29.61 5.76,29.71 5.74,29.87 C5.55,31.03 4.99,32.09 4.79,33.25 C4.60,34.39 4.86,35.36 5.57,36.26 C5.73,36.45 6.04,36.44 6.23,36.31 C6.28,36.40 6.47,36.40 6.54,36.01 C6.86,35.67 7.13,35.30 7.32,34.86 C7.45,34.53 7.22,34.30 6.95,34.25 C7.06,33.84 7.19,33.43 7.34,33.02 C7.77,31.81 8.32,30.66 9.01,29.58 C9.62,28.63 10.33,27.80 11.09,26.97 C11.10,26.95 11.11,26.95 11.13,26.95 L11.29,26.77 L11.29,26.77 C11.31,26.75 11.35,26.75 11.40,26.76 C11.45,26.71 11.50,26.66 11.54,26.61 C11.59,26.56 11.64,26.58 11.67,26.62 C11.75,26.60 11.90,26.69 11.95,26.72 C12.02,26.77 12.05,26.82 11.98,26.90 C11.97,26.91 11.96,26.92 11.95,26.93 C12.04,26.97 12.12,27.02 12.19,27.07 C12.43,27.12 12.76,27.34 12.70,27.41 C12.58,27.53 12.46,27.66 12.35,27.80 C12.45,27.87 12.52,27.94 12.49,27.97 C11.99,28.49 11.53,29.05 11.11,29.64 C10.79,30.08 10.49,30.54 10.23,31.02 C9.85,31.69 9.52,32.39 9.23,33.10 C9.19,33.21 9.15,33.32 9.11,33.43 C8.68,34.61 8.37,35.85 8.23,37.10 L8.23,37.19 C8.20,37.64 8.19,38.85 8.15,39.14 C8.43,39.28 8.72,39.40 9.03,39.50 C9.09,39.51 9.15,39.53 9.20,39.54 C9.24,39.53 9.27,39.52 9.31,39.51 C9.59,39.39 9.88,39.31 10.18,39.27 C10.39,39.25 10.59,39.24 10.79,39.24 L10.88,39.24 C10.97,39.25 11.06,39.25 11.15,39.26 C11.14,39.21 11.14,39.16 11.13,39.11 C11.11,39.09 11.09,39.07 11.09,39.04 C11.03,38.46 11.03,37.89 11.08,37.31 C11.12,37.01 11.17,36.71 11.22,36.41 C11.27,36.17 11.32,35.93 11.39,35.68 C11.55,35.01 11.77,34.35 12.04,33.70 C12.81,31.85 13.91,30.19 15.01,28.53 C15.82,27.32 16.58,26.09 17.41,24.90 C18.12,23.89 18.87,22.89 19.66,21.94 C20.46,21.00 21.30,20.09 22.20,19.25 C22.35,19.11 22.49,18.98 22.64,18.85 C23.50,18.09 24.43,17.46 25.41,16.84 C25.44,16.81 25.51,16.84 25.56,16.89 L25.72,16.79 C25.75,16.77 25.77,16.76 25.80,16.74 C25.82,16.73 25.85,16.75 25.86,16.77 C25.93,16.74 26.00,16.71 26.06,16.67 C26.11,16.63 26.16,16.60 26.21,16.56 C25.49,16.52 24.77,16.47 24.06,16.40 Z M33.08,7.87 C32.50,7.75 31.92,7.74 31.33,7.82 C31.09,7.86 30.84,7.90 30.60,7.96 C31.15,8.44 31.59,9.05 31.88,9.76 C32.19,10.52 30.95,10.85 30.65,10.10 C30.35,9.37 29.79,8.81 29.12,8.48 C28.97,8.56 28.83,8.65 28.69,8.75 C28.52,8.89 28.35,9.04 28.19,9.21 C27.85,9.58 27.54,10.08 27.34,10.57 C27.26,10.83 27.20,11.11 27.16,11.39 C27.15,11.45 27.14,11.52 27.14,11.58 C27.01,12.91 27.39,14.19 28.04,15.33 L28.07,15.33 L28.07,15.33 C28.65,15.02 29.26,14.75 29.89,14.54 C30.39,14.20 30.91,13.89 31.45,13.61 C32.59,13.00 33.79,12.54 35.03,12.22 L35.18,12.19 C35.47,12.11 35.76,12.05 36.06,11.99 L36.24,11.96 L36.24,11.96 L36.22,11.77 L36.22,11.77 C36.12,11.02 35.83,10.32 35.45,9.68 C35.17,9.20 34.74,8.70 34.26,8.30 L34.26,8.30 C34.04,8.18 33.81,8.08 33.58,7.99 L33.49,7.96 L33.08,7.87 Z M17.47,6.73 C16.26,6.62 15.05,6.63 13.85,6.73 C13.05,6.81 12.27,6.92 11.49,7.05 C10.96,7.14 10.44,7.27 9.93,7.43 L10.22,8.02 C10.71,9.00 11.21,9.98 11.80,10.90 C12.10,11.38 12.43,11.83 12.79,12.27 C13.03,12.58 13.30,12.87 13.59,13.14 C13.67,13.23 13.75,13.32 13.83,13.40 C14.10,13.63 14.38,13.83 14.70,14.00 C14.95,14.18 15.21,14.34 15.49,14.48 L15.59,14.53 L16.55,14.90 C16.60,14.91 16.65,14.93 16.71,14.94 L16.78,14.96 L16.93,14.99 L17.04,14.93 C17.06,14.92 17.08,14.91 17.09,14.90 C17.13,14.89 17.15,14.92 17.15,14.94 C17.16,14.95 17.15,14.96 17.15,14.98 L17.29,14.90 L17.29,14.90 C17.53,15.00 17.78,15.08 18.06,15.13 C18.18,15.15 18.30,15.17 18.43,15.19 L18.44,15.20 C18.45,15.20 18.45,15.20 18.45,15.20 L18.59,15.20 L18.59,15.20 C19.55,15.30 20.52,15.17 21.47,15.00 C22.83,14.87 24.18,14.72 25.53,14.58 C25.56,14.57 25.57,14.58 25.57,14.60 L25.65,14.60 L25.65,14.60 C25.77,14.58 25.91,14.78 25.82,14.86 C25.89,14.90 25.96,14.96 26.02,15.01 L26.05,15.01 C25.86,14.65 25.72,14.27 25.62,13.87 L25.48,13.21 L25.48,13.21 C25.45,12.96 25.43,12.70 25.42,12.44 C25.42,12.32 25.41,12.21 25.41,12.11 C25.41,12.02 25.41,11.93 25.41,11.83 C25.16,11.73 24.90,11.64 24.64,11.56 C23.89,11.47 23.14,11.37 22.39,11.28 C21.94,11.30 21.49,11.33 21.04,11.38 C20.53,11.43 20.03,11.48 19.52,11.55 C19.47,11.56 19.39,11.49 19.34,11.42 L19.12,11.45 L19.12,11.45 C19.01,11.46 18.89,11.24 19.04,11.19 C19.09,11.17 19.15,11.15 19.20,11.13 L19.28,11.10 L19.24,11.11 C19.22,11.11 19.20,11.11 19.18,11.10 C19.06,11.11 18.94,11.13 18.82,11.14 C18.67,11.16 18.71,10.96 18.81,10.92 L18.86,10.90 C18.77,10.84 18.70,10.69 18.81,10.64 L18.82,10.64 C18.87,10.62 18.92,10.60 18.97,10.58 C18.97,10.57 18.97,10.55 18.97,10.54 L18.76,10.56 L18.76,10.56 C18.74,10.57 18.84,10.43 18.88,10.40 L18.89,10.40 L18.99,10.37 C19.00,10.33 19.09,10.23 19.11,10.22 C19.49,10.11 19.83,10.00 20.19,9.92 C20.21,9.90 20.23,9.88 20.25,9.88 C20.48,9.82 20.71,9.78 20.94,9.74 C20.95,9.72 20.97,9.70 20.98,9.70 C21.55,9.63 22.11,9.62 22.68,9.65 C22.79,9.66 22.90,9.68 23.01,9.69 C23.22,9.71 23.43,9.74 23.64,9.78 C24.15,9.87 24.66,10.01 25.16,10.19 L25.27,10.23 C25.39,10.28 25.52,10.33 25.64,10.38 C25.70,10.16 25.78,9.95 25.87,9.73 C25.88,9.69 25.90,9.65 25.91,9.61 L25.79,9.54 L25.79,9.54 C25.76,9.59 25.71,9.63 25.67,9.61 C24.78,9.01 23.84,8.51 22.85,8.11 C22.29,7.86 21.72,7.66 21.14,7.48 C20.85,7.39 20.56,7.30 20.26,7.22 C20.12,7.19 19.97,7.16 19.82,7.14 C19.05,6.93 18.27,6.79 17.47,6.73 Z M46.80,8.76 C46.69,8.95 46.58,9.13 46.46,9.32 C45.88,10.20 45.19,11.03 44.40,11.76 C44.61,11.76 44.81,11.76 45.02,11.78 C45.36,11.82 45.71,11.87 46.04,11.95 C46.07,11.93 46.10,11.92 46.12,11.94 L46.21,12.00 L46.21,12.00 C46.92,12.19 47.59,12.49 48.20,12.90 L48.19,12.82 C48.19,12.81 48.18,12.79 48.18,12.78 C48.19,12.62 48.19,12.47 48.19,12.31 C48.06,11.39 47.75,10.54 47.39,9.68 C47.38,9.66 47.39,9.64 47.40,9.62 C47.22,9.32 47.02,9.04 46.80,8.76 Z M46.97,1.51 C46.70,1.56 46.43,1.62 46.17,1.70 C45.68,1.78 45.20,1.91 44.73,2.09 C44.09,2.32 43.47,2.58 42.86,2.86 C41.66,3.40 40.53,4.09 39.51,4.92 C39.44,4.97 39.38,5.02 39.32,5.07 C39.09,5.27 38.87,5.47 38.65,5.69 C38.43,5.93 38.21,6.17 37.99,6.41 C37.72,6.70 37.40,6.96 37.16,7.26 C37.11,7.33 37.07,7.39 37.03,7.46 L37.17,7.51 L37.17,7.51 C37.29,7.55 37.27,7.78 37.15,7.75 C37.11,7.74 37.07,7.72 37.03,7.71 C37.05,7.73 37.06,7.75 37.06,7.77 C37.07,7.83 37.02,7.92 36.95,7.89 C36.91,7.89 36.88,7.87 36.84,7.86 C36.83,7.90 36.83,7.94 36.83,7.98 C36.83,7.98 36.84,7.98 36.85,7.98 C36.93,8.01 37.09,8.14 37.11,8.23 C37.13,8.30 37.07,8.38 37.00,8.36 C36.94,8.34 36.89,8.32 36.83,8.29 C36.87,8.33 36.90,8.36 36.90,8.40 C36.90,8.45 36.85,8.54 36.78,8.52 C36.65,8.48 36.55,8.43 36.46,8.36 C36.44,8.39 36.40,8.41 36.38,8.41 L36.33,8.39 L36.33,8.39 C36.34,8.40 36.35,8.42 36.36,8.43 L36.38,8.45 C36.74,8.83 37.04,9.25 37.29,9.71 C37.30,9.69 37.32,9.68 37.34,9.67 C37.45,9.57 37.57,9.48 37.69,9.38 L37.72,9.35 L37.72,9.35 L37.76,9.32 L37.49,9.41 L37.50,9.40 C37.52,9.38 37.58,9.30 37.61,9.27 L37.61,9.27 C37.98,8.94 38.38,8.66 38.81,8.43 C39.09,8.25 39.39,8.10 39.70,7.97 C40.43,7.63 41.18,7.37 41.95,7.13 C42.07,7.09 42.19,7.05 42.30,7.01 C42.33,7.00 42.34,7.02 42.34,7.04 L42.40,7.02 L42.40,7.02 C42.50,6.99 42.69,7.18 42.61,7.27 C42.66,7.30 42.70,7.34 42.74,7.38 L42.77,7.41 L42.80,7.40 C42.89,7.37 43.04,7.51 43.14,7.61 L43.21,7.69 C43.27,7.75 43.38,7.87 43.24,7.92 L43.08,7.97 L43.08,7.97 C43.08,8.01 43.07,8.03 43.02,8.05 C42.96,8.07 42.90,8.09 42.85,8.11 C42.88,8.14 42.92,8.17 42.95,8.21 L43.00,8.25 C43.06,8.31 43.19,8.44 43.07,8.50 L43.06,8.51 L42.90,8.56 C42.92,8.61 42.91,8.65 42.85,8.68 C41.93,8.99 41.03,9.36 40.15,9.77 C39.49,10.13 38.80,10.41 38.07,10.58 C38.01,10.60 37.88,10.51 37.82,10.42 L37.71,10.45 C37.70,10.46 37.68,10.46 37.66,10.47 L37.64,10.47 L37.64,10.47 C37.78,10.84 37.88,11.23 37.94,11.61 C37.94,11.65 37.95,11.69 37.95,11.72 C38.09,11.71 38.24,11.70 38.38,11.69 C39.37,11.64 40.38,11.67 41.37,11.79 C41.77,11.55 42.16,11.29 42.53,11.00 C42.64,10.91 42.76,10.83 42.87,10.73 C43.53,10.16 44.12,9.52 44.65,8.82 C45.15,8.18 45.57,7.49 45.93,6.77 C46.25,6.09 46.51,5.38 46.71,4.65 C46.89,3.98 46.95,3.34 47.00,2.65 C47.02,2.53 47.03,2.42 47.03,2.31 L47.03,2.26 L47.03,2.26 L47.03,2.24 C47.02,1.99 46.99,1.75 46.97,1.51 Z M37.58,10.08 C37.55,10.09 37.52,10.10 37.49,10.11 C37.51,10.15 37.53,10.19 37.54,10.23 L37.55,10.23 L37.55,10.23 L37.67,10.13 L37.67,10.13 C37.64,10.12 37.61,10.10 37.58,10.08 Z M46.79,-0.30 C47.02,-0.39 47.19,-0.40 47.31,-0.35 C47.14,-0.34 46.96,-0.32 46.79,-0.30 Z" id="🖍-Ink" fill="#000000"></path></g><g id="face/Smiling" transform="translate(20.36, 23.79)" fill="#000000"><path d="M18.77,30.82 C17.91,30.47 17.14,29.88 16.58,29.14 C16.39,28.88 16.34,28.60 16.38,28.35 C16.42,28.07 16.59,27.81 16.82,27.64 C17.05,27.47 17.33,27.39 17.61,27.43 C17.85,27.47 18.09,27.60 18.28,27.87 L18.32,27.92 C18.65,28.38 19.09,28.75 19.58,28.98 C20.06,29.21 20.60,29.32 21.15,29.26 C22.20,29.14 22.93,28.57 23.70,27.80 C23.80,27.70 23.89,27.60 23.99,27.50 C24.05,27.41 24.13,27.35 24.23,27.32 C24.33,27.28 24.45,27.28 24.56,27.32 C24.66,27.36 24.75,27.42 24.81,27.52 C24.87,27.60 24.91,27.71 24.90,27.83 C24.83,28.63 24.41,29.35 23.81,29.91 C23.15,30.53 22.27,30.96 21.45,31.11 C20.54,31.28 19.61,31.16 18.77,30.82 L18.77,30.82 Z M21.88,18.47 C22.84,19.06 24.32,20.42 23.28,21.88 C22.05,23.16 20.29,21.69 19.42,21.03 C18.61,20.51 17.71,21.84 18.46,22.44 C24.74,27.08 27.28,18.62 22.37,17.78 C21.82,17.68 21.62,18.29 21.88,18.47 Z M10.63,13.07 C10.73,11.74 12.75,11.44 12.95,12.75 C13.13,13.93 12.92,15.01 12.39,16.06 C11.89,17.07 10.61,16.60 10.52,15.68 C10.39,14.45 10.56,13.89 10.63,13.07 Z M26.00,12.48 C26.28,12.11 26.69,11.86 27.18,12.00 C28.70,12.45 28.25,14.61 27.72,15.66 C27.43,16.23 26.49,16.37 26.06,15.87 C25.37,15.05 25.04,13.41 25.92,12.61 C25.94,12.57 25.97,12.52 26.00,12.48 Z M12.37,7.27 L12.61,7.23 C13.35,7.10 14.28,6.98 14.81,7.57 C15.08,7.89 15.18,8.48 14.81,8.78 C14.15,9.32 13.42,9.11 12.63,9.15 C11.97,9.19 11.35,9.30 10.72,9.48 C9.34,9.87 8.22,10.59 7.04,11.38 C6.89,11.48 6.73,11.28 6.81,11.14 C7.49,9.81 8.80,8.72 10.12,8.05 C10.82,7.70 11.59,7.41 12.37,7.27 Z M24.62,6.68 L24.80,6.71 C26.80,7.13 29.40,7.97 30.35,9.93 C30.39,10.21 30.35,10.27 30.32,10.31 L30.31,10.32 C30.28,10.35 30.26,10.40 30.14,10.44 C30.11,10.43 30.07,10.42 30.04,10.41 C29.61,10.30 29.26,10.14 28.93,9.98 L28.57,9.80 C28.15,9.60 27.73,9.40 27.28,9.25 C26.32,8.94 25.34,8.72 24.34,8.60 C24.13,8.58 23.92,8.51 23.75,8.38 C23.60,8.26 23.48,8.10 23.42,7.88 C23.35,7.60 23.37,7.38 23.52,7.13 C23.64,6.94 23.80,6.80 23.99,6.73 C24.18,6.65 24.40,6.63 24.62,6.68 Z" id="🖍-Ink"></path></g></g></g></g></g></svg>