<?xml version="1.0" encoding="UTF-8"?>
<svg width="168px" height="348px" viewBox="0 0 168 348" version="1.1" xmlns="http://www.w3.org/2000/svg" xmlns:xlink="http://www.w3.org/1999/xlink">
    <!-- Generator: Sketch 62 (91390) - https://sketch.com -->
    <title>mix-1</title>
    <desc>Created with Sketch.</desc>
    <g id="Mix-N-Match" stroke="none" stroke-width="1" fill="none" fill-rule="evenodd">
        <g id="Artboard" transform="translate(-62.000000, -167.000000)">
            <g id="a-person/standing" transform="translate(168.500000, 363.500000) scale(-1, 1) translate(-168.500000, -363.500000) translate(93.000000, 153.000000)">
                <g id="pose/standing/pointing_finger-1" transform="translate(-18.570823, 81.104224)">
                    <path d="M104.421674,139.592679 C104.28028,144.727256 103.450484,149.84497 102.826248,154.950164 C102.326885,159.996082 101.384768,165.090035 100.62836,170.042439 C100.598006,170.908081 99.4072959,171.329021 98.8319846,170.685283 C98.8469694,159.426184 101.85493,147.87313 100.789477,136.37833 C101.648346,135.898752 102.522712,135.368329 103.356862,134.838289 C104.481997,136.322886 104.606358,138.037052 104.421674,139.592679 M59.9793901,73.2114814 C58.6927522,77.8874318 55.9665555,81.9179829 54.7725156,86.6007041 L53.5117489,86.4752524 C52.8913553,76.1455438 54.6353477,65.9968588 56.6721187,56.0146335 L57.9394172,56.089368 C58.3865258,61.8421334 61.3250703,67.2912342 59.9793901,73.2114814 M198.7936,35.1635896 C198.72508,34.9711963 198.655536,34.7750981 198.590346,34.576445 L197.852252,34.7342177 C199.227261,32.1270707 197.944978,31.2692213 196.389127,29.1138026 L196.219684,29.5053601 L195.621064,28.19591 C195.50221,27.8633736 195.380796,27.5810434 195.05254,27.4567414 C194.731841,25.8275301 193.777301,24.3355235 192.506032,23.5250697 L192.262562,23.7988406 C191.758717,23.3580989 191.151387,23.1903615 190.57313,22.9862151 C191.814301,21.1109548 192.612718,18.6780605 193.449686,16.667384 C194.131171,14.5556562 195.196624,12.5062711 195.396805,10.3649051 C195.235687,8.30696057 193.292282,9.64374939 192.344402,10.6702305 C189.449019,13.2113301 186.955405,17.2358769 185.086796,22.1233833 C181.877886,21.2878903 180.037069,22.1695015 179.14567,26.5573728 C178.325096,29.5381922 177.486335,32.5956622 177.37555,35.6860921 C176.944707,35.5381562 176.180486,34.9817996 175.767573,35.41807 C168.635737,43.2273747 160.214829,49.2436909 152.070947,55.8281168 C145.916577,51.2974196 142.713942,42.3337549 139.329186,35.6048423 C133.424432,24.0552373 127.519551,7.1468517 112.331436,7.20638377 C110.318615,6.99636075 108.352797,6.75554969 106.452682,6.17057684 C105.716893,5.97051842 104.807307,5.72957961 104.557561,5.28232257 C104.107507,3.84179975 104.022209,2.28310706 103.230964,0.96203164 C101.059715,-2.57003423 96.3555334,-2.84763764 92.6692891,-2.08074704 C86.4106657,-0.919999406 86.5681975,-1.5975919 86.1163502,4.98990001 C85.9808472,6.55370276 84.7696454,6.77765066 83.4766038,7.10150001 C82.0086123,7.56472595 80.5130847,7.94325283 79.0042374,8.24819501 C79.1608727,8.20412084 79.3173799,8.16055767 79.4740152,8.11622799 C54.9792281,8.50459172 38.7155419,36.9392039 35.4890856,57.055806 C31.7416216,77.6365284 36.5886064,100.541046 44.2514401,117.826808 C43.9224164,124.12175 45.1564155,130.445308 45.9376708,136.649802 C46.4280686,138.202107 48.125826,138.353236 48.6112289,136.555138 C48.6112289,136.555138 49.2095936,134.188419 49.2095936,134.188419 L49.8500949,136.544151 C50.2562196,138.001793 50.908888,138.175023 51.4961102,138.184988 C52.2245987,138.184988 52.6239355,137.825752 52.6478854,135.930434 L53.8544766,135.640184 C54.3193875,136.526649 54.7810966,137.310531 55.5116344,137.855645 C56.9806505,148.542802 57.9027879,159.654987 61.4685139,169.996193 C62.8903986,173.833967 65.0739431,177.318382 66.6775656,181.083594 C59.1165512,198.162016 57.8491246,217.087338 56.0336666,235.373393 C56.1796717,235.384763 56.930061,235.450683 57.0902824,235.464352 L56.676217,236.565695 C56.1107675,236.804973 55.7784138,237.309335 55.607178,237.867608 C55.2257718,237.836054 53.6345724,237.847934 53.7232001,238.212664 C53.9072433,240.361057 54.5091941,241.893816 55.6498269,243.012533 C55.665452,243.357078 55.6865843,243.708522 55.7132238,244.034671 C53.4504011,251.936212 51.7922187,260.359617 50.7846556,269.045422 C49.5037811,270.278733 49.1832103,274.335601 51.0935716,275.417781 C56.3674291,279.051793 63.4517497,280.777328 70.1218769,280.122092 C77.3405478,279.438623 85.9498532,276.560388 82.4952959,268.321328 C82.4505979,268.065698 82.1000576,268.053434 81.8236725,268.109261 C81.2117319,267.51509 80.5483053,267.065789 79.8307031,266.813353 C78.4048481,263.249732 77.1224367,259.513137 76.0038328,255.782546 C75.4588752,254.069146 74.8953468,252.297364 74.9417098,250.418527 C75.211435,245.804536 75.6860796,243.897594 78.8901229,240.263199 C80.8736148,241.217501 84.6536098,234.306798 85.5199066,232.856055 C87.3421526,228.564381 89.66453,224.662986 91.6104961,220.452944 C91.9110873,219.741626 92.9615555,219.726423 93.372547,220.342823 C93.5576148,220.60203 93.6038498,220.923324 93.4997251,221.223795 C91.8050415,226.116795 89.4975207,230.788913 87.2717115,235.353336 C88.0301696,238.004685 88.3296081,242.432798 90.2263935,244.405788 C91.2581628,251.274971 84.1980483,254.422123 88.7473875,262.040056 C87.2076742,262.145834 87.0641025,262.761851 87.0909982,264.632895 C87.0858752,265.976455 87.0509109,267.386317 87.3041144,268.642112 C87.6111093,270.184963 89.0341466,270.598749 91.1701755,271.053672 C92.9012323,271.436797 94.5679957,271.874473 96.2858608,272.288132 C98.0231933,272.86595 99.853636,272.818555 100.567908,271.060315 C109.171194,273.978025 133.972464,273.644211 142.175388,269.77782 C144.440645,268.870531 146.038376,268.357737 143.958059,265.803096 C142.812816,258.512462 124.11584,263.725223 121.474812,255.728507 C121.098017,254.690273 120.553572,254.144392 119.494138,253.955192 C119.65564,253.130302 119.440091,252.213432 118.522436,251.975942 C118.246307,251.893415 117.951991,251.872081 117.667666,251.611851 C116.961718,250.156765 115.803924,249.274259 114.45517,248.500343 C115.006019,247.707391 114.560831,247.337934 114.312879,246.450702 C114.06134,244.75276 114.639469,243.125849 114.609884,241.475814 C114.919824,240.955483 115.159196,240.226534 115.655229,239.865893 C116.114889,239.541149 115.829026,239.400623 115.649978,239.042281 C115.786762,238.9213 116.096062,238.645996 116.235791,238.536002 C116.773064,237.944898 116.20992,237.082705 115.521007,237.016529 C115.436221,236.731389 115.335555,236.400385 115.271133,236.1178 C117.176115,230.388029 119.423953,222.948181 120.170244,215.065292 C120.892457,202.456885 120.21507,191.827344 124.054492,179.013768 C129.42146,158.724958 139.847632,139.685426 139.988386,118.215938 C139.809209,114.656789 140.795256,110.867305 139.901295,107.374714 L141.011574,106.796895 C141.171411,106.981113 141.46022,106.976002 141.517853,106.725482 C142.246214,105.542761 141.429738,104.124467 141.262216,102.829453 C141.643366,102.421288 141.453047,102.049021 140.993131,101.826351 C136.061233,84.4072156 127.812074,81.8625389 130.082837,60.0887479 C133.788036,67.9434042 141.995572,75.8947682 151.042764,74.7257167 C160.156555,76.0886945 181.416689,53.8754393 185.522762,46.6946707 C186.275329,46.753053 186.28455,46.2133041 186.399049,45.7047264 C190.149331,46.1459792 193.6596,43.2009302 193.729529,39.5978346 C197.020407,41.6390437 200.537337,38.7238885 198.7936,35.1635896" id="🎨-Background" fill="#FFFFFF"></path>
                    <path d="M172.563031,58.7955219 L172.209757,59.1101504 C166.432555,64.2491994 160.3043,69.3788939 153.071479,72.2830008 C152.091708,72.6401664 151.070569,72.7364936 150.064159,72.9492323 C141.651832,73.0325113 135.939319,66.5167975 130.612182,60.898603 C131.058394,51.2842986 130.689411,41.3570904 126.891358,32.3726869 L126.800609,32.141489 C125.871388,29.7914551 124.735467,27.4616192 122.918739,25.6655979 C122.873913,25.6221035 122.812437,25.6873451 122.850859,25.7335259 C124.401181,27.6328678 125.303815,29.9528999 125.952099,32.2933233 L125.984846,32.4123435 C128.19537,40.3381924 128.579744,48.6548474 128.28896,56.8409829 L128.279943,57.0890072 C128.081427,62.6204687 127.603709,68.181353 128.269697,73.7013013 C128.755356,79.3985532 131.276249,84.5500786 134.021657,89.4704441 C136.41486,94.0149671 138.20355,98.8730333 139.287958,103.894076 C138.939211,105.375699 137.675883,106.462035 136.362734,107.286765 C133.989511,108.752653 131.239748,109.554741 128.554023,110.226345 C117.564835,113.046956 106.118932,114.356265 94.8127591,112.990669 C82.7504334,111.424871 70.9780687,108.184668 59.2963808,104.885492 C58.0950407,104.517069 56.7617837,104.183313 55.6142349,103.610083 C55.5373902,103.525653 55.4464572,103.454015 55.3478397,103.395297 C55.1494521,100.592852 54.8866429,97.8153524 54.6908168,95.0199431 C54.9552909,89.6050208 56.4597837,84.3390029 58.7648711,79.4489555 C62.977374,71.4316623 61.5859712,66.5560704 59.0180746,58.3874423 C58.4280348,56.3087948 58.0066692,54.1340758 58.0591798,51.9913381 C58.3281366,50.6416052 58.5881281,49.2907209 58.8276277,47.935999 C58.9275259,47.6763119 59.0363893,47.4191834 59.1580602,47.1633341 C59.1811137,47.1147228 59.1157956,47.0764733 59.0850577,47.121119 C59.0312663,47.1978738 58.9800365,47.2759078 58.9288066,47.3552211 C59.1068304,46.32159 59.2720466,45.2866796 59.416771,44.2492108 C59.4359822,44.1123314 59.2592392,44.058731 59.2080093,44.1916447 C54.5921993,56.6045565 51.9126217,69.9098707 52.022894,83.1741211 C52.0883401,87.0796605 52.3572969,90.9839206 52.6441841,94.8805052 L52.6174967,95.2562341 C52.515813,96.7305657 52.4623156,98.2333474 52.9784589,99.6380227 C53.0883469,102.048123 53.4974173,104.429184 53.3703673,106.846576 C53.0724656,109.053404 52.4064775,110.615108 50.7485513,112.141377 C49.1066344,113.808235 47.2273953,115.187647 45.0864996,116.144267 C36.1859525,90.1341172 30.9712655,63.115665 43.8423825,37.3964156 C49.8161679,24.874256 60.099665,13.6243071 73.900732,10.045999 C71.9338155,12.2178422 73.467069,15.4666658 74.8811942,17.537347 L74.9675937,17.6626322 C81.7403087,27.6903891 96.6542163,30.0793818 107.839103,27.8982667 C113.257428,26.96915 118.337893,23.4640148 118.770273,17.6023797 C119.106085,13.6763724 116.869517,9.80409347 113.488603,7.87000079 L113.900372,7.91495266 C117.190903,8.28035378 120.386539,8.80772424 122.912335,11.1603505 C132.22144,19.7669926 136.539989,32.0242202 142.038874,43.1210433 L142.257679,43.5249023 C144.612911,47.8890174 146.888796,52.602585 150.801869,55.7675456 L150.070562,56.3905386 L150.070562,56.3905386 C149.978349,56.4698519 150.076966,56.6490743 150.193514,56.6016143 C150.570053,56.449384 150.944031,56.2894782 151.316729,56.1271418 C151.842475,56.5482697 152.446219,56.1221527 152.509103,55.5871719 C161.357908,51.3546571 168.836827,44.6412998 175.778985,37.8312314 C177.531814,41.8872101 180.487649,46.311356 185.219366,46.9740057 C180.752123,50.6366161 176.798459,54.8707939 172.563031,58.7955219 Z M101.436908,136.564366 C102.011194,136.237647 102.578181,135.898391 103.137739,135.546854 C104.061285,137.023232 103.826396,138.321155 103.72701,139.951811 C103.515815,142.672512 103.562818,145.440162 103.010945,148.118008 C102.054227,154.950719 101.488137,162.090833 100.067277,168.749567 C100.035643,169.121828 100.0026,169.493705 99.9736548,169.866093 C99.9354885,170.356045 99.1669126,170.358603 99.205207,169.866093 C100.140792,158.812636 102.126589,147.69445 101.436908,136.564366 Z M106.645575,269.720232 C113.854768,270.916327 121.213809,270.068187 128.425948,269.299488 L129.484608,269.162296 C132.898283,268.718841 136.332028,268.253104 139.68499,267.509054 C139.967522,267.275464 140.402848,267.172101 140.572547,266.826576 L140.779516,266.841032 C140.954338,266.742018 141.132617,266.649273 141.313715,266.561772 C141.840358,266.46762 142.269664,266.352999 142.813597,266.203967 C143.551691,266.454444 143.628536,267.103277 143.127636,267.562399 C143.177713,267.796757 142.89723,267.930822 142.713955,268.034441 C142.684626,268.093414 142.638903,268.149701 142.570383,268.197673 C142.241616,268.405166 141.909518,268.653212 141.532979,268.755808 C140.612956,269.711873 138.637132,270.075313 137.548678,270.26908 L137.441122,270.288217 C128.396491,271.905824 119.143483,272.34064 109.984481,271.609807 C108.405427,271.483044 106.82745,271.321991 105.255481,271.125663 L104.826915,271.071244 C103.469324,270.895859 101.972131,270.828059 100.928323,269.835492 C100.4086,269.341638 99.3669913,269.653264 99.3961773,270.43817 L99.3978312,270.468591 C99.4891228,271.757841 96.4723918,270.691221 95.8751986,270.524533 L95.8578482,270.519761 C94.1877549,270.066908 92.5279075,269.566722 90.8526913,269.135616 L90.441808,269.055866 C88.9865936,268.767096 88.8734309,268.62098 88.8572884,266.818901 L88.8031583,266.328756 C88.7300817,265.675758 88.6515857,265.024913 88.5459929,264.376713 L88.5050831,264.133763 C88.4576955,263.861283 87.9940653,262.175236 88.7663554,262.399104 C88.8636921,262.427376 88.9584673,262.349214 88.9635903,262.25455 C94.3901128,265.708515 100.262335,268.598461 106.645575,269.720232 Z M77.9837515,274.067239 L78.4443162,273.791117 C79.2156872,273.325024 79.9904676,272.818673 80.5375598,272.109864 C81.4401018,272.14402 81.8115182,271.294217 81.7773223,270.536391 C82.5350119,273.000092 81.5953282,274.971666 79.374514,276.218804 C71.6381654,280.323138 61.740173,279.718694 54.0389169,275.816097 C53.2999262,275.434626 52.5775852,275.021429 51.877017,274.574972 L51.7193784,274.474634 C51.4568254,274.306259 51.2022771,274.125743 51.0624623,273.836847 C50.7254979,272.849396 50.7301086,271.876146 50.6936073,270.77561 C51.2771154,271.561963 52.2454877,272.106922 53.0501807,272.648427 C54.5857956,273.675662 56.2494852,274.490542 57.9746506,275.144365 C64.3628855,277.516343 71.9506675,277.371533 77.9837515,274.067239 Z M54.5857956,71.7709184 C55.2027311,66.4180397 56.2599873,61.1393572 57.2843282,55.8545344 C57.7006989,61.5343885 60.6503859,67.0653384 59.3386455,72.8109458 C58.0564902,77.4360613 55.308905,81.5391163 54.1349729,86.2046559 C53.9067439,81.3863742 54.0471137,76.5652782 54.5857956,71.7709184 Z M62.1883062,118.215239 C61.4941416,118.341885 60.7807659,118.339326 60.0787888,118.289436 C57.234123,117.944935 56.7841968,119.666928 56.7939304,122.074726 C56.7073733,123.631142 56.6120111,125.187559 56.530746,126.74479 L56.4838617,127.679232 C56.4249474,128.923811 56.2685683,130.315631 56.4249474,131.616625 C55.9095751,132.798137 55.6308846,134.029923 55.5489169,135.321323 C55.3119788,135.25736 55.058391,135.288062 54.876525,135.412149 C53.8327167,133.552253 53.5829712,131.28159 53.3678058,129.187336 C53.2627846,128.157543 51.7489423,128.11021 51.7258889,129.187336 C51.6964317,130.652073 51.674659,132.11809 51.6490441,133.582827 L51.609341,135.843255 L51.609341,135.843255 L51.6094436,135.876935 C51.6158325,136.198853 51.7613891,137.011854 51.3655009,136.980562 L51.3429457,136.977947 C50.6062604,136.922811 50.5723206,134.301891 50.4129958,133.648196 L49.7983656,129.264091 L49.7983656,129.264091 C49.6602493,128.283222 48.2496871,128.603361 48.1527143,129.458897 L48.150045,129.48668 C47.9775284,131.490235 47.8025785,133.494047 47.6543961,135.499266 C47.6076489,135.846069 47.6013732,136.47354 47.2227846,136.624875 C46.8883817,136.324636 46.8249847,135.819205 46.7539033,135.399357 C46.1242884,129.614348 44.9420314,123.903536 44.2130305,118.132088 C44.685626,118.064416 45.1185182,117.770062 45.2568388,117.317336 C49.0496412,116.542369 53.0299449,114.407434 54.9354394,110.938886 C55.315821,111.274048 55.6129542,111.71283 55.9818092,112.056947 C56.5645488,112.603185 57.204922,113.095823 57.8171187,113.606114 C59.5330628,115.058827 61.2554105,116.430179 62.9362621,117.927409 C62.6903588,118.008001 62.4662282,118.165349 62.1883062,118.215239 Z M103.453955,-0.208440413 C103.473166,-0.283915953 103.578187,-0.262168763 103.58331,-0.190530963 C103.688332,1.26793789 104.037975,2.80674342 104.570766,4.23694093 C104.761597,4.26764284 104.944744,4.37509954 105.077941,4.58374464 C105.257246,4.86396052 106.114969,5.05935744 106.562454,5.19115256 L106.626364,5.21044746 C108.484087,5.78406156 110.423008,6.01560517 112.349891,6.22015667 C121.412325,6.7212375 124.710631,9.56116457 129.823115,16.7365857 C135.891803,24.8201439 139.296924,34.4138525 143.87175,43.3358288 C144.997526,45.5054308 146.212954,47.6238628 147.548773,49.6719364 L147.67615,49.8663543 C148.869378,51.6820402 150.189451,53.5214536 152.012174,54.746707 C156.422909,51.048956 161.139658,47.7474373 165.502841,43.9923996 L165.910834,43.6390102 C169.184422,40.8093171 172.310723,37.8107635 175.285897,34.6689342 C175.636822,34.2979528 176.295126,34.2007301 176.781809,34.4182019 C176.972,31.5901719 177.770673,28.8163818 178.507103,26.0839115 C179.280289,22.5643208 180.623408,20.1854341 184.675049,21.056473 C186.305946,16.9502052 188.489822,12.9427782 191.796234,9.94474047 L192.00846,9.75362214 C192.712368,9.11444491 193.636348,8.19792827 194.625168,8.28063889 C195.522971,8.35483519 195.98404,9.16728459 196.019901,9.99354986 C196.060991,10.9737191 195.633587,11.971784 195.327341,12.8905244 L195.301402,12.9690771 C194.906932,14.1754064 194.481724,15.3716298 194.032182,16.5586425 C193.59929,17.7010096 193.13566,18.8318634 192.650257,19.9524833 C192.155505,20.8899151 191.791645,22.4420248 190.890511,23.008603 C190.425344,23.2851761 189.946217,22.9132992 189.896652,22.4380591 C189.826211,21.8150661 190.18482,21.2676766 190.448654,20.7251482 C190.691996,20.2262421 190.930215,19.7247775 191.16203,19.2207544 C192.093645,17.1916137 192.929588,15.1203858 193.647958,13.0074545 C193.861331,12.2961934 194.7348,10.4472986 194.431775,9.80818706 C194.128366,9.81061762 193.503746,10.4515201 193.282946,10.6421278 C189.809561,13.5187692 187.552118,17.4936438 184.969621,21.1204353 C186.590277,21.5835225 188.349383,21.8007386 189.695575,22.8883539 C192.464293,25.303827 190.240917,30.0868015 186.52957,29.196318 C187.565438,31.3971336 188.456325,34.9525432 186.620503,36.9408759 C186.068501,37.4576915 184.996517,37.2926687 184.828739,36.4689619 C184.649434,35.5939573 184.8646,34.844191 185.061835,33.9961785 C185.419163,32.2695796 185.635865,30.5012773 185.392267,28.7434648 L185.315663,28.6978619 C184.68654,28.3161314 184.290948,27.8875554 184.310036,27.0984818 C184.228069,26.52781 184.836423,25.7589829 185.447339,26.2259078 C185.645855,26.3768589 185.887916,26.3883721 186.096678,26.5406024 C186.45078,26.8773121 186.890702,27.1421092 187.392689,27.1379773 L187.441461,27.1367313 C188.086958,27.1316143 188.563395,26.7427234 188.76063,26.139047 C189.301105,24.4822949 187.429935,23.9258227 186.213226,23.6074183 L185.898951,23.5104638 C182.577814,22.4954587 181.374112,22.478908 180.539519,26.3806966 C179.635696,29.2917498 178.839072,32.2886404 177.310757,34.9490892 L177.500902,35.403308 C179.037369,39.0622079 180.966397,43.2741077 185.097696,44.3963241 C185.243957,43.1741321 186.566327,43.1299981 187.523429,43.160572 C188.758837,43.0939233 189.998728,42.4672205 190.8713,41.566631 C191.633601,40.7992111 192.017056,39.729761 192.860299,39.0452363 C192.478637,38.1779072 193.340579,37.2210309 194.240944,37.719937 C194.848018,38.0550995 195.214311,38.5335377 195.946898,38.6307604 C196.596237,38.7178771 197.194345,38.4913226 197.687433,38.0755675 C198.974583,36.988208 198.362386,35.3904292 198.67745,33.966628 C198.262488,34.6842852 197.573446,35.2343612 196.835736,35.6142974 C191.909729,38.4310701 191.959166,32.9083074 194.681521,33.8156769 C197.638764,33.1430491 197.588815,32.0746225 196.483531,29.5660202 L196.463834,29.507098 C196.284098,28.980507 195.882481,28.0495305 196.255558,27.4822557 C196.27605,27.4539844 196.313192,27.4450297 196.340087,27.4707425 C196.678204,27.8032187 196.811402,28.3609701 197.09688,28.7524195 L197.437218,29.1587467 C198.470968,30.4039599 199.552635,31.8833624 198.881088,33.5457559 C198.95281,33.5304049 199.030936,33.5611068 199.05527,33.6480956 C199.372895,34.8032551 200.004303,35.9379467 199.873667,37.1736988 C199.600483,39.8818634 196.66386,41.3687316 194.231979,40.2400524 C193.76425,43.7215216 190.330057,46.2273095 186.888179,46.0721369 C186.779316,46.5492958 186.42583,46.9690166 185.878951,47.012511 C180.813599,55.1243405 160.902091,75.9933271 151.137424,75.1212648 C150.20376,75.5446954 149.015227,75.3323405 148.026491,75.2045438 C140.442936,74.2158142 134.105162,68.6714323 130.569918,62.0998154 C129.270344,83.6255672 136.614016,83.3643451 141.527984,101.197424 C142.019791,101.505722 142.306678,102.178734 141.925015,102.747871 C142.135954,103.826787 142.567694,104.93244 142.401453,106.0395 C142.319485,106.355346 142.154269,106.643176 142.004422,106.932286 C141.696018,107.522274 140.882872,107.451276 140.502106,106.99241 C141.147858,109.327675 140.872498,111.779223 140.707025,114.160028 C140.605846,115.558372 140.613531,116.937272 140.612122,118.336768 C140.419498,139.641466 130.008695,158.850758 124.656712,179.062724 C123.142869,184.728378 121.979952,190.501745 121.522725,196.354298 C121.037322,202.580262 121.375439,208.840894 120.791419,215.059311 C120.114545,222.261341 118.190223,229.261377 115.920356,236.107264 C116.056243,236.661945 116.338264,237.292998 116.164082,237.770924 C112.921489,238.31729 109.791985,239.310625 106.643014,240.23309 C106.51955,240.268397 106.442705,240.345024 106.403898,240.436234 L105.684119,240.675069 L105.684119,240.675069 C105.217159,240.830498 105.417211,241.572077 105.88827,241.415369 L106.675079,241.154063 C109.366247,240.263853 112.088619,239.413548 114.887434,239.014352 L114.973407,238.979278 C115.532981,238.755672 116.191377,238.591445 116.486318,239.207518 C116.635909,239.51991 116.51744,239.834477 116.303684,240.081755 C116.123098,240.290656 115.893332,240.419092 115.735416,240.655753 C115.558802,240.967249 115.40921,241.29512 115.233876,241.611094 C115.235541,243.174973 114.720809,244.723117 114.920478,246.283158 C115.070709,246.930457 115.595687,247.551275 115.262437,248.244243 L115.414165,248.340961 C116.29725,248.908068 117.141153,249.530058 117.72147,250.406169 C117.848264,250.598056 117.94432,250.993343 118.089044,251.128943 C118.240172,251.26966 118.521936,251.286419 118.707645,251.352811 C119.648097,251.638723 120.239802,252.487375 120.15873,253.472651 C122.360974,254.105878 121.602516,256.341489 123.875456,257.897436 C126.208976,259.587321 129.368578,259.772939 132.124744,260.211593 L136.821241,260.96008 L136.821241,260.96008 L137.094339,260.993249 C140.06703,261.359949 143.944042,262.049887 144.542221,265.520722 L144.590141,265.576716 C145.308592,266.433993 145.999342,268.061514 145.112537,268.991957 C144.391605,269.631452 143.407095,269.931819 142.53401,270.304336 C141.323449,271.178445 139.578816,271.585629 138.250554,271.832268 C126.767638,273.95748 114.938536,274.203863 103.378391,272.555042 L103.185077,272.526785 C102.377229,272.40591 101.542987,272.2421 100.805372,271.89623 C99.7738584,273.631656 97.7875488,273.413288 96.1152782,272.920906 C94.8025131,272.596106 93.4897481,272.276294 92.176983,271.956482 L92.0539238,271.92416 C90.0262044,271.403989 87.1506605,271.245935 86.6595276,268.773589 C86.4059398,267.500867 86.4225895,266.084613 86.4353969,264.791295 L86.4324933,264.366823 C86.4308138,263.277195 86.5166079,261.800049 87.7507235,261.570153 C86.0363164,258.395575 86.4099101,254.49221 88.0067447,251.345136 L88.0914181,251.190672 C89.266475,249.036851 90.0005422,247.238559 89.6103673,244.694334 C88.8278312,243.957488 88.4628185,242.899551 88.1733698,241.859524 C87.5652714,239.670221 87.0341459,237.457893 86.5846039,235.230085 L87.282015,233.798287 C89.3272324,229.59708 91.3499685,225.377799 92.8779355,220.957788 C93.0184334,220.551884 92.3587209,220.265076 92.1757023,220.661899 C90.2434402,224.85335 87.8805912,228.836028 86.0816548,233.090417 C84.8888957,235.315155 83.4568931,237.407107 81.8514775,239.354631 L81.7804535,239.453766 C81.1571831,240.307652 80.6352039,240.591763 79.6115802,240.943583 C79.4476446,241.012663 79.2811476,241.013942 79.1248965,240.969168 C78.1480712,242.292549 76.9624843,243.340891 76.4494173,244.92076 C75.8897311,246.668211 75.6758465,248.589767 75.5655742,250.416531 C75.506788,252.796441 76.498726,255.043693 77.1218092,257.303994 C78.0744283,260.348728 79.1355267,263.360458 80.3092027,266.327926 C80.936,266.581473 81.5049075,266.971131 82.0296293,267.451488 C82.4670042,267.409145 82.9278168,267.607812 83.0913681,268.14049 L83.1592571,268.363096 C83.7372539,270.279488 84.2276031,272.492955 83.4770008,274.412636 C81.4024478,279.063976 74.7355225,280.223485 70.1750407,280.780596 C63.421665,281.421499 56.3374724,279.808497 50.71538,275.961675 C49.9213172,275.405203 49.3795615,274.772104 49.2476446,273.785805 L49.233788,273.662689 C49.0522984,272.013237 49.0101443,270.055925 50.1556938,268.777427 C51.1349525,260.4109 52.7390874,252.04757 55.0494258,243.943416 C55.0314953,243.714431 55.0174071,243.485446 55.0058804,243.255182 C53.7162969,241.912868 53.2115547,240.023421 53.0668304,238.208554 C53.0500526,237.446251 53.8218304,237.287113 54.4203232,237.193856 L54.640821,237.191854 C56.5910658,237.178049 58.6037183,237.273765 60.3439033,238.001444 L60.2582194,238.00489 C60.1701541,238.009232 60.0781804,238.019546 60.0114215,238.065407 C60.8833537,238.344666 61.8343079,238.468881 62.6678176,238.836025 C63.2851758,238.866285 63.8234723,239.159315 64.4487366,239.212233 L64.5482095,239.218519 C64.6593783,239.228242 64.7439075,239.195493 64.804743,239.14023 C66.4844419,239.439573 68.1544071,239.842536 69.8314165,240.088919 C70.3151544,240.160045 70.523916,239.42064 70.0356955,239.348875 C67.792212,239.019085 65.5589746,238.414257 63.299866,238.134102 C62.8003749,237.940296 62.3176616,237.691867 61.8168897,237.491921 C61.7876887,237.425528 61.7328728,237.366043 61.6438609,237.324339 C61.0945488,237.066571 60.5239763,236.8546 59.9404682,236.677424 C58.4444283,236.21357 56.8729525,236.018612 55.3150526,235.926507 L55.4254599,234.812731 C57.2179716,216.610789 58.5258864,197.920963 65.9626658,180.97008 C64.382609,177.320262 62.2336446,173.844294 60.851207,170.089961 C60.2774326,168.589405 59.9290696,167.059554 59.4744046,165.528169 C59.1788083,164.794649 58.93457,164.05179 58.8161009,163.265182 C56.9953919,154.936648 55.966056,146.46471 54.8917659,138.016695 C54.1686565,137.419159 53.6909381,136.557714 53.2717498,135.765221 L53.2698706,135.885629 C53.2450987,137.19003 53.0608621,138.692226 51.4185098,138.65376 C50.0929372,138.621778 49.512631,137.632921 49.215626,136.539165 C48.6382655,138.826202 46.0728024,138.951312 45.3208762,136.699071 C44.9853206,135.790934 44.9994088,134.754616 44.8995106,133.801578 C44.3635182,128.571123 43.2449143,123.34425 43.5662536,118.077081 C43.2281366,117.961949 42.9335649,117.703541 42.7899932,117.272435 C36.3861332,97.8749652 30.6870679,77.1159938 34.8442426,56.6474113 C39.0010331,36.5933046 50.2585377,14.1436811 71.5326319,8.4571749 C75.8395259,7.36891996 80.2146836,6.99960152 84.6295445,6.718679 C85.2665878,5.48625299 85.6783478,4.08432683 85.7617243,2.68905275 C85.7873393,2.28609012 85.7681281,1.88709316 85.7668473,1.48400261 C85.7655666,1.1117419 85.9243791,0.667843391 85.8500958,0.320016287 C85.8321654,0.235458098 85.9474326,0.207314676 85.9781705,0.285348709 C86.071665,0.529684777 86.2624962,0.652492434 86.3918516,0.858451109 C86.7135751,1.44063616 86.7987447,2.13181301 86.8836582,2.78243774 C87.2028653,5.32222743 86.4768162,7.93541196 84.9402795,9.97463032 L84.8869746,10.0447197 C84.4105369,10.6819124 83.5037684,11.8356647 82.5662621,11.2830303 C81.7493356,10.8003106 82.2725177,9.81722065 82.7598733,9.29068371 L82.7967964,9.25158693 C83.4563808,8.56591085 84.0096633,7.83290264 84.4592053,7.03337363 C82.4617532,7.56566806 80.4799262,8.15181878 78.4883656,8.70662796 L78.3938581,8.75856192 C76.8343126,9.60787953 74.5168504,10.5170073 74.7215623,12.6226571 C78.8686192,25.1370132 97.2158236,28.3527829 108.555168,25.364975 L108.735944,25.3159505 C110.905517,24.7176781 113.078094,23.7561937 114.554423,22.0036787 L114.615532,21.9301983 C117.236579,18.8271302 117.035758,13.7004222 113.753718,11.1525471 C111.804422,9.55604758 109.111012,8.7079072 106.678874,8.15540067 C107.386231,9.32974889 108.950662,10.1590844 109.235244,11.5503928 C109.308247,12.0275517 109.044413,12.4816842 108.518026,12.4919181 C107.180927,12.5175031 106.194752,11.0898641 105.492903,10.1304292 C104.028242,8.12329158 103.197293,5.69681696 103.019782,3.225057 C102.931411,2.02256536 103.15298,0.939043634 103.453955,-0.208440413 Z M191.925355,22.3689542 C191.854401,22.3204708 191.893592,22.1762997 191.989392,22.2155726 C195.62415,23.7218853 197.107895,29.1165954 194.37158,32.0875173 C193.463531,33.0455449 192.102098,33.5994586 190.862335,33.0968427 C189.338631,32.8390746 188.448512,31.3005249 188.253455,29.8832478 C188.240195,29.8171484 188.314292,29.7870838 188.356156,29.8286759 L188.363599,29.8373228 C188.939294,30.5470487 189.846831,31.0220329 190.674065,31.385211 C190.90588,31.2597169 191.159468,31.1600636 191.414337,31.1010904 C191.776788,31.0192186 192.148204,31.3032113 192.113624,31.6730414 C193.824581,31.359974 194.510367,29.3240746 194.562312,27.7794875 L194.563692,27.7328345 C194.632852,25.5953417 193.665889,23.618778 191.925355,22.3689542 Z" id="🖍-Ink" fill="#000000"></path>
                </g>
                <g id="Head" stroke-width="1" transform="translate(48.668363, 23.026436)">
                    <g id="head/Bun">
                        <path d="M15.4242722,3.39255119 C23.4948218,2.95249335 30.6451285,0.687560417 36.3260405,5.75658112 C42.4528862,1.18649593 46.0274494,-0.228256068 47.0497301,1.51232513 C48.077228,3.26178932 46.6522843,5.61031577 47.0343612,7.76910874 C49.5256742,12.0111679 49.3848201,19.1913257 49.5256742,20.8739768 C49.8806989,25.1151237 52.1169298,41.0745758 52.1169298,44.8643922 C52.1169298,46.7988576 50.5201286,51.8652758 49.5256742,54.6847541 C47.3122421,60.9602795 43.0871604,64.1585462 36.1581957,64.1585462 C29.229231,64.1585462 17.9197902,58.3740693 14.2926641,53.2383091 C13.9747855,52.7882149 11.9191759,54.1013303 9.76909375,51.8235424 C7.4398138,49.355913 6.1476595,44.6493123 6.1476595,41.8436948 C6.1476595,38.2834709 3.84405369,35.8144916 4.1119993,31.2572939 C4.71039795,21.0797771 6.78840729,3.86343361 15.4242722,3.39255119 Z" id="🎨-Background" fill="#FFFFFF"></path>
                        <path d="M14.5226139,-8.44021209 C14.6276351,-8.44660833 14.7339371,-8.44149134 14.840239,-8.43112944 C14.9567869,-8.42601246 15.0733349,-8.41462716 15.1898828,-8.3914728 C15.7828684,-8.2777478 16.3118166,-7.96433242 16.7216555,-7.5229924 C16.7331822,-7.51147919 16.7421474,-7.4985588 16.7523934,-7.4871735 C16.9445053,-7.34261866 17.1225291,-7.17874719 17.2826224,-7.0048976 C17.3107988,-7.03176177 17.3376945,-7.05849802 17.3671517,-7.0853622 C17.4516809,-7.15968642 17.5400524,-7.23004497 17.6322662,-7.29643786 C18.0181606,-7.62693952 18.4708476,-7.86720134 18.9578224,-8.00390084 L19.0244375,-8.02189851 C19.037245,-8.02573625 19.0500524,-8.02829474 19.0628599,-8.03085324 C19.4086614,-8.14585749 19.7723934,-8.20470283 20.1386869,-8.2035515 C20.5767021,-8.21762321 21.0159981,-8.14585749 21.425837,-7.97712489 C21.9112399,-7.77615527 22.3338862,-7.45903008 22.6886529,-7.07768672 C22.9217488,-6.88835825 23.1253874,-6.67996901 23.3405528,-6.45085597 C23.7849718,-5.97638347 24.1358964,-5.42119052 24.3574655,-4.8095828 C24.3882034,-4.72387329 24.4150991,-4.63573321 24.4394332,-4.54746521 C24.981189,-4.61002036 25.5255062,-4.65479398 26.0698234,-4.6766691 C26.6807394,-4.71363932 27.2916555,-4.72655971 27.9038522,-4.70596384 C29.5905953,-4.65108417 31.2401966,-4.35417107 32.8372874,-3.81049134 C33.157474,-3.71595503 33.4686953,-3.59570586 33.76839,-3.44731328 C34.2384239,-3.2605433 34.6828429,-3.02260346 35.101647,-2.73477302 L35.4584117,-2.52344151 C35.6376137,-2.41705937 35.8168158,-2.30929565 35.990485,-2.19876876 C36.4041661,-1.93383683 36.7960745,-1.63717958 37.1674909,-1.31736797 C37.5593993,-1.00126618 37.929535,-0.657148891 38.2817403,-0.296529322 C38.377412,-0.19892282 38.4697539,-0.100037071 38.5608149,-0.000511698571 C39.3726801,0.437118505 40.0938684,0.997428441 40.7665164,1.66570678 C41.2999472,1.35919933 41.8523332,1.08134701 42.4223934,0.834324521 C43.010256,0.579754482 43.7569311,0.317508964 44.3729701,0.14493862 C44.9262526,-0.00985019751 45.4731313,-0.116027651 46.0276945,-0.194189608 C46.2800015,-0.237683987 46.5335893,-0.27222364 46.7884578,-0.301646308 L46.7782119,-0.297680644 L46.7782119,-0.297680644 C46.9575164,-0.316997265 47.1355401,-0.333627469 47.3161254,-0.348978426 L47.3110024,-0.350257672 L47.3110024,-0.350257672 C47.3878472,-0.35652598 47.4659727,-0.363050137 47.5428175,-0.368167122 L47.7298064,-0.383390155 L47.7298064,-0.383390155 C47.7861593,-0.388507141 47.8681271,-0.256872683 47.87325,-0.210819812 L47.8796538,-0.163487694 L47.8796538,-0.163487694 C47.9219184,-0.116027651 47.9603408,-0.0635785476 47.9872365,-0.0315973868 C48.0205359,-0.0342838043 48.0538353,-0.0367143725 48.0871347,-0.0381215436 C48.1870329,-0.046948344 48.3023001,0.130738985 48.3612144,0.198539046 L48.4144776,0.261052098 C48.475163,0.333934791 48.53579,0.417880607 48.5456419,0.509395928 C48.61096,1.04041112 48.6724358,1.57244971 48.7287886,2.10461623 C48.7505613,2.50757885 48.7287886,2.90670374 48.6621898,3.30199088 C48.6122407,3.68576481 48.5610109,4.06953874 48.509781,4.45203342 C48.4278132,4.7208031 48.3471262,4.98944485 48.2664392,5.25795868 C48.2344205,5.36042631 48.1985596,5.46135886 48.1639795,5.56241933 C47.9591881,6.23734974 47.7190482,6.89437071 47.4330575,7.53105166 C47.6416911,7.76157186 47.8362365,8.0005351 48.0172059,8.24730173 C48.0604952,8.29169158 48.1040405,8.33582558 48.1447683,8.38187846 C48.156295,8.36409693 48.1729447,8.34746673 48.1908751,8.33838408 C48.252351,8.3115199 48.2971771,8.34350106 48.3355995,8.39607809 C48.7390346,8.78100334 49.0323255,9.23014676 49.2141915,9.74299666 L49.3274664,10.0104634 C49.3462507,10.0551896 49.3648927,10.0999491 49.38325,10.14468 C49.5279744,10.5336989 49.6393993,10.9328238 49.7316131,11.3369377 C49.8140931,11.6549584 49.8732636,11.9773285 49.9114299,12.3031525 C50.1880711,13.23099 50.4068226,14.1801908 50.6131508,15.1165992 C50.6456818,15.2639684 50.6303128,15.3954749 50.5830533,15.5075369 L50.7036996,15.6249717 L50.7036996,15.6249717 L50.9098227,15.8300095 C51.2561282,16.17487 51.6094007,16.5373943 51.8666173,16.9477125 C52.1330126,17.3737016 52.3289668,17.8291133 52.5466936,18.2808153 L52.593601,18.3767587 L52.593601,18.3767587 L52.6894769,18.5691659 C52.7931373,18.7792416 52.8428662,18.8953173 52.9347598,19.1492957 C53.0871686,19.5728541 53.1691364,19.9987153 53.2075588,20.4478587 C53.2639116,21.1014257 53.2562271,21.813966 52.9693399,22.421608 C52.9680592,22.426725 52.9654977,22.4306907 52.9629362,22.4344005 C52.8323001,23.0217025 52.509552,23.5665336 52.0190261,23.9144886 C51.9140049,24.0131185 51.8012992,24.1013865 51.6809091,24.1716171 C51.3919727,24.3410917 51.126643,24.3562413 50.8112671,24.2778432 L50.7715791,24.2675606 C50.731876,24.2573266 50.6960151,24.2483719 50.6614349,24.2406964 C50.7126648,24.2829116 50.7382797,24.3329301 50.6614349,24.3686211 C50.5871517,24.40444 50.5205528,24.4249079 50.4577963,24.4325834 C50.4846919,24.4671231 50.4872534,24.5042212 50.4309006,24.5349231 C50.3079489,24.6001647 50.2080507,24.6207606 50.105591,24.6027232 L50.1271369,24.7805649 C50.2951596,26.1263528 50.4454593,26.3924986 50.5769057,27.8380653 C50.6639964,29.3180255 50.802317,30.7942759 50.9931483,32.264258 L51.0589223,32.7983843 C51.2695978,34.4912836 51.5064836,36.1965945 51.8691788,37.8621124 C52.0523255,38.5900036 52.2098573,39.3230119 52.343055,40.061137 C52.5313247,40.6227262 52.6632416,41.1971079 52.7362441,41.7830027 C52.8425461,42.3791316 52.9155486,42.9803774 52.9578132,43.5867402 C53.1050991,43.9744798 53.1768209,44.3683598 53.1729786,44.7700431 C53.1921898,45.3098851 53.1742594,45.8485758 53.1166258,46.3845801 C53.0846071,46.9422036 53.0077623,47.494838 52.8860914,48.0423555 C52.777228,48.7934011 52.5787123,49.5187338 52.2943866,50.2223194 C52.0664137,51.0076487 51.787211,51.777883 51.4695859,52.5312312 C50.9764986,53.697904 50.3809515,54.7814257 49.7034366,55.8495965 C49.0681864,56.8512464 48.3868293,57.8157982 47.6081355,58.7126779 C46.6014689,59.8715473 45.4539201,60.9333218 44.1962271,61.8287943 C43.4790092,62.3585302 42.722088,62.834282 41.9305868,63.2412103 C40.9623425,63.7399885 39.9787293,64.189004 38.929798,64.4921854 C38.2753366,64.6815138 37.6093484,64.811997 36.9356758,64.9119061 C35.6126648,65.1075029 34.2422662,65.0780802 32.9115707,64.8490951 C32.0534706,64.7339629 31.2094587,64.5344005 30.4115537,64.2491285 C29.7558115,64.0138751 29.1308073,63.7438262 28.5058031,63.4393655 C28.1843357,63.2845767 27.8743951,63.1054822 27.5772619,62.9046405 C27.0777708,62.5809912 26.6102984,62.2152546 26.1748446,61.8108848 C26.0326818,61.6893564 25.8943612,61.5652695 25.758602,61.4347864 C25.693284,61.3772203 25.7291449,61.2915108 25.8047089,61.2711708 L25.8277623,61.2684844 L25.8277623,61.2684844 C25.7983052,61.2416202 25.7675673,61.214756 25.7381101,61.1866126 C25.7317064,61.1814956 25.7265834,61.1752273 25.7214604,61.1687031 C25.7073722,61.1559107 25.6920032,61.1432461 25.6791958,61.1304537 C25.6292466,61.0868314 25.6791958,60.9896086 25.7227411,60.9665822 C25.7393908,60.9576275 25.7611635,60.9564761 25.7854977,60.9589067 C25.7803747,60.9537897 25.7765325,60.949952 25.7714095,60.9462422 C25.7662865,60.9422765 25.7650058,60.9320425 25.7662865,60.9218086 L25.7470753,60.9065855 L25.7470753,60.9065855 C25.6817573,60.8488915 25.7150567,60.7645892 25.7919014,60.7427141 C25.82947,60.731343 25.8913253,60.7371549 25.9558791,60.7511652 L25.9801712,60.7567858 L25.9366258,60.7158499 C25.859781,60.6493291 25.8841152,60.5751328 25.9788904,60.5522343 C26.0495876,60.5563279 26.1194651,60.5660706 26.188523,60.5829034 L26.2401627,60.59688 C26.2657776,60.6032762 26.2901118,60.6109517 26.3157267,60.6187551 C26.2721813,60.5789705 26.228636,60.5407211 26.1863713,60.5009365 C26.1441067,60.4639663 26.1889328,60.3576609 26.2273552,60.3360416 C26.2798658,60.306619 26.3823255,60.3474269 26.4297131,60.3819666 C26.5462611,60.394887 26.6999506,60.4459289 26.7563035,60.4945403 C26.9112738,60.6429328 27.0713671,60.7849292 27.2340219,60.9230878 C27.3326394,60.9537897 27.4261338,60.9947256 27.4978556,61.0561294 C27.6822831,61.2326655 27.8743951,61.3990954 28.0703493,61.5601525 L28.2192953,61.6626818 C28.2442462,61.6795489 28.2692919,61.6961791 28.2944799,61.7123829 C28.5762441,61.8774057 28.8580083,62.0411492 29.1384918,62.206172 C30.1669311,62.554127 31.1953705,62.90221 32.2225291,63.2488857 L32.3582882,63.2896937 L32.3582882,63.2896937 L33.3559897,63.4125014 L33.3559897,63.4125014 C34.0117318,63.4815807 34.6687547,63.4778709 35.3244969,63.4022674 C35.8163035,63.4087916 36.3042679,63.3600523 36.7845478,63.260271 C37.6003832,63.1221124 38.4008497,62.9188402 39.1795435,62.6347195 C40.076066,62.3085117 40.9303238,61.8788128 41.7640897,61.4157256 C42.0637844,61.2480164 42.3583561,61.0702012 42.6478047,60.8822799 C42.7412992,60.815759 42.8347937,60.7478311 42.9282882,60.6787517 C43.5443272,60.2169438 44.1334706,59.7244339 44.7008412,59.2037806 C44.9672365,58.9594445 45.2233858,58.7050024 45.4705698,58.4414777 C45.5064307,58.4029723 45.5410109,58.3660021 45.575591,58.3274968 C45.8125291,58.069089 46.0417827,57.8018545 46.2607903,57.5254093 L46.469552,57.2901559 L46.469552,57.2901559 C47.3122831,56.2424531 48.0615198,55.1154369 48.7351924,53.9550325 C49.403742,52.80499 49.9544629,51.5948229 50.3924782,50.3424406 C50.5333603,49.8959836 50.656312,49.4432583 50.7587717,48.9852881 C50.9483221,48.4350842 51.0725545,47.8710644 51.1301881,47.2954035 C51.1493993,47.1827019 51.1647683,47.0701282 51.1801372,46.9575545 L51.1889602,46.7800994 C51.1902409,46.750473 51.191237,46.720894 51.191664,46.6914713 C51.2172789,46.5125047 51.2390516,46.3332823 51.2557013,46.1541878 C51.2659472,45.973942 51.272351,45.7934403 51.2736317,45.6130665 L51.2595435,44.5065184 L51.2595435,44.5065184 C51.2557013,44.4719787 51.251859,44.4362878 51.2492975,44.4003409 L51.2211211,44.1561328 C51.1596453,43.6519818 51.1122577,43.1466794 51.0507818,42.6427843 C51.0507818,42.6400978 51.0507818,42.6362601 51.0495011,42.6324224 C51.0264477,42.4443731 51.0021135,42.2550447 50.9739371,42.0657162 C50.9598489,41.9531425 50.9419184,41.8405688 50.9252687,41.7279951 L50.89325,41.5311191 L50.89325,41.5311191 C50.8338554,41.1886009 50.7617134,40.848923 50.6742499,40.5122568 L50.63582,40.3681562 L50.4129701,39.2488156 L50.1619439,38.1473844 C49.9992891,37.4092592 49.8635299,36.666017 49.7559472,35.9163786 C49.5612738,34.7216904 49.3947768,33.525467 49.2500524,32.3242546 C49.2423679,32.2666885 49.2346835,32.2078432 49.2282797,32.1502771 C49.0809939,31.0361814 48.9746919,29.9179921 48.9055316,28.796093 C48.8120372,27.690952 48.7582458,26.5829967 48.7441576,25.4740179 C48.7428768,25.4239994 48.7761763,25.3831914 48.8158794,25.3600371 L48.812326,25.1468114 C48.8075979,24.9581743 48.8042038,25.1844669 48.8025716,24.9694134 L48.8001346,24.3779153 C48.8002808,24.328619 48.8007584,24.2943077 48.8017912,24.2918663 C48.1174682,24.3391311 47.6572935,24.3004008 46.996565,24.2656285 L46.8845138,24.2598851 C46.2787208,24.2318696 45.67677,24.1653488 45.0786614,24.0654397 C45.0760999,24.0962695 45.055608,24.1178888 45.0210278,24.124285 C44.959552,24.1268435 44.9019184,24.1268435 44.8430041,24.1282507 L44.8647768,24.2112738 L44.8647768,24.2112738 C44.8660575,24.2536168 44.8468463,24.2803531 44.8058624,24.2918663 L44.6350109,24.2995315 C44.4069355,24.3091105 44.1780405,24.3136135 43.9516046,24.2829116 C43.7479659,24.2561753 43.5494502,24.2087153 43.3522153,24.1524284 C43.2305444,24.1319605 43.106312,24.103945 42.9795181,24.0679982 C42.6542085,23.9746132 42.3314604,23.849247 42.0048701,23.7495937 C41.671876,23.6791073 41.3337589,23.6562088 40.9802729,23.7405111 C40.606295,23.8287791 40.2899506,23.9886849 39.8980422,23.8914622 C39.8199167,23.8724014 39.7443527,23.8429787 39.6687886,23.8121489 L39.5988694,23.8072783 C39.5869632,23.8062359 39.5748672,23.8049425 39.5624867,23.8031942 C39.1539286,23.7444768 38.7901966,23.486069 38.4008497,23.3477824 C38.2648935,23.3147188 38.1300287,23.3230756 37.9982698,23.3779841 L37.9653959,23.392684 L37.8360405,23.4886275 C37.7839569,23.549946 37.7324424,23.61189 37.6814971,23.6740424 L37.6055062,23.7673753 C37.4659048,23.9400735 37.3173383,24.0948624 37.136753,24.207436 C36.9190261,24.4082777 36.6603154,24.5259684 36.3516555,24.5336439 C36.1761932,24.5387609 36.0020117,24.5016627 35.8329532,24.4480623 C35.1951415,24.6450662 34.5125036,24.6847229 33.8759727,24.4928359 C33.6236656,24.4543306 33.3764816,24.3866585 33.1395435,24.2803531 C33.0281186,24.2304625 32.9166936,24.1716171 32.8091109,24.1063756 C32.359569,24.295832 31.9343612,24.5477156 31.5001881,24.7653154 L31.4023971,24.8143593 C30.958769,25.035092 30.4678624,25.2503263 29.9658539,25.2181686 C29.3331652,25.1771048 28.7120032,25.0928025 28.092122,24.9864971 C28.086999,24.9864971 28.0805953,24.9852179 28.0754723,24.9839386 L27.9901425,24.969755 L27.9901425,24.969755 L27.6800537,24.9154089 L27.6800537,24.9154089 L27.4299761,24.8689344 L27.4299761,24.8689344 L27.3021817,24.9178373 C26.2756219,25.305788 25.150811,25.6084156 24.1192466,25.3370106 C23.6697047,25.282131 23.2483391,25.131052 22.8679574,24.8739234 C22.85515,24.8649687 22.8423425,24.856014 22.829535,24.84578 C22.7693399,24.8150781 22.7129871,24.7806664 22.663038,24.7435682 L22.6523117,24.7351892 L22.6523117,24.7351892 L22.6425461,24.7268101 L22.6374231,24.7242516 C22.0751754,24.4659717 21.7524273,23.9157679 21.8087802,23.299299 C21.7742,23.1034464 21.7754807,22.9115594 21.8139031,22.7070079 C21.6307564,22.9230726 21.4437674,23.1368347 21.254217,23.3490617 C20.5608758,24.1829476 19.8818907,25.0334892 19.253152,25.9189178 L19.1089668,26.1238751 C18.7631652,26.6111401 18.4416979,27.1152911 18.1445647,27.6345372 C17.8435893,28.147515 17.5349294,28.6555038 17.2160236,29.1569684 C16.8013819,29.6146668 16.4004683,30.0833347 16.0141406,30.5634864 L15.8494672,30.7699702 L15.2936232,31.5004199 C14.9004341,31.9661936 14.5738438,32.4753336 14.3164137,33.0278402 C14.1050906,33.4206967 13.9104171,33.8211009 13.7349549,34.231739 C13.678602,34.355698 13.6248107,34.4810641 13.5723001,34.6064303 C13.3917148,35.0963816 13.239306,35.5954157 13.1201966,36.1108241 C13.0245249,36.4838523 12.9558256,36.8620615 12.9150326,37.2455449 L12.9024697,37.3735682 C12.8871008,37.5243914 12.875574,37.6753424 12.8691703,37.8262935 C12.906312,37.8481686 12.9370499,37.8697879 12.9601033,37.8915351 L13.0535978,37.9249234 L13.0535978,37.9249234 L13.129194,37.9472945 C13.2470408,37.9838416 13.4505408,38.0593369 13.4019608,38.1525014 L13.1547768,38.623392 L13.1547768,38.623392 C13.1803917,38.6502562 13.1919184,38.6782716 13.1752687,38.7091015 C13.0100524,39.0249474 12.8435554,39.3409213 12.6770584,39.6570231 C12.6719354,39.6685363 12.6629701,39.6773631 12.6540049,39.6838873 C12.7961678,39.7490009 12.9344884,39.8206387 13.0664053,39.8986727 C13.3238353,40.0523102 13.5133858,40.2299976 13.688848,40.4372355 C13.8732755,40.5473786 14.047457,40.6676278 14.2113925,40.8056585 C14.4137505,41.0180134 14.5904935,41.2509641 14.7403408,41.5028478 C14.8786614,41.7407876 14.9913671,41.9889614 15.0784578,42.2486484 C15.1168802,42.3855278 15.1348107,42.5275242 15.1335299,42.672079 C14.9785596,43.7646834 13.7272704,43.0161963 13.7029362,42.9202528 C13.5313162,42.2601617 13.3340813,41.8432552 12.890943,41.3520246 L12.8794163,41.3442212 L12.8794163,41.3442212 C12.623267,41.2316475 12.3696792,41.1203531 12.1045647,41.0333643 C12.0648616,41.0410398 12.0238777,41.0462847 11.9828938,41.052553 C12.0290007,41.1179225 12.0059472,41.1818848 11.9124528,41.1932701 C11.5090176,41.2727113 11.1017403,41.2943306 10.6919014,41.2597909 L10.0694587,41.1716509 L10.0694587,41.1716509 C9.81126022,41.2705494 9.5644732,41.3975287 9.33189862,41.5487652 L9.25490399,41.6000705 L9.24081578,41.6103045 C8.64014572,42.0925804 8.17651552,42.7334828 7.85889042,43.4319514 C7.83071399,43.494208 7.80367602,43.5570333 7.77777648,43.620427 L7.739781,43.7159441 L7.73721951,43.7210611 C7.32225768,45.3496697 7.69239338,47.1379283 8.45059525,48.6154579 C8.86427634,49.2768283 9.29588787,49.9254063 9.7467106,50.5611917 L10.1847259,51.1331428 L10.1847259,51.1331428 C10.4434366,51.3761996 10.6970244,51.6255248 10.9442085,51.8813741 C10.9826309,51.9198794 11.0236148,51.9581288 11.0645986,51.995227 C11.1952348,52.0809365 11.3284324,52.15654 11.4641915,52.2205023 C11.5167021,52.2382838 11.5704935,52.254914 11.6242848,52.2691136 C11.8855571,52.3943519 12.1596368,52.4610006 12.4478047,52.4686761 C12.8284266,52.4938613 13.1977918,52.449225 13.5548452,52.3360323 L13.6260914,52.3124801 L13.678602,52.2932914 C13.8732755,52.1692045 14.0538607,52.0144157 14.2254807,51.8327627 C14.2639031,51.793106 14.3356249,51.793106 14.4175927,51.8148532 C14.4624188,51.7688004 14.507245,51.720189 14.5495096,51.6677399 C14.5789668,51.6357587 14.6250736,51.6346074 14.6609345,51.6587852 C14.7826054,51.6448414 15.1117573,51.8316114 15.0259472,51.9299854 C15.011859,51.9530119 14.9939286,51.9734798 14.9785596,51.995227 C15.0361932,52.0246497 15.0938268,52.0579101 15.1450567,52.0925776 C15.4140134,52.167076 15.8112918,52.4351615 15.7790154,52.5158299 L15.7751839,52.5222765 C15.7129396,52.6398265 15.6320221,52.7385178 15.5324312,52.8167651 L15.4985427,52.8420881 L15.4229786,52.8945372 C15.5292806,52.961186 15.6189328,53.0378128 15.5741067,53.0915412 C15.5536148,53.1311978 15.5318421,53.1697031 15.5062271,53.2042428 C15.723954,53.4728845 15.9404002,53.7439569 16.1555656,54.0151571 C16.370731,54.4809307 16.6371262,54.9157466 16.9547513,55.3187092 C17.2198658,55.7562115 17.5387717,56.1490681 17.9114689,56.4994537 C17.9422068,56.5302835 17.9742254,56.5597062 18.0049634,56.5891288 C18.2795234,56.7917295 18.5668308,56.9814997 18.8660277,57.1638385 L18.9949803,57.2415445 C19.0628599,57.2823525 19.1768463,57.3335223 19.123055,57.4320243 C19.1166512,57.4448168 19.1089668,57.4551787 19.1000015,57.4627262 C19.2882712,57.5856618 19.4829447,57.7019453 19.6840219,57.8095299 L19.7030825,57.8212436 C19.7790942,57.8697167 19.8820765,57.9576411 19.7736741,58.0294324 C19.6814604,58.0908362 19.4368378,57.9245342 19.3215707,57.8477794 C19.299798,57.8477794 19.274183,57.8415111 19.2485681,57.8338356 C19.2869905,57.8542183 19.3248437,57.8763634 19.3632661,57.8979969 L19.4214689,57.9297791 C19.466295,57.9565153 19.6865834,58.1023494 19.5328938,58.1638812 C19.4573298,58.1701495 19.3881695,58.1509608 19.3241321,58.1074664 C19.2485681,58.0703683 19.1742848,58.0308396 19.1012823,57.9897758 C19.1268972,58.0294324 19.1268972,58.069089 19.0628599,58.0948019 C19.0410872,58.0959532 19.0193145,58.0948019 18.9975418,58.0922434 C19.1486699,58.1881869 19.3036402,58.2776062 19.4637335,58.3620365 L19.4896086,58.3782339 C19.557268,58.4220211 19.6651309,58.5053281 19.5866852,58.5770778 C19.4983137,58.6562631 19.2549718,58.4874026 19.1922153,58.4491531 L19.0052263,58.3377308 L19.0052263,58.3377308 C18.9911381,58.344127 18.9757691,58.3466855 18.9591194,58.3480927 C19.0154723,58.3826323 19.0679829,58.4197305 19.1256165,58.452863 L19.2040243,58.4955165 C19.3022558,58.549754 19.4410121,58.6388275 19.390731,58.7279009 C19.3404498,58.8160268 19.1910821,58.7434835 19.0946282,58.6863747 L18.9908535,58.6221594 C18.9862997,58.619364 18.9817459,58.6166491 18.9770499,58.614048 L18.9730653,58.6294274 C18.9722115,58.6319717 18.9710731,58.634516 18.9693654,58.6370744 C18.9213374,58.7205453 18.800547,58.6658575 18.7172184,58.6176999 L18.6504595,58.5770778 C18.5369,58.508766 18.424479,58.4410797 18.3128168,58.3728816 L18.1458455,58.2700586 L18.143284,58.2700586 C17.5656673,57.9232549 17.0315961,57.5779863 16.5282628,57.1328086 C16.2272874,56.8665974 15.9468039,56.5851632 15.6804087,56.2845403 C15.1450567,55.6820152 14.7467445,54.9926293 14.3625206,54.2890438 C14.3561169,54.2774026 14.3650821,54.2479799 14.3804511,54.2159988 C14.3381864,54.129138 14.2972025,54.040742 14.2562187,53.9499155 C13.8617488,54.0600586 13.421172,54.0920398 13.0151754,54.0651756 C12.7974485,54.050976 12.5822831,54.0125986 12.3683985,53.9550325 C11.6857606,53.8603683 11.027457,53.5495114 10.4588056,53.1772507 C10.4229447,53.1542242 10.390926,53.1286393 10.3576266,53.1057408 C10.12325,52.9738505 9.90040017,52.8204689 9.68907701,52.6450842 C9.27667668,52.3048046 8.88348753,51.9261477 8.52615929,51.5308605 C8.26744852,51.2239693 8.02282595,50.905309 7.79357235,50.5752634 C7.56047651,50.2490556 7.32481917,49.9229757 7.08916183,49.5966399 C6.43470042,48.5732428 6.01589635,47.3950568 5.85324156,46.1912859 C5.77383528,45.7475153 5.7328514,45.2983719 5.74181662,44.8506357 C5.74822036,44.5269863 5.78408126,44.1994992 5.84683783,43.8734193 C5.80969618,43.8374725 5.77255454,43.8017815 5.73541289,43.7646834 C5.71492095,43.8003744 5.69442901,43.8260872 5.68162154,43.8131668 L5.38808044,43.519604 C5.17985647,43.3099269 5.04015056,43.1556342 4.80046802,42.8166338 C4.4188056,42.2755126 4.1344799,41.680663 3.92315674,41.0539602 C3.77074792,40.6062239 3.66956896,40.0969559 3.62986582,39.604574 C3.61705835,39.5225743 3.60425089,39.4394233 3.59400492,39.354993 C3.51203715,38.6885056 3.58760119,38.0501617 3.68878015,37.392629 C3.69518388,37.3492625 3.71695657,37.3223984 3.74641374,37.3081987 C3.75384207,37.2561334 3.76267922,37.2026609 3.7713883,37.1493163 C2.92302188,36.2523087 2.31249008,35.1712176 2.36231111,33.8656187 C2.37793622,33.454213 2.46246548,33.0486919 2.62383953,32.6700349 L2.64343494,32.6273081 L2.64343494,32.6273081 C1.93531026,32.5185722 1.37357489,32.0217129 0.951568957,31.4058836 C0.914171162,31.376333 0.877926039,31.3465266 0.843089737,31.3168481 C0.088473961,30.6731313 -0.434710941,29.7616682 -0.792935708,28.7989073 C-1.04946921,28.2398766 -1.21942426,27.6424686 -1.29153028,27.0228016 C-1.29665327,26.9785397 -1.29972706,26.9346615 -1.30369737,26.8906554 C-1.47890348,25.9108806 -1.52347345,24.9212555 -1.44253028,23.9463418 C-1.61837676,23.3429213 -1.76143613,22.728883 -1.85941323,22.1005172 C-1.9055201,21.8013014 -1.93753876,21.5018298 -1.96187294,21.2024862 L-1.96443444,21.1859839 L-1.96827668,21.1321276 L-1.97909187,20.9978541 C-1.98079953,20.9756331 -1.98236489,20.9534595 -1.98364563,20.9312859 C-2.20009177,18.1911401 -1.58661425,15.4944886 -0.572263104,12.9564637 C-0.483891603,12.7282141 -0.392638422,12.5005403 -0.298503562,12.2746833 L-0.198669381,12.0387323 L-0.198669381,12.0387323 C0.819524003,10.3987384 2.34847905,9.07228775 3.64344173,7.67138499 C4.09029415,7.18808569 3.36756896,6.46249711 2.91905157,6.94771528 C2.05864614,7.87849499 1.13561221,8.77000182 0.302230534,9.72675023 C0.155072774,9.7374959 0.00765886344,9.74146156 -0.139370823,9.73416986 C-0.395520102,9.72124947 -0.643984902,9.68044151 -0.884765225,9.61507201 C-1.48543528,9.52680401 -2.03231399,9.28502644 -2.5292436,8.92939593 C-3.19395098,8.61994622 -3.76132163,8.03648192 -3.81767447,7.27533029 C-3.8240782,7.19857551 -3.82279746,7.12309997 -3.81767447,7.04775235 C-3.8791503,6.67536372 -3.8240782,6.28532148 -3.66782714,5.92572531 C-3.64093147,5.82722334 -3.60635131,5.73000061 -3.56280594,5.63405713 C-3.43601204,5.34878517 -3.22725038,5.07515436 -2.97238185,4.8895357 C-2.96597812,4.88569796 -2.96085513,4.8832674 -2.95573215,4.87930173 C-2.92883647,4.85128624 -2.90322154,4.82301489 -2.87376438,4.79755789 C-2.830219,4.75777332 -2.78411213,4.7208031 -2.73544377,4.68626345 C-2.90834453,4.40214281 -3.06459559,4.11060255 -3.19779321,3.79961775 C-3.34251756,3.46189669 -3.41680085,3.11918657 -3.45778473,2.75703191 C-3.47443444,2.61375631 -3.48083817,2.47175995 -3.48339966,2.32989152 C-3.49108414,2.26452203 -3.49620712,2.19800122 -3.50133011,2.1314804 C-3.53334877,1.62489881 -3.47443444,1.09925646 -3.28488397,0.625807353 C-3.27079576,0.590116378 -3.25286531,0.554169553 -3.23621561,0.517071407 C-3.20035471,0.409614707 -3.16065157,0.302285931 -3.11198321,0.197259799 C-2.92243274,-0.205702826 -2.653476,-0.547261623 -2.32176268,-0.827416591 C-2.14245818,-1.00779034 -1.941381,-1.16769614 -1.72237337,-1.30329626 C-1.59301798,-1.38388879 -1.44573215,-1.45552659 -1.29076183,-1.51437192 C-1.01412061,-1.66020602 -0.659353859,-1.79324765 -0.37118592,-1.80335369 C-0.336605768,-1.80476086 -0.305867854,-1.8007952 -0.272568448,-1.8007952 C-0.245672774,-2.53521057 -0.15089754,-3.33473959 0.139831891,-3.99994774 C0.308890416,-4.48209572 0.562478202,-4.91064327 0.944140628,-5.21906958 C1.1654963,-5.44983143 1.4382597,-5.63723313 1.77861476,-5.75972142 L1.83938236,-5.78065877 L1.86243579,-5.787055 C2.16853418,-5.93544758 2.49896675,-5.99429292 2.83836455,-5.99288575 C3.23411518,-6.01348162 3.6375503,-5.9391574 3.98207108,-5.75763233 C4.05379288,-5.71925494 4.13063766,-5.67192282 4.2036402,-5.62075296 C4.2587123,-5.73076816 4.32018813,-5.84206259 4.39062918,-5.95322911 C4.63781323,-6.34864418 4.93622714,-6.69276147 5.28202867,-7.00617685 C5.32301255,-7.04327499 5.36783868,-7.0765354 5.41138405,-7.11222637 C5.57916183,-7.2644567 5.75718558,-7.40517381 5.94161306,-7.53309845 C6.33992519,-7.8095436 6.77665971,-8.01537435 7.23516692,-8.14854391 C7.76452269,-8.34391973 8.32305249,-8.43462805 8.88179446,-8.41554261 L8.99747396,-8.4106615 L8.99747396,-8.4106615 C9.02308889,-8.40823093 9.04870382,-8.40695169 9.073038,-8.40567244 C9.62760119,-8.36972562 10.1744799,-8.23412549 10.6970244,-8.02957399 C11.2387802,-7.81581191 11.6972874,-7.49229049 12.1237759,-7.12130902 C12.2236741,-7.25933971 12.3376606,-7.38995077 12.4772619,-7.51275843 C12.5169651,-7.54717016 12.5592297,-7.578 12.5989328,-7.60998116 C12.6296707,-7.64068308 12.6616894,-7.67010574 12.6949888,-7.69952841 C12.8473976,-7.83384929 13.0087717,-7.95026071 13.1855147,-8.05387967 C13.3840304,-8.17016317 13.597915,-8.2507557 13.8194841,-8.30064631 C14.0448955,-8.37752902 14.2818336,-8.42486114 14.5226139,-8.44021209 Z M11.8906929,44.2967422 C11.9133684,44.2954892 13.0995578,44.7397842 13.6905531,45.0270398 L13.7195987,45.041269 C14.4009558,45.37899 14.7288269,45.6220469 15.3410237,46.0557114 C15.3820075,46.0851341 15.4242722,46.1299077 15.4242722,46.1734021 C15.4242722,46.8050199 15.270615,47.5773248 14.7390729,47.2351766 C14.6622281,47.1857124 14.5848141,47.1373853 14.5068308,47.0898163 L14.3894291,47.018984 L14.3855869,47.0202632 C14.3868676,47.0202632 14.3881483,47.018984 14.3894291,47.0177047 C13.2316344,46.3128399 12.0085215,45.7602055 10.7175292,45.3649183 C10.6291577,45.3329372 11.2836063,44.3453333 11.4641915,44.4003409 C11.3604511,44.359405 11.8734395,44.297705 11.8906929,44.2967422 Z M24.0555936,16.3982762 C23.2857369,16.4805318 22.5158802,16.5615081 21.7460236,16.6406934 C21.2554977,16.6969802 20.7636911,16.7468709 20.2718845,16.789086 C19.5328938,16.8442215 18.7939031,16.8530483 18.057474,16.7519878 C17.7962017,16.7162969 17.5400524,16.6649991 17.2864646,16.602316 C17.1135639,16.7289614 16.9342594,16.8479313 16.7511126,16.9619122 L14.7172874,18.5160687 L14.7172874,18.5160687 C13.3532925,19.5869259 12.0187547,20.7214895 10.8174146,21.9738718 C8.71929584,24.1618949 7.01039593,26.721667 5.93597778,29.5571167 C5.83851298,29.6145548 5.76320509,29.7147198 5.73810246,29.8683573 C5.54829584,31.0305527 4.99322036,32.0905363 4.79265547,33.2479985 C4.59516438,34.3880629 4.85784546,35.35722 5.57480729,36.2608797 C5.72785649,36.453918 6.04138321,36.443684 6.23375131,36.3133288 C6.27844936,36.4010851 6.47209822,36.3973753 6.54010585,36.0097636 C6.85888363,35.6650067 7.13155454,35.3036196 7.31623817,34.8561392 C7.45225344,34.5266053 7.2236402,34.2981319 6.94623053,34.2532303 C7.06149771,33.8387545 7.19149347,33.4279885 7.33762663,33.0215719 C7.77051891,31.8138353 8.32123986,30.660083 9.01412366,29.5778405 C9.62375895,28.6259532 10.3294502,27.7970015 11.0876521,26.9654913 C11.0966173,26.9539781 11.1119863,26.9502683 11.128636,26.9477098 L11.2861678,26.7736044 L11.2861678,26.7736044 C11.3079405,26.7492987 11.3527666,26.7518572 11.4027157,26.7646497 C11.4501033,26.714759 11.4962102,26.6635892 11.5448785,26.6136986 C11.5922662,26.5625287 11.6447768,26.5778797 11.6742339,26.6188156 C11.7549209,26.6009061 11.9022068,26.6878949 11.9470329,26.7161662 C12.0238777,26.7672081 12.0482119,26.8247742 11.9828938,26.8976913 C11.9713671,26.9106117 11.9598404,26.9234041 11.9483137,26.9347894 C12.0366852,26.9720155 12.1237759,27.0217782 12.1916555,27.0705175 C12.4285936,27.1228387 12.7615876,27.342869 12.703954,27.4082385 C12.5822831,27.534756 12.4644545,27.6640878 12.3479065,27.7957223 C12.4503662,27.867488 12.5169651,27.9377186 12.4900694,27.9685485 C11.9905783,28.4941908 11.5295096,29.0507909 11.1068633,29.6403956 C10.7853959,30.0804564 10.4946665,30.5384266 10.234675,31.0155855 C9.84788957,31.6910277 9.52001849,32.3856585 9.22928906,33.099478 C9.18830517,33.2083418 9.14860204,33.3169499 9.11017964,33.4256858 C8.68497184,34.6141057 8.36734673,35.8472993 8.23286836,37.1035193 L8.22724826,37.1882577 C8.20219876,37.6407857 8.19239678,38.8524197 8.14577761,39.1413589 C8.42882256,39.2807967 8.72339423,39.3997666 9.02949262,39.4971173 C9.08712621,39.5137475 9.14604054,39.5290985 9.20495488,39.5431702 C9.23825428,39.5290985 9.27283444,39.5174573 9.30741459,39.5072233 C9.5891788,39.3933704 9.88375047,39.3114986 10.1847259,39.271842 C10.3875641,39.2450898 10.5894217,39.2357712 10.7911568,39.2415726 L10.8776097,39.2449778 C10.9672619,39.2475363 11.0556334,39.2539325 11.1452857,39.2630152 C11.1401627,39.2117174 11.1376012,39.1619547 11.1337589,39.1106569 C11.108144,39.0940267 11.0889328,39.0711282 11.0876521,39.0402984 C11.027457,38.4646375 11.0261763,37.8889766 11.0838098,37.3133157 C11.1222322,37.0126928 11.1670584,36.7133491 11.2157267,36.4141334 C11.2656758,36.1683902 11.3233094,35.9267405 11.386066,35.684835 C11.552563,35.0069623 11.7741321,34.345464 12.0430889,33.6982932 C12.8089752,31.8522127 13.9065749,30.1879131 15.0105783,28.5325682 C15.8161678,27.3238083 16.5782119,26.0879283 17.4119778,24.8995084 C18.1215113,23.8876244 18.8669057,22.8910915 19.6622492,21.9444491 C20.456312,20.9992139 21.2952008,20.0895418 22.2006885,19.2479256 C22.3466936,19.1134768 22.4939795,18.9829936 22.6438268,18.8539177 C23.5019269,18.0863698 24.4343103,17.4555734 25.405116,16.836546 C25.4422577,16.8122404 25.5088565,16.8391045 25.5639286,16.8850295 L25.7205591,16.7888491 C25.7467907,16.7728822 25.7731172,16.7571048 25.7995859,16.7417539 C25.8239201,16.7265308 25.8508158,16.7519878 25.864904,16.773735 C25.9315028,16.7391954 25.9981016,16.7060629 26.0647004,16.6726746 C26.1132407,16.6335296 26.1633179,16.5964315 26.2122424,16.5577982 C25.4923349,16.5215956 24.7734519,16.4678672 24.0555936,16.3982762 Z M33.0844714,7.87017988 C32.5030126,7.75389638 31.9189922,7.73713826 31.3324103,7.82412701 C31.0866351,7.86007384 30.8420126,7.90331237 30.5994392,7.95563355 C31.1502882,8.43535096 31.5932984,9.04926132 31.880826,9.75578912 C32.191535,10.5194992 30.9521567,10.8486493 30.6458022,10.0959407 C30.350334,9.36984047 29.7910321,8.81285658 29.1154383,8.47897326 C28.9694332,8.56046126 28.8279108,8.64872926 28.692792,8.74646369 C28.516049,8.88973929 28.349552,9.04452811 28.1933009,9.21466788 C27.8526224,9.58449802 27.5401203,10.0781592 27.3352008,10.5668314 C27.2557946,10.8329146 27.1968802,11.1066734 27.1597386,11.3881076 C27.1520541,11.4520699 27.1443696,11.5173115 27.1379659,11.582553 C27.0116843,12.9064452 27.3906572,14.1945184 28.0426852,15.334327 L28.0683001,15.3347107 L28.0683001,15.3347107 C28.6502712,15.0195044 29.2595223,14.7539328 29.8864477,14.5376123 C30.3885003,14.2000191 30.909764,13.8877551 31.4463968,13.6050416 C32.5872098,13.0038906 33.792155,12.5404622 35.0337848,12.2235524 L35.177211,12.1876366 C35.4696481,12.1130139 35.7647534,12.0472748 36.0610446,11.9897532 L36.2389498,11.9562209 L36.2415113,11.9562209 L36.2223001,11.7654853 L36.2223001,11.7654853 C36.1224019,11.0171261 35.8291109,10.3224953 35.45001,9.68044151 C35.1656843,9.19560711 34.7366343,8.6992595 34.2601966,8.3026931 L34.2576351,8.30128593 C34.0413313,8.17847827 33.813896,8.07689663 33.5798269,7.99294718 L33.4917488,7.96228563 L33.0844714,7.87017988 Z M17.4721729,6.73305773 C16.2631483,6.61907688 15.0541237,6.63059009 13.8450991,6.72909207 C13.0548785,6.80725403 12.269781,6.91586205 11.4885257,7.05402066 C10.9595774,7.14484716 10.4408751,7.2727718 9.93113808,7.43152628 L10.2226976,8.02044692 C10.7099742,9.00124694 11.2091095,9.9756063 11.7971856,10.9019939 C12.1007225,11.3791528 12.4298743,11.8334132 12.7884833,12.2695084 C13.0305444,12.5816445 13.2969396,12.8708821 13.5889498,13.1368374 C13.6657946,13.2303503 13.7477623,13.3186184 13.8310109,13.4041999 C14.0974061,13.6319058 14.3842933,13.8314682 14.6980762,13.996491 C14.9496717,14.1795654 15.2123986,14.3394933 15.486257,14.4796889 L15.5894757,14.531344 L16.5500355,14.899639 C16.6012653,14.9141371 16.6530644,14.9286353 16.7050532,14.9424132 L16.7831313,14.96245 L16.9291364,14.993024 L17.0387114,14.9336101 C17.0570687,14.9238026 17.0755684,14.9141371 17.0943527,14.904756 C17.1250906,14.8882537 17.1468633,14.9202349 17.153267,14.9431334 C17.1558285,14.952216 17.1519863,14.9648806 17.1455825,14.977673 L17.2855681,14.9020696 L17.2855681,14.9020696 C17.5262204,14.9996761 17.7816012,15.0777101 18.0555528,15.1291358 C18.1795291,15.1522902 18.3037615,15.1700717 18.428122,15.1852947 L18.4447812,15.19641 C18.4475609,15.1983573 18.4503643,15.2004751 18.4532246,15.2029483 L18.5892399,15.2029483 L18.5892399,15.2029483 C19.5467259,15.295182 20.5177878,15.1732698 21.4737369,15.0017229 C22.8264612,14.8658669 24.1789294,14.7160672 25.5306292,14.5759897 C25.5562441,14.5735591 25.5664901,14.5849444 25.5664901,14.6029818 L25.6497386,14.5953063 L25.6497386,14.5953063 C25.7701288,14.5823859 25.9110109,14.7832276 25.8200779,14.8562726 C25.8930804,14.899639 25.9635215,14.96245 26.0160321,15.0110614 L26.04677,15.008375 C25.8610617,14.645069 25.7176182,14.2651328 25.6151584,13.8699736 L25.4845223,13.207196 L25.4845223,13.207196 C25.4486614,12.9603014 25.4281695,12.6969046 25.4243272,12.4370896 C25.415362,12.3181197 25.4089583,12.2069532 25.4089583,12.1096026 C25.4089583,12.0174968 25.410239,11.9253911 25.4140813,11.8334132 C25.1592127,11.7283871 24.900502,11.6364093 24.6366682,11.5582473 C23.8874316,11.4662695 23.1394757,11.3740359 22.390239,11.2832094 C21.940697,11.2998396 21.491155,11.3318207 21.0428938,11.3817113 C20.5344375,11.426485 20.0272619,11.484051 19.5213671,11.5531304 C19.4739795,11.5582473 19.3894502,11.494285 19.3382204,11.4200887 L19.1217742,11.4496393 L19.1217742,11.4496393 C19.0090685,11.463711 18.8912399,11.2384357 19.0398064,11.1923829 C19.0935978,11.1710621 19.1473891,11.1508784 19.2011805,11.1314528 L19.2818675,11.1028356 L19.2357606,11.1079526 C19.2203917,11.1093598 19.2011805,11.1053941 19.1794078,11.0978466 C19.0602984,11.1130696 18.941189,11.1284205 18.8233603,11.1424923 C18.6739246,11.161119 18.7078873,10.9643267 18.8127084,10.918015 L18.8630634,10.8994354 C18.7745383,10.8442948 18.6966361,10.6934231 18.806124,10.6440924 L18.8207988,10.6384692 C18.8720287,10.6181291 18.9219778,10.601371 18.9732076,10.5821823 C18.9693654,10.56568 18.9693654,10.5502012 18.9744884,10.5362574 L18.7631652,10.5629936 L18.7631652,10.5629936 C18.7438787,10.565522 18.8357734,10.4308231 18.879752,10.4041956 L18.8873976,10.4005293 L18.9885766,10.3698274 C19.0039455,10.326333 19.0859133,10.2303895 19.1140897,10.2215627 C19.4855062,10.1050234 19.8313077,10.0002531 20.1924782,9.91953266 C20.2104087,9.89778548 20.2309006,9.88115527 20.253954,9.87603829 C20.4793654,9.82230994 20.7073383,9.7800948 20.9353111,9.74440383 C20.9506801,9.72124947 20.966049,9.70474719 20.9839795,9.70334002 C21.5487886,9.63170222 22.1148785,9.61507201 22.6835299,9.65357733 C22.7923934,9.66368338 22.9012568,9.67532452 23.0101203,9.68926831 C23.2188819,9.71242267 23.4276436,9.74184534 23.6351245,9.78150198 C24.1548331,9.87059235 24.6623942,10.0060097 25.1567824,10.1886759 L25.2706377,10.2316688 C25.3948701,10.2778496 25.5178217,10.326333 25.6394926,10.3789101 C25.7009684,10.1601589 25.7778132,9.94511759 25.8687462,9.73416986 C25.8828344,9.69310605 25.8982034,9.65357733 25.9148531,9.61392069 L25.7906207,9.53959648 L25.7906207,9.53959648 C25.763725,9.59076633 25.7086529,9.63042297 25.672792,9.60880371 C24.7826733,9.00883713 23.8413247,8.50852385 22.8487462,8.10939897 C22.2929023,7.86378365 21.7242509,7.65539441 21.1415113,7.48128897 C20.8507818,7.38803191 20.5574909,7.30360164 20.2629193,7.22300912 C20.1156334,7.19217928 19.9683476,7.16147736 19.8185003,7.13589243 C19.0487717,6.92865451 18.2662356,6.79446156 17.4721729,6.73305773 Z M46.8029303,8.76360559 C46.6948353,8.95011972 46.5823858,9.1348429 46.4631483,9.3170076 C45.8841228,10.2021182 45.1899583,11.0327329 44.4028115,11.7569143 C44.6081152,11.7564026 44.8129065,11.764206 45.0151364,11.7831389 C45.3638836,11.8160155 45.7054587,11.8738374 46.0384528,11.9548137 C46.0654765,11.9331945 46.0957021,11.9223209 46.1199082,11.9394628 L46.2067428,11.9994594 L46.2067428,11.9994594 C46.9210151,12.191986 47.5916139,12.4946557 48.1990719,12.9001768 L48.1881808,12.820096 C48.1863214,12.8067492 48.1843007,12.7934024 48.1819099,12.7800556 C48.1921559,12.6227083 48.1947174,12.4652331 48.1895944,12.309165 C48.0640813,11.3868283 47.7502984,10.5374087 47.3916894,9.67788301 C47.3849014,9.66125281 47.3897683,9.63963355 47.4001423,9.61763051 C47.2191729,9.32238043 47.0210414,9.03685263 46.8029303,8.76360559 Z M46.9677623,1.51232513 C46.7000863,1.56093649 46.4349718,1.62361957 46.1711381,1.7016536 C45.6754892,1.77597782 45.1952093,1.90646095 44.7315791,2.09182376 C44.0924867,2.31825038 43.4726054,2.58177514 42.8552857,2.86077879 C41.656507,3.40305135 40.5320117,4.08885536 39.5086953,4.91524856 C39.4433773,4.96501124 39.3806207,5.01630902 39.3178641,5.06747888 C39.0886105,5.26563415 38.8657606,5.47287208 38.6544375,5.69162321 C38.4328684,5.93212154 38.2100185,6.1727478 37.9884494,6.41439745 C37.7169311,6.69851808 37.404429,6.95551869 37.1585257,7.26253783 C37.1085766,7.32522091 37.0650312,7.39430021 37.0253281,7.46350744 L37.1700524,7.51327013 L37.1700524,7.51327013 C37.2917233,7.55420602 37.2712314,7.78191188 37.1508412,7.74865147 C37.1098573,7.73713826 37.0714349,7.72306655 37.0330126,7.70784351 C37.0496623,7.7295907 37.061189,7.75133789 37.0637505,7.77039866 C37.0714349,7.83180249 37.0240473,7.91636068 36.9484833,7.89461349 C36.9139031,7.88553084 36.879323,7.87273838 36.8447428,7.85866667 C36.8344969,7.89832331 36.8268124,7.93797995 36.8268124,7.97635734 C36.8332161,7.97891583 36.8396198,7.98147432 36.8473043,7.98288149 C36.9318336,8.01230416 37.0906461,8.14393862 37.1136996,8.2336138 C37.13163,8.3026931 37.0727157,8.37676147 36.9971517,8.35629353 C36.9407988,8.34094257 36.8857267,8.31791613 36.8319354,8.29233121 C36.8677963,8.32699878 36.8959727,8.36409693 36.8985342,8.39607809 C36.9036572,8.45492343 36.8524273,8.53794652 36.7819863,8.51888575 C36.6513501,8.48293892 36.5463289,8.42805925 36.4592382,8.35897995 C36.4361847,8.38955393 36.4028853,8.41385962 36.3759897,8.40631206 L36.3260405,8.39096111 L36.3260405,8.39096111 C36.3397018,8.40366829 36.3522247,8.41705773 36.3643681,8.43021976 L36.3823934,8.44967852 C36.7358794,8.83089395 37.0445393,9.25304527 37.2917233,9.70730568 C37.30325,9.69438529 37.3173383,9.68287208 37.3352687,9.66880036 C37.4505359,9.57157764 37.5696453,9.4769134 37.6887547,9.38493558 L37.7247757,9.35348211 L37.7247757,9.35348211 L37.7617573,9.32212458 L37.4940813,9.41039259 L37.5000033,9.40346601 C37.5189177,9.37928359 37.5778171,9.29862356 37.6052593,9.27175038 L37.6119099,9.26583774 C37.9794841,8.93719933 38.3803578,8.65819569 38.81325,8.43061775 C39.0937335,8.24883683 39.3883052,8.09532726 39.6969651,7.96868186 C40.4333942,7.62712306 41.1839116,7.36756396 41.9549209,7.12706563 C42.0701881,7.08996749 42.1854553,7.05031085 42.3007225,7.01436402 C42.3340219,7.00285081 42.3404256,7.01692252 42.3353026,7.03994895 L42.3954977,7.0220395 L42.3954977,7.0220395 C42.5030804,6.98749985 42.6862271,7.17682832 42.6132246,7.26509632 C42.6572823,7.30091522 42.7005203,7.34082771 42.7383484,7.37828405 L42.7656334,7.40581343 L42.7963713,7.39685871 C42.8878679,7.36866411 43.0422439,7.51115375 43.1403095,7.61205849 L43.2126139,7.68852689 C43.267686,7.74737223 43.3752687,7.86890064 43.2433518,7.91636068 L43.0781355,7.9725196 L43.0781355,7.9725196 C43.0832585,8.00578001 43.0691703,8.03392343 43.0179405,8.05311212 C42.9603069,8.07230082 42.903954,8.09276876 42.8476012,8.11336463 C42.8817544,8.14312843 42.9153384,8.17408619 42.9483532,8.20544195 L42.9974485,8.25267457 C43.0554141,8.31180418 43.1929512,8.44210833 43.0715402,8.49965628 L43.0563628,8.50596536 L42.898831,8.5622522 C42.919323,8.60830507 42.9142,8.65192738 42.8450397,8.67738438 C41.9254638,8.98952051 41.0276606,9.35551291 40.1503493,9.771268 C39.4933264,10.1344461 38.7991618,10.4057742 38.0678556,10.5834616 C38.0076606,10.6027782 37.8770244,10.5119517 37.8232331,10.4211252 L37.7140376,10.4532201 C37.69587,10.4585218 37.6776549,10.4636388 37.6592975,10.4683294 L37.6413671,10.472295 L37.6413671,10.472295 C37.778407,10.8368803 37.8795859,11.2320395 37.9359388,11.6145342 C37.9423425,11.6490738 37.9474655,11.6850207 37.9513077,11.7195603 C38.0947513,11.7079192 38.2369142,11.6976852 38.3803578,11.6901376 C39.3729362,11.6375606 40.3770414,11.6695418 41.3721813,11.7872325 C41.7743357,11.5480134 42.1611211,11.2857679 42.5312568,11.0019031 C42.6439625,10.9147864 42.7553874,10.8252391 42.8655316,10.7344126 C43.5263968,10.1613102 44.1245053,9.51797721 44.6547344,8.82321847 C45.1452602,8.17975752 45.5717488,7.48896445 45.9303578,6.76503889 C46.2479829,6.08563112 46.5105359,5.37948709 46.7090516,4.65031662 C46.8909176,3.98382923 46.9536741,3.33525129 46.999781,2.64573747 C47.01515,2.53316378 47.0253959,2.42071802 47.0343612,2.30801641 L47.0333176,2.25978408 L47.0333176,2.25978408 L47.0317997,2.23637861 C47.0189922,1.99472896 46.994658,1.75282346 46.9677623,1.51232513 Z M37.5837335,10.0794385 C37.5542763,10.0896724 37.5235384,10.0999064 37.4928005,10.1088611 C37.510731,10.1485178 37.5273807,10.1870231 37.5440304,10.2265518 L37.5459515,10.2257683 L37.5459515,10.2257683 L37.666982,10.1306083 L37.666982,10.1306083 C37.6413671,10.1190951 37.6119099,10.1013136 37.5837335,10.0794385 Z M46.7884578,-0.301607931 C47.0189922,-0.387317442 47.1931737,-0.403947645 47.3110024,-0.350219295 C47.1368209,-0.337426831 46.9626394,-0.320796627 46.7884578,-0.301607931 Z" id="🖍-Ink" fill="#000000"></path>
                    </g>
                    <g id="face/Smiling" transform="translate(20.363868, 23.793984)" fill="#000000">
                        <path d="M18.7740217,30.8204434 C17.9130687,30.4696291 17.1448809,29.8844479 16.5832616,29.1369167 C16.3880071,28.8770441 16.3373809,28.6026228 16.3783411,28.3516294 C16.4243978,28.069405 16.5915618,27.8136189 16.8195361,27.6420455 C17.0482164,27.4699405 17.3342665,27.3850626 17.6108174,27.428331 C17.8511238,27.4659286 18.0903374,27.5973479 18.2796571,27.8699067 L18.3192107,27.9244121 C18.6531031,28.3755962 19.0881957,28.7457873 19.5839533,28.9843969 C20.061783,29.2143778 20.5961872,29.3217187 21.1492084,29.2592977 C22.2024729,29.1404582 22.9284357,28.5715086 23.7000551,27.7988846 C23.7956995,27.7013388 23.8914053,27.6007352 23.9875749,27.4985121 C24.048308,27.4058474 24.1325902,27.3462917 24.2261664,27.3150439 C24.3300661,27.2803487 24.447601,27.2823117 24.5552539,27.3198362 C24.6590857,27.3560288 24.7519061,27.4246121 24.8141447,27.515892 C24.8732974,27.6026461 24.9068353,27.709819 24.8959531,27.8330945 C24.8253254,28.6337928 24.4062202,29.348382 23.8108987,29.9094854 C23.1497181,30.5326624 22.273275,30.9637804 21.4481421,31.114987 C20.5390879,31.2815469 19.6127859,31.1622163 18.7740217,30.8204434 L18.7740217,30.8204434 Z M21.8769804,18.4681167 C22.8441205,19.0552967 24.3177449,20.4244857 23.2773248,21.8801764 C22.0526508,23.1637069 20.2893967,21.6920515 19.4204957,21.026479 C18.6148099,20.5106567 17.7095768,21.8373132 18.4570925,22.4396228 C24.7357897,27.0826779 27.283818,18.6216561 22.3661463,17.777737 C21.824693,17.6847408 21.6235959,18.2864662 21.8769804,18.4681167 Z M10.6254947,13.0670418 C10.732351,11.7422189 12.7524303,11.4413754 12.9533794,12.7523471 C13.1333243,13.9266954 12.9214888,15.0054839 12.3919002,16.062781 C11.8858773,17.072874 10.6140298,16.6016181 10.5178458,15.6818399 C10.3889151,14.4489155 10.559024,13.8911574 10.6254947,13.0670418 Z M26.0026098,12.4805201 C26.284246,12.1120971 26.690883,11.8605972 27.1780789,12.0027215 C28.700246,12.4470038 28.2516005,14.6054763 27.717017,15.6561214 C27.4265437,16.2266653 26.4876285,16.3713481 26.0633172,15.868988 C25.3717142,15.0497586 25.0405131,13.4137303 25.9197455,12.6067817 C25.9435674,12.5650782 25.9700789,12.522991 26.0026098,12.4805201 Z M12.3704605,7.27002142 L12.6109041,7.22798602 C13.3547359,7.09949276 14.2796051,6.97602501 14.8057997,7.57333075 C15.0848744,7.89007217 15.1809304,8.47878137 14.8057997,8.78196278 C14.1459592,9.31540854 13.4164461,9.10868232 12.6257132,9.15383971 C11.9740695,9.19119371 11.3477845,9.29890626 10.7200907,9.47812868 C9.34303215,9.87124111 8.22097023,10.5888984 7.04486081,11.3769142 C6.89053087,11.4802773 6.73299907,11.2831454 6.80664198,11.1389743 C7.48556565,9.81073276 8.80127642,8.71966348 10.1191645,8.05458326 C10.8225504,7.69959237 11.592279,7.40510985 12.3704605,7.27002142 Z M24.6150333,6.67502952 L24.7990676,6.71264971 C26.801801,7.1307853 29.4038205,7.96604548 30.3522114,9.93089825 C30.3883495,10.2087354 30.3501662,10.2682814 30.3191163,10.3071854 L30.3087784,10.3201314 C30.2831932,10.3533531 30.2627783,10.3991491 30.1422104,10.4369632 C30.1087528,10.4290009 30.0749622,10.4205678 30.0408137,10.4116292 C29.6060879,10.2978369 29.2621357,10.1410721 28.9291535,9.97840982 L28.5681164,9.80074815 C28.1492412,9.59560584 27.7266676,9.39792973 27.2788366,9.25199776 C26.3231269,8.94063623 25.3400973,8.72130146 24.3418375,8.60418168 C24.1254723,8.5788185 23.9171263,8.50588085 23.7527562,8.38087759 C23.5967361,8.26222443 23.4775467,8.09794635 23.423203,7.87958499 C23.3527737,7.59699052 23.3730135,7.38304331 23.5248154,7.12810171 C23.6389611,6.93664603 23.8022853,6.80394222 23.9898227,6.72773918 C24.1810091,6.65005349 24.3986728,6.63173911 24.6150333,6.67502952 Z" id="🖍-Ink"></path>
                    </g>
                </g>
            </g>
        </g>
    </g>
</svg>