<?xml version="1.0" encoding="UTF-8"?><svg width="116px" height="378px" viewBox="0 0 116 378" version="1.1" xmlns="http://www.w3.org/2000/svg" xmlns:xlink="http://www.w3.org/1999/xlink"><title>mix-5</title><desc>Created with Sketch.</desc><g id="Mix-N-Match" stroke="none" stroke-width="1" fill="none" fill-rule="evenodd"><g id="Artboard" transform="translate(-625.00, -145.00)"><g id="a-person/standing" transform="translate(690.25, 330.00) scale(-1, 1) translate(-690.25, -330.00) translate(615.00, 120.00)"><g id="pose/standing/shirt-3" transform="translate(-15.45, 80.91)"><path d="M67.17,129.54 C67.05,130.13 66.87,130.77 66.68,131.35 C67.62,132.25 68.93,133.45 69.88,134.32 C68.94,128.53 71.79,123.19 73.54,117.72 C72.88,116.88 70.59,116.02 70.66,115.08 C70.84,111.62 71.10,107.75 71.48,103.41 C72.75,89.87 74.02,75.74 71.01,62.16 C70.81,60.68 70.50,59.13 68.51,59.09 C62.66,82.37 67.40,105.82 67.28,129.25 L67.45,129.40 L67.17,129.54 Z M58.41,320.31 C53.60,320.31 49.18,319.44 44.90,317.67 C43.67,317.23 42.13,316.69 41.92,315.82 C41.57,313.43 41.81,311.08 42.07,308.59 C42.47,304.32 42.43,301.00 43.59,296.41 C44.82,292.14 45.87,288.80 44.67,284.39 C44.57,283.07 45.60,281.74 46.28,280.51 C47.24,278.71 47.73,276.85 48.49,275.01 C46.99,274.75 45.43,274.39 43.99,273.94 L43.75,274.81 C43.70,275.00 43.55,275.10 43.32,275.10 C43.17,275.10 42.80,275.03 42.74,274.72 C42.97,271.36 43.30,268.01 43.64,264.60 C47.21,231.71 52.61,204.59 61.69,177.55 C63.87,171.22 66.10,164.62 66.11,157.74 C64.87,157.48 63.49,157.33 62.23,157.50 C53.23,155.41 55.01,136.38 55.37,130.68 C54.73,130.49 54.02,130.22 53.50,129.86 L53.28,129.97 C44.34,107.79 48.01,71.13 50.06,46.48 C51.40,37.62 49.51,21.61 57.37,17.24 C63.72,14.99 70.03,13.73 76.66,12.25 C77.89,11.54 79.40,11.14 80.77,10.68 L80.07,9.69 C79.14,8.38 79.26,5.82 80.48,4.92 C81.22,4.96 82.27,5.71 82.98,6.06 C84.01,3.94 84.96,1.72 85.64,-0.83 L85.89,-0.74 C86.60,-7.95 95.95,-9.20 101.22,-6.80 C106.97,-3.64 103.97,3.50 106.59,8.66 L107.54,7.40 C109.00,7.37 112.10,9.29 112.84,10.01 C113.38,10.26 112.99,11.93 113.07,12.60 C120.79,14.35 131.35,14.83 133.80,23.49 C137.88,39.77 137.31,56.47 141.94,72.69 C146.79,85.84 153.91,101.94 153.97,113.98 C154.11,116.24 154.41,129.01 152.54,128.50 L151.31,129.73 C152.99,132.41 151.65,136.42 151.01,139.60 C149.42,146.33 146.32,153.59 139.70,150.37 C132.58,189.67 114.69,229.33 120.79,269.87 C120.86,270.11 120.72,270.37 120.46,270.27 L120.16,270.13 C119.38,270.37 118.40,270.45 117.59,270.63 C118.28,273.22 118.65,275.77 119.01,278.63 C119.44,278.89 119.24,279.57 119.26,279.99 C125.74,279.68 129.37,286.46 134.02,290.19 C137.09,292.92 140.58,295.53 144.40,297.93 C147.56,299.73 150.23,301.78 149.75,305.17 C149.79,305.17 150.77,305.02 150.82,305.01 C152.29,309.90 147.46,310.91 142.49,311.50 C130.35,312.72 119.96,310.02 105.90,304.91 C104.18,305.12 102.84,302.55 102.61,300.81 C102.38,299.65 103.02,298.47 102.53,297.21 C100.84,293.61 99.95,284.08 102.34,279.80 C103.18,278.83 104.26,277.93 104.12,276.26 C104.08,274.58 103.92,272.91 104.07,271.26 C101.19,270.99 98.35,270.37 95.84,269.36 C95.40,269.53 94.89,269.32 94.86,268.77 C94.38,261.10 93.81,252.73 93.68,244.88 C93.10,227.81 97.01,211.14 100.00,194.58 C100.21,189.27 101.19,184.14 101.50,178.82 C101.83,173.78 101.89,168.85 102.18,163.81 L100.45,163.44 C86.13,200.35 74.92,237.30 67.07,273.45 C67.24,273.60 67.75,273.77 67.73,274.08 C67.72,274.24 67.72,274.25 67.61,274.27 C65.71,274.65 63.84,274.93 61.96,275.15 C62.49,279.66 59.66,284.87 62.16,289.10 C62.83,290.12 62.86,290.33 62.45,291.03 C66.09,297.81 68.35,303.45 69.82,309.52 L70.76,308.72 C72.13,309.71 72.16,311.59 72.19,313.57 C72.09,314.73 72.65,315.94 71.79,316.91 C69.71,319.34 62.46,320.29 58.41,320.31 L58.41,320.31 Z" id="🎨-Background" fill="#FFFFFF"></path><path d="M85.04,-1.91 C86.04,-1.11 85.00,4.70 84.20,5.88 C89.62,9.37 95.09,12.78 100.68,15.98 L101.26,16.31 L101.24,16.30 C101.48,16.41 101.87,16.50 102.10,16.45 L102.26,16.40 C102.29,16.39 102.31,16.38 102.30,16.39 C102.39,16.34 102.48,16.29 102.57,16.23 C104.16,14.78 105.33,12.31 106.57,10.40 C104.45,8.52 105.51,4.87 105.59,2.37 C106.00,2.36 106.04,3.64 106.16,4.01 L106.22,4.36 C106.38,5.19 106.55,6.03 106.87,6.79 C107.79,5.63 112.44,8.38 113.31,9.27 C114.26,9.87 113.97,10.95 113.96,11.90 C122.79,13.61 134.05,14.82 135.24,25.91 C136.63,31.86 137.38,37.91 138.07,43.97 L138.18,44.94 C139.39,55.37 140.46,65.93 143.87,75.92 L145.17,79.02 C147.98,85.75 150.73,92.54 152.53,99.62 C153.92,102.64 157.63,131.49 152.05,129.26 C153.96,132.38 152.53,136.48 151.87,139.81 C150.49,145.27 147.75,154.21 140.37,151.57 C134.81,181.30 123.79,209.95 121.01,240.20 C120.10,250.03 120.12,259.98 121.66,269.75 C121.87,270.68 120.98,271.50 120.07,271.09 C119.62,271.22 119.14,271.26 118.67,271.35 C119.21,273.51 119.52,275.77 119.81,277.98 L119.84,278.23 L119.84,278.23 C120.06,278.47 120.17,278.79 120.16,279.14 C123.53,279.15 126.35,281.33 128.60,283.64 C132.49,287.72 136.60,291.60 141.26,294.80 C144.60,297.51 150.45,299.10 150.64,304.14 C152.34,303.86 151.93,307.58 151.63,308.56 C151.28,309.66 150.25,310.30 149.26,310.79 C135.09,315.54 119.48,310.91 106.01,305.81 C103.65,306.12 101.96,303.00 101.71,300.94 C101.45,299.80 102.05,298.69 101.70,297.58 L101.58,297.28 C101.16,296.17 100.76,295.08 100.52,293.90 L100.48,293.65 C99.91,289.57 99.45,282.67 101.63,279.25 C104.18,277.07 102.86,274.98 103.11,272.07 C100.60,271.78 98.11,271.21 95.76,270.30 C94.83,270.50 94.02,269.75 93.96,268.85 L93.87,267.41 C93.39,259.92 92.90,252.42 92.77,244.91 C92.19,227.87 96.05,211.20 99.09,194.56 C99.39,188.15 100.62,181.81 100.79,175.38 C100.92,171.51 101.08,167.64 101.27,163.77 C87.49,199.30 76.17,235.81 68.06,273.05 C68.80,273.55 68.88,274.94 67.77,275.16 C66.15,275.48 64.51,275.75 62.86,275.95 C63.13,279.95 60.75,285.36 62.95,288.74 L63.04,288.88 C63.46,289.53 63.87,290.27 63.44,291.03 C66.30,296.40 68.78,302.01 70.31,307.93 C72.06,307.21 73.05,310.76 73.00,312.04 C72.89,313.72 73.79,316.55 72.34,317.70 C64.74,322.60 54.41,321.84 46.12,319.13 C44.58,318.47 42.82,318.02 41.50,316.97 C40.91,316.36 40.95,315.36 40.90,314.58 L40.88,314.17 C40.80,311.90 40.81,309.59 41.43,307.36 C41.27,304.13 41.75,300.85 42.38,297.68 C42.79,295.13 43.96,292.70 44.12,290.13 C44.95,287.82 43.45,285.66 43.86,283.36 C44.19,281.95 45.22,280.74 45.81,279.43 L45.86,279.34 C46.40,278.15 46.78,276.92 47.25,275.70 C46.36,275.53 45.47,275.32 44.60,275.06 C44.18,276.58 41.76,276.15 41.83,274.61 C43.82,249.72 47.76,224.98 53.87,200.77 C56.72,186.45 64.08,173.10 65.19,158.49 C64.31,158.33 63.30,158.29 62.43,158.39 L62.33,158.40 C61.78,158.47 61.25,158.56 60.65,158.28 C53.05,153.59 53.83,139.20 54.41,131.32 C54.07,131.21 53.74,131.07 53.44,130.89 C53.17,131.08 52.77,131.10 52.62,130.73 C52.23,129.82 51.73,128.93 51.39,128.00 C42.58,97.70 48.21,65.77 49.98,34.89 C50.67,28.55 50.68,19.93 56.98,16.44 C59.10,15.43 61.48,15.00 63.74,14.43 C68.91,12.88 74.31,12.19 79.32,10.22 C78.16,8.60 78.44,6.24 79.41,4.61 C80.18,3.44 81.66,4.33 82.57,4.83 C83.63,2.68 84.35,0.38 85.04,-1.91 Z M70.63,309.31 L70.68,309.53 C70.92,310.69 71.14,311.91 71.01,313.09 C74.29,316.28 59.19,316.69 57.52,316.68 C53.71,316.64 42.50,315.37 41.95,310.77 L41.95,310.88 C42.03,312.35 41.78,315.08 42.57,316.16 C48.59,319.29 55.58,320.52 62.31,319.75 L62.55,319.72 C65.23,319.35 70.33,318.27 71.65,316.03 C71.36,313.95 72.08,310.97 70.63,309.31 Z M59.76,288.66 C56.08,284.66 50.03,287.59 46.15,289.82 C46.00,291.57 44.77,292.22 44.72,294.06 C43.90,299.68 41.99,306.03 44.42,311.46 C51.66,315.33 60.26,315.07 68.09,313.40 C68.29,313.14 68.55,313.06 68.92,312.96 C69.16,311.31 68.69,309.65 68.37,308.06 C67.59,304.70 66.58,301.40 65.68,298.07 C64.06,297.03 63.47,294.84 62.63,293.18 C62.40,292.72 62.17,292.26 61.93,291.80 C60.61,291.37 60.27,289.80 59.76,288.66 Z M102.90,299.71 C102.50,303.75 106.44,305.36 109.63,306.33 C113.22,307.61 116.89,308.67 120.58,309.58 C128.15,311.53 136.04,312.38 143.80,311.16 L143.93,311.14 C146.17,310.74 150.18,310.27 150.69,307.68 L150.70,307.62 C150.73,307.20 150.80,305.60 150.64,305.19 C150.58,305.19 150.52,305.17 150.47,305.15 C149.82,307.22 147.46,308.48 145.18,308.81 C144.10,309.89 142.13,309.49 140.69,309.55 C131.24,309.45 122.16,306.53 113.20,303.81 C110.35,302.82 104.67,302.11 102.90,299.71 Z M103.71,278.92 C102.07,278.34 101.76,282.93 101.55,284.06 C101.02,288.80 101.03,296.20 104.87,299.56 C108.88,301.28 113.21,302.06 117.34,303.42 L118.32,303.70 C126.15,306.00 134.20,308.14 142.43,307.80 C143.05,306.56 146.98,307.59 148.49,305.38 C150.50,301.87 145.41,299.61 143.01,298.11 C138.38,295.15 134.07,291.70 130.17,287.82 C128.34,286.00 126.67,283.91 124.52,282.45 L124.41,282.38 C122.56,281.15 120.20,280.40 118.04,281.20 C115.93,281.98 115.16,284.38 113.39,285.63 C109.45,288.18 105.42,284.15 104.14,280.50 L104.11,280.39 C104.06,280.27 104.19,280.20 104.28,280.23 C104.27,280.20 104.26,280.16 104.26,280.13 C103.76,280.00 103.71,279.38 103.71,278.92 Z M47.72,275.78 C48.23,278.69 46.78,281.30 45.70,283.87 C45.41,285.57 46.48,287.21 46.23,288.94 C49.77,286.16 55.13,283.70 59.40,286.24 C59.42,283.79 60.27,281.41 61.00,279.09 L61.30,278.17 C61.53,277.46 61.76,276.75 62.02,276.05 C57.27,276.54 52.46,276.59 47.72,275.78 Z M117.36,271.55 C113.20,272.12 108.99,272.45 104.80,272.22 L105.28,279.44 L105.28,279.44 C105.30,279.74 105.17,279.94 104.99,280.06 C105.60,282.41 107.55,284.50 109.96,285.01 C113.68,285.49 114.18,280.55 117.35,279.64 C116.74,278.28 117.17,276.49 117.12,275.01 C117.15,273.84 117.21,272.69 117.36,271.55 Z M103.66,278.08 C103.58,278.25 103.48,278.40 103.38,278.55 C103.49,278.56 103.59,278.60 103.69,278.66 C103.68,278.47 103.67,278.27 103.66,278.08 Z M66.18,130.88 C62.54,132.14 58.56,132.40 54.81,131.44 C55.63,137.61 56.46,152.22 61.70,155.78 C62.59,155.66 63.48,155.59 64.37,155.68 C64.90,155.74 65.43,155.82 65.96,155.90 C66.16,155.93 66.55,155.95 66.80,155.93 L66.85,155.93 C66.78,155.94 66.73,155.94 66.80,155.93 L66.91,155.92 L66.96,155.92 C68.78,155.76 70.42,153.19 72.22,154.42 C72.48,154.02 72.88,153.77 73.19,153.41 C74.55,151.02 73.10,147.94 74.02,145.42 C73.67,144.95 73.79,144.24 74.33,143.84 C75.17,143.07 76.95,143.64 77.44,142.53 C77.41,142.59 77.40,142.52 77.42,142.48 L77.42,142.48 L77.33,142.41 C73.61,139.32 70.00,135.87 67.56,131.59 L67.48,131.45 C67.01,131.90 66.25,131.55 66.18,130.88 Z M151.26,128.79 C148.69,130.19 145.93,131.21 143.06,131.80 C142.48,137.43 141.80,143.07 140.88,148.66 L141.09,148.70 C142.37,148.94 143.72,149.25 144.83,148.37 C148.47,144.83 149.78,137.72 151.21,132.91 L151.27,132.69 C151.57,131.51 151.91,129.88 151.26,128.79 Z M113.95,12.29 C113.57,14.20 115.68,35.03 111.83,31.47 C109.23,27.38 106.25,23.56 103.59,19.51 C103.22,20.96 104.30,22.68 103.79,23.90 C110.56,57.84 115.47,92.30 117.29,126.87 C120.29,128.97 122.91,131.52 125.48,134.10 C126.29,134.78 126.87,135.90 127.86,136.29 C131.91,131.72 136.57,127.75 140.82,123.38 C140.78,123.08 140.74,122.78 140.69,122.49 C140.48,121.24 142.07,120.61 142.69,121.38 C143.98,118.10 144.10,114.26 143.78,110.75 C143.15,104.84 140.95,99.20 139.38,93.52 C134.84,76.11 131.71,57.86 133.19,39.85 C133.21,39.68 133.44,39.68 133.45,39.85 C134.69,58.88 136.61,77.96 142.33,96.25 L142.46,96.71 C144.70,104.10 147.47,111.94 145.55,119.69 C145.71,120.73 145.21,121.77 144.45,122.52 C144.12,123.34 143.74,124.15 143.29,124.91 C143.45,126.67 143.37,128.44 143.22,130.20 C146.16,129.57 148.90,128.37 151.53,126.92 C151.68,126.03 151.82,125.14 151.92,124.25 C153.96,107.71 147.75,91.62 141.54,76.60 C135.62,59.10 136.77,40.10 131.82,22.40 C128.69,15.50 120.14,14.95 113.95,12.29 Z M80.39,11.01 L80.18,11.08 C78.76,11.58 77.33,12.16 75.80,12.21 C71.02,13.80 66.12,15.02 61.25,16.35 L60.78,16.48 C58.71,17.05 56.61,17.70 55.21,19.44 C53.87,21.12 53.31,23.27 52.87,25.32 C50.81,43.29 49.65,61.44 48.60,79.51 C48.09,94.56 48.38,109.85 52.23,124.50 C52.77,126.50 53.43,128.52 53.67,130.58 C53.94,130.58 54.23,130.60 54.51,130.63 C54.51,130.49 54.72,130.52 54.70,130.65 C58.44,131.24 62.32,130.89 65.83,129.44 C64.96,103.08 59.33,74.47 72.09,50.01 C72.14,49.92 72.30,49.99 72.26,50.09 L71.95,51.00 C70.93,53.92 69.95,56.85 69.23,59.86 C70.25,59.71 70.99,62.08 71.18,62.66 C76.71,79.45 73.30,97.35 72.60,114.59 C82.11,121.51 91.72,128.31 101.61,134.69 C106.11,131.77 110.13,127.94 114.74,125.30 C113.42,89.69 106.16,54.46 102.21,19.30 C100.75,21.12 99.25,22.92 97.76,24.72 C95.85,27.07 94.00,29.48 92.11,31.86 C91.72,32.35 90.87,32.16 90.59,31.66 C86.87,24.94 84.50,17.51 80.39,11.01 Z M69.17,60.13 C63.68,82.73 68.24,106.00 68.16,128.86 C68.56,129.22 68.41,129.91 67.94,130.15 C67.87,130.47 67.78,130.78 67.69,131.10 C68.07,131.46 68.45,131.82 68.84,132.18 C68.55,127.20 71.05,122.68 72.50,118.01 C71.46,117.08 69.51,116.50 69.77,114.80 C69.97,111.11 70.23,107.41 70.54,103.73 L70.73,101.66 C71.95,88.58 72.98,75.28 70.12,62.34 L70.10,62.24 C70.01,61.67 69.83,60.24 69.17,60.13 Z M151.50,128.65 L151.46,128.68 L151.56,128.76 C151.54,128.73 151.52,128.69 151.50,128.65 Z M118.67,120.95 C117.39,119.71 119.36,117.73 120.62,119.01 C121.89,120.26 119.92,122.23 118.67,120.95 Z M117.83,106.13 C117.55,105.39 118.33,104.22 119.16,104.71 L119.18,104.72 L119.19,104.71 C119.98,105.17 119.69,106.13 119.23,106.70 C118.72,107.22 118.08,106.60 117.83,106.13 Z M116.63,89.05 C114.42,86.16 119.07,84.97 118.31,88.53 C118.15,89.20 116.81,90.18 116.63,89.05 Z M113.36,72.90 C112.19,71.47 114.71,70.23 115.24,71.94 C115.54,73.09 114.12,73.79 113.36,72.90 Z M125.11,37.29 C125.81,37.40 129.33,36.68 128.42,38.14 C129.84,45.21 133.82,53.84 128.13,60.01 L128.08,60.06 C127.25,60.90 125.91,62.89 124.62,62.07 C121.78,59.67 118.11,57.95 115.94,54.88 C115.02,52.47 115.80,49.78 115.56,47.26 C115.45,44.07 114.92,40.91 114.81,37.73 C114.80,37.57 114.97,37.52 115.08,37.59 C118.41,37.32 121.77,37.38 125.11,37.29 Z M115.19,37.81 C116.70,42.72 116.73,47.98 116.69,53.07 C116.72,53.60 116.81,54.11 117.08,54.51 C119.24,57.05 122.32,58.65 124.88,60.76 C125.92,60.08 126.74,59.22 127.47,58.24 C131.98,52.35 127.90,44.93 127.90,38.37 L127.32,38.37 C123.28,38.38 119.20,38.32 115.19,37.81 Z M111.79,56.06 L111.83,56.06 C113.38,56.06 113.03,58.69 111.56,58.33 C110.33,58.04 110.52,56.08 111.79,56.06 L111.79,56.06 Z M108.76,42.67 C107.68,40.84 111.22,40.13 110.85,42.24 L110.86,42.16 C110.86,42.14 110.86,42.13 110.86,42.11 L110.84,42.31 L110.84,42.31 C110.71,43.24 108.86,43.91 108.76,42.67 Z M106.38,27.53 C107.36,27.27 108.09,28.65 107.24,29.27 C105.99,30.22 104.91,27.86 106.38,27.53 Z M82.25,6.12 L82.13,6.01 C80.85,4.83 79.89,4.24 79.60,6.64 C79.40,7.81 79.57,9.29 80.70,9.98 C86.08,15.30 88.11,22.89 91.58,29.43 C94.71,25.64 97.62,21.70 100.65,17.83 C96.48,15.29 92.27,12.77 88.16,10.12 C86.19,8.81 84.07,7.62 82.25,6.12 Z M109.33,9.25 C107.71,11.89 106.22,14.75 104.15,17.08 C103.89,17.35 103.62,17.56 103.34,17.72 C103.74,17.60 104.27,17.90 104.22,18.35 C107.23,21.34 109.68,24.82 112.03,28.34 C112.47,22.52 111.62,16.66 111.95,10.83 C111.19,10.13 110.28,9.65 109.33,9.25 Z" id="🖍-Ink" fill="#000000"></path></g><g id="Head" stroke-width="1" transform="translate(51.57, 22.97)"><g id="head/hat-hip"><path d="M53.43,36.14 C53.38,33.28 53.33,30.37 52.90,27.53 C52.48,24.77 51.34,22.27 49.38,20.26 C45.20,15.99 39.15,14.94 33.52,13.99 L23.90,12.35 C20.96,11.86 17.82,11.06 14.86,11.77 C13.40,12.11 12.15,12.92 11.02,13.88 C9.92,14.80 8.75,15.79 8.01,17.04 C7.26,18.28 7.01,19.73 6.77,21.14 C6.50,22.72 6.28,24.32 6.13,25.92 C5.83,29.13 5.79,32.36 6.01,35.58 C6.12,37.14 6.28,38.69 6.50,40.24 C6.61,41.01 6.73,41.77 6.86,42.54 C6.90,42.76 6.93,43.01 6.97,43.26 C6.67,44.13 6.50,45.02 6.51,45.91 C6.55,48.53 8.77,50.18 11.00,51.07 C12.29,51.58 13.65,51.93 14.92,52.51 C16.26,53.11 17.17,54.09 18.08,55.21 C19.83,57.34 21.80,59.25 24.04,60.85 C28.81,64.24 34.85,65.84 40.63,64.63 C42.02,64.33 43.42,63.88 44.66,63.20 C45.98,62.48 46.97,61.43 47.80,60.20 C49.35,57.91 50.45,55.32 51.29,52.70 C52.15,50.02 52.75,47.33 53.08,44.54 C53.41,41.76 53.48,38.94 53.43,36.14 L53.43,36.14 Z" id="🎨-Background" fill="#FFFFFF"></path><path d="M22.71,2.39 C26.69,1.85 32.19,3.63 34.18,7.22 C43.65,4.99 55.60,4.91 63.40,12.34 C71.55,21.16 61.32,32.79 54.53,35.41 C55.03,37.81 54.26,53.18 48.81,60.04 C44.48,65.85 34.41,68.53 29.75,61.59 L29.71,61.54 C29.21,60.73 29.64,60.76 30.16,61.36 C34.72,65.37 40.92,65.44 45.71,61.20 C54.67,53.46 53.74,34.48 49.48,23.50 C37.34,22.17 24.33,25.85 15.95,34.99 L16.51,38.40 C16.61,38.99 16.72,39.57 16.80,40.15 C16.86,40.52 16.86,40.90 16.61,41.20 C15.75,42.20 14.31,40.70 13.12,40.10 C12.77,40.05 12.42,40.03 12.08,40.05 C6.38,40.79 7.50,51.84 13.76,49.91 C14.29,49.58 14.74,49.68 14.95,50.15 C16.44,51.52 17.42,53.96 19.91,56.31 C20.78,57.19 21.58,57.93 22.56,58.64 C23.14,59.22 24.89,59.82 24.33,60.82 C23.29,63.09 17.12,55.94 16.03,53.96 C12.61,55.31 8.82,54.86 5.28,54.53 C-13.40,53.55 -10.91,33.86 4.41,21.43 C7.29,19.31 10.47,17.58 13.77,16.25 C14.23,16.07 14.03,15.32 13.57,15.51 C11.38,16.39 9.25,17.44 7.22,18.65 L7.21,17.93 C7.21,16.70 7.23,15.43 7.44,14.31 C7.55,13.54 7.73,12.71 8.00,12.09 C8.34,10.18 13.67,3.64 22.71,2.39 Z M11.83,42.59 C12.12,42.32 12.65,42.65 12.91,42.64 C13.57,42.73 14.19,43.00 14.68,43.35 C15.00,43.53 15.22,43.70 15.41,43.85 L15.42,43.85 C15.42,43.85 15.41,43.85 15.41,43.85 L15.43,43.86 C15.70,44.06 16.71,45.15 16.07,44.86 C16.03,44.80 15.98,44.74 15.93,44.68 C15.92,44.69 15.92,44.70 15.91,44.70 L15.94,44.76 C16.48,45.57 15.55,44.71 15.41,44.49 C15.40,44.49 15.39,44.50 15.39,44.50 L15.57,44.73 C15.60,44.76 15.62,44.79 15.64,44.81 L15.68,44.84 C16.30,45.46 16.32,46.01 15.60,45.10 C15.62,45.15 15.65,45.19 15.65,45.23 L15.69,45.29 C16.26,46.02 15.80,45.76 15.52,45.44 L15.49,45.42 L15.50,45.43 C15.76,45.83 15.24,45.55 15.15,45.33 L15.14,45.32 C15.04,45.24 14.98,45.15 14.96,45.12 L14.96,45.12 C14.47,44.62 13.76,44.20 13.16,44.00 C13.07,43.99 12.98,43.97 12.89,43.96 C12.53,43.88 12.17,43.83 11.80,43.80 C11.75,43.79 11.71,43.76 11.67,43.72 C11.11,43.70 11.29,43.47 11.52,43.43 L11.52,43.43 L11.48,43.42 C11.12,43.39 10.87,43.26 11.23,43.18 L11.28,43.17 C11.28,43.16 11.27,43.15 11.27,43.14 C10.95,43.11 11.16,42.81 11.33,42.88 C11.26,42.64 11.59,42.76 11.63,42.73 C11.66,42.69 11.70,42.66 11.72,42.66 C11.82,42.59 11.77,42.60 11.83,42.59 Z M13.73,38.76 L13.65,38.80 C13.59,38.83 13.53,38.86 13.47,38.87 C13.56,38.91 13.64,38.94 13.73,38.99 C13.73,38.94 13.73,38.88 13.73,38.83 L13.73,38.76 Z" id="🖍-Ink" fill="#000000"></path></g><g id="face/Smile" transform="translate(20.30, 23.74)" fill="#000000"><path d="M18.71,30.75 C17.85,30.40 17.09,29.81 16.53,29.07 C16.33,28.81 16.28,28.53 16.32,28.28 C16.37,28.00 16.54,27.75 16.76,27.58 C16.99,27.40 17.28,27.32 17.55,27.36 C17.79,27.40 18.03,27.53 18.22,27.80 L18.26,27.86 C18.59,28.31 19.02,28.68 19.52,28.92 C20.00,29.14 20.53,29.25 21.08,29.19 C22.13,29.07 22.85,28.50 23.62,27.73 C23.72,27.64 23.81,27.54 23.91,27.43 C23.97,27.34 24.05,27.28 24.15,27.25 C24.25,27.22 24.37,27.22 24.47,27.25 C24.58,27.29 24.67,27.36 24.73,27.45 C24.79,27.54 24.82,27.64 24.81,27.77 C24.74,28.57 24.33,29.28 23.73,29.84 C23.07,30.46 22.20,30.89 21.38,31.04 C20.47,31.21 19.55,31.09 18.71,30.75 L18.71,30.75 Z M21.80,18.42 C22.77,19.01 24.24,20.38 23.20,21.83 C21.98,23.11 20.22,21.64 19.36,20.98 C18.55,20.46 17.65,21.79 18.40,22.39 C24.65,27.02 27.19,18.58 22.29,17.74 C21.75,17.64 21.55,18.24 21.80,18.42 Z M10.59,13.04 C10.70,11.71 12.71,11.41 12.91,12.72 C13.09,13.89 12.88,14.97 12.35,16.02 C11.85,17.03 10.58,16.56 10.48,15.64 C10.35,14.41 10.52,13.86 10.59,13.04 Z M25.92,12.45 C26.20,12.08 26.60,11.83 27.09,11.97 C28.61,12.42 28.16,14.57 27.63,15.62 C27.34,16.19 26.40,16.33 25.98,15.83 C25.29,15.01 24.96,13.38 25.83,12.58 C25.86,12.54 25.88,12.49 25.92,12.45 Z M12.33,7.25 L12.57,7.21 C13.31,7.08 14.23,6.96 14.76,7.56 C15.03,7.87 15.13,8.46 14.76,8.76 C14.10,9.29 13.37,9.09 12.58,9.13 C11.93,9.17 11.31,9.28 10.68,9.46 C9.31,9.85 8.19,10.56 7.02,11.35 C6.87,11.45 6.71,11.26 6.78,11.11 C7.46,9.79 8.77,8.70 10.09,8.04 C10.79,7.68 11.55,7.39 12.33,7.25 Z M24.53,6.66 L24.72,6.70 C26.71,7.11 29.31,7.95 30.25,9.91 C30.29,10.18 30.25,10.24 30.22,10.28 L30.21,10.30 C30.18,10.33 30.16,10.37 30.04,10.41 C30.01,10.40 29.98,10.40 29.94,10.39 C29.51,10.27 29.17,10.12 28.83,9.95 L28.47,9.78 C28.06,9.57 27.63,9.38 27.19,9.23 C26.24,8.92 25.26,8.70 24.26,8.58 C24.05,8.56 23.84,8.49 23.67,8.36 C23.52,8.24 23.40,8.08 23.35,7.86 C23.28,7.58 23.30,7.37 23.45,7.11 C23.56,6.92 23.72,6.79 23.91,6.71 C24.10,6.63 24.32,6.62 24.53,6.66 Z" id="🖍-Ink"></path></g><g id="facial-hair/Full-2" transform="translate(15.70, 43.14)" fill="#000000"><path d="M31.67,14.26 C31.23,14.11 30.79,13.94 30.35,13.78 C28.10,12.65 25.39,12.45 23.03,13.40 C21.87,13.86 20.80,14.70 19.63,15.25 C19.36,15.35 19.08,15.45 18.80,15.53 C18.63,15.47 18.45,15.40 18.28,15.34 C17.05,14.87 15.89,14.30 14.77,13.67 C14.65,13.50 14.52,13.34 14.39,13.18 C15.20,13.07 16.00,12.87 16.72,12.68 C18.94,12.07 21.02,11.08 23.23,10.45 C25.28,9.86 27.51,9.53 29.57,10.27 C30.55,10.62 31.41,11.23 32.37,11.64 C32.86,11.85 33.45,12.06 34.03,12.09 C33.65,12.98 33.18,13.81 32.54,14.50 C32.25,14.44 31.96,14.35 31.67,14.26 Z M36.46,7.29 C36.27,7.45 35.45,7.98 35.19,8.30 C35.12,8.27 35.05,8.25 34.99,8.22 C34.87,8.08 34.70,8.01 34.52,8.02 C33.31,7.45 32.23,6.65 31.26,5.65 C30.57,4.94 29.87,4.20 28.95,3.78 C27.87,3.30 26.81,3.52 25.67,3.59 C24.46,3.67 23.27,3.33 22.06,3.50 C21.18,3.62 20.35,3.99 19.64,4.52 C18.18,5.59 17.17,7.11 15.94,8.41 C14.54,9.89 12.82,10.83 10.90,11.31 C10.88,11.30 10.86,11.28 10.83,11.27 C9.42,9.99 8.15,8.55 7.02,7.02 C5.92,5.52 3.02,-1.23 2.32,-1.83 C2.03,-2.07 1.71,-2.18 1.40,-2.17 C0.85,-2.16 0.34,-1.77 0.11,-1.17 C-0.28,-0.14 -0.08,1.19 -0.05,2.27 C-0.01,3.58 0.07,4.90 0.21,6.21 C0.35,7.51 0.53,8.80 0.75,10.08 C0.87,10.73 0.99,11.38 1.13,12.02 C1.18,12.22 1.23,12.40 1.30,12.57 C1.37,12.89 1.44,13.21 1.52,13.52 C2.02,15.58 2.83,17.64 4.36,19.15 C5.95,20.73 8.11,21.78 10.13,22.72 C12.04,23.62 14.05,24.41 16.11,25.04 C17.89,25.85 19.81,26.49 21.73,26.82 C23.85,27.20 26.07,27.22 28.12,26.48 C29.12,26.12 30.07,25.62 30.93,24.99 C32.15,24.36 33.25,23.48 34.15,22.33 C35.76,20.26 36.53,17.75 36.87,15.17 C36.96,14.50 37.28,11.97 37.31,11.57 C37.39,10.29 37.47,9.02 37.55,7.74 C37.59,7.14 36.85,6.97 36.46,7.29 Z" id="🖍-Ink"></path></g><g id="accessories/Glasses-5" transform="translate(6.00, 30.76)" fill="#000000"><path d="M46.86,9.50 C46.50,10.48 45.95,11.50 45.28,12.33 C42.56,14.63 39.92,13.36 38.58,10.24 C38.07,8.03 39.42,5.66 40.85,4.04 C42.92,1.96 46.30,3.05 47.26,5.52 C47.31,5.84 47.35,6.16 47.36,6.48 C47.34,7.51 47.22,8.39 46.86,9.37 M20.73,7.52 C24.31,3.26 31.01,3.03 30.84,9.59 C30.07,17.88 17.12,15.85 20.73,7.52 Z M47.99,3.97 C47.86,3.75 47.72,3.55 47.57,3.35 C47.51,3.32 47.48,3.02 47.27,3.00 C44.51,-0.05 39.66,1.68 37.91,4.72 C37.59,5.10 37.33,5.55 37.14,6.02 C35.41,5.71 33.40,5.77 31.79,6.42 C30.20,2.26 25.38,1.89 22.20,3.67 C20.23,4.64 18.94,6.67 17.02,7.79 C12.51,8.12 7.66,7.11 3.22,8.24 C-0.28,8.97 2.65,10.74 3.23,9.55 C7.42,8.32 12.37,9.36 16.71,9.08 C17.17,9.85 18.03,10.47 18.89,10.45 C19.83,18.71 31.87,17.34 32.29,9.99 C32.76,9.25 33.35,8.54 34.19,8.07 C34.51,8.01 34.82,7.92 35.10,7.78 C35.59,7.72 36.33,7.92 36.78,8.33 C38.31,17.49 47.11,16.42 48.68,8.39 C48.71,8.36 48.80,8.24 48.87,8.05 C49.41,7.34 50.73,7.07 50.51,5.87 C50.33,4.67 48.81,4.69 47.99,3.97 Z" id="🖍-Ink"></path></g></g></g></g></g></svg>