<?xml version="1.0" encoding="UTF-8"?><svg width="135px" height="369px" viewBox="0 0 135 369" version="1.1" xmlns="http://www.w3.org/2000/svg" xmlns:xlink="http://www.w3.org/1999/xlink"><title>mix-7</title><desc>Created with Sketch.</desc><g id="Mix-N-Match" stroke="none" stroke-width="1" fill="none" fill-rule="evenodd"><g id="Artboard" transform="translate(-312.00, -149.00)"><g id="a-person/standing" transform="translate(302.00, 128.00)"><g id="pose/standing/blazer-2" transform="translate(-15.50, 81.10)"><path d="M48.80,76.88 C53.03,86.26 58.25,94.55 64.43,102.83 C63.99,83.26 63.62,63.59 62.98,43.84 C59.07,51.47 54.90,58.38 49.33,65.95 C44.96,70.61 47.00,72.55 48.80,76.88 Z M34.96,305.81 C34.47,305.12 34.76,304.24 35.44,303.79 C34.00,300.69 38.34,298.29 40.48,295.96 C45.33,290.69 52.99,283.14 53.67,276.49 C55.99,261.41 57.31,246.27 61.02,231.37 C63.22,221.90 69.34,214.30 72.08,205.00 C76.83,180.42 70.69,155.77 71.75,130.95 C58.35,129.63 60.09,131.30 61.52,120.17 C60.62,119.54 59.75,118.89 58.93,118.22 C56.79,119.36 54.27,122.16 51.91,122.01 C51.17,121.84 50.63,120.90 50.12,120.10 C46.34,114.14 42.82,108.31 39.38,102.31 C20.34,72.31 24.64,65.52 42.40,36.77 C49.88,25.66 59.07,9.50 73.32,8.38 C75.04,8.38 76.85,8.29 78.33,7.21 C78.34,5.49 79.22,4.94 81.46,4.62 C82.71,4.49 83.70,3.76 84.93,4.06 C85.80,1.14 85.63,-1.21 86.58,-4.10 C89.83,-9.04 100.39,-6.58 104.26,-5.03 C109.07,-3.36 104.49,4.11 107.63,7.53 C108.31,7.91 109.03,8.09 109.94,8.09 C113.82,7.23 115.72,11.89 117.55,14.96 C122.81,15.61 126.75,16.39 129.17,18.28 C131.39,19.96 133.02,22.65 135.19,28.21 C139.73,38.14 142.70,48.00 144.02,57.50 C145.16,63.95 148.34,69.52 150.89,75.38 C157.16,90.62 159.86,100.71 158.36,114.12 C156.77,113.84 155.17,113.26 153.49,113.04 L152.82,114.64 C152.77,114.61 152.76,114.58 152.75,114.57 C150.79,127.99 156.18,155.33 138.60,151.73 C137.04,166.51 132.10,179.64 126.14,191.99 C123.73,196.64 121.31,201.55 121.35,207.01 L122.26,207.03 C122.41,207.04 122.46,207.07 122.46,207.07 C122.64,207.11 122.44,208.45 122.24,209.21 C119.40,219.25 116.94,229.29 114.73,239.46 C114.26,240.83 114.06,244.51 112.98,245.14 C113.03,245.64 111.54,246.63 111.43,246.59 C111.69,248.53 110.75,249.40 110.78,251.37 C110.77,251.32 112.10,251.39 112.04,251.35 C112.83,251.35 113.73,253.03 113.74,254.17 C113.81,255.54 112.65,256.82 112.25,258.17 C111.62,261.12 111.72,264.10 111.44,267.07 C114.07,267.67 113.48,270.47 111.17,270.61 C111.17,270.61 110.75,274.52 110.83,276.47 C112.42,276.66 113.12,278.07 113.65,279.17 C115.60,279.19 117.42,280.08 119.24,281.00 C123.46,283.07 127.61,285.23 131.37,287.43 C134.69,289.63 141.92,292.06 138.16,296.69 C138.22,296.81 137.36,298.96 136.19,298.77 C130.45,299.32 108.61,294.59 103.56,293.54 C101.85,293.13 94.34,292.15 97.46,289.62 C96.30,286.38 96.25,280.23 99.75,279.48 C100.09,276.44 102.65,275.37 105.21,276.49 C105.20,274.30 105.33,272.41 105.36,270.22 C104.12,270.05 102.76,269.60 102.40,268.67 C102.07,268.15 102.20,266.40 103.47,266.38 C103.50,266.38 104.42,266.42 104.46,266.42 C104.31,262.88 104.62,259.87 104.09,256.32 C103.80,255.14 102.87,254.95 102.26,254.34 C101.69,252.58 103.45,251.15 104.96,250.86 C105.34,249.06 104.53,247.16 104.96,245.40 C103.97,245.37 103.21,245.32 102.57,244.73 C102.29,244.45 101.84,244.54 101.48,244.51 C101.14,240.81 98.83,237.65 98.32,234.09 C97.60,229.87 98.96,225.47 99.45,221.17 C99.84,217.60 99.21,213.94 98.90,210.44 C85.95,231.08 68.47,250.97 65.34,276.10 C65.01,278.03 64.80,280.20 66.59,282.09 L66.67,282.11 C67.12,283.02 67.41,284.76 67.73,285.70 C69.42,287.03 67.87,289.58 66.65,290.74 C66.28,291.16 65.97,291.64 65.63,292.09 C59.27,299.68 58.55,308.25 46.34,307.68 C43.33,307.49 36.31,307.58 34.96,305.81 Z" id="🎨-Background" fill="#FFFFFF"></path><path d="M86.08,-2.76 C87.11,-3.46 85.64,2.60 85.64,3.18 L85.61,3.31 C85.35,4.55 84.90,5.98 83.86,6.77 C84.34,10.70 84.94,14.62 85.67,18.50 C92.23,19.36 98.84,20.59 105.51,19.97 C108.99,20.00 111.31,17.64 112.73,14.70 L112.78,14.61 L112.48,13.56 C108.02,10.82 104.64,5.27 106.65,0.04 C106.78,-0.30 107.32,-0.16 107.20,0.19 C106.36,2.55 106.71,5.22 107.91,7.39 C108.66,7.79 109.46,7.76 110.26,7.74 C114.14,7.17 116.36,11.56 118.03,14.30 L119.49,14.52 C125.07,15.35 130.46,16.33 133.21,22.05 L133.47,22.58 C137.37,30.88 141.01,39.42 143.14,48.36 C144.19,53.06 144.58,57.91 146.13,62.50 C149.35,71.03 153.89,79.04 156.35,87.86 C157.88,90.98 162.17,115.11 157.94,115.19 C156.41,114.74 154.86,114.37 153.29,114.10 C153.53,114.29 153.62,114.60 153.58,114.92 C153.03,118.76 152.99,122.66 152.99,126.53 C153.21,135.83 153.18,155.48 139.32,152.98 C138.19,164.35 134.31,175.36 130.00,185.88 C127.43,192.67 122.46,198.86 122.21,206.31 C123.93,206.34 123.26,208.52 123.05,209.57 C122.48,212.15 121.73,214.69 120.96,217.21 C118.29,226.28 116.69,235.64 114.39,244.81 C114.27,245.25 114.06,245.56 113.79,245.76 C113.75,246.71 112.31,247.26 111.49,246.94 C111.60,248.10 111.57,249.26 111.59,250.42 L111.59,250.64 L111.84,250.64 C112.93,250.36 114.03,252.12 114.34,253.02 C115.37,255.55 112.97,257.40 112.80,259.81 C112.63,262.09 112.42,264.36 112.32,266.65 C115.30,267.82 113.98,271.72 111.06,271.68 C111.20,273.10 111.21,274.53 111.27,275.96 C112.55,276.29 113.50,277.36 114.13,278.48 C116.70,278.65 119.04,280.17 121.33,281.25 C124.87,283.00 128.36,284.86 131.77,286.84 C135.10,289.06 142.51,291.57 139.27,296.69 C140.08,297.39 139.52,298.76 138.77,299.34 L138.75,299.36 C138.01,299.93 137.03,299.93 136.13,299.84 C125.59,300.10 114.49,296.83 104.02,294.70 L103.23,294.56 C100.94,294.15 98.59,293.69 96.55,292.57 C95.69,291.87 95.48,290.16 96.36,289.47 C95.46,286.20 96.27,280.46 99.85,279.19 C100.27,276.77 102.24,275.03 104.73,275.77 C104.74,274.22 104.87,272.68 104.90,271.13 C103.66,270.90 102.52,270.42 101.92,269.24 C101.27,268.07 101.98,266.11 103.47,266.18 C103.52,263.76 103.38,261.38 103.36,258.97 L103.36,258.82 C103.35,258.04 103.38,257.18 103.05,256.46 C102.71,255.72 101.80,255.64 101.40,254.94 C100.52,253.05 102.29,250.83 104.11,250.32 C104.33,249.05 104.22,247.71 104.45,246.44 C103.48,246.38 102.65,246.15 101.95,245.60 C101.46,245.53 100.61,245.74 100.55,245.05 C100.35,242.20 98.92,239.67 98.01,237.02 C96.15,231.86 97.84,226.47 98.49,221.25 C98.80,218.58 98.47,215.91 98.20,213.24 C85.88,232.53 70.07,251.18 66.42,274.45 C66.22,277.06 65.15,279.22 67.03,281.48 C67.66,281.66 68.20,284.62 68.44,285.37 C70.37,287.15 68.69,290.33 67.01,291.70 C66.21,293.09 65.14,294.30 64.14,295.54 L63.81,296.08 C61.69,299.64 59.42,303.20 56.53,306.18 C51.68,309.77 43.55,308.75 37.84,308.10 L37.33,308.02 C36.15,307.82 34.83,307.53 34.14,306.48 C33.55,305.56 33.63,304.37 34.37,303.68 C33.64,301.57 35.31,299.49 36.88,298.20 C42.97,292.80 48.22,286.45 52.31,279.42 C53.88,268.04 55.48,256.67 57.23,245.32 C58.63,235.92 60.78,226.52 65.30,218.09 L66.41,215.99 C68.28,212.42 70.08,208.86 71.15,204.92 C73.64,195.65 73.04,185.94 72.70,176.45 C72.26,161.64 71.20,146.82 71.34,131.99 C68.55,131.70 60.98,131.88 59.79,129.02 C59.40,126.28 60.32,123.51 60.52,120.78 C59.93,120.37 59.36,119.93 58.80,119.49 C57.76,120.26 56.69,120.99 55.59,121.67 C52.96,123.56 50.92,123.87 49.30,120.75 C44.58,113.31 40.04,105.76 35.75,98.06 C31.77,90.68 26.84,83.31 25.83,74.81 C24.36,59.51 42.32,35.02 51.31,22.59 C56.83,15.91 63.98,8.80 73.11,8.27 L73.39,8.26 C74.61,8.20 76.39,8.33 77.41,7.51 C77.60,4.74 80.44,4.76 82.55,4.30 C82.98,3.97 83.65,3.89 84.20,3.92 C84.96,1.74 85.13,-0.66 86.08,-2.76 Z M60.05,281.39 C57.73,280.19 54.97,280.09 52.54,281.04 C49.52,286.63 45.66,291.73 41.27,296.31 C39.67,298.55 33.65,301.49 36.66,304.51 L37.06,304.58 C41.67,305.42 46.35,306.08 51.04,305.71 C54.11,304.86 56.58,302.58 58.54,300.13 C60.96,296.99 62.96,293.54 65.17,290.25 C67.16,286.88 68.21,286.84 66.65,282.83 C66.65,282.91 66.63,282.99 66.59,283.07 C66.04,284.18 64.35,284.08 63.39,283.66 C62.15,283.12 61.25,282.02 60.05,281.39 Z M38.20,305.55 L38.27,305.58 L38.27,305.58 L38.34,305.61 L38.44,305.61 L38.20,305.55 L38.20,305.55 Z M125.88,285.43 C122.45,283.90 116.16,279.43 112.66,280.11 C110.07,280.90 107.68,282.31 104.93,282.52 L104.81,282.52 C102.84,282.61 99.34,283.26 98.60,280.95 C97.62,282.82 97.30,285.14 97.31,287.25 C97.27,289.06 98.10,290.48 100.02,290.63 L101.79,291.08 C113.04,293.90 124.40,296.60 136.00,297.43 C139.04,295.53 139.12,293.03 135.89,291.30 C132.63,289.21 129.28,287.27 125.88,285.43 Z M59.60,241.85 C57.59,254.46 56.23,267.13 54.28,279.75 C61.09,278.04 63.09,284.15 65.63,282.45 C63.85,280.11 64.07,278.35 64.59,275.64 C65.63,266.49 69.04,257.79 73.27,249.67 C73.75,248.74 74.24,247.82 74.74,246.90 C69.31,247.39 63.46,245.84 59.60,241.85 Z M101.57,277.80 C101.10,278.52 100.91,279.39 100.76,280.23 C100.69,280.66 100.73,281.30 100.58,281.78 C103.50,281.87 106.44,281.19 109.07,279.94 L108.94,279.93 C106.80,279.80 102.36,280.10 101.57,277.80 Z M99.75,279.66 C99.46,279.86 99.22,280.10 99.01,280.36 C98.93,280.76 99.14,281.20 99.48,281.45 C99.55,280.86 99.63,280.25 99.75,279.66 Z M105.46,271.22 C105.47,273.05 105.58,274.84 105.56,276.67 C105.55,277.30 105.74,278.10 105.36,278.64 L105.97,278.70 C107.51,278.86 109.08,278.99 110.63,278.82 C110.68,276.45 110.68,274.06 110.83,271.69 C108.93,271.68 107.33,271.36 105.46,271.22 Z M111.35,278.49 C111.34,278.56 111.34,278.64 111.34,278.71 C111.57,278.67 111.79,278.62 112.00,278.56 C111.82,278.54 111.64,278.57 111.47,278.51 C111.42,278.51 111.38,278.50 111.35,278.49 Z M104.71,278.20 C104.51,278.42 104.13,278.46 103.89,278.32 C103.85,278.33 103.80,278.33 103.75,278.34 C103.73,278.34 103.72,278.34 103.70,278.34 L103.87,278.38 C104.22,278.46 104.49,278.52 104.84,278.57 C104.78,278.46 104.74,278.33 104.71,278.20 Z M112.71,278.20 C112.66,278.28 112.60,278.35 112.52,278.40 L112.70,278.35 C112.72,278.34 112.75,278.33 112.78,278.32 C112.76,278.27 112.73,278.23 112.71,278.20 Z M102.63,277.69 C102.66,277.77 102.73,277.88 102.82,277.95 C102.74,277.87 102.68,277.79 102.63,277.69 Z M111.30,276.52 C111.30,276.56 111.30,276.61 111.30,276.65 C111.33,276.63 111.35,276.60 111.39,276.59 C111.36,276.57 111.32,276.54 111.30,276.52 Z M103.46,266.58 C102.03,267.04 102.53,268.84 103.61,269.43 C104.79,270.20 106.57,270.08 107.93,270.20 C109.31,270.23 110.92,270.79 112.17,269.98 C112.82,269.55 112.82,268.55 112.13,268.17 C112.12,268.20 112.11,268.23 112.09,268.26 C112.10,268.33 112.10,268.41 112.06,268.50 C111.28,269.91 106.35,269.10 105.10,268.39 L105.00,268.35 C104.15,267.99 103.36,267.83 103.46,266.58 Z M105.21,245.78 C105.52,247.17 105.42,248.62 105.62,250.01 C105.74,250.42 105.58,250.69 105.33,250.82 C106.96,251.31 108.60,251.55 110.29,251.17 C110.11,249.54 110.57,247.73 110.81,246.09 L105.21,245.78 L105.21,245.78 Z M111.43,246.12 C111.45,246.33 111.45,246.56 111.47,246.77 C111.48,246.77 111.48,246.76 111.49,246.76 L111.49,246.75 C111.70,246.58 111.88,246.35 112.08,246.15 C111.86,246.15 111.64,246.13 111.43,246.12 Z M102.94,203.94 C101.90,206.41 100.73,208.82 99.42,211.16 L99.47,211.71 C99.82,215.33 100.08,218.96 99.49,222.58 L99.44,222.89 C98.53,227.96 97.40,233.24 99.60,238.14 L99.70,238.40 C100.49,240.41 101.31,242.41 101.53,244.58 C105.10,244.83 108.69,245.19 112.27,245.31 C113.20,245.47 113.65,244.94 113.73,244.07 C116.52,232.37 118.97,220.59 122.00,208.94 L122.03,208.88 C122.36,208.25 122.61,207.53 122.00,207.31 C120.85,207.11 119.72,208.34 118.63,208.66 C112.76,210.97 108.32,204.83 102.94,203.94 Z M102.80,208.71 C106.36,213.97 104.42,221.98 104.02,228.23 C103.71,230.54 104.07,232.90 103.83,235.19 C103.79,235.37 103.51,235.40 103.43,235.24 C102.59,233.13 102.94,230.70 103.01,228.48 C103.54,221.91 105.02,215.13 102.80,208.71 Z M113.21,136.57 C113.20,136.48 113.08,136.51 113.07,136.58 C113.03,152.38 112.04,168.14 110.47,183.86 C110.45,184.20 111.00,184.28 111.07,183.94 C112.20,178.10 112.65,172.15 113.04,166.22 L113.08,165.55 C113.58,157.59 113.74,149.60 113.52,141.62 C113.47,139.95 113.47,138.23 113.21,136.57 Z M145.50,113.55 C145.36,113.72 145.21,113.82 145.06,113.87 C145.06,117.56 144.31,121.19 142.27,124.39 C141.37,125.57 140.89,126.94 140.46,128.35 C140.58,128.73 140.43,129.17 140.14,129.39 C138.25,135.13 138.06,141.28 138.75,147.23 C140.88,144.12 141.72,140.40 142.31,136.74 C142.35,136.56 142.65,136.56 142.68,136.74 C143.39,140.66 142.19,144.57 140.65,148.15 C139.80,148.87 139.98,150.51 139.88,151.54 C155.53,153.82 150.09,123.77 152.09,114.51 C152.13,114.26 152.35,114.07 152.59,113.99 C150.25,113.64 147.87,113.61 145.50,113.55 Z M82.18,4.96 L81.91,5.03 C79.05,5.74 78.30,5.76 78.11,9.12 C77.40,13.85 74.78,17.99 73.60,22.57 C73.13,24.19 73.63,27.17 75.86,26.73 C76.59,26.51 77.15,27.49 76.60,28.01 C74.98,29.54 73.41,31.12 71.83,32.69 C78.18,54.13 86.43,75.01 96.48,94.99 C96.88,95.78 95.69,96.48 95.29,95.69 C85.30,75.64 76.99,54.77 70.54,33.32 L70.34,32.67 C70.06,31.88 73.70,29.05 74.36,28.13 C67.72,24.93 76.97,13.73 77.24,8.35 C75.32,9.10 73.19,8.84 71.18,9.17 C67.32,9.85 63.94,12.08 60.93,14.48 C48.70,25.28 40.89,40.22 33.08,54.31 C27.75,63.50 25.19,74.74 30.53,84.52 C36.72,97.05 43.92,109.14 51.51,120.87 C52.35,121.95 53.63,120.71 54.51,120.25 C59.57,117.21 63.95,113.08 67.32,108.24 C58.48,97.16 50.26,85.05 45.68,71.57 C45.31,68.29 49.91,64.49 51.59,61.64 C55.29,56.53 58.75,51.24 62.06,45.87 C61.95,45.34 62.17,44.75 62.74,44.77 L63.06,44.22 C65.59,40.03 65.87,39.87 63.36,45.00 C64.63,63.93 64.42,83.23 64.97,102.29 C66.46,104.26 67.99,106.19 69.56,108.10 C74.64,104.60 80.62,102.31 86.75,101.61 L87.07,101.57 C89.67,101.31 94.06,100.75 94.41,104.18 C93.94,108.36 85.39,105.99 82.63,108.36 C87.14,110.18 92.31,110.69 96.45,113.43 C97.77,114.21 100.38,116.68 97.83,117.62 C96.72,117.72 95.58,117.28 94.47,117.19 C95.72,117.61 96.87,118.33 97.60,119.44 C98.12,120.21 98.51,121.80 97.25,122.13 C94.38,122.20 91.53,121.27 88.70,120.81 L88.95,120.91 C91.01,121.75 94.21,123.26 91.44,125.50 C88.66,126.93 85.30,124.49 82.54,123.84 C75.09,122.11 69.58,126.85 61.95,121.71 C61.73,123.98 61.05,126.31 61.26,128.57 C63.10,130.29 68.81,130.23 71.37,130.46 L71.37,130.37 C71.33,128.98 71.70,129.12 71.77,130.48 C78.24,130.68 84.73,130.55 91.19,130.09 C93.97,129.89 96.73,129.61 99.49,129.25 L100.01,129.18 C101.42,128.99 102.90,128.87 104.29,128.53 C105.72,128.34 105.72,126.82 105.57,125.71 C103.62,84.48 86.87,45.71 82.18,4.96 Z M108.50,8.37 C108.83,8.85 109.20,9.32 109.59,9.76 C110.20,8.82 111.68,8.29 112.10,9.69 C112.57,11.14 113.25,12.62 113.27,14.14 C122.95,45.72 123.19,79.30 123.00,112.05 C123.29,117.25 121.68,122.33 121.83,127.50 C127.13,128.26 132.51,128.33 137.84,127.76 C137.99,127.35 138.17,126.94 138.37,126.54 C146.34,116.82 142.12,104.64 138.28,94.11 C135.96,94.20 133.63,94.06 131.30,94.08 C132.02,96.31 132.21,98.66 132.59,100.96 C132.85,102.59 133.18,104.22 133.56,105.83 L133.66,106.26 C133.81,106.86 134.00,107.50 133.79,108.09 C133.58,108.67 132.88,108.91 132.41,108.45 C131.56,107.49 131.65,106.05 131.38,104.86 L131.33,104.48 C130.87,101.05 130.25,97.48 131.10,94.08 C130.27,93.90 127.99,94.56 127.87,93.44 C127.90,91.59 126.56,87.57 128.06,86.35 C128.95,85.67 130.48,85.88 131.52,85.84 C132.73,85.79 133.93,85.75 135.14,85.75 C125.45,62.33 128.14,55.12 129.13,31.81 L129.16,31.10 C129.15,30.95 129.40,30.91 129.43,31.07 C130.91,40.61 128.93,50.28 129.87,59.86 C131.53,78.06 143.05,93.68 144.98,111.79 C149.14,111.31 153.34,111.90 157.37,112.94 C157.45,112.21 157.52,111.47 157.56,110.73 C158.33,97.22 153.59,84.08 148.06,71.96 C144.74,65.52 142.69,58.66 141.84,51.48 C140.17,42.12 136.43,33.31 132.71,24.62 C130.36,18.12 125.27,16.59 118.96,15.84 C121.08,19.37 123.20,22.91 125.31,26.45 C125.78,27.52 124.34,28.28 123.71,28.94 C131.46,33.17 126.93,46.24 127.09,53.56 C126.52,60.28 126.30,67.05 125.29,73.73 C125.21,74.19 124.50,74.06 124.50,73.62 C124.59,63.62 125.78,53.64 126.31,43.65 L126.37,42.92 C126.78,38.19 127.18,31.37 121.49,30.07 C120.73,29.94 120.67,28.80 121.28,28.46 C122.10,28.00 122.82,27.44 123.46,26.78 C120.22,21.57 117.39,16.08 113.98,10.98 L113.84,10.80 C111.56,7.91 111.72,8.96 108.50,8.37 Z M92.83,103.92 C92.20,102.07 86.12,103.28 84.50,103.48 C78.50,104.61 72.47,107.26 67.91,111.35 C67.63,111.60 67.30,111.60 67.03,111.46 C64.99,114.07 62.63,116.44 60.04,118.52 C60.51,118.90 61.00,119.26 61.50,119.60 C61.74,119.63 61.96,119.75 62.06,119.98 C69.18,125.14 74.42,121.11 81.82,122.04 C84.58,122.60 87.12,124.36 89.97,124.43 C92.06,123.96 90.22,123.08 89.24,122.74 C86.44,121.41 83.58,120.22 80.72,119.02 C79.83,118.65 80.14,117.31 81.13,117.54 C82.86,117.95 84.60,118.34 86.35,118.72 C89.69,119.41 93.12,120.28 96.51,120.62 C95.76,118.52 87.77,116.26 85.45,115.43 C84.57,115.01 82.07,115.10 82.36,113.74 C82.59,112.47 85.25,113.92 86.14,114.02 C89.76,114.94 93.46,115.50 97.15,116.06 C93.18,112.08 87.04,111.74 81.98,109.87 L81.81,109.84 C80.92,109.63 79.74,109.24 80.41,108.25 L80.44,108.21 C83.04,104.37 93.27,106.32 92.83,103.92 Z M85.35,82.56 C87.19,81.04 88.18,84.16 88.06,85.61 C88.15,86.81 88.24,88.01 88.32,89.21 C88.21,90.15 89.21,93.57 87.87,93.60 C82.02,93.31 76.18,93.38 70.33,93.03 C70.33,94.21 70.27,95.39 70.33,96.57 C70.30,98.05 70.81,99.53 70.51,100.99 C70.33,101.66 69.41,101.75 69.06,101.18 C67.99,98.66 68.72,95.42 69.48,92.87 C65.06,91.75 67.19,88.19 67.19,85.08 C67.19,84.99 67.27,84.95 67.33,84.97 C68.43,86.50 67.00,88.54 67.63,90.21 C68.27,92.03 71.02,91.86 72.57,91.89 L72.62,91.89 C77.45,91.97 82.28,92.17 87.11,92.27 C86.90,90.64 86.84,88.97 86.72,87.34 C86.56,86.18 86.79,84.79 86.19,83.74 C83.51,84.62 80.71,84.96 77.89,84.91 C74.52,85.00 70.98,85.30 67.69,84.90 C72.41,84.17 77.62,84.28 82.43,83.35 C83.39,83.11 84.36,82.61 85.35,82.56 Z M62.13,47.43 C59.22,52.99 55.87,58.28 52.31,63.42 C51.54,64.52 50.76,65.61 49.96,66.69 L49.82,66.87 C48.22,68.90 46.57,70.57 48.08,73.26 C52.02,82.83 57.29,91.83 63.40,100.17 L63.30,95.38 C62.95,79.39 62.62,63.41 62.13,47.43 Z M135.24,86.04 C127.94,87.57 127.80,84.70 129.02,92.82 C131.95,92.84 134.88,92.77 137.81,92.82 C136.97,90.55 136.10,88.29 135.24,86.04 Z M113.31,16.58 C111.66,19.41 108.92,21.23 105.63,21.26 C99.84,21.59 93.98,21.21 88.35,19.84 C87.52,19.63 86.53,19.45 85.76,19.00 C90.11,42.57 97.15,65.53 102.09,88.96 L102.26,89.73 L102.39,89.70 C105.76,89.11 109.42,89.36 112.89,89.14 C115.67,89.10 118.47,89.40 121.23,88.99 L121.15,86.07 C120.45,62.76 119.48,39.17 113.31,16.58 Z M110.89,9.84 C110.59,9.84 110.12,10.02 109.81,10.00 C110.44,10.68 111.15,11.29 111.89,11.83 C111.55,11.19 111.28,10.43 110.89,9.84 Z" id="🖍-Ink" fill="#000000"></path></g><g id="Head" stroke-width="1" transform="translate(51.74, 23.03)"><g id="head/Mohawk"><path d="M50.35,31.03 C50.42,27.82 50.12,24.53 48.56,21.66 C47.20,18.97 45.19,16.63 43.12,14.46 C42.26,13.55 41.11,12.64 41.22,11.26 C41.33,9.82 42.20,6.70 42.34,5.24 C42.60,2.38 40.55,1.60 38.15,0.24 C35.26,-1.40 31.81,-1.21 28.67,-0.48 C22.83,0.91 15.89,3.23 13.68,9.41 C13.15,10.94 13.28,12.54 13.18,14.12 C13.08,15.60 12.48,17.01 11.91,18.37 C8.91,25.06 8.93,32.44 9.48,39.62 C7.87,39.99 6.32,41.24 5.97,42.91 C5.37,45.82 8.43,47.16 10.24,48.74 C12.44,50.66 14.04,53.14 16.04,55.25 C29.04,69.56 57.70,62.97 51.74,40.69 C50.93,37.52 50.23,34.32 50.35,31.03 Z" id="🎨-Background" fill="#FFFFFF"></path><path d="M24.65,-0.17 C27.88,-1.42 31.37,-1.95 34.82,-1.51 C36.67,-1.27 38.47,-0.77 40.17,0.02 C40.99,0.40 41.77,0.86 42.51,1.38 L42.58,1.43 C43.16,1.85 43.76,2.37 43.69,3.06 C43.73,3.21 43.74,3.37 43.70,3.53 C43.13,6.11 42.53,8.68 41.93,11.25 C41.81,11.79 41.68,12.33 41.56,12.87 C45.62,15.92 49.43,20.09 50.87,25.04 C52.28,29.89 51.66,34.99 52.16,39.95 C52.28,41.13 52.48,42.29 52.79,43.43 C53.13,44.66 53.69,45.81 53.98,47.05 C54.55,49.54 53.72,51.98 52.40,54.09 C49.97,58.01 46.28,61.31 42.00,63.06 C39.81,63.96 37.40,64.45 35.03,64.41 C32.70,64.37 30.05,63.89 28.11,62.55 C26.79,61.65 27.92,59.87 29.33,60.46 L29.72,60.62 C30.70,61.04 31.67,61.42 32.72,61.63 C33.90,61.88 35.11,61.93 36.31,61.85 C38.63,61.71 40.83,60.94 42.84,59.78 C44.65,58.73 46.26,57.38 47.70,55.87 L47.86,55.70 C49.22,54.26 50.59,52.61 51.36,50.77 C51.75,49.83 51.96,48.79 51.79,47.77 C51.60,46.60 51.07,45.49 50.77,44.34 C50.19,42.16 49.99,39.88 49.92,37.63 L49.92,37.46 C49.80,32.84 50.15,28.16 48.51,23.74 C47.02,19.74 43.97,16.69 41.47,13.32 C41.34,13.88 41.22,14.43 41.10,14.99 C40.95,15.66 40.81,16.32 40.65,16.99 L40.64,17.03 L40.64,17.03 C40.69,17.18 40.67,17.34 40.54,17.44 C40.53,17.45 40.51,17.46 40.50,17.47 C40.36,17.78 40.16,18.01 39.77,18.11 C39.39,18.20 39.09,18.05 38.92,17.77 L36.96,17.78 L36.96,17.78 C35.71,17.79 34.34,17.93 33.11,17.68 C32.92,17.64 32.95,17.37 33.11,17.32 C34.27,16.96 35.63,16.96 36.83,16.85 L38.73,16.68 L38.73,16.68 C38.81,16.67 38.90,16.66 38.98,16.65 L39.11,16.63 L39.77,13.70 L39.77,13.70 C40.03,12.54 40.30,11.37 40.54,10.21 C40.98,8.10 41.45,6.00 41.92,3.90 C40.44,3.54 38.92,3.38 37.39,3.44 L37.21,3.45 C36.62,3.48 35.98,3.54 35.48,3.88 C34.86,4.31 34.82,5.19 34.68,5.87 C34.31,7.74 34.04,9.62 33.80,11.51 C33.69,12.42 33.60,13.34 33.50,14.25 C33.46,14.66 33.43,15.09 33.37,15.50 C33.31,15.89 33.17,16.27 33.09,16.66 C33.22,17.25 32.40,17.81 31.95,17.29 C31.38,16.64 30.88,15.96 30.25,15.37 C29.61,14.77 28.92,14.25 28.17,13.80 C26.65,12.89 25.07,12.33 23.38,11.86 C23.32,11.84 23.29,11.81 23.27,11.77 C21.58,12.25 19.92,12.90 18.39,13.73 C14.82,15.67 12.02,19.02 10.96,22.95 C10.30,25.39 10.15,27.97 10.14,30.48 C10.14,31.65 10.16,32.84 10.35,33.99 C10.55,35.28 11.02,36.44 11.40,37.67 C11.50,38.00 11.47,38.29 11.37,38.53 L11.47,38.54 C12.24,38.66 13.75,39.00 13.89,39.84 C13.92,40.08 13.79,40.26 13.55,40.28 C13.12,40.32 12.85,40.01 12.50,39.79 C12.44,39.75 12.38,39.72 12.31,39.68 C12.30,39.69 12.28,39.70 12.25,39.68 C10.22,38.53 7.73,40.30 7.28,42.35 C6.86,44.27 7.58,46.49 9.43,47.33 C10.36,47.75 11.36,48.02 12.21,48.59 C12.94,49.08 13.58,49.67 14.13,50.34 C15.28,51.71 16.15,53.28 17.16,54.74 C17.61,55.38 18.10,55.99 18.69,56.51 C19.34,57.08 20.23,57.31 20.51,58.20 C20.61,58.54 20.43,58.96 20.12,59.14 C18.98,59.78 17.68,58.66 16.88,57.90 C16.05,57.11 15.38,56.16 14.77,55.21 C13.74,53.62 12.86,51.81 11.34,50.60 C10.43,49.88 9.30,49.61 8.28,49.10 C7.11,48.51 6.27,47.55 5.78,46.34 C4.86,44.13 5.10,41.31 6.84,39.55 C7.40,38.97 8.11,38.61 8.86,38.46 C8.09,37.11 7.80,35.41 7.61,33.90 C7.42,32.39 7.39,30.86 7.47,29.34 L7.49,29.04 C7.64,26.33 7.95,23.53 8.94,20.98 C9.77,18.84 11.03,16.87 12.70,15.27 C12.87,15.11 13.05,14.95 13.23,14.79 C13.18,14.75 13.13,14.71 13.09,14.67 C12.62,14.16 12.72,13.47 12.78,12.84 C12.85,12.14 12.97,11.43 13.13,10.75 C14.31,5.96 17.93,2.05 22.58,0.43 C23.25,0.20 23.95,-0.00 24.65,-0.17 Z M8.98,42.23 C9.73,41.75 10.88,41.94 11.67,42.25 C12.59,42.61 13.57,43.30 13.94,44.25 C14.27,45.14 13.02,45.45 12.55,44.84 C12.26,44.46 12.04,44.09 11.77,43.76 C11.73,43.80 11.70,43.83 11.67,43.87 L11.65,43.90 C11.53,44.07 11.32,44.25 11.09,44.22 L11.03,44.21 L11.03,44.21 C10.80,44.18 10.55,44.07 10.49,43.82 L10.48,43.79 L10.47,43.75 C10.42,43.47 10.50,43.17 10.77,43.02 C10.79,43.01 10.80,43.00 10.82,42.99 C10.24,42.69 9.63,42.59 9.00,42.37 C8.93,42.35 8.92,42.27 8.98,42.23 Z M29.92,1.00 C25.99,0.91 21.69,2.11 18.78,4.83 C17.41,6.11 16.48,7.61 15.65,9.27 C15.25,10.06 15.00,10.93 14.81,11.79 C14.71,12.26 14.63,12.73 14.59,13.21 C14.58,13.30 14.58,13.40 14.57,13.49 C14.56,13.57 14.54,13.59 14.53,13.59 C14.54,13.61 14.57,13.65 14.60,13.69 C17.54,11.58 21.17,10.36 24.77,11.16 C24.89,11.18 24.89,11.36 24.77,11.39 C24.59,11.43 24.40,11.47 24.22,11.52 C25.79,11.55 27.41,12.05 28.77,12.78 C30.13,13.51 31.56,14.54 32.54,15.80 C32.51,15.62 32.49,15.44 32.49,15.25 C32.48,14.75 32.49,14.25 32.51,13.75 C32.55,12.67 32.62,11.59 32.71,10.51 L32.75,10.04 C32.91,8.16 33.10,6.22 33.49,4.38 C33.71,3.31 34.30,2.65 35.10,2.27 C33.62,1.31 31.60,1.05 29.92,1.00 Z M37.19,0.38 C35.42,-0.15 33.58,-0.39 31.74,-0.35 C32.41,-0.18 33.06,0.06 33.67,0.40 C34.45,0.84 35.01,1.42 35.50,2.10 C35.97,1.94 36.49,1.85 37.03,1.81 C38.29,1.73 39.56,1.79 40.81,1.99 C40.58,1.85 40.34,1.71 40.10,1.58 C39.18,1.08 38.20,0.68 37.19,0.38 Z" id="🖍-Ink" fill="#000000"></path></g><g id="face/Smile-LOL" transform="translate(20.36, 23.79)" fill="#000000"><path d="M21.56,25.01 C23.15,25.00 25.53,24.96 27.11,25.05 C27.57,25.08 27.80,25.73 27.83,26.04 C28.13,28.92 25.83,31.21 23.29,32.10 C20.93,32.93 17.82,33.08 15.72,31.54 C14.81,30.87 14.12,29.94 13.66,28.91 C13.42,28.36 13.24,27.78 13.14,27.18 C13.07,26.72 12.93,26.11 13.09,25.66 C13.32,25.05 13.97,25.09 14.52,25.08 C15.27,25.06 16.03,25.04 16.79,25.04 C18.38,25.02 19.97,25.02 21.56,25.01 Z M25.97,25.85 C25.25,25.93 17.38,25.98 16.16,26.01 C15.98,26.01 15.78,26.01 15.59,26.00 C15.45,26.42 15.80,27.28 16.18,27.43 C16.56,27.58 19.74,27.72 21.62,27.64 C22.90,27.58 26.23,26.80 26.23,26.47 C26.23,26.14 26.09,25.84 25.97,25.85 Z M10.03,18.47 C10.28,18.34 10.51,18.51 10.54,18.76 C10.60,19.26 10.34,19.79 10.32,20.31 C10.31,20.87 10.37,21.43 10.35,21.98 C10.32,22.95 10.03,23.93 9.46,24.73 C8.79,25.69 7.02,26.73 6.18,25.35 C5.57,24.35 6.05,22.90 6.49,21.94 C6.84,21.19 7.34,20.49 7.91,19.89 C8.28,19.49 9.07,18.58 9.68,18.67 C9.70,18.68 9.71,18.71 9.71,18.73 C9.71,18.74 9.70,18.76 9.69,18.78 C9.78,18.65 9.89,18.54 10.03,18.47 Z M9.57,18.99 C9.46,19.12 9.32,19.22 9.19,19.35 C8.93,19.61 8.67,19.88 8.43,20.17 C8.00,20.71 7.64,21.30 7.36,21.92 C7.03,22.67 6.47,23.94 6.87,24.76 C7.08,25.21 7.62,25.13 7.99,24.91 C8.68,24.51 9.08,23.65 9.28,22.91 C9.49,22.09 9.36,21.25 9.37,20.42 C9.37,19.99 9.38,19.42 9.57,18.99 Z M29.59,17.17 C29.60,16.85 29.91,16.68 30.19,16.82 C30.66,17.05 30.86,17.53 31.12,17.97 L31.12,17.97 L32.03,19.50 C32.56,20.40 33.29,21.36 33.56,22.38 C33.96,23.89 32.65,25.00 31.19,24.67 C29.68,24.34 29.11,22.57 29.14,21.20 C29.16,20.48 29.33,19.74 29.47,19.04 C29.55,18.62 29.58,18.17 29.69,17.76 C29.62,17.56 29.58,17.36 29.59,17.17 Z M22.26,17.77 L22.37,17.78 C27.28,18.62 24.74,27.08 18.46,22.44 C17.71,21.84 18.61,20.51 19.42,21.03 C20.29,21.69 22.05,23.16 23.28,21.88 C24.32,20.42 22.84,19.06 21.88,18.47 C21.62,18.29 21.82,17.68 22.37,17.78 Z M30.32,18.87 C30.26,19.28 30.17,19.67 30.13,19.95 C29.96,21.08 29.84,22.55 30.78,23.41 C31.18,23.77 31.86,23.90 32.33,23.56 C33.00,23.06 32.29,22.10 31.98,21.59 C31.51,20.83 31.06,20.07 30.60,19.31 C30.52,19.17 30.42,19.02 30.32,18.87 Z M12.31,13.00 C13.92,12.74 15.66,13.79 16.22,15.32 C16.36,15.70 16.13,16.18 15.79,16.38 C15.40,16.60 14.98,16.49 14.65,16.23 C14.21,15.88 14.00,15.31 13.51,14.99 C13.09,14.71 12.54,14.70 12.06,14.78 C10.94,14.96 10.06,15.69 9.04,16.11 C8.90,16.17 8.81,15.98 8.86,15.87 C9.48,14.48 10.77,13.25 12.31,13.00 Z M27.90,12.93 C29.19,12.82 30.72,13.38 31.12,14.70 C31.13,14.73 31.10,14.77 31.07,14.76 C30.29,14.47 29.43,14.29 28.60,14.44 C28.06,14.54 27.01,14.91 26.96,15.53 C26.90,16.47 25.80,16.71 25.27,15.99 C24.75,15.29 25.20,14.33 25.77,13.82 C26.37,13.29 27.10,13.00 27.90,12.93 Z M15.57,7.57 C15.85,7.89 15.95,8.48 15.57,8.78 C14.91,9.32 14.18,9.11 13.39,9.15 C12.74,9.19 12.12,9.30 11.49,9.48 C10.11,9.87 8.99,10.59 7.81,11.38 C7.66,11.48 7.50,11.28 7.58,11.14 C8.25,9.81 9.57,8.72 10.89,8.05 C11.59,7.70 12.36,7.41 13.14,7.27 L13.38,7.23 C14.12,7.10 15.05,6.98 15.57,7.57 Z M26.02,6.68 L26.21,6.71 C28.21,7.13 30.81,7.97 31.76,9.93 C31.80,10.21 31.76,10.27 31.73,10.31 L31.72,10.32 C31.69,10.35 31.67,10.40 31.55,10.44 C31.52,10.43 31.48,10.42 31.45,10.41 C31.01,10.30 30.67,10.14 30.34,9.98 L29.98,9.80 C29.56,9.60 29.14,9.40 28.69,9.25 C27.73,8.94 26.75,8.72 25.75,8.60 C25.53,8.58 25.33,8.51 25.16,8.38 C25.01,8.26 24.89,8.10 24.83,7.88 C24.76,7.60 24.78,7.38 24.93,7.13 C25.05,6.94 25.21,6.80 25.40,6.73 C25.59,6.65 25.81,6.63 26.02,6.68 Z" id="🖍-Ink"></path></g><g id="facial-hair/*-None" transform="translate(15.75, 43.24)"></g><g id="accessories/*-None" transform="translate(6.02, 30.83)"></g></g></g></g></g></svg>