<?xml version="1.0" encoding="UTF-8"?>
<svg width="135px" height="369px" viewBox="0 0 135 369" version="1.1" xmlns="http://www.w3.org/2000/svg" xmlns:xlink="http://www.w3.org/1999/xlink">
    <!-- Generator: Sketch 62 (91390) - https://sketch.com -->
    <title>mix-7</title>
    <desc>Created with Sketch.</desc>
    <g id="Mix-N-Match" stroke="none" stroke-width="1" fill="none" fill-rule="evenodd">
        <g id="Artboard" transform="translate(-312.000000, -149.000000)">
            <g id="a-person/standing" transform="translate(302.000000, 128.000000)">
                <g id="pose/standing/blazer-2" transform="translate(-15.497031, 81.104224)">
                    <path d="M48.8038148,76.877005 C53.0261795,86.2559281 58.2462456,94.5482593 64.4280243,102.829717 C63.9946197,83.261596 63.6212821,63.588321 62.9823177,43.8404659 C59.0675883,51.4712988 54.8964534,58.376799 49.3280243,65.9522405 C44.9626002,70.6135586 46.9980904,72.5482909 48.8038148,76.877005 Z M34.9615077,305.812737 C34.4722626,305.120921 34.7618394,304.241439 35.4385858,303.792807 C33.997618,300.688587 38.3397325,298.292303 40.476914,295.955632 C45.334657,290.690253 52.9873729,283.142699 53.6686019,276.4942 C55.9852159,261.410733 57.3092516,246.27405 61.0189335,231.367119 C63.22297,221.899032 69.3421201,214.301844 72.0762575,205.001082 C76.8310285,180.42113 70.688662,155.77155 71.7506569,130.946494 C58.3502074,129.633092 60.0856536,131.302928 61.5209861,120.166448 C60.6240794,119.544479 59.7503542,118.885539 58.9337503,118.221866 C56.7943915,119.362314 54.2688877,122.158363 51.9130828,122.010482 C51.1674322,121.836249 50.629903,120.902271 50.1183729,120.100183 C46.3353042,114.139918 42.8186307,108.313591 39.3757282,102.307017 C20.3365366,72.3123979 24.6429182,65.5203669 42.4022601,36.7676404 C49.8814348,25.6631417 59.0681006,9.50421252 73.3162762,8.38295302 C75.0363186,8.38436019 76.8498555,8.29276615 78.331551,7.21193084 C78.3420531,5.49070477 79.2223101,4.9353839 81.4554195,4.6208172 C82.7128563,4.49174123 83.6995433,3.7591168 84.9270107,4.05807669 C85.8027851,1.13666162 85.6271947,-1.21267445 86.5775086,-4.10325968 C89.8327817,-9.03641768 100.393304,-6.57514755 104.26039,-5.02802692 C109.065878,-3.35848241 104.494638,4.11372391 107.631058,7.52598584 C108.314721,7.90745713 109.026431,8.09026144 109.937682,8.08987767 C113.823083,7.22561878 115.716538,11.8869369 117.553257,14.9616057 C122.810721,15.6092882 126.750809,16.3891168 129.16937,18.2826574 C131.387623,19.9557838 133.018269,22.6469345 135.186189,28.2122961 C139.726051,38.1377133 142.702761,47.9953304 144.017704,57.5044808 C145.161922,63.9483009 148.341119,69.5249199 150.893006,75.3777282 C157.158034,90.6167513 159.862586,100.710134 158.362832,114.123032 C156.772273,113.838272 155.16865,113.260564 153.49433,113.044883 L152.817584,114.644837 C152.774679,114.6126 152.757005,114.576909 152.754059,114.566803 C150.789394,127.991982 156.178903,155.329223 138.595664,151.73211 C137.044296,166.506383 132.096132,179.64015 126.142198,191.994216 C123.734267,196.641975 121.312888,201.554025 121.353103,207.011674 L122.259487,207.031886 C122.413561,207.03534 122.462998,207.066682 122.46351,207.066938 C122.636027,207.109025 122.435718,208.453769 122.242325,209.214409 C119.397916,219.25483 116.938114,229.294228 114.729595,239.455922 C114.263403,240.825227 114.06207,244.511376 112.983169,245.136544 C113.030173,245.639799 111.542227,246.626226 111.427216,246.594245 C111.686439,248.533199 110.747242,249.400912 110.778877,251.369416 C110.773754,251.322724 112.09843,251.391547 112.040668,251.351635 C112.831529,251.351763 113.727667,253.029366 113.738554,254.166105 C113.81066,255.535666 112.652224,256.823099 112.247252,258.16682 C111.619431,261.115355 111.717408,264.104314 111.438077,267.071526 C114.074493,267.669062 113.482788,270.469333 111.170913,270.607236 C111.170913,270.607108 110.749829,274.519555 110.83295,276.469766 C112.419026,276.659862 113.123667,278.07215 113.647492,279.167825 C115.598325,279.189572 117.424157,280.076601 119.235645,281.000601 C123.458266,283.068119 127.605195,285.233628 131.366491,287.427151 C134.685033,289.631549 141.918432,292.055465 138.162772,296.691966 C138.219765,296.811575 137.356926,298.96314 136.192855,298.767159 C130.450117,299.324527 108.611982,294.58607 103.559822,293.535169 C101.845158,293.127857 94.3416494,292.151409 97.4577053,289.620803 C96.2964526,286.380344 96.2452483,280.231774 99.7480897,279.481112 C100.088256,276.436378 102.653335,275.367567 105.211754,276.4942 C105.195616,274.30413 105.332272,272.408217 105.355197,270.216996 C104.12376,270.054916 102.760252,269.598294 102.404332,268.665212 C102.066855,268.150059 102.197748,266.396468 103.465687,266.383548 C103.502828,266.380989 104.418946,266.424867 104.455832,266.4241 C104.309058,262.87918 104.618487,259.870648 104.087233,256.31946 C103.802395,255.140507 102.870396,254.948364 102.260376,254.341745 C101.687755,252.577792 103.448653,251.153096 104.955195,250.85631 C105.338778,249.063063 104.528834,247.163638 104.955195,245.403906 C103.972862,245.371285 103.205951,245.321011 102.567883,244.72501 C102.290858,244.45381 101.837346,244.536065 101.484884,244.512016 C101.143309,240.809621 98.8316901,237.647579 98.3188792,234.086157 C97.5965383,229.870273 98.9579717,225.4712 99.4456799,221.174595 C99.8406621,217.601276 99.2110472,213.944678 98.8964958,210.435065 C85.9507113,231.077753 68.4695476,250.970803 65.3397876,276.098913 C65.0065374,278.033133 64.8044356,280.196851 66.5897961,282.091287 L66.6663847,282.113034 C67.1202813,283.023601 67.4055035,284.759283 67.7310692,285.698378 C69.4170438,287.02905 67.8695179,289.584473 66.6516561,290.736178 C66.2822889,291.156666 65.9673534,291.644571 65.6300047,292.085399 C59.2682813,299.676831 58.5486299,308.254307 46.3365849,307.675448 C43.3343873,307.487782 36.3092372,307.583086 34.9615077,305.812737 Z" id="🎨-Background" fill="#FFFFFF"></path>
                    <path d="M86.0750461,-2.75825998 C87.1055347,-3.46184552 85.6383116,2.6045969 85.635494,3.18396761 L85.6095982,3.31101327 C85.3526881,4.54636506 84.9003029,5.98206332 83.8590987,6.77225384 C84.3392506,10.6997962 84.9369749,14.6159533 85.6726356,18.5016644 C92.2340275,19.3567127 98.8389647,20.5915692 105.51255,19.9687042 C108.994944,19.9988458 111.309068,17.6391393 112.732916,14.6994538 L112.775791,14.6101967 L112.4825,13.5586562 C108.019483,10.8219643 104.636263,5.2743842 106.6487,0.0395798845 C106.779336,-0.300699666 107.323653,-0.163820298 107.204544,0.19181021 C106.360148,2.55483421 106.714659,5.21873698 107.914078,7.38885062 C108.663314,7.78797551 109.461219,7.75983209 110.264247,7.73552641 C114.137737,7.16945986 116.362521,11.5634155 118.029541,14.3031776 L119.488915,14.5190362 C125.07211,15.3481387 130.457478,16.3290434 133.214198,22.0464562 L133.466186,22.5815049 C137.366703,30.8798441 141.011599,39.4158151 143.135884,48.3567175 C144.193909,53.0630651 144.576724,57.9126884 146.128732,62.5040317 C149.350962,71.027139 153.891977,79.036245 156.354468,87.8598473 C157.881886,90.9777546 162.173795,115.112018 157.940032,115.192226 C156.414791,114.735663 154.861117,114.36724 153.290922,114.103588 C153.533111,114.287927 153.621355,114.601215 153.575376,114.922433 C153.027217,118.763883 152.986105,122.65535 152.988794,126.528013 C153.213181,135.828902 153.182443,155.482221 139.32323,152.982445 C138.18708,164.354306 134.307571,175.355314 129.99517,185.881977 C127.432909,192.667868 122.463485,198.857885 122.213739,206.31167 C123.930708,206.337383 123.26472,208.51965 123.053781,209.57247 C122.476292,212.148872 121.725134,214.68549 120.964755,217.212129 C118.285946,226.276486 116.686038,235.644919 114.392093,244.813278 C114.267988,245.25449 114.059227,245.555113 113.792832,245.757362 C113.747493,246.711296 112.305629,247.258814 111.489921,246.941816 C111.604556,248.095727 111.572953,249.264028 111.588805,250.421978 L111.592381,250.638966 L111.842127,250.63628 C112.929608,250.356509 114.028745,252.116368 114.335612,253.019516 C115.367893,255.547435 112.974307,257.400679 112.796155,259.808477 C112.633884,262.094234 112.418206,264.360036 112.319973,266.652445 C115.304368,267.81656 113.984303,271.716854 111.059591,271.676046 C111.196246,273.099336 111.214817,274.530684 111.274884,275.956405 C112.546537,276.289137 113.500181,277.360505 114.125698,278.479206 C116.696156,278.654847 119.042483,280.17344 121.332586,281.248647 C124.873721,282.996098 128.357351,284.861239 131.774511,286.84164 C135.10189,289.05512 142.506013,291.568328 139.269439,296.687872 C140.08398,297.389533 139.515028,298.764501 138.772563,299.33832 L138.746894,299.357787 C138.009184,299.9346 137.033256,299.9346 136.126487,299.841215 C125.59286,300.104484 114.493784,296.834858 104.019328,294.699923 L103.228402,294.558907 C100.935612,294.148591 98.5884154,293.68938 96.5512955,292.571257 C95.6896093,291.869974 95.4786704,290.15847 96.3604643,289.467805 C95.4562573,286.198947 96.2718366,280.458968 99.8493455,279.194177 C100.273785,276.769877 102.235888,275.031126 104.731551,275.771042 C104.743718,274.218292 104.870128,272.684348 104.898048,271.131087 C103.660719,270.898264 102.519574,270.418547 101.922874,269.244199 C101.266876,268.073688 101.977562,266.112092 103.468607,266.175286 C103.519196,263.757127 103.382284,261.379519 103.362305,258.965581 L103.360252,258.82002 C103.352298,258.038336 103.383852,257.175637 103.052364,256.456851 C102.711686,255.716168 101.804917,255.643251 101.402635,254.941072 C100.520713,253.05009 102.285966,250.829446 104.106547,250.320306 C104.334904,249.054236 104.216563,247.713586 104.445816,246.435235 C103.476291,246.378948 102.650338,246.1538 101.948361,245.603725 C101.463342,245.528761 100.605114,245.744825 100.549786,245.048532 C100.352551,242.203488 98.9168341,239.67058 98.0127552,237.017422 C96.145427,231.856175 97.8401106,226.46671 98.4890648,221.246873 C98.7951632,218.584761 98.4725432,215.911136 98.1997442,213.242756 C85.8789639,232.529314 70.0744253,251.178169 66.4230173,274.445487 C66.2204032,277.064488 65.1505958,279.219251 67.0302192,281.478911 C67.6611148,281.661332 68.1996687,284.62202 68.4427544,285.367821 C70.3679723,287.148532 68.6903226,290.326691 67.0147221,291.703928 C66.2127187,293.088457 65.1400936,294.300543 64.1358604,295.540644 L63.812431,296.082671 C61.6853474,299.636997 59.4160496,303.201665 56.531941,306.180392 C51.6848282,309.773796 43.551064,308.751213 37.8418807,308.103995 L37.3344004,308.021502 C36.1452644,307.823445 34.8288419,307.533269 34.144494,306.475387 C33.5500996,305.558167 33.6296339,304.368468 34.3686246,303.680361 C33.6352692,301.568197 35.306259,299.494283 36.8774787,298.197383 C42.9687086,292.800882 48.2191284,286.453261 52.3079113,279.418045 C53.8751606,268.042219 55.4846746,256.667159 57.2273863,245.317301 C58.6337739,235.924562 60.7763345,226.521973 65.2999308,218.094809 L66.4090838,215.98763 C68.2843875,212.418321 70.0819396,208.857163 71.1503803,204.922537 C73.641304,195.652222 73.0447323,185.944404 72.6998273,176.454187 C72.2559206,161.638594 71.199561,146.820315 71.3372412,131.993849 C68.5471352,131.70103 60.9825347,131.881403 59.7911844,129.015763 C59.401069,126.2847 60.3157781,123.506049 60.5226187,120.778696 C59.9334753,120.365499 59.3584202,119.933114 58.798734,119.486657 C57.7613294,120.260601 56.6906254,120.991051 55.5904643,121.670202 C52.9590427,123.563487 50.9241929,123.866413 49.2955958,120.75439 C44.5836017,113.309432 40.0374643,105.757144 35.7477323,98.0606862 C31.7690936,90.678283 26.8377077,83.3079047 25.8278392,74.8085914 C24.3598477,59.5098275 42.3169367,35.0241554 51.3076483,22.5937178 C56.8326922,15.9126666 63.9797825,8.79730268 73.1091799,8.27385454 L73.3864355,8.26001744 C74.610829,8.19861361 76.3899138,8.33293449 77.4105406,7.50526205 C77.603421,4.74336901 80.4386093,4.75731279 82.5463337,4.30062182 C82.9830682,3.96788982 83.6453422,3.88908824 84.2036195,3.91569657 C84.9601564,1.74404783 85.1319045,-0.656969796 86.0750461,-2.75825998 Z M60.0450283,281.388085 C57.7327688,280.185593 54.9735288,280.088243 52.5411352,281.041409 C49.5247213,286.628902 45.6612217,291.729001 41.274153,296.310367 C39.6712989,298.545978 33.6547366,301.493233 36.6559096,304.510464 L37.0622308,304.584881 C41.6692925,305.423266 46.3468126,306.083184 51.0412531,305.70528 C54.1085126,304.856628 56.5843235,302.584559 58.5350283,300.13058 C60.9565355,296.991565 62.9577018,293.537984 65.1730088,290.250832 C67.162136,286.881425 68.2108112,286.836012 66.6511182,282.833761 C66.6484287,282.911667 66.6293455,282.990981 66.5895143,283.071573 C66.0387934,284.182087 64.3482081,284.079619 63.3940521,283.661306 C62.1504473,283.115068 61.2462404,282.021312 60.0450283,281.388085 Z M38.1967756,305.546654 L38.2666243,305.578635 L38.2666243,305.578635 L38.3375296,305.610616 L38.4412701,305.611895 L38.1967756,305.546654 L38.1967756,305.546654 Z M125.877955,285.43012 C122.447219,283.896559 116.162212,279.427128 112.657962,280.10628 C110.070214,280.897494 107.68444,282.31298 104.926096,282.517915 L104.807499,282.522314 C102.838579,282.606332 99.3391116,283.26291 98.5993371,280.948024 C97.6198222,282.818794 97.2975864,285.135381 97.3121869,287.252151 C97.2714592,289.056144 98.0977968,290.483015 100.015715,290.629361 L101.791699,291.076033 C113.044986,293.899809 124.402989,296.595485 135.999565,297.431114 C139.043643,295.530794 139.118567,293.032681 135.89083,291.297128 C132.63133,289.214515 129.276927,287.274026 125.877955,285.43012 Z M59.6006093,241.850415 C57.5852268,254.456366 56.2321182,267.133826 54.2803888,279.745532 C61.0922947,278.043623 63.0928205,284.149338 65.6289545,282.446022 C63.8549927,280.112037 64.0675966,278.354096 64.5928307,275.638 C65.6339494,266.490237 69.0418875,257.787907 73.2674541,249.665332 C73.7490148,248.737878 74.2432548,247.815542 74.7440266,246.895763 C69.3107162,247.391343 63.4621878,245.842432 59.6006093,241.850415 Z M101.565418,277.79724 C101.098842,278.521166 100.913774,279.393484 100.764951,280.230367 C100.688106,280.662752 100.730371,281.299817 100.576681,281.784651 C103.499729,281.873047 106.43917,281.191976 109.073153,279.938699 L108.944635,279.930051 C106.797963,279.798069 102.361924,280.09959 101.565418,277.79724 Z M99.7481666,279.662509 C99.4638409,279.86463 99.2178095,280.098604 99.0053337,280.358292 C98.9334838,280.761254 99.1422455,281.200036 99.4804906,281.450768 C99.5479859,280.860524 99.630466,280.248916 99.7481666,279.662509 Z M105.457734,271.221914 C105.466699,273.047014 105.57774,274.844995 105.557504,276.667666 C105.554558,277.299741 105.742316,278.097991 105.355274,278.635147 L105.970176,278.700174 C107.511934,278.860666 109.08468,278.993147 110.625418,278.818079 C110.675239,276.445205 110.676647,274.060433 110.832899,271.690118 C108.932655,271.677709 107.328008,271.358281 105.457734,271.221914 Z M111.345197,278.488033 C111.342764,278.56095 111.341355,278.637705 111.344044,278.709343 C111.565485,278.668407 111.785902,278.618516 112.003501,278.56095 C111.824452,278.542657 111.642202,278.573103 111.465715,278.512339 C111.424988,278.506454 111.383748,278.501082 111.345197,278.488033 Z M104.708369,278.204041 C104.513696,278.424583 104.134083,278.464239 103.893943,278.317893 C103.845274,278.326848 103.796478,278.333244 103.745376,278.335803 C103.73116,278.337082 103.715791,278.335803 103.701831,278.335803 L103.868606,278.377628 C104.216547,278.463393 104.485895,278.518923 104.842976,278.570033 C104.780219,278.456052 104.737955,278.333244 104.708369,278.204041 Z M112.70535,278.195086 C112.660524,278.278237 112.599048,278.347316 112.523612,278.404882 L112.695678,278.347174 C112.724276,278.337366 112.752737,278.327275 112.780914,278.316614 C112.757988,278.274399 112.732245,278.234742 112.70535,278.195086 Z M102.629846,277.693621 C102.662121,277.768969 102.734227,277.884485 102.816835,277.945761 C102.743704,277.870157 102.679667,277.785855 102.629846,277.693621 Z M111.296529,276.519273 C111.297809,276.562767 111.29909,276.606262 111.30178,276.651163 C111.325217,276.62609 111.353138,276.603575 111.386309,276.588352 C111.355443,276.565454 111.324705,276.542299 111.296529,276.519273 Z M103.459642,266.57569 C102.026871,267.040185 102.528795,268.838038 103.613331,269.427131 C104.792899,270.204913 106.574417,270.083512 107.928294,270.199924 C109.314318,270.229346 110.91858,270.79247 112.166156,269.983603 C112.816903,269.545205 112.822666,268.54944 112.134265,268.165794 C112.121329,268.196624 112.107369,268.225918 112.093153,268.255469 C112.102246,268.3257 112.095843,268.405141 112.064977,268.498398 C111.278983,269.911837 106.346444,269.095166 105.095411,268.394651 L104.998722,268.352733 C104.151598,267.992731 103.357105,267.825882 103.459642,266.57569 Z M105.211831,245.78154 C105.522027,247.171569 105.420464,248.618525 105.616418,250.013287 C105.739498,250.417529 105.581838,250.686171 105.329659,250.824329 C106.957488,251.310571 108.597996,251.55222 110.293704,251.173563 C110.109917,249.543804 110.573675,247.727274 110.808564,246.088559 L105.211831,245.78154 L105.211831,245.78154 Z M111.427165,246.123099 C111.454573,246.331232 111.450987,246.558298 111.474553,246.774235 C111.477968,246.769118 111.481383,246.76457 111.485595,246.760249 L111.492611,246.753895 C111.697402,246.575952 111.883239,246.348374 112.079193,246.15137 C111.864156,246.146893 111.643867,246.134868 111.427165,246.123099 Z M102.939659,203.939948 C101.902254,206.411452 100.731652,208.815156 99.4188867,211.156177 L99.4723939,211.709066 C99.8194634,215.333764 100.08082,218.962134 99.4922735,222.579847 L99.4370435,222.889931 C98.5298991,227.958985 97.3992265,233.23708 99.5994719,238.143159 L99.6995548,238.400423 C100.485693,240.414864 101.313189,242.413232 101.525715,244.57649 C105.101558,244.832339 108.688929,245.189249 112.269896,245.314615 C113.195876,245.471962 113.646186,244.942994 113.728666,244.073746 C116.522102,232.37056 118.972554,220.586909 121.999854,208.941801 L122.031328,208.882319 C122.359451,208.254572 122.605506,207.5329 121.995884,207.313192 C120.845646,207.112607 119.717564,208.342346 118.625088,208.656401 C112.761831,210.967744 108.320843,204.828256 102.939659,203.939948 Z M102.801389,208.706509 C106.361992,213.97419 104.424735,221.975493 104.015665,228.231648 C103.713153,230.535442 104.06856,232.895012 103.827267,235.18691 C103.793968,235.365877 103.510923,235.399137 103.432669,235.237952 C102.593396,233.127196 102.937917,230.69957 103.011432,228.478542 C103.535257,221.909868 105.018489,215.128071 102.801389,208.706509 Z M113.210604,136.565748 C113.197284,136.479655 113.07651,136.510612 113.069082,136.584809 C113.030787,152.384525 112.037953,168.138317 110.467758,183.858977 C110.445729,184.199512 111.003366,184.280105 111.069196,183.940337 C112.198589,178.101642 112.654721,172.151997 113.037092,166.2227 L113.080096,165.551553 C113.577538,157.587221 113.735198,149.601653 113.521441,141.6244 C113.47495,139.947948 113.46829,138.225058 113.210604,136.565748 Z M145.498861,113.553512 C145.360541,113.717383 145.209541,113.815757 145.055723,113.865648 C145.057004,117.557553 144.311737,121.190741 142.269075,124.388857 C141.37204,125.574079 140.890223,126.943 140.460405,128.351835 C140.583869,128.734073 140.428642,129.173878 140.140218,129.39442 C138.252398,135.131329 138.057853,141.275294 138.754451,147.234791 C140.877544,144.121105 141.719635,140.403871 142.313645,136.739853 C142.345664,136.555642 142.650481,136.5582 142.683781,136.739853 C143.388319,140.658825 142.194407,144.570505 140.652517,148.150859 C139.797491,148.874145 139.981022,150.513372 139.881508,151.538176 C155.531588,153.815874 150.088672,123.768295 152.093553,114.514226 C152.130694,114.258377 152.347012,114.074293 152.592916,113.99498 C150.245307,113.638326 147.867346,113.61095 145.498861,113.553512 Z M82.1787595,4.9608409 L81.9077244,5.02913196 C79.0519703,5.74231492 78.2951701,5.75853804 78.1135423,9.1158333 C77.4028561,13.8523711 74.778991,17.9886865 73.5992955,22.5697959 C73.1275966,24.1879147 73.6254227,27.1693265 75.863399,26.7337431 C76.5883014,26.5110263 77.1532387,27.4870913 76.6049511,28.0064653 C74.984807,29.5377233 73.4121785,31.1175926 71.8303286,32.6885073 C78.1818061,54.1285495 86.4335271,75.0122475 96.4834159,94.9916461 C96.8818561,95.7834997 95.6869198,96.4819682 95.2911691,95.6875562 C85.2984156,75.6438959 76.9889651,54.7667163 70.5394064,33.3217695 L70.3445347,32.6717491 C70.0598248,31.8827099 73.7016271,29.0534006 74.3649257,28.129273 C67.7237433,24.9311569 76.9725254,13.7312265 77.2428909,8.34828545 C75.3192098,9.10048235 73.1872794,8.84271419 71.1797094,9.1708409 C67.3218451,9.84500377 63.9363201,12.0772888 60.9268222,14.4806091 C48.7032506,25.2765534 40.8901852,40.2232687 33.0757111,54.3104583 C27.7534414,63.5046583 25.1883625,74.7390004 30.5286908,84.5173043 C36.7249418,97.052768 43.9153082,109.136658 51.5138485,120.867092 C52.3497917,121.951381 53.6323311,120.705139 54.5120758,120.247808 C59.5666696,117.210877 63.9500241,113.077632 67.3208205,108.244639 C58.4820054,97.1634228 50.2592293,85.0549716 45.677231,71.5710746 C45.3111937,68.2908309 49.9089452,64.4913411 51.5869791,61.6404125 C55.2916662,56.5289275 58.7531394,51.2438488 62.0582336,45.8685832 C61.9543651,45.3373122 62.1740131,44.7547434 62.7370292,44.7697105 L63.0641728,44.2243136 C65.5881786,40.0284536 65.8691969,39.865704 63.3634422,44.9986957 C64.6348392,63.9338455 64.4232599,83.234476 64.9732124,102.289875 C66.4601589,104.257228 67.990779,106.192728 69.5570037,108.097526 C74.6384931,104.596868 80.6154804,102.312262 86.7538417,101.60535 L87.0688367,101.57397 C89.6669972,101.308427 94.0608073,100.754068 94.4063014,104.175612 C93.9429274,108.363993 85.3911276,105.98613 82.6257399,108.36233 C87.1360165,110.178732 92.305237,110.692605 96.4462743,113.433391 C97.7746645,114.206183 100.378422,116.678711 97.8346034,117.622923 C96.7244524,117.718866 95.5781844,117.284562 94.4689299,117.191689 C95.7171454,117.611409 96.8653345,118.325357 97.5965126,119.442011 C98.1227713,120.208152 98.5069953,121.796976 97.2493023,122.125998 C94.3818392,122.20352 91.5266712,121.274404 88.7028816,120.80556 L88.9538581,120.907641 C91.0132633,121.752055 94.2121505,123.263606 91.4398366,125.498092 C88.6636908,126.933534 85.3036526,124.490173 82.5387773,123.83699 C75.0881632,122.107449 69.5842836,126.853325 61.9480894,121.712673 C61.7336925,123.976684 61.0484931,126.306319 61.2589198,128.5734 C63.0957662,130.290277 68.8121216,130.23335 71.3692599,130.460033 L71.3664621,130.372896 C71.3291908,128.981022 71.6999717,129.12321 71.7701335,130.476663 C78.2436662,130.675074 84.7323116,130.554569 91.1927807,130.09033 C93.9652199,129.885771 96.7331212,129.609709 99.489971,129.251478 L100.006749,129.183345 C101.423383,128.994144 102.903798,128.86865 104.294688,128.530801 C105.717726,128.340193 105.719647,126.821216 105.568775,125.706353 C103.615508,84.4764963 86.8680843,45.7084216 82.1787595,4.9608409 Z M108.50194,8.3661949 C108.831092,8.85486703 109.196105,9.32179198 109.590575,9.763132 C110.197904,8.82390927 111.675502,8.29174275 112.095971,9.69405269 C112.569591,11.1355076 113.246209,12.6159795 113.266317,14.1432718 C122.945942,45.7196789 123.192101,79.2966996 123.003575,112.050397 C123.293408,117.246185 121.682998,122.330677 121.831949,127.498577 C127.134367,128.261008 132.513502,128.32625 137.837436,127.76223 C137.994968,127.348905 138.172992,126.940826 138.374837,126.541573 C146.343898,116.820707 142.119228,104.635629 138.280575,94.1051284 C135.960118,94.2011998 133.62583,94.0567728 131.303068,94.0833812 C132.020286,96.3060718 132.205994,98.6573268 132.587785,100.955493 C132.847856,102.593008 133.17952,104.218156 133.56093,105.831779 L133.663414,106.261935 C133.807294,106.856648 133.997912,107.498773 133.789125,108.088699 C133.584078,108.670628 132.877106,108.90601 132.408224,108.453156 C131.563444,107.489116 131.654121,106.05265 131.381194,104.855915 L131.330811,104.479923 C130.865661,101.049183 130.253094,97.4845513 131.103272,94.0833812 C130.268353,93.9018561 127.9876,94.5627148 127.86785,93.4399202 C127.903199,91.586548 126.558927,87.5681791 128.055095,86.3466267 C128.945214,85.6672189 130.475706,85.8821323 131.519514,85.8400451 C132.726106,85.7913058 133.93116,85.7465322 135.136342,85.7542077 C125.45081,62.3346876 128.144522,55.1231543 129.127419,31.8147952 L129.156665,31.1035209 C129.153976,30.9512906 129.401288,30.9129132 129.428184,31.067702 C130.909111,40.614974 128.934968,50.2822393 129.870169,59.8584222 C131.531297,78.0572377 143.054301,93.6804185 144.98144,111.79071 C149.137206,111.309969 153.339847,111.899318 157.367538,112.944718 C157.452067,112.209152 157.517385,111.470899 157.563492,110.731494 C158.327714,97.2154881 153.588312,84.084919 148.056896,71.962524 C144.742196,65.5244605 142.693386,58.6583611 141.836055,51.4755203 C140.170572,42.1221821 136.434507,33.3098373 132.710352,24.622091 C130.356853,18.1233912 125.26691,16.5917494 118.955392,15.836994 C121.083993,19.3677142 123.199786,22.9061098 125.311865,26.4470639 C125.783435,27.5172815 124.339138,28.2835501 123.70837,28.9415945 C131.461368,33.1748768 126.934314,46.2361107 127.094664,53.5594128 C126.519096,60.2840275 126.30201,67.0526483 125.28753,73.7318497 C125.213247,74.1937856 124.503714,74.0593368 124.497054,73.624393 C124.590676,63.6151852 125.783435,53.6449943 126.306877,43.6528005 L126.370523,42.9242717 C126.77872,38.1930218 127.177265,31.3679923 121.492679,30.0686106 C120.725512,29.9445237 120.666597,28.8034359 121.282508,28.4607257 C122.102314,28.0039068 122.820685,27.4448761 123.46362,26.7822265 C120.220129,21.5689135 117.391217,16.0804346 113.978412,10.9825097 L113.835842,10.8008613 C111.557733,7.91489681 111.716206,8.95804849 108.50194,8.3661949 Z M92.8346975,103.92181 C92.2043142,102.073938 86.1221776,103.27886 84.4957578,103.478295 C78.504298,104.611579 72.474544,107.264736 67.9112446,111.350777 C67.6294804,111.602661 67.2966144,111.598823 67.0339333,111.461944 C64.9884533,114.074293 62.6300869,116.441922 60.041058,118.523384 C60.5149342,118.895645 61.0016178,119.258951 61.5023897,119.604347 C61.7420173,119.629932 61.9583354,119.754019 62.0558002,119.977887 C69.1777747,125.139903 74.4184609,121.112963 81.8163082,122.043998 C84.5790063,122.600215 87.1230809,124.358795 89.9695398,124.432223 C92.0585652,123.956983 90.2190292,123.08313 89.2433566,122.744897 C86.4449257,121.408085 83.5774626,120.222223 80.7187086,119.021139 C79.8312794,118.64875 80.136097,117.306821 81.1272667,117.540923 C82.8628061,117.950282 84.6033405,118.340452 86.3450275,118.721795 C89.6944355,119.407471 93.1240182,120.284011 96.5091589,120.61508 C95.7573608,118.523768 87.7720351,116.261293 85.4522192,115.431701 C84.5747798,115.014923 82.0747628,115.096923 82.3607535,113.735037 C82.5914159,112.471525 85.2531912,113.918865 86.1389554,114.022995 C89.7601377,114.940087 93.4556034,115.500269 97.1455618,116.058276 C93.1819079,112.081099 87.0393201,111.735831 81.9778103,109.874399 L81.8104435,109.835735 C80.9234661,109.625019 79.7380984,109.235493 80.4147253,108.245072 L80.4372005,108.212914 C83.0405737,104.374407 93.2684863,106.320397 92.8346975,103.92181 Z M85.3460581,82.5611574 C87.1908452,81.0412847 88.1815025,84.1598317 88.063802,85.6058918 C88.1510208,86.805825 88.2443872,88.0070374 88.3226408,89.2082498 C88.208014,90.1486238 89.2086612,93.5715035 87.8704092,93.6024613 C82.0220089,93.3078508 76.1835984,93.3783373 70.3332769,93.0292309 C70.3254644,94.2088241 70.2678308,95.3882893 70.3281539,96.5715922 C70.2963914,98.0484822 70.8095865,99.5272911 70.5098919,100.986144 C70.3268732,101.659027 69.4135729,101.748575 69.0572693,101.1756 C67.9882303,98.6603458 68.7237629,95.4156651 69.4801718,92.8707323 C65.0610844,91.7470422 67.1907095,88.1868994 67.1914779,85.0761559 C67.1850742,84.994412 67.267042,84.9521969 67.3337689,84.9675479 C68.4291913,86.4984221 67.0025679,88.5411228 67.6282125,90.206062 C68.2748613,92.0259563 71.0203041,91.8585944 72.5713675,91.888579 L72.6180004,91.8895503 C77.4484635,91.973213 82.2755967,92.1723917 87.1059317,92.2656487 C86.8996035,90.6384473 86.8433787,88.9715892 86.7191463,87.3443877 C86.5626391,86.1765637 86.7888189,84.7903722 86.1939122,83.7431811 C83.5079309,84.6152434 80.7116773,84.9644777 77.8882718,84.9088304 C74.5225984,84.9996569 70.9829996,85.3036059 67.6935305,84.9008991 C72.4110318,84.17288 77.6223889,84.2784178 82.4297986,83.3542902 C83.3852354,83.106756 84.3602676,82.6058031 85.3460581,82.5611574 Z M62.1262412,47.4331016 C59.2158731,52.9877175 55.8706916,58.2761223 52.3067586,63.423682 C51.5434338,64.5238339 50.759617,65.6086349 49.9631208,66.6857604 L49.8157307,66.8744406 C48.2242663,68.8969024 46.5713393,70.5746529 48.0751725,73.2585285 C52.0165415,82.8336881 57.2909113,91.8267905 63.4030173,100.172594 L63.2983234,95.3777834 C62.9518252,79.3949574 62.6238694,63.4111221 62.1262412,47.4331016 Z M135.243925,86.0356419 C127.938804,87.5697142 127.799074,84.6979339 129.019497,92.8194857 C131.950229,92.8394419 134.879168,92.7734328 137.810541,92.8207649 C136.972932,90.5527889 136.104715,88.2947911 135.243925,86.0356419 Z M113.309862,16.5802362 C111.661926,19.4137671 108.924586,21.2332393 105.628073,21.2597197 C99.8440945,21.591812 93.9830148,21.2109804 88.3468341,19.8397561 C87.5181912,19.631239 86.5283023,19.4521445 85.7648494,18.9994191 C90.1109467,42.5665326 97.1459756,65.5266258 102.09464,88.9588494 L102.257021,89.7315127 L102.391499,89.7046486 C105.760246,89.1068567 109.424846,89.3552864 112.888497,89.1429314 C115.667332,89.1026352 118.474344,89.4004438 121.23384,88.9868634 L121.1479,86.07436 C120.451779,62.7619575 119.480806,39.1703363 113.309862,16.5802362 Z M110.893094,9.8435966 C110.587251,9.83937508 110.118882,10.0215398 109.807149,9.99979259 C110.442399,10.6792004 111.145529,11.2919594 111.885672,11.8252772 C111.546915,11.1908989 111.282697,10.4298752 110.893094,9.8435966 Z" id="🖍-Ink" fill="#000000"></path>
                </g>
                <g id="Head" stroke-width="1" transform="translate(51.742154, 23.026436)">
                    <g id="head/Mohawk">
                        <path d="M50.3516428,31.0280296 C50.4174732,27.8180166 50.1193154,24.5283065 48.5575733,21.6592126 C47.201519,18.9663988 45.1895945,16.6321579 43.1242628,14.4593578 C42.2625767,13.5527559 41.111826,12.639246 41.2195368,11.2649515 C41.3326267,9.82285705 42.2011008,6.69893727 42.3350669,5.24379445 C42.5986445,2.38263189 40.5484257,1.59525571 38.1516369,0.235672605 C35.2609923,-1.40419339 31.8066912,-1.21448115 28.6734732,-0.478274827 C22.8305801,0.914312836 15.8875258,3.22552736 13.679519,9.4099163 C13.1487777,10.9351618 13.2812069,12.5404882 13.1755453,14.1226601 C13.0765436,15.6036437 12.4829176,17.0141409 11.9140101,18.3673277 C8.90630525,25.0557398 8.93345707,32.4405735 9.47956733,39.6195766 C7.87351135,39.9905581 6.32060635,41.2438358 5.96660804,42.9068561 C5.37336631,45.8186769 8.43076411,47.1647 10.2366165,48.7385568 C12.438988,50.6578103 14.0422264,53.1419789 16.0442891,55.2506887 C29.0354121,69.5580366 57.7015902,62.9731156 51.7421492,40.6880032 C50.933614,37.5212287 50.2311246,34.3177398 50.3516428,31.0280296 Z" id="🎨-Background" fill="#FFFFFF"></path>
                        <path d="M24.6541376,-0.169679246 C27.8805939,-1.42231735 31.3679383,-1.95192537 34.8175006,-1.50802686 C36.6735583,-1.26919155 38.473007,-0.770541294 40.1703802,0.0208005469 C40.9890332,0.402527682 41.7743869,0.855125068 42.5109442,1.37795308 L42.5781266,1.4259735 C43.1611523,1.84593688 43.7557728,2.36535129 43.687694,3.06246478 C43.7327763,3.2084268 43.7407169,3.3688443 43.7049841,3.52887803 C43.1299289,6.10655959 42.5265693,8.67605397 41.9311503,11.2487465 C41.8058933,11.7896119 41.6847347,12.3313727 41.5646007,12.8735174 C45.6167542,15.921194 49.4259501,20.0876997 50.8684548,25.0387671 C52.2804777,29.885576 51.6622614,34.9902809 52.1613683,39.9506869 C52.2797092,41.1259306 52.4795057,42.2917079 52.7932885,43.4315164 C53.130381,44.6552436 53.6935252,45.8119382 53.9782351,47.0493533 C54.5512411,49.5388947 53.7201647,51.982895 52.4049662,54.0937796 C49.9668093,58.0069944 46.2832546,61.3091132 42.0001825,63.0624484 C39.8085693,63.959456 37.3961554,64.4471047 35.0253657,64.4091111 C32.7002987,64.371885 30.0533802,63.894854 28.1069018,62.5547155 C26.791191,61.649009 27.9155583,59.8650998 29.3310392,60.4628917 L29.715649,60.6247286 C30.697139,61.0351539 31.6715786,61.4156203 32.7239925,61.6339139 C33.9003581,61.8777383 35.1091265,61.9298036 36.3067525,61.8548397 C38.629258,61.7095174 40.8313734,60.9373642 42.8359976,59.7778552 C44.6450519,58.7313037 46.2567432,57.3799078 47.6959179,55.8700132 L47.8561467,55.7010894 C49.2187633,54.2573182 50.5904869,52.6117605 51.3568034,50.7749026 C51.7512733,49.8296675 51.9649018,48.7904077 51.7940502,47.7708483 C51.5970714,46.5954766 51.0731181,45.4884168 50.7674039,44.3397814 C50.1867455,42.1578155 49.9908201,39.8826977 49.9242886,37.6315731 L49.9194217,37.458459 C49.7960858,32.8385885 50.1466261,28.1600005 48.5084234,23.7441697 C47.0249349,19.7449895 43.9667686,16.6856717 41.465599,13.3202302 C41.3427754,13.8770862 41.2204641,14.434198 41.0962317,14.9906702 C40.9479213,15.6556225 40.8126745,16.3247963 40.6510443,16.9864225 L40.6388772,17.0346501 L40.6388772,17.0346501 C40.6875455,17.1772861 40.6706397,17.3394946 40.5405159,17.4415784 C40.5261715,17.4528358 40.5116991,17.4625581 40.4972266,17.4730479 C40.3646694,17.7790436 40.1588534,18.0137854 39.7655362,18.1112639 C39.3888687,18.204521 39.0907109,18.0455107 38.9234455,17.7707285 L36.9573717,17.7807067 L36.9573717,17.7807067 C35.7090282,17.7871029 34.3391418,17.9303785 33.1114183,17.676576 C32.9226363,17.6374311 32.9464582,17.3695569 33.1114183,17.3180032 C34.2715184,16.9559765 35.62642,16.9646754 36.8308339,16.8524854 L38.7290282,16.6755657 L38.7290282,16.6755657 C38.8128744,16.6678049 38.8973467,16.6577699 38.9820657,16.6472422 L39.1092818,16.6313037 L39.7691223,13.6986313 L39.7691223,13.6986313 C40.0309069,12.5350287 40.3049866,11.3733451 40.54423,10.2050093 C40.9754573,8.0984742 41.4483089,6.00153345 41.9209043,3.90408101 C40.4370316,3.5406471 38.9222928,3.37792695 37.386934,3.44265682 L37.209965,3.45047868 C36.6151531,3.47881721 35.9773096,3.53828631 35.4800307,3.88310137 C34.8630952,4.31062552 34.8185252,5.19253801 34.6818696,5.87258541 C34.306867,7.73759878 34.0384226,9.62039368 33.8031494,11.5079218 C33.6894192,12.4206641 33.6034811,13.335837 33.5026863,14.2497307 C33.4568356,14.6644624 33.4287873,15.086102 33.3669272,15.4982752 C33.3080129,15.8906201 33.1671308,16.2724751 33.0875964,16.6602147 C33.2246363,17.2519941 32.4036779,17.8142229 31.9454268,17.2884526 C31.3789527,16.6384675 30.8826634,15.9599552 30.2497186,15.3656173 C29.6147245,14.7692326 28.9209442,14.2471722 28.1731164,13.7998197 C26.6533827,12.8905313 25.0743505,12.3312448 23.3771053,11.8585632 C23.3207525,11.8429564 23.2888619,11.808033 23.2733649,11.7676088 C21.5798339,12.2475821 19.9233165,12.897951 18.3862928,13.7339385 C14.8230002,15.6721248 12.0179094,19.0185055 10.955018,22.9486064 C10.2951774,25.3890248 10.1495566,27.9668343 10.1405913,30.484775 C10.136493,31.6536225 10.1613394,32.835902 10.3464073,33.9924687 C10.5529917,35.2828446 11.0217449,36.436469 11.399437,37.6745237 C11.4980545,37.9977893 11.4738483,38.2863873 11.3688271,38.5273973 L11.465071,38.5418839 C12.2364341,38.6623119 13.7475254,39.0021896 13.8852377,39.8422068 C13.9237881,40.0777161 13.7918712,40.2619276 13.549426,40.2823955 C13.1184548,40.318854 12.8474489,40.0062062 12.5033123,39.7927 C12.4414522,39.7544505 12.3777992,39.7192712 12.3144022,39.6837082 C12.2980087,39.6949655 12.2759798,39.6977799 12.2533106,39.6848595 C10.2183327,38.5272694 7.73125123,40.2977465 7.2783793,42.3518325 C6.85547684,44.2698066 7.57512824,46.4908343 9.4308017,47.3292524 C10.3638254,47.750892 11.3560197,48.0155681 12.2147601,48.5922524 C12.9374853,49.0775985 13.5760655,49.670913 14.1330621,50.3379121 C15.2799705,51.7107993 16.1451147,53.2762132 17.1611308,54.741462 C17.6070867,55.3845392 18.1022232,55.9921813 18.6907262,56.5118112 C19.3353259,57.08082 20.2322326,57.3053277 20.5052877,58.196067 C20.6117177,58.5433824 20.4347186,58.9605447 20.1217042,59.1373366 C18.9762046,59.7846352 17.6785523,58.6587705 16.8771893,57.8954441 C16.0545659,57.1119057 15.3834548,56.1630886 14.7675439,55.2136319 C13.7360307,53.6235286 12.8551333,51.8094292 11.3419315,50.6041232 C10.4336261,49.8807094 9.30208668,49.6070786 8.27979491,49.09538 C7.10675929,48.5084617 6.27363376,47.5465964 5.77580763,46.3439768 C4.85943359,44.129985 5.10072621,41.3073277 6.83690602,39.5456775 C7.40069059,38.9733426 8.1141944,38.6073502 8.86125377,38.460109 C8.08986022,37.112167 7.80335725,35.412944 7.60983647,33.9045845 C7.41529109,32.3891892 7.39492723,30.8639437 7.47497388,29.3398495 L7.4910987,29.0436855 C7.64433759,26.3260415 7.95315515,23.5349703 8.93797048,20.9833001 C9.76699763,18.8355733 11.0250748,16.8652779 12.696705,15.2732557 C12.8692215,15.1090005 13.0463488,14.9480713 13.2262936,14.7898285 C13.1780095,14.7528583 13.1316465,14.7132016 13.0902784,14.6683001 C12.6219094,14.15916 12.7221919,13.4718209 12.7845642,12.8389777 C12.8538526,12.1355201 12.966046,11.4341093 13.1345922,10.7474098 C14.3103174,5.95612021 17.9261206,2.04699897 22.5789442,0.43003148 C23.2508237,0.196441082 23.946141,-0.00452853236 24.6541376,-0.169679246 Z M8.97817311,42.2290504 C9.73125199,41.7538103 10.8805938,41.935975 11.6656913,42.2474715 C12.5892376,42.6137198 13.5728508,43.2970932 13.9365828,44.2519228 C14.2734191,45.135882 13.0164946,45.4491695 12.5477414,44.8366663 C12.2580366,44.4581373 12.0436396,44.0935521 11.7687914,43.7636344 C11.7337502,43.7977135 11.7004303,43.8334301 11.6708645,43.8722905 L11.6494259,43.9020489 C11.5328779,44.073212 11.3204021,44.2511552 11.0931977,44.2205812 L11.03185,44.212522 L11.03185,44.212522 C10.8025094,44.1818063 10.5500655,44.0707993 10.4867362,43.8215761 L10.4804886,43.7933129 L10.4720357,43.7482834 C10.4196532,43.4714545 10.5023894,43.1664822 10.7681443,43.0216715 C10.7859466,43.0119492 10.8041332,43.0036341 10.8220637,42.9944235 C10.2367626,42.6881719 9.63314682,42.5923564 8.99674394,42.3715584 C8.93347506,42.3495554 8.91925878,42.2662765 8.97817311,42.2290504 Z M29.9153157,1.00415728 C25.9909807,0.905783227 21.6856236,2.11108921 18.784733,4.82641768 C17.4113886,6.11218827 16.4810545,7.6078832 15.6467763,9.27499714 C15.2528187,10.0621175 14.9992309,10.9341798 14.8114735,11.7916586 C14.7087576,12.2607583 14.6317847,12.7339516 14.5908008,13.2126456 C14.5828602,13.3048792 14.5843971,13.4022299 14.5700528,13.4935681 C14.5578857,13.5713463 14.5431571,13.5915584 14.5295812,13.5864414 C14.5362411,13.6081886 14.5686439,13.6525784 14.5998941,13.6949215 C17.5381825,11.5840369 21.17499,10.3554487 24.771582,11.1558732 C24.8860807,11.1813302 24.8860807,11.3617039 24.771582,11.3871609 C24.5876668,11.4280968 24.404264,11.4738938 24.220733,11.5187954 C25.7945142,11.553463 27.4117126,12.0459728 28.7709688,12.7783414 C30.1292003,13.5101983 31.5577449,14.5448528 32.5423827,15.8033754 C32.5142063,15.6196757 32.4919213,15.4352083 32.4876948,15.2485663 C32.4768085,14.7500439 32.4883352,14.2489631 32.506906,13.7508246 C32.5471215,12.6705009 32.6207644,11.5903053 32.7096482,10.5130518 L32.748809,10.0435343 C32.9081586,8.16067132 33.1041082,6.22439786 33.4851401,4.38251917 C33.7073496,3.30833595 34.3021282,2.6540014 35.1015701,2.27035539 C33.6174412,1.31322321 31.6033394,1.04662826 29.9153157,1.00415728 Z M37.1926448,0.377454452 C35.4241902,-0.151897721 33.5832453,-0.385104345 31.7408916,-0.353251109 C32.4105939,-0.184262656 33.0589077,0.0613526588 33.6690553,0.400480887 C34.4541528,0.836959769 35.006923,1.41517916 35.5019315,2.10418128 C35.9677389,1.94222868 36.4858008,1.85280936 37.0308865,1.81417612 C38.2896041,1.72501264 39.5621537,1.79204515 40.8125464,1.9900725 C40.5791944,1.84654105 40.3423844,1.70876621 40.1017321,1.5778993 C39.1765209,1.07528338 38.2009764,0.679228684 37.1926448,0.377454452 Z" id="🖍-Ink" fill="#000000"></path>
                    </g>
                    <g id="face/Smile-LOL" transform="translate(20.363868, 23.793984)" fill="#000000">
                        <path d="M21.5632355,25.0115064 C23.1500802,25.0038309 25.5271455,24.957778 27.1127096,25.051163 C27.569936,25.0780272 27.7953474,25.7304429 27.8273661,26.0400205 C28.130903,28.9170457 25.8306824,31.2120138 23.2909623,32.1010901 C20.934389,32.926204 17.8221752,33.0822721 15.7204704,31.5407802 C14.8072982,30.8717343 14.1156952,29.9442806 13.6648724,28.9119287 C13.4215306,28.3554565 13.2435069,27.7785164 13.1448894,27.1798291 C13.0693254,26.7231381 12.9258818,26.1078206 13.0936595,25.6588051 C13.3241939,25.046046 13.9658478,25.0895404 14.515288,25.0793064 C15.2734899,25.0639555 16.0316918,25.0446389 16.7886129,25.0358121 C18.3805807,25.0177747 19.9725484,25.0177747 21.5632355,25.0115064 Z M25.9651608,25.8492849 C25.2517851,25.9261676 17.3751947,25.9823265 16.1584857,26.0091907 C15.9753389,26.0131563 15.783227,26.0091907 15.5885535,26.0040737 C15.4536909,26.4208522 15.8037189,27.2789707 16.1802584,27.4280029 C16.5567978,27.5769072 19.7407333,27.723125 21.620869,27.6374155 C22.9028962,27.5798494 26.2284823,26.8036027 26.2284823,26.4706149 C26.2284823,26.1374991 26.0868317,25.8366203 25.9651608,25.8492849 Z M10.0338796,18.4692355 C10.2788863,18.3397757 10.5080119,18.507357 10.5397744,18.7591127 C10.6036836,19.264543 10.3365199,19.7928717 10.3230721,20.3133971 C10.3085997,20.8699972 10.369179,21.4260857 10.3504801,21.9826858 C10.317821,22.9547851 10.0270916,23.9307222 9.46484394,24.7312747 C8.79373282,25.6867438 7.02361323,26.7302251 6.17883291,25.3471039 C5.57137489,24.3526177 6.04883715,22.9022081 6.49095081,21.9426454 C6.83764885,21.1904485 7.34187871,20.4949222 7.90668787,19.890862 C8.28258694,19.4886669 9.07267939,18.5827046 9.68000933,18.673787 C9.70331891,18.6772409 9.71382103,18.7052564 9.70933842,18.7254685 C9.70524003,18.74325 9.69845208,18.7589848 9.69294487,18.7758708 C9.78080407,18.6508885 9.89133249,18.5444552 10.0338796,18.4692355 Z M9.57140204,18.9915518 C9.46369126,19.1198602 9.31730195,19.2224558 9.1933257,19.3479498 C8.92962002,19.6148006 8.6675793,19.8826748 8.43115352,20.174471 C8.00018236,20.7062537 7.64439101,21.3004637 7.36224258,21.9232008 C7.0257905,22.6654196 6.47173961,23.937886 6.86684987,24.7631279 C7.07868533,25.2053634 7.62377099,25.1260501 7.99134521,24.9107529 C8.67808142,24.5086858 9.08318151,23.6506952 9.27554962,22.9128259 C9.49007464,22.0897587 9.36468957,21.2545387 9.36865988,20.4167602 C9.370581,19.9888523 9.37839355,19.4241929 9.57140204,18.9915518 Z M29.5850752,17.1652996 C29.5968581,16.8489419 29.9146113,16.680849 30.190356,16.8183679 C30.6628233,17.0541331 30.8621075,17.5330829 31.1229955,17.9722482 L31.1229955,17.9722482 L32.0306605,19.5001802 C32.5644756,20.3988508 33.2932203,21.3579018 33.562177,22.3798918 C33.9597207,23.890426 32.6474679,24.9990209 31.1929243,24.674604 C29.6751117,24.3361154 29.1115833,22.573058 29.143602,21.1959492 C29.1603797,20.4750939 29.3287979,19.7429811 29.4709607,19.0390118 C29.5545935,18.6247918 29.5834103,18.1748809 29.6907368,17.7595095 C29.6195273,17.5630173 29.5776469,17.3642224 29.5850752,17.1652996 Z M22.2624276,17.7680704 L22.3661463,17.777737 C27.283818,18.6216561 24.7357897,27.0826779 18.4570925,22.4396228 C17.7095768,21.8373132 18.6148099,20.5106567 19.4204957,21.026479 C20.2893967,21.6920515 22.0526508,23.1637069 23.2773248,21.8801764 C24.3177449,20.4244857 22.8441205,19.0552967 21.8769804,18.4681167 C21.6235959,18.2864662 21.824693,17.6847408 22.3661463,17.777737 Z M30.3220167,18.8720702 C30.2613093,19.2765679 30.1705044,19.6657146 30.1283679,19.9530334 C29.962255,21.0840152 29.8445545,22.5528459 30.7805239,23.4084059 C31.1766588,23.7705606 31.8649319,23.9047535 32.3252321,23.5630668 C32.9985205,23.0633932 32.2916766,22.1024232 31.9775095,21.5891896 C31.513367,20.8311081 31.0562686,20.0693169 30.602244,19.305223 C30.5200201,19.1668085 30.4228115,19.021742 30.3220167,18.8720702 Z M12.3108417,12.9968111 C13.9188188,12.7371241 15.6584567,13.794933 16.2198078,15.3196668 C16.3614584,15.7043362 16.1261852,16.1807276 15.7889647,16.3774757 C15.399874,16.604414 14.9840156,16.4943988 14.6525584,16.2310019 C14.2071148,15.8771624 13.9952794,15.3087932 13.5060343,14.9871906 C13.092097,14.714967 12.5372777,14.7006394 12.0613523,14.7793131 C10.9422361,14.9642921 10.0626195,15.6856592 9.04045581,16.107043 C8.89714029,16.1661442 8.8132514,15.9825723 8.86140746,15.874476 C9.48052027,14.4847026 10.7731776,13.2451129 12.3108417,12.9968111 Z M27.8998691,12.9339362 C29.1850981,12.823793 30.7164866,13.3798815 31.1229955,14.7008313 C31.1327292,14.7325566 31.0993017,14.7699106 31.0661304,14.7576299 C30.2884612,14.4696715 29.4284399,14.2946706 28.5971075,14.4411443 C28.0617555,14.5355527 27.0050116,14.9140817 26.96454,15.5274804 C26.9019115,16.4733552 25.8032873,16.7060501 25.2680634,15.9863461 C24.747568,15.2863424 25.195445,14.3289544 25.7705002,13.8230124 C26.3734756,13.2926369 27.1045256,13.00212 27.8998691,12.9339362 Z M15.5742476,7.57333075 C15.8533222,7.89007217 15.9493782,8.47878137 15.5742476,8.78196278 C14.914407,9.31540854 14.1848939,9.10868232 13.3941611,9.15383971 C12.7425173,9.19119371 12.1162323,9.29890626 11.4885385,9.47812868 C10.11148,9.87124111 8.98941807,10.5888984 7.81330865,11.3769142 C7.65897871,11.4802773 7.5014469,11.2831454 7.57508982,11.1389743 C8.25401349,9.81073276 9.56972426,8.71966348 10.8876123,8.05458326 C11.5909982,7.69959237 12.3607268,7.40510985 13.1389083,7.27002142 L13.3793519,7.22798602 C14.1231837,7.09949276 15.0480529,6.97602501 15.5742476,7.57333075 Z M26.0238544,6.67502952 L26.2078886,6.71264971 C28.210622,7.1307853 30.8126416,7.96604548 31.7610325,9.93089825 C31.7971705,10.2087354 31.7589872,10.2682814 31.7279374,10.3071854 L31.7175994,10.3201314 C31.6920143,10.3533531 31.6715993,10.3991491 31.5510314,10.4369632 C31.5175739,10.4290009 31.4837833,10.4205678 31.4496347,10.4116292 C31.0149089,10.2978369 30.6709568,10.1410721 30.3379746,9.97840982 L29.9769374,9.80074815 C29.5580622,9.59560584 29.1354886,9.39792973 28.6876577,9.25199776 C27.7319479,8.94063623 26.7489183,8.72130146 25.7506585,8.60418168 C25.5342934,8.5788185 25.3259473,8.50588085 25.1615773,8.38087759 C25.0055571,8.26222443 24.8863678,8.09794635 24.8320241,7.87958499 C24.7615947,7.59699052 24.7818346,7.38304331 24.9336365,7.12810171 C25.0477821,6.93664603 25.2111063,6.80394222 25.3986438,6.72773918 C25.5898301,6.65005349 25.8074939,6.63173911 26.0238544,6.67502952 Z" id="🖍-Ink"></path>
                    </g>
                    <g id="facial-hair/*-None" transform="translate(15.753181, 43.238529)"></g>
                    <g id="accessories/*-None" transform="translate(6.019508, 30.829839)"></g>
                </g>
            </g>
        </g>
    </g>
</svg>