<?xml version="1.0" encoding="UTF-8"?>
<svg width="107px" height="361px" viewBox="0 0 107 361" version="1.1" xmlns="http://www.w3.org/2000/svg" xmlns:xlink="http://www.w3.org/1999/xlink">
    <!-- Generator: Sketch 62 (91390) - https://sketch.com -->
    <title>mix-4</title>
    <desc>Created with Sketch.</desc>
    <g id="Mix-N-Match" stroke="none" stroke-width="1" fill="none" fill-rule="evenodd">
        <g id="Artboard" transform="translate(-507.000000, -155.000000)">
            <g id="a-person/standing" transform="translate(483.000000, 126.000000)">
                <g id="pose/standing/polka_dots" transform="translate(-15.445717, 80.911577)">
                    <path d="M142.190923,97.6836649 C140.861233,85.6380091 138.849586,73.282176 133.769502,62.1252189 C132.023932,47.6971509 134.964847,27.0334825 121.599793,17.3041344 C121.770706,15.576725 118.675262,14.0881075 117.240324,13.1660418 C114.909402,11.6388351 111.756681,8.63825435 108.997558,10.3192016 C108.127166,10.0535437 105.980717,11.1410594 104.992578,8.78244816 C103.980406,6.36646995 104.127453,1.52213595 103.320385,1.07990223 C103.676498,-2.41117976 87.9852883,-4.74703205 83.8899472,0.187617753 C81.945284,3.97258222 84.1789532,5.17732407 79.794188,10.1528021 C77.8579132,10.2717906 76.0108961,10.7627279 74.2250879,11.4358623 C72.7505674,11.6398424 71.2839111,11.8878923 69.8238081,12.1460153 C51.2013352,13.8697732 49.7933975,27.652156 48.142852,42.4526766 C46.7296716,62.3340649 40.5910789,82.1411643 43.2449537,102.179315 C41.7781662,109.344432 41.6816998,116.990035 43.433168,124.087032 C37.6904022,132.475526 41.8531374,137.117207 45.4349771,145.093207 C46.0411688,146.527993 46.5687195,148.005842 46.8370167,149.5367 C46.7662397,150.722807 46.7741038,151.910172 46.9825027,153.087465 C47.5903983,155.769929 52.0614066,155.394833 52.2606307,152.684415 C52.6103214,150.9045 52.5019278,149.05785 52.7731085,147.268995 C52.7573803,147.362171 52.7298559,147.540968 52.7298559,147.554819 C53.3855915,143.053406 54.4425278,141.308368 57.3620784,137.873444 C61.1106371,132.453491 58.8055356,125.642821 59.6610197,119.576805 C59.8955012,117.549847 60.2056092,115.549834 60.4130907,113.519099 C61.6771152,114.262619 63.0511061,114.882996 64.4866993,115.270558 C63.5821956,122.250833 65.1555418,129.264098 66.9047818,136.016092 C71.6392377,153.409678 77.9161076,171.270139 75.189752,189.522834 C75.1910627,189.51402 72.2170181,204.44072 69.8681397,211.808557 C67.0280166,221.152358 64.7413653,230.512275 60.7233298,239.471661 C58.5713163,245.920455 54.0183902,252.038222 54.1952016,258.980849 C52.6232972,261.305467 55.4535901,264.098735 57.9476924,264.091684 C57.9476924,266.190153 57.3937096,269.216277 56.285744,273.170059 C56.0246555,275.368889 54.9000879,278.168705 56.6003083,280.03613 C54.2889156,285.922719 53.4768152,292.292691 52.8424437,298.522773 C52.6000981,301.477966 52.3222329,305.040064 55.4862262,306.715975 C58.4340876,307.991102 61.8658538,307.430283 65.0135946,307.810416 C68.0589709,307.814697 71.2103816,308.613116 74.2054276,307.923738 C77.6454512,306.94413 78.3380171,303.218471 77.6902766,300.238976 C77.2724303,297.136464 76.7717486,294.044024 76.2238824,290.960399 C74.598371,284.246305 74.1434323,276.795994 72.0611472,270.337001 C73.2276567,270.118667 74.3983605,269.530776 75.189752,268.673682 C77.2004737,268.607577 78.6829893,267.111219 79.1755447,265.342007 C79.5311335,264.201607 81.0620135,263.967281 82.0931293,263.604398 C82.285931,264.589043 82.8493944,265.417051 83.3081341,266.312801 C82.9163704,268.214349 84.2240407,270.437732 86.3830009,270.481802 C86.6949439,270.781477 86.9846052,271.087447 87.3031017,271.373271 C84.8480578,274.985985 83.0275165,279.06521 82.5662865,283.367805 C82.0106872,286.668002 81.4292674,291.95625 85.7984354,292.933466 C87.4479323,293.151045 89.2229929,293.573107 90.8393295,292.972499 C92.6413901,293.780991 94.5573493,294.168679 96.4975561,294.514815 C104.813196,295.917997 112.833328,295.800142 121.218304,296.742354 C123.430478,297.050213 132.294195,297.959687 133.769502,296.742354 C135.569072,297.1104 134.480843,295.768664 135.238025,294.514815 C135.841071,293.573107 137.451216,291.770024 136.411843,291.247482 C134.230994,290.306529 132.297865,288.455473 130.302609,287.404723 C120.977873,282.09847 100.865413,273.061899 101.005001,272.807427 C100.977477,272.987484 101.126944,268.444758 101.872461,267.239387 C102.92114,266.200096 105.011152,266.382683 106.105836,265.388595 C106.800499,265.42108 112.012526,263.921952 111.566369,261.410982 C110.994648,259.406689 112.862243,256.950209 111.566369,255.258181 C115.857027,216.072467 125.8413,178.067601 131.351288,139.090903 C131.473182,138.983876 131.593765,138.875591 131.715659,138.768564 C134.556962,139.243636 136.764155,136.390811 137.626848,134.143881 C138.042335,133.721945 138.442094,133.287543 138.809085,132.816626 C141.124279,129.806408 141.165828,125.885709 141.429144,122.304095 C142.001914,121.883543 142.370216,121.230051 142.401673,120.456941 C142.49329,118.154862 142.590936,115.852657 142.687402,113.551836 C142.688713,113.551836 142.688713,113.551836 142.688713,113.550577 C143.401725,112.406022 143.498716,111.117926 143.29556,109.805905 C143.3704,105.562615 144.024309,101.587618 142.190923,97.6836649 Z" id="🎨-Background" fill="#FFFFFF"></path>
                    <path d="M83.7961459,-0.230820815 C83.8390674,-0.606541989 84.3404628,-0.600854988 84.3882823,-0.230820815 C84.9154564,4.24055182 83.1494876,9.37389132 78.8061661,11.4576083 C82.0629161,14.3337141 84.3550278,18.1787584 88.2630763,20.3500552 C96.4627601,25.6909071 108.312319,20.6935501 110.135774,11.2744869 C108.112018,10.8104277 104.341113,10.8497312 103.726678,8.4857082 C103.429707,8.18139048 103.276711,5.57345838 103.295014,3.65011478 C103.276453,3.29246563 103.264981,2.93456372 103.252865,2.57931575 C103.221802,2.29142714 103.213037,1.99797791 103.216131,1.70288577 C103.222447,1.0625295 104.181285,1.0750409 104.221499,1.70288577 C104.238127,1.96031733 104.249212,2.22090834 104.259652,2.48276312 C104.266612,2.55189177 104.27615,2.62076767 104.284657,2.68976994 C104.416515,3.16874177 104.507772,3.6693242 104.615527,4.12390512 C104.6734,4.36857252 104.733464,4.61602024 104.797782,4.86308882 C104.890199,5.510775 105.055698,6.1435486 105.339005,6.74270571 C106.092259,8.33582414 107.949742,9.70373736 109.780802,9.71852356 C110.173024,9.721683 110.563056,9.66405473 110.955665,9.6739122 C111.594976,9.69021493 112.117253,9.94347603 112.687735,10.2014131 C113.202793,10.434201 113.68653,10.5916677 114.183414,10.5909095 C134.681335,17.5413088 131.859084,42.9843177 134.981012,60.1862307 C138.163133,77.2696014 144.736439,93.7396607 145.704042,111.198247 C145.994052,113.008609 143.994142,113.680307 142.753672,114.536896 C142.422931,119.091804 144.339963,123.702066 143.010427,128.209582 C141.780655,131.895138 136.822254,140.756243 132.08439,139.360527 C126.711854,180.18346 114.225304,218.016754 113.043996,259.336604 C114.240127,262.791521 110.805762,265.299867 107.638077,265.805252 L107.206234,266.054099 C105.762082,266.882764 104.269858,267.693807 102.689859,268.206556 C102.650289,268.229431 102.610847,268.252684 102.570633,268.274674 C102.493683,268.316631 102.411191,268.34178 102.326895,268.354671 C102.415316,269.412074 102.749537,270.405403 103.180556,271.371182 C109.752961,272.887084 115.525452,276.867353 121.705763,279.469977 C125.692382,281.922211 137.862179,285.464687 138.786281,289.772204 L138.810822,289.902969 C139.182293,291.833011 138.144314,294.213968 135.946424,294.396458 C137.093704,295.245843 136.342255,296.961042 135.092505,297.291899 C133.59051,297.691632 131.960523,297.521275 130.414576,297.645378 C115.831188,298.103245 101.119293,296.814823 86.9045396,293.545556 C85.7107288,293.2698 84.4674229,292.909623 83.4612808,292.196852 C77.2924417,287.314752 83.7133963,276.982104 85.2296985,270.648681 C84.6790658,270.561606 84.13462,270.441042 83.5997123,270.282311 L83.4801372,270.246494 C82.9603267,270.089161 82.4229246,269.900461 82.0192212,269.53327 C82.0027229,269.518231 81.9888024,269.501297 81.9730774,269.485626 C79.3743283,269.44885 82.0211546,263.725958 82.2548384,262.195144 C81.1986857,264.444037 80.3363887,266.844835 79.0714287,268.986054 C78.2004959,270.306702 76.2905532,269.39059 75.0078059,269.297828 C75.4344431,277.125922 77.3027532,284.758003 79.2217185,292.342313 C80.7800399,298.640098 83.4552228,306.208232 74.6271836,308.122602 C68.5466365,309.715594 54.0572117,309.106959 51.4654228,302.44963 C50.7010848,297.029286 52.3750236,291.536023 53.2029061,286.194034 L53.3481309,285.434239 C54.3363902,280.24102 55.2500453,275.023745 56.6832862,269.927569 C56.8804931,269.097772 57.1233283,268.284405 57.3845953,267.476851 C57.4186232,267.005714 57.4433707,266.53382 57.4128229,266.060788 C57.372866,265.441157 57.2557019,264.834291 57.1314486,264.226667 C57.1154658,264.149324 57.1011587,264.059722 57.0864648,263.963801 C54.5261259,262.782674 52.624948,261.446734 52.3796638,260.005017 C52.1286042,258.637257 52.6360766,257.250532 53.0123385,255.944994 L53.0343135,255.868292 C61.2798833,226.912992 76.964408,200.820195 74.2914163,169.933842 C73.3082173,154.742473 66.1139021,140.77065 64.8999839,125.618964 C64.2017683,122.596639 63.5712216,119.542973 63.4697825,116.427002 C63.0383763,116.32552 62.6038765,116.233138 62.1747903,116.121799 C61.9230615,117.469113 61.6046947,118.805053 61.0828053,120.062512 C60.8816027,122.548742 61.0102383,125.062143 61.4429335,127.520823 C61.5425681,128.087249 61.2667362,128.580248 60.7997553,128.761348 C61.9217726,132.257969 62.1430826,136.643152 59.2495542,139.35168 L59.0097851,139.510499 C56.4960491,141.183877 56.2334082,141.657449 55.6486587,144.775436 L53.7240585,152.655229 C53.4826932,153.630506 53.1936048,154.624004 52.4982457,155.38978 C50.6528787,157.421556 47.7156554,156.095474 46.7640353,153.929864 C45.8954225,151.711049 45.9019961,149.268672 45.2678405,146.983762 C44.7857791,144.62353 43.4490254,142.607678 42.12413,140.628728 C39.162417,136.085825 38.9260264,129.760238 42.2284047,125.310855 C42.5168682,124.574578 42.7809708,123.849928 43.0873505,123.125909 C41.9445814,121.78542 42.6800473,119.673774 42.5488338,118.033264 C42.5466426,116.678873 42.5217662,115.324608 42.4805203,113.970849 C42.2394896,105.975053 41.4159895,98.0290493 41.3860863,90.0324946 C41.0657861,79.2549965 43.9019569,68.8151799 45.5462503,58.2446887 C46.9600822,47.8062623 46.8848084,37.1638621 49.1979297,26.8470111 C53.5027122,6.59673936 77.6588857,14.3170322 81.7455805,6.337033 C82.9805084,4.34026389 83.5333322,2.06786483 83.7961459,-0.230820815 Z M54.2893487,299.967317 C53.9239359,302.660175 55.815189,303.306724 57.9838208,304.125273 C63.5132196,306.153384 69.8975685,306.634504 75.5178371,304.700797 C76.5137966,304.279454 77.2263194,303.649081 77.5802608,302.72526 C69.7802755,303.437525 61.5897431,302.919376 54.2893487,299.967317 Z M84.0264785,287.976213 C84.5158868,290.394958 87.6320141,290.67956 89.7185408,291.086118 C94.7014315,292.128987 99.732915,292.966493 104.792497,293.558573 C114.597291,294.741216 124.515897,294.944558 134.368639,294.495791 C134.634854,294.380835 134.805614,294.159903 135.141487,294.160268 L135.182601,294.161395 C135.201548,294.161395 135.219465,294.163164 135.238025,294.163796 C135.074202,294.055743 134.933966,293.913821 134.829949,293.746244 C117.894513,291.884573 100.85635,290.61713 84.0264785,287.976213 Z M100.583096,267.239387 C96.5156064,267.945586 92.3638204,268.318148 88.2568894,267.676149 C87.9798974,271.074953 86.6641534,274.376194 85.6291392,277.6284 C91.3035432,279.128125 95.0591107,272.833121 100.134805,271.634301 C99.8472435,270.130532 99.9491982,268.55043 100.583096,267.239387 Z M58.6589645,264.640301 C58.6726272,264.664187 58.6798453,264.692622 58.6771385,264.726491 C58.6574178,268.686918 58.2559148,272.632938 57.6724143,276.552419 C61.277821,272.666302 67.3120954,271.682451 72.2817101,273.298317 L72.259931,273.045486 C72.1322319,271.61065 71.9412739,270.141302 72.1752441,268.719524 L71.9474902,268.655924 C69.3841553,267.948391 63.3570897,266.529726 58.6589645,264.640301 Z M132.923228,115.286821 C110.721852,121.247177 87.0889861,121.621003 64.6557309,116.692774 C65.7745258,120.280766 66.6146531,123.934095 67.2082073,127.636965 C68.4802564,137.1613 71.9843529,146.162053 74.3447781,155.441469 C77.0681131,166.393324 77.7170087,175.615257 76.3616265,186.802169 L76.3199409,187.141143 C73.3356716,212.22764 61.1147709,235.129065 55.3732135,259.483961 C62.1299354,263.586184 70.4768155,265.189034 78.2243412,266.885276 C83.0935479,256.841022 87.2079547,246.540095 89.9041473,235.724431 C99.6171687,201.776323 112.41577,169.811382 109.572896,133.968871 C108.939128,133.552835 109.145357,132.675394 109.493627,132.114783 C109.373241,129.529093 109.20671,126.945804 108.934101,124.374143 C108.924949,124.287195 109.07047,124.270007 109.088386,124.35367 C109.539126,126.556308 110.012423,128.75326 110.408384,130.96664 C113.13796,128.188225 114.903155,124.715742 117.303537,121.701253 C117.645234,123.952167 112.965887,132.670845 110.906943,134.020054 C115.294089,160.97214 107.988281,185.64483 100.097426,211.277911 C94.7875323,229.683067 89.6284443,248.14206 84.1500873,266.496538 C84.2164674,266.49717 84.2829764,266.498434 84.3494854,266.500582 C84.0200338,265.893843 90.9923944,266.312532 91.564939,266.008088 C96.6996662,265.521786 101.725221,264.305147 106.719583,263.084843 L107.332352,262.926379 C108.576716,262.599452 110.021378,262.12898 110.245205,260.798416 L110.248493,260.630631 C110.249924,260.581072 110.252165,260.541461 110.256289,260.537952 L110.220419,260.38813 C110.212644,260.353742 110.20742,260.326738 110.20847,260.31856 L110.158837,260.244719 C110.10165,260.16214 110.047985,260.08894 110.124174,260.172846 C109.560007,259.556249 109.508836,258.603108 110.160006,258.013808 C111.380369,213.182045 125.815014,172.150509 131.160998,127.820339 C131.690878,123.634706 132.337666,119.464997 132.923228,115.286821 Z M44.4875197,123.966701 C41.9204784,127.155844 41.479534,131.606744 42.4916051,135.493619 C43.0230327,137.42265 44.0974882,139.046857 45.2053272,140.701142 C47.1478799,143.458832 48.0538717,146.663141 48.5480491,149.946815 L48.5619698,150.009079 C48.7873946,151.064657 48.9272613,153.976887 50.4181637,153.649179 C50.8097051,153.397249 50.9972881,152.290714 51.1350305,151.712136 L52.8560539,144.664982 C53.3542269,142.624612 53.6530019,140.199928 55.4181973,138.78753 L55.6267835,138.654409 C57.0686874,137.726955 58.4752396,136.651089 58.7014994,134.843785 C59.1982546,132.628382 58.2746044,130.483624 57.9295567,128.33002 C53.3261282,127.276788 48.8317435,125.79008 44.4875197,123.966701 Z M142.190923,114.861307 L142.03693,114.937339 C140.266234,115.819714 134.983215,118.675467 133.6208,117.578809 C133.653023,124.106475 133.130231,130.60204 132.364347,137.077006 C132.560136,137.033912 132.762112,137.038967 132.943078,137.105315 C136.784231,136.041972 140.957542,128.779799 141.279647,125.047863 C141.54246,121.650954 140.867832,118.107574 142.190923,114.861307 Z M79.0404943,14.8138233 L78.8448394,14.5549201 C76.7654035,11.8187058 75.5985463,10.8415507 72.0026558,12.3014329 C72.486033,12.8996158 72.713602,13.701238 72.5074867,14.5313016 L72.4937397,14.5843213 C71.3592199,19.2515795 65.539682,21.9558115 61.2800122,19.4163761 C59.7918088,19.8037241 58.2400609,18.7339361 58.1801255,17.2177817 C53.9650529,19.6988305 52.0174733,24.2443869 51.2270988,28.8097846 C53.9940539,27.3534069 57.7148202,28.7434363 58.8190502,31.6397625 C61.2395397,36.9329699 54.1857184,42.439503 49.8841583,37.9821583 C48.95213,46.9104965 48.5146657,55.9072051 46.8168816,64.7425292 C48.0751392,62.6733457 51.0751335,62.186412 52.8640453,63.8891 C58.7216067,68.9449699 51.9844766,80.4310682 44.9035877,74.9553713 C44.0454153,79.8736158 43.7426446,84.8617472 43.7828594,89.8372409 C46.0518991,88.9630857 47.294045,92.8842094 47.458513,94.5438026 C47.6639692,96.5412036 46.632564,100.729237 44.2155546,100.965564 L44.4143468,104.159952 C44.7520705,109.634724 45.0521628,115.104261 44.9770569,120.592667 C45.0986034,120.623124 45.2021048,120.678477 45.2887212,120.75026 C45.295037,120.908737 45.3160466,121.067342 45.3462077,121.224176 C45.3759821,121.379495 45.4748433,121.462019 45.591363,121.487927 L45.5953587,121.493993 C45.590074,121.603815 45.5685488,121.71389 45.5273029,121.817773 C49.9636855,123.675021 54.5433976,125.208489 59.2080505,126.415776 C59.0934642,124.863225 59.1224653,123.315223 59.2839687,121.78125 C57.5203201,120.104469 59.6895963,114.01723 59.8976303,111.651311 C60.7126234,106.91088 61.3328585,102.141003 61.8811711,97.3645549 C60.2439669,97.2245283 59.4056441,95.515395 58.9751401,94.1244811 C58.4139381,92.593035 58.075464,90.9577064 58.4706512,89.3472742 C58.8715098,87.4299967 61.0199053,85.5978979 63.045981,86.2731344 L63.1735745,84.9888202 C63.9757852,76.8540567 64.6767921,68.7058631 65.8777694,60.6162943 C61.9554137,62.8043994 58.2516613,58.0460228 59.199028,54.3525055 C59.4764066,52.7845362 60.4313779,51.2652224 61.8404408,50.4507176 C63.0868402,49.7345346 65.663033,49.0250497 66.4802172,50.600728 C66.8630307,50.6497626 67.2217411,50.8364226 67.492675,51.1120526 C68.3400204,46.7248475 69.3706522,42.3038996 71.0105632,38.1456912 C65.8269854,34.8903256 66.7966506,26.6937149 73.6189793,26.6828464 C82.8190049,27.4706855 80.3715767,40.8887211 71.498167,38.3653358 C68.7111045,55.1579112 67.1049636,72.0892494 65.6795313,89.0368903 C66.7523112,90.7849479 66.5824297,93.3787257 65.110338,94.850016 C64.4701244,100.980729 63.6934126,107.098804 62.6730923,113.180104 C69.4220806,114.684126 76.2542053,115.928062 83.1605725,116.501186 C83.4926019,114.365527 85.8164214,113.225852 87.8245809,113.054358 C89.1543743,112.911551 90.6009451,113.416051 91.8711898,113.657559 C93.4060526,114.245089 94.6617323,115.59493 95.2224187,117.067232 C101.669668,117.106535 108.120783,116.698967 114.507839,115.863862 C113.862727,112.651844 118.539109,110.203275 121.386236,110.703099 C122.525654,110.842873 123.637231,111.274074 124.49115,112.043462 C125.32509,112.220517 126.10902,112.940744 126.316023,113.807443 C128.577329,113.269705 130.893544,112.860241 133.078287,112.061407 C135.222043,111.358494 135.922578,109.594134 135.367177,107.508774 C129.304159,109.936491 124.159765,100.304987 129.945146,96.8208776 C130.685767,96.2729035 132.229137,95.9184138 132.662993,96.9547117 C132.736977,96.9673495 132.810447,96.9830203 132.883529,97.0007132 C132.402112,95.0187303 131.91786,93.0375057 131.433607,91.056281 C128.653763,90.7907613 127.72573,86.7138138 130.034211,85.2814479 C129.248735,81.9947407 128.486975,78.7017145 127.771745,75.3992101 C123.962368,76.1843005 120.80472,71.4478318 121.610901,68.0259829 L121.636547,67.9227 C122.09167,66.0626716 123.476243,64.2336059 125.521653,63.9246122 C125.038431,61.1297673 124.606638,58.3253177 124.24303,55.5118954 C123.716114,54.9511571 123.480239,54.115168 123.685308,53.3753524 C123.833922,47.9670148 122.736524,42.3984302 123.178886,36.9128758 C119.136402,41.8235377 110.713474,38.4809715 112.637466,32.001203 C112.524942,25.9985106 121.061554,23.8710669 123.940259,29.1777967 C124.248572,28.0458308 124.644791,26.919552 124.838646,25.7524531 C124.868103,25.6184023 125.075059,25.6454606 125.087377,25.7711911 L125.087926,25.7855641 C125.516884,33.4618775 125.201224,41.1883629 126.025497,48.8563354 C129.105921,49.0076096 130.364307,56.350412 127.017847,56.8775338 C128.283323,65.4143536 130.184243,73.8398345 132.250147,82.2256329 C135.839958,81.3043388 137.228011,89.0155325 134.272614,90.3124214 C135.13259,93.7213359 135.988443,97.1301241 136.823801,100.544852 L136.839913,100.537522 C137.273897,99.7921459 138.430586,99.8751761 139.174301,100.017351 C141.630881,100.921963 140.592387,105.365027 137.917848,105.092936 C139.376793,109.480899 138.451854,113.55216 133.584323,115.05972 L133.586901,115.199368 C133.737577,115.08171 133.920863,114.986169 134.14256,114.923991 C137.184316,114.070688 140.024611,112.744732 142.64553,111.025868 C141.87449,98.3562414 138.20425,86.0743421 135.234545,73.7847338 C131.821576,73.2410566 130.7332,67.7776183 133.395494,65.7656838 C131.552318,57.6061017 131.021535,49.2622608 130.119796,40.9757954 C127.661541,40.4403327 127.040533,36.4983567 129.25982,35.2909432 C127.853463,25.0002525 122.558393,16.3259336 112.678455,11.9144641 C112.358154,13.3791827 111.826469,14.8013119 111.115106,16.1324492 C111.181744,16.1361142 111.246191,16.1442024 111.30922,16.1546917 C111.325718,16.1842641 111.345697,16.2134574 111.372893,16.2413869 C111.908059,16.78835 112.250915,17.4039362 112.468358,18.06287 C112.489368,18.2044131 112.512698,18.3458299 112.536672,18.4871202 C112.512698,18.5450013 112.486017,18.6022504 112.45534,18.6583621 C113.513942,22.6794507 108.552447,24.7349855 105.202507,23.8354284 C104.683196,23.7334415 104.343819,23.4426462 104.162724,23.0750132 C98.2318222,26.2613764 90.4913857,25.5899312 85.1484957,21.3767484 C81.2651947,23.4490914 76.2651612,18.6095803 79.0404943,14.8138233 Z M51.2095951,104.969149 C56.8843857,104.135308 58.7405798,113.247273 54.1667968,115.77723 C52.6921272,116.652144 50.6642471,116.727844 49.2122627,115.761307 C45.3461046,113.422433 46.4214624,105.449637 51.2095951,104.969149 Z M72.8104438,99.5168794 C80.0328576,99.4860462 80.6506438,110.555982 74.3509779,112.549213 C69.6662177,113.899939 65.0770964,108.714405 67.4796697,104.390642 C67.7016242,101.700817 70.0317594,99.5563123 72.8104438,99.5168794 Z M95.3148868,100.521422 C95.6906111,97.6618713 98.6920233,94.9299625 101.712898,95.7171698 C104.481013,96.4138906 105.202817,99.6370298 105.693643,102.024053 C106.809731,106.966436 101.188173,111.977442 96.4515979,109.255517 C93.4259538,107.452359 92.9835915,103.039246 95.3148868,100.521422 Z M111.445357,83.8328424 C112.457686,82.2284764 114.725566,81.5217718 116.576991,82.0808671 C121.655005,83.6948379 121.051784,91.7969181 116.965604,94.2118713 C109.946198,97.8684863 104.348099,87.3558761 111.445357,83.8328424 Z M78.3726588,88.56631 C78.253948,83.7515689 83.2453457,79.3687871 87.9341016,82.1056245 C95.5230884,87.1674342 87.7512018,98.7800367 80.4698837,92.2715804 C79.1721847,91.4381189 78.4053978,90.085371 78.3726588,88.56631 Z M68.9314865,76.2815546 C65.4191408,70.8370729 71.4513529,62.7659553 77.2081197,67.9825778 C79.1825091,69.9995673 79.094346,73.6982661 77.9513191,76.0959056 C76.0920316,79.2992035 70.9284323,79.3742719 68.9314865,76.2815546 Z M94.4355888,66.0715054 C97.1766363,63.4524521 101.966187,63.4250281 104.048847,66.8808288 C106.517542,71.1438045 103.571297,78.4373196 98.0064521,78.0906653 C92.2244222,77.682465 90.640451,69.5928962 94.4355888,66.0715054 Z M80.0742969,57.5590513 C75.6759378,53.0747881 80.4515679,45.8817434 86.4166265,47.6138774 C96.1654803,51.18405 87.7047873,64.6181356 80.0742969,57.5590513 Z M104.083584,56.5473339 C100.165997,49.4349182 109.682843,43.0398228 114.526142,49.8857077 C118.240979,56.0860549 108.211782,63.2435875 104.083584,56.5473339 Z M91.3056699,36.3145402 C87.9159018,30.3862844 93.8395856,23.7989684 100.063462,27.2784017 C108.919858,33.3998892 97.5834239,45.1728651 91.3056699,36.3145402 Z" id="🖍-Ink" fill="#000000"></path>
                </g>
                <g id="Head" stroke-width="1" transform="translate(51.570823, 22.971741)">
                    <g id="head/hat-beanie">
                        <path d="M31.2489923,7.49212505 C36.9641035,7.49212505 43.821203,10.2620793 44.4042114,10.3174784 L44.4199503,10.3183206 C44.7266859,10.3183206 45.925231,11.2312201 48.0155856,13.0570191 L45.7514955,17.4719332 L45.9347191,17.6468474 C46.8115001,18.4872737 47.5600082,19.2532977 48.1508322,19.8571551 C52.974957,24.7876987 53.8420116,44.1464358 52.7051268,50.8974665 C51.568242,57.6484972 49.4625094,64.2545052 39.6591394,64.2545052 C29.8557694,64.2545052 18.9492974,58.36132 17.2692236,56.5261119 C16.1491744,55.3026398 14.8910668,54.7164907 13.4949008,54.7676645 C13.4375188,54.6952762 13.3805998,54.6230998 13.3241438,54.5511354 L13.1187244,54.5220423 C11.1864594,54.2422609 9.80194575,53.8656785 8.96523613,53.3924208 C7.33090672,52.4680153 5.53458072,47.6083086 5.53458072,46.5377769 C5.53458072,45.4779505 2.85228858,37.7680799 2.79864273,36.9521977 L2.79782718,36.9295982 C2.79782718,36.2475499 -0.706317887,33.1122196 -0.706317887,32.1165003 C-0.706317887,31.120781 -1.41263577,31.1811918 -0.706317887,27.6724314 L-0.501112506,26.64166 C0.250520637,22.9058636 1.72167212,16.719925 7.33090672,14.0319482 C13.4949008,11.0781277 25.4761529,7.49212505 31.2489923,7.49212505 Z" id="Path" fill="#FFFFFF"></path>
                        <path d="M6.37945119,13.8931814 C9.45362623,10.6309644 26.9062282,5.58509057 35.735984,6.65469583 L36.0008893,6.68898815 C36.7055203,6.7783227 37.3999393,6.91360073 38.0852951,7.09737466 C40.3005428,7.6146217 42.5888066,8.39783045 44.4191878,9.7060711 C45.9472926,10.776299 50.7677603,12.5240656 49.3470097,15.3238104 C49.8738235,16.3216773 50.0704054,17.5544941 49.714388,18.5373017 C49.6695827,18.876773 49.5649092,19.1894439 49.4310038,19.5136007 C50.5564987,21.1740747 51.4476272,23.051887 52.1689804,24.8379398 C53.4295296,29.3328715 54.2139423,34.0106837 54.3288278,38.5967366 C54.7110135,47.3096627 53.7554215,57.7172653 46.1650644,63.3514676 C41.579729,66.9216591 34.3970877,67.0416226 29.2442179,62.6149681 C28.9517705,62.2689881 27.5765911,61.3353145 28.0354949,61.171577 C28.172081,61.3157885 28.3124966,61.4561714 28.4554652,61.5940018 C28.448955,61.5786873 28.4476785,61.5633728 28.4503592,61.5467821 L28.3158887,61.4250354 C28.0626652,61.1908267 27.7346141,60.851138 28.1082557,60.9176117 C28.1247226,60.9367548 28.1427213,60.9533455 28.1604648,60.9724886 C28.2396001,61.0199476 28.2993845,61.0610921 28.3459014,61.0973675 L28.3698296,61.116513 L28.362437,61.108825 C28.1472067,60.879371 28.0181717,60.6453387 28.3399766,60.7948061 L28.3825767,60.815515 C28.525673,60.9661076 28.671067,61.1103191 28.8191416,61.2507019 C28.8167162,61.2341112 28.8191416,61.2175205 28.8282048,61.1996536 L28.6901443,61.0663123 C28.5553757,60.9342815 28.5759448,60.9337182 28.641835,60.8270009 C28.3553872,60.4256335 28.8901153,60.6640292 28.9276446,60.8206199 C29.2622167,60.741495 29.5559406,61.3693892 29.7714147,61.4459617 C39.2174279,68.7063081 52.9254376,62.2641386 52.7034533,42.0330538 L52.7000636,41.6372237 C52.6351404,35.1681925 52.0906183,28.5192328 49.4142816,22.6632817 C49.1540021,22.0991978 48.8628312,21.5504284 48.5425559,21.019526 C48.3217205,20.6213491 48.085567,20.233382 47.8315424,19.8556244 C47.1204011,19.7981951 46.4183231,19.6680219 45.7265848,19.466381 C45.4890271,19.4063993 45.2541501,19.3400365 45.0194007,19.2621878 C41.5881539,19.4492799 38.2333698,19.652835 34.7925492,19.8457976 L33.7177918,19.9127206 C30.8030067,20.1000655 27.7885625,20.40013 25.436402,22.2025706 C23.12848,23.8435187 23.1180127,27.0793437 21.1423651,28.8809663 C18.3251174,30.792598 18.3045657,32.5163719 17.7620508,35.3334731 C17.8022608,37.457083 19.2750928,40.5425706 16.5723477,41.436299 C17.0283155,42.0862716 16.3927434,41.7739836 16.3427044,41.5460529 C16.3375983,41.5473291 16.3324923,41.5486053 16.3286628,41.5486053 C16.7349745,42.3037375 16.1376976,41.8282224 16.0848503,41.5856153 C16.0529376,41.5766819 16.021025,41.5537101 15.9891123,41.5218049 C16.3984877,42.1833911 15.7367472,41.7201276 15.7759359,41.5996536 C14.9848855,40.3840656 13.3568303,40.1953145 12.2092519,40.5174294 C12.1952103,40.5608204 12.1442777,40.564649 12.1123651,40.5416773 C7.23266747,41.5988879 8.49168486,51.6982862 13.4922676,50.7219872 C13.7063375,50.6783409 13.7012315,50.7810757 13.7437391,50.7909025 C13.6282154,50.4876755 13.953852,50.6110848 13.9504054,50.6747675 L13.9702471,50.6738044 C13.9859695,50.6724184 13.9795381,50.6706979 13.9912536,50.6747675 C13.8795593,50.0546582 14.5081106,50.9531085 14.4584546,50.9899909 C14.4777298,50.978505 14.4994304,50.972124 14.518578,50.9695716 L14.4969411,50.9107063 C14.3926262,50.6328711 14.4015689,50.7483506 14.4022883,50.5892616 C14.3239109,50.392598 14.3181666,50.4786144 14.3365483,50.3504831 C14.6120182,50.1371012 14.6933316,50.7843938 14.78524,50.8317411 C14.6277192,50.6122334 14.7529444,50.4329262 14.9015296,50.552124 C16.0277905,52.9205105 17.4826238,55.1458341 19.3627888,56.8988332 C19.5684338,57.0609116 19.7765042,57.2204376 19.992106,57.3710301 C20.7918367,58.0674567 22.0185585,58.515278 22.767229,59.1321969 C22.767229,59.1424066 22.7622506,59.1551686 22.7545916,59.1679307 L22.7717286,59.1834047 L22.7717286,59.1834047 L22.7890572,59.1998359 L23.0494643,59.3249043 C23.1260547,59.3899909 23.194986,59.4627347 23.2561306,59.5431358 C23.32136,59.6184321 23.3786751,59.7013856 23.42731,59.7894439 C23.4515636,59.8966454 23.3979503,59.9413127 23.2958299,59.8953692 C23.2510246,59.8800547 23.2064745,59.8621878 23.1617968,59.8455971 C23.1643498,59.8494257 23.1654987,59.8519781 23.1681793,59.8545305 C23.1828272,59.8766819 23.2819863,60.1065018 23.1677267,60.0691073 L23.1541378,60.0638286 C23.0914614,60.0408569 23.0290402,60.0153327 22.967768,59.9910848 C23.0405288,60.0816955 23.1067794,60.1799635 23.1654987,60.262917 C23.2281751,60.3280036 23.2663426,60.4045761 23.2817883,60.4913582 C23.2791077,60.5398541 23.2524287,60.5602735 23.2039215,60.5538924 C23.1298842,60.5296445 23.0571234,60.5041203 22.9842349,60.47732 L23.0049634,60.5168537 C23.0564611,60.6181238 23.1296495,60.7879737 22.9996806,60.7312853 C22.888497,60.6968277 22.7813982,60.6572653 22.6741717,60.6138742 C22.6651085,60.6317411 22.6473651,60.6381222 22.6116229,60.6215314 C22.270796,60.5002917 21.9414575,60.3522516 21.6261607,60.1774111 C21.349159,59.9757703 21.0694766,59.7779581 20.7913261,59.5775934 C20.5295148,59.4206199 20.2767667,59.2457794 20.0356348,59.0492434 C18.4213659,58.0068368 17.0081467,56.6826436 15.8869919,55.2078578 C14.011933,56.8313218 10.2629639,55.2803464 7.94393634,54.0094986 C5.89271964,52.8736737 5.08647875,50.773546 4.8780254,48.5092981 C4.44465178,45.460948 1.95291302,44.4175205 2.12626247,37.7289152 C2.12243295,37.7301914 2.11847578,37.7301914 2.11336976,37.7301914 C2.02273787,37.7033911 1.93478664,37.6676572 1.85181378,37.6217138 C1.76628791,37.5808751 1.68586807,37.5323792 1.61042659,37.4736737 L1.51724169,37.3447767 L1.51724169,37.3447767 C1.46886213,37.3179763 1.42546094,37.2898997 1.3922718,37.2618232 L1.37505973,37.2840157 C1.32057474,37.3497494 1.35719981,37.2508478 1.36035916,37.2311942 L1.19847956,37.0110994 C0.814651059,36.487175 0.393549841,35.8993118 0.0505368533,35.4291887 L0.039732332,35.4482909 C0.0319728159,35.4627087 0.0278697625,35.4731267 0.0315169211,35.4776846 C-0.784808355,34.3051048 -1.55249877,32.8887694 -1.76580284,31.5176117 C-2.01765738,30.4614221 -1.9192388,29.373072 -1.69955221,28.3947311 C-0.757618787,24.9687511 2.32795034,17.2160438 6.37945119,13.8931814 Z M28.5329217,61.2727844 L28.4817677,61.227237 L28.5267462,61.2835787 C28.5503166,61.312695 28.574447,61.3388649 28.6137519,61.3655606 C28.6111989,61.3566272 28.6111989,61.3476937 28.6123477,61.337484 C28.5862812,61.3175907 28.5596287,61.2958356 28.5329217,61.2727844 Z M35.6969533,8.37613491 C29.7091212,7.86144029 23.8197078,9.18027347 18.1058138,10.7766819 L17.7116454,10.8899477 C14.4626652,11.8167999 11.0272094,12.6508179 8.28157205,14.6346582 C4.44554534,17.5721057 2.46466408,22.2450684 0.736020314,26.5595442 C-0.773447455,29.7651231 -0.00179987278,33.3797265 2.27293295,35.6180675 C2.50959707,33.3937648 2.91310047,31.2345488 3.54369419,29.0926892 C3.67530191,28.7580675 3.57573448,28.6484412 3.859374,28.6047949 C4.28776925,34.3768277 2.17783329,38.6414038 6.35328282,45.4821331 C8.1650271,48.709918 6.06772854,51.0716682 11.1839626,52.7701732 L11.3224176,52.8230657 C12.3883101,53.2251798 13.5523378,53.5425874 14.5963172,53.317794 L14.5027868,53.1656908 C14.4073993,53.0090539 14.3784536,52.9330173 14.5171738,52.8660164 C14.513472,52.8583592 14.5083659,52.8507019 14.5031323,52.8417685 C14.3909274,52.629918 14.2824245,52.415515 14.1788999,52.1985597 C14.1369028,52.212598 14.0947782,52.2228077 14.0512493,52.2342935 C14.0794601,52.286618 14.083162,52.3389426 14.0041463,52.3568095 C13.7228555,52.4532908 13.4340033,52.4919627 13.1383161,52.4738629 L13.0748503,52.4691158 C12.7407888,52.4486964 12.530293,52.3878213 12.3420084,52.3312853 C12.2795873,52.3210757 12.2170385,52.310866 12.1556386,52.2981039 C11.5499368,52.1638469 10.908748,51.8223336 10.4937561,51.4838833 C5.76328198,48.7977211 6.25218359,39.6538195 12.0830055,38.7894439 C12.202614,33.0322151 14.9416119,23.3192525 19.487248,17.8332179 C23.596064,12.7869644 34.8132285,10.5997995 42.6172726,11.3710119 C42.7310093,11.40866 42.8447459,11.446691 42.9584826,11.4851048 C44.1624826,11.592051 45.3099334,12.1283136 46.5148269,12.3774294 C45.6497391,11.7292434 44.6683617,11.2975023 43.657497,10.9305925 C41.6434266,9.69892434 39.3344834,9.03248861 37.10379,8.56246126 C36.641695,8.44887876 36.1732175,8.38634458 35.6969533,8.37613491 Z M11.8161265,43.4144084 C12.1296362,43.2441623 12.0937664,43.4085378 12.165889,43.3608077 C14.4209636,43.1769061 16.852579,45.1508168 18.1131282,46.7963592 C18.0135607,46.899732 17.7442181,46.5934421 17.6969874,46.5449462 C17.6906048,46.5513273 17.6829458,46.5564321 17.6752868,46.5589845 L17.7103873,46.6085125 C18.2213005,47.341532 17.2084714,46.4789716 17.1136243,46.3011905 C17.0970298,46.310124 17.0804352,46.3152288 17.0612876,46.3114002 C17.1415798,46.3901422 17.3867965,46.595484 17.4289212,46.7414822 L17.4939329,46.7955721 C18.1069624,47.3204096 18.0560852,47.7152176 17.3601176,46.9699234 C17.3765845,47.004381 17.382967,47.0362862 17.3714785,47.0618104 L17.3954423,47.0777761 C17.7376794,47.3168783 18.0191367,47.9834007 17.3038237,47.2991851 C17.3782439,47.798948 16.5949802,46.8329863 16.569833,46.8397502 C15.2144394,45.776031 13.2188784,44.7415369 11.5187007,44.6025579 L11.4601844,44.5958364 C11.1481999,44.5557603 11.0006947,44.4632142 11.1102189,44.259258 C10.7259908,44.1678815 10.8159844,43.9787475 10.9978864,43.9848733 C10.7268843,43.8067147 10.9708245,43.6363409 11.12809,43.7028314 C11.01997,43.4035606 11.4535989,43.6029043 11.4931706,43.5611723 C11.7182185,43.2141714 11.7788525,43.5036153 11.8161265,43.4144084 Z M7.08923931,24.8647274 C8.17235424,24.468082 11.37166,25.6554658 11.1157207,27.2280091 C10.9633059,27.5890483 10.4611286,27.7959216 10.1081749,27.5921112 L9.64750595,27.2827891 C8.84582193,26.7460208 8.12279223,26.2753468 7.26207816,25.8072069 C6.79360064,25.5748095 6.59191277,25.0814275 7.08923931,24.8647274 Z M13.2515569,22.5278377 L12.8332538,22.2556857 C10.5758896,20.7786534 7.38472481,18.5405969 13.0441248,20.8561331 C13.689143,21.1326873 14.5461888,21.2962972 14.8981214,21.9104084 C15.4509759,23.0422771 13.9960149,23.1183391 13.2515569,22.5278377 Z M13.5052241,15.900618 C13.324088,15.2133801 15.5780137,16.0198159 16.2341376,16.2324321 L16.3340741,16.2701679 C16.9723289,16.5079354 17.7039571,16.7285068 18.0857088,17.2791778 C18.5329964,18.0400529 17.6276986,18.1976645 17.0669298,17.8539818 C15.9171813,17.1028058 14.6566321,16.5360419 13.5052241,15.900618 Z M19.2367721,12.6992634 C17.9681031,11.3141479 21.3634211,12.6410413 21.8720215,13.0093656 L21.8865423,13.0202297 C22.2660474,13.28734 22.1890741,13.8626545 21.8325461,14.0316244 C20.8181072,14.0508952 20.0716067,13.2055351 19.2367721,12.6992634 Z M25.009896,11.1816992 C22.9930173,9.73256518 25.6498082,10.421845 26.572594,10.9897575 C27.2015283,11.5442698 26.5537017,12.4803683 25.009896,11.1816992 Z" id="🖍-Ink" fill="#000000"></path>
                    </g>
                    <g id="face/Calm" transform="translate(20.296438, 23.737466)" fill="#000000">
                        <path d="M21.8335735,30.6492633 C20.89322,30.9215589 19.8838619,30.9459054 18.9253311,30.6646944 C18.0559279,30.409606 17.1632456,29.8482557 16.5233842,29.1054535 C15.9549662,28.4455885 15.5868337,27.6436893 15.6012928,26.7877196 C15.6029376,26.6899608 15.6379008,26.608362 15.6916851,26.5450252 C15.749586,26.4768406 15.8304564,26.4300199 15.9170896,26.4096979 C16.0061857,26.3887981 16.1003742,26.3962076 16.180577,26.4326303 C16.2531824,26.4656027 16.3153876,26.5216071 16.3542845,26.6034618 C16.4526198,26.7326091 16.5505731,26.8598437 16.648911,26.9835495 C17.4395739,27.9596317 18.2052692,28.689079 19.3941935,28.9507113 C20.0392687,29.0926939 20.6835326,29.0297338 21.2746676,28.8131094 C21.9074492,28.5812235 22.4794643,28.1735132 22.9277102,27.6517763 C23.1302804,27.4159886 23.3694377,27.3197484 23.6032923,27.3181308 C23.8683006,27.3162977 24.130238,27.4394101 24.3275706,27.6361808 C24.5215407,27.8295986 24.6514192,28.0924348 24.6631906,28.3673813 C24.6735219,28.6086915 24.5947832,28.8607572 24.3853086,29.0856389 C23.6953296,29.8264125 22.8011116,30.3690959 21.8335735,30.6492633 Z M21.80454,18.4242494 C22.7684777,19.0100347 24.2372226,20.3759715 23.2002476,21.8282044 C21.9796288,23.1086862 20.2222133,21.6405264 19.3561894,20.9765349 C18.5531715,20.4619378 17.6509358,21.7854431 18.3959763,22.386322 C24.6538831,27.0183485 27.1934742,18.5774241 22.2920862,17.7355096 C21.7524258,17.6427343 21.5519946,18.2430304 21.80454,18.4242494 Z M12.7873886,15.8466837 C12.4775727,15.6485958 12.1131293,15.5806019 11.7092201,15.7643185 C11.3935813,15.9078204 10.8399863,16.3862139 10.4547209,17.0150913 C10.1911478,17.4453276 10.0042445,17.9500511 10.0431552,18.4757818 C10.0521918,18.5978768 10.0070661,18.6879011 9.93588887,18.7544643 C9.87967471,18.8070344 9.79847516,18.8456685 9.70310131,18.8577458 C9.62212934,18.8679994 9.5314964,18.8587494 9.45780237,18.8357541 C9.31761696,18.792011 9.24342416,18.7010984 9.21546973,18.6268766 C8.94571736,17.9106571 9.06192952,17.1114002 9.3642539,16.3903301 C9.77225892,15.4172024 10.5132073,14.6020868 10.9986542,14.3392832 C11.8293553,13.8894133 12.8093493,13.8687083 13.6412394,14.3270128 C14.3493857,14.7170824 14.7921737,15.346835 15.2325577,15.9887657 C15.3261732,16.1252256 15.4190877,16.2606849 15.5151168,16.3937615 C15.7075689,16.660418 15.7267248,16.9248845 15.6521955,17.1516664 C15.5696306,17.4028997 15.3591071,17.6149239 15.095852,17.7258833 C14.8525333,17.8284397 14.5701305,17.8428763 14.3202369,17.7375017 C14.1091365,17.6484853 13.9154036,17.4749583 13.7928187,17.1805271 C13.5863614,16.684669 13.2423838,16.1375953 12.7873886,15.8466837 L12.7873886,15.8466837 Z M28.5223381,16.9498739 C28.3101559,17.0604062 28.1441568,17.0937323 27.9087839,17.0232291 C27.7786232,16.9841423 27.6499804,16.9092304 27.5492642,16.8085378 C27.4494489,16.7087458 27.3774323,16.5846465 27.3494394,16.4469757 C27.2805915,16.1072077 27.094648,15.7891627 26.8296707,15.5818286 C26.6031898,15.4046163 26.3173197,15.3106896 26.0002358,15.3636794 C25.658078,15.4207838 25.3320896,15.6401738 25.1075703,15.8988297 C25.0325293,15.9853806 24.9737077,16.083678 24.9145718,16.1813118 C24.8039488,16.363898 24.6964275,16.5336164 24.5438621,16.6677052 C24.4860296,16.718722 24.3988847,16.7540565 24.3144814,16.7540565 C24.2801776,16.7540565 24.2453642,16.7484758 24.2121902,16.7381392 C23.8716333,16.3964095 23.8061414,16.1371724 23.817121,15.8800437 C23.8286347,15.6104063 23.9349646,15.3374011 24.1067945,15.0826792 C24.5098653,14.4851642 25.2751615,13.9952575 25.7915895,13.8842914 C26.498834,13.732342 27.2012124,13.9147472 27.7643469,14.3096676 C28.3437793,14.7160175 28.7731373,15.3469142 28.9069985,16.0579036 C28.9392009,16.2291393 28.9255167,16.413969 28.8602883,16.5742243 C28.7965502,16.7308179 28.6854762,16.8649374 28.5223381,16.9498739 Z M14.347189,9.47618123 C13.9227568,9.88960823 13.4204042,9.95364672 12.9121922,10.0106047 C12.629817,10.04255 12.4043971,10.0683023 12.1825741,10.1183428 C11.5728711,10.2559394 10.9702003,10.4631747 10.4203619,10.7616334 C9.84559433,11.0736369 9.21922831,11.4499123 8.76860484,11.93195 C8.66145169,12.0466577 8.56044281,12.1670191 8.45929282,12.287644 C8.36705812,12.3976389 8.27820737,12.5035315 8.18456741,12.6056334 C8.07702844,12.7229106 7.97490845,12.8458251 7.87333135,12.9684185 C7.81052094,13.0718624 7.79811351,13.0973044 7.78546486,13.1237896 C7.76643091,13.1635873 7.7442903,13.2081256 7.71900261,13.2559063 C7.68437029,13.3213436 7.64380472,13.3929756 7.60131967,13.4579207 C7.53063421,13.576629 7.49270572,13.6093271 7.45993141,13.6239527 C7.4055477,13.6481676 7.35397241,13.6600962 7.30393604,13.6536366 C7.25701999,13.6475798 7.21281993,13.6250518 7.16917177,13.5881728 C6.95126518,13.4041075 6.88699909,13.1020331 6.893586,12.7813803 C6.90358156,12.294793 7.08309538,11.7560522 7.24857992,11.4248749 C7.6333644,10.65536 8.16700852,9.85539976 8.80868389,9.28107311 C9.54089352,8.62548968 10.3419552,8.12917939 11.2620569,7.78718778 C11.8338462,7.57458435 12.4958777,7.37943526 13.1188203,7.40408534 C13.5672138,7.42182845 13.9952694,7.55508604 14.3487757,7.88786486 C14.5658492,8.09214834 14.6700503,8.38272064 14.6700503,8.67308715 C14.6700503,8.96923754 14.5618257,9.26713672 14.347189,9.47618123 Z M29.3855377,13.2620432 C29.3585462,13.3062708 29.3211872,13.3367497 29.2796178,13.355055 C29.2360405,13.3742445 29.1873916,13.3797716 29.140706,13.3719071 C29.0942271,13.3640773 29.050046,13.3430131 29.015,13.3108214 C28.981409,13.2799662 28.9558301,13.2390452 28.9443928,13.1889136 C28.6626031,11.9515631 28.1154379,11.0309559 26.9475815,10.4372936 C26.3730955,10.1452509 25.7124911,9.95969807 25.0871222,9.81175826 C24.9053933,9.76876326 24.7133692,9.74090553 24.5199892,9.71267651 C23.9139221,9.62420474 23.3034821,9.52288361 22.9083779,9.03310469 C22.6703079,8.73807951 22.5703931,8.36077411 22.6268846,8.01571215 C22.6800743,7.69081745 22.8699709,7.39291201 23.2151714,7.21438683 C24.0745769,6.77014501 25.1425559,7.2060625 26.0104169,7.57740434 C26.0747943,7.60495025 26.1379896,7.63199096 26.199823,7.65808217 C27.0485235,8.01624074 27.8225832,8.489002 28.4588744,9.16510409 C28.9637415,9.70147978 29.4315079,10.4944134 29.6198998,11.3101227 C29.776635,11.9887634 29.7397814,12.6815623 29.3855377,13.2620432 Z" id="🖍-Ink"></path>
                    </g>
                    <g id="facial-hair/*-None" transform="translate(15.701018, 43.135825)"></g>
                </g>
            </g>
        </g>
    </g>
</svg>