<?xml version="1.0" encoding="UTF-8"?>
<svg width="236px" height="314px" viewBox="0 0 236 314" version="1.1" xmlns="http://www.w3.org/2000/svg" xmlns:xlink="http://www.w3.org/1999/xlink">
    <!-- Generator: Sketch 62 (91390) - https://sketch.com -->
    <title>mix-3</title>
    <desc>Created with Sketch.</desc>
    <g id="Mix-N-Match" stroke="none" stroke-width="1" fill="none" fill-rule="evenodd">
        <g id="Artboard" transform="translate(-327.000000, -220.000000)">
            <g id="a-person/sitting" transform="translate(337.000000, 196.000000)">
                <g id="pose/sitting/wheelchair" transform="translate(-10.377049, 81.536000)">
                    <path d="M183.30127,198.352244 C180.534471,197.847245 179.538345,201.060886 179.419234,203.092663 C178.303867,202.595256 177.142375,202.030044 176.13367,201.378965 C174.475032,200.318834 172.683656,198.488376 170.724687,198.53707 L170.63519,198.040187 C170.535079,197.168546 168.759428,197.749073 168.280234,198.055763 C167.51237,197.913217 166.669162,197.141844 166.154457,196.436311 C168.226771,195.670566 169.135366,195.640329 168.80791,192.982606 C168.807386,192.571198 168.705179,192.188064 168.818393,191.821684 C166.34354,180.808572 165.860022,169.790355 165.548815,158.564928 L166.819851,158.309287 C170.844977,169.555919 174.669749,181.357683 178.101287,193.381709 C178.18646,193.922312 178.495309,193.928595 178.795771,193.636434 C179.837104,193.691541 180.843582,193.646644 181.904439,193.493495 L181.889894,193.444409 C182.208702,193.446896 182.526068,193.430272 182.818407,193.410637 C183.068421,195.023545 183.357615,196.685931 183.30127,198.352244 L183.30127,198.352244 Z M181.632542,192.215421 C181.702646,192.180995 182.501827,191.829014 182.592241,191.788306 L182.611765,191.986614 C182.268061,192.120128 181.92226,192.249192 181.573183,192.366606 L181.54108,192.257439 L181.632542,192.215421 Z M147.489476,216.301826 C146.140605,216.626973 144.71154,217.037334 143.385337,217.422824 L143.905676,216.167134 C140.914677,208.206006 138.628907,199.797996 136.965421,191.579133 C135.787288,186.228474 134.564865,180.695739 132.931124,175.393382 C130.868375,167.066528 126.416863,158.498694 117.010665,157.785439 C117.010665,157.785439 116.852375,157.514091 116.852637,157.514091 L116.667223,157.341307 C116.208078,151.50175 115.586973,145.682613 114.985392,140.093985 C120.019485,141.475467 124.354245,141.026099 129.165841,140.988532 C130.724761,140.772814 132.799827,141.225062 134.043609,140.514948 C134.043609,140.514686 134.865459,139.681006 134.865459,139.681006 C140.328166,161.261528 141.749762,183.501507 143.700738,205.35521 C143.767172,205.851438 144.144945,206.019379 144.542112,205.813871 C145.000864,206.316383 145.955846,206.123049 146.609447,206.196089 C146.060804,209.471252 146.706544,213.375372 148.29914,216.103518 L147.489476,216.301826 Z M134.667858,214.460112 C131.302231,211.629343 127.314582,210.226132 123.150036,210.384779 C121.688736,208.219095 119.623236,205.623155 117.303266,204.645488 C116.21594,201.012716 116.349464,197.028487 116.57943,193.607375 C117.116934,190.112044 115.913118,189.704825 113.062196,189.959942 C114.287895,188.480942 114.178349,188.123857 113.929646,186.182137 C114.743371,186.308583 117.206431,187.91704 117.543977,186.779942 C117.952805,184.56491 118.23073,182.639684 118.393344,180.895356 C118.479827,179.404968 117.424342,177.838136 117.554591,176.321438 C117.166859,172.421114 117.564418,168.056499 115.767146,164.463519 C123.049532,165.436604 124.823743,173.377836 126.708284,179.22865 C130.585733,191.27938 133.295531,203.583656 136.181702,215.732165 L134.667858,214.460112 Z M112.236153,186.87314 C112.063711,187.260594 112.038552,187.630377 111.978145,188.00762 C108.552635,187.378924 109.161947,192.407839 108.841829,195.159546 C108.198055,194.945661 107.744544,194.878904 107.070894,195.011764 C106.972356,194.105044 107.563192,193.702144 105.492581,193.602794 C95.8427898,193.782253 92.1734241,203.867701 88.8537901,211.584184 C87.3125595,215.295101 85.1241484,215.872878 81.8716041,215.808608 C79.6898758,215.850364 77.4587473,216.4411 75.2295844,216.370023 C83.3342139,200.407582 86.2828885,177.480658 82.9918201,157.593807 L82.9939167,157.593807 C82.7938266,156.334451 82.5559986,155.024046 82.3103084,153.756182 C89.2576391,153.82896 97.3395996,153.995722 104.029185,153.707357 C104.910918,154.516298 105.997196,154.877049 107.105619,154.885295 C107.110729,155.768062 107.205729,156.738659 107.289198,157.618808 C101.037007,157.463434 94.0995037,157.559381 87.7662018,157.651532 C94.0992416,157.743029 101.069372,157.855207 107.298109,157.675748 C107.287757,159.362481 107.457447,160.89541 108.957664,161.711289 C109.530809,165.978123 108.790332,170.435675 109.30805,175.398617 C109.724086,178.773785 109.381954,185.23654 112.465594,186.309238 L112.236153,186.87314 Z M68.2152949,212.817229 L67.97406,213.240156 C67.4636797,213.065933 67.1503756,213.104154 66.6530988,213.49043 C63.0352297,215.444716 57.8353783,213.630097 53.8797016,213.501033 C54.631841,211.032193 54.6609307,207.095872 51.2343724,207.046393 C52.3707056,196.225699 51.6052007,185.491658 51.7805251,174.679864 C58.0201372,173.491716 57.8103506,172.850323 51.7499941,171.738357 C51.712125,165.690544 51.6665249,159.572177 51.6703249,153.468471 C51.6695387,150.531021 51.6424145,147.666089 51.3737933,144.82511 C51.9381599,143.658822 51.8124976,142.463867 52.1037878,141.231869 C53.3335488,140.544269 55.4641737,141.34457 56.2291545,140.158779 C59.5397471,140.109954 62.9115329,140.079063 66.2552773,139.901436 C66.5586227,139.91073 66.6711816,139.62904 66.8028715,139.423925 C67.3849278,139.270776 68.36664,139.620794 68.8512065,139.372745 C68.8512065,139.372614 69.5050698,138.529509 69.5050698,138.529509 C72.2284958,144.084759 74.3412999,150.631157 75.5892747,157.259366 C71.6544326,157.301907 67.1497204,157.290258 63.0900022,157.270492 C67.0430582,157.562784 71.3099423,157.738447 75.6819163,157.8001 C79.0738815,174.65447 76.6444975,198.302503 68.2152949,212.817229 L68.2152949,212.817229 Z M62.7717189,220.811082 C54.5745788,231.127824 41.1882012,234.566215 30.195304,226.273002 C0.863309259,203.982105 2.17929112,128.427568 40.7033727,117.976264 C39.6578465,121.92646 36.0297567,138.321646 42.5880453,138.789077 L42.5677349,138.735933 L42.9018735,138.5515 C44.2787865,139.02744 46.2162661,138.366412 46.6672877,140.27724 C46.6848463,140.280774 47.407896,140.343866 47.4502202,140.348055 C46.98164,142.722126 47.1177851,145.183635 46.9775779,147.595404 C46.4239561,147.384399 45.7345824,147.259262 45.1344433,147.308872 C42.8730458,147.2035 42.9299149,144.73466 43.0181013,143.017298 C43.1019635,142.176942 42.8476251,141.214852 42.8896872,140.4262 C42.9120942,139.878398 42.8755355,139.451283 42.6675834,138.997857 C41.9719199,141.220219 41.3142566,144.133845 41.7274091,146.396392 C42.3350172,148.508931 45.0272569,149.517751 46.9760055,148.482883 C46.891095,156.087056 46.8672467,163.63285 46.8249224,171.17079 C45.5448441,170.499421 44.3769315,170.924966 43.0530875,171.283361 C41.3823947,171.634949 39.4002322,171.137149 37.7249531,171.540965 C37.5318079,170.714222 36.7517581,169.702392 35.9304324,170.370226 C34.8852993,170.379782 34.310843,171.348154 33.7919455,173.465275 C33.4685517,175.143631 33.6575038,177.38314 35.2533759,178.189332 C36.1547638,178.675089 37.056938,178.329915 37.5011458,177.336279 C37.7531256,177.437331 38.1548781,177.744938 38.44132,177.64598 C41.1069596,176.999744 43.9812066,176.346308 46.8010741,175.737116 C46.9479641,186.385419 46.4754528,196.95584 47.3558752,207.633071 C43.3324536,207.972748 35.6670525,206.896124 33.914594,210.432556 C32.3041771,211.127093 31.1474024,212.722067 31.1518576,214.328168 C31.0990506,216.931177 33.9917734,217.806351 36.2522537,217.835541 C45.3997886,218.528115 54.4609717,219.762469 63.6782172,219.744537 L62.7717189,220.811082 Z M79.3504958,139.62904 C85.1688312,140.422797 91.0119322,140.417038 96.8424538,140.676082 C94.9398294,153.5851 97.5997036,146.084989 103.514743,153.340847 C96.7561019,153.332862 88.5949965,153.251837 82.2399428,153.410222 C81.2522029,148.545452 79.9190555,143.900849 78.2618592,139.46555 L79.3504958,139.62904 Z M124.394342,74.1235626 C126.959347,77.7029288 130.330215,80.8288694 134.11214,82.9662792 C130.845313,83.2072597 127.51952,83.4275586 124.298817,83.8784973 C123.938734,80.7789978 123.574981,77.6785821 123.210181,74.579868 L124.394342,74.1235626 Z M235.508129,209.582121 C235.204391,206.534326 231.753067,205.410579 229.228814,206.251327 C227.811804,202.488706 222.967057,202.945666 219.849478,201.287206 C213.590866,198.259569 207.185888,192.337024 199.941633,194.667637 C199.292487,192.884957 198.565113,191.173877 197.782574,189.679562 C198.088802,189.834936 198.481775,189.818574 198.757996,189.543953 L198.760224,189.546048 C199.029631,189.237786 199.290783,188.892874 199.32577,188.51275 C200.265813,187.458509 200.659703,185.791804 200.901986,184.549595 C199.754253,180.627935 198.36083,176.871073 197.119538,172.990644 C192.30257,158.194884 188.913618,144.448651 185.278977,130.298865 C181.237079,119.776877 180.152374,92.1679141 165.512518,92.114901 C165.465214,91.3793933 165.439794,90.5318381 165.205372,89.8626949 C164.786979,90.4360218 164.613227,91.2826607 164.556226,92.0103146 C158.290145,91.9108333 152.874087,93.0742418 148.740858,94.8663465 C140.825836,94.5155437 133.888988,94.987164 124.783777,96.0618247 C125.886696,94.1605523 125.149888,92.0184302 125.045715,89.9218602 C138.247203,90.5459749 151.665291,89.3294224 164.804668,88.6021611 C166.924679,88.4172043 169.174808,88.5337022 171.221308,88.001215 C173.44143,87.4829956 175.549386,84.7049781 173.285236,82.5902134 C171.753309,81.6396426 169.849244,82.1545897 168.170164,82.0702923 C159.660769,82.0697687 150.952855,82.2366618 142.761088,82.5366767 C152.847355,77.4099824 157.935958,66.7034298 163.967749,57.5715628 C167.03121,52.5827025 169.318946,48.3848501 171.169812,44.3557233 C171.486785,43.685533 171.575364,42.9597116 171.385102,42.5908451 C171.314081,42.2217168 170.17041,42.1808771 169.860906,42.0897731 C178.248963,28.9918715 191.131512,34.7587808 198.019746,27.1695297 C196.714378,27.228564 195.410321,27.2896927 194.106263,27.3522613 L193.805931,26.1018065 C196.267681,24.994029 198.599444,23.2739174 201.147283,20.6846527 C201.146104,20.6792859 201.144008,20.6733956 201.141387,20.6676362 C196.917351,21.987597 192.979888,22.9486395 189.105584,23.6054784 L188.638445,22.4118327 C192.119907,20.1466679 195.216782,17.0660175 197.595718,13.5014426 C193.158227,15.4605713 188.983984,18.2435629 184.378899,20.0267666 L183.685988,18.9425505 C186.311269,16.4343108 192.195514,12.6744382 190.521677,9.16353091 C183.980292,12.3087133 178.01179,16.3798578 171.711509,19.9335683 C171.706006,17.050179 173.735996,12.5156607 172.503745,10.1116146 C171.202701,8.50773919 170.588542,9.87233574 169.931402,11.1555146 C169.931402,11.1555146 167.195397,15.7506381 166.525547,16.8750395 C164.013612,21.3418843 160.484584,25.7568941 160.565695,31.0377846 C158.38187,29.9899577 156.664921,33.794335 155.245946,35.8716633 C151.257904,42.6429419 137.761588,53.2731818 134.781596,54.7214213 C122.647518,43.7361899 124.455797,25.1335647 111.557655,14.7581804 C107.421281,10.5417407 104.36411,10.0532348 99.48739,8.5035505 C98.3281257,8.22539532 97.0169921,7.24380208 95.9795901,8.18560277 C94.4404561,6.91040857 92.9423359,2.79279574 92.3072106,1.03367698 C91.9143684,-0.66810909 91.2591947,-4.85679874 90.3419516,-5.64217806 C89.4247084,-6.42755737 74.4867484,-7.08204012 73.1764011,-6.68935047 C71.8660537,-6.29666081 72.3901927,-3.15514357 72.3901927,-3.15514357 C72.3901927,-3.15514357 71.010659,2.54095077 71.010659,2.54095077 L70.8919415,2.50770305 C70.8704518,2.51594953 70.6860859,2.65823408 70.6628928,2.67420346 C69.6807874,2.66700415 68.7372063,2.20323767 67.7942803,2.20376126 C66.8003818,2.2248356 65.9958285,2.90222526 65.2335995,3.48222788 C63.8718865,4.51068208 62.4639183,5.57421657 60.8085564,6.21613326 C41.6107882,12.3428773 39.0743488,21.5646702 33.3305722,39.2826966 C28.6038871,39.4164728 24.6243622,38.8265221 20.5103956,38.5974531 C19.0624618,38.7812319 19.5331385,41.5911882 19.5772972,43.197027 C19.440628,47.1476159 22.3966406,46.7405276 25.3285429,46.7051855 C27.2675949,46.7283542 29.2190952,46.9212957 31.1373127,46.6941902 C29.071288,56.222412 24.9155214,71.1189632 29.4632129,80.0089334 C33.1455511,86.9744625 36.2707296,88.297303 39.2505905,88.5005854 C40.0139989,95.1684557 39.2538664,101.139695 39.392108,107.58779 C-4.54239777,119.415995 -6.56413272,188.07333 13.0741743,221.50287 C28.8427635,248.819017 58.4990692,247.322477 73.1984149,220.135917 C76.7531252,222.072139 83.8009596,221.938494 88.4944928,221.514389 C92.1881,221.297362 93.4000403,219.732363 94.719429,216.30667 C96.1935698,212.97509 97.5951174,209.686969 99.0955961,206.357354 C100.527937,202.834535 103.389867,198.786297 108.553945,198.94442 C108.530097,201.020047 108.144331,203.359037 109.550072,205.007156 C104.311827,206.785909 107.460199,215.074802 108.982429,218.946984 C101.788753,228.75035 104.212503,245.932748 114.275184,253.043834 C130.894975,264.188759 146.937427,243.110226 142.082721,226.961387 C142.878364,227.337322 144.355518,227.857898 144.991037,227.037176 C145.249961,226.845936 144.892237,225.996941 144.828554,225.720357 C155.975024,225.066398 166.910265,223.756909 177.962521,222.720993 C177.586976,232.977131 187.768899,243.085748 197.985546,242.857988 C211.317938,243.47582 219.306208,225.924686 215.273221,214.559462 C220.372045,214.41744 225.547262,213.989931 230.86321,213.269739 C233.769954,212.980065 235.622261,212.292334 235.508129,209.582121 L235.508129,209.582121 Z" id="ðŸŽ¨-Background" fill="#FFFFFF"></path>
                    <path d="M71.9160697,-2.63128248 C71.6001449,-2.52787421 71.6355243,-3.20460938 72.0771114,-3.13641228 C72.443319,-3.07936894 72.5791392,-2.58764752 72.6457894,-2.27560953 L72.6562849,-2.22537228 C73.2684792,0.639167862 72.5631192,3.66523434 71.1246199,6.17949531 C70.7636192,6.76748262 70.389384,7.57445986 69.6739343,7.73192841 C70.0133143,10.1548236 70.4784876,12.5579534 71.0550404,14.9350348 C73.1109754,15.6549658 75.0463585,16.7219036 77.0983625,17.460291 C81.0473563,18.8631094 85.2733576,19.2382589 89.4287312,19.5361794 C92.287385,19.6918154 95.2279355,19.565893 97.9433684,18.5870486 C99.0918878,18.273944 100.065476,17.2488931 101.27034,17.2520346 C100.461856,15.0464277 99.5668888,12.8734141 98.5736455,10.7399312 C95.4848946,10.7390149 93.1515591,7.74488717 92.2341849,5.08389117 C91.9000463,4.0236291 91.8030806,2.91231738 91.5908043,1.825876 L91.5120358,1.42014586 C91.4429408,1.05867076 91.3799575,0.694929793 91.3523211,0.328419448 C91.3431487,0.192287034 91.5449422,-1.00279848 91.4977697,-1.172964 C91.4926593,-1.12335421 91.4280592,-1.16275407 91.3981833,-1.1652411 C91.3169417,-1.26576966 91.3877005,-1.46748124 91.5488732,-1.45975834 C91.8096324,-1.46748124 91.9393567,-0.900699172 91.9983224,-0.746241241 C93.2512765,1.82273448 93.7286361,4.9802211 95.965137,6.90898179 C97.081815,6.20502014 98.4567625,7.12679366 99.5919164,7.40939931 L99.9203938,7.51327863 C105.226706,9.18344164 107.682622,9.58822739 111.944299,13.8305297 C119.224589,19.5047643 121.36989,26.7467469 124.235488,35.0893077 L124.404849,35.5425118 C127.159717,42.88734 129.383827,47.4433374 134.866336,53.4602461 C136.855919,52.5329173 149.216508,42.656472 153.459876,36.8541378 L153.585959,36.6795699 C154.80812,35.0163983 157.590249,29.1955596 159.867895,29.7485975 C160.07244,24.6310659 163.479344,20.3949917 165.882259,16.0844374 L169.293093,10.3564043 L169.293093,10.3564043 C169.62199,9.80388993 169.936473,9.0422029 170.402957,8.59309683 C171.195717,7.83010083 172.512747,8.53170634 172.987093,9.30530497 C174.292068,11.50188 172.649679,15.700256 172.407788,18.2664829 C178.255869,14.8825452 183.948542,11.1809217 189.99265,8.14948841 C190.501065,7.90471186 191.135273,8.09189393 191.296708,8.67961945 C192.317993,12.8989389 186.748492,16.4305279 184.059397,18.9548679 C188.458746,17.1886608 192.585602,14.6744829 196.843437,12.5695177 L197.127492,12.4298057 C197.705355,12.1300526 198.487632,12.7675188 198.078804,13.3801146 C195.669075,16.9966554 192.554379,20.1317588 188.920786,22.4957505 C192.975001,21.8085436 196.963698,20.8006401 200.901292,19.5689036 C201.542183,19.3686319 201.999363,20.2181505 201.544673,20.6735396 L201.330159,20.8901752 C199.177673,23.0488749 196.802272,24.9731155 193.999692,26.234156 C195.308729,26.1711948 196.617897,26.1098043 197.928245,26.0507699 C198.578046,26.0221036 198.794253,26.8179546 198.424866,27.2486043 C196.96894,28.9409658 195.00997,30.0393188 192.918918,30.7609514 C184.169073,33.1117226 176.823266,32.9102728 170.920544,41.1640858 C172.397563,41.4297508 172.182081,43.0763737 171.715938,44.1085036 L171.687097,44.1709105 C169.579404,48.7590964 167.085157,53.1603621 164.44389,57.4610992 C158.787121,65.8569349 154.14076,75.9476192 145.186632,81.3323106 C150.968147,81.135704 156.752413,81.0224785 162.538252,80.9750939 C164.141069,80.9614807 165.74397,80.9537316 167.34682,80.9518467 L168.548947,80.9515326 C170.138267,80.9515326 172.236133,80.6177463 173.606756,81.6045754 C176.240161,83.7209109 174.185668,87.6224135 171.269097,88.1796401 C169.431728,88.6728583 167.446289,88.5985091 165.561224,88.7424953 C165.920521,89.4358543 166.0091,90.2902161 166.055224,91.033185 C172.678375,91.44564 176.544424,96.6373899 178.350345,102.573025 C181.971621,113.939034 184.745495,125.558721 187.748156,137.099608 L188.088373,138.438117 C190.985827,149.814232 194.032179,161.157651 197.667355,172.32387 C198.904323,176.190555 200.316877,180.00488 201.455569,183.90167 C201.557121,184.248415 201.481907,184.565185 201.308286,184.817423 C201.093389,186.338964 200.120849,188.893149 198.483832,189.296572 C199.155254,190.615486 199.759062,192.044221 200.272325,193.41785 C207.657574,191.454402 213.85971,197.252072 220.067743,200.237429 C223.19397,201.872589 227.751882,201.414582 229.510106,205.023138 C232.34478,204.314464 235.79807,205.891113 236.085429,209.058679 C236.335705,212.319966 233.558948,213.262945 230.834867,213.457981 C225.936003,214.123328 221.008703,214.559083 216.067252,214.721264 C218.858161,224.123694 214.232504,237.811808 204.693699,241.677707 C192.146468,246.967891 177.570688,236.139212 177.249522,222.974291 C166.711708,223.971592 156.172323,225.214847 145.611185,225.85912 C146.048317,227.362336 144.054492,227.985666 142.909249,227.545199 C145.700682,240.214022 137.458466,256.298459 123.73677,256.247132 C106.055205,256.128162 98.9083082,231.546575 108.169319,218.392912 L108.080822,218.165065 C106.607654,214.360107 103.836281,206.530752 108.517872,204.276897 C107.529739,202.768314 107.777525,200.870576 107.810284,199.165517 C103.473165,199.361731 101.231947,202.4772 99.620613,206.155393 C98.1353343,209.44862 96.7200281,212.773392 95.2557149,216.077221 C93.8764433,219.65842 92.5153854,221.464923 88.4577638,221.703417 L88.0420096,221.733977 C83.5139027,222.062214 77.4949352,222.332693 73.4084243,220.514614 C63.7109365,238.241672 43.3634695,248.756723 25.7521389,236.048893 C-10.400345,211.114147 -9.06837688,117.669717 38.6671846,106.60189 C38.6865777,104.820781 38.7119984,103.040326 38.7431847,101.258824 C38.6409776,100.12395 38.6632535,98.9916953 38.7655917,97.8411146 L38.7876633,97.370498 C38.9186259,94.4666185 38.9491915,91.5319075 38.5907913,88.645501 C32.7981387,88.1757132 29.2895526,80.7691937 28.7052687,79.6483265 C24.2397359,71.0828488 28.3702129,55.2333708 30.2285475,46.9524622 C28.4258418,47.0955976 26.7781195,46.8761477 25.0158567,46.8966738 L24.4046452,46.9070446 C21.1294963,46.9579548 18.9297681,46.8207384 18.8468703,42.7389022 C18.8509324,41.0813592 18.1133379,38.0084317 20.2948041,37.4937465 C21.2801854,37.2962236 22.4437738,37.6455865 23.4304654,37.7427117 C26.5454232,37.9946876 29.664443,38.1860583 32.7889663,38.1666857 C35.4996819,30.4030803 37.6216584,22.0954688 42.784296,15.5228912 C47.1696355,9.96188207 54.183925,7.77198276 60.4897096,5.14410359 C62.2011543,4.48189793 63.6463364,3.33485145 65.1206082,2.22615766 L65.2223559,2.14719105 C65.9544554,1.58508122 66.7504911,1.11064851 67.7014684,1.08513241 C68.6259185,1.06039297 69.4857684,1.47926193 70.3904322,1.54039062 C70.5497705,1.42166745 70.7574605,1.34718731 70.9376333,1.39758248 C71.419317,0.065710069 71.7757315,-1.31839007 71.951318,-2.72147021 L71.9364037,-2.78606327 C71.9093334,-2.8929527 71.8989041,-2.8659613 71.9067662,-2.70327559 C71.9488284,-2.70327559 71.9552491,-2.64424124 71.9160697,-2.63128248 Z M123.736246,211.872955 C121.744518,211.872955 119.832721,212.29575 118.05458,213.06804 C117.641558,215.360039 119.528065,218.574858 120.162011,220.88335 C120.187694,221.837062 120.361184,222.809231 120.584336,223.752209 C120.742495,226.504571 121.907918,229.028257 122.448437,231.633229 C122.548809,232.128149 123.306845,231.918714 123.206472,231.424449 C122.732651,229.0886 122.09936,226.790057 121.554255,224.470701 C121.810297,224.624897 122.243891,224.416902 122.149808,224.0356 C121.947622,223.215141 121.947884,222.385388 121.980249,221.553016 C135.466345,223.25585 134.677646,245.661936 120.919392,245.971245 C111.990947,246.194554 107.015427,233.960308 112.062361,226.635468 C111.233829,224.855275 110.336372,223.106628 109.487529,221.322246 C102.257949,233.408972 109.829267,254.006722 123.736246,253.628955 C146.162579,252.995677 146.172669,212.511599 123.736246,211.872955 Z M204.70523,214.506593 C207.367201,219.466787 207.083118,226.131385 203.706877,230.703471 C199.888,235.900587 191.553798,235.29218 187.812232,230.304498 C186.333374,228.526661 185.194027,226.349066 185.12733,223.997902 C185.122089,223.479552 185.457669,222.561967 185.005468,222.154879 L182.113907,222.464203 C180.668051,222.61831 179.222119,222.770956 177.776282,222.919315 C181.966117,234.110446 192.26322,244.244588 204.835348,238.640121 C212.626542,234.344489 215.513369,224.084425 214.376904,215.71215 C214.312828,215.311476 214.458146,214.983057 214.694008,214.761842 C211.364416,214.838547 208.020933,214.855171 204.70523,214.506593 Z M68.1254968,129.575806 C45.9037089,94.448276 16.631466,117.191028 9.13837564,149.431373 C3.51121991,171.630119 5.50832033,198.730941 17.25755,218.380738 C31.0552457,241.781377 54.3412977,241.753889 68.1251037,218.381 C78.5572325,200.93699 81.3011261,177.612748 77.8464878,157.06579 C77.8476409,157.250003 77.7832145,157.434476 77.6500711,157.58234 C81.7104445,182.247177 77.1415253,212.766625 57.5717495,227.75284 C43.1251698,238.408866 26.2329577,229.69613 18.1230868,215.098154 C2.4266978,188.630609 3.63562428,140.098226 29.3834259,120.20339 C36.7332953,114.967266 45.3653396,113.973107 53.326093,117.716355 C53.4073345,117.221959 53.7139558,117.767143 53.8331974,117.962572 C67.5298653,125.230603 74.2996439,140.840933 77.4299328,156.37927 C77.6188512,156.484204 77.7449421,156.644775 77.805201,156.822751 C77.3766496,154.311501 76.8553154,151.842468 76.244016,149.431373 C74.3297295,141.975505 71.5975242,135.295854 68.1254968,129.575806 Z M118.470615,232.960782 C117.285799,232.204723 117.849641,234.472244 118.261353,234.893731 C118.55736,235.310768 119.144134,234.958132 118.940244,234.497376 C118.687478,234.128117 119.137058,233.004239 118.470615,232.960782 Z M39.7102735,118.449507 C6.46689184,127.783217 4.29040486,189.127493 20.3722981,213.753585 C27.7756297,227.01707 42.8160588,235.369187 56.0594776,225.615823 C58.2294128,224.083024 60.2801064,222.178479 62.1971446,219.923132 C53.6827695,219.853495 45.1849048,218.713386 36.6886125,218.072124 L36.4958876,218.054897 C35.2092543,217.943053 33.8894047,217.882199 32.7039772,217.327322 C29.1102185,215.56768 30.0895721,211.051356 33.3550888,209.474838 C35.1438439,205.951888 43.0423558,206.737529 46.5751833,206.550609 C45.7821611,196.422358 46.1945274,186.234548 46.079872,176.083259 C43.5535223,176.633024 41.0350347,177.208838 38.5204781,177.817638 C38.2217189,177.890809 37.9190286,177.847744 37.6635109,177.720644 C37.0500063,178.689016 35.8464522,178.797791 34.8816434,178.3085 C32.9305362,177.322718 32.7077772,174.758586 33.0759848,172.864382 L33.1145552,172.70063 C33.4361659,171.3618 34.079302,169.366841 35.6481966,169.263548 C36.6376399,168.64768 37.7139593,169.374941 38.07496,170.342005 C39.7315011,170.065552 41.2332902,170.501699 42.8485554,170.177206 C43.9189782,169.960834 44.9987044,169.413294 46.0995272,169.790931 C46.1376584,162.837968 46.1617687,155.884088 46.2358034,148.931387 C44.159558,149.626579 41.6258703,148.189465 41.0232415,146.114362 C40.6157235,144.733535 40.976069,143.149686 41.1673798,141.763361 L41.2034552,141.503899 C41.3263974,140.63473 41.4799572,139.726135 41.7753809,138.883637 C37.0999305,138.238448 38.0564841,128.446862 38.4115882,124.987659 C38.8468856,122.718829 39.1183896,120.74805 39.7102735,118.449507 Z M116.913398,157.926832 C114.837022,157.907579 113.353315,160.154025 114.552021,161.942596 C116.96424,164.664459 120.450681,162.210803 124.188709,169.548733 C130.390976,184.233493 133.252382,200.118313 137.112272,215.528764 C139.053289,217.545749 140.232602,220.110013 141.657867,222.505682 C142.18384,223.406773 142.344489,224.677779 143.299732,225.247833 C143.484491,225.334356 143.63256,225.348755 143.778009,225.326502 C141.795977,224.228411 142.211227,218.80589 142.619662,216.833934 L142.601985,216.834705 C142.42192,216.846822 141.76358,216.990557 142.065385,216.679345 L142.38642,216.576166 L142.38642,216.576166 L142.707455,216.473968 L142.729731,216.394122 C137.153024,203.454866 135.940821,189.008469 131.944393,175.533454 L131.587918,174.337744 C130.207139,169.731804 128.613133,164.915047 125.119056,161.495584 C124.985793,161.487861 124.849648,161.438775 124.724641,161.333534 L124.59897,161.223941 C122.536687,159.44074 120.002348,158.001374 117.180578,158.261523 C117.067888,158.269508 117.049543,158.096724 117.154371,158.069236 C117.220413,158.051696 117.286847,158.038606 117.353151,158.023553 C117.205999,157.994232 117.059371,157.961639 116.913398,157.926832 Z M106.995248,194.495128 C106.40035,194.732051 105.79497,194.565813 105.122762,194.58152 C104.419105,194.598537 103.735104,194.715035 103.059227,194.907714 C91.951805,198.11913 93.5894772,214.801765 85.5016201,216.73707 C83.4801472,217.129629 81.4451778,216.826996 79.4178083,216.555124 C78.1242334,216.601331 76.9357484,216.561669 75.6976011,216.29464 C75.1159379,217.462237 74.5064954,218.601037 73.8722873,219.713658 C75.346166,219.48328 76.8474309,219.543231 78.3367718,219.517182 C81.8393303,219.572159 85.3416267,219.428958 88.8194197,218.992418 C90.0576979,218.852359 91.2003208,218.50797 91.9330671,217.434749 C93.5867254,214.641548 94.7186035,211.53655 96.2059788,208.649103 L96.4015893,208.208062 C98.5303075,203.422883 101.346558,197.680715 107.335938,197.666621 C107.370007,197.321185 107.639939,197.043684 107.94656,196.958602 C107.980629,196.461195 108.014698,195.963788 108.051388,195.465072 C107.705325,195.133249 107.450332,194.705086 106.995248,194.495128 Z M33.0668123,210.780008 C32.4184525,211.869198 32.4855422,213.780418 33.6472962,214.535299 C34.434815,214.982965 35.5577827,214.933224 36.430474,214.996055 L37.9336207,215.106508 C38.4346136,215.143367 38.9355227,215.180715 39.4362641,215.219902 L40.1872399,215.280231 C47.3520883,215.851202 54.5097297,216.4744 61.6651436,217.124564 L61.6975735,217.112561 C61.7971185,217.076585 61.95342,217.026391 61.95342,217.026391 L62.0646237,216.975178 C62.223587,216.898938 62.0310624,216.968359 62.0122312,216.977354 L62.0110753,216.977959 C62.8090769,216.464845 63.6686647,217.05257 63.8573547,217.831274 C64.5728044,216.873242 65.2659782,215.86403 65.936876,214.80115 C64.9939501,215.076949 63.9923205,215.11805 63.0174221,215.056398 C62.3470484,215.817561 61.1431012,215.538228 60.2473478,215.521081 C53.9174527,215.015427 47.6044612,214.285679 41.2944835,213.578576 C39.6919286,213.391263 38.0880634,213.202903 36.4855086,213.014281 L36.1237527,212.981529 C34.706859,212.84748 33.0026787,212.575542 33.0668123,210.780008 Z M170.860268,198.381316 C170.195922,199.103996 168.923575,199.300341 168.07578,199.721828 C167.096951,200.210072 166.162804,200.801724 165.32392,201.504377 C161.525747,205.020651 157.659698,210.613337 151.713473,208.142403 C150.464187,207.659264 149.299682,206.889985 148.518715,205.787181 C148.171211,205.958525 147.76841,205.630498 147.416319,205.585601 C147.720975,207.226127 147.849258,208.78432 148.311811,210.38597 C148.512294,211.087575 148.738984,211.782636 149.018088,212.456753 C149.305447,213.14684 149.82369,213.844911 149.804296,214.617724 C154.309402,213.656289 158.863776,213.037934 163.430599,212.478875 C165.145319,212.416175 168.041449,211.496103 169.460817,212.370492 C171.142648,213.416749 170.388281,215.352185 171.284821,216.070938 C172.65361,216.739034 174.422186,216.235082 175.903795,216.195028 C182.358304,215.646833 188.872696,215.283726 195.316592,214.743385 C199.186702,214.034057 196.654718,212.847479 198.321349,211.897694 C198.315059,205.951326 191.161873,206.578451 186.965879,206.052901 C185.700607,206.557507 184.421315,207.02363 183.126692,207.447997 C182.488029,207.657431 182.046966,206.8032 182.489208,206.354225 L183.388499,205.441222 L183.388499,205.441222 C182.774864,205.302602 182.16529,205.147097 181.562137,204.968031 C180.713032,205.353144 179.820632,205.640163 178.989156,206.065572 L178.833994,206.147016 C178.266745,206.452659 177.598205,205.830246 177.937585,205.251553 C178.200572,204.803363 178.408917,204.343916 178.571007,203.865227 C177.776814,203.506162 177.005769,203.096131 176.272341,202.628771 L176.126161,202.534533 L173.743688,203.86418 C173.277335,204.124402 172.575644,203.685244 172.781237,203.125269 C173.025355,202.352456 173.747095,202.025083 174.295999,201.506995 C174.234544,201.374528 174.198378,201.198995 174.227992,201.064434 C173.155604,200.126953 172.219885,198.930034 170.860268,198.381316 Z M202.609985,216.301185 L202.533985,216.312966 C202.539226,216.322128 202.543157,216.329982 202.548399,216.337705 L202.581157,216.333909 L202.549709,216.339145 C202.570675,216.370429 202.599502,216.394122 202.636192,216.403153 C202.628767,216.380552 202.622157,216.358125 202.616867,216.335446 L202.609985,216.301185 Z M115.661885,140.492316 L115.853621,142.28181 C116.362255,147.050705 116.846236,151.797008 117.22513,156.571649 C117.275316,156.61851 117.316461,156.673093 117.350661,156.731866 L118.478149,156.935471 C120.446029,157.294503 122.07655,157.666432 123.86086,159.016927 C129.806168,162.194703 131.79842,169.192563 133.621506,175.195872 C137.618328,188.359614 138.993669,202.260959 144.396493,214.99091 C144.555045,215.35873 144.545872,215.68728 144.435803,215.953 C145.371391,215.683222 146.312221,215.433341 147.258291,215.201523 C145.986992,212.75559 145.438219,209.092843 145.792406,206.358152 L145.65399,206.353961 C145.212513,206.343008 144.679477,206.341494 144.326782,206.06874 C143.630767,206.264336 143.041154,205.601366 142.975153,204.971927 L142.972407,204.941982 C141.046983,183.376514 139.649235,161.59127 134.435232,140.509464 C133.757052,141.197346 132.532236,141.039102 131.620653,141.079017 L131.572123,141.081351 C130.750535,141.12075 129.927637,141.152035 129.104739,141.178476 L128.747765,141.183015 C124.400908,141.245532 119.923395,141.559341 115.661885,140.492316 Z M83.6854787,157.791735 C86.6882707,176.663615 84.0321966,199.317619 76.2164987,215.229142 C78.1064127,215.190397 79.9452232,214.683434 81.8313372,214.689718 C85.1876609,214.744694 86.8254641,214.059712 88.1749908,210.865182 C91.4167902,203.479475 94.6550517,193.994056 103.798131,192.591762 L104.226055,192.550913 C105.503006,192.431032 107.649722,192.300665 107.650422,193.813157 C107.815919,193.794177 108.005002,193.811718 108.174561,193.857662 C108.202078,193.504242 108.229595,193.15069 108.258423,192.798709 L108.282432,192.102266 C108.3621,189.902967 108.597632,186.858872 111.34036,186.883494 C111.37705,186.641335 111.456981,186.400486 111.553946,186.162254 C108.79252,184.800537 108.889355,177.807258 108.579458,174.990233 C108.326823,170.982181 108.34674,166.959861 108.43794,162.946442 C108.448423,162.548385 108.524423,162.018385 108.369802,161.693762 C106.945848,160.761909 106.633723,159.546011 106.58642,157.882054 C98.9625566,158.074734 91.3149762,157.869619 83.6854787,157.791735 Z M116.830715,164.951777 C117.496634,166.453946 117.542234,168.187409 117.734855,169.805421 C117.894717,171.730909 118.007407,173.656397 118.120097,175.584373 L118.144845,176.026103 C118.183647,176.699096 118.238964,177.352869 118.484374,177.996927 L118.541064,178.147267 C118.829888,178.920231 119.050523,179.638449 118.970513,180.491815 C118.784443,182.486679 118.46996,184.505104 118.105814,186.473788 C117.596351,188.14285 115.69923,187.078922 114.620159,186.689767 L114.631814,186.800645 C114.704013,187.521486 114.701347,188.242194 114.299124,188.79851 C117.278592,188.702432 117.491261,190.844031 117.153061,193.234464 L117.133223,193.549676 C116.925671,196.917147 116.856509,200.446677 117.774165,203.703701 C119.322603,204.371142 120.44675,205.625917 121.52438,206.868649 C122.158588,207.605727 122.951348,208.388488 123.45059,209.25895 C127.654185,209.183816 131.66162,210.676953 135.014406,213.494763 L134.618266,211.814733 C132.024959,200.799531 129.485875,189.756382 126.013761,178.977211 C124.256454,173.877482 122.88583,166.434442 116.830715,164.951777 Z M52.2529185,156.321806 C52.2620909,161.116547 52.2961599,165.909979 52.3262979,170.704719 C53.7663697,170.907609 55.1566482,171.323729 56.4971336,171.923235 C57.347549,172.302966 56.9570655,173.454856 56.2625814,173.717827 C54.9967859,174.196909 53.673335,174.473231 52.3511945,174.749292 C52.2149184,185.17049 52.9062577,195.64313 51.8729177,206.027023 C54.9798824,206.492229 55.2059173,209.992927 54.6180955,212.451426 C58.0584125,212.754844 61.5263778,213.62295 64.9762604,213.01559 C65.9926968,212.960221 66.6400084,211.814614 67.5708792,212.02863 C75.6980467,197.779886 78.3496656,175.580354 75.0608247,157.981575 C67.4433824,157.858532 59.7976365,157.38966 52.2529185,156.321806 Z M50.1694662,175.20887 C49.4487751,175.36071 48.7293944,175.513859 48.0087034,175.667008 C47.9020411,185.966341 48.3361592,196.310441 47.5225645,206.584642 C47.8270892,206.568804 47.7637994,206.769992 47.5042196,206.787663 C47.4884955,206.963064 47.4714609,207.138466 47.4544264,207.313736 C47.4059436,207.834835 46.6931146,207.833526 46.6446317,207.313736 C46.634149,207.20771 46.6249765,207.103124 46.6158041,206.997097 C45.2425601,207.298029 43.8483505,207.51139 42.4644926,207.743077 C40.4257231,208.246243 35.5259412,207.91874 35.1594371,210.570442 L36.7448345,210.708219 C42.094252,211.175746 46.7940434,211.615195 52.0982975,212.175365 C52.3629877,210.547012 53.6239349,208.141919 51.6357449,207.108229 C51.3487788,207.380493 50.7958122,207.25889 50.7485087,206.741718 C49.652141,196.273921 50.3218596,185.716852 50.1694662,175.20887 Z M207.799354,196.422057 C201.462907,193.889994 198.168169,196.841318 193.091622,200.082971 C190.469486,201.564851 186.89263,202.2086 184.253329,200.486264 C183.041257,200.556817 182.474794,199.225468 182.574905,198.164028 C182.573463,198.090857 182.572153,198.018864 182.572153,197.94674 C181.096047,198.835134 182.010014,201.300571 181.695662,202.755879 C184.707888,203.700821 187.842894,203.932246 190.97148,204.158043 C195.025497,204.248236 199.91429,206.239712 200.390292,210.765102 L200.40336,210.903011 L200.713912,210.893718 C200.713912,210.43628 201.002866,209.964787 201.577081,209.918797 L201.614121,209.916444 C209.989468,209.388931 218.452609,209.416681 226.785894,208.566508 C227.78713,208.282462 228.144724,207.622744 227.876103,206.643637 C227.230233,204.28619 223.922785,204.171002 221.974298,203.622414 C219.626942,202.961779 217.519772,201.80413 215.453355,200.562184 C214.572408,200.808924 213.681896,201.016264 212.783653,201.190487 C212.347831,201.275177 211.777437,200.890472 211.977658,200.385473 L212.123208,200.016808 C212.270148,199.649667 212.450025,199.231606 212.678563,198.877152 C212.005569,198.475431 211.327333,198.084574 210.637173,197.718456 C209.467426,198.13222 208.359265,198.674263 207.306925,199.344453 C206.670985,199.749503 206.021085,198.857129 206.496156,198.334399 L206.512986,198.316522 C207.062152,197.753144 207.488277,197.119604 207.799354,196.422057 Z M165.721086,197.196833 C160.073358,199.954693 154.081925,202.01147 148.304866,204.504657 L148.421419,204.548005 C148.623801,204.624722 148.854513,204.727421 148.928984,204.910567 C151.101802,206.630286 154.157139,207.331237 156.736165,206.109579 C160.456503,204.115501 162.302259,199.820262 166.107638,197.879982 C165.951707,197.664134 165.820672,197.433625 165.721086,197.196833 Z M112.029603,189.585199 C111.843533,189.553784 111.294498,189.312934 111.147739,189.376942 C110.773242,190.311282 110.761841,191.416572 110.658848,192.413873 C110.310427,196.303988 109.594453,200.150776 109.197942,204.028324 C111.160056,203.489423 113.177598,203.169119 115.196712,203.125138 C115.032526,201.922722 114.899656,200.727375 114.829815,199.517498 C114.70009,197.163455 114.795222,194.790693 115.148229,192.458378 L115.172484,192.331742 C115.554762,190.303247 115.250955,190.212267 113.337329,189.497498 C112.92588,189.637557 112.467259,189.661119 112.029603,189.585199 Z M155.142652,97.8226582 C151.872418,94.701299 146.996877,95.0805063 142.80049,95.0634898 C133.853438,95.0615263 124.92591,95.8750484 116.102162,97.3175284 C115.85241,97.7564246 115.150588,97.8556441 114.81147,97.5295808 C112.382086,97.9353601 109.960564,98.3804084 107.544284,98.8555629 C108.212561,103.078286 108.746003,107.324439 109.34208,111.557764 L109.380393,111.818647 C109.643155,113.655835 109.772214,115.7121 108.521803,117.228203 C108.486423,121.91875 108.30743,126.626052 108.289871,131.323144 C108.978328,130.668268 110.089109,130.743272 110.974773,130.58096 C112.788818,130.164447 114.515856,129.863647 116.355059,129.761548 C118.20658,129.478811 120.058101,129.196075 121.910932,128.914647 C122.196588,128.870011 122.425899,128.993185 122.568726,129.177749 C124.939145,128.898547 127.299867,128.422214 129.679457,128.268149 L129.538443,127.845807 C128.83505,125.7215 128.192279,123.416542 129.203539,121.304976 C129.443595,120.810318 130.227969,120.839246 130.476411,121.304976 C131.348316,122.938958 131.385661,124.801616 131.720586,126.587568 C131.912813,127.611965 132.310635,128.701155 132.495918,129.781313 C133.478941,131.406001 133.969797,133.3112 134.60977,135.091655 C141.602177,157.140918 142.44342,180.486972 145.076563,203.313498 C149.160916,201.619828 153.296372,200.033362 157.39527,198.377651 C160.340144,196.938836 167.021868,195.811424 166.692839,191.657291 C166.708171,191.316306 166.688253,190.978593 166.649336,190.642319 C166.729529,190.509198 166.841957,190.398197 166.973778,190.312984 C165.621368,184.997536 165.048747,179.508782 164.702946,174.046338 C163.803917,159.031587 163.35984,143.988956 162.90148,128.955094 L162.879925,128.318502 C162.533673,117.890943 162.422187,106.033773 155.142652,97.8226582 Z M166.127818,158.06544 C166.663579,168.083338 166.426338,178.242485 168.822633,188.051103 L168.896058,188.348226 C169.127727,189.289373 169.743328,190.6147 169.352321,191.59878 C169.338169,192.801589 169.762328,194.67642 168.727547,195.526462 C168.285305,195.848861 167.71609,196.04874 167.182647,196.252022 C167.441441,196.553477 167.803621,196.761079 168.161084,196.88399 L168.220861,196.855359 C169.212854,196.390538 170.955766,196.075039 171.20489,197.459935 C173.081307,197.607718 174.896138,199.40244 176.409589,200.361912 C177.184005,200.852774 177.985937,201.284602 178.810146,201.663024 C179.071822,199.673265 180.236983,197.151412 182.570843,197.215028 C182.570843,196.011303 182.365773,194.823679 182.18547,193.63684 C181.100502,193.810147 180.016845,193.882402 178.919691,193.835541 C178.191531,194.360436 177.470316,193.782397 177.375577,192.995447 C174.012571,181.306254 170.254102,169.569153 166.127818,158.06544 Z M196.633622,188.503993 C192.154068,189.908382 187.237121,189.938881 182.93643,191.874449 C184.227253,193.724148 184.724268,195.959599 185.039537,198.156305 C185.334365,198.386552 185.532228,198.750575 185.547952,199.144574 C185.555945,199.28267 185.543235,199.421813 185.50209,199.552971 C190.287478,200.553544 193.797113,196.500464 197.646389,194.451933 C197.121595,192.536 196.869746,190.485113 196.633622,188.503993 Z M185.052641,198.334324 L185.054082,198.361813 L185.054082,198.361813 C185.047399,198.584337 185.221675,198.513522 185.052641,198.334324 Z M181.953669,192.289391 C181.880552,192.321722 181.808089,192.356802 181.734972,192.389788 C181.810579,192.378531 181.886186,192.367798 181.961662,192.355232 C181.959041,192.333241 181.955897,192.31125 181.953669,192.289391 Z M170.824889,95.2388912 C165.602368,91.7095274 155.185893,93.3584313 148.997122,93.7740279 C161.223712,94.6995974 163.247281,111.478441 164.218248,121.135465 C164.999084,131.509017 165.289326,141.919219 165.860245,152.307039 C170.729234,165.300354 174.680455,178.627718 178.844215,191.860181 C182.226221,189.965977 185.924022,188.761729 189.752857,188.137352 L190.30512,188.05738 C193.512059,187.58825 196.772464,187.002219 199.414048,185.00251 C189.955698,161.925187 185.996615,137.012955 178.805297,113.198945 C176.693542,107.240011 175.996044,99.4216905 170.824889,95.2388912 Z M198.768046,187.553553 C198.588398,187.660234 198.403508,187.760108 198.21508,187.853699 C198.314404,187.831447 198.420018,187.827782 198.526418,187.842966 C198.608315,187.749636 198.696108,187.642825 198.768046,187.553553 Z M112.889321,137.712073 C112.025803,136.267368 110.117544,134.958141 108.424968,135.585659 C110.974511,137.141103 110.420627,141.637661 110.608138,144.267504 L110.603966,144.415916 C110.54166,146.897106 110.752444,152.134502 109.386632,153.903977 C109.482156,155.045002 109.48386,156.22726 109.600219,157.375484 C109.635598,157.795662 109.553046,158.581042 109.800702,158.952788 C112.534741,160.483361 111.208801,164.153962 111.371939,166.701864 C111.24798,171.579462 111.589326,176.448028 111.730974,181.32039 C111.721933,182.58027 111.599416,183.92353 112.01912,185.129349 C112.556362,183.982695 114.086848,184.059924 114.419676,185.220977 C114.687773,184.869127 115.22685,184.841508 115.688092,184.904338 C115.850575,183.35845 116.100852,181.81387 116.154576,180.266673 C116.180783,179.497002 115.727403,178.863462 115.560858,178.127824 C115.226064,175.336455 115.607113,172.484219 115.64092,169.677011 L115.649045,169.593216 C115.756658,168.432337 115.840508,165.559201 116.496577,164.854913 C112.250789,164.092441 110.907552,158.751076 115.051264,156.778465 C114.994526,156.517719 115.048905,156.242706 115.22816,156.045575 C114.875284,151.819842 114.419021,147.599344 114.01871,143.376098 C113.847054,141.47404 113.853606,139.419095 112.889321,137.712073 Z M35.8912661,173.717696 C36.2120391,173.283512 35.5197826,172.814903 35.2379269,173.275528 C34.9470298,173.767306 34.7778639,174.368776 34.8964504,174.935296 C34.9620988,175.249055 35.4765411,175.336494 35.6149138,175.029018 C35.7338934,174.776388 35.7759555,174.505563 35.8350522,174.23513 C35.9937352,174.112349 35.9955697,173.880662 35.8912661,173.717696 Z M38.3082018,171.166653 C38.3213053,171.241264 38.3330984,171.317184 38.3435812,171.393235 C38.4615124,171.349909 38.5833747,171.314697 38.7091681,171.283282 C38.5755127,171.2465 38.4418572,171.207362 38.3082018,171.166653 Z M48.6049114,140.063146 C48.282566,140.264595 47.9012549,140.391696 47.5015989,140.450599 C48.2308072,150.432901 47.8176547,160.485495 47.9929792,170.492667 C48.7117047,170.657597 49.4613544,170.519763 50.1904317,170.57631 C50.36877,161.842368 50.0351556,153.115233 50.5953291,144.387837 C50.1061764,143.138822 49.7936585,141.622516 50.1563627,140.292215 C49.6322237,140.241034 49.1133262,140.166423 48.6049114,140.063146 Z M103.729862,153.906726 C97.2653946,154.159749 90.7566372,154.048094 84.2829971,153.968247 C83.8741687,153.956466 83.4535472,153.953718 83.0276843,153.95123 C83.1940984,154.82431 83.3500298,155.703804 83.494168,156.587356 C91.1569483,156.499001 98.8365011,156.318756 106.494695,156.483948 L106.462121,156.126083 C106.429997,155.765048 106.401005,155.395674 106.391178,155.028509 C105.439735,154.956123 104.509519,154.548904 103.729862,153.906726 Z M69.293986,139.309051 C68.8234402,139.915887 67.79259,139.52647 67.1096369,139.584064 C66.9353607,139.862874 66.6366015,140.068251 66.2146697,140.090634 C62.9663185,140.263286 59.7114157,140.29732 56.4578232,140.344442 C55.5086075,141.443973 53.8217974,140.809649 52.6001605,141.255482 C52.4503878,142.01586 52.4426568,142.804905 52.269953,143.568424 C52.1965735,143.880089 52.0878147,144.174606 51.9659524,144.463757 C52.2306426,147.352644 52.2502978,150.28093 52.2502978,153.17754 C53.858225,152.7088 55.5974491,152.788123 57.2584454,152.681442 C60.8604593,152.589553 64.4633904,152.625811 68.0661905,152.618743 C69.6578694,152.589815 71.4575005,152.685893 73.0101311,152.665735 C73.4076905,152.522272 73.9702226,152.750425 74.0518573,153.208955 C74.3496992,154.378123 73.024676,154.465301 72.2330951,154.40679 C71.2778519,154.385846 70.3226087,154.364903 69.3686758,154.345137 C65.4610889,154.248405 61.5528468,154.176935 57.6489289,154.00101 C55.8583393,153.853752 53.9775977,153.901398 52.2502978,153.364722 L52.2511178,155.546287 C52.2515171,155.763845 52.252093,155.963691 52.2529185,156.130697 C59.7395882,156.101115 67.2304509,156.21578 74.7188241,156.147714 C73.5705667,150.319676 71.6915285,144.37514 69.293986,139.309051 Z M165.984466,154.935442 C165.954066,155.318576 166.090342,155.640712 166.270121,155.970833 C166.174204,155.626052 166.077762,155.281139 165.984466,154.935442 Z M79.1780148,139.811785 C80.6140245,143.767479 81.789406,147.942948 82.6948561,152.279682 C89.1404548,152.139491 95.5747845,152.208474 102.019859,152.219338 C99.6451165,149.431373 97.1250564,150.197117 95.9423369,148.424778 C95.0856318,147.050757 95.8010815,142.549486 96.0250198,140.835396 C91.0069136,140.622689 85.9658762,140.597557 80.9704389,140.028942 C80.4043689,139.954462 79.7885056,139.903282 79.1780148,139.811785 Z M43.6937295,138.305074 C43.5744879,138.404686 43.4447635,138.493696 43.307177,138.569616 C43.6519294,139.474242 43.2986597,140.385413 43.6031845,141.307056 C43.6160259,142.395329 43.5607292,143.491065 43.6151086,144.525409 C43.6107845,145.510406 44.2232408,146.128106 45.1062839,146.191591 C45.4260087,146.210048 45.8492509,146.135437 46.2855966,146.265024 C46.3723416,144.337442 46.2969966,142.378575 46.6131834,140.472852 C46.4109968,140.454788 46.2122171,140.420624 46.0218236,140.371931 C45.9927339,139.464425 45.1056288,138.590167 44.1951994,139.053802 C44.0133232,138.811775 43.8475643,138.556788 43.6937295,138.305074 Z M102.375094,137.620184 C102.100576,137.652646 101.834314,137.713775 101.578534,137.81823 C101.638417,140.278955 105.194307,138.550989 105.680707,141.570511 C105.761556,142.281934 105.673763,142.997153 105.650045,143.710015 C105.638645,144.074693 105.35181,144.647365 105.749501,144.860596 C105.954046,145.157469 106.514613,145.099351 106.46495,144.672367 C106.455778,144.593829 106.449488,144.51372 106.444116,144.433219 C106.619178,144.123256 106.72571,143.797978 106.782841,143.46249 C106.993807,143.353453 106.930648,143.073465 106.836958,142.876335 C106.782317,142.448696 106.960786,141.695386 106.492599,141.467757 C106.444509,138.628218 105.389548,138.17728 102.750902,137.946378 C102.571646,137.927529 102.458039,138.016015 102.407067,138.139058 C102.337356,137.987087 102.339322,137.804879 102.375094,137.620184 Z M100.035993,100.253407 C98.1476515,100.854353 96.0387785,100.97949 94.0778436,101.354378 C81.4137295,103.125932 69.2459748,108.345825 56.3319774,108.205373 C55.8903903,108.18456 55.4763206,108.119112 55.0884578,108.013086 C55.0897681,108.214666 55.1172854,108.421483 55.1605269,108.621755 C55.4029411,108.828571 55.5536311,109.154373 55.6008036,109.484363 C65.2940982,114.394685 72.61134,124.373584 77.2005696,134.878294 C82.886822,134.104826 88.568095,133.227296 94.2665337,132.51692 L95.3007375,132.383076 L95.3007375,132.383076 L97.3694362,132.117686 C98.3770934,131.990454 99.4996679,131.670936 100.501166,131.88469 C100.957954,127.317186 100.959133,122.863038 101.303099,118.267391 C100.296752,117.462508 100.533925,115.743836 100.493435,114.556604 C100.263731,109.791054 100.243683,105.018042 100.035993,100.253407 Z M106.570695,118.523948 C106.227384,118.614397 105.873591,118.647122 105.542073,118.59869 C104.657195,119.030518 103.347241,118.806815 102.367101,118.706025 C102.481101,119.766287 102.579377,120.829167 102.621308,121.894534 C102.786412,126.049322 102.720895,130.29037 102.347446,134.442408 C103.689897,134.536785 105.032741,134.701191 106.372833,134.810097 C106.385412,129.391503 106.638178,123.94961 106.570695,118.523948 Z M55.4147867,121.899809 C56.4827198,126.347412 61.3223567,133.1522 66.1871524,133.558896 C63.2257673,128.770569 59.8214849,124.996822 56.0594776,122.340931 C55.8445806,122.189091 55.630994,122.043926 55.4147867,121.899809 Z M98.8645426,88.3223174 C98.7099216,88.3262443 98.5553006,88.3275532 98.4006796,88.3248044 C99.3315504,89.676704 99.1657914,91.7826986 98.0403341,92.9730719 C101.968493,95.4053916 101.845059,100.846369 101.976618,104.929163 C102.133073,108.879621 102.343122,112.82157 102.508619,116.767316 C102.508619,116.695454 102.744481,116.796244 102.828343,116.810643 C103.359951,116.879625 103.898111,116.903187 104.434829,116.880018 C105.245672,116.557227 106.314391,116.550813 106.873386,115.768706 C107.536421,114.881097 107.384421,113.553937 107.270421,112.526399 C106.993938,110.039364 106.620489,107.561362 106.306267,105.079432 C105.439997,99.7768128 105.548887,89.4613792 98.8645426,88.3223174 Z M97.4008846,93.5437808 C94.2462233,95.5222822 90.0960911,94.7515633 86.5328635,94.9705532 C83.9292033,95.0085132 81.3242327,95.0202939 78.7193932,95.0110003 C69.9458314,94.9613905 61.1775109,94.6118967 52.4114181,94.2506222 L52.4308937,94.6145514 C52.5921687,97.5261681 52.8904549,100.440516 53.738931,103.237849 C54.2208768,105.154174 54.9409126,105.86455 56.9583235,105.694908 C67.7389443,105.535214 77.9672538,101.693007 88.4747983,99.7624142 C92.2310401,99.1371214 96.0491302,98.603587 99.8197858,98.1605022 L99.7782821,97.9255893 C99.4762222,96.2504185 98.9882305,94.3574941 97.4008846,93.5437808 Z M99.6939925,9.00293393 C99.8433721,9.28344524 99.9294619,9.53594469 99.8630273,9.7973451 C112.489928,36.8189748 109.155356,67.5544014 115.821748,96.0529368 C115.952521,96.1301658 116.026817,96.2521614 116.09561,96.3801782 C118.251132,95.9483505 120.422377,95.5738554 122.601485,95.2493629 C122.352126,94.6070535 122.73632,94.0254801 123.175417,93.6079201 C123.181969,93.5437808 123.269762,93.3420692 123.275004,93.3420692 C122.453547,83.2344993 121.257462,73.1277148 120.228315,63.0304857 C119.58559,55.9936179 118.413222,48.8914328 118.730719,41.8185686 C118.742512,41.7361037 118.849961,41.761105 118.873809,41.8185686 C120.573329,47.9311757 121.556614,57.2085997 123.255348,69.5463851 C135.520331,83.9256331 142.746372,86.441203 154.541333,69.7768939 L155.146885,68.8867187 C160.659696,60.7707372 166.038338,52.4989095 170.222129,43.6106732 C164.988471,43.4426021 162.163231,37.9452087 159.92673,33.9125477 C159.548564,33.7082182 159.296322,33.3994332 159.089418,32.9844912 C157.317435,35.1929778 155.914839,37.9171968 154.12045,40.1599783 C149.666186,46.0118396 139.434076,53.267959 139.210007,53.5005622 L139.167196,53.5389958 C138.494502,54.1541565 136.468604,56.47851 135.842414,56.4160211 C133.113616,58.9444189 127.046183,47.1672634 126.31632,44.948436 C124.536868,40.6262319 123.102038,39.2976319 121.558318,34.8891669 L121.292368,34.0948997 C119.166148,27.7250713 117.028945,21.0147502 111.707257,16.5623407 L111.498589,16.340712 C108.092507,12.7367962 104.779959,9.92525721 99.6939925,9.00293393 Z M164.769774,88.790927 C163.257633,88.8838636 161.744182,88.9740513 160.232041,89.0645008 L158.832945,89.1473326 C147.79464,89.808213 136.733126,90.6244746 125.672939,90.1430884 C125.776981,91.6978777 126.320513,93.3088215 125.721422,94.8200222 C133.352099,93.9279622 141.033355,93.3787203 148.697053,93.7479794 C153.251427,91.5966946 158.778997,90.9220538 163.899703,90.8943037 C163.986055,90.1793468 164.282849,89.3711914 164.769774,88.790927 Z M87.1447957,76.5771007 C79.7172227,73.2613601 72.452919,76.6366586 69.8390381,84.655905 C70.0222246,84.8065669 70.14828,85.0716324 70.1798594,85.339185 C70.8676607,86.2571625 72.1288701,86.228627 73.162079,86.3588691 C75.2402899,86.633621 77.2557352,87.3039422 79.0927112,88.3183905 C80.10692,88.8722138 80.9786941,89.6733007 82.0257927,90.1567017 L82.5891656,90.6856728 C83.5294673,91.5653885 84.4937009,92.4122892 85.7398413,92.8768629 C87.0305334,92.9442746 85.3633785,90.429621 85.0920055,89.9409841 L84.9910538,89.7786688 C84.4474161,88.9160734 83.7485516,87.9338413 84.4925216,86.9539248 C85.848207,87.6036953 86.9405126,88.5410455 88.0309837,89.5870399 L88.2281043,89.7781587 C89.289171,90.8158152 90.5093592,92.1180556 92.0333086,92.2876975 C92.2901367,92.3163639 92.4771233,92.0141237 92.4125232,91.7905524 C91.7283908,89.523555 89.7288007,87.9386596 87.8675833,86.5775972 C87.8835696,85.9314919 88.3327566,85.4372265 88.9204474,85.2962509 C91.532756,86.8007759 93.3564974,89.183224 95.9106265,90.7261017 C96.1860615,90.8890679 96.4752552,90.6736121 96.5022483,90.3869487 C96.4863931,88.3804354 94.4408099,86.8427937 93.0308761,85.654253 C92.7376204,85.427671 92.4375508,85.2082884 92.1319778,84.9964978 C92.2014262,84.5943836 92.5691097,84.2425337 93.0285175,84.1774781 C93.8663536,84.415448 98.8893081,88.3153799 98.9033289,86.5128034 L98.8938999,86.4636964 C98.7600439,85.8295495 98.0319325,84.4541373 97.3286844,84.6238353 C94.7252863,81.4087542 90.9869963,78.0661799 87.1447957,76.5771007 Z M67.6153786,2.87566634 C64.9907528,4.38241655 62.4727893,6.01378028 59.8450187,7.50547738 C56.4957708,9.42442083 52.897557,10.9140236 49.6788197,13.0616433 C39.8778145,20.2838606 37.0369814,35.5062132 33.4725745,46.6082043 L32.9679914,48.7633597 C30.9250311,57.5057116 27.8576155,71.4313112 31.5586811,78.5561257 L31.5847826,78.612343 C32.0469182,79.5925436 34.2448041,83.5673823 35.3769023,84.2735561 C38.6947019,86.3431615 45.6332532,87.0464687 51.6633408,86.6414748 C57.4043657,86.3748385 63.056418,85.2764855 68.6597254,84.121847 C68.7879123,82.1920872 69.7319482,80.5797362 70.7255496,79.0078798 L70.8284814,78.845407 L70.9435972,78.6749121 C72.3489586,76.6111666 73.9340623,74.9380577 76.2558091,74.027105 C68.4993389,71.7053928 55.7292176,74.6933684 47.0824974,68.6158415 C46.3919444,68.1304771 46.9945731,67.1025465 47.7438297,67.4855498 C48.1945892,67.7159277 48.6524246,67.926933 49.1158945,68.123016 C48.7074023,66.6512048 49.7716472,65.7746999 50.407337,64.4966836 L50.4325315,64.4453465 C55.892749,53.4293545 60.1887228,41.0469334 63.9976405,29.8233394 C62.8892177,37.6751691 61.1009867,45.4517332 58.5648093,52.9632319 C60.8889724,54.7470901 62.8288107,56.9957619 64.9240561,59.035392 C67.1682881,61.4160076 69.8911899,63.4397992 71.604076,66.2675574 C71.977525,66.925967 71.2424201,67.5909215 70.6042809,67.2662981 C69.1000021,66.5018622 67.8512411,65.2897601 66.6968251,64.0842029 L66.2277593,63.5731424 C63.3628084,60.4453072 60.5374017,57.2254606 58.3512227,53.5797546 C56.8928836,57.8037623 55.0932496,61.3061583 53.1687906,65.2890938 L52.9224536,65.8002567 C52.4965907,66.6811905 52.0995554,67.6642236 51.3986506,68.3146486 C51.8623825,69.2440141 53.0491642,69.4597316 53.9643108,69.7310801 C61.399983,71.8173107 69.2950392,70.0740337 76.7608777,71.9735575 L77.2533849,72.1009271 C77.7451251,72.2287924 78.2424872,72.3835477 78.5354204,72.8326739 C85.0471917,73.0706439 91.3884867,75.7373993 96.4639862,79.8480746 L96.5948301,79.9521926 C98.7332793,81.6639533 100.924382,83.9230937 101.30834,86.7554857 C101.38041,87.2895436 101.182547,88.0448167 100.544408,88.1652415 C101.780065,88.3183905 102.895171,88.9545477 103.811104,89.8341726 C95.0769835,59.5368567 69.4904857,35.4134076 67.6153786,2.87566634 Z M95.2680322,89.0048774 C95.3891083,89.1881326 95.4990464,89.3797652 95.5792397,89.5791206 C95.5399292,89.5518941 95.5020602,89.5221806 95.4630118,89.4945614 C95.4738877,89.3956037 95.4002462,89.2852579 95.3296185,89.2052801 L95.3302737,89.2046256 C95.2964667,89.1645712 95.2648873,89.1222917 95.2319976,89.0811901 C95.2468045,89.0571052 95.2584666,89.0313186 95.2680322,89.0048774 Z M123.785777,74.0388857 C124.124633,76.9188716 124.46244,79.7978103 124.797627,82.6780581 C127.185866,82.3627283 129.591533,82.173321 131.99589,81.9959561 L131.862627,81.9128368 L131.862627,81.9128368 C130.647018,81.1532441 129.525754,80.2647183 128.474069,79.2928114 C127.318211,78.2245647 126.216733,77.0699262 125.202,75.8665942 C124.704593,75.2769052 124.233523,74.6665346 123.785777,74.0388857 Z M66.8721889,43.1860056 C67.2426241,46.4855149 69.2993453,49.2827742 71.2103559,51.8797618 C71.7107776,52.5597694 70.573134,53.2120269 70.0788709,52.5403967 L69.8800105,52.2695142 C67.8716538,49.5262304 65.9502647,46.6458145 65.5618415,43.1860056 C65.4678896,42.3487912 66.7792852,42.3582158 66.8721889,43.1860056 Z M189.815753,10.3969822 C183.892066,14.114837 177.693599,17.374292 171.634684,20.8646486 C170.893027,21.2849574 170.142198,20.5938236 170.281095,19.8254608 C170.590337,18.1206641 170.897063,16.4157837 171.198589,14.7103503 L171.431412,13.3883416 C171.519006,12.9113436 171.88147,11.1898392 171.535228,10.5435863 C170.033212,13.0854229 168.48053,15.5991021 166.920589,18.1068213 L165.218044,20.8412181 C163.395219,23.770552 161.355008,26.7432127 160.630386,30.1545077 C161.072498,30.5741621 161.300498,31.1833546 161.355008,31.7815519 C161.86434,31.9854887 162.212631,32.5527943 162.07321,33.1519079 C164.254938,35.7605452 165.744803,39.5086371 169.235438,40.6052884 C173.19439,34.9074924 179.701051,31.5739499 186.504505,30.7448512 L187.712006,30.5336428 C190.661737,30.0125603 193.735895,29.3759753 196.085765,27.5418126 C193.753347,27.6542527 191.420929,27.7617188 189.0872,27.8625091 C188.306233,27.8965422 188.141129,26.6661146 188.902572,26.5024939 C192.29231,25.7732692 195.735903,24.222276 198.445701,21.9289684 C193.923692,23.5232884 189.178924,24.4695396 184.396157,24.8414167 C183.412217,24.8528047 183.240954,23.4315299 184.168156,23.1541601 C188.383384,21.4186096 192.162166,18.6578164 195.060594,15.1532906 L195.152798,15.0411919 L189.079338,18.2416126 C186.546437,19.5766265 183.836638,21.2260539 180.879184,21.222127 C180.019727,21.2208181 179.828417,20.1461574 180.466556,19.699931 L181.298398,19.0816524 C184.103021,16.992095 189.414787,12.9207594 189.815753,10.3969822 Z" id="ðŸ–-Ink" fill="#000000"></path>
                </g>
                <g id="Head" stroke-width="1" transform="translate(44.198543, 23.040000)">
                    <g id="head/Afro">
                        <path d="M25.0324606,10.5820261 C44.4503437,9.62794819 53.2127703,23.2878451 53.779554,29.3890742 C54.1729903,33.6242801 51.6685114,38.5058395 51.6685114,42.290347 C51.6685114,44.2221026 54.0357774,48.3693536 52.9337287,51.1848824 C50.480816,57.451617 45.2871611,64.4065281 38.6688704,64.4065281 C32.0505797,64.4065281 23.4373072,66.2352222 16.1243829,55.7735518 C15.4382222,54.7919491 6.75945275,49.2129846 5.91630348,43.9116921 C3.81608826,30.70661 11.1769786,11.2628011 25.0324606,10.5820261 Z" id="ðŸŽ¨-Background" fill="#FFFFFF"></path>
                        <path d="M24.1170182,2.0809216 C24.8113837,1.2873216 25.9836059,0.9698816 27.0251542,1.0313216 C28.5381536,1.1209216 29.853989,2.0540416 31.3593017,2.1231616 C32.93751,2.1961216 34.4607583,1.6495616 36.042938,1.9030016 C37.0127437,2.0591616 37.9735816,2.5084416 38.5949234,3.2662016 C40.7472003,2.6505216 43.083958,3.4658816 44.4547534,5.2463616 C46.1458281,4.9839616 47.9855124,6.1028096 48.5030837,7.7308416 C50.6515172,7.7999616 52.6795257,9.5241216 52.9190947,11.6847616 C53.7775713,11.9113216 54.5230534,12.5028096 54.9804122,13.2847616 C55.5120758,14.1910016 55.6004729,15.2303616 55.5043891,16.2518016 C56.5151906,16.7676416 57.0289186,17.8761216 57.1634359,19.0486016 C58.0871214,19.7372416 58.4881111,20.9750016 58.2997868,22.1436416 C59.0069635,22.5417216 59.37221,23.4684416 59.3682386,24.2953216 C59.3643952,25.0671616 59.1595446,25.7508096 59.4477959,26.4956416 C59.7045759,27.1590416 59.7967611,27.7119266 59.6555164,28.4068219 L59.6411165,28.4745216 C59.6161347,28.5878016 59.5951244,28.6964736 59.576292,28.8036096 C59.7675628,28.9712896 59.9293679,29.1814656 60.0508178,29.4259456 C60.4938281,30.3193856 60.4278506,31.3383936 60.09002,32.2445056 C60.237989,32.8215296 60.2191566,33.4310656 60.0004699,33.9856896 C60.410043,34.5751296 60.6253988,35.2980736 60.5621117,36.0481536 C60.4911378,36.8879616 60.1073151,37.6399616 59.5253035,38.1959936 C59.6803187,39.3431296 59.2134796,40.5825536 58.3693515,41.3902336 C58.4891359,42.0769536 58.3857498,42.7966976 58.0097419,43.4477056 C57.7417322,43.9117056 57.3809696,44.2573056 56.9647346,44.4982016 C56.9784426,44.8813056 56.9265573,45.2731136 56.798958,45.6656896 C56.6217795,46.2104576 56.3217419,46.7123456 55.9269016,47.1165696 C56.162499,48.6215936 55.2605925,50.2916096 53.6731602,50.7138816 C53.5397959,50.7493376 53.412581,50.7655936 53.2907468,50.7681536 C53.1330412,52.2157056 52.7886769,53.6431616 52.255476,54.9988096 C50.900054,58.4508416 48.4351845,61.4690816 45.2208615,63.3519616 C43.6309951,64.2825216 41.8451177,64.9199616 40.022088,65.1862016 C38.710224,65.3782016 37.4483236,65.3308416 36.1314632,65.2002816 C34.4786939,65.0351616 32.8183661,64.7881216 31.2118451,64.3631616 L30.9534474,64.2945292 C30.2874616,64.1162712 29.5852845,63.9105831 29.0083236,63.5516416 C28.3626405,63.1497216 28.0271159,62.5302016 27.8785063,61.8006016 C27.7955887,61.3945216 28.0530311,60.957761 28.49797,60.9493522 L28.5266235,60.9494016 C28.6239884,60.9514496 28.7205334,60.9477632 28.8182919,60.9416192 L28.89187,60.9366016 L28.8955852,60.9366016 C28.9007097,60.9353216 28.9034001,60.9353216 28.9083964,60.9353216 C28.9519544,60.9289216 28.9942313,60.9161216 29.0365081,60.9097216 C29.5259974,60.827392 29.9540914,60.9090335 30.4137331,61.0617841 L30.4713594,61.0812416 C31.2451542,61.3474816 32.0125434,61.5945216 32.8119605,61.7775616 C33.6382811,61.9657216 34.4748506,62.1154816 35.3139823,62.2332416 L35.3972549,62.2434816 L35.4228773,62.2473216 L35.4356885,62.2486016 L35.4356885,62.2486016 C35.4382507,62.2486016 35.4408129,62.2486016 35.4433752,62.2498816 L35.6906308,62.2806016 L35.6906308,62.2806016 C35.8854887,62.3036416 36.0800904,62.3241216 36.2748202,62.3446016 C36.633533,62.3804416 36.9922458,62.4086016 37.3509587,62.4290816 C43.542598,62.7772416 48.7426526,57.9068416 50.3120212,52.0674816 C50.8808372,49.9542016 50.9179896,47.8460416 50.7501633,45.7366016 C50.6963563,45.5830016 50.6643284,45.4127616 50.6656095,45.2258816 C50.6656095,45.1286016 50.6708621,45.0326016 50.6771396,44.9353216 C50.4684456,42.8950016 50.1058894,40.8534016 49.8790036,38.8054016 C49.6139404,36.4130816 49.4664838,34.0068096 49.5202908,31.5990016 C49.5471942,30.4098816 49.6740248,29.2322816 49.8405701,28.0548096 L49.9007826,27.6317696 L49.9007826,27.6317696 C49.1481262,27.4849536 48.44838,27.1283456 47.8912222,26.6121216 C46.6821038,27.3097216 45.1172191,27.3715456 43.9237304,26.6349056 C42.586244,27.4729216 40.7176065,27.5489536 39.370768,26.7296256 C38.5567461,27.3102336 37.5310837,27.5607296 36.5242537,27.3403136 C36.0713788,27.2412416 35.6210661,27.0268416 35.2354498,26.7300096 C34.9601378,26.7785216 34.6812386,26.7973376 34.4038767,26.7828736 L34.3466107,26.8148736 L34.3466107,26.8148736 C33.7073333,27.1515136 32.9991317,27.3730816 32.2703041,27.3483776 C31.7306976,27.3302016 31.1748208,27.2238336 30.6601961,27.0226176 C30.1104687,27.3541376 29.508856,27.5804416 28.8652228,27.6615936 C27.9252671,27.7799936 26.9108785,27.5722496 26.1291408,27.0395136 C24.700567,27.8525696 22.9433867,27.9777536 21.4014341,27.4314496 C21.0856387,27.9658496 20.6486496,28.4266496 20.1369714,28.7818496 C20.2285713,29.1097856 20.2577808,29.4594816 20.2262653,29.7957376 C20.1745081,30.3492096 20.035635,30.8454656 19.808493,31.2911616 C20.0479338,31.7888256 20.1199325,32.3998976 19.9859277,33.0132736 C19.7949131,33.8880256 19.2855409,34.6489856 18.6260218,35.2416256 C18.5678591,36.6375936 17.8016229,37.9465216 16.5545834,38.6736896 C16.4914243,38.7104256 16.4286496,38.7403776 16.366003,38.7673856 C16.3109149,38.8426496 16.2450655,38.9088256 16.1698639,38.9646336 C15.3768524,39.6966656 14.12187,39.6384256 13.1278512,39.2248576 C13.1086344,39.2257536 13.0895458,39.2274176 13.0700728,39.2278016 C12.7150752,39.2367616 12.4730722,39.0985216 12.329459,38.8950016 C12.1848208,38.9028096 12.0412076,38.9180416 11.8965695,38.9449216 C11.3686211,39.0434816 10.7895561,39.2329216 10.3116994,39.4788096 C9.07157796,40.1161216 8.49763746,41.2425216 8.32596776,42.5967616 C8.13905276,44.0738816 8.56425556,45.5791616 9.70842131,46.5788416 C10.2642981,47.0652416 10.9753181,47.3698816 11.6978682,47.4978816 C12.4960042,47.6399616 13.3492282,47.2905216 13.9385421,47.9753216 C14.0564049,48.1110016 14.1371153,48.3004416 14.0730594,48.4834816 C13.8732052,49.0543616 13.543958,49.2732416 13.0289489,49.3526016 C13.773278,50.2345216 14.5368239,51.0870016 15.3823612,51.8793216 C16.2970789,52.7382016 17.2425434,53.5702016 18.0677109,54.5174016 C18.9400236,55.5196416 19.7279107,56.5820416 20.2749477,57.7980416 C20.5875403,58.4969216 20.8386393,59.2175616 21.1090831,59.9330816 L21.1573792,60.0577407 C21.4589091,60.8179638 21.8599989,61.5507809 21.3959253,62.3446016 C21.2114444,62.6569216 20.7938002,62.9590016 20.409465,62.9090816 C19.3270491,62.7708416 18.964493,62.0399616 18.6312744,61.0876416 C18.3801754,60.3682816 18.1880078,59.6284416 17.9178202,58.9154816 C17.8672161,58.7835136 17.8121281,58.6528256 17.7543497,58.5229056 C17.1301894,58.6967296 16.4438949,58.5587456 15.8868651,58.2031616 C15.2916581,58.4667136 14.6322671,58.5981696 13.9954237,58.5870336 C13.1427121,58.5720576 12.3636648,58.3353856 11.6938967,57.9085056 C11.6406022,57.8944256 11.5870515,57.8808576 11.5338852,57.8656256 C10.5150127,58.2555136 9.32178015,58.1858816 8.39924766,57.5539456 C7.80186272,57.1447296 7.39344256,56.5985536 7.16130413,55.9904256 C6.38943103,55.9757056 5.62588519,55.7022976 5.0728269,55.1552256 C4.56499205,54.6529536 4.26815719,54.0048896 4.18001633,53.3314816 C3.51562896,53.2000256 2.89274979,52.8791296 2.40425981,52.3385856 C1.99635209,51.8871296 1.74845592,51.3121536 1.66467086,50.7151616 C0.855517243,50.4845056 0.125792896,49.9566336 -0.272762659,49.2206336 C-0.643646084,48.5354496 -0.697196782,47.7921536 -0.515790589,47.1160576 L-0.56280759,47.0484736 L-0.56280759,47.0484736 C-1.39630243,46.6126336 -2.03237711,45.8991616 -2.09771409,44.8800256 C-2.11616217,44.5898496 -2.08490291,44.2995456 -2.00611421,44.0248576 C-2.03455501,43.7177856 -2.01636315,43.4108416 -1.93578087,43.1138816 C-3.05675841,42.0246016 -3.46287256,40.2748416 -2.85434189,38.8284416 C-3.94969709,37.6508416 -4.23922957,35.7884416 -3.4359691,34.3908096 C-3.98684948,33.7250816 -4.26997638,32.8764416 -4.22257505,31.9702016 C-4.16364366,30.8388096 -3.6447912,29.8505216 -3.02344936,28.9353216 C-3.48465155,28.4258816 -3.73062605,27.7154816 -3.7125623,27.0294016 C-3.68706806,26.0348416 -3.15796667,25.1785216 -2.49550097,24.4694016 C-3.07341293,22.7183616 -2.42772987,20.8188416 -1.00953315,19.7103616 C-1.2965034,19.2380416 -1.40283613,18.6530816 -1.30918646,18.0604416 C-1.14533157,17.0249216 -0.367693443,16.3196416 0.471438312,15.7615616 C0.295925258,15.1908096 0.342045477,14.5750016 0.621329022,13.9849216 C0.994134123,13.1977216 1.69746746,12.6985216 2.4315476,12.2761216 C2.62115294,10.5302016 4.57357553,9.0390016 6.21084329,9.9401216 C5.80472914,8.6409216 6.97451724,7.2380416 8.31969029,7.0895616 C8.97805641,5.0953216 11.2494772,3.8383616 13.291578,4.3337216 C14.3356885,2.9078016 16.2791432,2.3588096 17.9292222,2.9705216 C19.7434122,1.5817216 21.994207,1.3756416 24.1170182,2.0809216 Z M11.1943891,41.2374656 C12.4691007,41.1683456 13.4248141,42.2077056 14.0962477,43.1587456 C14.7264292,44.0509056 13.1096593,44.9929856 12.6382082,44.0099456 C12.4691007,43.6592256 12.2769332,43.2880256 12.0194286,42.9808256 C11.9761909,43.0413056 11.9379976,43.1039456 11.8999844,43.1682056 L11.8618512,43.2329856 C11.8336666,43.2803456 11.8042009,43.3289856 11.7798597,43.3789056 C11.7824219,43.3878656 11.7439884,43.5056256 11.7427073,43.5107456 C11.6376557,43.8294656 11.4083357,44.0342656 11.0958712,44.1443456 C10.6921912,44.2851456 10.3104183,43.9817856 10.1810254,43.6259456 C9.97489369,43.0576256 10.4539034,42.5622656 10.952258,42.3369856 C10.4628712,42.2576256 9.98117116,42.4240256 9.62758282,42.8003456 C9.57902848,42.8528256 9.49690886,42.8105856 9.49447474,42.7453056 C9.45335088,41.8531456 10.3872853,41.2809856 11.1943891,41.2374656 Z" id="ðŸ–-Ink" fill="#000000"></path>
                    </g>
                    <g id="face/Smiling" transform="translate(20.369763, 23.808000)" fill="#000000">
                        <path d="M18.7794569,30.8385989 C17.9182547,30.487578 17.1498445,29.902052 16.5880626,29.1540805 C16.3927516,28.8940548 16.3421108,28.6194718 16.3830827,28.3683306 C16.4291528,28.08594 16.5963652,27.8300032 16.8244055,27.6583287 C17.053152,27.4861224 17.339285,27.4011945 17.6159159,27.4444883 C17.8562919,27.4821081 18.0955747,27.6136048 18.2849492,27.8863242 L18.3245143,27.9408616 C18.6585034,28.3923115 19.0937219,28.7627207 19.589623,29.0014709 C20.067591,29.2315872 20.60215,29.3389914 21.1553313,29.2765336 C22.2089007,29.1576241 22.9350737,28.5883393 23.7069165,27.8152602 C23.8025886,27.717657 23.898322,27.616994 23.9945196,27.5147108 C24.0552702,27.4219915 24.1395768,27.3624007 24.2331801,27.3311344 C24.3371099,27.2964188 24.4546788,27.298383 24.5623629,27.3359296 C24.6662247,27.3721435 24.759072,27.4407672 24.8213286,27.5321009 C24.8804985,27.6189061 24.914046,27.7261422 24.9031607,27.8494903 C24.8325126,28.6506603 24.413286,29.3656703 23.8177921,29.9271043 C23.1564201,30.5506484 22.2797233,30.9820204 21.4543515,31.133316 C20.5450341,31.299974 19.618464,31.1805731 18.7794569,30.8385989 L18.7794569,30.8385989 Z M21.8833139,18.4789958 C22.850734,19.0665216 24.3247851,20.4365173 23.2840638,21.8930654 C22.0590352,23.177352 20.2952707,21.7048297 19.4261181,21.0388652 C18.6201991,20.522739 17.7147039,21.850177 18.462436,22.4528414 C24.742951,27.0986316 27.2917169,18.6326256 22.3726215,17.7882094 C21.8310114,17.6951584 21.6298561,18.2972382 21.8833139,18.4789958 Z M10.6285709,13.0747392 C10.7354582,11.7491359 12.7561222,11.4481152 12.9571295,12.7598592 C13.1371265,13.9348992 12.9252297,15.0143232 12.3954877,16.0722432 C11.8893183,17.0829312 10.6171027,16.6113977 10.5208908,15.6910777 C10.3919227,14.457427 10.5620809,13.8993403 10.6285709,13.0747392 Z M26.0101378,12.487872 C26.2918555,12.119232 26.6986102,11.867584 27.1859472,12.009792 C28.7085549,12.454336 28.2597796,14.61408 27.7250413,15.665344 C27.4344839,16.236224 26.4952969,16.380992 26.0708628,15.878336 C25.3790595,15.058624 25.0477626,13.421632 25.9272495,12.614208 C25.9510783,12.57248 25.9775974,12.530368 26.0101378,12.487872 Z M12.3740418,7.274304 L12.6145551,7.23224384 C13.3586022,7.10367488 14.2837392,6.9801344 14.8100862,7.577792 C15.0892416,7.89472 15.1853254,8.483776 14.8100862,8.787136 C14.1500546,9.320896 13.4203302,9.114048 12.6293685,9.159232 C11.9775361,9.196608 11.3510698,9.304384 10.7231942,9.483712 C9.34573704,9.877056 8.22335027,10.595136 7.04690036,11.383616 C6.89252574,11.48704 6.73494833,11.289792 6.80861257,11.145536 C7.48773279,9.816512 8.80382447,8.7248 10.122094,8.059328 C10.8256836,7.704128 11.595635,7.409472 12.3740418,7.274304 Z M24.6221596,6.67896161 L24.8062471,6.71660395 C26.8095604,7.13498586 29.4123332,7.97073806 30.3609987,9.93674828 C30.3971472,10.2147491 30.3589528,10.2743302 30.327894,10.3132571 L30.317553,10.3262107 C30.2919605,10.359452 30.2715396,10.4052749 30.1509368,10.4431113 C30.1174696,10.4351444 30.0836692,10.4267063 30.0495108,10.4177624 C29.6146591,10.3039031 29.2706074,10.1470459 28.9375288,9.98428784 L28.5763871,9.80652152 C28.1573906,9.60125836 27.7346947,9.40346581 27.2867341,9.25744787 C26.3307477,8.94590293 25.3474334,8.72643895 24.3488846,8.60925017 C24.1324569,8.58387206 23.9240505,8.51089144 23.7596329,8.38581455 C23.6035675,8.26709149 23.4843437,8.10271664 23.4299843,7.88422665 C23.3595345,7.6014657 23.3797802,7.38739247 23.5316261,7.13230069 C23.6458048,6.94073223 23.8091762,6.80795025 23.996768,6.73170232 C24.1880097,6.65397086 24.4057365,6.63564569 24.6221596,6.67896161 Z" id="ðŸ–-Ink"></path>
                    </g>
                </g>
            </g>
        </g>
    </g>
</svg>