<?xml version="1.0" encoding="UTF-8"?><svg width="240px" height="324px" viewBox="0 0 240 324" version="1.1" xmlns="http://www.w3.org/2000/svg" xmlns:xlink="http://www.w3.org/1999/xlink"><title>peep-32</title><desc>Created with Sketch.</desc><g id="Introduction" stroke="none" stroke-width="1" fill="none" fill-rule="evenodd"><g id="variations" transform="translate(-1086.00, -1082.00)"><g id="images" transform="translate(126.00, 110.00)"><g id="a-person/bust" transform="translate(960.00, 972.00)"><g id="body/Paper" transform="translate(31.06, 135.05)"><path d="M150.02,41.54 C148.18,34.40 146.49,31.37 143.22,28.89 C140.16,26.57 135.69,24.62 129.17,23.19 C122.39,22.00 122.19,18.48 120.49,12.80 C119.99,11.10 117.53,10.65 116.47,11.87 C116.32,11.71 116.17,11.56 116.00,11.43 C116.15,10.62 114.97,8.29 115.00,7.51 C115.42,-0.61 112.76,-4.69 106.14,-6.20 C104.70,-6.53 94.91,-6.73 93.50,-6.34 C87.36,-4.64 81.31,0.76 82.24,7.25 C80.31,9.77 78.42,11.31 75.45,12.12 C68.83,12.96 62.21,13.71 55.58,14.35 C42.62,16.39 30.47,23.25 22.16,33.26 C21.40,34.18 21.17,35.43 21.85,36.42 C21.32,38.69 18.34,44.19 20.69,45.75 C16.83,54.98 7.95,72.82 7.93,77.91 C7.86,99.32 10.18,127.19 31.30,139.03 C32.14,139.87 32.26,140.79 32.63,142.02 C33.56,145.92 36.93,148.71 40.62,148.48 C58.81,148.88 76.42,146.66 94.60,146.56 C102.62,146.51 112.27,147.71 119.23,148.50 C126.20,149.30 133.23,148.60 139.92,146.56 C140.48,147.44 141.62,147.96 142.78,147.71 C149.71,146.33 155.31,142.06 160.19,137.39 C161.68,134.68 167.51,126.94 165.19,124.25 C167.29,115.38 167.18,105.84 163.45,97.39 C163.98,95.84 163.02,94.14 163.45,92.54 C163.77,91.38 164.57,90.90 164.98,89.75 C165.55,88.14 164.93,85.98 164.29,84.33 C164.02,83.51 164.77,82.63 164.98,81.79 C165.97,77.84 163.71,78.19 162.08,75.55 C162.10,75.54 162.53,73.66 162.53,73.67 C162.77,72.32 162.15,70.60 161.61,69.47 C161.24,68.71 160.45,68.24 159.66,68.33 C160.45,65.65 161.45,63.42 162.53,60.83 C164.42,56.28 166.83,51.92 169.55,47.80 C170.67,46.12 169.17,44.16 167.36,44.05 C161.52,43.68 155.73,42.83 150.02,41.54 Z" id="🎨-Background" fill="#FFFFFF"></path><path d="M132.96,75.96 C130.62,75.05 128.10,74.54 125.57,74.34 C126.93,74.10 128.30,73.87 129.68,73.76 C130.64,73.67 131.53,73.68 132.25,74.41 C132.73,74.90 132.96,75.52 133.28,76.10 C133.17,76.05 133.06,76.01 132.96,75.96 Z M158.06,67.39 C154.23,67.58 150.39,68.49 146.93,70.14 C145.51,70.82 144.23,71.80 143.85,73.40 C143.66,74.22 143.71,75.07 143.81,75.90 C143.89,76.53 143.90,77.33 144.45,77.75 C144.54,77.82 144.64,77.88 144.75,77.92 C143.47,78.50 142.25,79.19 141.17,79.90 C140.18,80.56 139.16,81.56 138.71,82.70 C138.67,82.57 138.63,82.45 138.59,82.33 C137.82,80.04 136.62,78.15 134.73,76.89 C135.07,76.74 135.30,76.38 135.19,75.89 C134.74,73.84 132.85,72.06 130.71,72.19 C128.37,72.33 125.86,73.18 123.75,74.25 C122.98,74.24 122.21,74.25 121.45,74.28 C121.32,74.29 121.32,74.46 121.45,74.48 C122.06,74.56 122.68,74.64 123.30,74.75 C124.76,74.98 126.23,75.28 127.66,75.65 C129.37,76.09 131.15,76.54 132.75,77.31 C135.86,78.82 137.78,82.76 137.39,86.19 C137.32,86.75 137.11,88.45 136.33,88.27 C135.67,88.13 135.41,86.75 135.18,86.24 C134.56,84.89 133.45,84.00 132.11,83.41 C130.55,82.70 128.87,82.23 127.25,81.67 C126.33,81.36 125.41,81.04 124.49,80.73 C123.55,80.41 122.65,79.96 121.65,80.19 C121.04,80.32 120.97,81.05 121.31,81.46 C121.83,82.09 122.60,82.28 123.35,82.54 C124.33,82.88 125.31,83.22 126.30,83.57 C127.81,84.10 129.41,84.54 130.89,85.19 L130.84,85.29 C130.72,85.26 130.58,85.38 130.60,85.53 C130.82,86.90 131.13,88.48 130.79,89.85 C130.52,90.93 129.57,92.14 128.33,91.82 C128.52,91.64 128.59,91.33 128.46,91.05 C127.97,90.00 121.55,85.86 120.98,87.40 C120.96,87.45 121.02,87.49 121.06,87.49 C121.55,87.38 122.37,88.22 122.76,88.48 C123.33,88.86 123.90,89.23 124.46,89.62 C125.07,90.05 125.66,90.50 126.24,90.96 C126.70,91.33 127.04,91.70 127.57,91.89 C127.29,92.02 127.08,92.26 126.98,92.57 C126.75,93.38 126.29,94.07 125.50,94.43 C124.67,94.80 123.73,94.56 122.86,94.65 C121.66,94.77 120.63,95.34 119.76,96.15 C117.93,97.85 117.02,100.86 114.47,101.66 C112.95,102.14 111.26,101.84 109.71,101.62 C107.99,101.38 106.31,101.19 104.58,101.44 C102.92,101.68 101.35,102.26 99.83,102.96 C98.41,103.62 96.84,104.36 95.58,105.34 C95.32,104.54 95.06,103.75 94.86,102.93 C94.39,101.00 94.13,99.03 94.07,97.04 C94.02,95.15 94.12,93.25 94.28,91.36 C94.36,90.42 94.49,89.49 94.57,88.55 C94.59,88.31 94.64,88.06 94.67,87.80 C96.92,86.47 99.28,85.45 101.67,84.41 C101.68,84.40 101.68,84.40 101.69,84.40 C101.76,84.36 101.84,84.33 101.91,84.30 C101.91,84.30 101.90,84.29 101.90,84.29 C102.17,84.12 102.36,83.90 102.48,83.65 C105.91,81.37 108.79,78.26 110.93,74.62 C111.83,73.10 112.69,71.52 113.87,70.19 C115.12,68.77 116.60,67.92 118.44,67.48 C120.59,66.97 122.80,66.66 125.00,66.48 C126.21,66.39 127.55,66.24 128.86,66.25 C129.77,66.25 130.67,66.33 131.49,66.56 C132.70,66.89 133.41,67.82 134.17,68.75 C134.90,69.65 135.63,70.54 136.31,71.48 C136.95,72.36 137.56,73.28 138.09,74.24 C138.41,74.81 138.70,75.40 138.95,76.02 C139.03,76.23 139.15,76.48 139.20,76.70 C139.25,76.93 139.16,77.17 139.41,77.17 C138.36,77.18 138.37,78.85 139.41,78.79 C143.48,78.55 137.65,70.61 136.80,69.50 C135.60,67.93 134.35,65.89 132.42,65.16 C132.39,65.15 132.36,65.14 132.34,65.13 C132.90,64.59 133.34,63.96 133.77,63.31 C134.20,62.64 134.73,61.87 134.87,61.08 C134.96,60.58 134.33,60.29 134.03,60.73 C133.60,61.38 133.39,62.19 133.07,62.90 C132.74,63.62 132.34,64.30 132.02,65.02 C131.26,64.79 130.43,64.68 129.60,64.64 C130.65,63.21 132.46,60.45 132.68,60.09 C133.68,58.45 134.63,56.75 135.54,55.05 C136.53,53.21 137.37,51.30 138.31,49.44 C138.85,48.39 139.39,47.32 139.98,46.30 C140.19,45.95 140.41,45.60 140.66,45.28 C140.70,45.22 140.77,45.16 140.82,45.10 C140.89,45.07 140.96,45.03 140.99,45.01 C141.34,44.81 141.46,44.35 141.70,44.06 C142.08,43.60 142.53,43.54 143.11,43.54 C144.35,43.52 145.58,43.57 146.82,43.60 C148.63,43.66 150.44,43.73 152.24,43.82 C152.79,43.85 153.34,43.88 153.88,43.92 C156.51,44.07 159.14,44.28 161.76,44.53 C164.08,44.75 166.40,45.11 168.72,45.29 C165.58,52.76 162.09,60.09 158.15,67.17 C158.11,67.24 158.08,67.32 158.06,67.39 Z M140.62,86.64 C140.11,86.87 139.62,87.16 139.16,87.49 C139.24,86.97 139.25,86.43 139.23,85.89 C139.61,86.30 140.10,86.53 140.62,86.64 Z M162.26,73.78 C162.23,73.79 162.19,73.81 162.18,73.84 C161.47,75.29 161.77,76.91 162.91,78.04 C163.51,78.63 164.82,79.30 164.78,80.27 C164.74,81.06 163.89,81.72 163.52,82.37 C163.18,82.97 163.05,83.64 163.33,84.29 C163.68,85.13 164.65,85.46 164.98,86.29 C165.41,87.34 164.72,88.60 164.24,89.51 C163.79,90.35 163.21,91.19 162.83,92.09 C160.25,93.42 157.95,95.47 155.96,97.54 C153.79,99.82 151.93,102.49 148.49,102.42 C148.14,102.42 147.88,102.60 147.72,102.85 C146.77,102.89 145.80,102.91 144.84,102.92 C143.16,102.92 141.47,102.91 139.79,102.85 C139.67,102.45 139.76,101.89 139.75,101.55 C139.73,100.44 139.72,99.33 139.67,98.22 C139.66,97.91 139.65,97.60 139.64,97.29 C140.24,98.39 141.42,98.89 142.77,98.81 C144.94,98.69 147.12,98.33 149.27,98.01 C150.40,97.85 151.53,97.66 152.65,97.45 C153.58,97.29 154.88,97.33 155.53,96.59 C155.68,96.42 155.69,96.10 155.45,95.98 C154.81,95.67 154.41,95.84 153.70,95.98 C152.85,96.14 151.99,96.30 151.12,96.45 C149.47,96.74 147.81,97.00 146.15,97.24 C145.20,97.37 144.25,97.50 143.30,97.61 C142.48,97.70 141.54,97.82 140.88,97.19 C139.53,95.93 140.28,93.82 141.14,92.55 C141.15,92.52 141.15,92.50 141.15,92.48 C141.95,92.29 142.75,92.07 143.55,91.92 C145.08,91.62 146.63,91.37 148.18,91.15 C151.36,90.70 154.56,90.40 157.76,90.09 C158.55,90.02 158.56,88.77 157.76,88.84 C153.17,89.27 148.55,89.66 144.01,90.55 C142.88,90.77 141.75,91.02 140.63,91.30 C140.10,91.43 139.53,91.64 138.97,91.64 C138.94,91.64 138.91,91.64 138.87,91.64 C137.78,91.61 137.63,90.67 138.22,89.90 C138.30,89.80 138.37,89.71 138.45,89.62 C139.51,88.36 140.82,87.52 142.18,86.65 C143.70,86.44 145.21,85.98 146.70,85.64 C150.37,84.80 154.05,83.97 157.72,83.13 C158.44,82.97 158.13,81.86 157.41,82.02 C154.62,82.65 151.84,83.29 149.05,83.92 L144.97,84.84 C144.15,85.03 143.13,85.40 142.17,85.53 C141.70,85.60 141.24,85.60 140.83,85.51 C139.49,85.19 139.42,83.52 140.00,82.53 C140.64,81.41 141.87,80.71 142.95,80.08 C144.83,78.98 146.83,78.19 148.78,77.29 C149.13,77.21 149.47,77.13 149.82,77.06 C151.83,76.61 154.14,76.40 156.03,75.58 C156.60,75.34 156.29,74.45 155.73,74.46 C154.26,74.49 152.72,75.01 151.28,75.32 C149.72,75.66 148.16,76.00 146.60,76.33 C146.45,76.37 145.52,76.66 145.38,76.60 C145.29,76.56 145.26,76.25 145.23,76.05 C145.14,75.38 145.07,74.68 145.17,74.01 C145.40,72.50 146.65,71.80 147.92,71.22 C150.74,69.94 153.84,69.13 156.92,68.81 C157.63,68.74 158.34,68.69 159.05,68.67 C159.89,68.64 160.58,68.50 161.01,69.32 C161.67,70.62 162.04,72.30 162.26,73.78 Z M158.34,120.99 C157.73,118.86 157.89,116.59 157.47,114.42 C157.26,113.30 156.96,112.19 156.63,111.09 C156.37,110.21 155.94,109.27 155.89,108.35 C155.88,108.29 155.96,108.25 156.01,108.28 C156.87,108.78 157.54,109.85 158.04,110.70 C158.63,111.71 159.08,112.76 159.45,113.87 C160.17,116.09 160.77,118.76 159.83,120.99 C159.55,121.65 158.57,121.78 158.34,120.99 Z M139.34,92.80 C139.85,92.75 140.37,92.65 140.89,92.54 C140.31,93.10 139.78,93.79 139.48,94.54 C139.43,93.96 139.37,93.38 139.29,92.81 C139.31,92.81 139.32,92.81 139.34,92.80 Z M134.34,137.10 C133.42,136.46 132.76,135.56 131.98,134.77 C131.21,134.00 132.41,132.80 133.17,133.58 C133.84,134.25 134.41,135.09 135.19,135.64 C135.57,135.90 135.74,136.37 135.50,136.79 C135.28,137.16 134.71,137.36 134.34,137.10 Z M129.23,112.51 C130.90,111.78 132.55,110.99 134.30,110.47 C135.35,110.16 135.79,111.79 134.75,112.10 C133.14,112.58 131.62,113.30 130.08,113.97 C129.09,114.39 128.23,112.94 129.23,112.51 Z M111.56,112.00 C111.15,110.99 112.79,110.55 113.19,111.55 C113.65,112.70 114.19,113.81 114.65,114.96 C115.06,115.97 113.42,116.40 113.02,115.41 C112.56,114.26 112.02,113.15 111.56,112.00 Z M94.12,132.17 C93.85,132.53 93.39,132.73 92.97,132.47 C92.61,132.25 92.39,131.68 92.66,131.31 C93.47,130.24 94.28,129.18 95.23,128.22 C95.99,127.44 97.19,128.64 96.42,129.42 C95.58,130.27 94.84,131.21 94.12,132.17 Z M91.63,19.01 C92.40,19.54 93.08,20.19 93.75,20.85 C94.52,21.62 93.32,22.81 92.55,22.04 C91.99,21.48 91.43,20.92 90.78,20.47 C90.40,20.21 90.23,19.73 90.47,19.31 C90.69,18.94 91.25,18.75 91.63,19.01 Z M117.00,46.22 C116.56,47.10 116.17,47.96 116.14,48.96 C116.11,50.05 114.42,50.05 114.45,48.96 C114.48,47.65 114.97,46.52 115.54,45.37 C116.03,44.39 117.48,45.25 117.00,46.22 Z M126.31,24.37 C127.22,23.76 128.06,25.23 127.16,25.83 C126.43,26.31 125.70,26.80 124.97,27.29 C124.06,27.89 123.22,26.43 124.12,25.83 C124.85,25.34 125.58,24.85 126.31,24.37 Z M85.93,62.57 C85.78,63.65 84.15,63.19 84.30,62.12 C84.54,60.48 84.83,58.86 85.28,57.26 C85.57,56.21 87.20,56.65 86.91,57.70 C86.46,59.31 86.17,60.93 85.93,62.57 Z M80.01,81.94 C78.92,81.92 78.92,80.23 80.01,80.25 C80.99,80.27 81.96,80.53 82.91,80.77 C83.96,81.03 83.51,82.66 82.46,82.40 C81.66,82.20 80.84,81.96 80.01,81.94 Z M77.82,120.96 C77.45,121.14 77.06,121.30 76.68,121.48 C75.93,121.82 75.17,122.17 74.42,122.52 C72.84,123.24 71.27,123.96 69.69,124.69 C66.55,126.15 63.37,127.56 60.22,129.00 C57.00,130.47 53.79,131.96 50.59,133.46 C49.08,134.16 47.55,134.84 46.04,135.53 C44.74,136.12 43.13,137.14 41.71,137.24 C41.63,137.24 41.61,137.15 41.65,137.10 C42.19,136.49 43.05,136.13 43.76,135.74 C44.48,135.33 45.22,134.95 45.95,134.56 C47.48,133.75 49.01,132.94 50.55,132.16 C53.64,130.60 56.73,129.05 59.82,127.50 C62.98,125.92 66.13,124.33 69.31,122.80 C70.81,122.09 72.31,121.37 73.81,120.66 C74.62,120.27 75.44,119.89 76.25,119.50 C76.60,119.33 76.95,119.16 77.31,119.01 C77.78,118.81 78.15,118.85 78.64,118.73 C79.44,118.53 79.79,119.55 79.17,120.00 C78.67,120.36 78.40,120.67 77.82,120.96 Z M66.54,138.29 C66.36,137.87 66.73,137.36 67.13,137.25 C67.61,137.13 67.99,137.42 68.17,137.85 C68.63,138.97 69.29,140.01 70.14,140.88 C70.90,141.66 69.70,142.86 68.94,142.08 C67.88,140.98 67.11,139.70 66.54,138.29 Z M58.23,111.16 C57.46,110.38 58.66,109.19 59.43,109.96 L61.62,112.15 C62.39,112.92 61.20,114.12 60.43,113.35 L58.23,111.16 Z M35.76,107.58 C34.19,108.04 32.35,108.47 31.28,109.81 C31.22,109.88 31.14,109.79 31.17,109.73 C32.54,106.88 36.48,105.88 39.21,104.88 C41.14,104.17 43.12,103.59 45.12,103.06 C44.92,100.79 45.47,98.34 45.66,96.07 C45.87,93.65 46.03,91.22 46.12,88.79 C46.21,86.32 46.23,83.82 46.15,81.34 C46.07,78.87 45.75,76.43 45.60,73.97 C45.59,73.73 45.92,73.72 45.99,73.92 C46.82,76.20 47.18,78.73 47.45,81.14 C47.73,83.62 47.82,86.10 47.78,88.59 C47.75,91.16 47.60,93.72 47.39,96.28 C47.30,97.49 47.18,98.70 47.08,99.91 C47.00,100.83 46.96,101.75 46.77,102.65 C47.97,102.35 49.18,102.07 50.38,101.80 C54.22,100.93 58.08,100.13 61.90,99.19 C63.77,98.73 65.62,98.18 67.49,97.69 C69.25,97.23 71.11,96.67 72.91,96.47 C73.56,96.39 73.64,97.28 73.21,97.58 C71.74,98.61 69.79,99.32 68.10,99.90 C66.40,100.48 64.63,100.90 62.89,101.33 C59.25,102.22 55.58,102.95 51.92,103.71 C48.26,104.47 44.59,105.23 40.97,106.17 C39.23,106.62 37.49,107.08 35.76,107.58 Z M27.13,62.35 C26.19,62.90 25.34,61.44 26.28,60.89 C27.51,60.17 28.81,59.63 30.13,59.10 C31.14,58.69 31.58,60.33 30.58,60.73 C29.40,61.20 28.23,61.70 27.13,62.35 Z M23.73,125.17 C22.78,125.71 21.93,124.25 22.87,123.71 C24.19,122.94 25.64,122.43 27.01,121.76 C27.98,121.28 28.84,122.74 27.86,123.22 C26.49,123.89 25.05,124.40 23.73,125.17 Z M22.19,89.51 C23.10,90.37 24.32,90.78 25.47,91.24 C26.47,91.64 26.03,93.27 25.02,92.87 C23.59,92.30 22.13,91.78 21.00,90.70 C20.21,89.95 21.40,88.76 22.19,89.51 Z M32.29,41.08 C33.29,41.48 32.85,43.11 31.84,42.71 C30.71,42.27 29.55,41.94 28.43,41.50 C27.43,41.10 27.86,39.47 28.88,39.86 C30.00,40.31 31.16,40.64 32.29,41.08 Z M50.09,21.85 C51.15,21.67 51.61,23.30 50.54,23.48 C49.21,23.70 47.90,23.96 46.64,24.45 C45.63,24.85 45.19,23.21 46.20,22.82 C47.45,22.33 48.76,22.07 50.09,21.85 Z M55.97,68.68 C54.99,68.20 55.85,66.74 56.82,67.22 C57.85,67.72 58.91,68.11 60.03,68.35 C61.10,68.58 60.64,70.21 59.58,69.98 C58.32,69.71 57.12,69.25 55.97,68.68 Z M61.53,42.30 C62.58,42.01 63.03,43.64 61.98,43.93 C60.13,44.44 58.24,44.70 56.38,45.15 C55.32,45.40 54.87,43.77 55.93,43.52 C57.79,43.07 59.69,42.81 61.53,42.30 Z M85.10,34.02 C86.17,34.22 85.71,35.85 84.65,35.65 C83.52,35.44 82.37,35.44 81.22,35.44 C80.13,35.44 80.14,33.75 81.22,33.75 C82.53,33.75 83.81,33.78 85.10,34.02 Z M161.97,42.85 C159.21,42.59 156.44,42.38 153.67,42.22 C153.54,42.21 153.42,42.21 153.29,42.20 C153.27,42.17 153.26,42.14 153.24,42.11 C152.33,40.79 151.67,39.46 151.09,37.96 C150.54,36.53 150.00,35.06 149.15,33.77 C148.19,32.30 146.88,31.15 145.45,30.15 C144.58,30.74 143.77,31.42 143.03,32.15 C142.25,32.91 141.06,31.72 141.84,30.95 C142.49,30.31 143.19,29.71 143.93,29.17 C143.08,28.65 142.21,28.17 141.35,27.68 C138.17,25.86 134.90,24.18 131.57,22.64 C130.02,21.92 128.45,21.29 126.88,20.64 C126.03,20.30 125.19,19.85 124.34,19.45 C124.40,18.85 124.22,18.18 123.76,17.78 C123.42,17.49 123.16,17.38 122.75,17.18 C122.66,17.15 122.60,17.13 122.58,17.12 C122.60,17.12 122.65,17.14 122.74,17.17 C122.96,17.27 122.98,17.24 122.79,17.08 C122.78,16.74 122.11,16.02 121.96,15.66 C121.42,14.45 121.25,13.17 120.46,12.07 C119.37,10.55 117.53,9.97 115.83,10.49 C115.65,8.66 115.60,6.75 114.91,5.12 C114.89,5.08 114.83,5.06 114.80,5.11 C114.09,6.33 114.03,7.69 113.97,9.10 C113.92,10.43 113.97,11.78 114.14,13.10 C114.03,13.19 113.92,13.27 113.80,13.34 C113.26,13.70 112.67,13.98 112.05,14.19 C110.88,14.57 109.65,14.74 108.42,14.80 C105.24,14.95 101.96,14.63 98.83,14.09 C95.67,13.54 90.82,12.71 88.01,11.12 C86.15,10.08 84.44,8.81 82.70,7.57 C83.33,5.54 83.49,3.36 82.86,1.65 C82.78,1.44 82.46,1.40 82.40,1.65 C82.00,3.28 81.89,4.93 81.36,6.54 C81.35,6.57 81.34,6.59 81.33,6.62 C81.17,6.50 81.00,6.39 80.84,6.28 C80.46,6.03 79.94,6.22 79.71,6.58 C76.06,12.33 70.28,12.66 64.22,13.69 C57.58,14.81 50.90,16.03 44.52,18.23 C38.41,20.33 32.58,23.40 27.95,27.97 C26.91,29.01 25.93,30.11 25.01,31.27 C25.90,31.38 26.79,31.56 27.66,31.83 C28.70,32.16 28.25,33.79 27.21,33.46 C26.09,33.11 24.95,32.93 23.80,32.85 C20.66,37.14 18.21,42.02 16.09,46.82 C12.03,56.01 9.39,65.81 8.17,75.78 C8.84,75.38 9.52,75.00 10.22,74.65 C11.19,74.15 12.04,75.61 11.07,76.11 C9.99,76.65 8.95,77.26 7.93,77.91 C7.49,82.28 7.32,86.67 7.42,91.06 C7.67,101.51 9.08,112.28 12.27,122.26 C13.84,127.15 15.91,132.01 19.01,136.15 C20.40,138.02 21.99,139.71 23.86,141.12 C24.77,141.81 25.73,142.42 26.74,142.94 C28.05,143.60 29.74,143.82 30.87,144.77 C31.24,145.08 31.52,145.49 31.74,145.95 C31.61,146.83 31.60,147.71 31.84,148.59 C31.92,148.87 32.12,149.09 32.38,149.20 C32.38,149.27 32.38,149.35 32.38,149.42 C32.38,149.45 32.43,149.46 32.44,149.43 C32.45,149.36 32.46,149.30 32.47,149.23 C32.55,149.26 32.64,149.27 32.73,149.27 C35.94,149.28 39.15,149.20 42.37,149.09 C42.12,148.33 41.85,147.58 41.59,146.82 C41.24,145.78 42.87,145.34 43.22,146.37 C43.52,147.26 43.84,148.14 44.12,149.03 C47.56,148.91 51.00,148.75 54.44,148.64 C61.75,148.39 69.05,148.31 76.36,148.16 C87.71,147.92 99.15,147.43 110.52,147.91 C110.91,147.07 111.35,146.26 111.77,145.43 C112.26,144.46 113.72,145.32 113.23,146.29 C112.94,146.86 112.64,147.43 112.35,148.00 C114.65,148.12 116.95,148.27 119.25,148.49 C123.17,148.86 127.05,149.51 130.96,149.92 C134.94,150.33 138.83,150.26 142.77,149.60 C143.48,149.48 143.90,149.05 144.08,148.52 C144.08,148.52 144.09,148.51 144.09,148.51 C144.29,148.27 144.48,148.07 144.68,147.90 C144.91,147.75 145.17,147.62 145.47,147.51 C146.02,147.30 146.60,147.17 147.19,147.08 C147.83,146.98 148.49,146.97 149.14,146.89 C149.68,146.82 150.21,146.72 150.75,146.59 C151.70,146.37 152.61,146.07 153.52,145.67 C154.30,145.33 155.02,144.83 155.69,144.29 C157.08,143.28 158.28,141.98 159.33,140.63 C159.95,139.84 160.52,139.03 161.05,138.17 C161.96,136.70 162.74,135.17 163.52,133.62 C163.81,133.16 164.07,132.69 164.31,132.22 C162.77,131.76 161.22,131.39 159.59,131.37 C158.50,131.35 158.50,129.66 159.59,129.68 C161.46,129.71 163.23,130.14 164.98,130.66 C165.07,130.44 165.15,130.21 165.22,129.98 C165.43,129.49 165.61,128.99 165.75,128.49 C165.83,128.26 165.92,128.04 166.00,127.81 C166.19,127.02 166.38,126.22 166.58,125.43 C166.96,124.16 167.26,122.88 167.48,121.57 C167.67,120.71 167.81,119.85 167.91,118.97 C168.20,116.85 168.45,114.74 168.46,112.60 C168.44,111.28 168.35,109.96 168.21,108.64 C168.15,107.75 168.04,106.86 167.90,105.98 C167.72,104.67 167.54,103.37 167.24,102.08 C167.02,101.21 166.79,100.33 166.56,99.46 C166.00,97.63 165.33,95.84 164.57,94.10 C164.52,93.99 164.31,93.75 164.18,93.74 C164.09,93.74 163.95,93.83 163.99,93.95 C164.00,93.96 164.00,93.97 164.01,93.98 C163.96,93.88 163.92,93.78 163.88,93.68 C163.84,93.59 163.69,93.40 163.58,93.41 C163.57,93.41 163.56,93.41 163.55,93.41 C163.58,93.39 163.61,93.36 163.64,93.33 C164.40,92.43 164.89,91.25 165.43,90.21 C165.88,89.35 166.31,88.44 166.43,87.47 C166.54,86.62 166.39,85.78 165.86,85.10 C165.25,84.31 164.10,83.94 164.74,82.81 C165.46,81.52 166.53,80.40 165.47,78.94 C164.93,78.19 164.07,77.78 163.44,77.13 C162.71,76.38 162.37,75.38 162.38,74.35 C162.43,74.38 162.49,74.37 162.51,74.30 C163.12,72.45 162.68,70.42 162.05,68.62 C161.71,67.64 160.98,67.37 160.14,67.32 C163.79,60.19 167.21,52.94 170.25,45.53 C170.35,45.28 170.45,45.04 170.55,44.80 C170.70,44.43 170.39,43.95 170.03,43.87 C167.39,43.29 164.65,43.11 161.97,42.85 Z" id="🖍-Ink" fill="#000000"></path></g><g id="head/Long-Afro" transform="translate(78.59, 38.04)"><path d="M86.31,58.11 C84.86,40.42 80.44,24.76 59.69,24.09 C50.33,24.18 40.77,26.17 32.16,29.85 C11.23,40.35 4.59,78.70 23.03,94.14 C22.92,94.20 22.90,94.38 23.03,94.47 C26.83,97.04 31.07,99.14 35.31,100.92 C46.61,105.69 59.90,107.77 71.42,102.59 C89.00,95.10 89.27,74.28 86.31,58.11 L86.31,58.11 Z" id="🎨-Background" fill="#FFFFFF"></path><path d="M120.91,49.87 C121.63,49.22 122.17,48.36 122.44,47.40 C122.69,46.53 122.71,45.58 122.45,44.71 C122.16,43.77 121.55,43.03 121.69,42.06 C121.70,41.96 121.72,41.86 121.75,41.76 C122.28,39.93 123.58,38.61 123.12,36.58 C122.98,36.01 122.74,35.49 122.39,35.09 C122.43,34.65 122.46,34.21 122.49,33.76 C123.25,31.98 123.23,29.85 122.41,28.10 C122.31,27.20 122.16,26.30 121.95,25.43 C122.05,24.65 121.92,23.80 121.67,23.12 C121.23,21.92 120.69,20.75 120.10,19.59 C120.17,19.27 120.14,18.94 119.96,18.64 C119.65,18.10 119.23,17.63 118.80,17.16 C118.49,16.62 118.19,16.08 117.89,15.55 C117.75,15.31 117.59,15.04 117.42,14.75 C117.89,13.89 118.13,13.05 117.64,12.03 C117.46,11.65 116.95,11.37 116.53,11.40 C116.07,11.42 115.61,11.44 115.15,11.46 C114.28,10.41 113.30,9.47 112.24,8.93 C111.18,8.03 110.09,7.14 109.04,6.23 C108.74,5.97 108.44,5.72 108.15,5.46 C108.14,5.45 108.14,5.44 108.14,5.44 C107.92,4.64 107.67,3.85 107.43,3.05 C107.27,2.56 107.23,2.04 106.75,1.77 C105.74,1.21 104.20,1.13 103.06,1.03 C102.94,0.93 102.83,0.83 102.71,0.73 C103.24,-0.66 103.14,-2.14 102.49,-3.53 C102.26,-4.01 101.48,-4.22 101.06,-3.91 C100.07,-3.18 98.90,-2.93 97.75,-3.03 C96.05,-4.34 89.20,-10.25 88.14,-10.87 C88.13,-10.89 88.12,-10.92 88.10,-10.94 C87.51,-11.89 86.78,-12.65 85.97,-13.26 C85.86,-13.38 85.74,-13.51 85.62,-13.63 C85.73,-14.35 85.99,-15.05 86.43,-15.64 C86.47,-15.70 86.53,-15.77 86.58,-15.83 C87.34,-16.73 86.41,-17.89 85.36,-17.42 C85.28,-17.39 85.20,-17.35 85.13,-17.32 C84.32,-16.96 83.42,-16.56 82.48,-16.23 C82.14,-16.36 81.79,-16.47 81.47,-16.60 L78.06,-17.97 C77.50,-18.20 76.91,-18.39 76.36,-18.65 C76.18,-19.91 74.91,-20.74 73.60,-20.70 C73.68,-20.94 73.79,-21.17 73.95,-21.40 C74.00,-21.46 74.05,-21.53 74.10,-21.59 C74.78,-22.37 73.88,-23.82 72.91,-23.13 C72.84,-23.08 72.77,-23.03 72.71,-22.98 C72.44,-22.79 72.17,-22.62 71.89,-22.45 C71.44,-22.64 70.95,-22.68 70.42,-22.48 C69.27,-22.03 68.20,-21.57 67.18,-20.85 C67.14,-20.83 67.10,-20.80 67.05,-20.77 C66.55,-21.39 65.74,-21.79 65.02,-21.79 C65.01,-21.79 65.00,-21.79 64.98,-21.79 C64.44,-22.61 63.45,-23.09 62.49,-22.98 C62.56,-24.16 61.37,-25.21 60.30,-25.34 C59.04,-25.49 57.90,-24.76 57.53,-23.53 C57.42,-23.19 57.32,-22.85 57.21,-22.51 C56.23,-23.00 55.20,-23.38 54.12,-23.57 C51.67,-24.00 49.27,-23.54 46.91,-22.86 C46.67,-22.79 46.44,-22.72 46.20,-22.65 C45.86,-23.04 45.55,-23.44 45.24,-23.81 C44.72,-24.46 43.47,-23.94 43.55,-23.11 C43.61,-22.54 43.38,-22.13 43.01,-21.84 C42.60,-21.78 42.20,-21.76 41.60,-21.77 C40.81,-21.79 40.45,-21.81 39.62,-22.14 C39.24,-22.29 38.76,-22.68 38.53,-23.04 C37.67,-24.39 35.49,-24.76 34.44,-23.46 C33.35,-23.94 31.96,-23.28 31.36,-22.35 C31.04,-21.86 30.37,-21.59 29.54,-21.35 C28.91,-21.18 28.27,-21.04 27.62,-20.93 C27.34,-21.32 26.73,-21.58 26.29,-21.25 C25.99,-21.03 25.69,-20.80 25.41,-20.57 C23.19,-20.26 20.98,-20.25 18.86,-21.12 C17.07,-21.85 15.42,-19.85 15.72,-18.17 C15.20,-17.90 14.64,-17.72 14.12,-17.43 C13.00,-16.81 12.09,-15.84 11.53,-14.69 C11.43,-14.48 11.33,-14.27 11.25,-14.06 C10.83,-13.72 10.42,-13.37 10.01,-13.01 C9.34,-13.35 8.67,-13.69 8.00,-14.04 C7.50,-14.30 6.65,-14.12 6.55,-13.45 C6.39,-12.35 5.99,-11.44 5.43,-10.68 C3.59,-9.71 1.83,-8.63 0.14,-7.43 C-1.80,-6.82 -3.86,-6.46 -5.56,-6.07 C-6.14,-5.93 -6.46,-5.17 -6.13,-4.66 C-5.78,-4.13 -5.44,-3.59 -5.09,-3.06 C-6.06,-2.12 -6.96,-1.13 -7.82,-0.11 C-10.20,2.72 -12.19,5.82 -13.98,9.11 C-14.68,9.40 -15.39,9.68 -16.09,9.97 C-16.77,10.24 -17.08,11.03 -16.53,11.61 C-16.27,11.89 -16.03,12.18 -15.83,12.49 C-16.83,14.14 -18.01,15.65 -19.65,16.64 C-20.15,16.94 -20.53,17.41 -20.73,17.95 C-20.90,18.06 -21.07,18.18 -21.24,18.31 C-21.70,18.66 -21.98,19.42 -21.44,19.88 C-21.06,20.20 -20.70,20.58 -20.39,21.00 C-20.33,21.24 -20.26,21.48 -20.19,21.72 C-21.72,23.13 -22.99,24.76 -23.95,26.60 C-24.17,26.56 -24.41,26.58 -24.59,26.72 C-26.30,27.99 -26.35,30.00 -25.67,31.79 C-26.08,34.50 -25.81,37.27 -25.01,39.90 C-26.06,40.95 -26.70,42.46 -26.95,43.92 C-27.41,46.48 -27.44,50.42 -27.56,53.03 C-28.70,54.14 -29.52,55.57 -29.97,57.11 C-30.36,57.30 -30.74,57.49 -31.12,57.68 C-31.46,57.85 -31.71,58.29 -31.69,58.67 C-31.59,60.49 -30.84,61.93 -29.85,63.23 C-29.49,64.23 -28.97,65.16 -28.29,66.05 C-27.81,66.65 -27.35,67.24 -26.94,67.89 C-26.90,67.96 -26.88,68.02 -26.86,68.06 C-27.02,68.24 -27.15,68.52 -27.27,68.73 C-28.24,70.45 -28.26,72.47 -26.87,73.96 C-27.39,74.39 -27.41,75.25 -26.95,75.78 C-23.95,79.21 -21.45,83.37 -17.29,85.19 C-17.27,85.23 -17.26,85.26 -17.24,85.29 C-18.09,87.32 -18.20,88.37 -17.51,90.47 C-17.51,90.49 -17.50,90.51 -17.49,90.52 C-17.13,91.62 -16.45,93.38 -15.23,93.73 C-14.85,93.83 -14.47,93.88 -14.09,93.88 C-13.13,94.81 -12.16,95.75 -11.20,96.68 C-11.11,97.14 -11.06,97.61 -11.04,98.08 C-11.01,98.87 -10.27,99.51 -9.47,99.28 C-9.19,99.19 -7.64,97.68 -7.35,97.69 C-7.21,97.83 -7.07,97.98 -6.93,98.12 C-6.42,98.66 -5.71,99.51 -5.65,100.08 C-5.53,101.14 -4.83,102.36 -3.71,102.57 C-3.29,103.00 -2.61,103.13 -2.09,102.57 C-2.06,102.54 -2.02,102.50 -1.99,102.47 C-1.93,102.46 -1.88,102.45 -1.83,102.45 C-1.58,103.19 -1.33,103.94 -1.08,104.68 C-0.58,106.14 1.30,107.08 2.63,106.23 C2.85,106.36 3.06,106.49 3.27,106.63 C3.59,106.84 3.92,107.05 4.25,107.24 C4.27,107.30 4.29,107.35 4.30,107.40 C4.52,108.06 5.42,108.41 5.97,108.04 C6.14,108.09 6.31,108.14 6.49,108.17 C7.42,108.36 8.36,108.31 9.26,107.99 C9.91,107.77 10.52,107.35 11.21,107.30 C11.26,107.29 11.30,107.30 11.35,107.30 C11.91,108.45 13.20,109.45 14.22,109.79 C15.55,110.24 16.92,110.08 18.13,109.53 C18.46,110.19 18.87,110.81 19.36,111.38 C19.64,111.70 20.13,111.63 20.41,111.38 C20.94,110.91 21.47,110.43 22.00,109.96 C22.39,109.81 22.77,109.63 23.18,109.47 C24.44,108.95 25.82,108.74 26.99,107.99 C27.54,107.64 28.06,107.19 28.49,106.66 C29.30,106.20 30.05,105.62 30.72,104.95 C31.05,104.95 31.40,104.87 31.74,104.70 C33.15,103.98 33.89,102.52 33.96,101.02 C35.10,98.33 35.78,95.45 35.97,92.51 C36.02,91.55 36.04,90.57 35.96,89.61 C35.91,88.93 35.74,88.47 35.48,87.86 C35.39,87.66 35.32,87.47 35.26,87.27 C35.27,86.62 35.28,85.97 35.29,85.32 C35.46,84.77 35.78,84.26 36.21,83.83 C36.88,83.17 37.19,81.79 36.58,80.97 C36.18,80.44 35.78,79.91 35.38,79.38 C35.50,77.10 36.04,73.48 34.83,73.10 C34.88,72.76 34.99,72.43 35.04,72.09 C35.33,70.48 35.16,69.03 34.30,67.62 C34.12,67.33 33.97,67.07 33.84,66.81 C33.77,66.35 33.69,65.88 33.61,65.42 C33.49,64.70 33.37,63.98 33.27,63.25 C33.22,62.33 33.17,61.40 33.12,60.47 C33.07,59.62 33.01,58.77 32.95,57.91 C32.98,57.53 33.01,57.15 33.06,56.76 C33.35,54.48 34.28,53.64 35.90,52.05 C36.15,52.01 36.40,51.97 36.65,51.92 C37.80,51.68 39.00,51.31 40.19,51.44 C41.48,51.59 42.63,52.14 43.88,51.43 C44.24,51.22 45.05,50.64 45.12,50.18 C45.13,50.15 45.13,50.12 45.14,50.10 C45.23,50.09 45.34,50.08 45.41,50.08 C46.40,50.04 47.35,50.43 48.35,50.33 C49.54,50.20 50.60,49.67 51.30,48.89 C52.19,49.11 53.10,49.21 54.03,49.09 C54.81,48.99 55.51,48.73 56.19,48.36 C56.69,48.09 56.54,48.01 57.08,48.23 C58.32,48.73 59.44,49.40 60.84,49.05 C61.56,48.87 62.19,48.48 62.72,47.96 C62.84,47.83 63.05,47.65 63.19,47.48 C63.86,47.81 65.53,48.57 65.80,48.64 C66.58,48.83 67.40,48.80 68.16,48.55 C68.71,48.36 69.39,47.85 69.88,47.75 C70.51,47.61 71.92,48.49 72.67,48.80 C73.99,49.33 75.39,49.46 76.73,48.91 C77.19,48.72 78.09,47.97 78.43,47.98 C78.99,48.67 80.56,52.45 81.03,53.83 C82.93,59.41 83.42,76.83 82.54,81.28 C82.51,81.41 82.47,81.54 82.44,81.67 C81.36,85.53 80.24,89.46 78.43,93.06 C76.73,96.46 74.38,99.52 71.01,101.37 C67.51,103.29 63.40,103.80 59.47,103.54 C56.94,103.37 54.44,102.86 51.99,102.22 C50.71,101.89 49.44,101.52 48.18,101.14 C47.63,100.97 47.07,100.81 46.53,100.62 C45.57,100.28 45.07,100.25 44.16,100.69 C43.33,101.09 43.11,102.28 43.55,103.02 C44.25,104.24 45.54,104.33 46.79,104.68 C48.06,105.04 49.34,105.39 50.63,105.70 C53.09,106.29 55.59,106.75 58.11,106.95 C62.63,107.33 67.28,106.75 71.39,104.78 C71.86,104.55 72.31,104.31 72.74,104.06 C72.58,104.28 72.42,104.51 72.25,104.73 C71.79,105.34 72.13,106.39 72.77,106.72 C72.98,106.83 73.18,106.93 73.38,107.03 C73.41,107.10 73.44,107.16 73.47,107.23 C74.06,108.40 75.28,109.10 76.53,109.40 C78.02,109.75 79.68,109.50 81.19,109.45 C82.58,109.41 83.98,109.37 85.38,109.33 C85.71,109.32 86.04,109.31 86.37,109.30 C88.03,109.25 89.69,109.20 91.34,109.15 C92.82,109.10 92.75,109.22 94.14,108.63 C94.76,108.36 95.27,107.98 95.69,107.48 C95.96,107.36 96.22,107.23 96.47,107.08 C97.26,106.58 97.97,105.92 98.62,105.19 C99.72,105.53 101.27,105.21 101.49,103.82 C101.83,101.60 104.72,100.65 106.07,99.05 C107.15,97.75 107.93,96.05 107.89,94.42 C110.63,93.10 112.13,89.60 112.47,86.63 C112.64,85.26 112.61,83.78 112.85,82.38 C112.95,82.27 113.04,82.15 113.12,82.03 C113.81,80.91 114.41,79.76 114.94,78.59 C115.66,78.07 116.52,77.75 117.42,77.70 C119.65,77.57 120.06,74.57 117.95,73.85 C117.94,73.84 117.93,73.84 117.92,73.84 C118.49,72.40 118.44,70.70 117.74,69.34 C117.77,69.19 117.80,69.04 117.83,68.90 C119.02,67.62 119.70,65.84 119.63,64.11 C120.17,63.73 120.78,63.43 121.44,63.25 C122.47,62.96 122.48,61.71 121.72,61.15 C121.41,60.92 121.16,60.66 120.95,60.36 C121.47,58.78 121.26,56.96 120.19,55.66 C120.87,54.78 121.55,53.91 122.24,53.03 C122.69,52.45 122.93,51.47 122.24,50.92 C121.79,50.57 121.35,50.22 120.91,49.87 Z" id="🖍-Ink" fill="#000000"></path></g><g id="face/Cute" transform="translate(112.18, 77.35)" fill="#000000"><path d="M37.51,43.40 C38.23,42.12 40.39,42.33 40.73,43.82 C41.40,46.84 37.79,49.64 35.05,49.71 C32.33,49.78 29.28,47.46 29.67,44.53 C29.77,43.81 30.73,43.90 31.06,44.35 L31.19,44.52 C32.09,45.73 33.27,46.97 34.93,46.68 C35.62,46.56 36.24,46.13 36.66,45.57 C37.16,44.90 37.11,44.11 37.51,43.40 Z M20.20,21.27 C20.57,21.16 20.94,21.20 21.27,21.34 C22.00,21.48 22.61,22.08 22.82,22.78 C22.84,22.84 22.86,22.90 22.88,22.96 L22.91,23.05 L22.82,22.82 C22.86,23.04 23.04,23.27 23.11,23.49 C23.19,23.76 23.20,24.07 23.18,24.37 C23.41,24.37 23.64,24.38 23.87,24.40 L24.10,24.42 C25.35,24.54 26.72,24.75 27.46,25.83 C27.88,26.44 27.49,27.53 26.72,27.65 C25.55,27.83 24.53,27.18 23.36,27.05 C22.25,26.92 21.09,26.99 19.99,27.20 C17.73,27.61 15.65,28.53 13.44,29.10 L13.14,29.18 L13.14,29.18 L13.15,29.18 C12.77,29.27 12.34,28.74 12.71,28.44 C14.48,26.98 16.74,25.81 18.97,25.09 C18.64,24.58 18.54,23.89 18.76,23.34 C18.80,23.23 18.84,23.11 18.89,23.00 L18.98,22.77 L18.98,22.77 C18.99,22.67 19.01,22.56 19.04,22.45 L19.04,22.42 L19.04,22.42 L19.05,22.42 L19.05,22.42 C19.21,21.89 19.65,21.42 20.20,21.27 Z M42.73,21.35 C43.21,20.87 43.89,20.94 44.40,21.32 L44.46,21.37 L44.46,21.37 C44.94,21.58 45.33,22.04 45.59,22.47 C45.86,22.91 46.04,23.37 46.04,23.85 C47.21,23.86 48.33,24.21 49.19,25.15 C49.47,25.46 49.66,25.93 49.50,26.34 L49.41,26.59 L49.41,26.59 C49.13,27.37 47.83,27.82 47.39,26.90 L47.37,26.85 C46.90,25.77 45.10,25.88 44.15,25.99 C43.48,26.07 42.83,26.23 42.18,26.42 C41.96,26.49 41.73,26.56 41.51,26.63 L41.29,26.70 C41.17,26.74 40.54,27.08 40.93,27.00 C41.03,26.98 41.11,27.13 41.01,27.18 C40.54,27.40 40.05,26.96 40.08,26.46 C40.14,25.60 41.50,25.13 42.16,24.83 L42.20,24.82 C42.45,24.70 42.72,24.59 42.99,24.48 C42.84,24.25 42.71,24.00 42.60,23.73 C42.51,23.47 42.44,23.22 42.40,22.95 C42.37,22.82 42.37,22.68 42.40,22.55 L42.41,22.51 L42.41,22.51 C42.39,22.42 42.38,22.33 42.38,22.24 L42.38,22.20 L42.38,22.20 C42.39,21.88 42.52,21.56 42.73,21.35 Z M35.01,30.52 C36.87,31.10 39.93,32.66 38.96,35.07 C37.61,37.29 34.03,35.66 32.30,34.94 C30.74,34.43 29.93,36.61 31.43,37.27 C43.89,42.20 43.84,29.19 35.47,29.38 C34.54,29.40 34.51,30.33 35.01,30.52 Z M18.53,13.56 L18.85,13.47 C20.50,12.99 22.17,12.17 23.63,13.45 C24.21,13.95 24.33,15.00 23.92,15.63 C22.98,17.06 21.59,16.85 20.09,16.97 C18.94,17.06 17.80,17.40 16.73,17.82 C15.85,18.17 15.04,18.65 14.27,19.19 C13.52,19.73 13.00,20.56 12.23,21.04 C11.95,21.21 11.62,21.03 11.52,20.75 C11.16,19.74 11.77,18.48 12.28,17.62 C12.91,16.56 13.87,15.70 14.90,15.05 C16.02,14.34 17.27,13.93 18.53,13.56 L18.53,13.56 Z M42.50,12.47 C45.28,12.47 47.95,14.02 49.51,16.28 C50.04,17.05 49.65,18.19 48.89,18.64 C48.04,19.14 47.13,18.78 46.57,18.06 L46.54,18.02 C45.65,16.83 44.50,15.90 43.13,15.29 C42.47,14.99 41.73,14.75 41.01,14.63 L40.78,14.59 C40.46,14.53 40.08,14.48 39.78,14.53 C39.63,14.55 39.48,14.60 39.35,14.68 C39.41,14.82 39.25,14.99 39.09,14.91 C38.40,14.53 38.49,13.85 39.06,13.33 C39.86,12.58 41.46,12.47 42.50,12.47 Z" id="🖍-Ink"></path></g><g id="facial-hair/Goatee-1" transform="translate(104.58, 109.48)" fill="#000000"><path d="M43.93,6.62 C41.58,5.56 37.36,6.49 35.83,6.85 C32.26,7.71 28.68,9.55 27.58,12.45 C26.33,15.71 28.82,16.73 29.18,16.56 C31.65,16.74 34.58,15.19 37.17,14.79 C39.26,14.46 41.48,14.17 43.44,13.06 C44.88,13.85 48.12,14.28 50.73,14.97 C52.96,15.55 53.92,16.83 55.99,16.56 C58.46,16.23 57.45,11.03 54.69,8.92 C51.67,6.61 46.57,5.67 43.93,6.62 Z M48.58,28.88 C46.52,29.38 46.38,24.88 46.15,23.28 C45.97,22.04 44.96,18.83 42.39,18.97 C39.81,19.11 38.85,21.80 38.98,23.47 C39.06,24.55 40.06,30.04 36.87,30.74 C34.84,30.73 32.49,30.59 30.35,30.20 C27.84,29.63 24.57,27.63 23.70,31.56 C23.39,32.98 34.47,37.18 39.39,37.56 C44.37,38.57 50.21,37.02 53.76,33.20 C54.56,32.33 56.84,28.73 57.00,27.85 C57.34,25.99 56.55,24.80 54.26,25.45 C52.64,26.32 49.90,28.56 48.58,28.88 Z" id="🖍-Ink"></path></g><g id="accessories/Glasses-2" transform="translate(88.52, 88.98)" fill="#000000"><path d="M78.66,20.18 C76.09,22.83 71.81,23.59 68.40,22.17 C59.64,18.50 63.92,7.08 70.68,4.01 C71.53,3.80 72.65,3.30 73.68,3.19 C73.77,3.14 73.98,3.27 74.22,3.15 C81.67,3.98 83.37,15.55 78.66,20.18 M50.39,20.85 C47.52,24.67 42.17,25.85 37.80,24.07 C29.17,20.67 32.23,10.54 38.13,6.57 C50.61,1.88 55.76,13.82 50.39,20.85 M31.68,12.40 C31.67,12.39 31.66,12.39 31.66,12.39 C31.70,12.37 31.75,12.35 31.79,12.33 C31.78,12.36 31.76,12.40 31.75,12.44 C31.73,12.43 31.71,12.41 31.68,12.40 M84.60,8.27 C83.89,8.27 82.87,8.39 82.29,8.88 C80.85,4.02 75.55,-0.47 70.93,2.81 C67.30,3.98 64.60,6.57 63.07,10.02 C60.30,8.37 55.96,9.08 53.56,11.25 C51.99,6.06 48.13,4.25 43.53,3.98 C38.51,3.16 33.51,8.03 31.94,11.94 C30.65,11.80 28.71,11.38 27.49,12.18 C19.56,10.11 5.71,8.96 4.10,10.11 C2.95,10.55 2.32,13.27 3.92,13.41 C5.32,13.21 3.76,11.43 5.17,11.23 C12.67,10.76 19.96,12.28 27.38,12.91 C28.05,13.80 30.19,14.10 31.33,13.74 C29.53,20.38 33.42,24.89 39.24,26.25 C48.25,28.32 56.10,20.25 53.74,11.86 C56.47,10.50 59.61,10.56 62.59,11.27 C57.61,29.58 87.08,28.75 82.48,9.50 C85.54,11.03 86.20,8.58 84.60,8.27" id="🖍-Ink"></path></g></g></g></g></g></svg>