<?xml version="1.0" encoding="UTF-8"?><svg width="240px" height="324px" viewBox="0 0 240 324" version="1.1" xmlns="http://www.w3.org/2000/svg" xmlns:xlink="http://www.w3.org/1999/xlink"><title>peep-47</title><desc>Created with Sketch.</desc><g id="Introduction" stroke="none" stroke-width="1" fill="none" fill-rule="evenodd"><g id="variations" transform="translate(-1566.00, -1406.00)"><g id="images" transform="translate(126.00, 110.00)"><g id="a-person/bust" transform="translate(1440.00, 1296.00)"><g id="body/Tee-Arms-Crossed" transform="translate(31.06, 135.05)" fill-rule="evenodd"><path d="M139.42,46.07 C137.59,45.42 135.82,44.66 134.21,43.55 C129.56,40.09 126.54,34.88 123.67,29.95 C119.64,22.78 116.77,15.14 114.79,7.17 C113.93,3.74 113.65,-0.23 111.71,-3.27 C107.31,-9.62 94.43,-8.80 87.59,-7.68 C83.01,-6.87 82.07,-1.75 81.03,2.05 C80.16,5.20 79.59,8.39 79.12,11.62 C77.99,12.37 76.71,12.97 75.49,13.50 C62.21,17.57 59.87,25.12 54.80,36.79 C46.23,53.75 22.99,60.39 19.48,80.45 C17.21,93.70 23.65,106.17 30.28,117.18 C36.46,129.21 45.08,134.98 58.82,132.14 C71.70,129.25 84.08,124.42 96.73,120.68 C102.86,119.17 108.98,115.25 115.43,116.62 C128.72,119.60 142.37,121.00 155.98,120.62 C175.10,121.39 175.10,103.04 173.13,88.82 C171.76,66.70 160.61,52.50 139.42,46.07 L139.42,46.07 Z" id="🎨-Background" fill="#FFFFFF"></path><path d="M140.70,78.08 C142.30,79.13 143.64,80.74 144.72,82.42 C140.22,81.95 135.72,81.41 131.24,80.80 C131.82,80.42 132.42,80.06 133.02,79.71 C135.24,78.46 138.23,76.44 140.70,78.08 Z M65.89,91.39 C65.07,91.07 64.75,89.81 64.43,89.09 C63.42,86.83 62.50,84.53 61.54,82.24 C65.18,81.21 68.71,80.06 72.48,79.50 C76.53,78.91 80.63,78.77 84.72,78.90 C93.00,79.17 101.20,80.52 109.33,81.97 C117.46,83.42 125.59,84.82 133.77,85.91 C141.79,86.98 149.83,87.76 157.89,88.45 C159.46,88.58 162.07,89.15 163.33,87.91 C164.32,86.94 164.36,85.14 163.11,84.34 C162.33,83.85 161.20,83.84 160.32,83.73 C159.20,83.58 158.08,83.49 156.95,83.41 C156.49,83.38 156.04,83.36 155.58,83.33 C159.26,81.94 163.10,81.18 167.09,81.39 C167.31,82.76 168.33,84.18 168.89,85.31 C169.86,87.28 170.62,89.28 171.11,91.42 C172.15,95.91 172.20,100.57 171.90,105.14 C171.63,108.96 171.06,113.18 168.06,115.88 C165.80,117.93 162.60,118.68 159.64,118.92 C156.19,119.20 152.69,118.90 149.28,118.44 C144.48,117.79 139.67,116.94 134.97,115.79 C125.87,113.56 117.15,110.02 109.10,105.22 C105.18,102.88 101.43,100.25 97.46,98.00 C93.40,95.70 89.09,93.92 84.56,92.82 C79.49,91.58 74.19,91.05 68.98,91.36 C68.08,91.41 66.77,91.74 65.89,91.39 Z M60.02,89.10 C60.55,90.82 60.96,92.80 62.10,94.25 C63.22,95.69 64.92,96.20 66.68,96.33 C68.80,96.48 70.95,96.38 73.08,96.46 C77.44,96.62 81.74,97.33 85.91,98.63 C89.80,99.84 93.40,101.73 96.88,103.83 C100.09,105.77 103.21,107.85 106.42,109.78 C105.57,110.18 104.72,110.60 103.87,110.97 C102.09,111.74 100.29,112.49 98.49,113.22 C94.94,114.66 91.37,116.06 87.76,117.36 C80.49,119.99 73.10,122.29 65.62,124.24 C62.05,125.17 58.43,126.26 54.73,126.42 C51.44,126.55 48.40,125.63 45.75,123.67 C40.25,119.62 35.87,113.76 32.34,107.99 C30.24,104.56 28.40,100.96 26.89,97.23 C26.12,95.35 25.43,93.43 24.80,91.50 C24.51,90.59 24.23,89.68 23.96,88.76 C23.85,88.35 23.74,87.95 23.63,87.54 C29.25,85.83 34.94,84.28 40.76,83.42 C43.87,82.96 47.02,82.73 50.16,82.76 C51.72,82.78 53.28,82.86 54.83,83.02 C55.66,83.11 56.50,83.22 57.32,83.36 C57.67,83.42 58.02,83.50 58.37,83.56 C58.91,85.41 59.45,87.26 60.02,89.10 Z M176.23,81.75 C176.53,81.14 176.66,80.53 176.77,79.87 C176.85,79.36 177.07,78.64 176.88,77.98 C176.66,77.24 176.07,76.58 175.65,75.95 C175.19,75.25 174.72,74.55 174.26,73.85 C173.33,72.45 172.40,71.05 171.48,69.65 C167.70,63.94 163.94,58.21 160.18,52.48 C156.85,47.40 153.57,42.27 150.13,37.25 C147.19,32.96 143.99,28.75 139.96,25.41 C134.88,21.20 128.82,19.21 122.49,17.66 C121.80,16.94 120.88,16.55 119.89,16.63 C118.50,15.05 117.39,13.94 116.89,11.93 C116.65,10.97 116.72,8.26 115.79,7.69 C114.67,7.01 114.09,7.91 113.78,8.92 C112.75,12.30 113.93,16.84 116.65,20.23 C115.50,24.18 113.99,29.80 111.28,32.97 C108.39,36.36 104.38,37.42 100.06,37.49 C91.81,37.62 83.58,34.56 77.29,29.25 C75.38,27.63 73.61,25.83 72.00,23.91 C70.80,22.47 69.37,20.25 68.43,18.57 C68.43,17.92 67.66,17.24 75.51,16.71 C83.37,16.18 83.97,5.42 84.14,3.95 C84.29,2.76 84.89,0.92 84.05,-0.05 C83.70,-0.47 82.97,-0.53 82.51,-0.25 C81.66,0.28 81.39,1.63 81.12,2.54 C80.74,3.83 79.52,11.80 77.20,12.72 C76.12,13.16 74.87,13.16 73.72,13.24 C72.30,13.34 70.88,13.42 69.47,13.58 C68.95,13.64 68.38,13.81 67.87,13.82 C67.53,13.82 67.19,13.66 66.86,13.54 C65.77,13.16 64.68,13.45 63.56,13.60 C53.62,14.93 43.39,17.98 34.91,23.47 C27.44,28.30 22.18,35.26 18.71,43.39 C15.16,51.69 13.13,60.66 11.43,69.49 C10.86,72.45 10.36,75.43 9.93,78.41 C9.52,81.29 9.00,84.24 8.88,87.15 C8.83,88.31 9.11,89.38 9.53,90.43 C10.01,91.61 11.13,92.08 12.21,92.63 C14.59,93.85 17.09,94.79 19.67,95.46 C21.25,98.33 22.58,101.31 23.64,104.40 C23.25,105.19 23.24,106.36 23.16,107.12 C22.97,109.02 22.89,110.92 22.88,112.83 C22.84,116.65 23.07,120.46 23.25,124.28 C23.43,128.15 24.04,143.41 24.14,145.28 C24.22,146.72 24.11,148.75 24.88,150.03 C26.05,152.01 28.94,151.94 30.28,150.34 C63.56,157.50 126.11,155.34 151.31,151.74 C154.59,151.27 153.56,151.79 154.39,150.96 C155.02,150.34 155.55,149.28 155.72,148.42 C155.95,147.28 155.58,146.24 154.93,145.32 C154.24,144.35 154.11,142.77 153.86,141.62 C153.25,138.88 152.95,126.88 152.67,125.55 C152.58,125.14 152.50,124.70 152.40,124.26 C157.02,124.70 161.83,124.70 166.23,123.15 C168.72,122.27 171.05,120.90 172.84,118.93 C175.01,116.55 176.21,113.55 176.83,110.42 C177.63,106.39 177.80,102.21 177.64,98.11 C177.43,93.26 176.62,88.34 174.63,83.89 C175.28,83.28 175.83,82.55 176.23,81.75 Z" id="🖍-Ink" fill="#000000"></path></g><g id="head/Twists" transform="translate(78.59, 38.04)" fill-rule="evenodd"><path d="M14.36,21.64 C15.46,20.47 16.86,19.59 18.39,19.31 C16.99,20.01 15.62,20.74 14.36,21.64 Z M12.21,31.78 C12.02,30.89 11.89,29.98 11.85,29.08 C12.09,29.45 12.49,29.70 12.92,29.83 C12.64,30.46 12.40,31.12 12.21,31.78 Z M85.53,45.84 C84.26,40.57 78.36,30.44 76.97,28.49 C75.45,23.66 83.71,19.79 79.22,16.02 C77.19,14.31 74.50,13.71 71.98,13.11 C54.52,8.91 35.77,11.03 19.58,18.74 C17.11,18.22 14.55,19.24 12.76,21.02 C4.34,29.48 15.81,44.74 18.32,54.28 C22.62,64.91 13.76,66.70 14.71,75.70 C15.45,80.35 20.15,81.58 24.12,82.28 C24.76,82.43 25.61,82.45 25.82,83.12 C26.46,87.05 28.67,90.80 31.63,93.34 C31.37,94.11 31.57,95.04 32.48,95.71 C40.75,101.86 51.19,104.94 61.51,104.39 C73.81,103.73 80.17,96.68 81.70,94.86 C90.19,83.40 89.18,68.27 87.45,54.60 C86.24,45.09 87.77,55.17 85.53,45.84 Z" id="🎨-Background" fill="#FFFFFF"></path><path d="M47.60,2.02 C47.99,0.81 49.08,0.08 50.34,0.23 C51.45,0.36 52.63,1.46 52.50,2.68 C52.47,2.91 52.44,3.13 52.40,3.34 L52.40,3.34 L52.40,3.34 L52.41,3.34 L52.38,3.42 C52.30,3.81 52.19,4.16 52.02,4.48 C51.80,5.11 51.59,5.74 51.39,6.37 C51.68,6.36 51.99,6.38 52.29,6.43 C52.61,5.62 52.93,4.81 53.25,4.00 C53.59,3.13 53.83,2.01 54.50,1.34 C55.36,0.48 56.85,0.31 57.90,0.92 C59.00,1.57 59.40,2.72 59.16,3.95 C59.04,4.58 58.62,5.01 58.10,5.29 L58.04,5.32 L57.64,6.26 C57.76,6.21 57.89,6.16 58.03,6.12 C58.24,6.06 58.45,6.02 58.66,6.00 C59.23,4.97 59.86,3.97 60.51,2.98 C61.25,1.85 62.71,1.37 63.93,2.08 C65.03,2.72 65.62,4.40 64.83,5.51 C64.24,6.35 63.67,7.21 63.12,8.07 C63.21,8.09 63.31,8.11 63.40,8.14 C63.44,8.08 63.48,8.02 63.53,7.96 C64.14,7.21 64.84,6.65 65.57,6.02 C66.25,5.43 66.56,4.51 67.45,4.06 C68.57,3.50 69.92,3.77 70.59,4.89 C72.02,7.28 69.62,9.02 68.08,10.47 C69.42,9.64 70.81,8.87 72.24,8.22 C73.04,7.85 73.86,7.49 74.69,7.18 C75.91,6.72 76.91,6.87 77.91,7.72 C78.36,8.10 78.59,8.93 78.38,9.48 C77.98,10.54 77.35,11.19 76.23,11.50 C75.45,11.71 74.65,11.86 73.87,12.08 C72.56,12.46 71.29,12.92 70.05,13.49 C70.14,13.55 70.23,13.60 70.31,13.67 C71.23,13.37 72.17,13.12 73.11,12.90 C74.67,12.53 76.26,12.28 77.86,12.13 L78.39,12.08 C80.30,11.89 82.61,11.56 83.78,13.39 C84.17,13.99 84.21,14.99 83.78,15.59 C82.96,16.74 82.15,16.97 80.79,16.99 C82.13,17.13 83.46,17.31 84.79,17.51 C85.70,17.65 86.62,17.81 87.53,17.98 L87.98,18.07 C89.09,18.29 90.33,18.42 91.28,19.07 C93.36,20.47 92.38,23.20 90.08,23.49 C88.97,23.63 87.73,23.16 86.64,22.94 C85.58,22.73 84.51,22.54 83.44,22.38 C82.89,22.29 82.34,22.21 81.78,22.14 C82.91,22.31 84.03,22.54 85.13,22.86 L85.43,22.95 C87.54,23.60 90.39,24.62 91.05,26.88 C91.45,28.25 90.36,29.45 89.03,29.53 C87.81,29.60 86.78,28.87 85.74,28.33 C84.98,27.93 84.20,27.64 83.38,27.39 C82.54,27.13 81.67,26.91 80.80,26.74 C81.54,27.14 82.25,27.59 82.94,28.09 L83.26,28.32 C85.09,29.68 87.87,31.79 87.23,34.35 C87.03,35.15 86.13,35.92 85.27,35.84 C83.02,35.63 81.78,33.24 80.09,31.96 C79.65,31.62 79.17,31.29 78.66,30.97 C81.22,34.03 83.27,37.57 84.82,41.23 C88.23,49.27 89.28,56.71 89.30,65.35 L89.30,65.62 C89.31,70.39 89.20,75.25 88.73,79.99 C88.30,84.38 87.51,88.71 85.53,92.68 C82.19,99.34 75.70,104.52 68.54,106.50 C60.58,108.70 51.67,106.98 45.14,101.90 C43.48,100.61 45.69,97.80 47.39,99.00 C54.18,103.76 62.96,105.27 70.76,102.05 C76.94,99.49 81.92,93.99 84.03,87.65 C85.38,83.62 85.77,79.33 86.25,75.13 L86.28,74.85 C86.79,70.46 87.08,66.03 87.08,61.61 C87.07,53.40 85.89,46.64 82.28,39.20 C80.58,35.69 78.38,32.44 75.75,29.60 C74.95,29.76 74.10,29.53 73.29,29.44 C72.88,29.40 72.47,29.36 72.06,29.32 C72.48,29.59 72.89,29.87 73.29,30.16 L73.83,30.55 C75.49,31.74 77.60,33.10 77.18,35.41 C77.06,36.03 76.44,36.60 75.84,36.74 C73.65,37.26 72.15,35.14 70.68,33.88 C69.40,32.79 68.06,31.81 66.69,30.82 C66.38,30.60 66.07,30.38 65.75,30.16 C66.05,30.50 66.33,30.86 66.62,31.21 L67.03,31.73 C68.29,33.31 70.10,35.35 68.98,37.39 C68.66,37.96 67.98,38.34 67.33,38.33 C65.08,38.28 64.18,35.73 63.13,34.11 C62.22,32.73 61.23,31.42 60.21,30.12 C59.93,29.76 59.65,29.41 59.36,29.05 C54.63,29.29 49.91,29.92 45.28,30.92 C42.10,31.61 38.97,32.50 35.87,33.47 L35.61,33.55 C33.93,34.09 32.20,34.79 30.98,35.97 C30.81,36.79 30.94,37.66 31.11,38.47 L31.24,39.10 C31.77,41.72 32.13,44.28 31.86,46.97 C31.58,49.74 30.75,52.23 29.73,54.81 C29.25,56.02 28.75,55.80 28.58,57.10 C28.45,58.09 28.53,59.12 28.62,60.12 L28.69,60.97 C28.88,63.19 28.97,65.61 27.52,67.44 C27.29,67.72 26.81,67.61 26.65,67.33 C26.58,67.22 26.52,67.11 26.44,67.00 C25.74,65.99 24.67,65.41 23.44,65.18 C23.28,65.16 23.34,64.95 23.47,64.93 C24.51,64.81 25.50,65.07 26.33,65.61 C25.94,64.23 22.86,64.90 21.85,65.17 L21.82,65.18 C20.56,65.51 19.37,66.06 18.32,66.84 C16.21,68.41 14.99,70.84 15.05,73.47 C15.11,76.05 16.44,78.44 18.73,79.68 C19.84,80.27 21.09,80.56 22.34,80.55 C23.65,80.54 24.81,79.96 26.12,80.04 C26.88,80.09 27.45,80.90 27.02,81.61 C26.73,82.08 26.35,82.45 25.91,82.74 C26.98,85.21 28.34,87.57 29.92,89.74 C30.79,90.95 31.78,92.06 32.87,93.08 C33.72,93.87 35.56,94.79 35.46,96.12 C35.42,96.60 35.17,96.89 34.74,97.07 C33.38,97.62 31.74,95.71 30.83,94.79 L30.76,94.72 C29.63,93.60 28.60,92.35 27.71,91.04 C26.12,88.69 25.13,86.05 24.73,83.28 C22.56,83.93 19.68,83.32 17.91,82.52 C12.35,80.00 10.53,72.51 13.91,67.52 C14.57,66.55 15.38,65.72 16.32,65.06 C16.11,64.94 15.92,64.80 15.75,64.62 C14.80,63.61 14.13,62.30 13.47,61.09 L13.39,60.95 C12.80,59.88 12.24,58.80 11.72,57.70 L11.53,57.29 C10.37,54.78 9.34,53.69 8.51,51.05 C7.72,48.51 7.09,45.92 6.68,43.29 L6.57,42.59 C6.33,41.07 6.11,39.43 6.28,37.88 C5.10,38.27 3.91,38.51 2.73,37.93 C1.96,37.54 1.53,36.43 1.80,35.63 C1.99,35.04 2.31,34.57 2.72,34.21 C2.48,34.09 2.25,33.93 2.05,33.76 L1.87,33.61 L1.87,33.61 C1.16,32.99 1.11,31.81 1.54,31.04 C1.58,30.97 1.63,30.89 1.67,30.82 C2.08,30.08 2.92,29.60 3.76,29.62 C3.90,29.62 4.03,29.62 4.17,29.62 C3.78,29.53 3.40,29.40 3.03,29.17 C1.39,28.16 1.60,25.43 3.58,24.95 C4.42,24.75 5.33,24.83 6.25,25.05 C6.22,25.03 6.18,25.01 6.15,24.99 C5.46,24.56 4.88,23.73 4.94,22.88 C5.01,21.94 5.32,21.27 6.15,20.77 C6.87,20.34 7.90,20.30 8.61,20.77 C9.24,21.18 9.85,21.63 10.43,22.11 C9.85,21.39 9.33,20.60 9.13,19.76 C8.87,18.72 9.30,17.59 10.24,17.04 C10.98,16.60 11.77,16.65 12.48,16.99 C12.44,16.44 12.58,15.88 12.94,15.39 C13.68,14.37 15.03,13.79 16.21,14.53 C16.37,14.63 16.57,14.79 16.77,15.00 C16.38,13.75 16.73,12.45 18.07,11.88 C18.88,11.54 19.98,11.71 20.69,12.31 C20.24,9.88 23.82,8.10 25.21,10.61 C25.52,11.17 25.83,11.77 26.11,12.38 L26.22,12.61 L26.23,12.61 L26.16,12.44 L26.16,12.44 L26.08,12.27 C25.70,11.37 25.20,10.44 25.07,9.46 C24.87,8.02 25.51,6.66 27.08,6.44 C27.89,6.33 28.79,6.70 29.33,7.34 C29.04,5.11 31.54,3.48 33.33,5.15 C34.19,5.94 34.64,7.10 35.18,8.11 C35.49,8.69 35.80,9.26 36.11,9.83 C36.18,9.74 36.27,9.65 36.36,9.56 C35.90,8.19 35.55,6.80 35.25,5.40 C34.97,4.07 35.63,2.70 37.00,2.33 C38.24,1.98 39.79,2.75 40.07,4.07 C40.26,5.00 40.49,5.92 40.74,6.83 C40.92,6.79 41.09,6.76 41.26,6.74 C41.27,6.57 41.29,6.40 41.30,6.22 L41.37,5.61 C41.52,4.22 41.67,2.62 42.40,1.43 C43.64,-0.60 46.83,0.25 46.87,2.64 C46.88,3.88 46.38,5.11 46.20,6.34 C46.13,6.88 46.08,7.42 46.06,7.96 C46.40,6.16 46.87,4.39 47.41,2.64 C47.47,2.44 47.54,2.23 47.60,2.02 Z M20.08,71.29 C22.88,70.86 25.44,72.42 27.10,74.61 C27.40,75.01 27.20,75.57 26.93,75.91 C26.73,76.16 26.47,76.19 26.17,76.22 C25.83,76.27 25.39,75.99 25.24,75.69 C24.18,73.56 22.27,72.22 20.08,71.39 C20.04,71.37 20.03,71.30 20.08,71.29 Z M23.96,33.12 L24.04,33.03 C24.61,32.44 23.72,31.55 23.15,32.13 C22.55,32.75 22.15,33.51 21.77,34.27 C21.41,35.00 22.50,35.64 22.87,34.91 L23.03,34.58 C23.29,34.06 23.57,33.55 23.96,33.12 L23.96,33.12 Z M16.10,31.92 C16.90,31.78 16.56,30.56 15.76,30.69 C14.73,30.87 13.69,31.07 12.66,31.24 C11.86,31.38 12.20,32.60 13.00,32.46 C14.03,32.29 15.06,32.09 16.10,31.92 Z M63.92,23.57 C63.15,23.31 62.81,24.54 63.59,24.79 C64.65,25.15 65.71,25.51 66.72,26.01 C67.45,26.37 68.09,25.27 67.36,24.91 C66.25,24.37 65.09,23.96 63.92,23.57 Z M15.92,21.93 C15.16,21.63 14.83,22.85 15.58,23.15 L18.32,24.25 L18.32,24.25 C19.07,24.55 19.40,23.32 18.65,23.02 L15.92,21.93 L15.92,21.93 Z M73.48,18.95 L73.38,18.89 C72.70,18.44 72.06,19.54 72.74,19.98 C73.14,20.24 73.63,20.42 74.00,20.73 L74.08,20.80 C74.67,21.36 75.57,20.46 74.97,19.90 C74.54,19.49 73.99,19.26 73.48,18.95 L73.48,18.95 Z" id="🖍-Ink" fill="#000000"></path></g><g id="face/Explaining" transform="translate(112.18, 77.35)" fill="#000000" fill-rule="evenodd"><path d="M18.86,45.50 C21.45,42.49 25.81,42.28 29.42,43.04 C31.73,43.52 33.99,44.32 36.34,44.62 C37.44,44.76 38.55,44.80 39.66,44.78 C40.74,44.76 41.83,44.54 42.92,44.58 C43.08,44.59 43.15,44.81 43.00,44.90 C41.52,45.81 39.51,46.10 37.76,46.28 C37.76,46.41 37.77,46.54 37.79,46.65 C37.84,46.93 37.88,47.22 37.92,47.51 C38.00,48.16 38.08,48.81 38.17,49.46 C38.35,50.74 38.40,52.06 38.71,53.31 L38.77,53.52 C38.84,53.79 38.85,54.02 38.83,54.24 L38.90,54.21 L39.13,54.10 L39.27,54.03 C39.81,53.78 40.33,53.59 40.96,53.66 C41.45,53.70 41.85,54.03 41.85,54.55 C41.87,56.86 38.75,57.61 36.96,58.05 L36.44,58.18 C34.17,58.73 31.85,59.22 29.51,59.33 C25.77,59.52 21.55,58.49 19.10,55.44 C16.81,52.61 16.40,48.37 18.86,45.50 Z M35.88,55.23 C35.49,51.74 31.21,51.55 29.98,53.76 C29.43,50.68 21.34,53.50 21.98,54.11 C24.37,56.43 28.01,56.64 31.14,56.21 C32.73,55.99 34.32,55.64 35.88,55.23 Z M31.13,46.09 L30.06,45.94 L29.63,45.88 C26.96,45.52 23.96,45.34 21.77,47.05 C20.97,47.67 20.51,48.49 20.35,49.36 C22.42,49.06 24.51,48.82 26.60,48.63 L27.17,48.57 C28.47,48.46 29.78,48.33 31.09,48.20 L32.02,48.11 L32.94,48.01 C33.27,47.98 35.47,47.86 35.89,47.94 C35.93,47.57 35.99,46.76 36.08,46.40 C34.52,46.45 32.96,46.34 31.41,46.13 L31.13,46.09 Z M36.09,30.51 C37.68,31.48 40.11,33.74 38.40,36.15 C36.38,38.27 33.47,35.84 32.04,34.74 C30.71,33.89 29.21,36.08 30.45,37.07 C40.80,44.74 45.01,30.77 36.89,29.37 C36.00,29.22 35.67,30.21 36.09,30.51 Z M38.94,34.60 L39.02,34.56 L39.05,34.54 C39.09,34.51 39.06,34.52 38.96,34.55 L38.88,34.58 L38.88,34.63 C38.90,34.62 38.92,34.61 38.94,34.60 Z M18.51,25.98 L18.51,25.93 C18.51,24.58 19.30,21.51 21.24,21.51 C22.45,21.51 23.18,23.60 23.31,25.76 L23.32,25.85 C23.37,27.19 23.00,30.12 21.24,30.12 C19.45,30.12 18.53,27.35 18.51,25.98 L18.51,25.98 Z M47.06,25.56 L47.06,25.51 C47.06,24.16 46.28,21.08 44.34,21.08 C43.16,21.08 42.43,23.08 42.27,25.18 L42.26,25.34 C42.19,26.63 42.53,29.70 44.34,29.70 C46.12,29.70 47.05,26.92 47.06,25.56 L47.06,25.56 Z M19.62,12.32 C21.20,12.08 23.30,12.54 24.03,14.15 C24.36,14.86 23.97,15.66 23.14,15.70 C21.14,15.79 19.35,15.35 17.59,16.65 C16.83,17.21 16.19,17.99 15.66,18.76 L15.46,19.06 L15.29,19.30 C14.93,19.83 14.59,20.41 14.64,21.05 C14.65,21.24 14.46,21.42 14.28,21.42 C13.12,21.37 13.00,19.92 13.15,19.06 C13.43,17.45 14.21,15.93 15.29,14.72 C16.43,13.44 17.92,12.58 19.62,12.32 Z M41.42,14.27 C42.51,13.57 43.91,13.30 45.18,13.41 C47.70,13.61 51.93,15.75 51.38,18.83 C51.21,19.78 49.88,20.28 49.11,19.76 C48.27,19.19 48.07,18.31 47.44,17.57 C46.95,16.98 46.32,16.55 45.64,16.19 C44.98,15.83 44.21,15.61 43.45,15.53 L43.33,15.52 C42.87,15.48 40.58,15.49 40.92,16.34 C40.98,16.51 40.74,16.64 40.62,16.52 C39.92,15.74 40.71,14.73 41.42,14.27 Z" id="🖍-Ink"></path></g><g id="facial-hair/*-None" transform="translate(104.58, 109.48)"></g></g></g></g></g></svg>