<?xml version="1.0" encoding="UTF-8"?><svg width="240px" height="324px" viewBox="0 0 240 324" version="1.1" xmlns="http://www.w3.org/2000/svg" xmlns:xlink="http://www.w3.org/1999/xlink"><title>peep-42</title><desc>Created with Sketch.</desc><g id="Introduction" stroke="none" stroke-width="1" fill="none" fill-rule="evenodd"><g id="variations" transform="translate(-1326.00, -2054.00)"><g id="images" transform="translate(126.00, 110.00)"><g id="a-person/bust" transform="translate(1200.00, 1944.00)"><g id="body/Fur-Jacket" transform="translate(31.06, 135.05)"><path d="M18.11,150.31 C19.22,152.00 21.41,151.74 22.35,150.43 C33.06,152.93 44.05,151.94 54.91,151.33 C85.52,150.09 116.29,153.99 146.78,149.91 C150.01,149.26 153.78,149.57 156.42,147.33 C160.65,142.36 159.74,134.83 159.07,128.79 C153.66,94.73 145.98,60.35 142.15,26.07 C141.94,22.81 143.28,18.75 144.49,15.68 C144.78,15.11 146.67,14.55 147.64,13.89 C150.64,11.74 150.16,7.88 147.56,5.62 C139.14,-0.32 127.43,1.76 118.50,3.94 C116.79,-2.48 114.87,-6.71 111.61,-7.13 C105.41,-7.93 90.37,-10.36 85.74,-7.13 C83.52,-5.58 82.10,-0.14 80.51,2.52 C68.87,2.31 45.26,-13.26 40.41,4.28 C36.46,4.55 32.56,7.99 33.31,12.13 C28.19,16.65 32.23,23.43 32.16,29.06 C31.49,41.00 25.03,51.68 22.34,63.21 C16.20,85.58 9.25,126.28 16.86,148.12 C16.70,148.03 16.34,148.16 16.57,148.34 C17.44,148.58 17.55,149.67 18.11,150.31 Z" id="🎨-Background" fill="#FFFFFF"></path><path d="M151.86,144.62 C150.43,133.15 149.44,119.29 149.43,107.72 C149.42,106.63 151.12,106.63 151.12,107.72 C151.13,119.29 152.12,133.15 153.55,144.62 C153.68,145.70 151.99,145.69 151.86,144.62 M141.28,73.47 C139.07,74.82 136.17,73.88 133.98,72.99 C132.99,72.58 133.43,70.95 134.43,71.36 C136.10,72.04 138.53,73.04 140.28,72.09 C142.03,71.15 142.11,68.54 142.12,66.82 C142.13,65.73 143.82,65.73 143.81,66.82 C143.80,69.16 143.48,72.12 141.28,73.47 M137.19,125.98 C134.96,124.84 133.06,123.28 131.53,121.30 C130.87,120.44 132.34,119.59 132.99,120.44 C134.34,122.19 136.09,123.52 138.04,124.52 C139.01,125.02 138.15,126.48 137.19,125.98 M126.48,66.97 C122.66,82.29 120.10,97.89 118.84,113.63 C118.58,116.83 118.40,120.02 118.30,123.21 C118.20,124.04 118.10,124.88 118.01,125.71 C117.67,128.87 117.40,132.08 117.43,135.26 C117.44,136.68 117.48,138.11 117.58,139.53 C117.41,139.05 117.25,138.57 117.10,138.10 C116.79,137.12 116.59,136.11 116.27,135.15 C116.01,134.35 115.67,133.58 115.36,132.80 L115.36,132.80 C115.45,129.62 115.23,126.42 115.12,123.26 C114.98,119.16 114.81,115.07 114.72,110.97 C114.54,102.77 114.63,94.57 114.92,86.38 C115.52,69.87 117.02,53.44 118.53,37.01 C118.95,32.43 119.40,27.86 119.71,23.28 C120.03,18.66 120.16,14.02 120.19,9.38 C120.19,9.04 119.69,8.96 119.59,9.28 C119.51,8.18 119.36,7.08 119.12,6.02 C122.77,8.34 126.61,10.35 130.38,12.46 C132.36,13.58 134.34,14.71 136.38,15.71 C137.50,16.26 138.64,16.76 139.80,17.24 C141.00,17.73 142.14,18.42 143.46,18.07 C143.58,18.04 143.69,18.00 143.79,17.94 C143.64,18.23 143.49,18.51 143.35,18.80 C142.85,19.79 142.37,20.79 141.91,21.79 C141.79,21.88 141.68,22.01 141.60,22.17 C141.37,22.61 141.16,23.05 140.94,23.50 C140.90,23.46 140.86,23.42 140.82,23.38 C140.64,23.21 140.39,23.46 140.55,23.64 C140.62,23.72 140.69,23.80 140.76,23.89 C139.38,26.85 138.26,29.97 137.11,33.01 C135.69,36.75 134.35,40.52 133.08,44.32 C130.59,51.78 128.39,59.34 126.48,66.97 M71.84,122.57 C64.80,126.35 58.22,130.86 51.89,135.72 C51.02,136.38 50.18,134.92 51.03,134.26 C57.36,129.40 63.95,124.89 70.99,121.11 C71.95,120.60 72.80,122.06 71.84,122.57 M48.05,78.38 C47.69,78.35 47.33,78.14 47.24,77.76 C46.67,75.42 46.22,72.87 46.75,70.49 C46.99,69.43 48.62,69.88 48.38,70.94 C47.96,72.82 48.29,74.85 48.73,76.73 C54.87,76.99 60.93,74.79 66.81,73.31 C67.87,73.04 68.31,74.67 67.26,74.94 C61.02,76.51 54.58,78.86 48.05,78.38 M170.35,140.72 C170.36,140.70 170.37,140.69 170.37,140.67 C170.73,139.58 170.74,138.30 170.78,137.16 C170.85,135.11 170.78,133.07 170.59,131.03 C170.20,126.75 169.37,122.54 168.37,118.36 C166.39,110.08 163.59,102.03 162.07,93.64 C159.09,77.17 159.80,60.03 153.95,44.15 C151.52,37.54 148.04,31.20 143.32,25.95 C143.67,24.90 144.01,23.85 144.33,22.80 C144.91,20.96 145.49,19.07 145.84,17.18 C145.85,17.13 145.86,17.08 145.87,17.02 C147.88,16.16 149.71,14.52 150.02,12.35 C150.15,11.41 150.00,10.37 149.59,9.46 C150.42,8.70 150.95,7.71 150.82,6.37 C150.59,3.87 147.66,3.22 145.63,2.73 C143.31,2.18 140.91,2.02 138.54,2.29 C137.34,2.42 136.16,2.64 135.01,2.97 C134.00,3.25 132.91,3.54 132.10,4.23 C132.01,4.31 132.09,4.47 132.20,4.47 C133.83,4.46 135.45,3.87 137.10,3.79 C138.82,3.71 140.54,3.85 142.23,4.20 C143.88,4.55 145.53,5.06 147.03,5.84 C147.46,6.06 148.08,6.21 147.58,6.66 C147.22,6.99 146.50,7.02 146.04,7.07 C145.00,7.17 144.11,7.78 143.98,8.88 C143.86,9.86 144.44,10.96 145.48,11.18 C145.54,11.19 145.59,11.21 145.64,11.23 C145.66,11.28 145.71,11.32 145.70,11.25 C145.70,11.25 145.70,11.25 145.70,11.25 C145.73,11.40 145.74,11.47 145.74,11.48 C145.73,11.46 145.72,11.41 145.71,11.37 C145.72,11.41 145.73,11.47 145.75,11.56 C145.72,11.46 145.74,11.70 145.72,11.74 C145.18,12.76 143.55,13.04 142.60,13.48 C142.42,13.56 142.26,13.66 142.13,13.77 C141.90,13.70 141.67,13.62 141.44,13.53 C140.31,13.11 139.18,12.69 138.03,12.31 C135.81,11.57 133.56,10.91 131.35,10.16 C127.15,8.76 123.09,6.98 118.96,5.37 C118.83,4.88 118.68,4.41 118.50,3.94 C118.46,3.85 118.29,3.82 118.27,3.94 C118.21,4.35 118.16,4.77 118.12,5.18 C118.10,5.22 118.10,5.26 118.10,5.30 C117.86,7.71 117.93,10.18 117.81,12.58 C117.65,15.59 117.23,18.57 117.11,21.57 L117.11,21.62 C116.66,24.19 116.26,26.76 115.90,29.34 C115.49,29.21 115.03,29.24 114.55,29.49 C111.17,31.30 107.38,32.30 103.56,32.53 C101.64,32.64 99.73,32.57 97.82,32.35 C96.56,32.21 95.33,31.95 94.09,31.70 C94.74,28.96 95.44,26.24 96.23,23.54 C96.89,21.32 97.61,19.12 98.51,16.98 C99.42,14.83 100.55,12.77 101.60,10.68 C102.08,9.72 101.51,8.24 100.25,8.34 C99.88,8.37 99.51,8.40 99.13,8.41 C95.50,8.59 91.71,8.18 88.12,7.82 C84.03,7.40 79.89,6.97 75.84,6.30 C75.54,6.25 75.41,6.66 75.71,6.76 C77.63,7.41 79.53,8.14 81.50,8.62 C83.53,9.12 85.57,9.58 87.63,9.94 C89.60,10.28 91.58,10.56 93.57,10.80 C94.86,10.96 96.17,11.04 97.48,11.15 C95.72,13.95 94.51,17.12 93.46,20.24 C92.10,24.24 91.11,28.36 90.13,32.47 C88.05,41.28 86.33,50.18 84.99,59.14 C84.02,65.56 83.24,72.00 82.66,78.47 C82.49,76.50 82.27,74.55 82.04,72.59 C81.24,66.10 80.07,59.65 78.51,53.30 C78.65,53.06 78.72,52.76 78.67,52.48 C78.39,50.73 77.65,49.21 77.00,47.59 C76.36,45.33 75.66,43.08 74.91,40.85 C74.06,37.82 73.11,34.83 71.89,31.91 C70.96,29.68 69.90,27.51 68.72,25.41 C67.30,22.47 65.75,19.59 64.04,16.84 C63.96,16.59 63.81,16.35 63.61,16.15 C63.30,15.66 62.98,15.17 62.66,14.69 C62.45,14.38 61.85,14.57 62.01,14.97 C62.08,15.15 62.16,15.34 62.23,15.52 C55.29,13.79 48.48,16.44 41.87,18.40 C40.20,18.90 38.51,19.35 36.80,19.67 C35.45,19.93 33.89,20.24 32.54,19.96 C31.65,19.77 31.25,19.36 31.69,18.40 C32.14,17.41 33.37,16.76 34.44,16.32 C34.85,16.23 35.24,16.08 35.63,15.84 C36.52,15.30 36.91,14.17 36.49,13.21 C36.11,12.34 34.99,11.60 34.00,11.99 C33.86,12.05 33.72,12.10 33.58,12.16 C33.57,12.14 33.55,12.11 33.54,12.07 C33.40,11.68 33.33,12.14 33.40,11.59 C33.50,10.68 34.45,9.86 35.11,9.34 C36.74,8.05 39.09,7.10 41.19,7.59 C41.35,7.62 41.51,7.67 41.67,7.72 C43.83,8.47 44.89,5.35 43.16,4.19 C43.05,4.12 42.92,4.03 42.77,3.93 C42.05,3.43 41.00,2.58 41.28,1.82 C41.64,0.88 43.73,0.33 44.53,0.01 C47.39,-1.15 50.49,-1.81 53.57,-1.94 C56.68,-2.08 59.83,-1.74 62.83,-0.90 C64.30,-0.49 65.81,0.14 67.20,0.77 C68.45,1.33 71.16,2.08 71.34,3.66 C71.38,4.01 71.87,4.12 71.98,3.74 C72.83,0.71 69.53,-1.25 67.35,-2.50 C65.92,-3.33 64.29,-3.84 62.72,-4.35 C61.22,-4.83 59.68,-5.19 58.12,-5.41 C54.75,-5.87 51.35,-5.81 48.01,-5.16 C44.97,-4.57 41.58,-3.56 39.13,-1.61 C37.62,-0.41 36.94,1.50 37.54,3.37 C37.56,3.43 37.59,3.49 37.61,3.55 C34.89,4.04 32.32,5.59 30.61,7.76 C29.19,9.55 28.45,12.02 29.72,14.10 C29.66,14.14 29.61,14.18 29.56,14.22 C28.36,15.18 27.46,16.58 27.20,18.11 C26.67,21.13 28.50,23.24 31.05,24.05 C30.41,24.67 29.81,25.32 29.21,25.98 C27.89,27.44 26.62,29.04 25.50,30.68 C23.23,33.98 21.29,37.58 19.59,41.21 C16.10,48.66 13.90,56.67 12.74,64.80 C12.15,68.90 11.76,73.01 11.61,77.15 C11.43,81.86 11.61,86.58 11.52,91.29 C11.43,95.82 10.93,100.24 9.92,104.66 C8.95,108.89 7.66,113.03 6.48,117.20 C5.16,121.89 3.71,126.57 3.01,131.41 C2.66,133.87 2.41,136.34 2.60,138.84 C2.80,141.37 3.72,143.55 4.57,145.91 C4.79,146.51 5.45,146.75 5.97,146.62 C6.09,147.75 6.52,148.86 7.15,149.81 C8.50,151.84 10.58,153.13 12.96,153.60 C15.65,154.12 18.41,154.00 21.13,153.90 C24.07,153.80 27.02,153.70 29.97,153.58 C33.06,153.45 36.14,153.32 39.23,153.19 C39.13,150.02 39.00,146.86 38.87,143.70 C38.12,126.60 36.95,109.50 36.92,92.38 C36.86,92.35 36.80,92.31 36.75,92.25 C35.36,90.91 33.65,90.03 32.05,88.97 C31.14,88.38 31.99,86.92 32.90,87.51 C34.25,88.40 35.66,89.19 36.93,90.18 C36.93,88.40 36.95,86.62 36.98,84.84 C37.01,83.75 38.70,83.75 38.67,84.84 C38.57,90.21 38.60,95.58 38.73,100.95 C39.12,118.35 40.35,135.72 40.92,153.12 C49.20,152.76 57.48,152.41 65.76,152.10 C72.50,151.86 79.24,151.61 85.98,151.37 C87.39,151.32 88.18,150.31 88.36,148.99 C88.67,146.55 88.08,144.04 86.73,142.00 C86.59,141.79 86.43,141.60 86.24,141.44 C86.27,139.98 86.33,138.52 86.25,137.07 C86.13,134.84 85.94,132.62 85.78,130.40 C85.46,125.95 85.21,121.49 85.11,117.03 C84.91,108.11 85.05,99.19 85.56,90.28 C86.57,72.49 88.93,54.81 92.78,37.40 C93.06,36.14 93.35,34.87 93.64,33.60 C96.64,35.16 100.28,35.72 103.56,35.74 C107.67,35.77 111.68,34.82 115.39,33.10 C115.37,33.29 115.34,33.48 115.32,33.68 C114.28,41.92 113.41,50.18 112.65,58.45 C111.13,74.94 110.20,91.49 110.33,108.05 C110.37,112.64 110.54,117.22 110.76,121.80 C110.98,126.46 111.32,131.38 112.62,135.88 C112.76,136.37 113.08,136.66 113.45,136.76 C113.47,137.42 113.51,138.08 113.56,138.72 C113.71,140.83 114.14,145.19 115.06,147.10 C115.95,148.96 117.44,150.44 119.34,151.25 C121.75,152.28 124.36,151.98 126.91,151.82 C137.99,151.09 149.06,150.12 160.13,149.28 C161.67,149.16 163.21,149.04 164.75,148.92 C166.12,148.81 167.54,148.72 168.76,148.01 C170.14,147.20 171.22,143.22 170.75,141.58 C170.66,141.28 170.53,140.98 170.35,140.72" id="🖍-Ink" fill="#000000"></path></g><g id="head/No-Hair-3" transform="translate(78.59, 38.04)"><path d="M84.26,40.60 C76.83,21.04 63.43,6.71 40.85,15.71 C40.20,15.27 39.35,15.15 38.54,15.67 C26.24,23.39 17.38,35.79 13.54,49.76 C11.20,50.20 8.93,50.98 6.90,52.25 C2.50,55.01 -0.47,59.41 -3.25,63.69 C-4.09,64.98 -3.31,67.11 -1.74,67.40 C-1.06,67.53 -0.38,67.60 0.29,67.62 C0.13,68.22 -0.09,68.79 -0.36,69.32 C-1.36,71.23 0.52,73.25 2.28,72.73 C2.47,72.83 2.68,72.92 2.89,72.98 C2.91,74.06 3.47,75.51 4.57,75.73 C6.34,76.11 8.71,74.75 8.29,72.76 C8.82,72.86 9.36,72.87 9.88,72.80 C9.94,73.84 9.92,74.92 10.06,75.87 C10.53,80.37 15.02,83.39 19.31,82.03 C19.57,83.43 19.88,85.40 21.26,86.16 C22.87,90.69 25.66,95.85 30.22,97.92 C29.82,98.96 30.04,100.23 31.26,100.92 C39.61,105.69 49.64,107.30 59.09,105.53 C62.86,105.30 66.54,104.45 70.07,102.63 C72.64,101.31 75.01,99.62 77.32,97.89 C79.63,96.15 82.10,94.46 83.95,92.21 C85.95,89.76 86.88,86.88 87.49,83.81 C90.26,69.90 89.30,56.23 84.26,42.98 C78.03,26.57 90.50,57.01 84.26,40.60 Z" id="🎨-Background" fill="#FFFFFF"></path><path d="M48.33,11.90 C52.14,11.63 56.01,12.27 59.63,13.42 C65.41,15.25 70.71,18.47 75.07,22.68 C79.57,27.01 82.89,32.35 84.91,38.25 C87.34,45.36 87.71,52.96 88.40,60.38 C88.74,64.14 89.31,67.83 89.91,71.55 L90,72.13 C90.58,75.75 90.91,79.41 90.11,83.03 C88.77,89.03 84.78,94.13 80.04,97.90 C70.31,105.64 55.16,110.36 43.83,103.24 C42.08,102.14 43.74,99.32 45.45,100.47 C46.65,101.27 47.93,101.98 49.30,102.47 C55.02,104.52 61.29,103.79 66.94,101.89 C72.51,100.01 77.86,96.85 81.97,92.62 C86.28,88.19 88.67,82.71 88.33,76.47 C88.12,72.76 87.28,69.12 86.81,65.44 C86.39,62.18 86.14,58.90 85.86,55.63 L85.75,54.45 C85.14,47.78 84.27,40.93 81.23,34.88 C78.68,29.78 74.95,25.25 70.46,21.75 C65.75,18.09 60.14,15.53 54.24,14.57 C47.31,13.45 40.68,15.49 34.90,19.30 C29.77,22.67 25.36,27.18 21.98,32.29 C20.35,34.77 18.95,37.42 17.74,40.14 C16.61,42.70 15.82,45.38 14.91,48.02 C15.66,47.99 16.43,48.02 17.20,48.11 C21.18,48.55 24.89,50.61 27.25,53.87 C30.14,57.85 29.36,62.73 30.49,67.25 C30.57,67.60 30.43,67.95 30.13,68.14 C28.42,69.24 26.13,69.28 24.48,68.04 C23.04,66.96 22.37,65.00 22.95,63.30 C23.02,63.08 23.35,63.12 23.36,63.35 C23.47,66.26 26.16,68.49 28.80,67.11 C27.66,63.21 28.26,58.86 25.94,55.33 C21.85,49.10 13.37,48.84 7.41,52.35 C4.28,54.20 1.79,56.99 -0.05,60.10 L-0.59,61.00 C-1.29,62.21 -2.04,63.57 -2.19,64.90 C-2.28,65.67 -1.99,66.39 -1.11,66.00 C-0.40,65.69 0.15,64.96 0.57,64.33 C1.29,63.26 2.95,64.19 2.35,65.32 L2.33,65.36 C1.47,66.90 0.93,68.59 0.84,70.35 L0.81,70.84 C0.79,71.20 0.78,71.70 0.86,71.72 C0.95,71.74 1.57,71.02 1.68,70.92 C2.18,70.43 2.70,70.04 3.40,69.91 C4.32,69.74 5.25,70.88 4.45,71.63 L4.42,71.66 C3.70,72.28 3.73,73.51 4.52,74.09 C5.63,74.91 7.00,73.58 7.16,72.48 L7.17,72.44 C7.31,71.25 8.96,71.21 9.05,72.44 C9.24,75.11 6.07,77.34 3.65,76.00 C2.69,75.46 2.09,74.49 1.90,73.45 C1.59,73.61 1.26,73.72 0.91,73.75 C-0.22,73.85 -1.02,73.05 -1.21,71.98 C-1.42,70.74 -1.29,69.40 -0.97,68.11 C-1.58,68.26 -2.23,68.20 -2.88,67.83 C-4.85,66.69 -4.28,64.16 -3.54,62.46 C-0.37,55.18 6.21,48.57 14.35,48.04 C14.39,46.76 14.57,45.54 14.85,44.26 C17.64,31.67 26.66,20.02 38.40,14.58 C41.54,13.12 44.87,12.14 48.33,11.90 Z M17.53,62.16 L17.64,62.14 C18.91,61.86 22.25,61.54 21.85,63.68 C21.83,63.78 21.68,63.77 21.66,63.68 C21.26,62.34 18.58,63.41 17.80,63.73 C16.72,64.18 15.66,64.84 14.78,65.60 C12.85,67.27 11.56,69.63 11.37,72.19 C11.17,74.73 11.91,77.48 13.74,79.31 C14.64,80.21 15.78,80.83 17.07,80.87 C18.23,80.91 19.51,80.01 20.57,80.54 C20.78,80.64 20.95,80.93 20.93,81.16 C20.90,81.61 20.70,81.95 20.40,82.22 C22.19,85.48 23.65,88.93 25.93,91.89 C27.07,93.38 28.37,94.75 29.84,95.92 C30.53,96.48 31.29,96.97 32.07,97.40 C32.99,97.90 33.78,98.22 34.44,99.07 C35.00,99.80 34.44,101.21 33.52,101.33 C31.35,101.63 29.25,99.88 27.66,98.57 C26.07,97.26 24.70,95.64 23.56,93.92 C21.39,90.63 19.90,86.74 19.30,82.81 C18.61,83.03 17.83,83.10 17.24,83.10 C15.69,83.10 14.20,82.54 12.97,81.59 C8.49,78.12 7.99,71.00 11.15,66.51 C12.67,64.36 14.97,62.77 17.53,62.16 Z M17.56,70.43 C18.60,70.33 19.64,70.50 20.61,70.85 L21.02,71.00 C21.87,71.31 22.77,71.68 23.39,72.31 C24.33,73.29 23.39,74.98 22.06,74.61 C20.58,74.19 19.37,72.95 17.90,72.42 C16.57,71.96 15.08,72.02 13.90,72.83 C13.75,72.93 13.55,72.72 13.65,72.57 C14.54,71.20 15.96,70.57 17.56,70.43 Z" id="🖍-Ink" fill="#000000"></path></g><g id="face/Eating-Happy" transform="translate(112.18, 77.35)" fill="#000000"><path d="M26.65,41.49 C27.83,39.54 30.35,44.31 30.62,45.12 C30.86,45.85 31.01,46.59 31.09,47.35 C32.01,47.55 32.96,47.55 33.90,47.37 C35.29,47.10 36.15,46.35 37.36,45.71 C38.20,45.26 39.25,45.79 39.69,46.52 C40.20,47.39 39.88,48.30 39.20,48.94 C37.92,50.17 35.41,50.45 33.74,50.13 C32.79,49.94 31.91,49.58 31.14,49.06 C31.13,49.16 31.13,49.26 31.12,49.35 L31.10,49.52 C30.98,50.88 30.60,52.60 29.54,53.49 C27.81,54.94 25.67,52.14 27.35,50.69 L27.41,50.65 C28.45,49.80 28.68,47.53 28.63,46.27 C28.59,45.46 28.44,44.63 28.18,43.85 L28.13,43.70 C28.05,43.48 27.20,41.39 26.90,41.66 L26.88,41.67 C26.76,41.82 26.55,41.65 26.65,41.49 Z M36.09,30.51 C37.68,31.48 40.11,33.74 38.40,36.15 C36.38,38.27 33.47,35.84 32.04,34.74 C30.71,33.89 29.21,36.08 30.45,37.07 C40.80,44.74 45.01,30.77 36.89,29.37 C36.00,29.22 35.67,30.21 36.09,30.51 Z M19.05,21.55 C20.61,21.27 22.21,21.66 23.50,22.57 L23.60,22.64 C24.84,23.55 26.23,25.15 25.52,26.71 C25.23,27.34 24.37,27.44 23.83,27.16 C22.92,26.68 22.76,25.51 21.95,24.86 C21.29,24.33 20.40,24.01 19.54,24.09 C17.54,24.27 16.30,26.25 15.68,27.96 C15.60,28.17 15.28,28.26 15.16,28.02 C13.69,25.28 16.29,22.04 19.05,21.55 Z M44.03,20.51 C47.01,20.26 50.51,23.36 49.72,26.51 C49.34,28.03 47.10,27.98 46.70,26.51 C46.48,25.71 46.50,24.99 45.92,24.32 C45.44,23.76 44.76,23.44 44.03,23.49 C43.22,23.55 42.47,23.95 41.90,24.52 C41.39,25.03 41.09,25.78 40.56,26.24 C40.43,26.35 40.25,26.35 40.12,26.24 C39.21,25.39 39.76,23.64 40.34,22.76 C41.16,21.51 42.51,20.63 44.03,20.51 Z M13.36,15.95 C15.28,14.25 18.76,12.62 21.35,13.45 C22.83,13.93 23.48,16.33 21.82,17.08 C19.90,17.96 17.69,17.61 15.73,18.52 C14.91,18.90 14.14,19.38 13.57,20.08 C13.12,20.63 12.66,21.36 12.01,21.68 C11.84,21.76 11.61,21.76 11.47,21.61 C10.04,19.99 12.12,17.06 13.36,15.95 Z M40.73,13.37 C41.92,13.03 43.23,13.04 44.43,13.25 C45.64,13.46 46.86,13.96 47.84,14.68 L47.95,14.77 C49.02,15.58 50.30,16.75 50.23,18.18 C50.18,19.38 48.92,20.19 47.84,19.56 C46.95,19.05 46.53,18.03 45.79,17.35 C45.17,16.78 44.44,16.34 43.67,16.03 C42.81,15.68 41.95,15.52 41.02,15.51 C40.31,15.50 39.60,15.73 38.90,15.80 C38.96,15.92 38.40,15.87 38.09,15.76 C37.85,15.66 37.85,15.37 37.93,15.17 C38.34,14.22 39.80,13.63 40.73,13.37 Z" id="🖍-Ink"></path></g><g id="facial-hair/Moustache-5" transform="translate(104.58, 109.48)" fill="#000000"><path d="M62.20,6.92 C61.91,6.07 60.46,6.15 60.55,7.14 C60.66,8.27 60.27,9.53 59.18,10.08 C58.05,10.66 56.77,10.14 56.08,9.15 C55.48,8.29 55.06,7.36 54.31,6.61 C53.60,5.92 52.75,5.38 51.81,5.06 C51.08,4.81 50.32,4.75 49.59,4.83 C47.76,4.42 45.64,5.36 44.50,6.78 C44.42,6.88 44.36,6.97 44.29,7.07 C44.18,6.91 44.06,6.76 43.93,6.61 C43.61,6.22 43.21,6.14 42.85,6.24 C40.79,4.71 37.90,4.51 35.55,5.89 C33.68,7.00 32.12,8.64 29.82,8.76 C27.99,8.86 26.00,7.82 25.87,5.81 C25.80,4.76 24.37,3.89 23.57,4.86 C21.89,6.90 21.55,9.62 22.48,12.08 C23.47,14.69 25.47,16.53 28.01,17.61 C30.75,18.77 33.96,19.18 36.93,19.08 C39.89,18.99 42.57,17.85 44.36,15.44 C44.57,15.15 44.76,14.85 44.92,14.56 C46.65,16.76 49.36,17.69 52.12,17.75 C55.01,17.82 58.43,17.32 60.47,15.07 C62.44,12.91 63.12,9.69 62.20,6.92" id="🖍-Ink"></path></g><g id="accessories/Glasses-5" transform="translate(88.52, 88.98)" fill="#000000"><path d="M74.57,22.49 C71.40,24.01 66.98,21.76 64.85,19.40 C64.07,18.54 63.47,16.08 63.77,14.52 C64.58,10.30 67.62,7.77 70.83,6.90 C75.27,5.70 79.75,8.74 79.22,12.33 C78.73,15.73 77.98,20.66 74.57,22.49 M52.99,14.37 C52.74,18.98 49.04,23.00 44.63,24.20 C37.51,26.18 34.00,21.18 32.41,15.79 C32.25,15.26 31.88,13.62 32.87,12.22 C36.80,6.70 46.35,7.64 51.12,9.16 C52.52,10.49 53.09,12.42 52.99,14.37 M78.02,6.44 C78.02,6.44 78.01,6.44 78.01,6.44 C78.00,6.43 77.98,6.42 77.96,6.41 C77.98,6.42 78.00,6.43 78.02,6.44 M83.97,6.97 C83.56,2.28 68.86,4.08 67.14,4.46 C62.45,5.84 58.40,9.59 53.16,7.94 C47.73,1.89 29.44,3.62 25.60,6.71 C24.87,6.43 23.99,6.58 23.06,6.85 C18.25,6.67 -3.67,8.33 0.81,14.46 C1.49,14.93 2.17,14.45 2.19,13.48 C25.57,5.04 23.31,12.95 26.08,12.02 C26.50,12.14 26.94,12.22 27.33,12.30 C29.48,12.99 30.20,12.78 30.49,15.19 C32.43,33.80 57.20,27.38 55.17,12.11 C57.18,12.00 58.94,11.13 61.07,11.98 C62.55,26.36 74.11,26.94 77.59,21.96 C80.22,18.50 79.18,13.27 82.79,10.55 C84.21,11.75 84.30,7.72 83.97,6.97" id="🖍-Ink"></path></g></g></g></g></g></svg>