<?xml version="1.0" encoding="UTF-8"?><svg width="240px" height="324px" viewBox="0 0 240 324" version="1.1" xmlns="http://www.w3.org/2000/svg" xmlns:xlink="http://www.w3.org/1999/xlink"><title>peep-101</title><desc>Created with Sketch.</desc><g id="Introduction" stroke="none" stroke-width="1" fill="none" fill-rule="evenodd"><g id="variations" transform="translate(-3486.00, -758.00)"><g id="images" transform="translate(126.00, 110.00)"><g id="a-person/bust" transform="translate(3360.00, 648.00)"><g id="body/Blazer-Black-Tee" transform="translate(31.06, 135.05)"><path d="M155.40,48.07 C152.47,34.17 142.07,23.38 128.08,18.01 C125.39,16.49 122.78,9.96 119.17,8.77 C118.59,8.57 119.51,10.10 119.17,10.19 C117.98,10.52 116.64,10.55 115.32,9.38 C112.96,7.28 112.22,1.15 110.78,-1.61 C103.22,-16.22 84.34,-10.50 81.81,5.64 C80.05,6.79 77.56,7.80 75.64,8.73 C73.66,9.68 71.92,11.99 69.89,12.82 C68.07,13.56 65.07,13.04 63.24,13.68 C54.82,16.63 47.68,20.36 42.09,27.92 C40.91,29.52 39.58,31.48 38.51,33.09 C32.98,39.45 29.14,46.59 25.60,54.25 C15.70,76.73 13.01,101.61 10.60,125.83 C10.65,130.07 7.84,141.82 12.00,143.85 C11.75,144.11 11.84,144.63 12.30,144.62 C22.84,144.52 33.36,145.46 43.73,147.29 C48.74,148.18 53.72,149.39 58.82,149.59 C69.41,149.52 79.96,147.74 90.53,149.42 C103.24,149.42 118.69,149.05 132.83,148.51 C146.04,148.00 159.33,149.15 172.38,146.90 C173.41,146.74 173.92,145.48 173.70,144.57 C172.17,138.99 171.42,133.25 170.56,127.53 C170.73,123.87 170.42,120.04 169.07,116.63 C165.53,93.59 160.99,70.70 155.40,48.07 Z" id="🎨-Background" fill="#FFFFFF"></path><path d="M151.13,78.35 C150.86,79.71 150.46,81.06 149.94,82.35 C149.44,83.58 148.69,84.69 148.17,85.92 C148.10,86.08 147.99,86.21 147.85,86.30 L147.89,86.64 L147.89,86.64 L147.93,86.97 C148.19,89.21 148.48,91.45 148.73,93.70 L148.86,94.82 C149.35,99.51 150.14,104.18 150.75,108.86 C151.34,113.44 151.95,118.02 152.60,122.59 C153.27,127.31 153.95,132.02 154.74,136.71 C155.08,138.69 155.43,140.68 155.80,142.66 L156.08,144.17 C158.99,144.87 159.78,148.93 156.82,150.42 C155.48,151.10 153.75,150.94 152.64,149.87 C151.49,148.76 151.45,146.77 151.18,145.27 L150.92,143.87 C149.00,133.39 147.33,122.78 146.55,112.15 C146.34,109.41 146.18,106.66 146.07,103.91 C145.96,101.32 146.01,98.74 145.97,96.15 L145.96,95.45 C145.90,92.69 145.95,89.93 146.02,87.18 C146.03,86.84 146.04,86.50 146.06,86.16 C145.96,86.05 145.89,85.92 145.86,85.78 L145.83,85.61 C145.73,85.17 145.84,84.64 146.18,84.32 C146.33,82.45 146.52,80.57 146.58,78.69 C146.58,78.54 146.80,78.54 146.81,78.69 C146.94,80.29 147.19,81.89 147.44,83.49 C149.04,82.20 150.23,80.08 150.93,78.30 C150.98,78.17 151.16,78.21 151.13,78.35 Z M113.19,3.66 C113.46,4.88 113.99,5.97 114.69,6.98 C115.03,7.47 115.41,7.92 115.87,8.30 C116.26,8.62 116.71,8.84 117.13,9.12 C117.74,9.02 118.37,9.25 118.80,9.70 L118.73,9.05 C118.71,8.83 119.06,8.79 119.10,9.00 C120.95,18.32 122.64,27.65 124.10,37.05 L124.73,41.19 L125.34,45.09 C126.34,51.58 127.30,58.06 128.03,64.60 C129.00,73.32 129.82,82.07 130.41,90.83 C131.01,99.64 131.38,108.47 131.64,117.31 C131.70,119.54 131.77,121.76 131.84,123.99 L132.29,121.32 C132.74,118.66 133.18,116.00 133.56,113.32 C134.92,103.74 136.01,94.10 136.54,84.44 C137.02,75.60 136.86,66.59 134.61,57.98 C134.05,55.81 133.35,53.68 132.52,51.60 C131.71,49.58 130.60,47.71 129.73,45.72 C128.71,43.40 128.41,41.22 128.93,38.72 C129.39,36.55 130.19,34.50 130.33,32.27 C130.60,28.12 129.25,24.10 127.34,20.46 C126.84,19.51 126.31,18.56 125.75,17.63 C124.08,14.80 122.19,12.07 120.23,9.46 C120.12,9.32 120.35,9.16 120.46,9.28 C122.25,11.04 124.20,12.78 125.81,14.71 C126.59,15.65 127.36,16.61 128.08,17.59 C136.01,18.91 142.82,23.85 147.47,30.37 C152.76,37.78 155.43,46.68 157.41,55.46 C159.61,65.21 161.46,75.05 163.44,84.84 C165.48,94.98 167.52,105.12 169.57,115.26 C170.60,120.29 171.62,125.32 172.64,130.36 C173.16,132.91 173.70,135.45 174.27,137.99 C174.56,139.29 174.87,140.59 175.14,141.90 C175.45,143.37 175.16,144.31 174.17,145.39 C173.80,145.80 173.22,145.79 172.76,145.58 L172.62,145.51 L172.48,145.44 C171.92,145.16 171.47,144.88 171.12,144.26 C170.74,143.58 170.67,142.83 170.54,142.07 C170.30,140.68 170.05,139.30 169.81,137.91 C169.44,135.83 169.04,133.75 168.64,131.68 L166.61,121.32 C166.06,118.56 165.52,115.79 164.97,113.03 C163.02,103.16 161.07,93.29 159.12,83.41 C157.25,73.93 155.59,64.39 153.45,54.97 L153.33,54.43 L153.21,53.90 C151.30,45.78 148.64,37.92 143.80,31.04 C140.08,25.74 134.91,21.01 128.82,18.62 C129.25,19.24 129.66,19.87 130.05,20.51 C132.52,24.54 134.32,29.33 133.90,34.13 C133.69,36.48 132.80,38.78 132.88,41.15 C132.96,43.25 134.26,45.10 135.16,46.92 C137.20,51.07 138.67,55.47 139.62,59.98 C141.53,69.05 141.53,78.39 140.87,87.59 C140.15,97.60 138.80,107.60 137.25,117.51 C136.46,122.60 135.41,127.64 134.60,132.71 C134.20,135.22 133.66,137.71 133.18,140.20 L132.96,141.39 C132.83,142.05 132.70,142.71 132.55,143.36 L132.45,143.75 L132.45,143.82 C132.45,144.30 132.32,144.70 132.11,145.01 C131.82,145.94 131.46,146.85 130.98,147.71 C130.73,148.16 130.38,148.41 129.99,148.50 C129.60,149.39 128.72,150.07 127.67,150.07 L113.83,150.02 C105.80,149.98 97.76,149.93 89.72,149.89 C87.70,149.88 85.67,149.84 83.64,149.79 C81.75,149.73 79.92,149.50 78.05,149.27 C75.92,149.00 74.78,147.50 75.09,145.38 C75.16,144.91 75.24,144.45 75.31,143.98 C74.89,144.12 74.39,144.06 74.04,143.72 L73.73,143.41 C73.28,142.97 72.89,142.54 72.61,141.96 C72.32,141.36 72.08,140.73 71.83,140.11 C71.28,138.80 70.74,137.47 70.22,136.14 C69.17,133.48 68.13,130.81 67.16,128.13 C65.23,122.81 63.53,117.41 62.05,111.95 C59.41,102.20 57.50,92.27 56.29,82.25 L56.00,79.86 L55.92,79.16 C55.46,75.28 55.08,71.33 55.26,67.46 C55.37,65.03 55.75,62.58 56.66,60.32 C57.49,58.23 58.78,56.44 60.01,54.57 L60.15,54.36 L60.29,54.14 C61.37,52.44 62.22,50.66 62.26,48.60 C62.31,46.51 61.70,44.48 61.02,42.52 L60.85,42.04 L60.73,41.72 C59.28,37.67 57.63,33.68 58.18,29.28 C58.98,22.79 62.91,17.57 67.85,13.54 C63.46,14.41 59.11,16.13 55.27,18.31 C50.73,20.89 46.65,24.29 43.12,28.13 C36.47,35.39 31.72,44.10 27.83,53.09 C23.76,62.50 20.74,72.36 18.46,82.34 C16.17,92.39 14.64,102.60 13.60,112.84 C13.08,117.94 12.67,123.05 12.33,128.17 C12.15,130.79 12.02,133.41 11.82,136.03 C11.62,138.65 11.52,141.30 10.89,143.84 C10.59,145.03 8.58,145.15 8.36,143.84 C7.89,140.93 8.02,137.91 8.15,134.96 L8.17,134.69 C8.30,131.75 8.47,128.81 8.67,125.87 C9.08,119.86 9.64,113.86 10.36,107.88 C12.89,86.88 17.56,66.00 26.73,46.83 C31.04,37.80 36.58,29.03 44.28,22.51 C47.95,19.41 52.08,16.94 56.54,15.15 C60.52,13.54 64.57,12.78 68.81,12.79 C70.93,11.16 73.21,9.74 75.49,8.53 C75.62,8.46 75.77,8.63 75.65,8.75 C75.59,8.80 75.54,8.86 75.48,8.92 C75.74,8.94 76.00,9.06 76.24,9.31 C77.08,10.18 77.78,11.28 78.41,12.42 C79.37,13.62 80.29,14.86 81.25,16.05 C82.79,17.95 84.36,19.83 85.95,21.69 C88.62,24.81 91.38,27.88 94.26,30.82 L94.74,31.31 C96.23,32.82 97.74,34.63 99.50,35.83 L99.60,35.89 C100.34,36.38 100.87,36.46 101.51,35.74 C102.08,35.08 102.56,34.31 103.06,33.59 L103.17,33.42 C105.69,29.76 108.03,25.96 110.14,22.05 C111.11,20.27 112.02,18.47 112.89,16.64 L113.15,16.09 C113.63,15.09 114.14,14.10 114.53,13.06 C114.62,12.82 114.71,12.58 114.80,12.34 C113.47,11.46 112.43,9.57 112.06,8.09 C111.67,6.56 111.87,4.98 112.56,3.58 C112.69,3.31 113.13,3.38 113.19,3.66 Z M47.54,66.10 C47.35,71.94 47.24,77.79 46.96,83.62 L46.87,85.62 C47.30,86.10 47.55,86.65 47.35,87.40 C47.27,87.69 47.04,87.96 46.75,88.05 L46.66,89.91 C46.26,98.24 45.78,106.56 44.90,114.88 C43.81,125.28 42.55,135.67 41.29,146.06 C41.11,147.53 40.09,148.70 38.49,148.48 C36.89,148.27 36.23,146.86 36.44,145.40 C37.27,139.67 38.07,133.94 38.77,128.19 L39.57,121.64 C40.57,113.46 41.59,105.27 42.77,97.11 C43.26,93.70 43.77,90.29 44.28,86.88 L44.10,86.65 C43.37,85.69 42.61,84.76 41.86,83.82 C40.42,82.01 39.00,80.22 37.68,78.33 C37.61,78.23 37.75,78.09 37.84,78.16 C39.69,79.53 41.44,80.99 43.21,82.48 L44.75,83.79 C45.64,77.89 46.51,72.00 47.30,66.10 C47.32,65.95 47.54,65.94 47.54,66.10 Z M74.16,10.19 C73.04,11.24 71.90,12.27 70.78,13.31 L70.37,13.70 L69.96,14.08 C67.99,15.95 66.10,17.90 64.53,20.14 C61.64,24.24 59.92,29.25 61.12,34.26 C62.11,38.42 64.40,42.18 65.02,46.44 C65.33,48.57 65.18,50.71 64.37,52.73 C63.55,54.78 62.24,56.54 61.07,58.40 C58.51,62.42 58.16,66.85 58.42,71.51 C58.68,76.39 59.24,81.26 59.93,86.09 C61.33,95.88 63.44,105.56 66.23,115.04 C67.63,119.79 69.28,124.44 70.92,129.11 C71.74,131.43 72.69,133.70 73.67,135.95 C74.19,137.14 74.72,138.32 75.26,139.50 C75.06,137.84 75.06,136.13 74.96,134.47 C74.82,132.10 74.64,129.73 74.48,127.37 C74.15,122.56 73.85,117.75 73.59,112.93 C72.65,95.77 71.97,78.59 72.02,61.41 C72.04,52.81 72.22,44.21 72.59,35.63 C72.76,31.58 73.10,27.54 73.40,23.50 L73.46,22.64 C73.73,19.01 74.05,15.38 74.60,11.79 C74.44,11.42 74.30,11.05 74.19,10.66 L74.16,10.52 L74.18,10.52 C74.16,10.41 74.15,10.30 74.16,10.19 Z M83.79,-4.58 C83.81,-4.68 83.95,-4.67 83.98,-4.58 C84.60,-2.46 84.38,-0.14 83.84,1.99 C83.55,3.14 83.14,4.26 82.64,5.33 L82.46,5.71 C82.03,6.63 81.55,7.58 80.71,8.15 C80.36,8.39 79.74,8.40 79.39,8.15 L79.21,8.01 C79.18,7.99 79.16,7.97 79.13,7.94 C78.80,7.67 78.64,7.07 78.79,6.67 C79.18,5.64 80.06,4.89 80.66,3.98 C81.20,3.17 81.67,2.31 82.07,1.42 C82.92,-0.50 83.30,-2.55 83.79,-4.58 Z" id="🖍-Ink" fill="#000000"></path></g><g id="head/Gray-Medium" transform="translate(78.59, 38.04)"><path d="M60.91,107.45 C56.54,107.43 52.53,106.58 48.74,104.72 C44.15,103.22 39.14,102.40 35.42,99.09 C33.61,99.47 31.75,97.61 30.25,96.51 C27.80,105.53 15.03,104.03 9.64,98.20 C6.34,95.41 5.02,88.52 10.75,86.69 C1.36,80.32 -2.03,69.30 -1.38,57.38 C-0.70,37.39 14.66,16.60 34.41,13.14 C38.30,12.45 42.30,12.52 46.18,13.34 C48.35,13.81 50.44,14.72 52.76,14.68 C61.75,13.26 71.63,13.42 79.06,19.18 C90.92,27.12 92.57,43.02 91.19,55.80 L91.24,55.92 C90.55,60.61 89.41,64.90 87.24,67.73 C87.07,71.80 85.66,80.48 85.55,83.91 C85.81,99.88 76.74,106.96 60.91,107.45" id="🎨-Background" fill="#FFFFFF"></path><path d="M8.68,86.47 C-19.75,61.35 9.42,4.80 46.40,12.30 C50.14,13.56 53.95,13.99 57.82,13.06 C77.36,10.01 93.34,26.60 92.51,45.78 C92.65,49.06 92.62,52.35 92.27,55.61 C91.86,59.91 90.76,64.50 88.29,68.08 C88.26,70.47 86.85,79.47 86.62,83.71 L86.58,84.59 C86.35,88.94 85.87,93.38 83.95,97.35 C78.08,108.00 62.93,110.29 52.07,107.18 L51.62,107.04 C49.60,106.37 47.32,105.47 46.04,103.78 C45.36,102.89 46.48,101.75 47.41,101.99 C48.61,102.30 49.60,103.04 50.72,103.56 C58.03,106.78 66.67,105.70 73.88,102.69 L74.10,102.59 C87.01,97.35 83.47,78.70 85.17,68.06 C85.56,54.55 74.30,45.36 65.81,36.42 L65.56,36.14 C64.69,35.17 63.77,34.23 62.56,34.02 C62.22,35.03 61.41,35.89 60.65,36.62 L58.94,38.47 C57.23,40.32 55.51,42.16 53.77,43.99 C45.32,52.58 36.71,64.24 23.68,65.12 C24.48,65.84 25.18,66.67 26.02,67.35 C26.37,67.71 26.01,68.30 25.54,68.18 C24.65,67.96 24.09,67.12 23.50,66.46 C16.47,63.50 10.69,74.42 16.65,78.94 C18.86,81.29 25.33,79.50 23.83,82.39 C25.46,87.51 27.97,92.66 32.22,96.08 C33.47,97.02 35.41,97.50 36.24,98.88 C36.44,99.22 36.34,99.76 35.96,99.94 C34.16,100.78 32.22,99.37 30.84,98.30 C23.52,112.61 -3.31,96.80 8.68,86.47 Z M52.16,16.56 L51.42,16.42 C43.61,14.87 38.45,13.34 30.19,16.13 C11.77,22.29 -0.11,41.90 0.41,60.95 C0.42,71.78 5.78,85.58 17.87,87.12 C19.69,87.27 19.72,90.10 17.92,90.02 L17.87,90.01 C14.89,89.83 12.00,88.75 9.55,87.08 C6.25,92.43 9.55,97.27 14.69,99.57 C19.90,102.32 25.46,101.44 28.94,96.59 C25.77,93.06 23.43,87.79 22.88,83.11 C13.97,86.57 7.25,73.81 13.05,67.05 C15.09,64.14 19.05,62.32 22.32,64.39 C36.37,58.98 46.18,47.48 55.58,36.22 L56.08,35.65 C57.72,33.79 61.50,29.59 61.92,29.05 C62.40,28.44 63.35,28.99 63.36,29.65 C63.37,30.11 63.34,30.58 63.29,31.06 C65.04,32.18 66.46,33.90 67.76,35.48 C77.50,43.13 85.42,51.13 87.88,63.27 C89.41,61.48 90.11,59.13 90.61,56.89 C91.66,42.12 88.84,24.43 73.60,18.02 C66.28,14.39 59.74,16.05 52.16,16.56 Z M17.60,72.05 C16.97,71.48 21.16,71.41 21.56,71.86 L21.65,71.89 C23.15,72.41 25.90,74.12 24.55,75.88 C22.62,77.70 21.28,72.31 17.60,72.05 Z" id="🖍-Ink" fill="#221E1F"></path></g><g id="face/Smiling" transform="translate(112.18, 77.35)" fill="#000000"><path d="M30.97,50.92 C29.55,50.34 28.28,49.37 27.36,48.14 C27.03,47.71 26.95,47.26 27.02,46.84 C27.09,46.37 27.37,45.95 27.74,45.67 C28.12,45.38 28.59,45.24 29.05,45.32 C29.45,45.38 29.84,45.59 30.15,46.05 L30.22,46.14 C30.77,46.88 31.49,47.49 32.31,47.89 C33.09,48.27 33.97,48.44 34.89,48.34 C36.62,48.14 37.82,47.20 39.09,45.93 C39.25,45.77 39.41,45.60 39.57,45.43 C39.67,45.28 39.81,45.18 39.96,45.13 C40.13,45.07 40.33,45.07 40.51,45.14 C40.68,45.20 40.83,45.31 40.93,45.46 C41.03,45.60 41.09,45.78 41.07,45.98 C40.95,47.31 40.26,48.49 39.28,49.41 C38.19,50.44 36.74,51.16 35.38,51.41 C33.88,51.68 32.35,51.48 30.97,50.92 L30.97,50.92 Z M36.09,30.51 C37.68,31.48 40.11,33.74 38.40,36.15 C36.38,38.27 33.47,35.84 32.04,34.74 C30.71,33.89 29.21,36.08 30.45,37.07 C40.80,44.74 45.01,30.77 36.89,29.37 C36.00,29.22 35.67,30.21 36.09,30.51 Z M17.53,21.59 C17.70,19.40 21.04,18.90 21.37,21.07 C21.66,23.01 21.31,24.79 20.44,26.54 C19.61,28.21 17.51,27.43 17.35,25.91 C17.14,23.87 17.42,22.95 17.53,21.59 Z M42.89,20.62 C43.36,20.01 44.03,19.60 44.83,19.83 C47.34,20.56 46.60,24.13 45.72,25.87 C45.24,26.81 43.69,27.05 42.99,26.22 C41.85,24.86 41.31,22.16 42.76,20.83 C42.80,20.76 42.84,20.69 42.89,20.62 Z M20.41,12.01 L20.80,11.94 C22.03,11.73 23.56,11.53 24.42,12.51 C24.88,13.04 25.04,14.01 24.42,14.51 C23.33,15.39 22.13,15.05 20.83,15.12 C19.75,15.19 18.72,15.36 17.68,15.66 C15.41,16.31 13.56,17.49 11.62,18.80 C11.37,18.97 11.11,18.64 11.23,18.40 C12.35,16.21 14.52,14.41 16.69,13.31 C17.85,12.72 19.12,12.23 20.41,12.01 Z M40.60,11.03 L40.91,11.09 C44.21,11.78 48.50,13.16 50.07,16.41 C50.13,16.87 50.06,16.96 50.01,17.03 L50.00,17.05 C49.95,17.11 49.92,17.18 49.72,17.24 C49.67,17.23 49.61,17.22 49.55,17.20 C48.84,17.01 48.27,16.75 47.72,16.49 L47.13,16.19 C46.43,15.85 45.74,15.53 45.00,15.29 C43.42,14.77 41.80,14.41 40.15,14.22 C39.80,14.17 39.45,14.05 39.18,13.85 C38.92,13.65 38.73,13.38 38.64,13.02 C38.52,12.55 38.56,12.20 38.81,11.78 C38.99,11.46 39.26,11.24 39.57,11.12 C39.89,10.99 40.25,10.96 40.60,11.03 Z" id="🖍-Ink"></path></g></g></g></g></g></svg>