<?xml version="1.0" encoding="UTF-8"?><svg width="240px" height="324px" viewBox="0 0 240 324" version="1.1" xmlns="http://www.w3.org/2000/svg" xmlns:xlink="http://www.w3.org/1999/xlink"><title>peep-8</title><desc>Created with Sketch.</desc><g id="Introduction" stroke="none" stroke-width="1" fill="none" fill-rule="evenodd"><g id="variations" transform="translate(-366.00, -110.00)"><g id="images" transform="translate(126.00, 110.00)"><g id="a-person/bust" transform="translate(240.00, 0.00)"><g id="body/Hoodie" transform="translate(31.06, 135.05)"><path d="M167.06,151.26 C171.14,151.06 169.50,143.92 169.21,141.29 C165.97,131.71 166.73,121.26 165.46,111.21 C164.67,101.83 163.65,92.49 162.80,83.12 C161.12,64.09 149.04,25.37 135.26,19.15 C133.53,11.53 126.36,4.42 117.29,4.42 C111.11,-2.91 103.66,-8.06 94.11,-7.02 C90.16,-6.84 86.34,-2.66 82.55,-1.85 C80.44,-1.55 61.65,-2.31 57.88,-0.07 C55.26,1.28 52.89,3.77 53.67,6.93 C54.90,10.77 51.07,6.62 43.10,10.72 C26.84,20.49 36.56,33.55 36.99,33.96 C26.84,48.08 17.97,59.54 13.87,76.80 C11.21,89.62 11.51,102.85 9.28,115.73 C8.49,120.20 7.28,124.51 5.98,128.85 C4.56,134.53 3.87,148.67 3.09,148.80 C1.67,149.15 3.92,152.07 5.42,152.08 C47.17,159.00 89.58,152.36 131.56,151.28 C143.39,150.87 155.23,150.77 167.06,151.26 Z" id="🎨-Background" fill="#FFFFFF"></path><path d="M103.78,35.21 C103.80,35.01 104.06,35.02 104.08,35.21 L104.37,38.05 C104.73,41.53 105.07,45.00 105.32,48.49 C105.64,52.85 105.85,57.20 105.95,61.57 C106.30,76.77 106.37,91.98 106.40,107.19 C108.45,107.05 110.51,106.91 112.57,106.78 C113.96,106.69 115.36,106.60 116.75,106.52 L120.31,106.30 L120.31,106.30 L121.78,106.21 C122.77,106.15 123.89,105.90 124.58,106.78 C124.86,107.13 125.00,107.59 124.74,108.00 C124.15,108.97 123.23,108.93 122.20,108.97 C121.22,109.01 120.24,109.05 119.26,109.09 C117.17,109.17 115.08,109.25 112.98,109.31 C110.79,109.37 108.59,109.42 106.39,109.45 C106.37,115.88 106.11,122.29 105.82,128.70 L105.69,131.59 C105.34,139.39 104.96,147.20 104.42,155.00 C104.38,155.63 103.48,155.63 103.43,155.00 C102.83,146.22 102.43,137.42 102.03,128.63 C101.75,122.26 101.58,115.89 101.50,109.51 C101.21,109.51 100.92,109.52 100.63,109.52 C92.38,109.55 84.14,109.59 75.90,109.51 C75.91,109.53 75.92,109.55 75.93,109.57 C76.53,110.98 76.59,112.77 76.57,114.29 C76.55,116.02 76.32,117.73 75.92,119.42 C74.49,125.46 70.80,130.87 66.60,135.35 L66.46,135.49 C65.47,136.54 64.33,137.60 63.72,138.93 C63.10,140.29 62.89,141.89 62.58,143.35 L62.54,143.52 L61.34,149.06 C60.96,150.82 60.85,153.39 59.46,154.66 C58.16,155.85 56.44,155.23 55.83,153.70 C55.35,152.51 55.83,151.20 56.11,150.01 L58.33,140.69 C58.69,139.17 59.09,137.64 59.87,136.28 C60.68,134.88 61.86,133.86 63.06,132.83 C65.34,130.86 67.44,128.61 69.21,126.18 C70.98,123.74 72.49,121.06 73.55,118.24 C74.08,116.83 74.52,115.36 74.82,113.88 C75.10,112.48 75.10,111.02 75.41,109.64 C75.43,109.54 75.51,109.47 75.60,109.45 C75.58,109.38 75.61,109.30 75.70,109.29 L82.44,108.86 C88.44,108.47 94.43,108.08 100.42,107.62 L101.48,107.55 L101.48,107.55 C101.40,99.04 101.47,90.53 101.62,82.03 C101.76,74.22 101.76,66.42 101.99,58.62 C102.11,54.74 102.36,50.88 102.64,47.02 C102.92,43.06 103.37,39.15 103.78,35.21 Z M40.46,80.45 C40.39,80.02 40.94,79.75 41.19,80.14 C44.06,84.67 45.44,89.59 46.03,94.89 C46.54,99.56 46.39,104.31 46.13,109.00 C45.86,114.00 45.54,118.99 45.22,123.99 L44.72,131.66 L44.72,131.66 L43.48,150.87 C43.39,152.24 43.08,153.49 41.89,154.13 C41.74,154.26 41.59,154.37 41.40,154.47 C40.77,154.81 39.92,154.64 39.55,153.98 L39.70,154.08 C39.83,154.16 39.68,154.05 39.26,153.74 L38.91,153.28 L38.91,153.28 C38.65,152.89 38.48,152.51 38.42,152.05 C38.31,151.33 38.45,150.54 38.49,149.82 L39.31,137.22 L39.31,137.22 C39.94,127.43 40.69,117.63 41.24,107.84 C41.51,103.27 41.69,98.70 41.56,94.12 C41.44,89.57 41.21,84.94 40.46,80.45 Z M65.30,-3.89 L65.46,-3.92 C71.17,-4.87 77.37,-4.69 82.58,-1.94 C82.62,-1.92 82.60,-1.84 82.55,-1.85 L80.88,-1.91 C75.57,-2.12 70.27,-2.24 65.05,-1.00 L64.51,-0.87 C62.63,-0.41 60.67,0.15 59.16,1.40 C57.72,2.58 57.00,4.42 56.31,6.10 L56.21,6.32 C55.51,7.99 54.62,9.57 53.09,10.61 C51.10,11.96 48.70,11.80 46.42,11.98 C42.40,12.30 39.11,15.22 37.48,18.78 C36.49,20.94 36.06,23.36 35.98,25.73 C35.94,26.93 35.93,28.18 36.09,29.37 C36.14,29.75 36.61,31.15 36.85,31.11 C37.39,31.04 37.88,31.32 38.04,31.74 C39.37,30.47 40.72,29.23 42.13,28.03 C45.62,25.05 49.39,22.35 53.35,20.03 C56.38,18.26 59.57,16.51 62.88,15.18 C62.62,15.18 62.36,15.23 62.11,15.36 C62.00,15.42 61.89,15.28 61.98,15.19 C63.02,14.09 64.27,13.94 65.52,14.23 C65.79,14.14 66.06,14.06 66.33,13.98 C66.46,13.94 66.53,14.13 66.42,14.20 L66.11,14.40 L66.11,14.40 C67.49,14.86 68.83,15.76 69.90,16.47 C72.96,18.52 75.66,21.03 78.39,23.48 L78.89,23.93 C81.29,26.08 83.76,28.16 86.49,29.89 C87.92,30.79 89.43,31.62 91.00,32.25 C92.35,32.78 94.56,33.11 95.19,34.54 C95.75,35.23 95.52,36.10 94.86,36.56 C93.75,37.78 91.52,36.99 90.20,36.48 C88.60,35.87 87.05,35.13 85.58,34.26 C82.71,32.58 80.07,30.49 77.61,28.26 C75.04,25.94 72.62,23.47 70.12,21.08 C69.04,20.04 67.98,18.97 66.89,17.94 L66.35,17.42 C65.79,16.90 65.01,16.09 64.16,15.60 C62.57,16.55 60.96,17.46 59.39,18.43 C57.19,19.79 55.06,21.24 52.96,22.75 C48.91,25.64 45.08,28.88 41.53,32.35 C35.01,38.73 29.45,46.00 24.59,53.70 L24.23,54.29 C21.47,58.70 18.86,63.25 17.01,68.12 C14.97,73.48 13.98,79.12 13.45,84.81 C12.91,90.46 12.73,96.14 12.14,101.78 C11.52,107.57 10.32,113.23 8.95,118.88 L8.62,120.22 C7.38,125.28 6.10,130.35 5.46,135.53 C5.12,138.29 4.92,141.10 4.97,143.89 C5.01,146.69 5.45,149.44 5.81,152.21 C5.94,153.28 4.90,154.16 3.96,154.30 C2.89,154.47 1.96,153.78 1.63,152.78 C0.58,149.66 0.39,146.21 0.43,142.94 C0.46,139.61 0.88,136.31 1.48,133.05 C2.65,126.62 4.46,120.33 5.98,113.98 C7.31,108.39 8.21,102.78 8.69,97.05 C9.19,91.10 9.49,85.14 10.41,79.23 C11.31,73.41 13.01,67.84 15.57,62.53 C17.90,57.69 20.81,53.13 23.86,48.72 C27.56,43.36 31.63,38.26 36.17,33.61 C35.76,33.59 35.34,33.46 34.96,33.22 C33.78,32.48 33.23,31.05 33.06,29.73 C32.67,26.66 32.76,23.46 33.55,20.46 C34.83,15.61 38.13,11.31 42.92,9.57 C44.15,9.12 45.46,8.95 46.77,8.92 C48.01,8.89 49.36,9.05 50.56,8.66 C52.47,8.03 53.28,5.79 54.00,4.09 L54.03,4.01 C54.95,1.84 56.05,-0.01 58.03,-1.37 C60.15,-2.81 62.80,-3.47 65.30,-3.89 L65.30,-3.89 Z M119.49,4.68 C121.21,4.08 123.35,4.62 125.03,5.14 C126.89,5.72 128.62,6.79 130.10,8.05 C131.66,9.39 132.95,11.04 133.86,12.88 L133.95,13.06 C134.78,14.77 135.73,17.12 135.31,18.99 C135.29,19.05 135.28,19.10 135.26,19.15 C138.67,20.82 141.81,22.92 144.54,25.58 C147.72,28.67 150.42,32.20 152.70,36.00 C161.76,51.11 163.36,69.26 164.43,86.50 L164.70,90.87 C165.28,100.31 165.96,109.72 167.72,119.03 L167.85,119.70 C169.74,129.44 172.45,139.26 172.17,149.26 C172.09,152.25 167.66,152.23 167.54,149.26 C167.05,138.06 164.44,127.25 162.67,116.23 C159.56,96.84 161.12,76.85 156.71,57.66 C154.98,50.12 152.30,42.82 148.47,36.09 C146.58,32.77 144.42,29.56 141.89,26.69 C139.71,24.23 137.44,21.86 134.89,19.78 C134.08,20.60 132.45,20.18 132.03,18.99 C131.73,18.18 131.82,17.22 131.63,16.36 C131.46,15.57 131.22,14.78 130.90,14.03 C130.26,12.54 129.33,11.11 128.25,9.90 C127.08,8.60 125.74,7.52 124.24,6.62 C122.74,5.72 121.08,5.45 119.49,4.79 C119.44,4.77 119.43,4.70 119.49,4.68 Z M126.15,108.30 C126.15,108.22 126.25,108.19 126.30,108.24 C126.90,108.79 127.27,109.59 127.71,110.27 C128.22,111.05 128.76,111.82 129.32,112.57 C130.44,114.07 131.69,115.48 132.96,116.87 C134.13,118.15 135.38,119.39 136.68,120.55 C138.09,121.81 139.66,122.93 140.94,124.33 C143.61,127.24 144.04,131.24 144.60,134.99 L144.66,135.40 C145.01,137.62 145.31,139.86 145.59,142.09 C145.73,143.18 145.86,144.27 145.97,145.36 L146.00,145.70 C146.10,146.77 146.13,147.85 145.52,148.79 C144.86,149.78 143.37,150.13 142.48,149.18 C140.96,147.53 141.24,144.61 141.05,142.50 C140.88,140.75 140.70,139.00 140.49,137.26 L140.38,136.39 C140.14,134.41 139.94,132.38 139.48,130.43 C139.08,128.72 138.32,127.42 137.07,126.18 C135.81,124.92 134.50,123.75 133.34,122.41 C132.11,120.97 131.00,119.44 129.99,117.84 C129.14,116.47 128.45,114.98 127.82,113.49 L127.72,113.24 C127.11,111.79 126.10,109.90 126.15,108.30 Z M148.15,45.94 C148.16,45.74 148.46,45.74 148.46,45.94 C148.50,47.69 148.54,49.43 148.57,51.17 C148.86,65.20 148.69,79.27 150.09,93.26 C150.76,99.85 151.98,106.35 153.39,112.82 C154.12,116.13 154.88,119.43 155.60,122.74 C156.30,125.97 157.06,129.21 157.61,132.47 C158.16,135.67 158.65,138.90 158.87,142.14 L158.90,142.56 C158.99,144.13 159.45,146.44 158.58,147.84 C157.65,149.34 155.85,149.37 154.85,147.93 C153.91,146.58 154.14,144.17 153.97,142.56 C153.80,140.92 153.63,139.28 153.42,137.64 C153.03,134.44 152.50,131.25 151.96,128.07 C150.83,121.46 149.19,114.93 147.98,108.33 C146.73,101.56 145.85,94.75 145.81,87.86 C145.78,80.92 146.51,73.98 146.88,67.05 C147.26,60.01 147.69,52.98 148.15,45.94 Z M81.88,2.29 C82.25,1.02 83.58,0.23 84.88,0.59 C86.07,0.91 87.05,2.36 86.58,3.59 C86.08,4.94 85.19,6.09 84.44,7.31 C83.75,8.44 82.75,9.33 82.04,10.45 L82.82,11.28 C83.21,11.70 83.60,12.11 83.99,12.52 L85.34,13.92 C86.39,15.01 87.45,16.09 88.54,17.14 C91.74,20.23 94.99,23.22 98.58,25.86 C99.39,26.46 100.22,27.06 101.06,27.62 L101.38,27.83 C101.96,28.21 102.60,28.58 103.30,28.52 C105.01,28.36 106.54,26.55 107.72,25.43 L107.78,25.37 C110.68,22.61 113.36,19.59 115.71,16.35 C116.23,15.63 116.73,14.89 117.23,14.15 C116.09,12.83 116.36,10.24 116.30,8.63 C116.26,7.50 116.25,6.37 116.25,5.23 L116.24,5.01 C116.23,4.27 116.20,3.57 116.67,2.97 C116.70,2.93 116.76,2.93 116.79,2.95 C117.44,3.29 117.64,3.87 117.92,4.51 L117.95,4.57 C118.29,5.34 118.61,6.12 118.94,6.89 C119.28,7.70 119.60,8.52 119.91,9.34 C120.06,9.72 120.20,10.11 120.34,10.49 C120.43,10.74 120.51,10.98 120.60,11.23 L120.62,11.24 C120.74,11.35 120.84,11.45 120.93,11.56 C121.29,11.74 121.58,12.07 121.72,12.56 C122.01,13.62 121.40,14.48 120.86,15.32 C118.65,18.74 116.13,21.99 113.33,24.95 C111.94,26.41 110.47,27.81 108.95,29.14 L108.69,29.37 C107.32,30.55 105.83,31.66 104.00,31.94 C101.87,32.26 100.12,31.20 98.49,29.97 L98.32,29.85 C96.77,28.67 95.25,27.46 93.78,26.18 C90.77,23.59 87.92,20.80 85.38,17.75 C82.91,14.77 80.47,11.45 78.95,7.87 C78.86,7.65 79.10,7.43 79.30,7.61 C80.04,8.32 80.75,9.06 81.46,9.82 C81.48,8.71 81.27,7.58 81.39,6.47 C81.53,5.11 81.49,3.60 81.88,2.29 Z" id="🖍-Ink" fill="#000000"></path></g><g id="head/Short-3" transform="translate(78.59, 38.04)"><path d="M88.40,71.35 C87.07,61.79 84.04,52.51 83.61,42.80 C83.35,38.65 83.09,34.49 82.83,30.34 C82.73,27.75 79.37,26.87 78.08,29.17 C75.16,25.92 69.92,26.40 65.92,26.50 C42.40,27.33 20.05,43.24 11.98,65.42 C11.78,65.95 11.84,66.52 12.06,67.02 C8.30,79.57 21.61,87.66 30.68,93.25 C34.37,97.15 38.70,100.38 43.58,102.60 C49.20,105.24 55.46,106.72 61.67,106.86 C63.04,106.89 63.86,105.79 63.96,104.65 C65.94,104.18 69.33,104.72 70.38,102.69 C82.33,97.49 90.11,84.33 88.40,71.35 L88.40,71.35 Z" id="🎨-Background" fill="#FFFFFF"></path><path d="M82.81,37.44 C82.77,37.13 83.22,37.12 83.31,37.37 C84.07,39.44 84.86,41.49 85.46,43.60 C86.03,45.64 86.45,47.73 86.87,49.81 C87.57,53.25 88.17,56.73 88.67,60.21 C89.74,59.38 91.13,59.30 92.44,59.95 C93.05,60.25 93.29,61.06 93.14,61.68 C93.02,62.18 92.88,62.67 92.70,63.16 C93.07,63.49 93.39,63.89 93.62,64.36 C94.22,65.59 94.03,66.87 93.49,68.04 C93.53,68.11 93.57,68.18 93.61,68.26 C94.39,69.78 93.97,71.14 93.40,72.62 C92.97,73.74 93.21,74.99 92.29,75.82 C91.96,76.86 91.48,77.82 90.78,78.69 C90.62,78.98 90.38,79.21 90.10,79.38 C90.03,81.01 89.86,82.64 89.53,84.25 C88.28,90.50 84.29,96.07 79.36,100.00 C74.53,103.84 68.86,106.14 62.74,106.88 C59.77,107.24 56.79,107.13 53.84,106.61 L53.48,106.55 C50.76,106.06 47.47,105.24 45.59,103.19 C44.60,102.11 45.17,99.73 46.92,99.96 C47.85,100.08 48.66,100.22 49.53,100.57 C50.21,100.83 50.89,101.09 51.59,101.31 C52.92,101.72 54.31,102.05 55.70,102.23 C58.59,102.60 61.60,102.50 64.45,101.94 C69.66,100.91 74.71,98.55 78.65,94.98 C83.24,90.84 85.93,85.48 86.33,79.29 C86.77,72.40 85.97,65.35 85.31,58.50 C84.97,54.93 84.53,51.38 84.01,47.83 C83.49,44.37 83.19,40.92 82.81,37.44 Z M42.21,15.20 L42.43,15.17 C51.26,13.82 60.56,13.92 68.86,17.56 C70.45,18.26 72.00,19.11 73.47,20.08 C74.52,19.97 75.58,19.89 76.61,19.87 C77.92,19.85 79.19,20.53 79.35,21.85 C80.58,22.01 81.70,22.46 82.42,23.36 C82.71,23.71 82.89,24.11 82.99,24.54 C83.74,24.71 84.48,24.99 85.18,25.34 C86.03,25.78 86.52,27.00 86.22,27.90 C86.15,28.10 86.07,28.30 85.98,28.50 L85.91,28.64 L85.95,28.70 C86.63,29.79 86.16,31.22 85.12,31.87 C84.34,32.36 83.47,32.75 82.57,32.94 C82.65,33.30 82.72,33.66 82.77,34.02 C82.79,34.17 82.60,34.28 82.52,34.13 C82.73,34.80 83.00,35.50 83.32,36.23 C83.51,36.66 82.90,37.05 82.67,36.61 C82.05,35.44 81.67,34.25 81.11,33.05 C80.59,33.01 80.08,32.89 79.58,32.67 C79.26,32.52 79.01,32.27 78.83,31.97 C78.82,31.99 78.82,32.00 78.81,32.01 C77.14,34.16 73.88,34.91 71.36,35.59 C68.66,36.32 65.89,36.77 63.11,37.10 C58.26,37.68 53.37,37.79 48.50,38.01 C48.18,38.03 47.85,38.04 47.53,38.06 C45.55,39.79 43.00,40.87 40.39,41.20 C39.06,41.37 37.49,41.33 36.01,40.99 C35.47,41.54 34.79,41.94 34.05,42.15 C33.91,44.92 32.37,47.54 30.04,49.07 L30.08,49.24 C30.66,51.60 30.65,54.18 28.57,55.83 C28.29,56.05 27.99,56.24 27.66,56.40 L27.73,56.56 C28.81,59.07 29.15,61.84 27.13,63.93 C26.31,64.77 24.88,64.57 24.26,63.60 L24.23,63.55 C24.20,63.49 24.16,63.44 24.13,63.38 C24.07,63.49 23.99,63.59 23.87,63.64 C23.10,63.97 22.79,63.73 22.09,63.39 C21.45,63.07 20.76,62.83 20.07,62.65 C19.50,62.50 18.93,62.40 18.36,62.34 C14.76,63.71 12.43,67.94 12.98,71.91 C13.28,74.07 14.47,76.21 16.53,77.10 C17.44,77.50 18.50,77.66 19.48,77.53 C20.80,77.35 21.82,76.51 23.19,76.99 C23.73,77.18 24.07,77.60 24.10,78.18 C24.15,79.10 23.83,79.78 23.28,80.29 C24.24,81.09 25.02,82.21 25.85,83.10 C26.90,84.21 27.96,85.33 29.08,86.35 C30.15,87.33 31.28,88.23 32.48,89.04 L32.61,89.12 C34.11,90.10 36.00,90.97 36.08,93.01 C36.10,93.63 35.73,94.20 35.22,94.51 C33.32,95.69 31.26,94.15 29.78,93.01 C29.18,92.56 28.60,92.09 28.04,91.60 C27.66,91.63 27.26,91.57 26.83,91.38 C26.56,91.26 26.29,91.12 26.03,90.98 C25.18,91.19 24.38,91.00 23.72,90.55 C22.76,90.79 21.75,90.82 20.89,90.63 C20.11,90.46 19.41,90.09 18.83,89.59 C17.63,89.97 16.29,89.90 15.11,89.17 C14.39,88.74 13.84,88.11 13.54,87.38 C13.38,87.14 13.28,86.86 13.28,86.55 L13.28,86.43 C12.24,86.46 11.20,86.10 10.40,85.28 C9.67,84.53 9.31,83.59 9.27,82.64 C8.23,82.34 7.27,81.73 6.55,80.80 C5.35,79.25 5.19,77.33 5.81,75.62 C5.77,75.53 5.73,75.43 5.70,75.34 C4.74,73.99 4.11,72.36 4.16,70.73 C4.17,70.47 4.20,70.22 4.25,69.98 C3.31,69.48 2.62,68.60 2.54,67.48 C2.48,66.60 2.80,65.74 3.37,65.10 C3.09,64.43 2.97,63.72 3.05,63.00 C3.14,62.26 3.40,61.62 3.78,61.08 C3.77,60.89 3.78,60.69 3.81,60.49 C3.78,60.30 3.74,60.09 3.73,59.89 C3.55,57.62 5.11,55.64 7.01,54.59 C7.52,54.32 8.06,54.09 8.60,53.90 C8.99,53.76 9.58,53.72 9.93,53.46 C9.91,53.45 10.06,53.26 10.08,53.16 C10.11,53.04 10.14,52.92 10.15,52.80 C10.21,52.27 10.17,51.73 10.16,51.21 C10.11,48.82 10.19,46.42 10.44,44.04 C10.90,39.64 12.06,35.33 14.30,31.48 C16.18,28.26 18.76,25.53 21.71,23.27 C27.60,18.78 34.95,16.33 42.21,15.20 Z M14.93,69.98 C14.16,68.13 17.77,68.11 18.72,68.20 L18.75,68.20 C20.90,68.42 24.26,69.45 25.13,71.62 C25.50,72.52 24.42,73.49 23.56,73.19 C22.72,72.90 22.24,72.28 21.57,71.74 C21.39,71.60 21.20,71.47 21.02,71.34 C21.12,71.65 21.27,71.95 21.49,72.17 L21.55,72.21 C22.59,73.15 20.73,74.62 20.04,73.38 C19.67,72.72 19.52,72.00 19.64,71.25 C19.67,71.03 19.73,70.83 19.82,70.64 C19.75,70.60 19.68,70.57 19.61,70.53 L19.49,70.48 C18.66,70.10 15.13,68.63 15.16,69.94 C15.16,70.09 14.98,70.09 14.93,69.98 Z" id="🖍-Ink" fill="#000000"></path></g><g id="face/Smiling" transform="translate(112.18, 77.35)" fill="#000000"><path d="M30.97,50.92 C29.55,50.34 28.28,49.37 27.36,48.14 C27.03,47.71 26.95,47.26 27.02,46.84 C27.09,46.37 27.37,45.95 27.74,45.67 C28.12,45.38 28.59,45.24 29.05,45.32 C29.45,45.38 29.84,45.59 30.15,46.05 L30.22,46.14 C30.77,46.88 31.49,47.49 32.31,47.89 C33.09,48.27 33.97,48.44 34.89,48.34 C36.62,48.14 37.82,47.20 39.09,45.93 C39.25,45.77 39.41,45.60 39.57,45.43 C39.67,45.28 39.81,45.18 39.96,45.13 C40.13,45.07 40.33,45.07 40.51,45.14 C40.68,45.20 40.83,45.31 40.93,45.46 C41.03,45.60 41.09,45.78 41.07,45.98 C40.95,47.31 40.26,48.49 39.28,49.41 C38.19,50.44 36.74,51.16 35.38,51.41 C33.88,51.68 32.35,51.48 30.97,50.92 L30.97,50.92 Z M36.09,30.51 C37.68,31.48 40.11,33.74 38.40,36.15 C36.38,38.27 33.47,35.84 32.04,34.74 C30.71,33.89 29.21,36.08 30.45,37.07 C40.80,44.74 45.01,30.77 36.89,29.37 C36.00,29.22 35.67,30.21 36.09,30.51 Z M17.53,21.59 C17.70,19.40 21.04,18.90 21.37,21.07 C21.66,23.01 21.31,24.79 20.44,26.54 C19.61,28.21 17.51,27.43 17.35,25.91 C17.14,23.87 17.42,22.95 17.53,21.59 Z M42.89,20.62 C43.36,20.01 44.03,19.60 44.83,19.83 C47.34,20.56 46.60,24.13 45.72,25.87 C45.24,26.81 43.69,27.05 42.99,26.22 C41.85,24.86 41.31,22.16 42.76,20.83 C42.80,20.76 42.84,20.69 42.89,20.62 Z M20.41,12.01 L20.80,11.94 C22.03,11.73 23.56,11.53 24.42,12.51 C24.88,13.04 25.04,14.01 24.42,14.51 C23.33,15.39 22.13,15.05 20.83,15.12 C19.75,15.19 18.72,15.36 17.68,15.66 C15.41,16.31 13.56,17.49 11.62,18.80 C11.37,18.97 11.11,18.64 11.23,18.40 C12.35,16.21 14.52,14.41 16.69,13.31 C17.85,12.72 19.12,12.23 20.41,12.01 Z M40.60,11.03 L40.91,11.09 C44.21,11.78 48.50,13.16 50.07,16.41 C50.13,16.87 50.06,16.96 50.01,17.03 L50.00,17.05 C49.95,17.11 49.92,17.18 49.72,17.24 C49.67,17.23 49.61,17.22 49.55,17.20 C48.84,17.01 48.27,16.75 47.72,16.49 L47.13,16.19 C46.43,15.85 45.74,15.53 45.00,15.29 C43.42,14.77 41.80,14.41 40.15,14.22 C39.80,14.17 39.45,14.05 39.18,13.85 C38.92,13.65 38.73,13.38 38.64,13.02 C38.52,12.55 38.56,12.20 38.81,11.78 C38.99,11.46 39.26,11.24 39.57,11.12 C39.89,10.99 40.25,10.96 40.60,11.03 Z" id="🖍-Ink"></path></g><g id="facial-hair/Chin" transform="translate(104.58, 109.48)" fill="#000000"><path d="M44.27,29.18 C38.02,30.10 33.50,29.91 30.70,28.61 C26.51,26.67 22.44,24.79 18.64,22.22 C14.75,19.58 11.45,16.45 9.10,12.44 C6.91,8.72 5.09,4.76 3.25,0.83 C3.15,0.61 2.09,-1.68 1.72,-2.44 C1.15,-3.63 -0.52,-3.25 -0.52,-1.41 C-0.52,0.43 -0.61,14.37 2.61,19.85 C5.51,24.80 10.43,28.26 15.31,31.28 C20.71,34.62 27.89,38.23 34.34,39.19 C40.18,40.05 46.84,37.63 51.06,33.63 C55.48,29.46 56.73,23.79 59.01,18.35 C59.52,17.14 57.71,16.41 57.18,17.60 C56.52,19.10 52.22,22.96 44.27,29.18 Z" id="🖍-Ink"></path></g><g id="accessories/Glasses-5" transform="translate(88.52, 88.98)" fill="#000000"><path d="M77.55,15.73 C76.96,17.36 76.05,19.05 74.94,20.42 C70.44,24.23 66.07,22.12 63.85,16.96 C63.00,13.31 65.24,9.37 67.61,6.69 C71.04,3.25 76.63,5.06 78.21,9.14 C78.30,9.67 78.36,10.20 78.39,10.72 C78.36,12.43 78.15,13.90 77.55,15.52 M34.31,12.45 C40.24,5.40 51.33,5.02 51.04,15.88 C49.77,29.61 28.33,26.24 34.31,12.45 Z M79.42,6.57 C79.21,6.22 78.98,5.88 78.73,5.55 C78.64,5.49 78.58,5.00 78.24,4.97 C73.67,-0.08 65.64,2.79 62.74,7.81 C62.21,8.45 61.78,9.19 61.46,9.97 C58.61,9.45 55.27,9.55 52.62,10.63 C49.98,3.75 42.00,3.13 36.75,6.07 C33.48,7.68 31.35,11.05 28.17,12.90 C20.70,13.44 12.67,11.77 5.33,13.64 C-0.46,14.85 4.38,17.78 5.35,15.82 C12.27,13.78 20.48,15.51 27.66,15.05 C28.41,16.31 29.84,17.34 31.27,17.30 C32.81,30.98 52.75,28.71 53.44,16.55 C54.22,15.32 55.19,14.14 56.58,13.37 C57.11,13.26 57.63,13.11 58.10,12.89 C58.90,12.78 60.13,13.12 60.87,13.79 C63.40,28.97 77.97,27.20 80.57,13.90 C80.62,13.85 80.77,13.65 80.88,13.33 C81.77,12.15 83.95,11.72 83.60,9.73 C83.29,7.74 80.78,7.76 79.42,6.57 Z" id="🖍-Ink"></path></g></g></g></g></g></svg>