<?xml version="1.0" encoding="UTF-8"?><svg width="240px" height="324px" viewBox="0 0 240 324" version="1.1" xmlns="http://www.w3.org/2000/svg" xmlns:xlink="http://www.w3.org/1999/xlink"><title>peep-59</title><desc>Created with Sketch.</desc><g id="Introduction" stroke="none" stroke-width="1" fill="none" fill-rule="evenodd"><g id="variations" transform="translate(-2046.00, -758.00)"><g id="images" transform="translate(126.00, 110.00)"><g id="a-person/bust" transform="translate(1920.00, 648.00)"><g id="body/Coffee" transform="translate(31.06, 135.05)" fill-rule="evenodd"><path d="M83.28,0.67 C88.50,-3.30 101.59,-5.09 107.16,-1.26 C112.65,2.58 113.25,8.79 115.82,14.50 C118.23,13.36 122.22,15.00 122.93,17.24 C123.79,18.30 123.83,21.27 124.43,22.69 C150.51,26.85 154.47,47.19 157.61,70.28 C161.76,93.71 171.19,117.09 167.10,141.20 C167.63,141.98 168.05,142.73 168.44,143.62 C169.37,145.20 168.17,147.45 166.29,147.36 C163.86,147.15 161.45,146.86 159.01,146.76 C152.24,146.53 145.46,146.56 138.68,146.64 L137.76,146.66 C103.61,147.08 69.46,147.92 35.31,148.14 C34.08,148.14 33.47,147.03 33.63,145.93 C33.97,143.73 34.28,141.52 34.60,139.31 C26.52,141.44 17.94,141.98 9.88,139.53 C9.32,138.96 11.19,139.27 11.49,139.18 C4.08,134.12 6.29,123.44 6.95,115.75 C11.03,89.41 12.47,60.26 28.25,37.78 C35.07,28.60 45.08,21.34 56.57,19.71 L56.89,19.66 C60.25,19.21 64.00,19.07 66.94,17.24 C70.25,14.60 71.65,9.72 75.13,9.68 C76.28,9.66 77.84,11.12 79.52,12.10 C79.65,9.93 80.82,8.10 81.08,6.42 L81.10,6.27 C81.37,4.31 81.00,2.54 83.28,0.67 Z M139.33,70.98 C132.00,65.88 113.07,68.44 112.64,68.73 C111.68,69.35 111.27,69.41 110.75,70.23 C110.24,70.29 109.74,70.36 109.23,70.44 C108.21,70.77 108.96,72.02 110.14,71.58 C109.43,74.64 111.52,76.81 112.35,79.84 C112.62,80.82 112.36,82.58 112.35,83.59 C112.43,84.87 113.84,86.38 113.61,87.66 C112.77,92.22 108.22,96.67 110.14,101.10 C111.41,103.60 115.23,104.87 117.77,105.72 C123.03,107.74 132.19,105.65 135.25,101.10 C136.88,98.67 138.77,92.56 139.74,90.66 L139.96,87.65 C140.49,80.16 140.96,72.11 139.33,70.98 Z" id="🎨-Background" fill="#FFFFFF"></path><path d="M73.86,9.24 C74.36,8.79 75.11,9.35 74.79,9.96 C74.07,11.32 73.33,12.61 72.36,13.81 C71.77,14.54 71.14,15.23 70.50,15.91 C72.14,17.33 73.54,19.09 74.87,20.74 C76.57,22.85 78.17,25.05 80.07,26.98 C81.95,28.88 84.03,30.21 86.54,31.10 L87.05,31.27 C89.57,32.16 92.26,33.36 93.68,35.75 C93.96,36.22 93.40,36.80 92.93,36.50 C90.46,34.97 87.55,34.67 84.86,33.66 C82.27,32.68 80.00,31.18 78.00,29.26 C76.00,27.34 74.33,25.16 72.58,23.03 C70.85,20.92 68.99,19.12 66.94,17.34 C63.78,19.46 60.18,20.38 56.51,21.29 L56.11,21.39 C52.44,22.30 48.79,23.36 45.35,24.94 C42.32,26.33 39.33,28.00 36.86,30.27 C34.23,32.68 32.19,35.76 30.32,38.77 C26.14,45.50 23.20,52.88 20.61,60.34 C17.92,68.11 15.67,76.03 13.85,84.04 C12.93,88.12 12.18,92.23 11.56,96.36 C11.26,98.35 11.00,100.35 10.77,102.35 C10.52,104.48 10.46,106.68 9.81,108.73 C9.53,109.61 8.86,109.98 8.20,109.95 L8.06,111.63 C7.89,113.88 7.72,116.13 7.66,118.39 C7.57,122.16 7.61,125.91 7.88,129.66 L7.92,130.17 C8.13,132.91 8.61,135.99 10.67,138.00 C12.80,140.07 16.08,140.73 18.95,140.76 C25.65,140.85 32.09,137.69 38.02,134.91 C44.12,132.05 50.05,128.88 55.84,125.44 C58.79,123.68 61.71,121.87 64.59,120.01 C66.01,119.09 67.41,118.16 68.80,117.22 C69.60,116.68 70.36,116.08 71.17,115.60 C70.77,115.23 70.59,114.65 70.93,114.14 C68.58,112.10 67.60,108.46 67.49,105.52 C67.39,103.14 67.74,100.77 68.02,98.42 C68.16,97.23 68.33,96.04 68.51,94.86 C68.58,94.40 68.63,93.90 68.72,93.40 C62.38,96.89 55.86,99.99 49.17,102.75 C45.74,104.17 42.26,105.44 38.74,106.60 L38.03,106.84 C34.69,107.93 31.27,108.96 27.82,109.59 C27.64,109.62 27.49,109.35 27.69,109.26 C31.05,107.78 34.53,106.52 37.94,105.16 L38.50,104.93 L38.50,104.93 C38.43,104.93 38.37,104.92 38.30,104.90 C36.30,104.42 34.31,103.67 32.35,103.05 C30.53,102.46 28.48,102.10 26.78,101.22 C26.65,101.15 26.72,100.97 26.85,100.96 C28.76,100.83 30.84,101.39 32.72,101.71 L33.42,101.84 C34.60,102.05 35.81,102.27 36.98,102.56 C37.03,102.17 37.25,101.77 37.56,101.54 C41.00,98.99 40.65,93.84 41.02,90.04 L41.29,87.22 C41.77,82.28 42.28,77.35 43.05,72.45 C43.09,72.19 43.50,72.26 43.50,72.51 C43.54,78.58 43.08,84.63 42.85,90.69 L42.82,91.69 C42.69,95.43 42.59,99.31 40.24,102.19 C40.56,102.00 41.01,102.00 41.28,102.32 C41.60,102.71 41.79,103.14 41.79,103.57 C43.92,102.68 46.04,101.77 48.14,100.83 C54.92,97.83 61.56,94.46 68.03,90.82 C68.72,90.43 69.38,90.74 69.73,91.26 L69.78,91.25 C69.78,91.25 69.79,91.25 69.80,91.25 L69.85,91.25 C69.85,91.25 69.85,91.25 69.86,91.25 C70.77,90.75 72.00,91.10 72.79,91.83 C72.81,91.85 72.83,91.88 72.85,91.90 C73.84,91.46 74.76,90.86 75.60,90.10 C77.31,88.54 78.76,86.62 80.03,84.70 C82.36,81.15 84.34,77.20 87.49,74.28 C90.04,71.91 93.22,70.43 96.54,69.50 C96.53,69.40 96.57,69.30 96.63,69.23 C96.80,69.06 96.93,69.00 97.15,69.10 C97.16,69.11 97.17,69.12 97.18,69.14 L97.51,68.58 C97.68,68.28 97.87,67.98 97.93,67.90 C98.31,67.42 98.69,66.95 99.09,66.49 C99.76,65.70 100.52,64.93 101.40,64.39 C103.34,63.20 105.37,63.87 107.36,64.52 C108.56,64.92 109.75,65.32 110.95,65.72 L111.08,65.76 C111.97,66.05 113.02,66.30 113.42,67.25 C113.57,67.62 113.60,68.01 113.52,68.39 C122.01,66.23 131.44,67.22 139.73,69.75 C140.05,69.85 140.36,70.11 140.43,70.46 C141.38,75.33 141.80,80.32 141.37,85.27 C141.00,89.55 140.06,93.74 138.27,97.65 L138.17,97.87 C136.49,101.50 133.84,105.97 129.78,107.11 C127.33,107.80 124.61,107.39 122.11,107.26 C119.69,107.14 117.20,107.12 114.80,106.74 C112.65,106.40 110.77,105.44 109.45,103.70 C108.31,102.19 107.71,100.38 107.21,98.57 C106.99,98.64 106.76,98.72 106.54,98.80 C105.61,99.17 104.82,99.75 104.11,100.44 C102.60,101.90 101.44,103.68 99.86,105.07 C98.43,106.33 96.81,107.31 95.06,108.06 C91.45,109.62 87.58,110.25 83.75,111.08 L83.49,111.13 C80.61,111.77 77.67,112.54 75.13,114.04 C75.08,114.48 74.88,114.90 74.56,115.17 C75.01,115.59 75.20,116.26 74.81,116.88 C73.71,118.63 71.81,119.62 70.11,120.74 L70.00,120.81 C68.33,121.92 66.64,123.00 64.94,124.07 C61.48,126.23 57.95,128.28 54.37,130.24 C48.62,133.38 42.74,136.35 36.75,139.04 C37.11,140.81 36.98,142.64 37.25,144.42 L37.29,144.67 C37.40,145.33 37.25,145.88 36.79,146.32 L36.75,146.36 L36.75,146.35 L36.70,146.39 L36.69,146.41 L36.69,146.40 C36.64,146.45 36.59,146.49 36.53,146.53 L36.46,146.58 L36.46,146.58 C36.02,146.84 35.46,146.84 35.01,146.61 L34.96,146.58 L34.87,146.53 C34.28,146.19 33.87,145.34 34.12,144.67 C34.72,143.02 34.95,141.26 35.51,139.60 L35.07,139.80 L35.07,139.80 L34.48,140.05 C28.17,142.78 21.16,145.08 14.28,143.22 C11.24,142.40 8.40,140.66 6.88,137.82 C5.39,135.03 5.17,131.79 5.09,128.68 C5.00,124.85 5.20,120.96 5.71,117.16 C6.05,114.61 6.46,112.01 7.09,109.49 C6.76,109.20 6.52,108.79 6.46,108.28 C6.16,105.87 6.68,103.36 7.00,100.97 C7.32,98.62 7.66,96.29 8.05,93.96 C8.84,89.25 9.76,84.56 10.82,79.91 C12.72,71.64 15.23,63.51 18.24,55.57 L18.51,54.88 C21.30,47.63 24.52,40.54 29.02,34.17 C31.17,31.12 33.44,28.35 36.48,26.16 C39.32,24.10 42.54,22.62 45.85,21.49 C49.16,20.35 52.57,19.59 56.04,19.12 C59.57,18.64 63.29,18.35 66.57,16.90 C66.16,16.16 66.51,15.15 67.21,14.69 C69.57,13.13 71.75,11.11 73.86,9.24 Z M149.24,76.91 C149.34,76.76 149.57,76.86 149.53,77.04 C148.38,81.73 147.31,86.43 146.60,91.22 C145.34,99.85 145.57,108.60 145.67,117.29 L145.68,117.74 C145.73,122.43 145.81,127.11 145.96,131.80 C146.04,134.16 146.19,136.55 146.11,138.92 C146.06,140.21 145.72,141.42 145.60,142.69 C145.49,143.80 145.59,144.93 145.64,146.04 C145.68,146.78 144.59,146.75 144.51,146.04 L144.42,145.12 C144.30,143.97 144.14,142.82 143.76,141.71 C143.31,140.37 143.09,139.06 142.93,137.67 C142.69,135.52 142.58,133.35 142.49,131.19 L142.42,129.70 C142.03,120.68 142.05,111.61 142.68,102.59 L142.72,101.95 C143.35,93.42 144.44,84.22 149.24,76.91 Z M124.82,23.20 C124.53,23.08 124.63,22.62 124.96,22.70 L125.56,22.85 C129.98,23.91 134.31,25.05 138.43,27.02 C142.56,28.99 146.05,31.93 148.82,35.54 C154.21,42.57 156.45,51.11 158.22,59.65 C160.19,69.13 161.98,78.64 163.96,88.12 L164.33,89.89 C166.16,98.71 167.89,107.55 169.17,116.48 L169.26,117.13 C170.55,126.31 171.32,135.82 169.92,145.03 C169.64,146.85 166.61,146.40 166.73,144.60 C167.07,139.39 167.32,134.21 167.08,129.00 C166.84,123.78 166.35,118.59 165.62,113.42 C165.01,109.07 164.10,104.77 163.29,100.45 L163.16,99.77 C162.48,96.10 161.78,92.43 161.09,88.76 L160.04,83.27 C158.48,75.04 156.89,66.81 155.09,58.64 L154.98,58.16 C153.22,50.30 150.63,42.06 145.35,35.82 C139.99,29.48 132.32,26.29 124.82,23.20 Z M105.35,106.60 C105.48,106.31 105.93,106.34 106.07,106.60 C106.61,107.60 106.67,108.88 106.78,110.01 L106.79,110.13 C106.92,111.51 107.03,112.89 107.10,114.28 C107.24,116.91 107.30,119.53 107.29,122.17 C107.29,124.86 107.23,127.56 107.09,130.25 L107.05,130.97 C106.91,133.32 106.69,135.93 105.58,137.97 C105.18,138.72 104.08,138.50 103.84,137.75 C103.08,135.28 103.47,132.36 103.67,129.84 L103.82,127.87 C103.97,125.90 104.11,123.93 104.23,121.96 C104.39,119.26 104.51,116.56 104.64,113.86 C104.68,112.99 104.72,112.11 104.77,111.24 L104.84,109.92 C104.90,108.82 104.90,107.62 105.35,106.60 Z M19.12,110.09 L19.46,109.76 C20.51,108.74 21.82,107.17 23.36,107.27 C23.98,107.31 24.37,107.82 24.24,108.42 C23.97,109.71 22.65,110.39 21.70,111.17 C20.66,112.04 19.68,112.96 18.71,113.90 C17.84,114.72 17.00,115.57 16.19,116.45 L15.89,116.78 C15.59,117.10 13.52,118.98 13.74,119.47 L13.75,119.49 C13.82,119.58 13.71,119.71 13.61,119.68 C12.71,119.39 12.77,118.62 13.11,117.84 C13.76,116.35 14.90,114.96 15.90,113.68 C16.89,112.41 17.97,111.22 19.12,110.09 L19.12,110.09 Z M108.60,72.52 C107.91,70.88 105.35,70.92 103.90,71.01 C100.25,71.26 96.29,72.19 93.04,73.89 C89.67,75.67 87.40,78.51 85.37,81.64 L85.27,81.79 C83.29,84.87 81.38,88.52 78.28,90.64 C76.70,91.71 74.86,92.70 72.94,93.13 C72.81,93.36 72.60,93.54 72.32,93.61 L72.19,93.64 C71.64,93.76 70.79,93.89 70.06,93.81 C70.07,94.17 70.06,94.53 70.07,94.87 C70.10,95.84 70.11,96.82 70.11,97.79 C70.11,99.83 70.00,101.88 70.08,103.92 C70.16,105.72 70.41,107.61 71.28,109.22 C71.91,110.40 72.75,111.19 73.77,111.93 C76.26,110.42 79.07,109.49 81.93,108.79 C85.38,107.95 88.92,107.39 92.30,106.25 C93.93,105.70 95.49,104.98 96.90,104.01 C98.41,102.97 99.56,101.57 100.74,100.20 L100.92,99.98 C102.13,98.60 103.44,97.28 105.14,96.53 C106.61,95.88 108.54,95.77 109.83,94.77 C110.50,94.24 110.55,93.48 110.62,92.71 C109.80,92.83 108.93,92.64 108.11,92.54 L107.69,92.49 C106.92,92.40 106.16,92.30 105.40,92.10 C105.26,92.06 105.26,91.85 105.40,91.81 C106.30,91.58 107.19,91.48 108.11,91.37 L108.33,91.35 C109.17,91.24 110.05,91.07 110.86,91.26 C111.01,90.70 111.22,90.16 111.52,89.63 C111.94,88.88 112.73,88.02 112.84,87.15 C112.87,86.88 112.81,86.57 112.69,86.34 L112.64,86.26 C112.59,86.17 112.53,86.08 112.44,86.02 C112.43,86.03 112.41,86.04 112.36,86.06 C111.73,86.26 111.18,85.95 110.89,85.47 C109.65,85.62 108.30,85.57 107.13,85.62 L105.96,85.68 C104.70,85.74 103.39,85.76 102.21,85.51 C102.05,85.47 102.00,85.20 102.16,85.13 C103.61,84.51 105.37,84.31 106.93,84.07 C107.79,83.94 108.67,83.84 109.54,83.72 C110.12,83.64 110.73,83.51 111.33,83.48 C112.84,81.61 112.02,78.65 109.93,77.84 C109.17,78.18 108.48,77.98 107.65,77.91 C106.82,77.84 105.98,77.79 105.15,77.80 C103.47,77.80 101.70,78.24 100.04,78.06 C99.77,78.02 99.52,77.67 99.79,77.45 C101.06,76.41 102.88,76.07 104.49,75.85 L104.82,75.81 C105.36,75.74 106.02,75.63 106.70,75.57 C106.85,75.27 107.13,75.04 107.54,74.99 C107.67,74.97 107.79,74.96 107.92,74.95 L107.91,74.94 L107.91,74.94 C108.93,74.89 108.88,73.18 108.60,72.52 Z M39.29,104.53 C39.28,104.55 39.26,104.58 39.24,104.61 L39.20,104.64 L39.37,104.57 L39.29,104.53 L39.29,104.53 Z M126.27,68.86 C122.01,68.40 117.74,68.49 113.47,68.62 C113.13,69.74 111.94,70.69 110.78,70.72 C111.69,72.10 111.78,73.96 111.15,75.42 C112.49,75.95 113.65,76.92 114.35,78.28 C115.33,80.18 115.20,82.30 114.24,84.05 C115.06,84.80 115.54,86.00 115.50,87.15 C115.44,88.42 114.68,89.50 114.05,90.55 C113.37,91.69 113.35,92.70 113.14,93.97 C112.84,95.84 111.58,96.97 109.96,97.67 L110.05,98.01 C110.46,99.64 110.98,101.35 112.18,102.54 C113.71,104.07 116.09,104.05 118.12,104.15 L118.21,104.16 C120.07,104.25 121.93,104.36 123.78,104.46 L125.17,104.54 C127.31,104.66 129.36,104.67 131.11,103.26 C133.95,100.95 135.90,97.14 137.14,93.76 C139.73,86.67 139.76,78.88 138.57,71.50 C134.58,70.21 130.44,69.30 126.27,68.86 Z M90.83,80.62 L90.86,80.62 C91.74,80.72 92.34,81.43 92.56,82.28 C92.87,83.50 92.72,84.61 93.47,85.72 C94.24,86.85 94.71,87.77 94.83,89.17 C94.87,89.75 94.85,90.33 94.98,90.89 L95.07,91.29 C95.17,91.71 95.25,92.12 95.20,92.57 C95.16,92.99 94.96,93.31 94.54,93.44 C93.19,93.87 92.15,92.88 91.80,91.62 C91.49,90.53 91.90,89.23 91.47,88.21 C91.24,87.64 90.80,87.16 90.55,86.59 C90.31,86.03 90.19,85.44 90.15,84.82 C90.08,83.66 91.10,82.26 90.53,81.21 C90.41,80.98 90.55,80.61 90.83,80.62 Z M72.86,68.62 C73.78,68.43 74.82,68.00 75.72,68.36 C76.19,68.54 76.42,69.11 76.02,69.50 C75.34,70.18 74.35,70.22 73.44,70.38 L73.36,70.40 C72.27,70.60 71.18,70.79 70.10,70.97 C68.05,71.31 66.00,71.61 63.94,71.86 C61.82,72.13 59.70,72.36 57.58,72.53 L56.75,72.60 C54.96,72.75 53.09,72.85 51.33,72.58 C51.08,72.54 51.12,72.17 51.33,72.10 C53.26,71.52 55.38,71.36 57.37,71.11 C59.49,70.85 61.61,70.57 63.72,70.24 C65.82,69.91 67.93,69.56 70.03,69.17 C70.97,68.99 71.92,68.81 72.86,68.62 Z M105.92,66.74 C105.11,66.46 104.23,66.04 103.36,66.18 C101.86,66.42 100.52,67.88 99.33,68.85 L99.93,68.73 C102.98,68.15 107.03,67.51 109.59,69.46 C109.60,69.44 109.60,69.43 109.61,69.42 C109.82,69.11 110.06,68.86 110.32,68.59 C110.34,68.57 110.37,68.54 110.39,68.52 L110.53,68.37 L110.21,68.26 C109.52,68.01 108.70,67.70 108.57,67.65 L108.56,67.65 C107.68,67.35 106.80,67.05 105.92,66.74 Z M80.82,2.69 C80.69,1.07 83.21,1.08 83.33,2.69 C83.61,6.19 82.82,9.66 81.12,12.73 C81.11,12.75 81.10,12.77 81.08,12.79 C82.14,13.34 83.22,13.87 84.31,14.35 C85.72,14.95 87.15,15.50 88.60,15.97 C89.92,16.40 91.54,16.56 92.64,17.44 C94.98,19.30 94.10,23.16 93.65,25.66 L93.58,26.05 C93.36,27.34 93.20,28.66 93.74,29.89 C94.32,31.21 95.49,32.19 96.53,33.13 L96.74,33.33 C97.67,34.17 98.72,35.19 99.40,36.34 C100.02,35.05 100.87,34.01 101.76,32.83 C102.40,31.99 101.94,31.71 101.49,30.89 C101.04,30.10 100.83,29.25 100.97,28.35 C101.22,26.69 102.55,25.48 103.88,24.58 C105.44,23.51 107.19,22.72 108.81,21.73 C112.13,19.69 115.37,17.35 118.29,14.76 C118.37,14.69 118.50,14.78 118.44,14.88 C116.14,18.39 113.44,21.42 110.12,23.99 C108.77,25.03 107.35,25.90 105.93,26.81 L105.52,27.07 C104.95,27.44 104.24,27.93 103.98,28.56 C103.72,29.20 104.27,29.68 104.57,30.20 C105.52,31.87 105.06,33.43 103.94,34.84 L103.89,34.91 C102.77,36.29 101.92,37.57 101.52,39.32 C100.65,43.10 101.86,47.04 103.13,50.59 L103.18,50.73 C103.86,52.64 104.59,54.53 105.19,56.48 L105.35,57.01 C105.89,58.80 106.34,60.56 105.73,62.40 C105.52,63.03 104.67,63.17 104.32,62.59 C103.07,60.51 102.76,58.02 101.98,55.74 C101.21,53.51 100.34,51.33 99.60,49.10 C98.65,46.23 98.02,43.13 98.36,40.12 C98.35,40.10 98.34,40.09 98.33,40.07 L98.09,39.54 C97.43,38.11 96.80,36.86 95.60,35.72 C94.35,34.53 92.99,33.47 92.01,32.03 C89.88,28.91 91.20,25.43 91.45,22.01 L91.48,21.59 C91.53,20.88 91.56,19.91 91.09,19.42 C90.57,18.87 89.35,18.72 88.66,18.48 C86.87,17.85 85.10,17.11 83.43,16.22 C81.83,15.38 80.28,14.45 78.84,13.36 L78.11,12.81 C76.96,11.94 75.76,10.99 74.99,9.80 C74.90,9.67 75.05,9.45 75.21,9.51 C76.50,10.04 77.68,10.87 78.89,11.59 C78.90,11.55 78.93,11.50 78.95,11.46 C80.44,8.76 81.06,5.76 80.82,2.69 Z M122.01,21.20 C122.53,19.80 124.87,19.90 124.78,21.58 C124.70,22.87 124.16,24.03 123.66,25.20 L123.60,25.32 C123.09,26.54 122.49,27.68 121.78,28.80 C120.42,30.93 118.83,32.91 117.12,34.78 C115.58,36.47 113.55,37.50 111.22,37.33 C110.23,37.26 109.24,37.01 108.38,36.52 C107.35,35.93 106.24,34.18 104.94,34.60 C104.81,34.64 104.69,34.46 104.80,34.37 C106.31,33.16 108.02,35.04 109.46,35.49 C111.64,36.18 113.87,35.42 115.27,33.66 C116.74,31.83 118.08,29.77 119.31,27.77 C119.93,26.75 120.50,25.70 121.00,24.61 C121.49,23.52 121.61,22.32 122.01,21.20 Z M118.51,12.53 C118.44,12.34 118.68,12.15 118.85,12.26 C119.85,12.91 120.70,13.76 121.62,14.51 C122.63,15.34 123.65,16.15 124.69,16.95 C126.20,18.12 124.45,20.26 123.12,18.99 C121.30,17.25 119.30,14.97 118.51,12.53 Z M113.06,5.71 C113.47,4.16 115.85,4.80 115.50,6.33 L115.49,6.38 C114.83,8.91 115.77,11.49 117.77,13.14 L117.84,13.20 C119.10,14.21 117.31,15.98 116.06,14.98 C113.33,12.79 112.19,9.07 113.06,5.71 Z" id="🖍-Ink" fill="#000000"></path></g><g id="head/Twists-2" transform="translate(78.59, 38.04)" fill-rule="evenodd"><path d="M86.21,53.27 C85.43,47.01 82.97,40.37 80.37,34.53 C74.55,22.19 61.21,20.49 49.26,17.95 C37.46,16.23 24.96,14.68 13.34,18.11 C6.81,19.71 4.26,27.49 5.29,33.63 C5.88,37.46 7.62,41.08 9.11,44.63 C12.06,51.91 13.93,59.71 13.93,67.60 C13.73,72.75 13.00,78.64 18.92,80.82 C24.56,83.62 25.03,91.22 32.09,95.53 C34.94,101.31 42.71,101.82 48.30,103.16 C51.84,103.84 55.41,104.33 59.00,104.66 C69.38,105.99 77.68,102.98 83.11,93.73 C86.75,88.10 89.46,81.60 88.79,74.78 C88.12,67.59 87.01,60.45 86.21,53.27 Z" id="🎨-Background" fill="#FFFFFF"></path><path d="M49.35,2.95 C49.94,2.28 50.85,2.51 51.40,3.04 C51.77,3.15 52.11,3.30 52.44,3.51 C53.19,3.42 53.97,3.42 54.70,3.44 C54.88,3.35 55.07,3.26 55.28,3.18 C56.76,2.64 58.07,2.91 59.15,3.64 C59.67,3.15 60.32,2.84 61.16,2.88 C61.91,2.93 62.45,3.28 62.90,3.74 C63.36,3.08 64.10,2.62 65.02,2.55 C66.30,2.46 67.53,2.97 68.56,3.77 C69.15,3.09 69.96,2.69 70.87,2.69 C71.47,2.58 72.09,2.62 72.66,2.80 C73.49,3.05 74.21,3.51 74.79,4.12 C75.70,3.24 76.82,2.62 78.11,2.71 C79.77,2.83 81.15,4.05 81.80,5.56 C82.93,6.01 83.97,6.66 84.84,7.58 C84.88,7.63 84.93,7.68 84.97,7.73 C85.44,7.90 85.89,8.15 86.27,8.47 C87.51,9.50 87.78,10.98 87.37,12.43 C87.43,12.67 87.48,12.90 87.52,13.14 C88.68,13.31 89.72,13.98 90.32,15.06 C91.14,16.55 90.97,18.51 90.09,19.93 C89.71,20.55 89.23,21.06 88.69,21.51 C89.30,22.90 89.01,24.56 88.02,25.69 C87.78,26.07 87.48,26.42 87.15,26.74 C87.52,28.18 86.87,29.66 85.57,30.43 L85.45,30.71 C85.44,30.75 85.42,30.80 85.40,30.85 C85.38,30.91 85.36,30.96 85.35,31.02 C85.32,31.53 85.15,32.03 84.81,32.50 C84.13,33.47 83.29,34.10 82.84,35.23 L82.79,35.35 C82.60,35.88 81.98,36.26 81.45,36.09 C84.39,42.15 85.94,48.88 87.00,55.48 C87.53,58.78 87.94,62.08 88.27,65.40 L88.59,68.70 C88.88,71.64 89.13,74.58 89.13,77.53 C89.14,84.19 87.23,90.60 83.14,95.91 C79.27,100.92 73.80,104.55 67.61,105.98 C61.23,107.46 53.74,106.88 48.02,103.50 C46.33,102.51 47.81,100.12 49.52,100.92 C52.78,102.43 56.08,103.56 59.68,103.81 C63.20,104.05 66.72,103.61 70.05,102.46 C75.56,100.56 80.25,96.57 83.27,91.61 C84.75,89.16 85.83,86.50 86.40,83.69 C87.11,80.20 87.01,76.58 86.74,73.04 L86.73,72.80 C86.21,65.97 85.53,59.10 84.42,52.34 C83.45,46.36 81.95,40.51 80.00,34.78 C79.24,34.11 78.39,33.56 77.48,33.13 C70.79,32.85 64.10,32.94 57.43,33.40 C51.74,33.79 46.07,34.46 40.45,35.44 L39.85,35.54 C38.61,35.77 37.22,35.89 36.05,36.39 C35.05,36.83 34.64,37.65 34.38,38.67 C33.75,41.25 33.65,44.07 33.54,46.71 C33.44,49.29 33.67,51.90 33.47,54.47 C33.29,56.62 32.74,58.83 31.15,60.39 C30.31,61.20 29.28,61.65 28.32,62.27 C27.70,62.67 27.43,63.08 27.51,63.82 C27.69,65.44 28.99,67.48 27.53,68.86 C27.27,69.11 26.82,69.14 26.57,68.86 C25.97,68.21 25.13,67.71 24.41,67.18 C24.11,66.96 24.36,66.53 24.70,66.68 C25.15,66.88 25.61,67.12 26.08,67.33 C25.04,66.48 23.58,66.06 22.36,65.81 C21.74,65.69 21.10,65.65 20.46,65.71 C19.98,65.94 19.50,66.15 19.01,66.35 C18.40,66.61 17.78,66.84 17.15,67.07 C14.98,68.83 13.95,71.71 14.40,74.52 C14.65,76.08 15.36,77.77 16.71,78.67 C18.31,79.75 20.46,79.29 22.18,80.08 C23.80,80.83 24.79,82.34 25.52,83.90 L25.83,84.54 C26.52,85.98 27.22,87.38 28.15,88.69 C29.24,90.21 30.56,91.57 32.01,92.74 C32.71,93.30 33.45,93.81 34.23,94.27 L34.44,94.40 C35.22,94.86 35.78,95.30 35.83,96.27 C35.85,96.60 35.64,96.91 35.36,97.09 C34.18,97.84 33.00,96.90 32.02,96.24 C30.95,95.54 29.94,94.74 29.00,93.88 C27.21,92.23 25.66,90.28 24.47,88.16 C23.57,86.55 23.05,84.27 21.62,83.02 C20.74,82.26 19.51,82.25 18.42,82.11 C17.40,81.98 16.44,81.77 15.54,81.27 C11.86,79.23 10.82,74.28 11.69,70.46 C11.84,69.81 12.04,69.18 12.30,68.58 C10.93,68.81 9.39,67.39 9.95,65.96 C9.99,65.85 10.04,65.75 10.09,65.65 C9.18,65.06 8.47,64.16 8.13,62.98 C7.96,62.37 7.94,61.75 8.03,61.16 C7.59,60.87 7.23,60.46 7.00,59.97 C6.27,59.63 5.62,59.13 5.24,58.41 C4.71,57.42 4.78,56.50 5.18,55.68 C5.12,55.58 5.07,55.47 5.02,55.36 C3.53,54.42 2.49,52.79 2.61,50.99 C2.64,50.39 2.79,49.85 3.02,49.36 C3.00,49.30 2.98,49.24 2.96,49.18 C1.72,48.54 0.69,47.50 0.32,46.11 C-0.05,44.71 0.39,43.32 1.25,42.24 C-0.02,41.32 -0.78,40.02 -0.32,38.06 C-0.13,37.27 0.25,36.54 0.76,35.93 C0.76,35.91 0.75,35.89 0.75,35.87 L0.63,35.78 C-0.93,34.54 -1.83,32.97 -0.87,31.03 C-0.44,30.16 0.17,29.56 0.90,29.16 L0.93,29.04 L0.93,29.04 C0.41,27.93 0.24,26.70 0.60,25.41 C0.89,24.34 1.58,23.49 2.46,22.92 C2.40,22.45 2.41,21.94 2.51,21.39 C2.66,20.45 3.13,19.64 3.80,19.06 C3.83,18.94 3.86,18.82 3.90,18.70 C4.12,17.96 4.55,17.16 5.05,16.57 C5.45,16.07 5.91,15.90 6.47,15.88 C6.43,15.42 6.46,14.96 6.55,14.49 C6.84,13.05 7.75,11.70 9.11,11.08 C9.67,10.83 10.26,10.76 10.82,10.82 C11.30,9.80 12.24,9.07 13.40,8.91 C13.85,8.85 14.27,8.85 14.65,8.91 C14.87,8.81 15.10,8.72 15.33,8.63 C15.49,8.58 15.65,8.53 15.81,8.48 C16.34,7.81 17.04,7.28 17.87,6.96 C18.81,6.59 19.78,6.63 20.64,6.94 L20.91,6.89 L20.91,6.89 C21.33,6.15 22.01,5.57 23.06,5.31 C24.25,5.02 25.47,5.43 26.40,6.18 C26.40,6.18 26.41,6.18 26.42,6.17 C26.90,5.08 27.74,4.32 29.14,4.37 C30.01,4.41 30.80,4.84 31.41,5.46 C31.75,5.41 32.08,5.38 32.42,5.34 C32.78,4.92 33.18,4.52 33.62,4.17 C34.35,3.59 35.29,3.64 35.82,4.45 C35.94,4.63 36.04,4.81 36.15,4.99 L36.64,4.96 L36.64,4.96 C37.21,4.18 38.00,3.66 39.07,3.62 C40.05,3.58 40.76,4.06 41.29,4.73 C41.73,4.72 42.16,4.71 42.60,4.71 C43.11,4.12 43.71,3.60 44.39,3.17 C44.92,2.84 45.69,2.95 46.12,3.39 C46.40,3.69 46.67,4.00 46.92,4.32 C47.56,3.60 48.42,3.13 49.35,2.95 Z M18.25,70.06 C19.24,69.50 20.57,70.11 21.52,70.59 C22.68,71.17 23.84,72.05 24.55,73.15 C25.52,74.64 23.24,75.85 22.22,74.51 C21.59,73.68 21.09,72.85 20.33,72.13 C19.64,71.46 18.63,71.02 18.23,70.14 C18.22,70.12 18.22,70.08 18.25,70.06 Z M18.95,33.74 L18.96,33.69 C19.24,32.92 18.02,32.59 17.74,33.35 C17.32,34.51 17.81,35.76 18.95,36.26 C19.26,36.40 19.62,36.35 19.81,36.03 C19.97,35.77 19.90,35.30 19.59,35.17 C18.94,34.89 18.73,34.39 18.95,33.74 L18.95,33.74 Z M8.40,31.60 C9.01,31.06 8.11,30.16 7.50,30.70 C6.93,31.20 6.51,31.89 6.62,32.67 C6.73,33.47 7.33,34.04 7.99,34.43 C8.69,34.86 9.33,33.76 8.63,33.34 L8.55,33.29 C8.26,33.11 7.92,32.86 7.87,32.50 C7.82,32.12 8.14,31.82 8.40,31.60 Z M11.88,22.05 L11.92,22.02 C12.58,21.55 11.94,20.45 11.28,20.92 C10.67,21.36 10.18,21.93 10.13,22.71 C10.08,23.47 10.46,24.12 10.97,24.66 C11.53,25.25 12.42,24.35 11.86,23.76 C11.32,23.18 11.21,22.55 11.88,22.05 L11.88,22.05 Z" id="🖍-Ink" fill="#000000"></path></g><g id="face/Cheeky" transform="translate(112.18, 77.35)" fill="#000000" fill-rule="evenodd"><path d="M35.27,46.78 C35.59,46.22 36.34,45.70 37.02,45.78 C40.08,46.14 40.08,49.85 38.90,52.01 C37.85,53.93 35.68,55.06 33.51,54.90 C31.23,54.72 29.29,53.38 28.44,51.25 C27.87,49.84 27.61,47.23 29.11,46.29 C29.14,46.27 29.19,46.27 29.21,46.30 C29.93,47.14 29.96,48.40 30.59,49.33 C31.18,50.20 32.09,50.92 33.16,51.03 C33.95,51.11 34.76,50.82 35.07,50.11 C35.24,49.72 35.22,49.51 35.16,49.24 L35.10,49.01 C34.90,48.20 34.81,47.58 35.27,46.78 Z M36.09,30.51 C37.68,31.48 40.11,33.74 38.40,36.15 C36.38,38.27 33.47,35.84 32.04,34.74 C30.71,33.89 29.21,36.08 30.45,37.07 C40.80,44.74 45.01,30.77 36.89,29.37 C36.00,29.22 35.67,30.21 36.09,30.51 Z M19.24,23.86 C20.22,22.39 22.45,22.61 22.99,24.35 C23.29,25.30 22.88,26.14 22.90,27.09 C22.92,27.89 22.87,28.77 22.62,29.54 C22.07,31.31 20.49,32.55 18.61,32.50 C16.75,32.45 15.10,31.26 14.32,29.60 C13.54,27.93 13.70,26.20 14.28,24.50 C14.30,24.42 14.41,24.38 14.48,24.45 C15.15,25.17 15.65,25.93 16.16,26.73 L16.69,27.56 C17.09,28.18 17.67,28.98 18.42,28.93 L18.53,28.92 C18.74,28.90 18.71,28.94 18.87,28.66 C18.94,28.52 18.93,28.28 18.97,28.12 L18.98,28.07 L18.98,28.07 L18.97,28.04 C18.96,27.97 18.94,27.83 18.93,27.58 L18.93,27.53 C18.87,26.38 18.55,24.90 19.24,23.86 Z M44.06,24.84 C43.89,22.96 46.53,22.54 47.41,23.93 C47.87,24.66 48.00,25.57 48.10,26.43 L48.15,26.84 C48.25,27.73 48.29,28.65 47.91,29.48 C47.30,30.78 45.98,31.47 44.56,31.36 C43.21,31.26 41.97,30.47 41.31,29.27 C40.73,28.21 40.15,26.12 40.86,25.01 C40.90,24.94 40.99,24.94 41.05,24.99 C41.71,25.58 41.82,26.66 42.22,27.44 C42.63,28.23 43.25,29.01 44.19,29.13 C45.09,29.25 45.44,28.75 45.21,27.90 C44.91,26.79 44.17,26.03 44.06,24.84 Z M19.95,12.68 L20.39,12.52 C21.87,11.96 23.90,11.31 25.10,12.52 C25.84,13.26 25.99,14.35 25.46,15.26 C24.81,16.36 23.66,16.38 22.55,16.55 C21.28,16.73 20.00,17.08 18.82,17.58 C17.49,18.14 16.26,18.84 15.06,19.62 C13.91,20.36 12.77,21.58 11.40,21.81 C11.34,21.82 11.28,21.79 11.26,21.73 C10.95,20.39 11.82,19.07 12.59,18.02 C13.52,16.75 14.66,15.71 15.92,14.78 C17.15,13.88 18.54,13.23 19.95,12.68 Z M46.84,17.46 L46.97,17.43 C47.87,17.28 48.68,17.32 49.36,18.03 C49.88,18.57 50.08,19.27 49.83,19.99 C49.60,20.65 49.10,21.33 48.36,21.46 C45.87,21.93 43.11,21.86 40.61,21.50 C39.47,21.34 38.31,21.14 37.20,20.83 L36.69,20.68 C35.76,20.41 34.69,20.13 34.01,19.45 C33.77,19.20 33.91,18.85 34.20,18.74 C35.38,18.28 37.00,18.52 38.26,18.49 C39.72,18.44 41.18,18.33 42.64,18.18 C44.06,18.03 45.44,17.71 46.84,17.46 Z" id="🖍-Ink"></path></g><g id="facial-hair/Full" transform="translate(104.58, 109.48)" fill="#000000" fill-rule="evenodd"><path d="M24.87,20.12 C26.58,16.11 30.32,13.16 34.61,12.09 C37.77,11.30 41.08,11.32 44.30,11.64 C45.99,11.80 47.79,11.93 49.38,12.56 C50.74,13.09 51.84,14.11 52.68,15.29 C53.67,16.70 54.34,18.31 54.81,19.96 C54.88,20.19 54.94,20.43 55.00,20.67 C54.79,21.91 54.36,22.97 53.21,23.76 C52.08,24.52 50.74,24.83 49.40,24.94 C49.27,24.88 49.14,24.82 49.03,24.75 C46.94,23.56 45.47,20.73 42.84,21.12 C40.49,21.46 38.95,24.41 37.55,26.15 C33.07,26.67 28.59,25.32 24.94,22.76 C24.75,21.88 24.74,20.99 24.87,20.12 M58.05,17.08 C57.69,16.07 57.24,15.10 56.70,14.18 C54.93,11.14 52.21,8.72 48.99,7.33 C41.36,4.07 31.48,6.37 25.32,11.73 C23.21,13.56 21.09,16.26 20.44,19.15 C20.25,19.19 20.07,19.29 19.92,19.43 C15.47,16.63 10.88,13.93 7.29,10.04 C4.69,7.22 2.87,3.88 1.76,0.20 C1.67,-0.10 1.19,-0.06 1.20,0.28 C1.21,0.36 1.21,0.44 1.21,0.51 C1.17,0.37 0.95,0.44 0.93,0.58 C0.33,5.05 -0.41,9.78 0.28,14.26 C0.69,16.94 1.90,18.90 3.53,21.01 C5.27,23.28 7.24,25.39 9.25,27.41 C10.53,28.70 11.87,30.18 13.43,31.12 C15.25,32.21 17.32,33.05 19.26,33.89 C21.24,34.75 23.25,35.55 25.29,36.24 C29.38,37.62 33.60,38.58 37.90,39.00 C41.34,39.33 45.27,39.69 48.57,38.40 C51.10,37.41 53.14,35.61 54.76,33.45 C56.52,31.10 57.91,28.43 58.68,25.60 C59.48,22.67 58.22,17.55 58.05,17.08" id="🖍-Ink"></path></g><g id="accessories/*-None" transform="translate(88.52, 88.98)"></g></g></g></g></g></svg>