<?xml version="1.0" encoding="UTF-8"?><svg width="240px" height="324px" viewBox="0 0 240 324" version="1.1" xmlns="http://www.w3.org/2000/svg" xmlns:xlink="http://www.w3.org/1999/xlink"><title>peep-23</title><desc>Created with Sketch.</desc><g id="Introduction" stroke="none" stroke-width="1" fill="none" fill-rule="evenodd"><g id="variations" transform="translate(-846.00, -434.00)"><g id="images" transform="translate(126.00, 110.00)"><g id="a-person/bust" transform="translate(720.00, 324.00)"><g id="body/Tee-Selena" transform="translate(31.06, 135.05)" fill-rule="evenodd"><path d="M108.98,151.71 C91.84,151.76 81.57,151.56 62.18,151.28 C39.73,150.68 33.68,151.75 21.11,149.28 C19.18,148.87 17.72,148.25 16.24,147.39 C15.71,147.99 14.81,148.88 13.95,148.29 C12.37,147.25 13.10,143.61 12.70,141.55 C12.06,123.44 11.02,104.79 14.56,86.90 C12.42,86.21 -0.16,81.03 -0.85,79.30 C10.53,49.55 35.47,14.75 68.29,16.06 C68.95,16.87 69.53,18.08 70.27,18.91 C74.73,17.23 80.92,15.56 81.23,9.12 C82.00,4.83 82.56,0.82 82.93,-3.13 C83.00,-3.58 83.54,-3.73 83.87,-3.93 C84.01,-4.95 84.34,-5.99 85.04,-6.69 C90.79,-7.21 103.92,-4.83 107.37,-3.86 C112.07,-3.05 111.58,1.99 112.45,5.82 C113.84,10.55 114.81,15.46 116.87,20.08 C117.34,20.14 118.64,20.37 119.13,20.45 C119.15,19.93 118.91,18.38 119.39,18.06 C120.28,17.16 120.48,18.86 120.68,19.42 C140.10,15.75 152.80,32.24 157.06,50.66 C160.14,59.92 164.22,69.29 169.56,79.34 C172.90,85.58 163.29,86.74 159.27,89.24 C163.42,105.41 163.92,121.88 164.60,138.18 C164.78,140.69 165.03,144.10 164.14,145.35 C163.72,145.67 163.43,145.67 163.00,145.69 C162.18,146.58 160.76,146.52 159.57,146.77 C155.81,147.46 151.95,147.92 148.33,147.98 C138.16,154.28 122.49,150.76 108.98,151.71" id="🎨-Background" fill="#FFFFFF"></path><path d="M81.52,-3.14 C82.05,-5.81 86.46,-5.20 86.26,-2.50 C84.03,7.54 85.39,19.76 71.31,18.77 C80.25,34.50 107.85,44.07 116.77,23.42 C112.37,22.89 111.50,12.50 110.97,8.86 L110.95,8.54 C110.83,6.66 110.87,4.93 112.00,3.33 C113.12,4.17 113.57,5.69 113.95,7.08 L114.23,8.19 C115.16,11.89 116.13,15.58 117.61,19.12 L117.66,19.12 L117.66,19.12 C117.59,16.73 120.66,15.63 121.42,18.20 C142.24,15.33 153.62,32.51 158.12,50.48 C161.39,60.32 165.66,69.78 170.52,78.93 C174.18,86.08 165.29,87.72 160.58,90.09 C164.20,104.59 164.91,119.61 165.58,134.48 C165.36,137.66 166.79,144.17 164.88,146.44 C162.04,148.66 160.51,144.86 160.95,142.42 C161.36,125.16 159.56,107.98 159.04,90.76 C155.49,92.26 151.90,93.64 148.26,94.92 C148.45,111.09 150.37,127.26 151.05,143.34 C151.95,144.05 152.45,145.28 151.68,146.35 C147.57,152.09 140.14,152.94 133.60,153.03 C118.03,153.22 102.45,153.16 86.88,153.11 C71.59,152.77 56.16,153.75 40.95,151.99 C37.97,154.23 37.36,149.41 37.76,147.35 L37.91,143.22 C38.01,140.47 38.12,137.72 38.26,134.97 L38.60,128.27 C39.19,117.10 39.80,105.94 40.78,94.79 C31.94,93.58 23.23,91.44 14.80,88.54 C15.49,107.89 14.07,127.45 16.44,146.70 C18.01,148.83 14.87,150.83 13.03,149.50 C10.76,147.76 11.74,144.37 11.28,141.87 L11.22,140.25 C10.59,122.84 9.72,105.06 12.96,87.88 L11.57,87.34 C7.31,85.68 -3.63,81.24 -2.20,79.04 C9.23,49.10 34.78,13.29 68.62,14.99 C69.48,15.59 69.91,16.75 70.55,17.58 L71.56,17.21 C75.45,15.79 79.69,13.98 79.80,9.18 C80.54,5.09 81.13,0.99 81.52,-3.14 Z M137.28,71.49 C142.13,64.71 108.51,75.43 106.12,76.13 L105.22,76.46 C90.49,81.82 74.62,87.00 62.88,97.67 C62.63,97.94 62.94,98.31 63.26,98.16 L63.30,98.14 C63.76,97.88 65.79,97.16 64.35,97.43 C81.32,86.73 101.03,80.85 120.29,75.70 C123.09,75.03 125.90,74.40 128.72,73.84 C131.57,73.15 134.79,73.15 137.28,71.49 Z M84.16,69.28 C84.57,67.59 87.36,52.05 82.73,56.31 C81.50,58.55 81.02,61.14 80.80,63.66 C80.20,66.59 81.71,69.76 80.24,72.46 C78.93,76.00 74.11,80.13 73.79,73.56 C81.68,73.29 79.31,63.30 73.94,66.39 C71.00,68.90 70.49,73.64 71.96,77.11 C69.59,74.53 65.73,74.52 62.98,72.56 C58.02,67.19 66.36,61.60 70.90,59.67 C71.16,59.39 74.88,58.09 74.09,57.93 C70.53,57.96 66.95,58.72 63.88,60.60 C57.51,63.71 55.34,73.34 62.62,76.71 C64.20,77.47 65.92,77.88 67.48,78.66 C71.42,80.70 70.15,83.26 66.09,83.34 C64.42,83.70 58.91,82.17 59.53,85.10 C60.52,86.93 62.69,87.20 64.59,87.25 C69.67,87.60 75.99,84.73 73.12,78.75 C76.59,81.71 80.92,77.58 82.40,74.37 C84.21,77.92 88.76,76.85 91.33,74.75 C95.26,77.84 100.18,74.40 101.93,70.56 C101.96,71.36 102.00,72.16 102.04,72.96 C102.12,74.60 104.65,75.12 105.03,73.36 C105.60,70.69 106.38,68.05 107.46,65.54 C109.95,58.94 111.47,61.91 111.56,67.09 C111.86,69.03 112.84,70.77 114.98,70.90 C115.58,70.94 116.36,70.41 116.45,69.78 L116.58,68.95 C116.84,67.22 117.14,65.44 117.80,63.81 C118.43,69.20 125.48,69.17 127.45,64.70 C131.53,67.15 135.82,63.73 137.72,60.19 L137.78,60.08 C138.44,58.87 136.75,57.40 135.79,58.54 L135.45,58.89 C133.63,60.78 130.73,63.51 128.33,61.18 C128.41,60.13 128.38,59.06 128.32,58.03 C128.24,56.79 126.54,55.70 125.57,56.80 C124.21,55.64 122.52,55.81 121.09,56.62 C117.40,57.66 115.07,61.26 114.27,64.83 C114.18,61.98 113.25,58.88 110.11,58.61 C106.90,58.58 105.67,62.17 104.58,64.59 C104.51,63.51 104.45,62.43 104.40,61.34 C104.30,59.48 101.72,59.50 101.50,61.29 L101.50,61.34 C101.09,65.21 98.95,74.47 93.55,72.66 C95.83,70.15 99.95,62.50 96.03,60.12 C90.00,58.60 86.91,68.11 89.48,72.54 L89.34,72.64 C87.88,73.65 85.45,74.78 84.63,72.51 L84.53,72.30 C84.11,71.34 83.74,70.30 84.16,69.28 Z M75.53,68.21 C76.67,67.54 77.08,69.75 76.79,70.49 C76.32,71.68 75.05,72.34 73.78,72.79 L73.78,72.66 C73.84,71.30 74.29,68.93 75.53,68.21 Z M94.75,62.70 C94.77,62.86 94.73,63.05 94.73,63.20 C94.53,65.80 93.37,68.30 91.76,70.33 C90.84,67.57 92.03,63.93 94.75,62.70 Z M122.20,59.44 C122.94,59.25 123.72,59.30 124.48,59.51 C124.43,60.38 124.62,61.24 124.99,62.04 C123.03,67.95 118.40,63.40 122.20,59.44 Z" id="🖍-Ink" fill="#000000"></path></g><g id="head/Long-Curly" transform="translate(78.59, 38.04)" fill-rule="evenodd"><path d="M72.55,31.01 C58.66,19.71 36.39,16.04 21.51,27.44 C9.96,38.14 5.18,68.54 7.22,83.81 C7.79,93.61 15.27,104.71 26.25,101.61 C28.12,101.43 29.93,100.71 31.81,100.56 C34.06,100.31 36.33,100.30 38.58,100.62 C43.48,101.31 47.82,103.91 52.57,105.13 C61.39,107.38 71.23,105.87 78.82,100.78 C103.90,84.29 92.54,46.98 72.55,31.01 L72.55,31.01 Z" id="🎨-Background" fill="#FFFFFF"></path><path d="M70.70,105.40 C70.96,105.31 71.22,105.22 71.47,105.12 C71.49,105.18 71.52,105.24 71.55,105.29 C71.58,105.38 71.62,105.47 71.66,105.56 C71.34,105.56 71.02,105.50 70.70,105.40 M70.19,-4.08 C70.07,-4.34 69.94,-4.59 69.79,-4.82 C70.15,-4.71 70.51,-4.54 70.84,-4.34 C70.62,-4.26 70.40,-4.18 70.19,-4.08 M15.30,29.34 C15.29,29.34 15.27,29.34 15.26,29.34 C15.44,28.83 15.78,28.36 16.15,28.02 C16.22,27.96 16.29,27.90 16.36,27.84 C15.97,28.31 15.61,28.81 15.30,29.34 M115.73,81.83 C115.54,80.07 115.30,78.31 115.00,76.57 C114.70,74.90 114.46,73.11 113.60,71.62 C112.76,70.15 111.91,68.71 110.91,67.41 C111.05,66.75 111.24,66.12 111.41,65.62 C112.36,62.73 113.29,59.05 111.32,56.36 C110.86,55.73 110.30,55.26 109.66,54.83 C109.39,54.64 108.93,54.47 108.72,54.22 C108.58,54.04 108.63,54.14 108.62,54.05 C108.58,53.57 109.70,52.56 109.97,52.19 C110.46,51.49 110.82,50.70 111.10,49.89 C112.20,46.71 111.45,43.19 110.79,40.00 C110.44,38.31 110.05,36.61 109.93,34.88 C109.81,33.26 110.03,31.67 110.16,30.06 C110.29,28.47 110.25,26.82 109.57,25.35 C109.24,24.63 108.73,23.99 108.12,23.50 C107.52,23.02 106.77,22.73 106.19,22.25 C105.60,21.77 105.77,21.12 105.92,20.46 C106.13,19.56 106.39,18.67 106.42,17.74 C106.47,16.11 105.80,14.54 104.77,13.31 C103.71,12.04 102.19,11.19 100.54,11.00 C99.79,10.91 99.05,11.06 98.30,11.00 C97.56,10.95 97.40,10.58 97.26,9.91 C96.94,8.36 97.07,6.83 96.31,5.38 C95.63,4.10 94.43,3.23 93.10,2.71 C90.67,1.77 87.83,1.96 85.27,2.52 C83.75,-1.94 79.01,-4.87 74.36,-4.91 C73.63,-6.14 72.40,-7.06 70.99,-7.60 C68.67,-8.50 66.21,-7.98 63.79,-7.98 L63.78,-7.98 C63.53,-7.99 63.29,-8.00 63.05,-8.00 C62.82,-8.01 62.59,-8.03 62.36,-8.05 C59.61,-8.38 56.88,-9.51 54.15,-8.40 C52.93,-7.91 51.97,-7.15 51.35,-6.18 C50.43,-5.93 49.52,-5.64 48.63,-5.31 C44.75,-5.21 40.92,-3.13 38.96,0.24 C36.20,-0.08 33.21,0.45 31.39,2.71 C30.91,3.29 30.54,3.98 30.30,4.71 C28.44,5.31 26.72,6.39 25.60,8.00 C24.57,9.47 24.37,11.38 25.07,12.96 C23.41,14.16 22.11,15.88 21.48,17.92 C21.10,19.15 21.05,20.43 21.29,21.64 C19.59,22.02 17.97,22.72 16.53,23.77 C15.02,24.87 13.13,26.62 13.04,28.63 C13.03,28.78 13.03,28.93 13.05,29.07 C9.72,28.84 6.34,29.40 4.09,32.07 C2.40,34.07 1.67,36.64 2.12,38.98 C-1.83,39.79 -5.57,41.85 -8.18,44.91 C-10.07,47.13 -11.76,49.96 -11.65,52.98 C-11.62,53.89 -11.41,54.81 -11.04,55.66 L-11.04,55.66 C-11.20,55.96 -11.36,56.29 -11.52,56.64 C-13.97,58.35 -15.74,61.04 -16.75,64.00 C-17.55,66.40 -18.06,69.52 -17.20,71.96 C-17.07,72.33 -16.90,72.68 -16.71,73.01 C-16.87,73.18 -17.02,73.35 -17.17,73.53 C-18.82,75.46 -20.50,77.89 -20.38,80.54 C-20.33,81.61 -19.94,82.69 -19.29,83.57 C-21.57,85.89 -23.41,88.81 -23.23,92.07 C-23.07,94.91 -21.51,97.79 -19.07,99.15 C-19.48,101.34 -18.94,103.65 -17.23,105.36 C-16.38,106.21 -15.38,106.77 -14.32,107.07 C-14.09,109.65 -11.80,111.72 -9.37,112.32 C-8.92,112.43 -8.47,112.50 -8.02,112.53 C-5.83,113.60 -3.23,113.48 -1.00,112.50 C-0.34,113.33 0.51,114.01 1.51,114.50 C1.91,114.70 2.34,114.86 2.79,115.00 C5.93,115.93 9.16,114.67 11.92,113.19 C12.00,113.14 12.17,113.08 12.31,113.02 C12.69,113.44 13.38,113.86 13.74,114.07 C14.97,114.77 16.47,115.10 17.88,115.01 C19.53,114.90 20.98,114.35 22.33,113.58 C22.53,113.61 22.72,113.63 22.92,113.64 C24.19,113.71 25.32,113.31 26.34,112.67 C27.01,112.76 27.70,112.75 28.39,112.63 C29.93,113.02 31.43,112.40 32.63,111.41 C33.16,110.98 33.61,110.46 34.09,109.97 C34.59,109.46 34.97,109.35 35.56,109.00 C36.94,108.19 37.11,106.14 36.51,104.66 C36.62,104.40 36.69,104.11 36.69,103.79 C36.68,100.98 35.39,98.41 33.81,96.17 C33.10,95.17 32.33,94.19 31.49,93.31 C30.81,92.59 29.86,91.44 28.85,91.15 C28.79,91.10 28.73,91.06 28.67,91.02 C28.86,90.34 28.97,89.64 28.93,88.94 C28.88,88.21 28.64,87.52 28.27,86.93 C29.53,84.49 30.06,81.80 29.81,79.01 C30.83,77.55 31.61,75.94 32.01,74.18 C32.26,73.09 32.40,71.94 32.38,70.82 C32.37,70.29 32.18,69.61 32.17,69.05 C32.20,69.23 32.43,68.57 32.52,68.41 C33.54,66.52 34.84,65.04 35.06,62.81 C35.19,61.51 34.88,60.07 34.10,59.00 C34.60,57.02 34.59,54.90 33.80,53.02 C33.59,52.52 33.35,52.03 33.07,51.56 C33.20,51.16 33.32,50.77 33.47,50.41 C33.53,50.27 33.59,50.12 33.65,49.98 C34.22,49.48 34.75,48.92 35.20,48.38 C36.19,47.19 36.95,45.81 37.05,44.23 C37.09,43.44 36.91,42.68 36.68,41.92 C36.58,41.58 36.52,41.21 36.39,40.87 C36.33,40.69 36.16,40.50 36.11,40.33 C36.09,40.29 36.08,40.26 36.08,40.23 C36.08,40.21 36.09,40.16 36.09,40.06 C36.09,39.30 36.19,38.56 36.20,37.82 C36.89,38.53 37.73,39.05 38.68,39.36 C40.59,39.97 42.59,39.69 44.29,38.74 C46.12,39.99 48.17,41.13 50.32,41.58 C51.60,41.85 52.88,41.74 54.16,41.91 C55.43,42.07 56.66,42.63 57.86,43.06 C60.53,44.03 63.20,45.02 65.88,45.96 C68.04,46.72 70.38,47.32 72.65,46.90 C73.28,47.88 74.11,48.70 75.17,49.31 C75.92,49.75 76.76,50.04 77.62,50.19 C78.38,50.32 79.27,50.26 79.89,50.79 C80.49,51.29 80.86,52.05 81.41,52.62 C82.01,53.26 82.75,53.81 83.53,54.21 C84.16,54.53 84.79,54.76 85.44,54.91 C85.39,56.35 85.33,57.79 85.31,59.24 C85.28,62.38 85.29,65.52 85.25,68.66 C85.21,71.79 85.11,74.92 84.95,78.05 C84.79,80.98 84.57,83.93 83.87,86.79 C81.55,96.28 72.86,103.08 63.13,103.43 C60.25,103.53 57.39,103.13 54.63,102.28 C51.77,101.40 49.21,99.58 46.28,99.03 C45.51,98.88 44.79,99.65 45.23,100.39 C45.99,101.67 46.91,102.45 48.16,103.21 C49.48,104.02 50.94,104.61 52.39,105.13 C55.05,106.08 57.87,106.64 60.69,106.79 C62.85,106.91 65.01,106.76 67.12,106.36 C67.27,106.81 67.53,107.25 67.73,107.67 C67.76,107.73 67.86,107.69 67.84,107.63 C67.81,107.52 67.79,107.43 67.78,107.35 C68.49,108.28 69.59,108.92 70.71,109.23 C71.51,109.45 72.35,109.52 73.17,109.43 C73.43,109.40 73.68,109.35 73.93,109.30 C74.77,110.03 75.83,110.51 76.90,110.76 C76.72,111.87 77.27,113.09 78.54,113.41 C79.08,113.54 79.60,113.54 80.11,113.49 C80.53,113.69 80.98,113.84 81.45,113.94 C82.07,114.08 82.81,113.90 83.28,113.46 C83.53,113.64 83.77,113.76 84.01,114.05 C84.98,115.22 87.08,114.28 87.17,112.93 C87.48,112.93 87.79,112.93 88.10,112.94 C88.18,112.97 88.25,113.01 88.33,113.04 C89.69,113.68 91.09,114.23 92.60,113.73 C92.87,113.64 93.13,113.52 93.36,113.39 C94.42,113.48 95.46,113.49 96.53,113.14 C97.17,112.93 97.76,112.61 98.26,112.18 C99.91,112.67 101.66,112.89 103.31,112.29 C104.54,111.84 105.54,111.12 106.24,110.19 C107.30,110.23 108.39,109.97 109.37,109.46 C111.04,108.59 112.21,106.95 113.03,105.30 C114.83,101.65 115.90,97.74 116.32,93.71 C116.73,89.73 116.14,85.78 115.73,81.83" id="🖍-Ink" fill="#000000"></path></g><g id="face/Smiling" transform="translate(112.18, 77.35)" fill="#000000" fill-rule="evenodd"><path d="M30.97,50.92 C29.55,50.34 28.28,49.37 27.36,48.14 C27.03,47.71 26.95,47.26 27.02,46.84 C27.09,46.37 27.37,45.95 27.74,45.67 C28.12,45.38 28.59,45.24 29.05,45.32 C29.45,45.38 29.84,45.59 30.15,46.05 L30.22,46.14 C30.77,46.88 31.49,47.49 32.31,47.89 C33.09,48.27 33.97,48.44 34.89,48.34 C36.62,48.14 37.82,47.20 39.09,45.93 C39.25,45.77 39.41,45.60 39.57,45.43 C39.67,45.28 39.81,45.18 39.96,45.13 C40.13,45.07 40.33,45.07 40.51,45.14 C40.68,45.20 40.83,45.31 40.93,45.46 C41.03,45.60 41.09,45.78 41.07,45.98 C40.95,47.31 40.26,48.49 39.28,49.41 C38.19,50.44 36.74,51.16 35.38,51.41 C33.88,51.68 32.35,51.48 30.97,50.92 L30.97,50.92 Z M36.09,30.51 C37.68,31.48 40.11,33.74 38.40,36.15 C36.38,38.27 33.47,35.84 32.04,34.74 C30.71,33.89 29.21,36.08 30.45,37.07 C40.80,44.74 45.01,30.77 36.89,29.37 C36.00,29.22 35.67,30.21 36.09,30.51 Z M17.53,21.59 C17.70,19.40 21.04,18.90 21.37,21.07 C21.66,23.01 21.31,24.79 20.44,26.54 C19.61,28.21 17.51,27.43 17.35,25.91 C17.14,23.87 17.42,22.95 17.53,21.59 Z M42.89,20.62 C43.36,20.01 44.03,19.60 44.83,19.83 C47.34,20.56 46.60,24.13 45.72,25.87 C45.24,26.81 43.69,27.05 42.99,26.22 C41.85,24.86 41.31,22.16 42.76,20.83 C42.80,20.76 42.84,20.69 42.89,20.62 Z M20.41,12.01 L20.80,11.94 C22.03,11.73 23.56,11.53 24.42,12.51 C24.88,13.04 25.04,14.01 24.42,14.51 C23.33,15.39 22.13,15.05 20.83,15.12 C19.75,15.19 18.72,15.36 17.68,15.66 C15.41,16.31 13.56,17.49 11.62,18.80 C11.37,18.97 11.11,18.64 11.23,18.40 C12.35,16.21 14.52,14.41 16.69,13.31 C17.85,12.72 19.12,12.23 20.41,12.01 Z M40.60,11.03 L40.91,11.09 C44.21,11.78 48.50,13.16 50.07,16.41 C50.13,16.87 50.06,16.96 50.01,17.03 L50.00,17.05 C49.95,17.11 49.92,17.18 49.72,17.24 C49.67,17.23 49.61,17.22 49.55,17.20 C48.84,17.01 48.27,16.75 47.72,16.49 L47.13,16.19 C46.43,15.85 45.74,15.53 45.00,15.29 C43.42,14.77 41.80,14.41 40.15,14.22 C39.80,14.17 39.45,14.05 39.18,13.85 C38.92,13.65 38.73,13.38 38.64,13.02 C38.52,12.55 38.56,12.20 38.81,11.78 C38.99,11.46 39.26,11.24 39.57,11.12 C39.89,10.99 40.25,10.96 40.60,11.03 Z" id="🖍-Ink"></path></g><g id="accessories/*-None" transform="translate(88.52, 88.98)"></g></g></g></g></g></svg>