<?xml version="1.0" encoding="UTF-8"?><svg width="240px" height="324px" viewBox="0 0 240 324" version="1.1" xmlns="http://www.w3.org/2000/svg" xmlns:xlink="http://www.w3.org/1999/xlink"><title>peep-90</title><desc>Created with Sketch.</desc><g id="Introduction" stroke="none" stroke-width="1" fill="none" fill-rule="evenodd"><g id="variations" transform="translate(-3006.00, -1730.00)"><g id="images" transform="translate(126.00, 110.00)"><g id="a-person/bust" transform="translate(2880.00, 1620.00)"><g id="body/Polka-Dot-Jacket" transform="translate(31.06, 135.05)"><path d="M96.53,-8.22 C102.68,-7.92 112.27,-5.28 112.75,-3.59 C113.49,-0.96 111.89,8.92 114.58,14.24 C115.72,16.50 120.07,16.30 121.76,17.04 C127.40,19.51 144.11,24.20 147.55,30.10 C148.93,32.46 157.41,61.79 161.92,76.76 C162.43,78.45 163.00,80.01 163.63,81.45 L163.85,80.33 C165.69,71.28 166.61,65.81 166.61,63.90 C166.61,60.92 164.24,48.36 166.61,45.16 C168.96,42.00 174.63,39.41 177.18,39.36 L177.25,39.36 C178.93,39.36 180.38,38.84 181.61,37.79 L183.42,36.88 C192.60,32.27 197.96,29.74 199.51,29.30 C201.98,28.58 206.18,30.10 204.08,32.39 C202.68,33.91 199.16,36.60 193.52,40.47 L191.39,42.16 L191.65,42.29 C194.40,43.74 196.01,44.95 196.50,45.94 C197.00,46.96 196.76,48.17 195.78,49.56 L195.93,49.70 C197.16,50.92 197.78,51.73 197.78,52.14 L197.78,54.17 C199.01,55.97 199.32,57.47 198.70,58.67 C198.09,59.87 197.11,60.91 195.78,61.79 C194.80,64.38 193.63,66.22 192.27,67.32 C190.91,68.41 188.56,69.32 185.23,70.05 L182.21,77.27 L179.76,87.41 L178.53,98.73 L178.89,98.99 C180.55,100.20 181.61,101.10 181.61,102.02 C181.61,103.47 174.92,137.38 164.51,138.90 C162.25,139.23 150.58,137.62 146.74,134.50 L146.80,134.83 C147.70,140.29 147.51,143.12 146.23,143.33 C130.45,145.92 85.63,146.72 11.79,145.73 C11.35,106.52 13.33,80.40 17.75,67.39 C29.03,34.10 41.48,22.73 45.83,21.75 C49.64,20.90 62.86,15.63 66.56,14.24 C68.97,13.32 69.49,10.59 72.24,10.59 L72.46,10.59 C75.12,10.62 77.48,11.09 78.80,9.73 C82.28,6.13 81.31,1.17 82.75,-3.59 C83.55,-6.21 88.98,-8.60 96.53,-8.22 Z" id="🎨-Background" fill="#FFFFFF"></path><path d="M79.62,1.18 C79.98,0.46 80.94,0.55 81.57,0.88 C83.47,2.27 81.49,4.96 80.96,6.65 C79.61,9.94 77.26,13.15 74.03,14.68 C74.29,17.95 74.60,21.21 74.71,24.48 C78.85,29.62 85.83,31.49 92.03,32.94 C101.76,35.63 112.74,30.11 116.02,20.49 C112.29,18.37 111.08,12.80 112.19,8.92 C112.29,8.65 112.71,8.53 112.86,8.83 C113.89,10.94 113.75,13.51 114.91,15.59 C126.08,16.66 140.50,20.87 147.81,29.91 C151.06,34.43 152.34,40.31 153.94,45.55 C157.35,56.35 160.06,67.37 163.40,78.18 L163.80,76.14 C164.88,70.50 165.86,64.79 165.13,59.06 L165.12,58.79 C164.88,54.22 163.45,45.75 166.99,42.67 C170.18,40.23 174.82,38.26 178.83,39.39 C185.97,36.21 192.14,30.86 199.74,28.77 C202.08,28.29 205.45,28.86 204.90,32.04 C203.36,37.59 196.94,39.75 192.55,42.61 C195.37,43.38 198.80,46.80 196.60,49.79 C196.58,49.84 196.56,49.88 196.54,49.91 C198.33,50.70 198.58,52.69 198.14,54.39 C198.10,54.84 197.98,54.45 198.24,54.86 C200.25,56.76 199.36,62.05 196.33,62.23 C196.53,64.74 194.92,67.17 192.88,68.54 C190.69,70.01 187.51,70.08 185.69,72.09 C181.42,79.63 179.95,88.52 179.48,97.15 C182.30,98.20 184.82,101.35 182.26,104.03 C182.21,104.04 182.16,104.04 182.11,104.05 C180.63,108.00 180.06,112.22 179.27,116.36 C178.06,123.41 174.92,129.89 170.91,135.77 C166.26,143.55 153.78,142.31 147.49,137.29 C147.51,138.61 147.73,139.92 147.31,141.19 C146.68,142.57 145.17,141.97 145.02,140.62 C141.69,142.49 140.91,136.32 144.60,137.29 C144.32,132.83 144.16,128.36 144.02,123.89 C139.84,125.24 139.66,118.30 143.94,119.69 L143.93,117.77 C143.90,103.04 144.06,88.27 146.01,73.66 C146.19,72.57 146.49,71.51 146.67,70.43 C146.69,70.32 146.86,70.35 146.86,70.46 C147.16,90.91 145.83,111.40 147.22,131.86 C148.38,132.21 148.84,133.54 149.70,134.32 C151.61,136.08 154.21,136.94 156.75,137.24 C163.86,138.24 166.93,136.06 170.10,129.88 C168.67,130.83 166.74,129.15 167.61,127.63 L167.64,127.59 C168.54,125.99 171.10,126.95 170.77,128.74 C173.96,123.64 175.63,117.88 176.86,112.05 L177.02,111.35 C177.62,108.87 178.40,106.03 179.84,103.79 C171.07,101.56 162.50,94.75 161.13,85.41 C158.90,92.40 155.89,99.24 153.02,106.04 C152.13,108.40 151.76,110.95 150.49,113.14 C150.19,113.65 149.44,113.52 149.27,112.98 C148.13,107.87 151.60,103.00 153.40,98.39 C154.86,95.79 159.08,83.91 161.70,83.88 C158.76,70.99 154.84,58.20 151.11,45.48 C147.50,28.29 140.14,24.98 124.56,19.57 C127.37,33.90 140.20,47.77 133.37,62.80 L133.21,63.19 C132.51,64.85 131.93,66.51 132.42,68.33 C132.89,70.10 133.97,71.63 134.83,73.22 C139.65,82.18 136.33,92.65 134.47,101.99 C132.11,112.94 129.79,123.90 127.36,134.83 C126.88,137.01 126.57,139.26 125.84,141.37 C125.47,142.46 123.60,142.36 123.72,141.09 C123.95,138.62 124.65,136.21 125.15,133.79 C128.18,118.09 132.28,102.58 134.89,86.82 C136.56,75.15 129.96,73.36 130.21,65.82 C131.11,61.96 133.48,58.52 133.35,54.41 C133.87,41.83 124.72,31.46 123.58,19.22 L121.59,18.51 C120.59,18.15 119.59,17.79 118.60,17.42 C123.83,54.01 122.24,91.40 119.63,128.17 C119.09,129.87 119.60,141.72 117.36,140.67 C117.25,141.33 116.90,141.98 116.13,141.98 C109.19,142.04 102.24,142.15 95.30,142.24 C91.96,141.93 87.37,143.20 84.52,141.28 C81.24,140.34 80.87,131.45 79.99,128.29 L79.65,125.98 C74.07,88.34 69.09,49.92 73.09,11.90 C67.52,12.12 66.37,18.13 65.95,22.52 C64.92,32.19 58.67,40.52 58.37,50.30 C58.35,52.67 58.80,54.97 59.74,57.15 C62.26,62.49 66.61,68.66 63.36,74.63 C59.51,79.27 59.85,80.49 61.26,86.23 C65.23,105.19 71.82,123.43 78.10,141.71 C76.73,148.82 68.54,122.43 67.76,120.44 C64.14,122.27 62.15,116.21 66.32,115.78 C63.64,106.83 61.18,97.81 59.13,88.69 L59.08,88.43 C58.17,84.22 56.39,79.28 59.40,75.54 C67.15,67.70 54.28,58.94 55.90,49.44 C54.50,50.48 52.38,49.39 52.41,47.64 C52.35,45.67 54.99,44.67 56.26,46.17 C57.56,38.46 62.11,31.73 63.48,24.05 L63.55,23.69 C64.01,20.97 64.14,18.11 65.48,15.64 C63.66,16.82 61.73,17.77 59.74,18.61 C63.30,21.58 56.41,24.29 56.98,19.71 C37.49,25.35 33.08,33.22 25.93,51.28 C27.26,49.98 29.55,51.67 28.75,53.32 C28.11,55.07 25.33,54.56 25.33,52.70 L25.00,53.48 C20.66,63.86 16.71,74.49 14.73,85.60 C18.62,85.05 17.63,91.28 14.10,89.52 C12.69,99.40 12.66,109.42 12.84,119.38 C16.12,117.66 16.22,123.51 12.87,121.85 C12.99,130.01 13.17,138.17 13.31,146.33 C13.33,148.07 10.65,148.06 10.61,146.33 C10.30,133.79 9.73,121.23 10.00,108.68 C9.75,86.91 16.00,65.92 25.33,46.41 C33.58,23.95 44.97,21.40 65.94,14.87 C67.87,12.00 72.00,9.28 75.38,11.08 C77.27,8.04 78.22,4.42 79.62,1.18 Z M43.70,79.45 C43.78,79.18 44.17,79.25 44.19,79.52 C44.36,83.04 44.21,86.59 43.97,90.13 C43.82,92.29 43.64,94.44 43.49,96.59 C43.08,102.25 42.76,107.92 42.51,113.59 C42.60,113.55 42.69,113.52 42.78,113.49 C43.21,113.38 43.63,113.38 44.06,113.49 C44.44,113.60 44.77,113.79 45.06,114.05 L45.12,114.11 C45.36,114.33 45.52,114.59 45.62,114.89 C45.76,115.15 45.83,115.43 45.83,115.74 L45.83,115.81 C45.82,116.25 45.72,116.65 45.50,117.03 C45.28,117.39 45.00,117.68 44.64,117.89 C44.26,118.11 43.86,118.22 43.42,118.22 C43.37,118.22 43.33,118.23 43.28,118.23 C42.96,118.24 42.66,118.18 42.38,118.03 L42.33,118.02 L42.33,118.02 C42.23,120.89 42.14,123.77 42.08,126.65 C42.02,129.16 41.95,131.67 41.90,134.18 L41.87,135.43 L41.87,135.43 L41.83,138.21 C41.81,139.35 41.82,140.44 41.43,141.51 L41.38,141.64 C41.10,142.36 40.89,143.36 40.14,143.76 C39.55,144.08 38.74,143.96 38.40,143.34 C38.11,142.82 38.36,142.07 38.79,141.72 C38.78,141.69 38.77,141.67 38.76,141.65 C38.69,141.46 38.59,141.28 38.53,141.09 C38.35,140.48 38.40,139.83 38.39,139.20 C38.39,138.08 38.43,136.97 38.46,135.85 C38.53,133.48 38.60,131.11 38.70,128.74 C39.01,120.79 39.60,112.85 40.28,104.92 L40.51,102.25 C40.81,98.69 41.13,95.13 41.58,91.59 C41.60,91.42 41.62,91.25 41.65,91.08 C41.40,90.96 41.18,90.79 41.00,90.61 C40.29,89.86 39.86,88.74 39.45,87.78 L39.36,87.56 C38.92,86.53 38.52,85.49 38.31,84.39 L38.29,84.29 C38.19,83.82 38.00,82.99 38.50,82.76 C38.76,82.64 38.93,82.72 39.01,82.98 C39.02,83.02 39.01,83.06 38.99,83.09 C39.20,83.40 39.52,83.69 39.72,83.99 L40.42,84.98 L40.42,84.98 L40.76,85.48 C41.20,86.12 41.66,86.73 42.14,87.34 C42.52,84.68 42.98,82.04 43.70,79.45 Z M72.17,138.61 C73.04,137.93 74.45,138.30 74.45,139.55 C74.45,140.81 73.03,141.18 72.17,140.50 L72.12,140.47 L72.12,140.47 L72.08,140.43 C71.61,140.06 71.60,139.10 72.05,138.70 L72.08,138.67 C72.11,138.65 72.14,138.63 72.17,138.61 Z M34.34,136.15 L34.42,136.16 C34.81,136.16 35.17,136.26 35.51,136.45 C35.66,136.57 35.81,136.68 35.96,136.79 C36.23,137.06 36.41,137.39 36.52,137.76 L36.59,138.33 L36.59,138.33 C36.60,138.63 36.54,138.91 36.41,139.17 C36.32,139.44 36.17,139.68 35.96,139.88 C35.76,140.09 35.53,140.24 35.26,140.33 C35.02,140.45 34.76,140.52 34.49,140.52 L34.42,140.51 C34.02,140.51 33.66,140.41 33.32,140.22 C33.17,140.10 33.02,139.99 32.87,139.88 C32.61,139.61 32.42,139.28 32.31,138.91 C32.29,138.72 32.26,138.53 32.24,138.33 C32.23,138.03 32.29,137.76 32.42,137.50 C32.51,137.23 32.66,136.99 32.87,136.79 C33.07,136.58 33.30,136.43 33.58,136.34 C33.81,136.22 34.07,136.15 34.34,136.15 L34.34,136.15 Z M133.24,132.14 L133.79,132.21 L133.79,132.21 C134.32,132.33 134.75,132.72 135.03,133.17 C135.19,133.41 135.27,133.66 135.28,133.94 C135.34,134.22 135.33,134.49 135.24,134.77 C135.18,135.04 135.06,135.28 134.87,135.48 C134.81,135.58 134.73,135.67 134.65,135.75 C134.48,136.04 134.21,136.23 133.94,136.42 C133.72,136.57 133.47,136.65 133.20,136.66 C133.03,136.71 132.85,136.71 132.67,136.66 C132.41,136.65 132.16,136.57 131.93,136.42 C131.80,136.32 131.66,136.21 131.53,136.11 C131.41,135.97 131.30,135.83 131.20,135.68 C131.13,135.52 131.06,135.36 130.99,135.20 C130.87,134.81 130.93,134.47 131.00,134.08 C131.01,134.02 131.02,133.96 131.05,133.89 L131.09,133.77 C131.22,133.45 131.28,133.34 131.50,133.06 L131.58,132.95 C131.62,132.90 131.66,132.84 131.71,132.80 C131.84,132.66 132.04,132.54 132.19,132.42 C132.51,132.23 132.86,132.14 133.24,132.14 Z M61.51,130.78 L61.58,130.78 C61.89,130.79 62.17,130.86 62.44,131.02 L62.79,131.28 L62.79,131.28 C63.00,131.50 63.14,131.75 63.23,132.04 C63.25,132.19 63.27,132.34 63.29,132.49 C63.30,132.73 63.25,132.95 63.14,133.15 C63.07,133.36 62.95,133.54 62.79,133.70 C62.63,133.86 62.45,133.98 62.24,134.05 C62.05,134.15 61.86,134.20 61.64,134.20 L61.58,134.20 C61.27,134.20 60.99,134.12 60.72,133.97 L60.37,133.70 L60.37,133.70 C60.16,133.49 60.02,133.24 59.93,132.95 C59.91,132.79 59.89,132.64 59.87,132.49 C59.86,132.26 59.91,132.04 60.02,131.83 C60.09,131.62 60.21,131.44 60.37,131.28 C60.53,131.12 60.71,131.00 60.92,130.93 C61.11,130.83 61.30,130.79 61.51,130.78 L61.51,130.78 Z M47.57,130.08 C48.01,130.08 48.46,130.20 48.82,130.46 C49.17,130.71 49.43,130.98 49.61,131.38 C49.65,131.49 49.70,131.60 49.74,131.71 C49.92,132.19 49.95,132.68 49.70,133.15 C49.46,133.61 48.94,133.81 48.47,133.95 C48.07,134.07 47.62,134.09 47.23,133.95 C47.03,133.88 46.84,133.80 46.66,133.69 C46.33,133.49 46.15,133.25 45.93,132.95 C45.75,132.65 45.67,132.33 45.67,131.99 C45.67,131.64 45.75,131.32 45.93,131.02 C46.27,130.44 46.90,130.09 47.57,130.08 Z M25.17,130.49 C25.73,130.49 26.22,130.75 26.56,131.18 C26.90,131.63 27.02,132.18 26.87,132.72 C26.71,133.30 26.23,133.81 25.64,133.96 C25.20,134.06 24.84,134.06 24.40,133.99 C24.03,133.92 23.75,133.70 23.47,133.47 C23.14,133.21 23.05,132.73 23.10,132.34 C23.15,131.95 23.33,131.70 23.60,131.47 L23.60,131.46 L23.50,131.54 C23.54,131.50 23.58,131.47 23.62,131.43 C23.63,131.41 23.64,131.39 23.65,131.36 C23.81,131.10 24.02,130.89 24.28,130.73 C24.56,130.57 24.85,130.49 25.17,130.49 Z M155.23,124.09 C155.53,124.01 155.84,124.01 156.15,124.09 C156.37,124.14 156.57,124.25 156.74,124.40 C156.91,124.51 157.05,124.65 157.15,124.83 L157.18,124.89 C157.42,125.30 157.46,125.77 157.36,126.22 C157.23,126.79 156.71,127.30 156.15,127.43 L156.13,127.44 L156.13,127.44 L156.11,127.44 C155.88,127.51 155.65,127.52 155.42,127.47 C155.19,127.46 154.98,127.39 154.78,127.27 C154.53,127.11 154.33,126.90 154.16,126.65 C154.04,126.45 153.97,126.24 153.96,126.01 C153.92,125.85 153.92,125.70 153.96,125.55 C153.97,125.32 154.04,125.11 154.16,124.91 L154.44,124.56 L154.44,124.56 L154.46,124.54 L154.46,124.54 C154.68,124.32 154.93,124.17 155.23,124.09 Z M133.96,112.91 C136.73,112.91 136.72,117.20 133.96,117.20 C131.19,117.20 131.19,112.91 133.96,112.91 Z M32.55,112.36 C32.84,112.30 33.14,112.31 33.43,112.40 C33.60,112.47 33.77,112.55 33.95,112.62 L34.39,112.96 L34.39,112.96 C34.47,113.03 34.51,113.11 34.59,113.21 L34.68,113.33 C34.82,113.52 34.83,113.55 34.98,113.95 C35.08,114.32 35.08,114.70 34.98,115.08 C34.93,115.26 34.85,115.43 34.76,115.59 C34.67,115.74 34.57,115.87 34.45,116.00 L34.39,116.06 C34.19,116.27 33.96,116.42 33.69,116.51 C33.52,116.61 33.33,116.66 33.14,116.66 C32.84,116.72 32.55,116.71 32.26,116.62 C32.09,116.54 31.91,116.47 31.74,116.40 L31.30,116.06 L30.96,115.61 L30.85,115.35 L30.85,115.35 L30.74,115.09 L30.66,114.51 C30.65,114.21 30.71,113.93 30.85,113.67 C30.90,113.48 30.99,113.32 31.13,113.18 C31.22,113.02 31.35,112.89 31.52,112.79 C31.65,112.66 31.82,112.56 32.00,112.51 C32.17,112.41 32.36,112.36 32.55,112.36 Z M169.54,109.29 C169.77,109.28 169.99,109.33 170.19,109.44 C170.26,109.46 170.32,109.49 170.39,109.52 C170.65,109.67 170.85,109.88 171.00,110.13 C171.12,110.32 171.19,110.53 171.20,110.76 C171.25,110.96 171.24,111.17 171.19,111.37 L171.17,111.43 C171.12,111.60 171.05,111.76 170.96,111.90 C170.95,111.91 170.94,111.93 170.93,111.95 C170.79,112.17 170.60,112.35 170.36,112.49 C170.11,112.64 169.83,112.71 169.53,112.72 C168.93,112.72 168.42,112.39 168.10,111.90 C168.06,111.83 168.03,111.74 168.00,111.67 C167.97,111.60 167.93,111.51 167.91,111.43 C167.83,111.13 167.83,110.83 167.91,110.53 C167.96,110.31 168.06,110.12 168.21,109.96 C168.33,109.78 168.49,109.63 168.68,109.52 C168.93,109.38 169.19,109.31 169.47,109.29 L169.54,109.29 Z M52.60,107.19 C52.89,107.11 53.19,107.10 53.48,107.17 L53.55,107.19 C53.78,107.24 53.98,107.35 54.15,107.51 C54.35,107.63 54.50,107.80 54.61,108.01 C54.77,108.28 54.85,108.58 54.86,108.90 C54.85,109.23 54.77,109.53 54.61,109.80 C54.45,110.07 54.24,110.28 53.97,110.44 L53.74,110.55 L53.74,110.55 C53.55,110.68 53.34,110.74 53.12,110.75 C52.97,110.79 52.82,110.79 52.67,110.75 C52.52,110.75 52.37,110.71 52.24,110.64 C52.10,110.60 51.98,110.53 51.87,110.42 C51.69,110.30 51.54,110.15 51.44,109.95 L51.27,109.54 L51.27,109.54 L51.21,109.10 L51.21,109.10 L51.27,108.65 L51.27,108.65 L51.36,108.43 L51.36,108.43 C51.44,108.13 51.60,107.87 51.82,107.64 C52.04,107.42 52.30,107.27 52.60,107.19 Z M157.37,103.62 C157.68,103.53 157.99,103.51 158.30,103.58 C158.50,103.58 158.70,103.63 158.88,103.74 C159.07,103.79 159.24,103.89 159.39,104.03 C159.64,104.20 159.83,104.41 159.98,104.68 L160.21,105.23 L160.21,105.23 C160.35,105.59 160.30,106.12 160.22,106.48 C160.15,106.77 160.01,107.03 159.81,107.25 C159.71,107.42 159.57,107.56 159.40,107.66 C159.21,107.84 158.98,107.96 158.72,108.04 L158.65,108.06 L158.63,108.06 C158.62,108.07 158.62,108.07 158.62,108.07 C158.61,108.07 158.61,108.07 158.61,108.07 C158.51,108.09 158.40,108.11 158.30,108.11 C157.99,108.18 157.68,108.17 157.37,108.07 C157.19,107.99 157.01,107.92 156.82,107.84 C156.67,107.72 156.51,107.60 156.36,107.48 C156.24,107.32 156.12,107.16 156.00,107.01 C155.83,106.75 155.74,106.46 155.72,106.15 C155.67,105.95 155.67,105.74 155.72,105.54 C155.72,105.33 155.78,105.14 155.88,104.96 C155.97,104.67 156.13,104.42 156.36,104.21 C156.51,104.09 156.67,103.97 156.82,103.86 C157.01,103.78 157.19,103.70 157.37,103.62 Z M22.63,96.06 C22.95,95.97 23.27,95.97 23.58,96.06 L24.01,96.24 L24.01,96.24 C24.22,96.35 24.39,96.50 24.52,96.70 C24.68,96.87 24.79,97.08 24.84,97.31 C24.97,97.64 24.95,98.14 24.85,98.47 C24.74,98.84 24.57,99.14 24.30,99.42 C23.85,99.88 23.17,100.01 22.56,99.87 C22.39,99.84 22.24,99.76 22.09,99.67 C21.63,99.39 21.33,98.89 21.33,98.35 C21.33,98.29 21.33,98.23 21.34,98.17 C21.31,98.05 21.30,97.92 21.30,97.79 L21.37,97.31 L21.37,97.31 L21.37,97.30 C21.46,97.00 21.61,96.74 21.83,96.52 C22.04,96.31 22.27,96.17 22.55,96.08 L22.62,96.06 L22.63,96.06 Z M182.05,48.60 C181.47,43.86 179.30,38.77 172.68,41.55 L172.19,41.74 C170.55,42.36 168.64,43.17 167.65,44.60 C166.96,45.59 167.19,47.50 167.10,48.65 C166.67,52.40 166.90,56.14 167.35,59.87 C167.93,68.61 166.09,77.67 162.43,85.61 C166.09,91.54 170.99,97.06 177.68,99.53 C177.96,92.80 179.28,86.18 180.68,79.61 L180.74,79.32 C181.30,76.36 181.58,73.32 183.52,70.85 C187.48,66.55 192.93,68.98 195.53,62.08 C194.99,61.80 195.29,60.85 195.95,61.04 C198.23,61.44 198.60,57.20 197.04,56.18 C195.41,55.19 197.05,53.36 196.36,52.03 C195.97,51.46 195.14,51.44 194.76,50.78 C193.75,48.37 198.77,46.81 192.87,44.09 C191.66,43.66 190.31,43.92 189.10,43.92 C187.30,44.09 185.88,45.35 184.24,45.75 C186.03,50.37 181.52,54.82 177.46,51.13 C175.25,53.22 172.77,57.98 178.15,55.76 C180.78,54.01 183.05,51.74 186.10,50.65 L186.16,50.63 C187.30,50.26 192.26,47.85 192.01,49.94 C190.16,51.73 187.09,51.71 184.94,53.17 C181.95,54.55 180.05,57.89 176.47,57.85 C175.65,62.85 181.33,59.80 183.44,58.43 L184.02,58.11 C187.00,56.50 190.03,55.00 193.50,54.98 C194.46,54.98 194.46,56.46 193.50,56.47 C188.98,56.50 185.29,59.33 181.49,61.44 C181.12,64.36 185.39,63.08 187.02,62.65 C188.72,62.41 191.45,60.57 192.94,61.54 C193.52,63.04 190.96,62.93 190.07,63.38 C194.14,65.34 190.57,66.57 189.48,63.56 L189.16,63.67 C186.43,64.59 179.82,66.47 180.61,61.85 C179.61,62.30 178.39,62.56 177.29,62.31 C174.54,66.38 170.15,64.81 176.53,62.04 C175.09,61.37 174.61,58.79 175.99,57.83 C170.97,57.52 174.70,52.25 176.78,50.50 C176.58,50.30 176.39,50.10 176.21,49.89 C175.02,50.46 173.76,50.81 172.41,50.93 C171.12,51.05 170.84,48.85 172.11,48.67 C173.47,48.48 174.73,48.12 175.93,47.43 C177.74,46.65 178.36,50.02 180.18,50.14 C181.18,50.34 181.85,49.47 182.05,48.60 Z M139.80,92.15 C140.24,92.15 140.63,92.34 140.95,92.63 C141.27,92.92 141.40,93.36 141.42,93.78 C141.43,94.00 141.39,94.21 141.28,94.41 C141.22,94.61 141.11,94.78 140.95,94.93 C140.65,95.22 140.21,95.40 139.80,95.40 C139.36,95.40 138.97,95.22 138.65,94.93 C138.33,94.63 138.19,94.20 138.17,93.78 C138.17,93.56 138.21,93.35 138.31,93.15 C138.37,92.97 138.47,92.81 138.60,92.67 L138.65,92.63 C138.95,92.33 139.38,92.15 139.80,92.15 Z M153.11,82.13 L153.18,82.13 C153.56,82.13 153.90,82.23 154.22,82.41 C154.36,82.52 154.50,82.63 154.64,82.74 C154.89,82.99 155.07,83.29 155.17,83.64 C155.27,84.01 155.27,84.37 155.17,84.74 C155.13,84.95 155.05,85.15 154.93,85.32 C154.75,85.63 154.51,85.87 154.20,86.05 C153.89,86.23 153.55,86.32 153.18,86.33 C152.82,86.32 152.48,86.23 152.16,86.05 C151.86,85.87 151.62,85.63 151.44,85.32 C151.31,85.15 151.24,84.95 151.20,84.74 C151.10,84.37 151.10,84.01 151.20,83.64 C151.29,83.32 151.45,83.04 151.68,82.79 L151.73,82.74 C151.92,82.53 152.14,82.39 152.39,82.31 C152.62,82.19 152.86,82.13 153.11,82.13 Z M51.49,82.24 C51.65,82.20 51.81,82.20 51.96,82.24 C52.19,82.26 52.41,82.32 52.61,82.45 C52.73,82.54 52.85,82.64 52.97,82.73 L53.07,82.85 C53.29,83.12 53.30,83.16 53.47,83.57 C53.54,83.80 53.55,84.03 53.50,84.26 C53.50,84.41 53.46,84.56 53.38,84.69 C53.34,84.84 53.27,84.96 53.16,85.07 C53.08,85.20 52.98,85.30 52.85,85.38 C52.69,85.53 52.49,85.63 52.27,85.68 L51.81,85.74 L51.81,85.74 C51.75,85.74 51.69,85.73 51.63,85.72 C51.56,85.72 51.49,85.71 51.43,85.70 L51.36,85.68 L51.36,85.68 L51.30,85.67 C51.21,85.64 51.13,85.61 51.05,85.57 C50.91,85.53 50.78,85.45 50.67,85.34 C50.48,85.22 50.32,85.06 50.21,84.85 L50.19,84.78 L50.19,84.78 C50.15,84.71 50.11,84.64 50.09,84.56 C50.01,84.43 49.98,84.29 49.98,84.15 C49.93,83.95 49.94,83.76 49.99,83.57 L50.01,83.51 L50.17,83.12 C50.25,82.99 50.34,82.86 50.46,82.75 C50.52,82.69 50.69,82.56 50.79,82.49 L50.84,82.45 L50.84,82.45 C51.05,82.32 51.26,82.26 51.49,82.24 Z M26.02,79.22 C26.33,78.02 27.90,77.65 28.76,78.50 C29.61,79.36 29.23,80.93 28.04,81.23 L27.90,81.27 L27.90,81.27 C26.74,81.56 25.70,80.52 25.99,79.36 L26.02,79.22 L26.02,79.22 Z M171.03,69.45 C171.02,69.33 171.18,69.29 171.25,69.36 C172.27,70.27 172.92,71.36 174.15,72.07 C175.40,72.78 176.68,72.73 177.97,73.18 C178.41,73.34 178.41,73.93 177.97,74.08 C175.52,74.94 171.22,72.04 171.03,69.45 Z M55.88,69.26 C56.15,69.18 56.43,69.16 56.70,69.23 C56.89,69.23 57.06,69.27 57.22,69.36 C57.39,69.41 57.54,69.50 57.67,69.63 C57.83,69.72 57.95,69.84 58.04,70.00 C58.22,70.20 58.35,70.43 58.41,70.70 L58.48,71.24 L58.48,71.24 L58.41,71.79 L58.41,71.79 C58.34,71.95 58.27,72.12 58.20,72.28 L58.01,72.54 C57.86,72.74 57.84,72.74 57.47,73.02 C57.23,73.17 56.97,73.25 56.70,73.26 C56.52,73.31 56.34,73.31 56.15,73.26 C55.97,73.26 55.80,73.22 55.64,73.12 C55.46,73.07 55.31,72.99 55.18,72.86 C54.96,72.71 54.78,72.52 54.65,72.28 C54.58,72.12 54.51,71.95 54.45,71.79 L54.37,71.24 L54.37,71.24 L54.45,70.70 L54.45,70.70 L54.45,70.68 L54.45,70.68 C54.55,70.34 54.72,70.04 54.97,69.79 L55.38,69.47 L55.38,69.47 C55.54,69.37 55.71,69.31 55.88,69.26 Z M154.50,69.67 C155.09,69.51 155.73,69.68 156.16,70.11 C156.59,70.54 156.76,71.18 156.60,71.76 C156.44,72.33 155.98,72.80 155.41,72.95 C155.24,73.00 155.06,73.02 154.89,73.02 C154.59,73.01 154.32,72.94 154.06,72.79 L153.73,72.54 L153.73,72.54 C153.57,72.39 153.46,72.21 153.40,72.01 C153.29,71.81 153.25,71.61 153.25,71.38 L153.25,71.34 C153.25,71.26 153.26,71.18 153.28,71.10 C153.28,71.02 153.29,70.94 153.32,70.86 C153.47,70.29 153.93,69.83 154.50,69.67 Z M28.34,63.95 C28.53,63.94 28.71,63.98 28.87,64.07 C29.04,64.12 29.19,64.21 29.31,64.35 C29.44,64.47 29.54,64.62 29.59,64.79 C29.68,64.95 29.72,65.13 29.71,65.32 C29.71,65.56 29.65,65.79 29.52,66.00 C29.45,66.10 29.38,66.19 29.31,66.28 C29.14,66.45 28.94,66.57 28.71,66.63 L28.57,66.68 L28.57,66.68 C28.37,66.75 28.18,66.76 27.97,66.73 C27.75,66.70 27.55,66.64 27.37,66.51 C27.20,66.40 27.06,66.27 26.96,66.09 L26.85,65.82 L26.85,65.82 C26.82,65.73 26.81,65.59 26.80,65.49 C26.80,65.47 26.80,65.46 26.80,65.45 C26.80,65.36 26.83,65.16 26.85,65.08 C26.89,64.91 26.99,64.74 27.10,64.60 C27.19,64.46 27.32,64.34 27.47,64.26 L27.49,64.25 L27.49,64.25 L27.50,64.24 C27.55,64.20 27.60,64.17 27.65,64.13 C27.86,64.01 28.09,63.95 28.34,63.95 Z M137.44,62.45 C137.78,62.45 138.09,62.53 138.38,62.70 C138.39,62.71 138.40,62.71 138.41,62.72 C138.69,62.88 138.91,63.10 139.08,63.38 C139.25,63.67 139.33,63.98 139.33,64.32 C139.33,64.65 139.25,64.96 139.08,65.25 C138.91,65.53 138.69,65.76 138.41,65.92 C138.40,65.93 138.39,65.93 138.38,65.93 C138.09,66.10 137.78,66.19 137.44,66.19 C137.10,66.19 136.79,66.10 136.50,65.93 C135.93,65.60 135.57,64.98 135.57,64.32 C135.57,63.66 135.93,63.03 136.50,62.70 C136.79,62.53 137.10,62.45 137.44,62.45 Z M49.70,60.00 L49.76,60.00 C49.98,59.99 50.19,60.04 50.39,60.14 C50.59,60.21 50.76,60.32 50.91,60.48 L51.22,60.74 L51.22,60.74 L51.31,60.81 C51.32,60.82 51.34,60.83 51.35,60.85 C51.56,61.06 51.70,61.30 51.78,61.59 C51.81,61.75 51.83,61.91 51.84,62.07 C51.89,62.49 51.64,62.93 51.37,63.23 C51.22,63.39 51.04,63.50 50.84,63.57 C50.65,63.67 50.43,63.71 50.21,63.70 C49.75,63.67 49.32,63.57 48.99,63.21 C48.95,63.17 48.91,63.13 48.88,63.08 L48.61,62.78 L48.61,62.78 C48.41,62.57 48.27,62.34 48.20,62.06 C48.17,61.91 48.15,61.77 48.14,61.63 C48.12,61.19 48.33,60.79 48.61,60.48 C48.87,60.19 49.32,60.02 49.70,60.00 Z M39.04,55.55 C41.24,55.55 41.23,58.96 39.04,58.96 C36.84,58.96 36.85,55.55 39.04,55.55 Z M149.51,50.77 L149.58,50.77 C149.94,50.78 150.28,50.87 150.59,51.05 L151.00,51.37 L151.00,51.37 C151.25,51.62 151.43,51.92 151.52,52.26 C151.55,52.44 151.57,52.62 151.60,52.80 C151.61,53.07 151.55,53.33 151.42,53.58 C151.34,53.82 151.20,54.04 151.00,54.23 C150.82,54.42 150.60,54.56 150.35,54.64 C150.11,54.77 149.85,54.83 149.58,54.82 C149.21,54.82 148.87,54.72 148.56,54.54 C148.42,54.44 148.28,54.33 148.15,54.23 C147.92,53.99 147.75,53.72 147.65,53.41 L147.63,53.33 L147.55,52.80 C147.54,52.52 147.60,52.26 147.73,52.02 C147.81,51.77 147.95,51.55 148.15,51.37 C148.33,51.17 148.55,51.03 148.80,50.95 C149.02,50.83 149.25,50.77 149.51,50.77 Z M139.61,44.39 C139.81,44.39 139.99,44.43 140.16,44.51 C140.34,44.57 140.49,44.67 140.62,44.81 C140.89,45.03 141.06,45.46 141.06,45.81 C141.06,46.17 140.89,46.60 140.62,46.82 C140.44,47.00 140.23,47.12 139.99,47.19 L139.61,47.24 L139.61,47.24 C139.24,47.25 138.87,47.06 138.61,46.82 C138.55,46.77 138.50,46.72 138.45,46.68 C138.21,46.46 138.11,46.13 138.09,45.81 C138.09,45.65 138.12,45.49 138.20,45.35 C138.25,45.19 138.33,45.06 138.45,44.95 C138.50,44.91 138.55,44.86 138.61,44.81 C138.89,44.54 139.23,44.41 139.61,44.39 Z M202.31,33.02 C203.70,31.33 202.89,30.13 200.80,30.55 C197.21,31.03 193.83,33.30 190.66,34.93 C187.21,36.76 183.65,38.26 180.13,39.98 C181.58,40.87 182.66,42.27 183.49,43.87 C185.14,42.61 187.24,42.01 189.30,41.94 C193.03,38.36 199.22,37.54 202.31,33.02 Z M38.30,38.64 C38.68,38.64 39.03,38.73 39.36,38.91 L39.43,38.95 L39.88,39.30 C40.10,39.50 40.26,39.74 40.35,40.02 C40.49,40.28 40.55,40.57 40.54,40.88 C40.55,41.19 40.49,41.48 40.35,41.74 C40.26,42.02 40.10,42.26 39.88,42.46 C39.76,42.63 39.60,42.75 39.40,42.85 C39.22,42.92 39.05,43.00 38.87,43.07 C38.67,43.14 38.43,43.14 38.22,43.16 C37.82,43.15 37.45,43.05 37.11,42.86 L36.67,42.51 L36.67,42.51 C36.45,42.31 36.30,42.08 36.21,41.81 C36.09,41.57 36.02,41.31 36.02,41.04 L36.03,40.96 C36.03,40.94 36.03,40.93 36.03,40.91 C36.05,40.71 36.08,40.51 36.11,40.31 C36.18,40.02 36.31,39.76 36.51,39.55 C36.56,39.45 36.63,39.36 36.71,39.30 C36.99,39.02 37.32,38.83 37.70,38.72 C37.90,38.69 38.10,38.67 38.30,38.64 Z M136.33,33.04 L136.39,33.04 C136.68,33.04 136.94,33.11 137.19,33.25 C137.29,33.34 137.40,33.42 137.50,33.50 C137.70,33.70 137.84,33.93 137.91,34.20 L137.97,34.61 L137.97,34.61 C137.97,34.83 137.93,35.03 137.83,35.22 C137.77,35.42 137.66,35.58 137.50,35.73 C137.36,35.88 137.19,35.99 137.00,36.05 C136.81,36.15 136.61,36.20 136.39,36.19 C136.11,36.19 135.84,36.12 135.60,35.97 C135.49,35.89 135.38,35.81 135.28,35.73 C135.10,35.55 134.97,35.34 134.89,35.10 L134.87,35.03 L134.82,34.61 C134.81,34.40 134.85,34.20 134.95,34.01 C135.02,33.81 135.13,33.64 135.28,33.50 C135.42,33.35 135.59,33.24 135.78,33.18 C135.95,33.09 136.13,33.04 136.33,33.04 L136.33,33.04 Z M50.65,30.75 L50.72,30.75 C51.14,30.75 51.53,30.86 51.90,31.07 C52.05,31.19 52.21,31.31 52.37,31.43 C52.65,31.72 52.85,32.07 52.97,32.46 L53.05,33.08 L53.05,33.08 C53.06,33.40 52.99,33.70 52.85,33.97 C52.75,34.26 52.59,34.51 52.37,34.72 C52.16,34.95 51.91,35.11 51.62,35.20 C51.34,35.35 51.04,35.42 50.72,35.41 C50.30,35.41 49.91,35.30 49.55,35.09 C49.39,34.97 49.23,34.85 49.08,34.72 C48.79,34.43 48.59,34.09 48.48,33.70 L48.40,33.08 L48.40,33.08 C48.38,32.76 48.45,32.46 48.60,32.18 C48.69,31.89 48.85,31.64 49.08,31.43 C49.29,31.21 49.54,31.04 49.83,30.95 C50.08,30.82 50.35,30.75 50.65,30.75 Z M128.88,24.94 C129.07,24.89 129.26,24.89 129.45,24.94 C129.74,24.95 130.01,25.04 130.26,25.20 L130.70,25.54 L130.70,25.54 C130.70,25.54 130.71,25.55 130.71,25.56 C130.98,25.82 131.16,26.14 131.26,26.50 L131.34,27.07 L131.34,27.07 C131.35,27.36 131.29,27.64 131.16,27.89 C131.08,28.13 130.95,28.35 130.76,28.53 L130.70,28.60 C130.50,28.81 130.27,28.96 130.00,29.05 C129.83,29.15 129.65,29.19 129.45,29.19 C129.17,29.26 128.88,29.25 128.59,29.16 C128.42,29.08 128.24,29.01 128.07,28.94 L128.02,28.91 C127.36,28.55 126.96,27.80 126.96,27.07 C126.96,26.33 127.36,25.58 128.02,25.23 C128.04,25.22 128.05,25.21 128.07,25.20 C128.32,25.04 128.59,24.95 128.88,24.94 Z" id="🖍-Ink" fill="#000000"></path></g><g id="head/Hijab" transform="translate(78.59, 38.04)"><path d="M54.99,22.23 C86.79,23.24 88.71,38.35 88.71,63.69 C88.71,89.02 72.21,104.99 66.14,107.78 C60.06,110.57 44.07,122.55 29.64,117.03 C15.20,111.51 19.38,88.19 19.38,78.17 C19.38,68.15 23.19,21.22 54.99,22.23 Z" id="Path-2" fill="#FFFFFF"></path><path d="M67.89,99.46 C62.05,102.72 55.36,102.85 49.08,100.79 C45.32,99.57 41.86,97.67 38.63,95.40 C35.82,93.42 33.31,91.23 30.82,88.90 C28.77,84.39 26.95,79.88 26.10,74.97 C25.33,70.55 25.23,65.97 26.12,61.57 C32.68,56.17 39.20,50.73 45.71,45.27 C49.03,42.48 52.36,39.72 55.72,37.00 C57.43,35.61 59.12,34.21 60.83,32.82 C61.11,32.59 61.39,32.37 61.67,32.14 C65.18,34.71 68.95,36.92 72.44,39.53 C74.27,40.91 76.05,42.37 77.74,43.90 C78.63,44.71 79.49,45.54 80.34,46.39 C81.11,47.17 81.86,48.28 82.95,48.58 C83.10,48.62 83.24,48.63 83.38,48.61 C84.84,61.45 85.88,75.32 79.60,86.98 C76.86,92.07 72.98,96.61 67.89,99.46 Z M29.90,104.18 C29.10,103.44 30.30,102.25 31.10,102.98 C36.13,107.59 42.70,110.03 49.34,111.16 C50.41,111.35 49.96,112.98 48.89,112.80 C41.96,111.61 35.14,108.98 29.90,104.18 Z M23.87,111.25 C22.91,110.73 23.76,109.28 24.72,109.79 C28.64,111.89 32.94,112.98 37.29,113.72 C38.37,113.90 37.91,115.53 36.85,115.35 C32.34,114.59 27.92,113.42 23.87,111.25 Z M39.81,40.02 C43.07,37.10 46.56,34.32 50.25,31.98 C53.99,29.61 58.07,28.19 62.47,28.16 C62.17,28.40 61.87,28.68 61.57,28.93 C60.74,29.65 59.91,30.36 59.08,31.08 C57.42,32.51 55.76,33.94 54.12,35.39 C50.89,38.26 47.65,41.11 44.43,43.98 C38.24,49.50 32.18,55.14 26.25,60.94 C26.28,60.80 26.31,60.66 26.35,60.52 C28.31,52.32 33.65,45.55 39.81,40.02 Z M65.30,28.51 C65.32,28.45 65.34,28.39 65.35,28.33 C73.81,29.43 80.87,35.66 83.21,43.86 C83.01,44.14 82.90,44.48 82.94,44.84 C82.96,45.02 82.98,45.20 83.00,45.38 C82.71,45.09 82.41,44.82 82.16,44.57 C81.32,43.71 80.45,42.88 79.57,42.07 C77.75,40.42 75.87,38.87 73.88,37.43 C70.43,34.92 66.69,32.61 62.57,31.40 C62.84,31.18 63.11,30.96 63.38,30.74 C64.20,30.08 64.95,29.53 65.30,28.51 Z M80.47,19.74 C75.28,14.06 68.08,9.91 60.51,8.46 C53.27,7.08 45.78,7.99 38.95,10.67 C24.65,16.30 13.36,28.66 8.08,42.98 C5.00,51.33 3.99,60.48 4.91,69.31 C5.84,78.11 8.48,87.19 13.30,94.67 C13.74,95.36 14.23,96.01 14.73,96.65 C14.51,99.23 13.64,101.76 12.29,103.97 C12.21,104.08 12.14,104.20 12.06,104.32 C10.67,105.36 9.23,106.33 7.83,107.34 C6.61,108.21 5.40,109.11 4.25,110.08 C3.17,110.99 1.92,112.01 1.18,113.24 C0.58,114.25 0.34,115.62 1.16,116.59 C2.15,117.75 3.82,117.34 5.16,117.34 C5.27,117.34 5.38,117.34 5.50,117.34 C5.90,117.59 6.31,117.82 6.71,118.03 C10.76,120.18 14.83,122.31 18.90,124.42 C27.00,128.63 35.07,133.01 43.34,136.89 C47.18,138.69 51.28,140.26 55.57,140.26 C59.60,140.25 63.24,138.65 66.38,136.22 C69.97,133.45 72.96,129.93 75.87,126.48 C77.03,125.10 78.17,123.70 79.29,122.28 C81.43,121.57 83.56,121.36 85.48,122.74 C87.01,123.85 89.04,122.34 89.07,120.68 C89.09,120.08 89.06,119.50 89.00,118.93 C88.61,115.38 86.88,112.16 84.92,109.18 C83.85,107.55 82.72,105.95 81.59,104.37 C81.33,103.99 81.06,103.62 80.81,103.24 C85.36,96.54 88.97,89.11 91.19,81.35 C93.52,73.18 94.31,64.71 93.79,56.24 C92.99,43.27 89.43,29.54 80.47,19.74 Z" id="🖍-Ink" fill="#000000"></path></g><g id="face/Calm" transform="translate(112.18, 77.35)" fill="#000000"><path d="M36.14,50.76 C34.58,51.21 32.91,51.25 31.32,50.78 C29.88,50.36 28.41,49.43 27.35,48.20 C26.41,47.11 25.80,45.78 25.82,44.36 C25.82,44.20 25.88,44.07 25.97,43.96 C26.07,43.85 26.20,43.77 26.34,43.74 C26.49,43.70 26.65,43.71 26.78,43.77 C26.90,43.83 27.00,43.92 27.07,44.06 C27.23,44.27 27.39,44.48 27.55,44.69 C28.86,46.30 30.13,47.51 32.10,47.94 C33.17,48.18 34.23,48.08 35.21,47.72 C36.26,47.33 37.20,46.66 37.95,45.79 C38.28,45.40 38.68,45.24 39.06,45.24 C39.50,45.24 39.94,45.44 40.26,45.77 C40.58,46.09 40.80,46.52 40.82,46.98 C40.84,47.38 40.71,47.80 40.36,48.17 C39.22,49.39 37.74,50.29 36.14,50.76 Z M36.09,30.51 C37.68,31.48 40.11,33.74 38.40,36.15 C36.38,38.27 33.47,35.84 32.04,34.74 C30.71,33.89 29.21,36.08 30.45,37.07 C40.80,44.74 45.01,30.77 36.89,29.37 C36.00,29.22 35.67,30.21 36.09,30.51 Z M21.16,26.24 C20.65,25.92 20.05,25.80 19.38,26.11 C18.86,26.34 17.94,27.14 17.30,28.18 C16.87,28.89 16.56,29.73 16.62,30.60 C16.64,30.80 16.56,30.95 16.44,31.06 C16.35,31.15 16.22,31.21 16.06,31.23 C15.93,31.25 15.78,31.23 15.65,31.19 C15.42,31.12 15.30,30.97 15.25,30.85 C14.81,29.66 15.00,28.34 15.50,27.14 C16.17,25.53 17.40,24.18 18.20,23.75 C19.58,23.00 21.20,22.97 22.58,23.73 C23.75,24.37 24.48,25.42 25.21,26.48 C25.37,26.70 25.52,26.93 25.68,27.15 C26.00,27.59 26.03,28.03 25.91,28.40 C25.77,28.82 25.42,29.17 24.98,29.36 C24.58,29.53 24.11,29.55 23.70,29.37 C23.35,29.23 23.03,28.94 22.83,28.45 C22.49,27.63 21.92,26.73 21.16,26.24 L21.16,26.24 Z M47.21,28.07 C46.85,28.25 46.58,28.31 46.19,28.19 C45.97,28.13 45.76,28.00 45.60,27.84 C45.43,27.67 45.31,27.47 45.26,27.24 C45.15,26.67 44.84,26.15 44.40,25.80 C44.03,25.51 43.56,25.36 43.03,25.44 C42.47,25.54 41.93,25.90 41.55,26.33 C41.43,26.47 41.33,26.64 41.23,26.80 C41.05,27.10 40.87,27.38 40.62,27.60 C40.53,27.69 40.38,27.75 40.24,27.75 C40.18,27.75 40.13,27.74 40.07,27.72 C39.51,27.15 39.40,26.72 39.42,26.30 C39.44,25.85 39.61,25.40 39.90,24.98 C40.56,23.99 41.83,23.18 42.69,22.99 C43.86,22.74 45.02,23.04 45.95,23.70 C46.91,24.37 47.62,25.42 47.84,26.59 C47.90,26.88 47.87,27.18 47.77,27.45 C47.66,27.71 47.48,27.93 47.21,28.07 Z M23.75,15.69 C23.04,16.38 22.21,16.48 21.37,16.58 C20.90,16.63 20.53,16.67 20.16,16.76 C19.15,16.98 18.16,17.33 17.25,17.82 C16.29,18.34 15.26,18.96 14.51,19.76 C14.34,19.95 14.17,20.15 14.00,20.35 C13.85,20.53 13.70,20.71 13.55,20.88 C13.37,21.07 13.20,21.27 13.03,21.48 C12.93,21.65 12.91,21.69 12.89,21.73 C12.85,21.80 12.82,21.87 12.78,21.95 C12.72,22.06 12.65,22.18 12.58,22.29 C12.46,22.48 12.40,22.54 12.35,22.56 C12.26,22.60 12.17,22.62 12.09,22.61 C12.01,22.60 11.94,22.56 11.87,22.50 C11.50,22.20 11.40,21.70 11.41,21.17 C11.43,20.36 11.72,19.47 12.00,18.92 C12.63,17.65 13.52,16.32 14.58,15.37 C15.79,14.28 17.12,13.46 18.64,12.90 C19.59,12.54 20.68,12.22 21.71,12.26 C22.45,12.29 23.16,12.51 23.75,13.06 C24.11,13.40 24.28,13.88 24.28,14.36 C24.28,14.85 24.10,15.35 23.75,15.69 Z M48.63,21.96 C48.59,22.04 48.53,22.09 48.46,22.12 C48.39,22.15 48.31,22.16 48.23,22.14 C48.15,22.13 48.08,22.10 48.02,22.04 C47.97,21.99 47.92,21.92 47.90,21.84 C47.44,19.79 46.53,18.27 44.60,17.28 C43.65,16.80 42.56,16.49 41.52,16.25 C41.22,16.18 40.90,16.13 40.58,16.08 C39.58,15.94 38.57,15.77 37.91,14.96 C37.52,14.47 37.36,13.85 37.45,13.27 C37.54,12.74 37.85,12.24 38.42,11.95 C39.84,11.21 41.61,11.93 43.05,12.55 C43.15,12.59 43.26,12.64 43.36,12.68 C44.77,13.28 46.05,14.06 47.10,15.18 C47.94,16.07 48.71,17.38 49.02,18.73 C49.28,19.85 49.22,21.00 48.63,21.96 Z" id="🖍-Ink"></path></g><g id="accessories/Glasses-5" transform="translate(88.52, 88.98)" fill="#000000"><path d="M74.57,22.49 C71.40,24.01 66.98,21.76 64.85,19.40 C64.07,18.54 63.47,16.08 63.77,14.52 C64.58,10.30 67.62,7.77 70.83,6.90 C75.27,5.70 79.75,8.74 79.22,12.33 C78.73,15.73 77.98,20.66 74.57,22.49 M52.99,14.37 C52.74,18.98 49.04,23.00 44.63,24.20 C37.51,26.18 34.00,21.18 32.41,15.79 C32.25,15.26 31.88,13.62 32.87,12.22 C36.80,6.70 46.35,7.64 51.12,9.16 C52.52,10.49 53.09,12.42 52.99,14.37 M78.02,6.44 C78.02,6.44 78.01,6.44 78.01,6.44 C78.00,6.43 77.98,6.42 77.96,6.41 C77.98,6.42 78.00,6.43 78.02,6.44 M83.97,6.97 C83.56,2.28 68.86,4.08 67.14,4.46 C62.45,5.84 58.40,9.59 53.16,7.94 C47.73,1.89 29.44,3.62 25.60,6.71 C24.87,6.43 23.99,6.58 23.06,6.85 C18.25,6.67 -3.67,8.33 0.81,14.46 C1.49,14.93 2.17,14.45 2.19,13.48 C25.57,5.04 23.31,12.95 26.08,12.02 C26.50,12.14 26.94,12.22 27.33,12.30 C29.48,12.99 30.20,12.78 30.49,15.19 C32.43,33.80 57.20,27.38 55.17,12.11 C57.18,12.00 58.94,11.13 61.07,11.98 C62.55,26.36 74.11,26.94 77.59,21.96 C80.22,18.50 79.18,13.27 82.79,10.55 C84.21,11.75 84.30,7.72 83.97,6.97" id="🖍-Ink"></path></g></g></g></g></g></svg>