<?xml version="1.0" encoding="UTF-8"?><svg width="240px" height="324px" viewBox="0 0 240 324" version="1.1" xmlns="http://www.w3.org/2000/svg" xmlns:xlink="http://www.w3.org/1999/xlink"><title>peep-98</title><desc>Created with Sketch.</desc><g id="Introduction" stroke="none" stroke-width="1" fill="none" fill-rule="evenodd"><g id="variations" transform="translate(-3246.00, -2054.00)"><g id="images" transform="translate(126.00, 110.00)"><g id="a-person/bust" transform="translate(3120.00, 1944.00)"><g id="body/Gym-Shirt" transform="translate(31.06, 135.05)" fill-rule="evenodd"><path d="M11.95,138.19 C11.66,138.20 11.76,138.12 11.86,138.10 C11.89,138.13 11.92,138.16 11.95,138.19 Z M20.44,144.51 C28.48,145.46 36.52,144.59 44.51,143.71 C60.71,142.51 76.79,146.01 93.02,144.95 C113.30,144.09 133.63,142.48 153.85,145.19 C159.44,145.32 168.35,146.83 166.33,138.17 C163.66,115.91 160.10,93.76 156.29,71.68 C153.06,59.29 152.82,37.88 143.97,29.26 C142.68,28.08 138.04,24.26 136.81,23.75 C130.71,21.47 119.71,19.70 115.17,14.88 C111.49,8.66 113.20,0.17 107.49,-4.84 C102.48,-8.93 91.55,-8.07 86.19,-4.99 C81.97,-2.25 81.30,3.07 78.67,7.01 C78.02,7.95 76.48,10.23 75.61,10.96 C73.49,13.00 66.04,15.15 63.89,15.54 C51.75,18.03 45.70,19.57 36.16,27.63 C11.21,53.11 14.75,98.16 7.85,131.47 C7.57,135.13 5.34,140.10 9.31,142.46 C12.73,144.10 16.75,143.92 20.44,144.51 Z" id="🎨-Background" fill="#FFFFFF"></path><path d="M112.39,6.41 C112.42,6.33 112.56,6.31 112.58,6.41 C112.92,7.97 113.56,9.68 114.20,11.14 C114.86,12.62 115.76,13.98 116.89,15.13 C119.27,17.55 122.33,18.65 125.68,18.66 L125.76,18.66 C125.77,18.54 125.79,18.43 125.81,18.32 L125.83,18.15 C126.14,15.83 128.89,15.90 129.42,17.65 C129.69,17.74 129.97,17.82 130.24,17.91 L130.29,17.93 C130.75,18.11 132.29,18.87 132.57,18.67 C133.20,18.22 133.91,18.74 134.14,19.31 C134.53,20.25 134.60,21.41 134.72,22.42 L134.74,22.55 L134.76,22.71 C143.58,25.01 148.53,33.83 151.05,41.97 C152.42,46.38 153.32,50.92 154.22,55.45 C155.18,60.29 156.07,65.14 157.01,69.98 C158.86,79.51 160.62,89.07 162.14,98.67 L162.58,101.45 C163.98,110.28 165.34,119.10 166.48,127.96 C167.10,132.74 167.67,137.52 168.23,142.31 C168.33,143.16 168.43,144.02 168.53,144.87 L168.68,146.15 C168.81,147.30 169.03,148.44 168.46,149.52 C167.23,151.85 163.50,151.83 163.29,148.84 C163.24,148.25 163.44,147.79 163.78,147.48 L163.77,147.43 C163.77,147.40 163.77,147.38 163.76,147.37 C163.65,146.77 163.62,146.14 163.56,145.54 C163.41,144.26 163.27,142.98 163.12,141.70 C162.84,139.26 162.56,136.81 162.26,134.37 C161.67,129.42 161.04,124.47 160.38,119.53 L159.72,114.65 C157.51,98.36 155.21,82.08 152.19,65.92 C151.36,61.52 150.52,57.13 149.65,52.74 C148.82,48.58 147.90,44.45 146.52,40.43 C144.26,33.88 140.32,27.74 134.84,23.43 C134.92,24.26 134.98,25.08 135.06,25.90 C135.26,28.02 135.48,30.13 135.69,32.23 C136.48,39.88 137.54,47.51 139.35,54.98 C140.25,58.68 141.34,62.34 142.68,65.91 C143.33,67.67 144.05,69.40 144.84,71.10 C145.61,72.79 146.98,74.59 147.06,76.47 C147.10,77.33 146.19,78.11 145.35,78.01 C145.74,81.47 145.96,84.96 146.20,88.41 C146.54,93.41 146.81,98.41 147.21,103.41 C147.92,112.35 148.82,121.28 149.76,130.20 C149.94,131.97 150.15,133.74 150.35,135.50 L150.51,136.99 C150.63,137.95 150.80,139.10 150.29,139.95 C150.74,141.05 151.06,142.19 151.24,143.36 C151.47,144.83 150.63,146.48 148.92,146.41 C148.72,146.41 148.53,146.39 148.33,146.37 C146.75,146.74 145.17,147.06 143.52,147.07 C141.41,147.08 139.31,147.04 137.20,147.03 C133.13,147.00 129.06,146.97 124.99,146.94 C110.25,146.82 95.51,146.83 80.77,146.59 L74.87,146.50 C69.47,146.41 64.06,146.31 58.66,146.11 C54.94,145.98 51.22,145.84 47.50,145.69 L46.74,145.66 C43.46,145.54 40.18,145.48 36.93,144.98 C36.85,144.96 36.82,144.88 36.83,144.81 L36.83,144.79 L36.69,144.75 C36.61,145.11 34.90,143.62 34.91,142.63 C34.20,141.70 34.53,140.23 34.61,139.16 C34.68,138.11 34.78,137.07 34.86,136.03 C35.03,133.80 35.18,131.58 35.36,129.35 C36.09,120.38 36.71,111.38 37.12,102.39 C37.32,97.85 37.49,93.32 37.66,88.78 C37.74,86.72 37.85,84.65 38.05,82.60 L38.10,82.09 C38.33,80.00 38.30,77.76 39.07,75.80 C39.08,75.77 39.12,75.77 39.13,75.80 C39.90,77.71 39.98,79.93 40.13,82.03 C40.16,82.02 40.19,82.01 40.22,82.01 C41.29,81.50 42.37,81.04 43.39,80.41 C43.52,80.33 43.66,80.24 43.79,80.15 C45.39,75.27 47.23,70.47 48.94,65.62 C54.43,49.93 57.46,33.23 58.14,16.62 C53.94,19.32 49.38,21.43 44.94,23.68 L44.53,23.90 C40.16,26.13 35.97,28.67 32.86,32.55 C30.15,35.93 28.37,40.04 26.71,44.01 C24.93,48.27 23.33,52.61 21.86,56.99 C18.88,65.88 16.57,74.98 14.77,84.17 C13.00,93.25 11.73,102.39 10.88,111.60 C10.44,116.30 10.05,121.00 9.72,125.70 C9.55,128.08 9.40,130.47 9.26,132.85 C9.19,134.01 9.14,135.17 9.07,136.33 C9.02,137.00 9.01,137.69 8.79,138.32 C8.61,138.85 8.28,139.29 7.98,139.76 C7.42,140.61 6.02,140.77 5.50,139.76 L5.27,139.32 C4.97,138.74 4.70,138.16 4.66,137.49 C4.62,136.86 4.70,136.19 4.73,135.56 C4.80,134.27 4.88,132.98 4.96,131.69 C5.13,128.99 5.32,126.28 5.53,123.57 C5.95,118.15 6.49,112.75 7.17,107.36 C9.57,88.41 13.02,69.57 19.62,51.59 C21.25,47.15 23.07,42.74 25.12,38.47 C27.11,34.35 29.62,30.45 33.27,27.61 C36.62,25.00 40.53,23.24 44.40,21.55 L44.89,21.33 C49.23,19.43 53.57,17.39 58.11,15.98 C58.01,15.99 57.91,16.00 57.82,16.03 C57.72,16.06 57.66,15.93 57.72,15.86 C57.98,15.58 58.09,15.28 58.39,15.00 C58.59,14.81 58.80,14.63 59.02,14.45 L59.34,14.20 C59.91,13.74 60.52,13.27 61.24,13.11 C62.27,12.89 62.77,13.82 62.48,14.55 C62.63,14.36 63.03,14.42 63.13,14.68 C66.50,23.38 68.72,32.59 73.25,40.81 C76.61,46.88 81.10,52.49 87.07,56.15 C90.27,58.12 93.94,59.64 97.73,59.88 C101.13,60.09 104.40,59.22 107.29,57.44 C112.90,53.98 116.56,47.90 119.17,42.02 C122.04,35.54 124.09,28.63 125.30,21.63 C121.48,21.69 117.46,19.94 114.92,17.11 C113.58,15.61 112.59,13.79 112.08,11.85 C111.57,9.89 111.74,8.29 112.39,6.41 Z M80.38,1.33 C80.84,0.50 81.87,0.23 82.72,0.56 C83.65,0.94 83.93,1.85 83.80,2.77 C83.65,3.85 82.95,5.02 82.41,5.97 C81.84,6.96 81.12,7.87 80.36,8.72 C78.94,10.33 77.42,11.77 75.62,12.96 C73.83,14.13 71.80,15.02 69.71,15.51 L69.22,15.62 C67.60,16.00 65.29,16.42 63.94,15.54 C63.87,15.50 63.87,15.41 63.94,15.37 C64.67,14.86 65.65,14.77 66.49,14.53 C67.40,14.26 68.32,13.96 69.20,13.59 C70.93,12.84 72.59,11.86 74.06,10.69 C75.54,9.51 76.97,8.11 77.97,6.50 C78.46,5.69 78.89,4.83 79.30,3.98 C79.71,3.11 79.92,2.16 80.38,1.33 Z" id="🖍-Ink" fill="#000000"></path></g><g id="head/Long-Afro" transform="translate(78.59, 38.04)" fill-rule="evenodd"><path d="M86.31,58.11 C84.86,40.42 80.44,24.76 59.69,24.09 C50.33,24.18 40.77,26.17 32.16,29.85 C11.23,40.35 4.59,78.70 23.03,94.14 C22.92,94.20 22.90,94.38 23.03,94.47 C26.83,97.04 31.07,99.14 35.31,100.92 C46.61,105.69 59.90,107.77 71.42,102.59 C89.00,95.10 89.27,74.28 86.31,58.11 L86.31,58.11 Z" id="🎨-Background" fill="#FFFFFF"></path><path d="M120.91,49.87 C121.63,49.22 122.17,48.36 122.44,47.40 C122.69,46.53 122.71,45.58 122.45,44.71 C122.16,43.77 121.55,43.03 121.69,42.06 C121.70,41.96 121.72,41.86 121.75,41.76 C122.28,39.93 123.58,38.61 123.12,36.58 C122.98,36.01 122.74,35.49 122.39,35.09 C122.43,34.65 122.46,34.21 122.49,33.76 C123.25,31.98 123.23,29.85 122.41,28.10 C122.31,27.20 122.16,26.30 121.95,25.43 C122.05,24.65 121.92,23.80 121.67,23.12 C121.23,21.92 120.69,20.75 120.10,19.59 C120.17,19.27 120.14,18.94 119.96,18.64 C119.65,18.10 119.23,17.63 118.80,17.16 C118.49,16.62 118.19,16.08 117.89,15.55 C117.75,15.31 117.59,15.04 117.42,14.75 C117.89,13.89 118.13,13.05 117.64,12.03 C117.46,11.65 116.95,11.37 116.53,11.40 C116.07,11.42 115.61,11.44 115.15,11.46 C114.28,10.41 113.30,9.47 112.24,8.93 C111.18,8.03 110.09,7.14 109.04,6.23 C108.74,5.97 108.44,5.72 108.15,5.46 C108.14,5.45 108.14,5.44 108.14,5.44 C107.92,4.64 107.67,3.85 107.43,3.05 C107.27,2.56 107.23,2.04 106.75,1.77 C105.74,1.21 104.20,1.13 103.06,1.03 C102.94,0.93 102.83,0.83 102.71,0.73 C103.24,-0.66 103.14,-2.14 102.49,-3.53 C102.26,-4.01 101.48,-4.22 101.06,-3.91 C100.07,-3.18 98.90,-2.93 97.75,-3.03 C96.05,-4.34 89.20,-10.25 88.14,-10.87 C88.13,-10.89 88.12,-10.92 88.10,-10.94 C87.51,-11.89 86.78,-12.65 85.97,-13.26 C85.86,-13.38 85.74,-13.51 85.62,-13.63 C85.73,-14.35 85.99,-15.05 86.43,-15.64 C86.47,-15.70 86.53,-15.77 86.58,-15.83 C87.34,-16.73 86.41,-17.89 85.36,-17.42 C85.28,-17.39 85.20,-17.35 85.13,-17.32 C84.32,-16.96 83.42,-16.56 82.48,-16.23 C82.14,-16.36 81.79,-16.47 81.47,-16.60 L78.06,-17.97 C77.50,-18.20 76.91,-18.39 76.36,-18.65 C76.18,-19.91 74.91,-20.74 73.60,-20.70 C73.68,-20.94 73.79,-21.17 73.95,-21.40 C74.00,-21.46 74.05,-21.53 74.10,-21.59 C74.78,-22.37 73.88,-23.82 72.91,-23.13 C72.84,-23.08 72.77,-23.03 72.71,-22.98 C72.44,-22.79 72.17,-22.62 71.89,-22.45 C71.44,-22.64 70.95,-22.68 70.42,-22.48 C69.27,-22.03 68.20,-21.57 67.18,-20.85 C67.14,-20.83 67.10,-20.80 67.05,-20.77 C66.55,-21.39 65.74,-21.79 65.02,-21.79 C65.01,-21.79 65.00,-21.79 64.98,-21.79 C64.44,-22.61 63.45,-23.09 62.49,-22.98 C62.56,-24.16 61.37,-25.21 60.30,-25.34 C59.04,-25.49 57.90,-24.76 57.53,-23.53 C57.42,-23.19 57.32,-22.85 57.21,-22.51 C56.23,-23.00 55.20,-23.38 54.12,-23.57 C51.67,-24.00 49.27,-23.54 46.91,-22.86 C46.67,-22.79 46.44,-22.72 46.20,-22.65 C45.86,-23.04 45.55,-23.44 45.24,-23.81 C44.72,-24.46 43.47,-23.94 43.55,-23.11 C43.61,-22.54 43.38,-22.13 43.01,-21.84 C42.60,-21.78 42.20,-21.76 41.60,-21.77 C40.81,-21.79 40.45,-21.81 39.62,-22.14 C39.24,-22.29 38.76,-22.68 38.53,-23.04 C37.67,-24.39 35.49,-24.76 34.44,-23.46 C33.35,-23.94 31.96,-23.28 31.36,-22.35 C31.04,-21.86 30.37,-21.59 29.54,-21.35 C28.91,-21.18 28.27,-21.04 27.62,-20.93 C27.34,-21.32 26.73,-21.58 26.29,-21.25 C25.99,-21.03 25.69,-20.80 25.41,-20.57 C23.19,-20.26 20.98,-20.25 18.86,-21.12 C17.07,-21.85 15.42,-19.85 15.72,-18.17 C15.20,-17.90 14.64,-17.72 14.12,-17.43 C13.00,-16.81 12.09,-15.84 11.53,-14.69 C11.43,-14.48 11.33,-14.27 11.25,-14.06 C10.83,-13.72 10.42,-13.37 10.01,-13.01 C9.34,-13.35 8.67,-13.69 8.00,-14.04 C7.50,-14.30 6.65,-14.12 6.55,-13.45 C6.39,-12.35 5.99,-11.44 5.43,-10.68 C3.59,-9.71 1.83,-8.63 0.14,-7.43 C-1.80,-6.82 -3.86,-6.46 -5.56,-6.07 C-6.14,-5.93 -6.46,-5.17 -6.13,-4.66 C-5.78,-4.13 -5.44,-3.59 -5.09,-3.06 C-6.06,-2.12 -6.96,-1.13 -7.82,-0.11 C-10.20,2.72 -12.19,5.82 -13.98,9.11 C-14.68,9.40 -15.39,9.68 -16.09,9.97 C-16.77,10.24 -17.08,11.03 -16.53,11.61 C-16.27,11.89 -16.03,12.18 -15.83,12.49 C-16.83,14.14 -18.01,15.65 -19.65,16.64 C-20.15,16.94 -20.53,17.41 -20.73,17.95 C-20.90,18.06 -21.07,18.18 -21.24,18.31 C-21.70,18.66 -21.98,19.42 -21.44,19.88 C-21.06,20.20 -20.70,20.58 -20.39,21.00 C-20.33,21.24 -20.26,21.48 -20.19,21.72 C-21.72,23.13 -22.99,24.76 -23.95,26.60 C-24.17,26.56 -24.41,26.58 -24.59,26.72 C-26.30,27.99 -26.35,30.00 -25.67,31.79 C-26.08,34.50 -25.81,37.27 -25.01,39.90 C-26.06,40.95 -26.70,42.46 -26.95,43.92 C-27.41,46.48 -27.44,50.42 -27.56,53.03 C-28.70,54.14 -29.52,55.57 -29.97,57.11 C-30.36,57.30 -30.74,57.49 -31.12,57.68 C-31.46,57.85 -31.71,58.29 -31.69,58.67 C-31.59,60.49 -30.84,61.93 -29.85,63.23 C-29.49,64.23 -28.97,65.16 -28.29,66.05 C-27.81,66.65 -27.35,67.24 -26.94,67.89 C-26.90,67.96 -26.88,68.02 -26.86,68.06 C-27.02,68.24 -27.15,68.52 -27.27,68.73 C-28.24,70.45 -28.26,72.47 -26.87,73.96 C-27.39,74.39 -27.41,75.25 -26.95,75.78 C-23.95,79.21 -21.45,83.37 -17.29,85.19 C-17.27,85.23 -17.26,85.26 -17.24,85.29 C-18.09,87.32 -18.20,88.37 -17.51,90.47 C-17.51,90.49 -17.50,90.51 -17.49,90.52 C-17.13,91.62 -16.45,93.38 -15.23,93.73 C-14.85,93.83 -14.47,93.88 -14.09,93.88 C-13.13,94.81 -12.16,95.75 -11.20,96.68 C-11.11,97.14 -11.06,97.61 -11.04,98.08 C-11.01,98.87 -10.27,99.51 -9.47,99.28 C-9.19,99.19 -7.64,97.68 -7.35,97.69 C-7.21,97.83 -7.07,97.98 -6.93,98.12 C-6.42,98.66 -5.71,99.51 -5.65,100.08 C-5.53,101.14 -4.83,102.36 -3.71,102.57 C-3.29,103.00 -2.61,103.13 -2.09,102.57 C-2.06,102.54 -2.02,102.50 -1.99,102.47 C-1.93,102.46 -1.88,102.45 -1.83,102.45 C-1.58,103.19 -1.33,103.94 -1.08,104.68 C-0.58,106.14 1.30,107.08 2.63,106.23 C2.85,106.36 3.06,106.49 3.27,106.63 C3.59,106.84 3.92,107.05 4.25,107.24 C4.27,107.30 4.29,107.35 4.30,107.40 C4.52,108.06 5.42,108.41 5.97,108.04 C6.14,108.09 6.31,108.14 6.49,108.17 C7.42,108.36 8.36,108.31 9.26,107.99 C9.91,107.77 10.52,107.35 11.21,107.30 C11.26,107.29 11.30,107.30 11.35,107.30 C11.91,108.45 13.20,109.45 14.22,109.79 C15.55,110.24 16.92,110.08 18.13,109.53 C18.46,110.19 18.87,110.81 19.36,111.38 C19.64,111.70 20.13,111.63 20.41,111.38 C20.94,110.91 21.47,110.43 22.00,109.96 C22.39,109.81 22.77,109.63 23.18,109.47 C24.44,108.95 25.82,108.74 26.99,107.99 C27.54,107.64 28.06,107.19 28.49,106.66 C29.30,106.20 30.05,105.62 30.72,104.95 C31.05,104.95 31.40,104.87 31.74,104.70 C33.15,103.98 33.89,102.52 33.96,101.02 C35.10,98.33 35.78,95.45 35.97,92.51 C36.02,91.55 36.04,90.57 35.96,89.61 C35.91,88.93 35.74,88.47 35.48,87.86 C35.39,87.66 35.32,87.47 35.26,87.27 C35.27,86.62 35.28,85.97 35.29,85.32 C35.46,84.77 35.78,84.26 36.21,83.83 C36.88,83.17 37.19,81.79 36.58,80.97 C36.18,80.44 35.78,79.91 35.38,79.38 C35.50,77.10 36.04,73.48 34.83,73.10 C34.88,72.76 34.99,72.43 35.04,72.09 C35.33,70.48 35.16,69.03 34.30,67.62 C34.12,67.33 33.97,67.07 33.84,66.81 C33.77,66.35 33.69,65.88 33.61,65.42 C33.49,64.70 33.37,63.98 33.27,63.25 C33.22,62.33 33.17,61.40 33.12,60.47 C33.07,59.62 33.01,58.77 32.95,57.91 C32.98,57.53 33.01,57.15 33.06,56.76 C33.35,54.48 34.28,53.64 35.90,52.05 C36.15,52.01 36.40,51.97 36.65,51.92 C37.80,51.68 39.00,51.31 40.19,51.44 C41.48,51.59 42.63,52.14 43.88,51.43 C44.24,51.22 45.05,50.64 45.12,50.18 C45.13,50.15 45.13,50.12 45.14,50.10 C45.23,50.09 45.34,50.08 45.41,50.08 C46.40,50.04 47.35,50.43 48.35,50.33 C49.54,50.20 50.60,49.67 51.30,48.89 C52.19,49.11 53.10,49.21 54.03,49.09 C54.81,48.99 55.51,48.73 56.19,48.36 C56.69,48.09 56.54,48.01 57.08,48.23 C58.32,48.73 59.44,49.40 60.84,49.05 C61.56,48.87 62.19,48.48 62.72,47.96 C62.84,47.83 63.05,47.65 63.19,47.48 C63.86,47.81 65.53,48.57 65.80,48.64 C66.58,48.83 67.40,48.80 68.16,48.55 C68.71,48.36 69.39,47.85 69.88,47.75 C70.51,47.61 71.92,48.49 72.67,48.80 C73.99,49.33 75.39,49.46 76.73,48.91 C77.19,48.72 78.09,47.97 78.43,47.98 C78.99,48.67 80.56,52.45 81.03,53.83 C82.93,59.41 83.42,76.83 82.54,81.28 C82.51,81.41 82.47,81.54 82.44,81.67 C81.36,85.53 80.24,89.46 78.43,93.06 C76.73,96.46 74.38,99.52 71.01,101.37 C67.51,103.29 63.40,103.80 59.47,103.54 C56.94,103.37 54.44,102.86 51.99,102.22 C50.71,101.89 49.44,101.52 48.18,101.14 C47.63,100.97 47.07,100.81 46.53,100.62 C45.57,100.28 45.07,100.25 44.16,100.69 C43.33,101.09 43.11,102.28 43.55,103.02 C44.25,104.24 45.54,104.33 46.79,104.68 C48.06,105.04 49.34,105.39 50.63,105.70 C53.09,106.29 55.59,106.75 58.11,106.95 C62.63,107.33 67.28,106.75 71.39,104.78 C71.86,104.55 72.31,104.31 72.74,104.06 C72.58,104.28 72.42,104.51 72.25,104.73 C71.79,105.34 72.13,106.39 72.77,106.72 C72.98,106.83 73.18,106.93 73.38,107.03 C73.41,107.10 73.44,107.16 73.47,107.23 C74.06,108.40 75.28,109.10 76.53,109.40 C78.02,109.75 79.68,109.50 81.19,109.45 C82.58,109.41 83.98,109.37 85.38,109.33 C85.71,109.32 86.04,109.31 86.37,109.30 C88.03,109.25 89.69,109.20 91.34,109.15 C92.82,109.10 92.75,109.22 94.14,108.63 C94.76,108.36 95.27,107.98 95.69,107.48 C95.96,107.36 96.22,107.23 96.47,107.08 C97.26,106.58 97.97,105.92 98.62,105.19 C99.72,105.53 101.27,105.21 101.49,103.82 C101.83,101.60 104.72,100.65 106.07,99.05 C107.15,97.75 107.93,96.05 107.89,94.42 C110.63,93.10 112.13,89.60 112.47,86.63 C112.64,85.26 112.61,83.78 112.85,82.38 C112.95,82.27 113.04,82.15 113.12,82.03 C113.81,80.91 114.41,79.76 114.94,78.59 C115.66,78.07 116.52,77.75 117.42,77.70 C119.65,77.57 120.06,74.57 117.95,73.85 C117.94,73.84 117.93,73.84 117.92,73.84 C118.49,72.40 118.44,70.70 117.74,69.34 C117.77,69.19 117.80,69.04 117.83,68.90 C119.02,67.62 119.70,65.84 119.63,64.11 C120.17,63.73 120.78,63.43 121.44,63.25 C122.47,62.96 122.48,61.71 121.72,61.15 C121.41,60.92 121.16,60.66 120.95,60.36 C121.47,58.78 121.26,56.96 120.19,55.66 C120.87,54.78 121.55,53.91 122.24,53.03 C122.69,52.45 122.93,51.47 122.24,50.92 C121.79,50.57 121.35,50.22 120.91,49.87 Z" id="🖍-Ink" fill="#000000"></path></g><g id="face/Eyes-Closed" transform="translate(112.18, 77.35)" fill="#000000" fill-rule="evenodd"><path d="M38.50,47.76 L38.65,47.72 C39.82,47.45 40.94,47.07 42.03,47.80 C43.06,48.49 43.21,49.76 42.40,50.69 C41.57,51.65 40.47,51.59 39.30,51.61 L39.23,51.61 C38.27,51.62 37.28,51.61 36.32,51.52 C35.43,51.44 34.52,51.31 33.64,51.15 L33.11,51.04 C32.58,50.94 32.05,50.79 31.77,50.28 C31.29,49.37 34.87,48.66 35.30,48.54 C36.36,48.24 37.43,48.00 38.50,47.76 Z M40.49,36.86 C39.92,37.45 39.16,37.85 38.32,38.11 C36.19,38.74 33.48,38.40 31.75,37.76 C31.39,37.62 31.05,37.35 30.86,37.01 C30.68,36.70 30.62,36.33 30.75,35.96 C30.79,35.85 30.84,35.75 30.88,35.65 C31.01,35.37 31.27,35.15 31.58,35.03 C31.89,34.90 32.25,34.87 32.54,34.96 C32.58,34.98 32.62,34.99 32.66,35.00 C33.76,35.35 35.56,35.92 37.06,35.81 C37.96,35.74 38.74,35.43 39.15,34.61 C39.37,34.17 39.31,33.75 39.12,33.35 C38.83,32.76 38.25,32.25 37.77,31.89 C37.08,31.39 36.35,31.20 35.60,30.98 C35.32,30.91 35.03,30.83 34.74,30.73 C34.64,30.70 34.56,30.64 34.50,30.55 C34.43,30.47 34.39,30.38 34.38,30.28 C34.37,30.18 34.38,30.08 34.43,29.99 C34.47,29.91 34.54,29.84 34.65,29.79 C36.12,29.13 38.03,29.57 39.47,30.61 C40.19,31.13 40.79,31.80 41.16,32.54 C41.51,33.24 41.65,34.00 41.52,34.77 C41.37,35.64 41.00,36.33 40.49,36.86 Z M16.30,22.10 C16.71,21.91 17.05,22.77 17.14,23.00 L17.31,23.49 C17.60,24.27 17.93,25.06 18.54,25.64 C19.04,26.13 19.86,26.54 20.44,25.97 C21.00,25.43 20.73,24.83 20.81,24.16 C20.96,22.97 22.59,21.78 23.57,23.02 C25.78,25.84 22.36,29.76 19.21,29.07 C17.60,28.72 16.31,27.43 15.78,25.90 L15.76,25.82 C15.44,24.86 15.12,22.62 16.30,22.10 Z M44.84,24.06 L44.82,24.02 C43.77,21.63 47.52,20.60 47.84,22.75 L47.86,22.89 C48.17,25.28 47.52,28.50 44.59,28.73 C41.31,29.00 39.94,25.34 40.24,22.65 C40.29,22.17 40.87,22.10 41.05,22.54 L41.09,22.63 C41.62,23.98 42.13,26.58 43.99,26.58 C45.24,26.58 45.18,24.89 44.84,24.06 L44.84,24.06 Z M47.22,17.12 C49.10,17.05 49.10,20.01 47.22,20.05 C40.92,20.20 34.62,20.40 28.32,20.43 L27.18,20.44 C21.26,20.48 15.33,20.56 9.43,20.06 C8.92,20.02 9.02,19.31 9.44,19.34 C15.62,18.46 21.88,18.20 28.11,17.87 C34.47,17.53 40.85,17.35 47.22,17.12 Z" id="🖍-Ink"></path></g><g id="facial-hair/*-None" transform="translate(104.58, 109.48)"></g><g id="accessories/Glasses" transform="translate(88.52, 88.98)" fill="#000000" fill-rule="evenodd"><path d="M82.20,13.37 C80.19,27.00 66.13,28.51 63.63,14.98 C64.03,14.81 64.32,14.46 64.26,13.79 C64.24,10.84 65.16,7.72 67.82,6.08 C70.57,4.39 73.78,4.22 76.96,4.27 C83.03,4.12 82.90,9.20 82.20,13.37 M61.43,7.45 C59.52,7.37 57.11,7.43 55.41,8.59 C54.94,7.33 53.72,5.98 52.49,5.26 C57.07,5.39 61.78,4.94 66.39,4.59 C65.28,5.35 64.26,6.48 63.59,7.78 C62.97,7.45 62.08,7.49 61.43,7.45 M53.03,14.82 C47.75,33.00 34.57,25.08 33.13,22.75 C30.54,18.89 30.06,9.52 32.31,7.01 C35.54,4.74 40.12,5.33 43.94,5.27 C50.95,5.37 55.93,7.47 53.03,14.82 M88.44,6.46 C87.00,6.27 85.47,6.23 84.14,6.86 C83.72,5.12 82.44,3.66 80.98,3.01 C80.80,2.79 80.83,2.67 80.23,2.71 C76.53,1.60 72.40,2.18 68.84,3.32 C63.23,3.80 57.35,4.17 51.69,4.82 C46.39,2.44 30.40,2.09 29.41,7.96 C28.16,7.77 26.03,6.79 24.98,8.12 C17.27,6.82 9.31,8.63 1.57,9.44 C-0.37,9.80 -1.38,13.67 0.83,13.61 C2.08,13.28 0.80,11.21 2.47,11.05 C9.94,10.23 17.24,9.08 24.78,8.94 C24.52,10.24 29.77,10.33 29.85,9.57 C29.86,9.57 29.87,9.58 29.88,9.58 C28.58,14.42 29.76,21.38 32.10,24.38 C35.39,28.31 43.64,29.44 47.29,26.91 C52.01,24.58 56.92,12.87 55.54,8.98 C58.04,8.18 60.52,8.42 63.11,8.83 C62.52,10.51 61.49,14.64 62.97,15.00 C62.70,23.21 70.17,28.34 77.05,24.97 C83.01,22.17 85.10,13.31 84.37,7.93 C85.11,9.37 91.34,7.80 88.44,6.46" id="🖍-Ink"></path></g></g></g></g></g></svg>