<?xml version="1.0" encoding="UTF-8"?><svg width="240px" height="324px" viewBox="0 0 240 324" version="1.1" xmlns="http://www.w3.org/2000/svg" xmlns:xlink="http://www.w3.org/1999/xlink"><title>peep-68</title><desc>Created with Sketch.</desc><g id="Introduction" stroke="none" stroke-width="1" fill="none" fill-rule="evenodd"><g id="variations" transform="translate(-2286.00, -1406.00)"><g id="images" transform="translate(126.00, 110.00)"><g id="a-person/bust" transform="translate(2160.00, 1296.00)"><g id="body/Whatever" transform="translate(31.06, 135.05)" fill-rule="evenodd"><path d="M214.86,59.89 C217.02,58.76 219.13,57.53 221.21,56.25 C222.68,55.38 221.38,53.17 219.88,53.97 C219.11,54.37 218.35,54.79 217.58,55.19 C218.18,54.67 218.74,54.10 219.25,53.49 L219.21,53.45 C221.15,51.72 218.66,48.44 216.46,49.87 C214.52,51.28 212.56,52.71 210.33,53.64 C205.71,55.60 200.62,55.92 195.66,55.98 C193.85,55.84 192.12,56.16 190.36,56.51 C191.05,53.74 192.78,51.65 193.69,48.97 C194.37,46.26 190.46,44.42 189.08,47.02 C188.74,47.66 188.41,48.30 188.10,48.95 C185.10,51.67 180.11,51.43 177.09,54.36 C175.37,55.88 174.53,57.95 174.20,60.03 C173.97,61.44 174.32,62.86 173.47,64.11 C169.35,69.94 162.83,79.17 159.52,85.59 C157.18,70.33 150.92,51.46 144.46,37.50 C142.32,33.04 139.88,28.68 136.67,24.90 C137.03,23.64 135.75,21.40 134.93,22.09 C132.42,19.02 127.98,18.22 124.40,16.69 C119.58,14.63 115.58,10.34 113.61,5.47 C111.09,-3.81 104.86,-4.99 96.24,-4.58 C87.98,-4.59 81.87,-1.06 80.07,7.35 C76.41,13.73 67.77,12.68 61.55,14.37 C56.99,15.41 52.57,17.02 48.37,19.06 C43.69,14.63 26.95,33.24 25.43,38.04 C26.32,38.21 27.21,38.42 28.09,38.67 C28.88,38.90 28.55,40.09 27.76,39.90 C26.77,39.66 25.78,39.50 24.78,39.39 C24.75,39.48 24.72,39.58 24.70,39.67 C24.59,39.66 24.48,39.65 24.37,39.64 C24.62,39.77 24.86,39.92 25.09,40.12 C25.65,40.59 24.92,41.49 24.32,41.11 C23.76,40.69 23.02,40.76 22.34,40.62 C22.30,42.01 17.34,40.45 16.57,39.99 C13.15,39.56 9.63,40.02 6.43,38.37 C2.18,37.48 -2.10,36.49 -6.31,35.34 C-7.42,35.78 -8.47,37.33 -7.58,38.47 C-7.09,38.99 -7.73,39.84 -8.35,39.47 C-10.45,38.23 -12.08,36.30 -13.45,34.22 C-14.10,33.57 -15.25,33.71 -16.12,33.44 C-16.24,33.65 -16.31,33.88 -16.31,34.12 C-20.00,34.73 -17.37,38.76 -15.51,40.02 C-16.49,40.66 -16.53,41.92 -16.45,42.97 C-16.65,43.34 -16.72,43.81 -16.54,44.22 C-15.85,45.83 -14.35,47.17 -13.20,48.47 C-11.94,49.90 -10.82,51.35 -9.28,52.51 C-3.43,56.97 3.63,59.46 10.87,60.44 C13.44,60.83 17.14,61.44 18.73,63.61 C18.34,66.19 17.62,68.67 16.97,71.19 C16.06,74.53 16.12,78.03 16.11,81.43 C15.98,81.33 15.74,81.35 15.70,81.55 C15.49,82.96 15.33,84.40 14.48,85.59 C13.72,87.79 13.22,90.15 12.94,92.47 C11.82,103.46 11.55,114.77 14.09,125.59 C15.07,129.60 16.66,133.41 18.83,136.93 C19.48,137.97 20.52,138.28 21.46,138.07 C24.58,139.70 28.53,140.22 31.90,139.81 C43.40,136.55 39.39,144.39 55.51,141.99 C83.34,138.45 111.46,145.42 139.22,141.32 C139.91,146.61 148.86,145.09 151.97,142.86 C161.29,135.92 165.92,113.97 170.60,102.83 C173.82,94.05 179.20,78.51 186.26,72.62 C188.37,70.96 190.93,70.09 193.49,69.39 C203.03,66.93 212.62,64.60 222.18,62.21 C223.81,61.81 223.51,59.04 221.78,59.22 C219.48,59.45 217.17,59.67 214.86,59.89 Z" id="🎨-Background" fill="#FFFFFF"></path><path d="M2.33,58.24 C1.69,58.16 1.05,57.93 0.42,57.75 C-0.54,57.47 -1.48,57.14 -2.41,56.77 C-4.32,56.00 -6.18,55.09 -7.92,53.98 C-10.73,52.19 -13.22,49.89 -15.09,47.12 L-15.22,46.93 C-16.29,45.30 -18.26,41.68 -16.05,40.44 C-17.48,39.25 -18.82,37.11 -18.75,35.45 C-18.64,33.12 -15.77,33.15 -14.29,34.14 C-13.32,34.79 -12.60,35.70 -11.87,36.59 C-11.06,37.58 -10.20,38.53 -9.30,39.44 C-9.07,39.68 -8.83,39.92 -8.58,40.15 L-8.34,40.38 C-8.37,40.29 -8.41,40.20 -8.44,40.10 C-8.93,38.56 -8.34,36.56 -6.80,35.85 C-5.86,35.42 -4.88,35.68 -3.97,36.05 L-3.83,36.11 C-2.60,36.62 -1.35,37.07 -0.07,37.43 C5.15,38.90 10.59,39.15 15.94,39.88 C18.00,40.17 20.10,40.53 22.15,41.05 C22.93,37.73 24.84,34.55 26.92,31.93 C36.88,19.41 53.30,15.27 68.31,12.59 C69.68,12.34 70.82,14.16 71.61,13.73 C73.12,12.92 74.45,11.77 75.62,10.52 C78.11,7.85 79.87,4.72 81.94,1.75 C82.97,0.28 85.33,1.59 84.37,3.17 L83.91,3.94 C81.99,7.09 79.87,10.34 77.12,12.78 C75.66,14.08 74.03,15.10 72.18,15.75 C70.77,16.23 68.80,16.64 67.26,16.17 L67.08,15.90 C67.14,15.99 67.20,16.08 67.26,16.17 C71.28,21.99 76.31,26.91 81.62,31.56 C86.98,36.25 92.76,40.45 98.57,44.55 L99.06,44.89 C108.53,37.98 116.53,28.97 122.14,18.67 C120.96,18.53 119.80,17.77 118.79,17.21 C117.58,16.53 116.45,15.72 115.56,14.64 C113.62,12.28 113.88,9.24 113.53,6.38 C113.51,6.20 113.74,6.16 113.85,6.25 C114.90,7.12 115.26,8.55 115.70,9.78 C116.18,11.13 116.73,12.25 117.83,13.20 C118.86,14.09 120.12,14.74 121.34,15.32 C121.96,15.62 125.09,16.39 125.44,17.02 C130.83,15.76 136.08,17.95 140.08,21.64 C143.94,25.20 146.77,29.84 149.27,34.41 C151.94,39.29 154.13,44.38 156.01,49.61 C157.92,54.92 159.39,60.35 160.19,65.94 C160.87,70.65 161.29,75.43 161.56,80.20 L161.59,80.79 C165.58,74.53 169.67,68.33 173.84,62.19 C172.89,59.66 173.94,57.07 175.72,55.11 C177.69,52.95 180.41,51.94 183.02,50.77 L183.36,50.62 C184.61,50.04 185.87,49.41 186.95,48.55 C187.99,47.72 188.76,46.58 189.86,45.82 C191.46,44.71 194.35,44.95 194.43,47.37 C194.47,48.71 193.89,50.17 193.37,51.37 C192.78,52.72 191.98,53.95 191.02,55.08 C190.98,55.13 190.93,55.17 190.88,55.21 L190.85,55.23 C192.16,55.45 193.49,55.62 194.84,55.68 C197.56,55.81 200.31,55.61 202.98,55.03 C205.71,54.45 208.35,53.49 210.81,52.16 C212.91,51.02 214.85,49.55 217.23,49.20 C217.45,49.17 217.67,49.15 217.90,49.14 C218.28,49.12 218.66,49.56 218.51,49.94 C218.43,50.15 218.34,50.35 218.25,50.56 C217.42,52.37 216.16,54.14 214.58,55.47 L214.46,55.57 C215.02,55.38 215.57,55.17 216.10,54.92 C219.27,53.50 222.14,51.34 225.54,50.47 C225.70,50.43 225.86,50.39 226.03,50.36 C227.08,50.13 227.63,51.27 227.01,52.06 C226.91,52.18 226.81,52.31 226.71,52.43 C225.20,54.31 223.52,56.06 221.68,57.63 C221.05,58.16 220.40,58.68 219.74,59.18 C219.46,59.39 219.18,59.60 218.89,59.80 L218.75,59.90 C219.08,59.66 219.41,59.43 219.74,59.18 C221.82,58.55 223.86,57.80 225.87,56.98 C226.67,56.65 227.28,57.46 227.37,58.12 C227.65,60.34 225.18,61.95 223.58,63.02 C221.97,64.10 220.20,64.91 218.38,65.57 C214.89,66.83 211.23,67.40 207.57,67.91 L205.79,68.16 C198.76,69.15 191.41,70.32 186.36,75.80 C183.53,78.87 181.62,82.68 179.87,86.43 C178.12,90.18 176.58,94.03 175.12,97.89 C173.61,101.90 172.30,105.97 170.90,110.02 C169.62,113.73 168.08,117.39 166.56,121.02 L166.32,121.59 C163.10,129.30 159.24,136.57 153.87,143.00 C152.99,144.07 151.56,142.56 152.37,141.50 C157.99,134.26 161.90,125.71 165.13,117.18 C166.59,113.30 167.82,109.33 169.23,105.43 L170.07,103.11 C171.20,100.02 172.33,96.93 173.51,93.87 C175.00,89.99 176.64,86.16 178.52,82.45 L178.72,82.06 C180.56,78.48 182.74,74.96 185.75,72.25 C191.16,67.38 198.36,66.21 205.33,65.29 L207.52,65.00 C210.46,64.61 213.41,64.17 216.28,63.39 C217.93,62.93 219.54,62.35 221.06,61.56 C221.66,61.24 222.25,60.89 222.82,60.51 C221.20,60.99 219.55,61.38 217.87,61.68 C217.04,61.83 216.23,61.95 215.42,62.02 C213.33,62.23 211.26,62.22 209.12,62.11 C208.94,62.10 208.88,61.82 209.07,61.78 C210.56,61.51 212.05,61.18 213.54,60.82 L213.99,60.71 C213.99,60.47 214.09,60.20 214.29,59.96 C215.03,59.06 216.44,58.59 217.41,57.96 C218.43,57.29 219.42,56.57 220.36,55.80 C221.23,55.10 222.05,54.36 222.85,53.58 L223.09,53.34 C223.01,53.42 222.93,53.50 222.85,53.58 C220.70,54.57 218.66,55.85 216.42,56.63 C214.63,57.26 212.76,57.68 210.87,57.83 L210.75,57.84 L210.63,57.85 C208.66,57.99 206.68,57.94 204.74,58.36 C204.52,58.41 204.45,58.12 204.65,58.04 C206.34,57.33 208.11,57.06 209.89,56.73 C209.93,56.59 210.03,56.46 210.20,56.38 L210.65,56.17 C212.01,55.51 213.28,54.85 214.41,53.79 C215.40,52.86 216.23,51.76 216.86,50.55 C214.36,51.10 212.17,52.99 209.90,54.05 C207.43,55.21 204.81,56.05 202.13,56.52 L201.82,56.57 C196.80,57.41 190.76,57.30 186.26,54.69 C186.12,54.61 186.22,54.41 186.37,54.44 C187.64,54.65 188.91,54.89 190.17,55.11 C189.92,54.89 189.81,54.48 190.10,54.16 C191.23,52.86 192.13,51.37 192.71,49.74 L192.81,49.42 C193.08,48.67 193.53,47.50 193.07,46.82 C192.63,46.17 191.61,46.26 191.00,46.53 C189.72,47.11 188.88,48.54 187.80,49.41 C186.63,50.35 185.30,51.06 183.94,51.68 L183.65,51.81 C181.29,52.87 178.78,53.77 176.92,55.64 C175.93,56.65 175.07,57.90 174.78,59.31 C174.65,59.96 174.65,60.63 174.82,61.27 C174.96,61.77 175.25,62.08 175.08,62.58 C174.87,63.24 174.10,64.03 173.71,64.61 C173.26,65.29 172.80,65.97 172.35,66.65 C171.44,68.00 170.54,69.36 169.64,70.72 C167.83,73.45 166.05,76.18 164.28,78.92 C163.70,79.82 163.13,80.71 162.55,81.61 L161.70,82.95 L161.24,83.66 L160.47,84.87 C160.50,84.99 160.50,85.10 160.46,85.21 C160.33,85.58 160.08,85.84 159.78,86.03 L159.72,86.06 C155.21,93.19 150.78,100.36 146.30,107.51 C146.06,109.69 145.83,111.87 145.64,114.05 C145.20,119.00 144.89,123.95 144.80,128.91 C144.75,131.31 144.94,133.73 145.05,136.13 C145.10,137.27 145.17,138.41 145.26,139.56 L145.32,140.37 C145.41,141.48 145.46,142.59 145.06,143.65 C144.71,144.58 143.63,144.79 142.99,144.08 C134.64,143.74 126.28,143.49 117.92,143.33 C102.96,143.04 87.99,143.09 73.03,143.38 C65.52,143.52 58.00,143.73 50.49,143.98 C46.79,144.10 43.08,144.28 39.38,144.33 C37.38,144.35 34.24,143.63 34.08,141.38 L34.08,141.31 C33.83,141.38 33.57,141.44 33.31,141.48 C33.19,141.49 33.08,141.49 32.97,141.46 L32.92,141.45 C29.95,142.36 26.18,141.06 23.36,140.31 L23.12,140.25 C20.43,139.54 18.26,138.54 16.49,136.30 C13.40,132.39 12.34,127.13 11.79,122.28 C11.27,117.72 11.24,113.07 11.87,108.52 C11.50,104.81 11.86,100.99 12.28,97.30 C12.49,95.47 12.73,93.65 13.03,91.84 C13.19,90.83 13.40,89.82 13.62,88.82 C13.71,88.42 13.78,87.99 13.89,87.58 L13.94,87.40 C13.60,87.45 13.23,87.37 12.87,87.18 C12.02,86.71 11.78,85.76 11.76,84.86 C11.72,82.13 12.04,79.33 12.33,76.62 C12.62,73.91 13.02,71.20 13.53,68.53 L13.67,67.84 C14.06,65.84 14.51,63.78 15.31,61.90 C12.33,61.39 9.35,60.85 6.46,59.93 C5.05,59.48 3.66,58.92 2.33,58.24 Z M157.92,86.62 C157.88,86.63 157.83,86.64 157.79,86.65 C156.60,86.99 155.39,87.27 154.19,87.57 C152.12,88.09 150.09,88.68 148.16,89.58 C147.76,94.69 147.16,99.77 146.59,104.86 L146.47,105.88 C147.35,104.25 148.25,102.64 149.18,101.05 C152.03,96.20 154.95,91.39 157.92,86.62 Z M14.67,87.12 C14.67,87.73 14.54,88.36 14.48,88.94 C14.37,89.89 14.28,90.84 14.17,91.78 C13.94,93.69 13.74,95.59 13.60,97.50 C13.51,98.72 13.45,99.95 13.40,101.17 C14.60,96.69 16.18,92.31 17.69,87.92 C17.44,87.89 17.18,87.83 16.92,87.76 L16.47,87.64 C16.21,87.57 15.35,87.36 14.67,87.12 Z M161.70,82.95 L161.71,83.15 C161.74,83.86 161.31,84.27 160.79,84.37 C161.09,83.90 161.39,83.42 161.70,82.95 Z M24.63,49.19 C25.89,49.31 27.12,49.57 28.30,50.04 L28.42,50.08 C29.29,50.42 30.56,50.84 30.85,51.77 C30.93,52.04 30.71,52.26 30.47,52.28 C29.52,52.35 28.40,51.34 27.53,51.00 C26.55,50.62 25.53,50.33 24.49,50.18 C22.17,49.84 19.74,50.10 17.55,50.95 C17.42,51.00 17.34,50.79 17.46,50.73 C19.67,49.53 22.12,48.97 24.63,49.19 Z M-2.10,55.24 C-2.25,55.11 -2.39,54.97 -2.54,54.84 C-3.67,53.77 -4.67,52.52 -5.41,51.14 L-5.61,50.77 C-6.22,49.60 -6.96,47.93 -5.54,47.08 C-4.69,46.58 -3.66,46.71 -2.72,47.01 C-2.66,47.03 -2.60,47.05 -2.53,47.07 C-2.11,47.22 -1.70,47.40 -1.34,47.57 C0.24,48.29 1.63,49.35 3.09,50.28 C4.67,51.29 6.23,51.93 8.05,52.31 L8.22,52.34 C9.93,52.68 11.79,52.90 12.98,54.31 C13.28,54.66 13.01,55.33 12.49,55.15 C9.19,54.04 5.70,53.79 2.67,51.96 C1.41,51.21 0.22,50.34 -1.06,49.62 C-1.74,49.24 -2.44,48.91 -3.19,48.68 L-3.60,48.56 C-3.84,48.49 -4.12,48.42 -4.32,48.49 C-4.68,48.62 -4.56,48.81 -4.45,49.15 L-4.44,49.19 C-3.55,51.94 -1.02,54.24 1.33,55.77 C1.87,56.12 2.42,56.44 2.99,56.74 C6.79,58.77 11.05,59.71 15.23,60.83 C16.84,61.28 17.91,61.59 18.44,61.76 C19.34,61.69 20.35,62.00 21.02,62.38 C21.68,62.74 22.20,63.23 22.60,63.81 C22.60,63.81 22.98,64.13 23.05,64.62 C23.25,65.08 23.39,65.58 23.46,66.09 C23.49,66.40 23.42,66.63 23.27,66.79 C23.71,73.43 21.91,80.02 19.90,86.33 L19.70,86.95 L19.57,87.35 C17.39,94.03 14.89,100.67 13.77,107.64 C13.03,112.29 13.05,117.11 13.60,121.79 L13.64,122.11 C14.18,126.53 15.21,131.50 18.02,135.05 C19.46,136.87 21.16,137.68 23.33,138.26 L23.45,138.29 C25.41,138.81 27.44,139.55 29.47,139.77 C31.35,139.97 32.92,139.27 34.62,138.62 L34.62,138.62 C38.18,135.46 39.80,130.87 41.00,126.23 C44.09,114.23 43.71,101.77 41.95,89.60 C41.04,83.23 39.79,76.93 38.55,70.62 C37.93,67.47 37.26,64.33 36.70,61.16 L36.37,59.30 C36.19,58.27 36.01,57.24 35.86,56.20 C35.66,54.80 35.60,53.42 35.53,52.02 C33.82,49.19 31.34,46.86 28.47,45.19 C26.42,43.99 24.24,43.16 21.99,42.56 C15.57,40.82 8.57,40.95 2.11,39.62 C-0.06,39.17 -2.12,38.51 -4.18,37.71 L-4.46,37.60 C-5.40,37.23 -6.36,37.03 -6.83,38.14 C-7.17,38.93 -6.97,39.76 -6.47,40.42 C-5.24,42.06 -2.77,42.81 -0.92,43.40 C0.20,43.76 1.34,44.04 2.50,44.25 C3.65,44.46 4.81,44.51 5.91,44.92 C6.34,45.07 6.43,45.75 5.91,45.87 C4.51,46.20 3.10,45.92 1.71,45.64 C0.17,45.34 -1.33,44.91 -2.80,44.37 C-3.07,44.27 -3.35,44.17 -3.64,44.05 L-3.85,43.97 C-3.63,44.13 -3.41,44.29 -3.18,44.45 C-3.12,44.49 -3.16,44.60 -3.24,44.57 C-6.69,43.29 -9.82,40.97 -12.25,38.22 L-12.37,38.08 C-13.23,37.10 -15.18,34.13 -16.82,34.96 C-18.37,35.73 -15.73,38.72 -14.73,39.94 L-14.62,40.09 C-13.48,40.12 -12.38,40.82 -11.46,41.39 C-9.86,42.39 -8.19,43.24 -6.49,44.04 C-3.10,45.63 0.49,46.75 3.84,48.42 C3.88,48.45 3.85,48.50 3.81,48.50 C1.68,48.16 -0.43,47.61 -2.49,46.94 L-2.58,46.91 L-2.68,46.88 C-3.96,46.46 -5.23,45.98 -6.48,45.47 C-7.87,44.91 -9.23,44.27 -10.54,43.55 C-11.73,42.90 -13.06,41.72 -14.44,41.55 C-14.58,41.53 -14.72,41.53 -14.83,41.54 C-16.42,41.67 -15.10,44.30 -14.66,45.09 C-13.94,46.38 -13.06,47.57 -12.06,48.66 C-10.02,50.87 -7.56,52.62 -4.89,53.99 C-3.98,54.45 -3.05,54.86 -2.10,55.24 Z" id="🖍-Ink" fill="#000000"></path></g><g id="head/Flat-Top" transform="translate(78.59, 38.04)" fill-rule="evenodd"><path d="M51.14,15.91 C63.13,15.91 78.62,23.43 79.94,31.14 C81.49,40.23 89.82,75.09 87.94,86.27 C86.06,97.45 75.92,105.50 59.70,105.50 C43.47,105.50 31.36,96.65 28.58,93.61 C26.73,91.59 24.08,86.96 20.65,79.72 C14.86,78.95 11.95,76.20 11.92,71.48 C11.89,66.76 13.77,63.54 17.57,61.82 C16.22,43.18 17.24,31.44 20.65,26.58 C25.76,19.31 39.14,15.91 51.14,15.91 Z" id="🎨-Background" fill="#FFFFFF"></path><path d="M79.20,29.90 C79.19,29.74 79.43,29.72 79.47,29.86 C82.06,38.42 83.66,45.08 85.34,53.85 L85.83,56.43 C87.16,63.31 88.50,70.20 89.63,77.11 L89.69,77.53 C90.26,81.11 90.59,84.72 89.88,88.30 C89.21,91.66 87.40,94.73 85.05,97.18 C80.50,101.91 74.18,104.86 67.82,106.18 C64.60,106.85 61.29,107.11 58.01,106.88 C56.38,106.76 54.75,106.53 53.15,106.19 L52.97,106.15 C51.36,105.81 49.93,105.39 49.07,103.87 C48.86,103.49 48.94,102.83 49.39,102.64 C50.25,102.27 50.88,102.12 51.81,102.22 C52.70,102.32 53.56,102.59 54.44,102.76 C56.12,103.08 57.83,103.24 59.54,103.28 C62.90,103.35 66.26,102.93 69.47,101.93 C74.99,100.21 80.59,96.91 83.81,91.98 C87.60,86.18 86.09,79.15 85.09,72.74 L85.06,72.55 C84.04,66.01 83.03,59.46 82.06,52.91 L81.64,50.11 C80.55,42.69 79.51,37.39 79.20,29.90 Z M23.22,11.75 C25.97,9.93 29.39,9.49 32.62,9.51 L33.03,9.52 C37.17,9.58 58.00,10.08 64.98,10.23 L66.64,10.26 C68.83,10.30 73.26,10.35 75.54,10.39 L75.68,10.39 C76.80,10.41 77.92,10.42 79.04,10.46 L79.20,10.46 C80.04,10.50 80.74,10.63 81.39,11.22 C81.73,11.52 81.86,11.97 81.83,12.41 L81.82,12.47 L83.48,12.61 C84.61,12.71 85.21,13.72 84.76,14.75 L84.74,14.80 C83.94,16.50 83.33,21.44 82.91,23.27 C82.68,24.23 82.50,25.21 82.40,26.19 C82.31,26.97 82.31,27.74 81.87,28.42 C80.96,29.87 78.37,29.86 78.32,27.81 C78.32,27.74 78.32,27.68 78.33,27.62 C71.82,27.33 62.94,27.36 56.44,27.75 C50.37,28.11 44.33,28.93 38.38,30.20 C36.87,30.52 35.37,30.86 33.88,31.24 C32.66,31.55 31.16,31.73 30.06,32.40 C28.84,33.14 28.86,34.47 28.99,35.74 C29.14,37.09 29.37,36.40 29.71,37.62 L29.73,37.70 C30.08,39.03 30.51,40.35 31.08,41.60 C31.41,42.31 31.93,43.00 31.73,43.82 C31.62,44.29 31.25,44.78 30.92,45.10 C29.39,46.57 26.80,45.64 25.76,47.65 C24.68,49.75 24.65,52.60 24.56,54.93 L24.55,55.07 C24.48,56.67 24.50,58.28 24.61,59.88 C24.70,61.34 25.09,62.78 24.59,64.18 C24.23,65.20 23.04,65.30 22.42,64.47 C22.35,64.37 22.29,64.28 22.22,64.18 L22.16,64.08 L22.16,64.08 C22.22,64.17 22.27,64.27 22.33,64.37 C22.38,64.47 22.24,64.59 22.16,64.50 C20.69,62.91 18.56,63.23 16.90,64.34 C15.23,65.47 14.57,67.62 14.48,69.55 C14.38,71.69 14.57,74.20 15.46,76.18 C15.84,77.02 16.38,77.79 17.27,78.11 C17.67,78.25 18.05,78.23 18.48,78.27 C18.91,78.30 19.44,78.52 19.86,78.49 C20.42,78.45 20.91,79.08 20.75,79.61 L20.74,79.64 C20.73,79.67 20.73,79.69 20.72,79.72 C20.74,79.74 20.76,79.76 20.77,79.79 C22.38,83.08 24.58,86.00 27.01,88.71 C28.23,90.06 29.59,91.31 31.00,92.46 C31.70,93.03 32.43,93.59 33.21,94.05 C33.46,94.20 33.70,94.30 33.99,94.39 C34.13,94.43 34.28,94.44 34.41,94.49 L34.55,94.54 C34.56,94.54 34.57,94.54 34.57,94.54 C34.96,94.59 35.29,94.85 35.42,95.25 C35.75,96.30 35.14,97.23 34.10,97.52 C32.97,97.84 31.90,97.28 31.01,96.64 L30.95,96.60 C29.12,95.29 27.44,93.81 25.98,92.08 C23.10,88.68 21.29,84.74 20.45,80.38 C20.25,80.82 19.97,81.21 19.48,81.48 C18.73,81.90 17.83,81.90 17.01,81.76 C15.35,81.48 13.94,80.47 12.99,79.10 C12.01,77.68 11.65,75.96 11.43,74.28 C11.21,72.59 11.10,70.90 11.32,69.22 C11.63,66.80 12.65,64.40 14.62,63.07 C13.15,59.85 12.89,56.24 12.99,52.71 C13.12,48.36 13.87,43.97 14.45,39.66 L16.09,27.42 L16.09,27.42 L16.15,26.93 C16.55,24.05 17.03,21.16 18.11,18.44 C19.17,15.77 20.78,13.35 23.22,11.75 Z M16.32,69.65 C19.03,68.33 21.95,69.55 23.41,72.10 C24.68,74.31 20.91,75.78 20.28,73.49 L20.26,73.42 C19.85,71.69 18.16,70.20 16.40,69.96 C16.26,69.94 16.15,69.73 16.32,69.65 Z" id="🖍-Ink" fill="#000000"></path></g><g id="face/Smiling" transform="translate(112.18, 77.35)" fill="#000000" fill-rule="evenodd"><path d="M30.97,50.92 C29.55,50.34 28.28,49.37 27.36,48.14 C27.03,47.71 26.95,47.26 27.02,46.84 C27.09,46.37 27.37,45.95 27.74,45.67 C28.12,45.38 28.59,45.24 29.05,45.32 C29.45,45.38 29.84,45.59 30.15,46.05 L30.22,46.14 C30.77,46.88 31.49,47.49 32.31,47.89 C33.09,48.27 33.97,48.44 34.89,48.34 C36.62,48.14 37.82,47.20 39.09,45.93 C39.25,45.77 39.41,45.60 39.57,45.43 C39.67,45.28 39.81,45.18 39.96,45.13 C40.13,45.07 40.33,45.07 40.51,45.14 C40.68,45.20 40.83,45.31 40.93,45.46 C41.03,45.60 41.09,45.78 41.07,45.98 C40.95,47.31 40.26,48.49 39.28,49.41 C38.19,50.44 36.74,51.16 35.38,51.41 C33.88,51.68 32.35,51.48 30.97,50.92 L30.97,50.92 Z M36.09,30.51 C37.68,31.48 40.11,33.74 38.40,36.15 C36.38,38.27 33.47,35.84 32.04,34.74 C30.71,33.89 29.21,36.08 30.45,37.07 C40.80,44.74 45.01,30.77 36.89,29.37 C36.00,29.22 35.67,30.21 36.09,30.51 Z M17.53,21.59 C17.70,19.40 21.04,18.90 21.37,21.07 C21.66,23.01 21.31,24.79 20.44,26.54 C19.61,28.21 17.51,27.43 17.35,25.91 C17.14,23.87 17.42,22.95 17.53,21.59 Z M42.89,20.62 C43.36,20.01 44.03,19.60 44.83,19.83 C47.34,20.56 46.60,24.13 45.72,25.87 C45.24,26.81 43.69,27.05 42.99,26.22 C41.85,24.86 41.31,22.16 42.76,20.83 C42.80,20.76 42.84,20.69 42.89,20.62 Z M20.41,12.01 L20.80,11.94 C22.03,11.73 23.56,11.53 24.42,12.51 C24.88,13.04 25.04,14.01 24.42,14.51 C23.33,15.39 22.13,15.05 20.83,15.12 C19.75,15.19 18.72,15.36 17.68,15.66 C15.41,16.31 13.56,17.49 11.62,18.80 C11.37,18.97 11.11,18.64 11.23,18.40 C12.35,16.21 14.52,14.41 16.69,13.31 C17.85,12.72 19.12,12.23 20.41,12.01 Z M40.60,11.03 L40.91,11.09 C44.21,11.78 48.50,13.16 50.07,16.41 C50.13,16.87 50.06,16.96 50.01,17.03 L50.00,17.05 C49.95,17.11 49.92,17.18 49.72,17.24 C49.67,17.23 49.61,17.22 49.55,17.20 C48.84,17.01 48.27,16.75 47.72,16.49 L47.13,16.19 C46.43,15.85 45.74,15.53 45.00,15.29 C43.42,14.77 41.80,14.41 40.15,14.22 C39.80,14.17 39.45,14.05 39.18,13.85 C38.92,13.65 38.73,13.38 38.64,13.02 C38.52,12.55 38.56,12.20 38.81,11.78 C38.99,11.46 39.26,11.24 39.57,11.12 C39.89,10.99 40.25,10.96 40.60,11.03 Z" id="🖍-Ink"></path></g><g id="facial-hair/*-None" transform="translate(104.58, 109.48)"></g><g id="accessories/*-None" transform="translate(88.52, 88.98)"></g></g></g></g></g></svg>