<?xml version="1.0" encoding="UTF-8"?><svg width="240px" height="324px" viewBox="0 0 240 324" version="1.1" xmlns="http://www.w3.org/2000/svg" xmlns:xlink="http://www.w3.org/1999/xlink"><title>peep-1</title><desc>Created with Sketch.</desc><g id="Introduction" stroke="none" stroke-width="1" fill="none" fill-rule="evenodd"><g id="variations" transform="translate(-126.00, -110.00)"><g id="images" transform="translate(126.00, 110.00)"><g id="a-person/bust"><g id="body/Dress" transform="translate(31.06, 135.05)" fill-rule="evenodd"><path d="M161.74,136.42 C161.23,131.66 160.91,126.87 160.73,122.08 C160.55,117.30 160.79,112.46 160.89,107.68 C161.10,97.95 161.45,88.20 160.67,78.49 C159.94,69.31 158.26,60.19 155.61,51.37 C154.32,47.07 152.96,42.61 150.84,38.64 C148.70,34.65 145.32,31.99 141.60,29.55 C137.65,26.96 133.73,24.31 129.79,21.69 C126.48,19.50 120.53,16.94 117.82,14.00 C114.96,10.91 114.43,3.24 112.52,-0.42 C110.67,-3.99 105.43,-6.32 101.40,-6.32 C94.72,-6.32 89.65,-6.66 84.16,-0.48 C81.42,2.61 83.60,5.72 80.73,8.68 C78.09,11.41 71.34,14.20 67.93,15.78 C63.85,17.67 59.68,19.34 55.44,20.83 C51.11,22.35 46.68,23.48 42.33,24.91 C38.16,26.28 32.71,31.94 29.48,34.94 C26.47,37.72 25.72,37.41 23.43,40.79 C18.41,48.21 13.39,55.72 9.39,63.75 C7.40,67.75 5.47,71.96 4.75,76.41 C3.98,81.15 4.74,85.73 5.99,90.32 C7.26,94.99 11.30,99.44 12.62,104.10 C13.22,106.24 11.14,108.59 12.10,110.61 C12.58,111.62 13.18,112.52 13.87,113.40 C14.39,114.08 16.46,113.93 16.72,114.76 C16.99,115.60 15.50,117.34 15.48,118.21 C15.45,119.45 15.40,120.69 15.36,121.93 L15.12,129.28 C14.96,134.10 14.80,138.93 14.64,143.75 C14.59,145.33 14.51,146.87 14.89,148.36 C14.76,148.23 14.63,148.10 14.51,147.94 C14.16,147.49 13.43,147.87 13.72,148.40 C14.21,149.29 14.92,149.91 15.75,150.35 C16.71,151.77 162.57,154.95 163.29,150.79 C163.69,148.46 162.96,145.97 162.67,143.65 C162.36,141.24 162.00,138.84 161.74,136.42 Z" id="🎨-Background" fill="#FFFFFF"></path><path d="M13.57,76.41 C13.93,75.39 15.56,75.83 15.20,76.86 C13.35,82.16 14.66,87.92 16.66,92.97 C17.06,93.98 15.42,94.42 15.03,93.42 C12.93,88.10 11.63,81.97 13.57,76.41 M25.96,106.65 C31.17,107.38 36.38,107.84 41.63,108.20 C41.86,108.22 42.06,108.18 42.24,108.11 C42.08,110.51 41.96,112.92 41.86,115.32 C40.43,115.28 38.97,115.38 37.55,115.34 C35.70,115.29 33.84,115.19 32.00,115.05 C28.42,114.78 24.84,114.35 21.31,113.75 C19.98,113.53 18.30,113.40 16.80,112.96 C15.37,112.54 14.11,111.85 13.44,110.55 C12.87,109.46 12.77,108.11 12.77,106.89 C12.77,106.06 12.91,105.21 13.00,104.36 C13.11,104.29 13.21,104.20 13.28,104.10 C14.86,104.59 16.49,104.94 18.08,105.28 C20.68,105.83 23.32,106.28 25.96,106.65 M23.02,87.11 C23.05,88.72 23.49,90.19 24.36,91.55 C24.95,92.47 23.49,93.32 22.90,92.41 C21.88,90.80 21.36,89.01 21.33,87.11 C21.31,86.02 23.00,86.02 23.02,87.11 M156.57,104.73 C157.27,104.77 157.98,104.80 158.69,104.83 C159.31,105.37 160.18,105.64 160.97,105.47 C160.99,105.54 161.02,105.62 161.04,105.70 C161.18,106.25 161.25,106.83 161.33,107.38 C161.41,107.93 161.47,108.48 161.51,109.03 C161.53,109.31 161.67,109.93 161.50,110.17 C161.35,110.39 161.01,110.37 160.78,110.40 C160.15,110.47 159.52,110.50 158.89,110.55 C157.70,110.65 156.51,110.76 155.32,110.86 C154.16,110.96 152.88,110.93 151.74,111.24 C151.55,108.95 151.37,106.67 151.21,104.38 C152.97,104.64 154.81,104.63 156.57,104.73 M8.65,100.94 C9.36,102.31 10.02,103.66 11.38,104.49 C11.55,104.59 11.75,104.65 11.96,104.66 C11.80,105.32 11.71,105.98 11.62,106.60 C11.44,107.96 11.40,109.37 11.74,110.71 C12.07,112.01 12.62,113.18 13.70,114.01 C14.20,114.40 14.74,114.69 15.32,114.93 C15.22,115.20 15.16,115.47 15.19,115.77 C15.06,116.46 14.97,117.17 14.87,117.84 C14.65,119.34 14.43,120.83 14.26,122.34 C13.92,125.33 13.65,128.32 13.42,131.33 C13.20,134.32 13.03,137.32 12.90,140.32 C12.83,141.86 12.77,143.39 12.71,144.93 C12.65,146.51 12.40,148.12 13.10,149.59 C13.66,150.77 15.56,150.70 16.14,149.59 C16.88,148.17 16.66,146.48 16.68,144.93 C16.70,143.46 16.73,142.00 16.76,140.53 C16.82,137.53 16.91,134.54 16.99,131.54 C17.06,128.61 17.15,125.68 17.21,122.76 C17.24,121.23 17.24,119.69 17.25,118.16 C17.25,117.31 17.29,116.40 17.22,115.52 C17.75,115.64 18.28,115.75 18.81,115.86 C22.83,116.68 26.89,117.28 30.97,117.65 C33.02,117.84 35.08,117.97 37.14,118.04 C38.65,118.10 40.22,118.21 41.75,118.15 C41.63,121.82 41.58,125.49 41.58,129.16 C41.59,131.81 41.62,134.46 41.69,137.10 C41.72,138.50 41.75,139.89 41.80,141.28 C41.82,141.91 41.82,142.54 41.86,143.16 C41.87,143.36 41.90,143.55 41.93,143.73 C41.79,144.13 41.68,144.52 41.58,144.88 C41.12,146.66 41.12,148.37 41.33,150.17 C41.50,151.71 42.79,153.13 44.50,152.59 C44.78,152.51 45.05,152.41 45.33,152.32 C47.84,152.61 50.36,152.67 52.91,152.72 C56.63,152.79 60.35,152.82 64.07,152.84 C71.37,152.87 78.68,152.89 85.98,152.91 C100.66,152.96 115.33,153.00 130.01,153.04 C134.08,153.05 138.16,153.06 142.23,153.07 C144.34,153.08 146.44,153.08 148.55,153.16 C149.53,153.20 150.52,153.25 151.50,153.27 C152.64,153.29 153.65,152.96 154.73,152.66 C155.35,152.49 155.59,151.87 155.46,151.35 C156.45,151.59 157.64,151.09 157.97,149.98 C158.22,149.17 158.13,148.30 157.76,147.55 L157.76,147.55 C157.06,143.09 156.16,138.66 155.46,134.20 C154.69,129.31 153.95,124.42 153.29,119.52 C152.80,115.81 152.40,118.44 152.05,114.72 C153.57,114.84 155.29,114.37 156.79,114.18 C157.87,114.04 158.96,113.93 160.04,113.78 C159.96,114.87 159.98,115.98 159.95,117.03 C159.90,119.10 159.92,121.17 159.98,123.25 C160.08,127.26 160.30,124.93 160.66,128.92 C161.03,132.94 161.48,136.95 162.02,140.95 C162.30,143.01 162.60,145.07 162.91,147.13 C163.06,148.09 163.21,149.04 163.36,150.00 C163.55,151.13 163.61,152.21 164.45,153.05 C165.10,153.70 166.41,153.64 166.84,152.75 C167.38,151.61 167.14,150.64 166.93,149.45 C166.77,148.49 166.62,147.53 166.46,146.58 C166.13,144.52 165.82,142.47 165.53,140.41 C164.96,136.45 164.42,132.48 163.95,128.51 C163.47,124.50 162.97,126.84 162.49,122.84 C162.26,120.82 162.02,118.80 161.74,116.79 C161.60,115.75 161.51,114.65 161.32,113.58 C161.38,113.57 161.44,113.56 161.50,113.55 C162.78,113.31 163.88,112.59 164.20,111.27 C164.51,110.00 164.14,108.54 163.88,107.30 C163.66,106.24 163.46,104.89 162.78,103.99 C165.18,100.93 166.74,97.08 167.74,93.38 C168.82,89.35 169.28,85.14 169.37,80.98 C169.48,76.15 169.12,71.35 168.29,66.63 C168.27,65.63 168.23,64.64 168.15,63.64 C167.43,53.84 164.38,42.24 154.70,37.66 C154.67,37.65 154.63,37.63 154.59,37.61 C153.83,36.70 152.88,35.89 152.12,35.13 C150.76,33.77 149.35,32.48 147.85,31.29 C144.88,28.93 141.62,27.04 138.23,25.34 C134.81,23.63 131.33,22.01 127.99,20.14 C125.07,18.50 122.45,16.53 119.96,14.31 C117.16,11.81 115.16,8.44 114.38,4.76 C114.34,4.57 114.06,4.62 114.05,4.80 C113.85,11.55 118.40,17.51 123.64,21.28 C129.90,25.78 137.46,27.91 143.81,32.28 C145.39,33.37 146.86,34.59 148.27,35.89 C146.12,35.67 143.93,35.81 141.91,36.40 C141.11,36.36 140.31,36.34 139.52,36.30 C137.70,36.21 135.87,36.13 134.05,36.05 C130.33,35.88 126.62,35.73 122.90,35.60 C115.60,35.34 108.31,35.15 101.01,35.02 C86.34,34.76 71.66,34.71 57.00,35.13 C53.02,35.25 32.12,34.46 30.18,34.68 C33.03,32.22 36.15,30.20 39.58,28.55 C43.88,26.48 48.32,25.11 52.90,23.85 C62.35,21.25 72.16,18.75 79.72,12.16 C81.60,10.53 83.26,8.64 84.63,6.56 C85.94,4.57 87.39,2.02 87.42,-0.41 C87.45,-2.14 85.05,-2.76 84.20,-1.29 C83.67,-0.37 83.40,0.63 82.97,1.59 C82.54,2.54 82.03,3.46 81.46,4.34 C80.34,6.06 78.96,7.60 77.45,8.99 C74.23,11.95 70.34,14.12 66.31,15.77 C57.15,19.49 47.14,21.06 38.47,25.98 C34.68,28.13 31.05,31.09 28.77,34.87 C28.40,34.93 28.03,35.00 27.67,35.07 C27.94,34.73 28.21,34.39 28.49,34.04 C28.67,33.82 28.39,33.52 28.17,33.72 C23.86,37.56 19.89,41.70 16.29,46.22 C12.84,50.55 9.63,55.08 7.36,60.14 C3.27,69.24 2.37,79.64 4.48,89.37 C5.06,92.02 5.87,94.62 6.90,97.13 C7.43,98.42 8.01,99.70 8.65,100.94" id="🖍-Ink" fill="#000000"></path></g><g id="head/Bangs" transform="translate(78.59, 38.04)" fill-rule="evenodd"><path d="M91.19,89.79 C90.35,88.55 88.33,79.56 87.04,78.18 C87.14,72.87 88.61,54.48 84.42,46.21 C85.30,45.32 87.64,37.64 87.04,34.73 C89.02,28.65 76.33,18.99 71.50,16.38 C49.06,4.34 16.54,17.63 6.34,39.93 C0.21,53.36 0.09,68.39 -0.60,82.84 C-0.68,85.94 -0.97,89.06 -0.96,92.14 C-0.52,94.86 1.63,97.62 -2.66e-13,99.88 C-1.80,101.13 -5.44,104.17 -3.82,105.89 C-2.87,106.68 -1.35,106.22 -0.32,106.98 C0.20,107.28 0.53,107.92 1.14,108.02 C6.75,107.80 10.71,107.79 16.34,107.56 C18.80,107.48 22.55,108.52 25.37,106.45 C35.25,111.94 31.12,103.97 33.12,98.29 C39.20,100.35 51.31,106.91 57.79,107.12 C63.06,107.77 67.98,104.70 73.16,105.40 C79.59,107.79 87.13,108.32 93.02,104.28 C94.49,103.22 96.13,104.45 97.98,103.30 C101.58,101.58 93.00,91.70 91.19,89.79 Z" id="🎨-Background" fill="#FFFFFF"></path><path d="M83.84,45.51 C83.76,45.05 84.39,44.71 84.63,45.17 C86.41,48.55 87.12,52.46 87.75,56.19 C88.38,59.96 88.80,63.75 88.83,67.57 C88.84,70.52 88.58,73.50 88.08,76.44 L88.14,76.65 L88.14,76.65 C88.25,77.04 88.36,77.42 88.48,77.81 L88.65,78.38 C88.99,79.49 89.30,80.60 89.65,81.71 C90.37,84.01 91.12,86.32 92.05,88.55 C92.95,90.73 94.05,92.83 95.36,94.79 C96.62,96.68 98.62,98.28 99.51,100.38 C99.82,101.11 99.36,102.08 98.50,101.96 C98.45,102.03 98.36,102.08 98.25,102.09 C97.59,102.15 96.96,102.09 96.30,102.03 C95.93,101.99 95.93,101.49 96.30,101.45 C96.58,101.43 96.86,101.40 97.13,101.39 C95.24,100.27 93.89,98.08 92.81,96.28 C91.42,93.98 90.37,91.46 89.52,88.91 C88.64,86.30 88.02,83.63 87.52,80.92 C87.46,80.61 87.41,80.30 87.36,79.98 C86.72,82.67 85.91,85.30 84.95,87.83 L84.81,88.18 C82.60,93.94 79.59,99.75 74.59,103.55 C74.36,103.73 74.13,103.89 73.90,104.05 L74.18,104.21 C74.46,104.37 74.74,104.53 75.02,104.66 C76.03,105.13 77.12,105.49 78.21,105.74 C80.45,106.27 82.80,106.12 85.09,106.19 C85.84,106.22 86.26,107.34 85.50,107.71 C82.97,108.91 80.25,108.65 77.64,107.81 C76.35,107.39 75.14,106.80 74.02,106.04 C73.56,105.72 73.02,105.33 72.57,104.88 C67.57,107.68 61.35,107.99 55.79,106.99 C52.89,106.47 50.09,105.52 47.63,103.89 C45.25,102.33 43.56,100.35 42.36,97.79 C42.25,97.56 42.55,97.28 42.73,97.50 C46.52,102.11 53.05,104.03 58.79,104.39 C61.85,104.59 64.98,104.43 67.93,103.51 C70.72,102.64 73.11,101.05 75.12,98.93 C79.17,94.63 81.60,88.78 83.35,83.22 C85.25,77.16 86.15,70.79 86.34,64.46 C86.43,61.25 86.31,58.01 85.81,54.84 C85.31,51.69 84.38,48.64 83.84,45.51 Z M26.99,18.24 C27.26,18.10 27.45,18.45 27.22,18.63 C22.50,22.26 18.26,26.86 14.84,31.72 C8.52,40.70 4.46,51.09 2.60,61.88 C1.49,68.26 1.21,74.73 1.32,81.19 C1.36,83.76 1.51,86.31 1.67,88.87 L1.85,91.71 C1.94,93.03 2.01,94.34 1.96,95.67 L1.94,95.98 C1.85,97.52 2.01,99.08 1.62,100.59 C1.42,101.36 0.33,101.48 -0.07,100.81 C-0.14,100.68 -0.22,100.54 -0.29,100.40 C-1.21,101.91 -2.41,103.26 -3.74,104.47 C-3.10,104.33 -2.46,104.24 -1.80,104.32 C-0.76,104.45 0.18,104.85 0.84,105.56 C1.50,105.26 2.17,105.06 2.95,105.05 C3.53,105.05 3.95,105.73 3.63,106.23 C2.98,107.24 2.07,107.80 1.03,108.35 C0.30,108.75 -0.57,108.41 -0.85,107.63 L-0.86,107.58 C-1.16,106.60 -2.78,106.76 -3.55,106.91 L-3.77,106.96 C-5.19,107.25 -6.58,107.63 -8.03,107.24 C-8.97,106.99 -9.21,105.58 -8.31,105.11 C-5.46,103.64 -3.08,101.66 -0.62,99.67 C-1.16,98.34 -1.47,96.85 -1.82,95.50 C-2.32,93.60 -2.47,91.55 -2.65,89.59 C-2.99,85.88 -3.12,82.12 -3.09,78.39 C-2.96,65.79 -0.81,53.15 4.69,41.73 C7.11,36.73 10.27,32.11 14.02,28.01 C17.74,23.94 22.09,20.73 26.99,18.24 Z M22.59,79.95 C22.44,79.75 22.73,79.48 22.93,79.61 C27.25,82.46 30.26,86.77 32.19,91.52 C34.11,96.21 35.29,101.96 33.40,106.86 C33.10,107.64 31.66,107.93 31.51,106.86 C30.85,102.09 30.75,97.30 29.30,92.66 C27.86,88.06 25.40,83.84 22.59,79.95 Z M19.23,95.46 C19.26,95.37 19.39,95.39 19.39,95.48 C19.28,97.16 19.21,98.87 18.99,100.54 C18.89,101.36 18.76,102.16 18.64,102.98 C18.52,103.81 18.54,104.65 18.06,105.36 C17.41,106.30 15.71,106.04 15.77,104.74 C15.81,103.85 16.22,103.27 16.60,102.49 C16.85,101.98 17.07,101.46 17.27,100.94 L17.58,100.15 C18.19,98.60 18.78,97.07 19.23,95.46 Z M11.48,91.00 C11.51,90.86 11.72,90.90 11.72,91.03 C11.60,93.41 11.33,95.77 10.91,98.12 C10.72,99.19 10.50,100.25 10.26,101.31 L10.16,101.77 C9.91,102.89 9.74,104.20 9.18,105.20 C8.61,106.20 7.26,105.47 7.44,104.47 C7.64,103.29 8.36,102.11 8.78,100.98 C9.17,99.94 9.51,98.88 9.82,97.82 C10.49,95.57 11.03,93.29 11.48,91.00 Z M25.91,97.61 L25.96,97.56 C26.16,97.35 26.45,97.49 26.55,97.72 C26.93,98.64 26.74,99.73 26.71,100.72 L26.71,100.93 C26.69,101.93 26.70,102.86 26.25,103.78 C25.70,104.89 24.26,104.20 24.15,103.21 C24.02,102.13 24.54,101.06 24.87,100.05 C25.08,99.40 25.23,98.73 25.55,98.15 C25.28,98.20 25.00,98.29 24.75,98.36 C24.64,98.39 24.60,98.22 24.71,98.19 C25.12,98.04 25.59,97.93 25.91,97.61 L25.91,97.61 Z M83.52,100.90 C83.39,100.75 83.55,100.55 83.72,100.63 C85.78,101.60 87.70,102.22 89.97,102.43 C90.96,102.51 90.96,104.06 89.97,103.97 C87.60,103.76 85.12,102.70 83.52,100.90 Z M11.12,68.42 C12.93,64.34 18.66,60.72 22.51,64.51 C22.58,64.58 22.51,64.74 22.40,64.70 C20.01,63.70 17.08,64.97 15.43,66.77 C14.12,68.20 13.33,70.03 13.17,71.97 C13.02,73.91 13.48,75.93 14.76,77.43 C15.44,78.21 16.35,78.96 17.42,79.05 C18.50,79.15 19.41,78.38 20.43,78.18 C21.20,78.02 21.78,78.51 21.86,79.27 C22.03,80.94 20.36,82.07 18.91,82.34 C17.35,82.64 15.76,82.32 14.42,81.47 C10.08,78.75 9.15,72.86 11.12,68.42 Z M51.80,28.46 C52.59,27.70 53.93,28.45 53.64,29.53 C53.02,31.81 51.71,33.75 50.25,35.58 C48.85,37.35 47.35,39.04 45.74,40.62 C44.14,42.19 42.41,43.64 40.58,44.94 L40.03,45.33 C38.74,46.24 37.37,47.16 35.92,47.82 C35.57,50.83 34.89,53.80 33.86,56.65 C32.86,59.38 31.59,62.03 30.06,64.51 L29.84,64.86 C28.42,67.13 26.73,69.66 24.33,70.90 C24.26,70.93 24.19,70.96 24.12,70.97 C24.65,71.33 25.11,71.78 25.38,72.42 C25.67,73.13 25.05,73.80 24.46,74.03 C23.21,74.53 21.99,73.69 20.87,72.80 C20.82,72.90 20.78,73.01 20.74,73.12 C20.49,73.83 20.41,74.56 19.77,75.03 C19.46,75.26 19.08,75.06 18.89,74.80 C18.25,73.97 18.91,72.83 19.47,72.15 C19.54,72.05 19.62,71.96 19.71,71.88 C19.47,71.71 19.24,71.55 19.02,71.43 C17.71,70.74 15.76,70.61 15.01,72.15 C14.95,72.27 14.77,72.21 14.77,72.09 C14.77,70.20 16.70,69.17 18.38,69.03 C19.61,68.93 20.80,69.36 21.90,69.86 L22.11,69.96 C22.52,70.15 22.94,70.33 23.35,70.53 C23.28,70.36 23.28,70.15 23.38,69.95 C24.65,67.47 26.83,65.45 28.41,63.15 C29.97,60.87 31.31,58.43 32.37,55.89 C33.41,53.41 34.22,50.86 34.79,48.26 C34.61,48.30 34.39,48.13 34.41,47.94 C34.44,47.46 34.67,47.04 35.08,46.86 C35.52,44.41 35.75,41.92 35.74,39.41 C35.74,39.22 36.02,39.23 36.04,39.41 C36.23,41.64 36.25,43.90 36.08,46.13 C37.14,45.16 38.26,44.24 39.27,43.24 C40.80,41.74 42.29,40.19 43.71,38.59 C45.17,36.96 46.55,35.27 47.81,33.48 L48.47,32.54 C49.48,31.10 50.52,29.68 51.80,28.46 Z M49.81,12.39 C58.51,11.85 67.79,12.92 75.60,17.00 C79.89,19.24 83.21,22.63 85.58,26.85 C86.99,29.37 88.06,32.15 88.47,35.02 C88.89,37.97 88.40,40.59 86.52,42.94 C85.77,43.87 84.51,42.83 84.70,41.88 C85.82,36.05 84.00,30.30 80.76,25.48 C76.06,18.49 67.85,15.38 59.86,14.00 C55.94,13.32 51.96,13.03 47.98,13.17 C44.94,13.28 41.83,13.56 38.94,14.58 C38.82,14.62 38.77,14.44 38.89,14.39 C42.33,13.08 46.16,12.62 49.81,12.39 Z M62.71,25.55 C63.16,25.27 63.70,25.56 63.86,26.02 C64.40,27.64 63.26,29.79 62.50,31.19 C61.64,32.78 60.53,34.27 59.39,35.67 C57.10,38.46 54.10,40.79 50.80,42.26 C50.60,42.35 50.36,42.10 50.55,41.93 C53.10,39.55 55.41,37.00 57.42,34.14 C58.40,32.74 59.22,31.26 60.01,29.74 C60.71,28.37 61.37,26.40 62.71,25.55 Z M77.33,27.47 C77.62,26.47 79.25,26.64 79.18,27.72 C79.00,30.50 77.69,33.30 76.26,35.67 C74.79,38.10 72.93,40.27 70.79,42.14 C70.69,42.23 70.54,42.09 70.64,41.99 C72.48,39.97 73.97,37.67 75.07,35.17 C76.17,32.67 76.59,30.06 77.33,27.47 Z M69.23,27.01 C69.54,26.15 71.04,26.21 70.94,27.25 C70.69,30.09 69.02,33.08 67.47,35.43 C65.83,37.93 63.74,40.13 61.39,41.97 C61.31,42.04 61.18,41.93 61.27,41.85 C63.37,39.87 65.08,37.57 66.43,35.02 C67.12,33.71 67.70,32.36 68.15,30.95 C68.58,29.66 68.77,28.29 69.23,27.01 Z" id="🖍-Ink" fill="#000000"></path></g><g id="face/Monster" transform="translate(112.18, 77.35)" fill="#000000" fill-rule="evenodd"><path d="M21.37,44.53 C22.90,44.23 24.81,44.87 26.34,45.16 L26.45,45.18 C28.31,45.50 30.15,45.89 32.03,46.08 C33.82,46.27 35.64,46.30 37.43,46.09 C38.29,45.99 39.14,45.83 39.98,45.60 C40.33,45.50 40.69,45.40 41.04,45.28 L41.08,45.26 C41.34,45.16 42.03,44.76 42.02,44.98 C42.22,44.75 42.49,44.59 42.78,44.51 C43.20,44.41 43.73,44.51 44.08,44.80 C44.54,44.44 45.22,44.70 45.52,45.13 C46.05,45.87 45.88,46.74 45.81,47.59 L45.80,47.67 C45.74,48.48 45.66,49.28 45.55,50.08 L45.50,50.42 C45.33,51.61 45.29,53.57 43.85,53.96 C42.71,54.26 41.67,53.09 40.94,52.17 L40.54,51.65 C40.07,51.05 39.64,50.43 39.29,49.74 C39.13,49.43 38.98,49.11 38.84,48.79 C38.83,48.75 38.82,48.71 38.80,48.67 C36.70,48.96 34.54,48.92 32.43,48.64 C31.09,48.46 29.77,48.21 28.48,47.87 L27.89,48.92 C27.20,50.16 26.51,51.39 25.78,52.60 L25.72,52.69 C25.04,53.78 23.89,54.87 22.54,54.05 C21.33,53.32 21.28,51.66 21.15,50.42 C21.07,49.60 21.00,48.76 20.96,47.93 L20.95,47.58 C20.93,46.77 20.80,45.83 21.11,45.08 C21.15,44.97 21.31,44.89 21.41,45.00 C22.05,45.79 22.25,47.01 22.53,47.98 C22.84,49.05 23.29,50.23 23.45,51.34 L23.50,51.26 L23.50,51.26 C23.66,50.96 23.82,50.66 23.98,50.36 L24.47,49.45 C24.91,48.64 25.36,47.83 25.81,47.02 C25.30,46.83 24.79,46.62 24.28,46.41 L23.12,45.92 C22.46,45.65 21.79,45.33 21.29,44.82 C21.21,44.73 21.24,44.55 21.37,44.53 Z M43.28,47.50 C42.15,47.97 40.97,48.30 39.77,48.52 C39.85,48.60 39.93,48.68 40.00,48.76 C40.28,49.09 40.58,49.40 40.88,49.71 L41.06,49.90 C41.52,50.37 42.21,51.15 42.92,51.60 L42.96,51.40 C42.96,51.36 42.97,51.33 42.97,51.31 L43.05,50.64 C43.06,50.53 43.07,50.41 43.08,50.30 C43.14,49.70 43.19,49.09 43.24,48.48 C43.27,48.16 43.28,47.83 43.28,47.50 Z M29.82,8.43 C32.53,7.27 35.74,7.82 38.08,9.57 C40.47,11.36 41.51,14.27 41.65,17.17 C43.54,15.56 46.26,16.78 47.85,18.29 C49.69,20.04 50.62,22.67 50.19,25.17 C49.76,27.66 47.96,29.86 45.52,30.60 C44.36,30.96 43.06,30.96 41.88,30.63 C41.48,30.52 41.00,30.35 40.55,30.11 C40.57,30.21 40.60,30.31 40.62,30.42 C41.21,32.90 41.54,35.68 40.66,38.13 C39.25,42.07 34.23,44.28 31.10,40.78 C29.87,39.41 28.92,37.26 28.99,35.39 C29.03,34.40 29.59,33.27 30.74,33.33 C31.63,33.39 32.05,34.13 31.82,34.92 L31.81,34.97 C31.33,36.48 32.15,38.66 33.35,39.69 C35.18,41.27 37.70,39.89 38.70,38.04 C39.87,35.88 39.73,33.12 39.35,30.77 C38.99,28.46 38.17,26.35 37.30,24.22 C37.21,24.24 37.11,24.25 37.02,24.26 C35.29,24.50 31.78,24.59 29.87,23.34 C30.08,25.27 29.67,27.25 28.58,28.89 C27.36,30.71 25.51,31.68 23.37,31.97 C21.29,32.26 18.88,32.32 16.82,31.82 C12.45,30.77 10.91,25.37 12.23,21.47 C13.01,19.16 15.20,17.09 17.62,16.56 C18.87,15.74 20.55,15.50 22.00,15.61 C24.15,15.78 26.28,16.71 27.72,18.34 C28.27,18.97 28.73,19.68 29.08,20.44 C29.19,20.34 29.33,20.27 29.48,20.24 C29.73,20.18 29.94,20.17 30.17,20.25 C30.29,20.29 30.46,20.44 30.56,20.54 L30.80,20.81 C31.08,21.14 31.35,21.42 31.86,21.63 C33.28,22.21 35.20,22.33 36.71,22.21 C40.56,21.91 40.07,16.82 39.13,14.20 C38.00,11.10 34.79,9.17 31.52,9.72 C30.11,9.96 28.77,10.71 27.74,11.68 C26.59,12.78 26.10,14.09 25.41,15.48 C25.37,15.56 25.23,15.54 25.21,15.45 C24.65,12.54 27.33,9.49 29.82,8.43 Z M9.34,31.93 C9.22,31.79 9.37,31.55 9.54,31.66 C10.77,32.49 12.13,33.09 13.61,33.26 C14.31,33.33 15.01,33.34 15.70,33.23 C16.29,33.14 16.82,32.96 17.41,33.12 C17.73,33.21 17.78,33.57 17.59,33.80 C16.70,34.86 14.51,34.58 13.31,34.30 C11.77,33.93 10.37,33.14 9.34,31.93 Z M50.58,29.99 C51.18,29.62 51.90,30.36 51.54,30.95 C50.63,32.48 47.98,32.61 46.44,32.24 C46.32,32.21 46.35,32.02 46.47,32.03 C47.36,32.05 48.15,31.88 48.91,31.42 C49.56,31.02 49.95,30.38 50.58,29.99 Z M21.22,17.75 L21.10,17.75 C19.70,17.78 18.41,18.31 17.06,18.60 C16.94,18.62 16.83,18.61 16.73,18.57 C15.08,19.67 13.94,21.40 13.79,23.68 C13.68,25.25 14.07,26.97 15.00,28.26 C16.07,29.74 17.78,29.96 19.47,30.01 L19.65,30.01 C22.84,30.07 26.35,29.88 27.49,26.31 C28.33,23.67 27.43,20.46 25.09,18.87 C23.95,18.11 22.59,17.75 21.22,17.75 Z M46.95,19.65 L46.86,19.54 C45.61,18.10 43.62,16.79 41.66,17.52 L41.67,17.76 C41.67,17.80 41.67,17.84 41.67,17.88 C41.66,20.66 40.59,23.25 37.94,24.06 C38.65,25.07 39.22,26.20 39.68,27.36 C39.84,27.26 40.04,27.19 40.26,27.17 C41.19,27.07 41.73,27.95 42.53,28.27 C43.29,28.58 44.15,28.66 44.94,28.50 C46.69,28.16 47.91,26.65 48.34,24.98 C48.83,23.09 48.19,21.11 46.95,19.65 Z M20.39,21.99 C20.98,21.00 22.41,21.14 22.99,22.01 L23.01,22.05 L23.02,22.05 C23.98,23.29 23.52,25.25 22.12,25.95 C21.01,26.51 19.59,26.36 18.85,25.27 C18.68,25.03 18.57,24.74 18.53,24.45 C18.51,24.25 18.52,24.05 18.57,23.86 L18.56,23.90 C18.58,23.80 18.61,23.65 18.62,23.61 C18.72,23.21 18.96,22.78 19.25,22.49 C19.55,22.19 19.97,22.01 20.39,21.99 Z M44.30,20.96 C44.82,20.96 45.28,21.18 45.65,21.52 C46.18,22.01 46.25,22.71 46.14,23.37 C46.10,23.57 46.05,23.77 46.00,23.97 L45.96,24.15 C45.95,24.18 45.94,24.21 45.93,24.24 C45.90,24.36 45.85,24.48 45.79,24.59 C45.57,25.41 44.68,25.81 43.89,25.63 C43.52,25.55 43.15,25.24 42.97,24.92 C42.90,24.81 42.86,24.71 42.83,24.60 L42.68,24.24 L42.68,24.24 C42.65,24.15 42.63,24.06 42.61,23.97 C42.56,23.77 42.51,23.57 42.47,23.37 C42.35,22.69 42.45,22.04 42.96,21.52 C43.30,21.18 43.82,20.96 44.30,20.96 Z M32.95,13.85 C33.85,13.73 34.76,14.14 35.22,14.93 C35.62,15.62 35.62,16.54 35.22,17.23 L35.19,17.29 L35.19,17.29 C34.45,18.55 32.73,18.72 31.70,17.74 L31.65,17.69 L31.65,17.69 C30.98,17.06 30.83,16.02 31.18,15.20 C31.49,14.46 32.15,13.95 32.95,13.85 Z" id="🖍-Ink"></path></g><g id="facial-hair/*-None" transform="translate(104.58, 109.48)"></g><g id="accessories/Glasses-3" transform="translate(88.52, 88.98)" fill="#000000" fill-rule="evenodd"><path d="M77.56,20.78 C76.14,22.69 73.50,23.30 71.07,23.09 C65.83,22.58 64.17,16.62 64.00,11.99 C67.52,12.98 63.71,5.97 75.73,5.20 C79.97,4.85 78.80,7.41 80.67,9.28 C80.64,13.21 79.98,17.47 77.56,20.78 M52.58,16.27 C49.48,30.78 32.52,27.33 30.74,14.25 C32.38,13.08 31.95,10.22 33.99,9.18 C37.23,7.11 41.28,7.19 44.96,7.24 C49.66,7.57 51.00,9.52 53.42,11.64 C53.30,13.06 52.97,14.74 52.58,16.27 M84.28,2.80 C84.11,2.77 83.93,2.74 83.76,2.71 C83.62,2.64 83.46,2.58 83.28,2.54 C82.86,2.43 82.43,2.36 82.01,2.32 C75.99,0.97 62.04,2.89 61.47,8.04 C59.55,8.68 57.89,8.11 55.66,8.16 C53.97,1.08 24.69,2.08 23.28,6.35 C23.28,6.35 23.27,6.35 23.27,6.35 C21.91,5.93 19.92,6.03 18.37,5.96 C15.06,5.89 11.75,6.19 8.52,6.89 C2.46,7.85 -5.81,8.98 -1.60,16.54 C-1.59,16.54 -1.59,16.55 -1.59,16.55 L-1.59,16.55 C-0.87,17.29 0.37,16.69 0.41,15.68 C-1.00,12.10 2.19,11.67 4.66,10.64 C10.78,8.44 17.02,8.13 23.35,8.81 C23.83,9.37 24.55,9.86 25.32,10.12 C29.55,10.82 27.32,13.97 30.00,14.42 C29.51,25.38 42.80,31.36 50.51,24.16 C53.58,21.15 54.32,16.69 55.03,12.67 C55.41,12.59 55.65,12.38 55.79,12.11 C56.69,11.20 57.26,10.37 59.06,10.12 C60.85,9.87 62.23,10.37 62.42,10.52 C62.47,10.62 62.52,10.71 62.58,10.81 C62.66,10.95 62.77,11.06 62.90,11.15 C61.12,22.06 69.59,28.96 78.14,23.30 C81.85,19.81 82.64,14.46 82.79,9.68 C83.30,9.38 83.62,8.79 83.44,8.05 C83.20,7.03 83.76,6.14 84.66,5.70 C85.83,5.12 85.62,3.02 84.28,2.80" id="🖍-Ink"></path></g></g></g></g></g></svg>