<?xml version="1.0" encoding="UTF-8"?><svg width="240px" height="324px" viewBox="0 0 240 324" version="1.1" xmlns="http://www.w3.org/2000/svg" xmlns:xlink="http://www.w3.org/1999/xlink"><title>peep-66</title><desc>Created with Sketch.</desc><g id="Introduction" stroke="none" stroke-width="1" fill="none" fill-rule="evenodd"><g id="variations" transform="translate(-2286.00, -758.00)"><g id="images" transform="translate(126.00, 110.00)"><g id="a-person/bust" transform="translate(2160.00, 648.00)"><g id="body/Tee-Arms-Crossed" transform="translate(31.06, 135.05)" fill-rule="evenodd"><path d="M139.42,46.07 C137.59,45.42 135.82,44.66 134.21,43.55 C129.56,40.09 126.54,34.88 123.67,29.95 C119.64,22.78 116.77,15.14 114.79,7.17 C113.93,3.74 113.65,-0.23 111.71,-3.27 C107.31,-9.62 94.43,-8.80 87.59,-7.68 C83.01,-6.87 82.07,-1.75 81.03,2.05 C80.16,5.20 79.59,8.39 79.12,11.62 C77.99,12.37 76.71,12.97 75.49,13.50 C62.21,17.57 59.87,25.12 54.80,36.79 C46.23,53.75 22.99,60.39 19.48,80.45 C17.21,93.70 23.65,106.17 30.28,117.18 C36.46,129.21 45.08,134.98 58.82,132.14 C71.70,129.25 84.08,124.42 96.73,120.68 C102.86,119.17 108.98,115.25 115.43,116.62 C128.72,119.60 142.37,121.00 155.98,120.62 C175.10,121.39 175.10,103.04 173.13,88.82 C171.76,66.70 160.61,52.50 139.42,46.07 L139.42,46.07 Z" id="🎨-Background" fill="#FFFFFF"></path><path d="M140.70,78.08 C142.30,79.13 143.64,80.74 144.72,82.42 C140.22,81.95 135.72,81.41 131.24,80.80 C131.82,80.42 132.42,80.06 133.02,79.71 C135.24,78.46 138.23,76.44 140.70,78.08 Z M65.89,91.39 C65.07,91.07 64.75,89.81 64.43,89.09 C63.42,86.83 62.50,84.53 61.54,82.24 C65.18,81.21 68.71,80.06 72.48,79.50 C76.53,78.91 80.63,78.77 84.72,78.90 C93.00,79.17 101.20,80.52 109.33,81.97 C117.46,83.42 125.59,84.82 133.77,85.91 C141.79,86.98 149.83,87.76 157.89,88.45 C159.46,88.58 162.07,89.15 163.33,87.91 C164.32,86.94 164.36,85.14 163.11,84.34 C162.33,83.85 161.20,83.84 160.32,83.73 C159.20,83.58 158.08,83.49 156.95,83.41 C156.49,83.38 156.04,83.36 155.58,83.33 C159.26,81.94 163.10,81.18 167.09,81.39 C167.31,82.76 168.33,84.18 168.89,85.31 C169.86,87.28 170.62,89.28 171.11,91.42 C172.15,95.91 172.20,100.57 171.90,105.14 C171.63,108.96 171.06,113.18 168.06,115.88 C165.80,117.93 162.60,118.68 159.64,118.92 C156.19,119.20 152.69,118.90 149.28,118.44 C144.48,117.79 139.67,116.94 134.97,115.79 C125.87,113.56 117.15,110.02 109.10,105.22 C105.18,102.88 101.43,100.25 97.46,98.00 C93.40,95.70 89.09,93.92 84.56,92.82 C79.49,91.58 74.19,91.05 68.98,91.36 C68.08,91.41 66.77,91.74 65.89,91.39 Z M60.02,89.10 C60.55,90.82 60.96,92.80 62.10,94.25 C63.22,95.69 64.92,96.20 66.68,96.33 C68.80,96.48 70.95,96.38 73.08,96.46 C77.44,96.62 81.74,97.33 85.91,98.63 C89.80,99.84 93.40,101.73 96.88,103.83 C100.09,105.77 103.21,107.85 106.42,109.78 C105.57,110.18 104.72,110.60 103.87,110.97 C102.09,111.74 100.29,112.49 98.49,113.22 C94.94,114.66 91.37,116.06 87.76,117.36 C80.49,119.99 73.10,122.29 65.62,124.24 C62.05,125.17 58.43,126.26 54.73,126.42 C51.44,126.55 48.40,125.63 45.75,123.67 C40.25,119.62 35.87,113.76 32.34,107.99 C30.24,104.56 28.40,100.96 26.89,97.23 C26.12,95.35 25.43,93.43 24.80,91.50 C24.51,90.59 24.23,89.68 23.96,88.76 C23.85,88.35 23.74,87.95 23.63,87.54 C29.25,85.83 34.94,84.28 40.76,83.42 C43.87,82.96 47.02,82.73 50.16,82.76 C51.72,82.78 53.28,82.86 54.83,83.02 C55.66,83.11 56.50,83.22 57.32,83.36 C57.67,83.42 58.02,83.50 58.37,83.56 C58.91,85.41 59.45,87.26 60.02,89.10 Z M176.23,81.75 C176.53,81.14 176.66,80.53 176.77,79.87 C176.85,79.36 177.07,78.64 176.88,77.98 C176.66,77.24 176.07,76.58 175.65,75.95 C175.19,75.25 174.72,74.55 174.26,73.85 C173.33,72.45 172.40,71.05 171.48,69.65 C167.70,63.94 163.94,58.21 160.18,52.48 C156.85,47.40 153.57,42.27 150.13,37.25 C147.19,32.96 143.99,28.75 139.96,25.41 C134.88,21.20 128.82,19.21 122.49,17.66 C121.80,16.94 120.88,16.55 119.89,16.63 C118.50,15.05 117.39,13.94 116.89,11.93 C116.65,10.97 116.72,8.26 115.79,7.69 C114.67,7.01 114.09,7.91 113.78,8.92 C112.75,12.30 113.93,16.84 116.65,20.23 C115.50,24.18 113.99,29.80 111.28,32.97 C108.39,36.36 104.38,37.42 100.06,37.49 C91.81,37.62 83.58,34.56 77.29,29.25 C75.38,27.63 73.61,25.83 72.00,23.91 C70.80,22.47 69.37,20.25 68.43,18.57 C68.43,17.92 67.66,17.24 75.51,16.71 C83.37,16.18 83.97,5.42 84.14,3.95 C84.29,2.76 84.89,0.92 84.05,-0.05 C83.70,-0.47 82.97,-0.53 82.51,-0.25 C81.66,0.28 81.39,1.63 81.12,2.54 C80.74,3.83 79.52,11.80 77.20,12.72 C76.12,13.16 74.87,13.16 73.72,13.24 C72.30,13.34 70.88,13.42 69.47,13.58 C68.95,13.64 68.38,13.81 67.87,13.82 C67.53,13.82 67.19,13.66 66.86,13.54 C65.77,13.16 64.68,13.45 63.56,13.60 C53.62,14.93 43.39,17.98 34.91,23.47 C27.44,28.30 22.18,35.26 18.71,43.39 C15.16,51.69 13.13,60.66 11.43,69.49 C10.86,72.45 10.36,75.43 9.93,78.41 C9.52,81.29 9.00,84.24 8.88,87.15 C8.83,88.31 9.11,89.38 9.53,90.43 C10.01,91.61 11.13,92.08 12.21,92.63 C14.59,93.85 17.09,94.79 19.67,95.46 C21.25,98.33 22.58,101.31 23.64,104.40 C23.25,105.19 23.24,106.36 23.16,107.12 C22.97,109.02 22.89,110.92 22.88,112.83 C22.84,116.65 23.07,120.46 23.25,124.28 C23.43,128.15 24.04,143.41 24.14,145.28 C24.22,146.72 24.11,148.75 24.88,150.03 C26.05,152.01 28.94,151.94 30.28,150.34 C63.56,157.50 126.11,155.34 151.31,151.74 C154.59,151.27 153.56,151.79 154.39,150.96 C155.02,150.34 155.55,149.28 155.72,148.42 C155.95,147.28 155.58,146.24 154.93,145.32 C154.24,144.35 154.11,142.77 153.86,141.62 C153.25,138.88 152.95,126.88 152.67,125.55 C152.58,125.14 152.50,124.70 152.40,124.26 C157.02,124.70 161.83,124.70 166.23,123.15 C168.72,122.27 171.05,120.90 172.84,118.93 C175.01,116.55 176.21,113.55 176.83,110.42 C177.63,106.39 177.80,102.21 177.64,98.11 C177.43,93.26 176.62,88.34 174.63,83.89 C175.28,83.28 175.83,82.55 176.23,81.75 Z" id="🖍-Ink" fill="#000000"></path></g><g id="head/Buns" transform="translate(78.59, 38.04)" fill-rule="evenodd"><path d="M83.92,36.71 C76.95,26.84 59.44,25.72 48.38,25.79 C26.53,25.60 21.96,50.73 20.81,68.33 C18.48,68.73 16.22,69.54 14.68,71.38 C12.81,73.61 12.16,77.44 13.92,79.93 C15.08,81.59 16.92,82.14 18.85,82.23 C25.23,81.63 26.54,87.31 29.68,91.58 C37.74,102.47 51.70,106.01 64.51,106.06 C68.86,106.18 74.10,106.50 76.89,102.41 C85.69,87.15 85.88,66.91 86.42,49.62 C86.50,45.19 86.48,40.51 83.92,36.71 L83.92,36.71 Z" id="🎨-Background" fill="#FFFFFF"></path><path d="M45.34,-4.69 C46.13,-5.88 47.86,-6.34 49.06,-5.46 C50.05,-6.08 51.31,-5.95 52.21,-5.19 C53.29,-5.84 54.64,-5.58 55.49,-4.68 C56.85,-5.43 58.65,-4.88 59.38,-3.47 C60.75,-3.62 62.05,-2.72 62.41,-1.42 C62.48,-1.36 62.54,-1.31 62.61,-1.25 C63.43,-1.21 64.21,-0.89 64.67,-0.13 C64.91,0.26 65.01,0.71 65.00,1.15 C65.49,1.41 65.89,1.85 66.06,2.42 C66.22,2.95 66.16,3.47 65.95,3.93 C66.63,4.66 66.81,5.80 66.33,6.71 C66.53,7.06 66.63,7.47 66.62,7.89 C66.59,8.52 66.30,9.02 65.91,9.46 C66.40,10.35 66.21,11.51 65.40,12.14 C64.94,13.78 63.76,14.88 61.96,15.55 C61.05,15.89 60.11,16.15 59.14,16.34 C63.00,16.86 66.80,17.77 70.45,19.14 C70.65,19.21 70.82,19.18 70.95,19.10 L70.95,19.10 L71.19,19.22 C72.19,19.77 73.18,20.37 74.14,21.01 C74.14,20.90 74.14,20.80 74.14,20.69 C74.12,19.82 74.21,18.96 74.45,18.14 C74.14,17.73 73.92,17.26 73.79,16.77 C73.49,15.57 74.07,13.85 75.12,13.43 C75.49,12.41 76.32,11.68 77.35,11.39 C77.43,11.31 77.52,11.24 77.61,11.18 C77.83,11.03 78.06,10.93 78.31,10.87 C78.43,10.31 78.74,9.81 79.25,9.45 C79.97,8.94 80.83,8.89 81.58,9.17 C81.72,9.12 81.86,9.08 82.01,9.04 C83.22,8.01 85.10,8.09 86.16,9.29 C86.89,8.96 87.75,8.94 88.49,9.39 C89.09,9.75 89.46,10.33 89.61,10.96 C90.74,11.00 91.77,11.75 92.10,12.87 C93.14,12.99 93.99,13.80 94.17,14.83 C94.84,14.92 95.45,15.23 95.82,15.85 C96.00,16.14 96.09,16.45 96.11,16.77 C96.45,16.93 96.75,17.17 96.98,17.49 C97.38,18.05 97.45,18.71 97.31,19.32 L97.31,19.32 L97.41,19.52 C97.52,19.75 97.61,20.00 97.68,20.25 C98.03,20.76 98.20,21.38 98.16,22.00 C98.24,22.26 98.31,22.52 98.37,22.79 C98.61,23.82 98.70,24.93 98.53,25.99 C98.45,26.50 98.34,27.00 98.17,27.49 C98.15,27.58 98.13,27.67 98.10,27.75 C98.00,28.13 97.89,28.51 97.74,28.88 C97.39,29.35 97.01,29.81 96.62,30.26 C96.29,30.75 95.92,31.21 95.49,31.63 C95.19,31.93 94.85,32.21 94.49,32.46 C93.78,33.03 92.99,33.47 92.15,33.76 C91.99,33.73 91.84,33.71 91.69,33.68 C90.73,34.21 89.22,34.27 88.29,34.27 C87.27,34.26 86.34,34.01 85.57,33.52 C85.66,33.70 85.75,33.88 85.84,34.06 C85.81,34.07 85.79,34.08 85.77,34.10 C85.60,33.82 85.41,33.57 85.19,33.40 C84.89,33.15 84.41,33.13 84.20,33.52 C84.19,33.53 84.19,33.54 84.19,33.54 C84.08,33.75 84.09,33.95 84.18,34.12 C84.21,34.16 84.24,34.21 84.27,34.25 C84.28,34.27 84.29,34.28 84.30,34.29 L84.30,34.29 C84.59,34.52 84.87,35.09 85.14,35.65 C85.32,35.97 85.49,36.30 85.66,36.63 C85.75,36.77 85.92,36.89 86.10,36.93 C86.06,37.20 86.19,37.47 86.39,37.61 C86.44,37.50 86.50,37.39 86.59,37.28 C87.50,36.05 89.28,35.51 90.62,36.08 C90.89,36.03 91.16,35.99 91.43,35.97 C92.32,35.91 93.22,35.98 94.09,36.17 C94.37,36.33 94.63,36.51 94.87,36.72 C95.07,36.90 95.26,37.09 95.44,37.28 C95.58,37.38 95.71,37.49 95.84,37.61 C96.38,37.89 96.78,38.45 97.11,39.00 C97.37,39.37 97.60,39.77 97.80,40.19 C98.72,41.76 99.78,43.72 98.95,45.27 C99.04,45.44 99.11,45.62 99.14,45.82 C99.26,46.46 99.02,46.95 98.71,47.43 C98.75,47.76 98.77,48.08 98.79,48.36 C98.89,49.94 98.53,52.12 97.13,52.76 C97.11,52.79 97.09,52.82 97.06,52.84 C96.96,53.02 96.79,53.17 96.58,53.28 C96.52,53.32 96.47,53.35 96.41,53.38 C96.39,53.40 96.36,53.42 96.34,53.44 L96.34,53.44 L96.42,53.35 C95.65,53.66 94.90,53.72 94.11,53.63 C93.61,53.80 93.12,53.94 92.71,54.04 C91.41,54.36 89.73,54.62 88.46,54.07 C88.09,53.91 87.79,53.70 87.56,53.45 C87.58,54.43 87.61,55.41 87.65,56.39 C87.73,58.87 87.73,61.35 87.71,63.83 C87.69,66.62 87.61,69.41 87.46,72.20 C87.39,73.60 87.28,75.00 87.13,76.40 C87.00,77.76 86.86,79.11 86.68,80.47 C86.28,83.25 85.62,86.05 84.80,88.74 C84.45,89.91 84.07,91.09 83.63,92.24 C83.44,92.77 83.24,93.30 83.03,93.82 C81.90,96.54 80.50,99.17 78.61,101.44 C77.57,102.68 76.43,103.79 75.15,104.73 C74.13,105.53 73.02,106.20 71.80,106.74 C69.18,107.88 66.26,108.14 63.42,108.10 C62.32,108.08 61.15,107.88 60.06,107.70 C59.22,107.56 58.37,107.38 57.54,107.17 C56.79,106.99 56.06,106.79 55.33,106.56 C54.46,106.33 53.62,105.99 52.83,105.57 L52.83,105.57 L51.42,105.03 C50.83,104.81 50.25,104.55 49.70,104.25 L49.70,104.25 L48.16,103.53 C47.53,103.22 46.91,102.89 46.31,102.52 C46.24,102.48 46.17,102.43 46.14,102.36 C45.99,102.28 45.83,102.19 45.67,102.11 C45.65,102.09 45.67,102.02 45.70,101.95 C45.67,101.89 45.68,101.83 45.75,101.77 C45.81,101.72 45.90,101.74 45.99,101.77 C45.99,101.76 45.98,101.75 45.97,101.75 C45.87,101.69 45.76,101.64 45.66,101.58 C45.56,101.52 45.54,101.37 45.64,101.30 C45.67,101.27 45.70,101.26 45.73,101.26 C45.73,101.26 45.72,101.26 45.72,101.26 C45.70,101.25 45.72,101.19 45.75,101.12 C45.69,101.05 45.68,100.97 45.77,100.90 C45.91,100.79 46.23,100.99 46.34,101.06 C46.48,101.13 46.61,101.20 46.74,101.27 C46.75,101.25 46.77,101.24 46.80,101.22 C46.60,101.12 46.41,101.01 46.21,100.90 C46.09,100.84 45.94,100.71 46.09,100.58 C46.22,100.48 46.55,100.66 46.70,100.74 C46.72,100.73 46.74,100.72 46.77,100.72 C46.70,100.68 46.63,100.64 46.56,100.60 C46.37,100.50 46.50,100.17 46.70,100.28 L46.70,100.28 L46.77,100.32 C46.91,100.31 47.11,100.43 47.20,100.48 C47.86,100.89 48.55,101.26 49.26,101.57 C49.74,101.80 50.23,102.02 50.71,102.24 C51.19,102.48 51.68,102.68 52.19,102.86 C53.46,103.35 54.74,103.81 56.04,104.24 C57.85,104.74 59.73,105.14 61.61,105.29 C61.86,105.31 62.10,105.33 62.35,105.34 C62.89,105.33 63.42,105.33 63.96,105.33 C65.00,105.22 66.04,105.11 67.08,105.01 C67.44,104.96 67.80,104.89 68.15,104.82 C68.33,104.77 68.52,104.73 68.70,104.68 C68.76,104.67 68.82,104.65 68.89,104.64 C69.33,104.53 69.77,104.38 70.21,104.22 C70.48,104.11 70.76,103.99 71.03,103.86 C71.92,103.45 72.80,102.90 73.63,102.27 L73.63,102.27 L76.74,99.17 L77.69,97.88 C78.91,96.12 79.88,94.17 80.69,92.18 L80.69,92.18 L81.97,88.49 C82.10,88.04 82.23,87.60 82.35,87.15 C82.59,86.16 82.83,85.16 83.08,84.16 C83.16,83.80 83.23,83.43 83.31,83.07 C83.78,80.81 84.04,78.51 84.26,76.21 C84.66,72.03 84.77,67.84 84.80,63.64 C84.82,61.13 84.80,58.62 84.75,56.12 C84.72,54.66 84.70,53.21 84.68,51.76 C84.65,50.21 84.62,48.67 84.58,47.12 C84.58,47.09 84.59,47.06 84.61,47.04 C84.60,46.85 84.60,46.67 84.60,46.49 C84.60,46.37 84.64,46.32 84.71,46.30 C84.70,45.20 84.69,44.10 84.69,43.01 C84.69,42.93 84.72,42.89 84.77,42.86 L84.77,42.86 L84.77,42.58 C84.58,41.82 84.33,41.07 84.01,40.35 C83.90,40.09 83.78,39.84 83.64,39.60 C83.48,39.23 83.26,38.89 82.99,38.59 C82.77,38.21 82.50,37.88 82.18,37.59 C82.05,37.49 81.92,37.40 81.79,37.31 C81.68,37.25 81.53,37.15 81.39,37.04 C81.13,36.88 80.89,36.73 80.63,36.57 C80.49,36.50 80.58,36.31 80.69,36.25 L80.69,36.25 C80.66,36.24 80.64,36.23 80.61,36.20 C80.31,35.91 79.99,35.64 79.66,35.39 C79.60,35.41 79.53,35.41 79.48,35.36 C79.28,35.18 79.09,35.00 78.88,34.83 C78.43,34.54 77.95,34.26 77.46,34.02 C76.66,33.65 75.84,33.32 75.01,33.05 C74.83,32.99 74.65,32.94 74.47,32.88 C74.21,32.87 73.95,32.86 73.69,32.85 C64.12,32.43 54.52,32.60 44.97,33.37 C42.62,33.56 40.27,33.79 37.92,34.05 C35.86,34.28 33.38,34.27 31.48,35.22 C31.40,35.26 31.33,35.30 31.25,35.35 C31.40,36.30 31.79,37.22 32.13,38.12 C32.65,39.50 33.11,40.91 33.07,42.40 C33.03,43.45 32.81,44.45 32.49,45.43 C32.32,46.83 31.89,48.18 31.42,49.50 C29.15,56.03 27.91,62.71 28.04,69.64 C28.04,69.82 28.00,69.98 27.93,70.12 C27.97,70.43 28.01,70.73 28.06,71.03 C28.25,72.20 26.71,72.78 26.18,72.00 C26.14,72.04 26.09,72.06 26.05,72.07 C25.91,72.08 25.69,71.86 25.63,71.76 C25.54,71.61 25.46,71.46 25.36,71.32 C25.35,71.31 25.34,71.31 25.33,71.30 C25.39,71.42 25.45,71.54 25.50,71.65 C25.59,71.84 25.24,71.93 25.13,71.76 C25.04,71.61 24.94,71.47 24.85,71.33 C24.79,71.37 24.73,71.38 24.69,71.31 C24.35,70.75 23.96,70.27 23.53,69.86 C22.85,69.31 22.11,68.97 21.26,68.77 C20.60,68.68 19.92,68.67 19.26,68.75 C18.51,68.84 17.71,69.03 17.03,69.37 C16.48,69.75 15.92,70.14 15.36,70.52 C15.22,70.66 15.09,70.81 14.97,70.97 C14.58,71.47 14.27,72.00 14.02,72.57 C14.01,72.61 14.00,72.65 13.99,72.68 C13.83,73.16 13.73,73.65 13.68,74.15 C13.68,74.79 13.67,75.42 13.67,76.06 C13.75,76.88 13.96,77.69 14.29,78.45 C14.44,78.90 14.68,79.30 15.00,79.66 C15.17,79.96 15.37,80.23 15.59,80.48 C16.03,80.78 16.52,81.03 17.04,81.23 C17.17,81.26 17.29,81.30 17.42,81.32 C18.09,81.58 18.77,81.71 19.49,81.73 C20.39,81.79 21.27,81.72 22.13,81.50 C22.66,81.40 23.18,81.25 23.68,81.04 C24.15,80.79 24.60,80.51 25.02,80.17 C25.07,80.14 25.14,80.15 25.22,80.19 C25.31,80.12 25.40,80.06 25.49,79.99 C25.54,79.96 25.57,79.99 25.59,80.03 C25.60,80.02 25.61,80.02 25.62,80.01 C25.78,79.90 26.24,80.25 26.04,80.47 C26.12,80.52 26.21,80.59 26.29,80.65 C26.66,80.67 27.40,81.34 27.26,81.45 C27.06,81.63 26.84,81.79 26.62,81.95 C26.81,82.10 27.07,82.32 26.95,82.41 C26.74,82.62 26.50,82.80 26.25,82.95 C26.08,83.08 25.91,83.20 25.73,83.31 C25.53,83.43 25.33,83.53 25.12,83.62 C25.48,84.32 25.83,85.03 26.15,85.74 C26.36,86.25 26.61,86.75 26.90,87.22 C27.26,87.94 27.69,88.62 28.20,89.25 C28.62,89.94 29.10,90.58 29.66,91.17 C30.35,91.95 31.08,92.69 31.87,93.37 C32.18,93.59 32.50,93.81 32.83,94.00 C33.68,94.64 34.58,95.19 35.54,95.65 C35.65,95.71 35.74,95.84 35.61,95.95 C35.60,95.95 35.60,95.95 35.59,95.96 C35.91,96.13 36.22,96.31 36.54,96.48 C36.66,96.55 36.92,96.68 36.73,96.83 C36.61,96.94 36.23,96.75 36.00,96.64 C36.03,96.65 36.07,96.67 36.10,96.69 C36.17,96.73 36.57,96.93 36.32,97.06 C36.20,97.08 36.08,97.06 35.97,97.00 C35.85,96.95 35.73,96.91 35.62,96.86 C35.62,96.89 35.60,96.93 35.54,96.96 C35.49,96.97 35.44,96.97 35.40,96.96 C35.65,97.11 35.91,97.25 36.17,97.39 C36.25,97.43 36.61,97.63 36.37,97.76 C36.25,97.78 36.14,97.76 36.03,97.70 C35.84,97.63 35.64,97.54 35.45,97.45 C35.41,97.42 35.37,97.40 35.32,97.37 C35.29,97.37 35.25,97.37 35.22,97.36 C35.43,97.47 35.64,97.58 35.85,97.69 C35.97,97.75 36.18,97.89 36.00,98.03 C35.88,98.13 35.54,97.95 35.34,97.84 C35.33,97.86 35.32,97.87 35.29,97.89 C35.15,98.00 34.77,97.76 34.65,97.69 C33.60,97.13 32.59,96.55 31.61,95.88 C31.02,95.50 30.43,95.10 29.87,94.66 C28.78,93.82 27.79,92.84 26.88,91.81 C26.26,91.10 25.93,90.71 25.33,89.85 C24.37,88.47 23.64,87.03 22.94,85.51 C22.93,85.49 22.95,85.43 22.98,85.37 C22.84,85.02 22.70,84.66 22.56,84.29 C22.20,84.34 21.83,84.37 21.47,84.39 C20.62,84.44 19.79,84.36 18.99,84.19 C18.02,84.06 17.06,83.79 16.21,83.36 C15.70,83.10 15.21,82.83 14.75,82.53 C14.33,82.30 13.93,82.05 13.55,81.75 C11.91,80.50 11.02,78.56 10.80,76.54 C10.63,75.66 10.60,74.74 10.70,73.86 C10.77,73.22 10.91,72.59 11.12,71.98 C11.51,70.62 12.23,69.37 13.27,68.42 C13.45,68.24 13.63,68.07 13.83,67.91 C14.41,67.43 15.07,67.05 15.77,66.77 C15.91,66.71 16.04,66.65 16.18,66.59 L16.18,66.59 L16.01,66.20 C15.95,66.22 15.75,66.19 15.72,66.11 C15.66,65.93 15.59,65.74 15.53,65.56 C15.49,65.58 15.44,65.59 15.39,65.60 L15.39,65.60 L15.39,65.81 C15.39,65.87 15.27,66.25 15.21,66.05 C15.15,65.87 15.09,65.69 15.02,65.50 C14.97,65.47 14.93,65.43 14.92,65.38 C14.91,65.36 14.90,65.34 14.89,65.32 C14.89,65.32 14.88,65.32 14.88,65.32 L14.88,65.32 L14.88,65.39 C14.88,65.43 14.78,65.73 14.76,65.67 C14.39,64.66 14.09,63.64 13.86,62.59 C13.70,62.02 13.58,61.44 13.48,60.85 C13.38,60.32 13.29,59.78 13.21,59.25 C13.20,59.20 13.20,59.16 13.19,59.11 L13.19,59.11 L13.18,59.09 C13.18,59.03 13.17,58.97 13.16,58.91 C13.08,58.31 13.01,57.70 12.96,57.08 C12.84,55.82 12.80,54.56 12.81,53.29 C12.79,53.30 12.76,53.32 12.73,53.33 C12.18,53.57 11.60,53.76 11.01,53.91 C10.00,55.38 8.38,56.37 6.44,56.47 C5.78,56.51 5.09,56.43 4.45,56.24 C4.38,56.26 4.32,56.27 4.24,56.28 C3.72,56.35 3.36,56.14 2.88,56.07 C2.10,55.97 1.44,55.92 0.93,55.47 C0.78,55.47 0.63,55.45 0.49,55.40 C-0.85,55.72 -2.27,55.02 -2.74,53.54 C-3.54,53.07 -4.18,52.37 -4.61,51.56 C-5.44,50.50 -6.10,49.20 -6.51,47.83 C-6.52,47.82 -6.52,47.81 -6.53,47.79 C-6.74,47.34 -6.84,46.86 -6.85,46.37 C-7.07,44.99 -7.01,43.60 -6.59,42.39 C-6.60,41.73 -6.45,41.04 -6.17,40.41 C-5.82,39.66 -5.30,38.79 -4.62,38.28 C-4.61,37.51 -4.28,36.65 -3.84,36.07 C-2.97,34.92 -1.71,34.31 -0.34,34.22 C0.35,32.44 2.46,32.02 4.28,32.61 C5.03,31.84 6.14,31.47 7.24,31.60 C8.18,31.71 8.98,32.16 9.64,32.78 C9.81,32.83 9.98,32.88 10.16,32.93 C10.73,32.68 11.41,32.62 12.03,32.78 C13.10,33.05 13.79,33.87 14.28,34.80 C14.43,34.90 14.58,35.01 14.73,35.13 C14.89,35.20 15.04,35.29 15.17,35.41 C15.36,35.51 15.53,35.68 15.63,35.93 C15.90,36.21 16.15,36.50 16.38,36.82 C16.54,36.43 16.72,36.05 16.90,35.67 C17.19,35.75 17.54,35.64 17.69,35.25 C18.62,32.78 20.31,28.26 21.90,26.18 C20.04,27.45 17.77,28.11 15.51,28.05 C15.42,28.04 15.32,28.04 15.22,28.03 C14.01,28.24 12.77,28.26 11.64,28.04 C10.88,27.76 10.14,27.43 9.42,27.06 C9.25,26.97 9.07,26.87 8.90,26.77 C8.82,26.71 8.75,26.64 8.68,26.57 C8.53,26.58 8.38,26.57 8.21,26.53 C7.59,26.36 7.01,25.95 6.65,25.42 C6.58,25.32 6.53,25.21 6.48,25.11 C6.09,24.73 5.75,24.29 5.50,23.79 C5.21,23.19 5.03,22.52 5.01,21.86 C4.89,21.20 4.89,20.53 5.12,19.90 C5.15,19.83 5.18,19.77 5.21,19.70 C5.22,19.66 5.23,19.61 5.24,19.57 C5.31,19.35 5.39,19.15 5.50,18.96 C5.53,18.77 5.60,18.58 5.68,18.39 C5.69,18.30 5.71,18.21 5.72,18.12 C5.05,16.85 5.29,15.20 6.29,14.17 C6.15,13.50 6.30,12.79 6.70,12.20 C7.00,11.77 7.41,11.43 7.88,11.19 C7.93,11.16 8.06,11.12 8.21,11.07 C8.39,10.92 8.57,10.77 8.77,10.65 C8.82,9.35 10.17,8.63 11.28,7.99 C11.99,7.57 12.30,6.78 13.04,6.39 C13.84,5.95 14.87,5.93 15.76,5.82 C17.86,5.57 20.09,5.37 22.20,5.60 C23.37,5.73 24.34,6.29 24.74,7.22 C25.75,7.34 26.65,8.06 27.36,8.81 C28.24,9.74 29.00,10.74 29.26,11.96 C29.43,12.06 29.59,12.17 29.73,12.30 C29.72,13.16 29.61,14.02 29.37,14.84 C29.44,15.32 29.30,15.79 29.05,16.21 C29.09,16.61 29.06,17.00 28.98,17.39 C29.46,18.25 29.01,19.54 28.33,20.39 C28.33,20.55 28.33,20.71 28.33,20.86 C28.37,20.84 28.41,20.82 28.44,20.79 C31.50,18.18 34.65,18.55 38.37,17.06 C41.73,16.41 45.15,16.00 48.59,15.86 C48.54,15.86 48.49,15.85 48.45,15.85 C46.72,15.56 45.06,14.85 43.62,13.83 C43.25,13.73 42.89,13.56 42.57,13.27 C42.25,13.00 42.04,12.68 41.91,12.33 C41.86,12.27 41.80,12.21 41.75,12.15 C40.67,11.88 39.85,10.95 39.99,9.73 C39.31,8.93 39.06,7.93 39.29,6.90 C38.91,6.26 38.88,5.45 39.16,4.77 C38.56,4.04 38.52,3.02 38.99,2.19 C38.56,1.59 38.46,0.78 38.99,0.06 C39.24,-0.28 39.59,-0.49 39.96,-0.60 C40.07,-0.99 40.28,-1.35 40.62,-1.63 C40.80,-1.78 40.98,-1.88 41.17,-1.96 C41.24,-2.37 41.46,-2.75 41.90,-3.05 C42.10,-3.19 42.31,-3.28 42.51,-3.33 C42.70,-3.80 43.04,-4.22 43.51,-4.49 C44.08,-4.82 44.74,-4.86 45.34,-4.69 Z M18.23,72.18 C18.67,72.17 19.09,72.18 19.51,72.22 C19.53,72.21 19.55,72.20 19.56,72.20 C19.63,72.22 19.70,72.24 19.76,72.25 C20.00,72.29 20.23,72.33 20.47,72.40 C21.04,72.57 21.60,72.84 22.09,73.16 C22.55,73.47 23.01,73.79 23.41,74.18 C23.55,74.30 23.68,74.43 23.81,74.56 C24.01,74.73 24.21,74.91 24.40,75.08 C24.64,75.29 24.86,75.51 25.08,75.74 C25.41,76.13 25.68,76.57 25.87,77.05 C25.95,77.20 25.85,77.29 25.70,77.27 C25.63,77.25 25.53,77.20 25.43,77.14 C25.45,77.17 25.47,77.20 25.48,77.24 C25.56,77.40 25.49,77.52 25.31,77.46 C25.29,77.45 25.28,77.45 25.28,77.44 C25.37,77.61 25.46,77.79 25.54,77.98 C25.62,78.14 25.55,78.25 25.36,78.19 C25.26,78.14 25.17,78.07 25.08,78.00 C25.12,78.09 25.16,78.18 25.20,78.27 C25.28,78.44 25.19,78.52 25.02,78.48 C24.88,78.41 24.75,78.31 24.63,78.21 C24.61,78.19 24.59,78.17 24.57,78.16 C24.63,78.30 24.53,78.38 24.39,78.35 C24.19,78.32 23.83,77.99 23.74,77.81 C23.73,77.80 23.73,77.79 23.72,77.78 C23.62,77.71 23.51,77.62 23.42,77.52 C23.36,77.62 23.22,77.69 23.16,77.57 C22.99,77.09 22.71,76.68 22.33,76.33 C22.12,76.01 21.86,75.74 21.55,75.52 C21.38,75.38 21.21,75.25 21.04,75.12 C20.73,74.98 20.40,74.87 20.07,74.80 C20.00,74.78 19.93,74.77 19.86,74.75 C19.71,74.72 19.56,74.69 19.41,74.67 C18.80,74.59 18.19,74.57 17.58,74.63 C17.47,74.63 17.36,74.55 17.31,74.45 C17.18,74.46 17.04,74.46 16.91,74.48 C16.68,74.48 16.73,74.16 16.90,74.13 C17.11,74.09 17.33,74.06 17.54,74.04 C17.54,74.02 17.53,74.00 17.54,73.98 C17.15,73.96 16.77,73.97 16.38,74.01 C16.21,74.02 16.41,73.71 16.50,73.69 C16.55,73.68 16.59,73.68 16.63,73.67 C16.63,73.66 16.63,73.66 16.62,73.65 L16.62,73.65 L16.61,73.65 C16.38,73.66 16.22,73.29 16.50,73.24 C16.57,73.23 16.64,73.22 16.71,73.21 C16.69,73.17 16.69,73.14 16.70,73.11 C16.58,73.11 16.47,73.11 16.35,73.11 C16.41,73.10 16.46,72.82 16.54,72.81 C16.60,72.80 16.66,72.79 16.72,72.78 C16.73,72.71 16.85,72.52 16.90,72.51 C17.30,72.45 17.69,72.40 18.08,72.39 C18.12,72.30 18.17,72.18 18.23,72.18 Z" id="🖍-Ink" fill="#000000"></path></g><g id="face/Calm" transform="translate(112.18, 77.35)" fill="#000000" fill-rule="evenodd"><path d="M36.14,50.76 C34.58,51.21 32.91,51.25 31.32,50.78 C29.88,50.36 28.41,49.43 27.35,48.20 C26.41,47.11 25.80,45.78 25.82,44.36 C25.82,44.20 25.88,44.07 25.97,43.96 C26.07,43.85 26.20,43.77 26.34,43.74 C26.49,43.70 26.65,43.71 26.78,43.77 C26.90,43.83 27.00,43.92 27.07,44.06 C27.23,44.27 27.39,44.48 27.55,44.69 C28.86,46.30 30.13,47.51 32.10,47.94 C33.17,48.18 34.23,48.08 35.21,47.72 C36.26,47.33 37.20,46.66 37.95,45.79 C38.28,45.40 38.68,45.24 39.06,45.24 C39.50,45.24 39.94,45.44 40.26,45.77 C40.58,46.09 40.80,46.52 40.82,46.98 C40.84,47.38 40.71,47.80 40.36,48.17 C39.22,49.39 37.74,50.29 36.14,50.76 Z M36.09,30.51 C37.68,31.48 40.11,33.74 38.40,36.15 C36.38,38.27 33.47,35.84 32.04,34.74 C30.71,33.89 29.21,36.08 30.45,37.07 C40.80,44.74 45.01,30.77 36.89,29.37 C36.00,29.22 35.67,30.21 36.09,30.51 Z M21.16,26.24 C20.65,25.92 20.05,25.80 19.38,26.11 C18.86,26.34 17.94,27.14 17.30,28.18 C16.87,28.89 16.56,29.73 16.62,30.60 C16.64,30.80 16.56,30.95 16.44,31.06 C16.35,31.15 16.22,31.21 16.06,31.23 C15.93,31.25 15.78,31.23 15.65,31.19 C15.42,31.12 15.30,30.97 15.25,30.85 C14.81,29.66 15.00,28.34 15.50,27.14 C16.17,25.53 17.40,24.18 18.20,23.75 C19.58,23.00 21.20,22.97 22.58,23.73 C23.75,24.37 24.48,25.42 25.21,26.48 C25.37,26.70 25.52,26.93 25.68,27.15 C26.00,27.59 26.03,28.03 25.91,28.40 C25.77,28.82 25.42,29.17 24.98,29.36 C24.58,29.53 24.11,29.55 23.70,29.37 C23.35,29.23 23.03,28.94 22.83,28.45 C22.49,27.63 21.92,26.73 21.16,26.24 L21.16,26.24 Z M47.21,28.07 C46.85,28.25 46.58,28.31 46.19,28.19 C45.97,28.13 45.76,28.00 45.60,27.84 C45.43,27.67 45.31,27.47 45.26,27.24 C45.15,26.67 44.84,26.15 44.40,25.80 C44.03,25.51 43.56,25.36 43.03,25.44 C42.47,25.54 41.93,25.90 41.55,26.33 C41.43,26.47 41.33,26.64 41.23,26.80 C41.05,27.10 40.87,27.38 40.62,27.60 C40.53,27.69 40.38,27.75 40.24,27.75 C40.18,27.75 40.13,27.74 40.07,27.72 C39.51,27.15 39.40,26.72 39.42,26.30 C39.44,25.85 39.61,25.40 39.90,24.98 C40.56,23.99 41.83,23.18 42.69,22.99 C43.86,22.74 45.02,23.04 45.95,23.70 C46.91,24.37 47.62,25.42 47.84,26.59 C47.90,26.88 47.87,27.18 47.77,27.45 C47.66,27.71 47.48,27.93 47.21,28.07 Z M23.75,15.69 C23.04,16.38 22.21,16.48 21.37,16.58 C20.90,16.63 20.53,16.67 20.16,16.76 C19.15,16.98 18.16,17.33 17.25,17.82 C16.29,18.34 15.26,18.96 14.51,19.76 C14.34,19.95 14.17,20.15 14.00,20.35 C13.85,20.53 13.70,20.71 13.55,20.88 C13.37,21.07 13.20,21.27 13.03,21.48 C12.93,21.65 12.91,21.69 12.89,21.73 C12.85,21.80 12.82,21.87 12.78,21.95 C12.72,22.06 12.65,22.18 12.58,22.29 C12.46,22.48 12.40,22.54 12.35,22.56 C12.26,22.60 12.17,22.62 12.09,22.61 C12.01,22.60 11.94,22.56 11.87,22.50 C11.50,22.20 11.40,21.70 11.41,21.17 C11.43,20.36 11.72,19.47 12.00,18.92 C12.63,17.65 13.52,16.32 14.58,15.37 C15.79,14.28 17.12,13.46 18.64,12.90 C19.59,12.54 20.68,12.22 21.71,12.26 C22.45,12.29 23.16,12.51 23.75,13.06 C24.11,13.40 24.28,13.88 24.28,14.36 C24.28,14.85 24.10,15.35 23.75,15.69 Z M48.63,21.96 C48.59,22.04 48.53,22.09 48.46,22.12 C48.39,22.15 48.31,22.16 48.23,22.14 C48.15,22.13 48.08,22.10 48.02,22.04 C47.97,21.99 47.92,21.92 47.90,21.84 C47.44,19.79 46.53,18.27 44.60,17.28 C43.65,16.80 42.56,16.49 41.52,16.25 C41.22,16.18 40.90,16.13 40.58,16.08 C39.58,15.94 38.57,15.77 37.91,14.96 C37.52,14.47 37.36,13.85 37.45,13.27 C37.54,12.74 37.85,12.24 38.42,11.95 C39.84,11.21 41.61,11.93 43.05,12.55 C43.15,12.59 43.26,12.64 43.36,12.68 C44.77,13.28 46.05,14.06 47.10,15.18 C47.94,16.07 48.71,17.38 49.02,18.73 C49.28,19.85 49.22,21.00 48.63,21.96 Z" id="🖍-Ink"></path></g><g id="facial-hair/*-None" transform="translate(104.58, 109.48)"></g><g id="accessories/Glasses-3" transform="translate(88.52, 88.98)" fill="#000000" fill-rule="evenodd"><path d="M77.56,20.78 C76.14,22.69 73.50,23.30 71.07,23.09 C65.83,22.58 64.17,16.62 64.00,11.99 C67.52,12.98 63.71,5.97 75.73,5.20 C79.97,4.85 78.80,7.41 80.67,9.28 C80.64,13.21 79.98,17.47 77.56,20.78 M52.58,16.27 C49.48,30.78 32.52,27.33 30.74,14.25 C32.38,13.08 31.95,10.22 33.99,9.18 C37.23,7.11 41.28,7.19 44.96,7.24 C49.66,7.57 51.00,9.52 53.42,11.64 C53.30,13.06 52.97,14.74 52.58,16.27 M84.28,2.80 C84.11,2.77 83.93,2.74 83.76,2.71 C83.62,2.64 83.46,2.58 83.28,2.54 C82.86,2.43 82.43,2.36 82.01,2.32 C75.99,0.97 62.04,2.89 61.47,8.04 C59.55,8.68 57.89,8.11 55.66,8.16 C53.97,1.08 24.69,2.08 23.28,6.35 C23.28,6.35 23.27,6.35 23.27,6.35 C21.91,5.93 19.92,6.03 18.37,5.96 C15.06,5.89 11.75,6.19 8.52,6.89 C2.46,7.85 -5.81,8.98 -1.60,16.54 C-1.59,16.54 -1.59,16.55 -1.59,16.55 L-1.59,16.55 C-0.87,17.29 0.37,16.69 0.41,15.68 C-1.00,12.10 2.19,11.67 4.66,10.64 C10.78,8.44 17.02,8.13 23.35,8.81 C23.83,9.37 24.55,9.86 25.32,10.12 C29.55,10.82 27.32,13.97 30.00,14.42 C29.51,25.38 42.80,31.36 50.51,24.16 C53.58,21.15 54.32,16.69 55.03,12.67 C55.41,12.59 55.65,12.38 55.79,12.11 C56.69,11.20 57.26,10.37 59.06,10.12 C60.85,9.87 62.23,10.37 62.42,10.52 C62.47,10.62 62.52,10.71 62.58,10.81 C62.66,10.95 62.77,11.06 62.90,11.15 C61.12,22.06 69.59,28.96 78.14,23.30 C81.85,19.81 82.64,14.46 82.79,9.68 C83.30,9.38 83.62,8.79 83.44,8.05 C83.20,7.03 83.76,6.14 84.66,5.70 C85.83,5.12 85.62,3.02 84.28,2.80" id="🖍-Ink"></path></g></g></g></g></g></svg>