<?xml version="1.0" encoding="UTF-8"?><svg width="240px" height="324px" viewBox="0 0 240 324" version="1.1" xmlns="http://www.w3.org/2000/svg" xmlns:xlink="http://www.w3.org/1999/xlink"><title>peep-64</title><desc>Created with Sketch.</desc><g id="Introduction" stroke="none" stroke-width="1" fill="none" fill-rule="evenodd"><g id="variations" transform="translate(-2286.00, -110.00)"><g id="images" transform="translate(126.00, 110.00)"><g id="a-person/bust" transform="translate(2160.00, 0.00)"><g id="body/Paper" transform="translate(31.06, 135.05)" fill-rule="evenodd"><path d="M150.02,41.54 C148.18,34.40 146.49,31.37 143.22,28.89 C140.16,26.57 135.69,24.62 129.17,23.19 C122.39,22.00 122.19,18.48 120.49,12.80 C119.99,11.10 117.53,10.65 116.47,11.87 C116.32,11.71 116.17,11.56 116.00,11.43 C116.15,10.62 114.97,8.29 115.00,7.51 C115.42,-0.61 112.76,-4.69 106.14,-6.20 C104.70,-6.53 94.91,-6.73 93.50,-6.34 C87.36,-4.64 81.31,0.76 82.24,7.25 C80.31,9.77 78.42,11.31 75.45,12.12 C68.83,12.96 62.21,13.71 55.58,14.35 C42.62,16.39 30.47,23.25 22.16,33.26 C21.40,34.18 21.17,35.43 21.85,36.42 C21.32,38.69 18.34,44.19 20.69,45.75 C16.83,54.98 7.95,72.82 7.93,77.91 C7.86,99.32 10.18,127.19 31.30,139.03 C32.14,139.87 32.26,140.79 32.63,142.02 C33.56,145.92 36.93,148.71 40.62,148.48 C58.81,148.88 76.42,146.66 94.60,146.56 C102.62,146.51 112.27,147.71 119.23,148.50 C126.20,149.30 133.23,148.60 139.92,146.56 C140.48,147.44 141.62,147.96 142.78,147.71 C149.71,146.33 155.31,142.06 160.19,137.39 C161.68,134.68 167.51,126.94 165.19,124.25 C167.29,115.38 167.18,105.84 163.45,97.39 C163.98,95.84 163.02,94.14 163.45,92.54 C163.77,91.38 164.57,90.90 164.98,89.75 C165.55,88.14 164.93,85.98 164.29,84.33 C164.02,83.51 164.77,82.63 164.98,81.79 C165.97,77.84 163.71,78.19 162.08,75.55 C162.10,75.54 162.53,73.66 162.53,73.67 C162.77,72.32 162.15,70.60 161.61,69.47 C161.24,68.71 160.45,68.24 159.66,68.33 C160.45,65.65 161.45,63.42 162.53,60.83 C164.42,56.28 166.83,51.92 169.55,47.80 C170.67,46.12 169.17,44.16 167.36,44.05 C161.52,43.68 155.73,42.83 150.02,41.54 Z" id="🎨-Background" fill="#FFFFFF"></path><path d="M132.96,75.96 C130.62,75.05 128.10,74.54 125.57,74.34 C126.93,74.10 128.30,73.87 129.68,73.76 C130.64,73.67 131.53,73.68 132.25,74.41 C132.73,74.90 132.96,75.52 133.28,76.10 C133.17,76.05 133.06,76.01 132.96,75.96 Z M158.06,67.39 C154.23,67.58 150.39,68.49 146.93,70.14 C145.51,70.82 144.23,71.80 143.85,73.40 C143.66,74.22 143.71,75.07 143.81,75.90 C143.89,76.53 143.90,77.33 144.45,77.75 C144.54,77.82 144.64,77.88 144.75,77.92 C143.47,78.50 142.25,79.19 141.17,79.90 C140.18,80.56 139.16,81.56 138.71,82.70 C138.67,82.57 138.63,82.45 138.59,82.33 C137.82,80.04 136.62,78.15 134.73,76.89 C135.07,76.74 135.30,76.38 135.19,75.89 C134.74,73.84 132.85,72.06 130.71,72.19 C128.37,72.33 125.86,73.18 123.75,74.25 C122.98,74.24 122.21,74.25 121.45,74.28 C121.32,74.29 121.32,74.46 121.45,74.48 C122.06,74.56 122.68,74.64 123.30,74.75 C124.76,74.98 126.23,75.28 127.66,75.65 C129.37,76.09 131.15,76.54 132.75,77.31 C135.86,78.82 137.78,82.76 137.39,86.19 C137.32,86.75 137.11,88.45 136.33,88.27 C135.67,88.13 135.41,86.75 135.18,86.24 C134.56,84.89 133.45,84.00 132.11,83.41 C130.55,82.70 128.87,82.23 127.25,81.67 C126.33,81.36 125.41,81.04 124.49,80.73 C123.55,80.41 122.65,79.96 121.65,80.19 C121.04,80.32 120.97,81.05 121.31,81.46 C121.83,82.09 122.60,82.28 123.35,82.54 C124.33,82.88 125.31,83.22 126.30,83.57 C127.81,84.10 129.41,84.54 130.89,85.19 L130.84,85.29 C130.72,85.26 130.58,85.38 130.60,85.53 C130.82,86.90 131.13,88.48 130.79,89.85 C130.52,90.93 129.57,92.14 128.33,91.82 C128.52,91.64 128.59,91.33 128.46,91.05 C127.97,90.00 121.55,85.86 120.98,87.40 C120.96,87.45 121.02,87.49 121.06,87.49 C121.55,87.38 122.37,88.22 122.76,88.48 C123.33,88.86 123.90,89.23 124.46,89.62 C125.07,90.05 125.66,90.50 126.24,90.96 C126.70,91.33 127.04,91.70 127.57,91.89 C127.29,92.02 127.08,92.26 126.98,92.57 C126.75,93.38 126.29,94.07 125.50,94.43 C124.67,94.80 123.73,94.56 122.86,94.65 C121.66,94.77 120.63,95.34 119.76,96.15 C117.93,97.85 117.02,100.86 114.47,101.66 C112.95,102.14 111.26,101.84 109.71,101.62 C107.99,101.38 106.31,101.19 104.58,101.44 C102.92,101.68 101.35,102.26 99.83,102.96 C98.41,103.62 96.84,104.36 95.58,105.34 C95.32,104.54 95.06,103.75 94.86,102.93 C94.39,101.00 94.13,99.03 94.07,97.04 C94.02,95.15 94.12,93.25 94.28,91.36 C94.36,90.42 94.49,89.49 94.57,88.55 C94.59,88.31 94.64,88.06 94.67,87.80 C96.92,86.47 99.28,85.45 101.67,84.41 C101.68,84.40 101.68,84.40 101.69,84.40 C101.76,84.36 101.84,84.33 101.91,84.30 C101.91,84.30 101.90,84.29 101.90,84.29 C102.17,84.12 102.36,83.90 102.48,83.65 C105.91,81.37 108.79,78.26 110.93,74.62 C111.83,73.10 112.69,71.52 113.87,70.19 C115.12,68.77 116.60,67.92 118.44,67.48 C120.59,66.97 122.80,66.66 125.00,66.48 C126.21,66.39 127.55,66.24 128.86,66.25 C129.77,66.25 130.67,66.33 131.49,66.56 C132.70,66.89 133.41,67.82 134.17,68.75 C134.90,69.65 135.63,70.54 136.31,71.48 C136.95,72.36 137.56,73.28 138.09,74.24 C138.41,74.81 138.70,75.40 138.95,76.02 C139.03,76.23 139.15,76.48 139.20,76.70 C139.25,76.93 139.16,77.17 139.41,77.17 C138.36,77.18 138.37,78.85 139.41,78.79 C143.48,78.55 137.65,70.61 136.80,69.50 C135.60,67.93 134.35,65.89 132.42,65.16 C132.39,65.15 132.36,65.14 132.34,65.13 C132.90,64.59 133.34,63.96 133.77,63.31 C134.20,62.64 134.73,61.87 134.87,61.08 C134.96,60.58 134.33,60.29 134.03,60.73 C133.60,61.38 133.39,62.19 133.07,62.90 C132.74,63.62 132.34,64.30 132.02,65.02 C131.26,64.79 130.43,64.68 129.60,64.64 C130.65,63.21 132.46,60.45 132.68,60.09 C133.68,58.45 134.63,56.75 135.54,55.05 C136.53,53.21 137.37,51.30 138.31,49.44 C138.85,48.39 139.39,47.32 139.98,46.30 C140.19,45.95 140.41,45.60 140.66,45.28 C140.70,45.22 140.77,45.16 140.82,45.10 C140.89,45.07 140.96,45.03 140.99,45.01 C141.34,44.81 141.46,44.35 141.70,44.06 C142.08,43.60 142.53,43.54 143.11,43.54 C144.35,43.52 145.58,43.57 146.82,43.60 C148.63,43.66 150.44,43.73 152.24,43.82 C152.79,43.85 153.34,43.88 153.88,43.92 C156.51,44.07 159.14,44.28 161.76,44.53 C164.08,44.75 166.40,45.11 168.72,45.29 C165.58,52.76 162.09,60.09 158.15,67.17 C158.11,67.24 158.08,67.32 158.06,67.39 Z M140.62,86.64 C140.11,86.87 139.62,87.16 139.16,87.49 C139.24,86.97 139.25,86.43 139.23,85.89 C139.61,86.30 140.10,86.53 140.62,86.64 Z M162.26,73.78 C162.23,73.79 162.19,73.81 162.18,73.84 C161.47,75.29 161.77,76.91 162.91,78.04 C163.51,78.63 164.82,79.30 164.78,80.27 C164.74,81.06 163.89,81.72 163.52,82.37 C163.18,82.97 163.05,83.64 163.33,84.29 C163.68,85.13 164.65,85.46 164.98,86.29 C165.41,87.34 164.72,88.60 164.24,89.51 C163.79,90.35 163.21,91.19 162.83,92.09 C160.25,93.42 157.95,95.47 155.96,97.54 C153.79,99.82 151.93,102.49 148.49,102.42 C148.14,102.42 147.88,102.60 147.72,102.85 C146.77,102.89 145.80,102.91 144.84,102.92 C143.16,102.92 141.47,102.91 139.79,102.85 C139.67,102.45 139.76,101.89 139.75,101.55 C139.73,100.44 139.72,99.33 139.67,98.22 C139.66,97.91 139.65,97.60 139.64,97.29 C140.24,98.39 141.42,98.89 142.77,98.81 C144.94,98.69 147.12,98.33 149.27,98.01 C150.40,97.85 151.53,97.66 152.65,97.45 C153.58,97.29 154.88,97.33 155.53,96.59 C155.68,96.42 155.69,96.10 155.45,95.98 C154.81,95.67 154.41,95.84 153.70,95.98 C152.85,96.14 151.99,96.30 151.12,96.45 C149.47,96.74 147.81,97.00 146.15,97.24 C145.20,97.37 144.25,97.50 143.30,97.61 C142.48,97.70 141.54,97.82 140.88,97.19 C139.53,95.93 140.28,93.82 141.14,92.55 C141.15,92.52 141.15,92.50 141.15,92.48 C141.95,92.29 142.75,92.07 143.55,91.92 C145.08,91.62 146.63,91.37 148.18,91.15 C151.36,90.70 154.56,90.40 157.76,90.09 C158.55,90.02 158.56,88.77 157.76,88.84 C153.17,89.27 148.55,89.66 144.01,90.55 C142.88,90.77 141.75,91.02 140.63,91.30 C140.10,91.43 139.53,91.64 138.97,91.64 C138.94,91.64 138.91,91.64 138.87,91.64 C137.78,91.61 137.63,90.67 138.22,89.90 C138.30,89.80 138.37,89.71 138.45,89.62 C139.51,88.36 140.82,87.52 142.18,86.65 C143.70,86.44 145.21,85.98 146.70,85.64 C150.37,84.80 154.05,83.97 157.72,83.13 C158.44,82.97 158.13,81.86 157.41,82.02 C154.62,82.65 151.84,83.29 149.05,83.92 L144.97,84.84 C144.15,85.03 143.13,85.40 142.17,85.53 C141.70,85.60 141.24,85.60 140.83,85.51 C139.49,85.19 139.42,83.52 140.00,82.53 C140.64,81.41 141.87,80.71 142.95,80.08 C144.83,78.98 146.83,78.19 148.78,77.29 C149.13,77.21 149.47,77.13 149.82,77.06 C151.83,76.61 154.14,76.40 156.03,75.58 C156.60,75.34 156.29,74.45 155.73,74.46 C154.26,74.49 152.72,75.01 151.28,75.32 C149.72,75.66 148.16,76.00 146.60,76.33 C146.45,76.37 145.52,76.66 145.38,76.60 C145.29,76.56 145.26,76.25 145.23,76.05 C145.14,75.38 145.07,74.68 145.17,74.01 C145.40,72.50 146.65,71.80 147.92,71.22 C150.74,69.94 153.84,69.13 156.92,68.81 C157.63,68.74 158.34,68.69 159.05,68.67 C159.89,68.64 160.58,68.50 161.01,69.32 C161.67,70.62 162.04,72.30 162.26,73.78 Z M158.34,120.99 C157.73,118.86 157.89,116.59 157.47,114.42 C157.26,113.30 156.96,112.19 156.63,111.09 C156.37,110.21 155.94,109.27 155.89,108.35 C155.88,108.29 155.96,108.25 156.01,108.28 C156.87,108.78 157.54,109.85 158.04,110.70 C158.63,111.71 159.08,112.76 159.45,113.87 C160.17,116.09 160.77,118.76 159.83,120.99 C159.55,121.65 158.57,121.78 158.34,120.99 Z M139.34,92.80 C139.85,92.75 140.37,92.65 140.89,92.54 C140.31,93.10 139.78,93.79 139.48,94.54 C139.43,93.96 139.37,93.38 139.29,92.81 C139.31,92.81 139.32,92.81 139.34,92.80 Z M134.34,137.10 C133.42,136.46 132.76,135.56 131.98,134.77 C131.21,134.00 132.41,132.80 133.17,133.58 C133.84,134.25 134.41,135.09 135.19,135.64 C135.57,135.90 135.74,136.37 135.50,136.79 C135.28,137.16 134.71,137.36 134.34,137.10 Z M129.23,112.51 C130.90,111.78 132.55,110.99 134.30,110.47 C135.35,110.16 135.79,111.79 134.75,112.10 C133.14,112.58 131.62,113.30 130.08,113.97 C129.09,114.39 128.23,112.94 129.23,112.51 Z M111.56,112.00 C111.15,110.99 112.79,110.55 113.19,111.55 C113.65,112.70 114.19,113.81 114.65,114.96 C115.06,115.97 113.42,116.40 113.02,115.41 C112.56,114.26 112.02,113.15 111.56,112.00 Z M94.12,132.17 C93.85,132.53 93.39,132.73 92.97,132.47 C92.61,132.25 92.39,131.68 92.66,131.31 C93.47,130.24 94.28,129.18 95.23,128.22 C95.99,127.44 97.19,128.64 96.42,129.42 C95.58,130.27 94.84,131.21 94.12,132.17 Z M91.63,19.01 C92.40,19.54 93.08,20.19 93.75,20.85 C94.52,21.62 93.32,22.81 92.55,22.04 C91.99,21.48 91.43,20.92 90.78,20.47 C90.40,20.21 90.23,19.73 90.47,19.31 C90.69,18.94 91.25,18.75 91.63,19.01 Z M117.00,46.22 C116.56,47.10 116.17,47.96 116.14,48.96 C116.11,50.05 114.42,50.05 114.45,48.96 C114.48,47.65 114.97,46.52 115.54,45.37 C116.03,44.39 117.48,45.25 117.00,46.22 Z M126.31,24.37 C127.22,23.76 128.06,25.23 127.16,25.83 C126.43,26.31 125.70,26.80 124.97,27.29 C124.06,27.89 123.22,26.43 124.12,25.83 C124.85,25.34 125.58,24.85 126.31,24.37 Z M85.93,62.57 C85.78,63.65 84.15,63.19 84.30,62.12 C84.54,60.48 84.83,58.86 85.28,57.26 C85.57,56.21 87.20,56.65 86.91,57.70 C86.46,59.31 86.17,60.93 85.93,62.57 Z M80.01,81.94 C78.92,81.92 78.92,80.23 80.01,80.25 C80.99,80.27 81.96,80.53 82.91,80.77 C83.96,81.03 83.51,82.66 82.46,82.40 C81.66,82.20 80.84,81.96 80.01,81.94 Z M77.82,120.96 C77.45,121.14 77.06,121.30 76.68,121.48 C75.93,121.82 75.17,122.17 74.42,122.52 C72.84,123.24 71.27,123.96 69.69,124.69 C66.55,126.15 63.37,127.56 60.22,129.00 C57.00,130.47 53.79,131.96 50.59,133.46 C49.08,134.16 47.55,134.84 46.04,135.53 C44.74,136.12 43.13,137.14 41.71,137.24 C41.63,137.24 41.61,137.15 41.65,137.10 C42.19,136.49 43.05,136.13 43.76,135.74 C44.48,135.33 45.22,134.95 45.95,134.56 C47.48,133.75 49.01,132.94 50.55,132.16 C53.64,130.60 56.73,129.05 59.82,127.50 C62.98,125.92 66.13,124.33 69.31,122.80 C70.81,122.09 72.31,121.37 73.81,120.66 C74.62,120.27 75.44,119.89 76.25,119.50 C76.60,119.33 76.95,119.16 77.31,119.01 C77.78,118.81 78.15,118.85 78.64,118.73 C79.44,118.53 79.79,119.55 79.17,120.00 C78.67,120.36 78.40,120.67 77.82,120.96 Z M66.54,138.29 C66.36,137.87 66.73,137.36 67.13,137.25 C67.61,137.13 67.99,137.42 68.17,137.85 C68.63,138.97 69.29,140.01 70.14,140.88 C70.90,141.66 69.70,142.86 68.94,142.08 C67.88,140.98 67.11,139.70 66.54,138.29 Z M58.23,111.16 C57.46,110.38 58.66,109.19 59.43,109.96 L61.62,112.15 C62.39,112.92 61.20,114.12 60.43,113.35 L58.23,111.16 Z M35.76,107.58 C34.19,108.04 32.35,108.47 31.28,109.81 C31.22,109.88 31.14,109.79 31.17,109.73 C32.54,106.88 36.48,105.88 39.21,104.88 C41.14,104.17 43.12,103.59 45.12,103.06 C44.92,100.79 45.47,98.34 45.66,96.07 C45.87,93.65 46.03,91.22 46.12,88.79 C46.21,86.32 46.23,83.82 46.15,81.34 C46.07,78.87 45.75,76.43 45.60,73.97 C45.59,73.73 45.92,73.72 45.99,73.92 C46.82,76.20 47.18,78.73 47.45,81.14 C47.73,83.62 47.82,86.10 47.78,88.59 C47.75,91.16 47.60,93.72 47.39,96.28 C47.30,97.49 47.18,98.70 47.08,99.91 C47.00,100.83 46.96,101.75 46.77,102.65 C47.97,102.35 49.18,102.07 50.38,101.80 C54.22,100.93 58.08,100.13 61.90,99.19 C63.77,98.73 65.62,98.18 67.49,97.69 C69.25,97.23 71.11,96.67 72.91,96.47 C73.56,96.39 73.64,97.28 73.21,97.58 C71.74,98.61 69.79,99.32 68.10,99.90 C66.40,100.48 64.63,100.90 62.89,101.33 C59.25,102.22 55.58,102.95 51.92,103.71 C48.26,104.47 44.59,105.23 40.97,106.17 C39.23,106.62 37.49,107.08 35.76,107.58 Z M27.13,62.35 C26.19,62.90 25.34,61.44 26.28,60.89 C27.51,60.17 28.81,59.63 30.13,59.10 C31.14,58.69 31.58,60.33 30.58,60.73 C29.40,61.20 28.23,61.70 27.13,62.35 Z M23.73,125.17 C22.78,125.71 21.93,124.25 22.87,123.71 C24.19,122.94 25.64,122.43 27.01,121.76 C27.98,121.28 28.84,122.74 27.86,123.22 C26.49,123.89 25.05,124.40 23.73,125.17 Z M22.19,89.51 C23.10,90.37 24.32,90.78 25.47,91.24 C26.47,91.64 26.03,93.27 25.02,92.87 C23.59,92.30 22.13,91.78 21.00,90.70 C20.21,89.95 21.40,88.76 22.19,89.51 Z M32.29,41.08 C33.29,41.48 32.85,43.11 31.84,42.71 C30.71,42.27 29.55,41.94 28.43,41.50 C27.43,41.10 27.86,39.47 28.88,39.86 C30.00,40.31 31.16,40.64 32.29,41.08 Z M50.09,21.85 C51.15,21.67 51.61,23.30 50.54,23.48 C49.21,23.70 47.90,23.96 46.64,24.45 C45.63,24.85 45.19,23.21 46.20,22.82 C47.45,22.33 48.76,22.07 50.09,21.85 Z M55.97,68.68 C54.99,68.20 55.85,66.74 56.82,67.22 C57.85,67.72 58.91,68.11 60.03,68.35 C61.10,68.58 60.64,70.21 59.58,69.98 C58.32,69.71 57.12,69.25 55.97,68.68 Z M61.53,42.30 C62.58,42.01 63.03,43.64 61.98,43.93 C60.13,44.44 58.24,44.70 56.38,45.15 C55.32,45.40 54.87,43.77 55.93,43.52 C57.79,43.07 59.69,42.81 61.53,42.30 Z M85.10,34.02 C86.17,34.22 85.71,35.85 84.65,35.65 C83.52,35.44 82.37,35.44 81.22,35.44 C80.13,35.44 80.14,33.75 81.22,33.75 C82.53,33.75 83.81,33.78 85.10,34.02 Z M161.97,42.85 C159.21,42.59 156.44,42.38 153.67,42.22 C153.54,42.21 153.42,42.21 153.29,42.20 C153.27,42.17 153.26,42.14 153.24,42.11 C152.33,40.79 151.67,39.46 151.09,37.96 C150.54,36.53 150.00,35.06 149.15,33.77 C148.19,32.30 146.88,31.15 145.45,30.15 C144.58,30.74 143.77,31.42 143.03,32.15 C142.25,32.91 141.06,31.72 141.84,30.95 C142.49,30.31 143.19,29.71 143.93,29.17 C143.08,28.65 142.21,28.17 141.35,27.68 C138.17,25.86 134.90,24.18 131.57,22.64 C130.02,21.92 128.45,21.29 126.88,20.64 C126.03,20.30 125.19,19.85 124.34,19.45 C124.40,18.85 124.22,18.18 123.76,17.78 C123.42,17.49 123.16,17.38 122.75,17.18 C122.66,17.15 122.60,17.13 122.58,17.12 C122.60,17.12 122.65,17.14 122.74,17.17 C122.96,17.27 122.98,17.24 122.79,17.08 C122.78,16.74 122.11,16.02 121.96,15.66 C121.42,14.45 121.25,13.17 120.46,12.07 C119.37,10.55 117.53,9.97 115.83,10.49 C115.65,8.66 115.60,6.75 114.91,5.12 C114.89,5.08 114.83,5.06 114.80,5.11 C114.09,6.33 114.03,7.69 113.97,9.10 C113.92,10.43 113.97,11.78 114.14,13.10 C114.03,13.19 113.92,13.27 113.80,13.34 C113.26,13.70 112.67,13.98 112.05,14.19 C110.88,14.57 109.65,14.74 108.42,14.80 C105.24,14.95 101.96,14.63 98.83,14.09 C95.67,13.54 90.82,12.71 88.01,11.12 C86.15,10.08 84.44,8.81 82.70,7.57 C83.33,5.54 83.49,3.36 82.86,1.65 C82.78,1.44 82.46,1.40 82.40,1.65 C82.00,3.28 81.89,4.93 81.36,6.54 C81.35,6.57 81.34,6.59 81.33,6.62 C81.17,6.50 81.00,6.39 80.84,6.28 C80.46,6.03 79.94,6.22 79.71,6.58 C76.06,12.33 70.28,12.66 64.22,13.69 C57.58,14.81 50.90,16.03 44.52,18.23 C38.41,20.33 32.58,23.40 27.95,27.97 C26.91,29.01 25.93,30.11 25.01,31.27 C25.90,31.38 26.79,31.56 27.66,31.83 C28.70,32.16 28.25,33.79 27.21,33.46 C26.09,33.11 24.95,32.93 23.80,32.85 C20.66,37.14 18.21,42.02 16.09,46.82 C12.03,56.01 9.39,65.81 8.17,75.78 C8.84,75.38 9.52,75.00 10.22,74.65 C11.19,74.15 12.04,75.61 11.07,76.11 C9.99,76.65 8.95,77.26 7.93,77.91 C7.49,82.28 7.32,86.67 7.42,91.06 C7.67,101.51 9.08,112.28 12.27,122.26 C13.84,127.15 15.91,132.01 19.01,136.15 C20.40,138.02 21.99,139.71 23.86,141.12 C24.77,141.81 25.73,142.42 26.74,142.94 C28.05,143.60 29.74,143.82 30.87,144.77 C31.24,145.08 31.52,145.49 31.74,145.95 C31.61,146.83 31.60,147.71 31.84,148.59 C31.92,148.87 32.12,149.09 32.38,149.20 C32.38,149.27 32.38,149.35 32.38,149.42 C32.38,149.45 32.43,149.46 32.44,149.43 C32.45,149.36 32.46,149.30 32.47,149.23 C32.55,149.26 32.64,149.27 32.73,149.27 C35.94,149.28 39.15,149.20 42.37,149.09 C42.12,148.33 41.85,147.58 41.59,146.82 C41.24,145.78 42.87,145.34 43.22,146.37 C43.52,147.26 43.84,148.14 44.12,149.03 C47.56,148.91 51.00,148.75 54.44,148.64 C61.75,148.39 69.05,148.31 76.36,148.16 C87.71,147.92 99.15,147.43 110.52,147.91 C110.91,147.07 111.35,146.26 111.77,145.43 C112.26,144.46 113.72,145.32 113.23,146.29 C112.94,146.86 112.64,147.43 112.35,148.00 C114.65,148.12 116.95,148.27 119.25,148.49 C123.17,148.86 127.05,149.51 130.96,149.92 C134.94,150.33 138.83,150.26 142.77,149.60 C143.48,149.48 143.90,149.05 144.08,148.52 C144.08,148.52 144.09,148.51 144.09,148.51 C144.29,148.27 144.48,148.07 144.68,147.90 C144.91,147.75 145.17,147.62 145.47,147.51 C146.02,147.30 146.60,147.17 147.19,147.08 C147.83,146.98 148.49,146.97 149.14,146.89 C149.68,146.82 150.21,146.72 150.75,146.59 C151.70,146.37 152.61,146.07 153.52,145.67 C154.30,145.33 155.02,144.83 155.69,144.29 C157.08,143.28 158.28,141.98 159.33,140.63 C159.95,139.84 160.52,139.03 161.05,138.17 C161.96,136.70 162.74,135.17 163.52,133.62 C163.81,133.16 164.07,132.69 164.31,132.22 C162.77,131.76 161.22,131.39 159.59,131.37 C158.50,131.35 158.50,129.66 159.59,129.68 C161.46,129.71 163.23,130.14 164.98,130.66 C165.07,130.44 165.15,130.21 165.22,129.98 C165.43,129.49 165.61,128.99 165.75,128.49 C165.83,128.26 165.92,128.04 166.00,127.81 C166.19,127.02 166.38,126.22 166.58,125.43 C166.96,124.16 167.26,122.88 167.48,121.57 C167.67,120.71 167.81,119.85 167.91,118.97 C168.20,116.85 168.45,114.74 168.46,112.60 C168.44,111.28 168.35,109.96 168.21,108.64 C168.15,107.75 168.04,106.86 167.90,105.98 C167.72,104.67 167.54,103.37 167.24,102.08 C167.02,101.21 166.79,100.33 166.56,99.46 C166.00,97.63 165.33,95.84 164.57,94.10 C164.52,93.99 164.31,93.75 164.18,93.74 C164.09,93.74 163.95,93.83 163.99,93.95 C164.00,93.96 164.00,93.97 164.01,93.98 C163.96,93.88 163.92,93.78 163.88,93.68 C163.84,93.59 163.69,93.40 163.58,93.41 C163.57,93.41 163.56,93.41 163.55,93.41 C163.58,93.39 163.61,93.36 163.64,93.33 C164.40,92.43 164.89,91.25 165.43,90.21 C165.88,89.35 166.31,88.44 166.43,87.47 C166.54,86.62 166.39,85.78 165.86,85.10 C165.25,84.31 164.10,83.94 164.74,82.81 C165.46,81.52 166.53,80.40 165.47,78.94 C164.93,78.19 164.07,77.78 163.44,77.13 C162.71,76.38 162.37,75.38 162.38,74.35 C162.43,74.38 162.49,74.37 162.51,74.30 C163.12,72.45 162.68,70.42 162.05,68.62 C161.71,67.64 160.98,67.37 160.14,67.32 C163.79,60.19 167.21,52.94 170.25,45.53 C170.35,45.28 170.45,45.04 170.55,44.80 C170.70,44.43 170.39,43.95 170.03,43.87 C167.39,43.29 164.65,43.11 161.97,42.85 Z" id="🖍-Ink" fill="#000000"></path></g><g id="head/Medium-Bangs-2" transform="translate(78.59, 38.04)" fill-rule="evenodd"><path d="M86.17,30.53 C85.70,29.35 84.87,27.86 83.48,27.80 C82.41,24.52 79.74,21.18 76.03,21.27 C65.14,10.12 51.43,10.65 37.10,13.01 C29.53,14.41 21.86,17.16 16.22,22.58 C9.46,28.96 6.83,40.10 12.12,48.17 C7.55,50.62 7.46,56.44 9.41,60.64 C7.06,62.26 6.92,66.21 9.57,67.45 C9.43,68.03 9.53,68.62 9.79,69.14 C8.48,70.23 6.77,71.04 5.36,71.73 C4.74,72.04 4.38,72.54 4.23,73.10 C-0.41,76.14 -11.97,83.58 -11.83,89.50 C-11.90,92.58 -9.61,94.62 -6.83,95.43 C-8.48,98.74 -9.74,102.60 -8.15,106.17 C-7.72,107.25 -4.43,110.42 -4.27,110.48 C-3.98,110.73 0.73,108.57 3.02,107.46 C3.46,110.35 6.55,111.86 9.21,110.88 C11.73,110.11 13.28,107.98 14.87,106.04 C16.98,110.64 23.19,110.70 27.21,108.71 C30.81,107.04 33.56,103.99 35.08,100.31 C43.19,104.28 52.68,105.44 61.49,103.85 C62.05,104.85 63.31,105.52 64.42,105.14 C69.11,103.73 74.29,103.65 78.26,100.42 C86.53,94.48 87.23,83.52 86.65,74.18 C86.14,64.87 86.59,55.48 84.90,46.26 C85.63,43.55 86.85,41.15 87.98,38.61 C89.21,35.93 89.19,31.96 86.17,30.53 Z" id="🎨-Background" fill="#FFFFFF"></path><path d="M9.21,70.06 C9.70,69.94 9.96,70.59 9.55,70.86 C6.92,72.53 4.20,74.03 1.66,75.85 C-0.75,77.58 -2.98,79.55 -5.06,81.67 L-5.29,81.90 C-7.17,83.84 -9.26,86.30 -9.28,89.16 C-9.29,91.38 -7.58,93.80 -5.20,93.51 C-4.30,93.40 -3.47,94.54 -3.79,95.36 L-4.12,96.23 C-5.44,99.74 -6.79,103.71 -5.75,107.41 L-5.71,107.54 C-5.45,108.38 -5.19,109.13 -4.20,109.11 C-3.29,109.10 -2.35,108.79 -1.50,108.50 C0.27,107.89 1.88,106.87 3.24,105.60 C4.44,104.47 5.98,105.62 5.82,107.05 L5.81,107.10 C5.59,108.71 8.15,109.45 9.32,109.22 C11.62,108.77 13.26,106.46 14.56,104.70 C15.19,103.86 16.72,103.53 17.27,104.70 C18.36,107.04 20.62,108.78 23.25,108.85 C24.62,108.89 25.94,108.50 27.10,107.78 C27.57,107.48 28.00,107.13 28.38,106.73 L28.48,106.63 C29.05,106.02 29.45,105.70 30.18,105.30 C30.91,104.91 31.84,105.39 31.84,106.25 C31.83,107.36 31.51,108.09 30.75,108.90 C30.11,109.56 29.36,110.15 28.57,110.61 C26.99,111.55 25.10,112.08 23.25,112.02 C20.34,111.92 17.57,110.47 15.76,108.21 C13.93,110.41 11.64,112.43 8.68,112.38 C6.46,112.34 4.39,111.18 3.40,109.39 C2.00,110.36 0.47,111.11 -1.17,111.60 L-1.32,111.65 C-3.65,112.32 -6.32,112.59 -7.82,110.28 C-9.22,108.12 -9.33,105.12 -9.01,102.64 C-8.72,100.42 -8.04,98.32 -7.26,96.25 C-9.48,95.58 -11.21,93.49 -11.80,91.24 C-12.70,87.83 -10.96,84.53 -8.80,81.99 C-6.47,79.24 -3.52,76.92 -0.56,74.88 C2.40,72.85 5.71,70.94 9.21,70.06 Z M85.24,43.40 C85.25,43.31 85.40,43.28 85.42,43.38 C86.44,50.79 87.03,58.19 87.52,65.66 C87.77,69.44 88.05,73.22 88.36,76.99 C88.65,80.62 89.15,84.33 89.03,87.97 C88.86,93.67 86.10,98.30 81.56,101.63 C77.22,104.82 71.83,106.40 66.55,107.07 C63.48,107.45 60.36,107.47 57.29,107.11 C55.69,106.92 54.10,106.67 52.54,106.29 L51.86,106.12 C50.63,105.81 49.26,105.38 49.08,103.92 C48.99,103.21 49.37,102.69 49.98,102.34 C50.77,101.88 51.67,102.15 52.49,102.36 C53.86,102.71 55.24,103.02 56.65,103.23 C59.66,103.68 62.75,103.71 65.78,103.40 C70.87,102.87 76.24,101.22 80.17,97.80 C81.87,96.32 83.36,94.52 84.14,92.37 C85.14,89.61 84.99,86.60 84.96,83.71 C84.88,76.99 84.95,70.28 84.85,63.56 C84.76,56.82 84.84,50.13 85.24,43.40 Z M34.04,12.01 C39.99,10.47 46.03,10.08 52.14,10.54 C57.90,10.97 64.47,12.26 69.18,15.81 C69.40,15.98 69.27,16.31 68.98,16.26 C65.84,15.76 62.77,14.85 59.64,14.24 C56.62,13.66 53.56,13.23 50.49,13.12 C40.11,12.78 28.56,15.14 20.19,21.61 C16.27,24.64 13.28,28.72 12.08,33.58 C10.86,38.56 11.52,43.94 13.98,48.45 C14.33,49.10 14.19,50.12 13.45,50.47 C11.21,51.52 9.62,53.84 9.65,56.34 C9.67,57.56 10.09,58.72 10.76,59.73 C11.47,60.79 12.55,61.53 13.35,62.53 C13.66,62.92 13.68,63.45 13.43,63.81 C13.89,64.02 14.39,64.13 14.85,64.37 C15.24,64.57 15.25,65.21 14.85,65.41 C13.84,65.92 12.75,65.38 12.07,64.56 C11.95,64.41 11.84,64.26 11.75,64.11 C10.93,63.93 10.20,63.52 9.56,62.96 C8.34,63.69 8.18,65.31 9.22,66.55 C9.76,67.19 10.51,67.58 11.28,67.86 L11.37,67.89 C12.12,68.16 12.80,68.30 13.29,68.90 C13.61,68.24 13.97,67.61 14.38,67.03 C15.87,64.95 18.16,63.11 20.87,63.34 C22.99,63.52 24.83,65.05 25.27,67.15 C25.30,67.30 25.07,67.42 25.00,67.26 C23.98,64.88 20.75,64.80 18.83,66.03 C16.57,67.49 15.34,70.24 14.84,72.80 C14.35,75.32 14.64,78.38 16.52,80.30 C17.29,81.08 18.34,81.62 19.44,81.77 C19.97,81.84 20.44,81.77 20.96,81.66 L21.30,81.59 C21.53,81.54 21.77,81.51 22.01,81.53 L22.38,81.58 L22.38,81.58 L22.59,81.67 C22.77,81.76 22.75,81.73 22.54,81.61 C23.16,81.56 23.49,82.02 23.52,82.53 C23.54,82.54 23.56,82.55 23.58,82.57 C25.95,85.47 27.71,88.81 30.23,91.62 L30.96,92.44 C32.86,94.55 35.02,96.84 37.59,97.93 L37.90,98.06 C38.65,98.37 39.40,98.81 39.49,99.71 C39.58,100.52 38.94,101.13 38.21,101.31 C36.54,101.74 34.63,100.26 33.40,99.28 C30.77,97.18 28.55,94.51 26.73,91.70 L26.55,91.41 C25.04,89.07 23.63,86.39 23.19,83.60 L23.11,83.73 C23.11,83.74 23.10,83.75 23.10,83.75 C23.01,83.87 22.91,83.97 22.80,84.07 C22.49,84.34 22.11,84.49 21.72,84.60 C20.99,84.80 20.19,84.84 19.44,84.76 C17.91,84.60 16.48,84.02 15.27,83.07 C11.60,80.19 11.16,74.82 12.65,70.47 C11.43,70.76 10.04,69.94 9.09,69.23 C7.99,68.42 7.09,67.26 6.88,65.89 C6.66,64.53 7.53,62.72 8.82,62.20 C7.48,60.59 6.71,58.32 6.63,56.50 C6.49,53.33 8.17,50.33 10.75,48.60 C8.32,43.39 7.85,37.35 9.49,31.82 C12.74,20.84 23.62,14.70 34.04,12.01 Z M24.79,95.41 L24.82,95.32 C25.08,94.47 25.41,92.78 26.68,93.42 C27.89,94.04 27.12,95.85 26.69,96.74 C26.19,97.80 25.31,98.64 24.13,98.87 C23.18,99.06 22.13,98.82 21.46,98.08 C21.26,97.87 21.15,97.63 21.04,97.37 C20.99,97.27 20.97,97.20 20.97,97.15 C20.95,97.20 20.92,97.28 20.84,97.36 C20.31,97.95 19.81,98.63 19.42,99.32 C19.33,99.48 19.04,99.36 19.11,99.19 C19.56,98.08 19.49,96.37 20.49,95.58 C21.38,94.87 22.21,95.43 22.68,96.25 L22.70,96.29 C23.39,97.53 24.48,96.35 24.79,95.41 Z M15.15,91.42 L15.24,91.30 C16.19,90.00 17.79,88.44 19.38,89.65 C19.89,90.03 19.91,90.67 19.38,91.05 L19.18,91.19 C18.49,91.69 17.79,92.16 17.28,92.87 C16.72,93.64 16.22,94.46 15.47,95.06 C14.14,96.13 12.00,96.35 10.85,94.90 L10.74,94.76 C10.64,94.63 10.53,94.48 10.44,94.34 L10.37,94.43 C10.36,94.44 10.36,94.45 10.35,94.46 L10.34,94.48 C9.86,95.24 9.27,95.86 8.52,96.35 C7.11,97.29 5.52,97.42 3.92,96.92 C3.76,96.87 3.80,96.66 3.95,96.65 C5.85,96.47 7.70,95.13 8.47,93.39 L8.55,93.20 C8.87,92.51 9.21,91.85 9.99,91.58 C10.74,91.32 11.52,91.60 12.04,92.16 C12.47,92.64 12.58,93.58 13.35,93.37 C14.20,93.14 14.68,92.08 15.15,91.42 Z M9.72,79.90 C10.14,79.58 10.80,79.92 10.91,80.39 C11.43,82.48 9.26,84.95 7.17,85.01 C6.63,85.03 6.11,84.90 5.64,84.65 C5.27,84.46 4.83,83.96 4.42,83.88 C3.90,83.78 3.44,84.47 3.07,84.83 C2.61,85.28 2.16,85.69 1.64,86.07 C1.44,86.22 1.12,85.97 1.21,85.73 L1.38,85.27 C2.01,83.62 3.09,81.22 5.11,81.90 C6.11,82.24 6.85,83.37 7.90,82.47 C8.73,81.76 8.81,80.59 9.72,79.90 Z M18.65,71.47 C20.54,69.31 24.97,70.45 25.82,73.09 C26.00,73.67 25.81,74.43 25.35,74.84 C24.75,75.38 23.90,75.55 23.17,75.12 C22.55,74.75 22.29,74.15 21.83,73.64 C21.16,72.89 20.24,72.47 19.29,72.17 C19.06,72.29 18.84,72.46 18.64,72.65 C18.54,72.75 18.35,72.62 18.44,72.50 C18.56,72.34 18.71,72.18 18.88,72.04 L18.79,72.02 L18.79,72.02 C18.55,71.95 18.49,71.66 18.65,71.47 Z M30.92,47.54 C31.34,47.55 31.83,47.94 31.78,48.41 L31.76,48.54 C31.64,49.42 31.36,49.92 30.47,50.33 C29.72,50.68 28.93,50.87 28.11,50.95 C27.80,50.97 27.47,50.98 27.14,50.95 L27.07,51.36 C26.93,52.17 26.80,52.98 26.78,53.80 C26.73,55.34 27.30,56.60 27.92,57.97 C29.09,60.59 29.22,63.22 27.94,65.84 C27.76,66.23 27.23,66.54 26.80,66.50 C26.24,66.45 25.97,66.29 25.65,65.84 C25.38,65.47 25.44,64.94 25.63,64.54 L25.65,64.50 C26.30,63.25 26.50,61.84 26.17,60.46 C25.86,59.17 25.16,58.01 24.85,56.72 C24.34,54.62 24.88,52.54 25.94,50.74 C25.14,50.51 24.40,50.10 23.90,49.47 L23.91,49.47 L23.91,49.47 C23.72,49.27 23.82,48.84 24.15,48.87 L24.53,48.90 C25.60,48.99 26.59,49.08 27.67,48.78 C28.23,48.63 28.71,48.37 29.18,48.06 L29.28,48.00 C29.88,47.60 30.21,47.54 30.92,47.54 Z M33.48,32.03 C36.17,31.88 38.47,33.66 39.58,36.02 C40.79,38.58 40.28,41.53 39.22,44.05 L38.91,44.76 C38.38,45.98 37.68,47.43 36.59,48.09 C35.37,48.83 34.31,47.97 34.67,46.61 C34.89,45.80 35.47,45.18 35.94,44.51 C36.38,43.89 36.79,43.24 37.15,42.57 C37.85,41.25 38.38,39.77 38.37,38.26 C38.36,35.50 36.54,32.33 33.48,32.37 C33.26,32.37 33.27,32.05 33.48,32.03 Z M47.08,27.57 C46.91,27.45 47.06,27.16 47.25,27.28 C50.37,29.27 52.69,32.99 53.16,36.65 C53.42,38.68 53.22,40.85 52.36,42.73 C51.86,43.80 51.01,44.83 49.82,45.12 C48.73,45.39 47.60,44.77 47.26,43.70 C47.13,43.29 47.36,42.85 47.70,42.63 C48.81,41.89 49.70,40.97 50.22,39.72 C50.77,38.43 50.98,37.05 50.99,35.66 C51.01,32.39 49.70,29.57 47.08,27.57 Z M85.16,28.99 C85.01,28.83 85.19,28.60 85.39,28.70 C87.64,29.88 89.07,32.15 89.48,34.64 C89.88,37.08 89.34,40.39 87.46,42.15 C86.39,43.15 84.49,41.82 85.37,40.54 C86.00,39.64 86.67,38.90 87.03,37.83 C87.35,36.88 87.46,35.92 87.44,34.92 C87.40,32.73 86.62,30.62 85.16,28.99 Z M57.60,25.94 C61.45,25.76 63.79,30.16 64.32,33.43 C64.65,35.46 64.40,37.54 63.29,39.30 L63.22,39.40 C62.30,40.81 60.62,42.42 58.82,41.76 C58.05,41.48 57.85,40.66 58.36,40.04 C59.15,39.08 60.36,38.70 61.10,37.68 C61.93,36.54 62.20,35.11 62.15,33.73 L62.15,33.57 C62.02,31.03 60.80,26.13 57.60,26.22 C57.42,26.22 57.43,25.95 57.60,25.94 Z M69.65,25.21 C73.37,24.74 75.64,29.12 76.34,32.14 C76.78,34.03 76.87,36.13 76.31,38.01 L76.27,38.14 C75.82,39.54 74.47,41.93 72.72,41.22 C72.24,41.02 71.75,40.49 71.98,39.91 C72.28,39.18 72.70,38.99 73.26,38.52 C73.70,38.16 74.00,37.64 74.23,37.12 C74.82,35.76 74.95,34.17 74.87,32.70 L74.86,32.52 C74.65,29.65 73.09,25.37 69.65,25.45 C69.49,25.45 69.50,25.23 69.65,25.21 Z M76.47,21.09 C78.54,20.30 80.24,22.28 81.43,23.70 C82.92,25.47 84.28,27.38 85.04,29.59 C85.72,31.56 85.84,33.74 85.23,35.75 C84.92,36.74 84.45,37.66 83.80,38.46 L83.72,38.57 C83.05,39.39 82.40,39.89 81.30,39.60 C80.85,39.48 80.66,39.03 80.74,38.61 C80.90,37.70 81.37,37.47 81.97,36.84 C82.51,36.28 82.90,35.59 83.17,34.87 C83.72,33.38 83.75,31.77 83.38,30.23 C82.96,28.51 82.15,26.93 81.22,25.44 L81.01,25.12 C80.02,23.55 78.60,21.13 76.51,21.38 C76.33,21.41 76.32,21.15 76.47,21.09 Z" id="🖍-Ink" fill="#000000"></path></g><g id="face/Concerned-Fear" transform="translate(112.18, 77.35)" fill="#000000" fill-rule="evenodd"><path d="M35.22,43.95 C37.72,43.95 38.79,44.35 40.42,45.31 C42.05,46.27 43.79,47.51 44.21,49.36 C44.59,51.09 43.83,52.77 42.16,53.43 C41.22,53.79 30.42,54.66 28.72,54.77 C27.03,54.88 25.41,54.74 24.32,53.61 C21.51,50.70 25.41,46.91 27.91,45.52 C30.14,44.27 32.71,43.95 35.22,43.95 Z M34.64,45.91 C32.75,45.91 29.66,47.29 29.66,47.97 C29.66,48.64 38.67,47.97 38.86,47.40 C39.05,46.82 36.52,45.91 34.64,45.91 Z M36.09,30.51 C37.68,31.48 40.11,33.74 38.40,36.15 C36.38,38.27 33.47,35.84 32.04,34.74 C30.71,33.89 29.21,36.08 30.45,37.07 C40.80,44.74 45.01,30.77 36.89,29.37 C36.00,29.22 35.67,30.21 36.09,30.51 Z M18.07,21.72 C20.79,19.71 24.85,21.26 25.52,24.40 C25.99,24.64 26.24,25.03 26.30,25.60 L26.31,25.74 L26.31,25.74 C26.38,26.42 25.77,27.06 25.17,27.24 C24.49,27.44 23.96,27.34 23.33,27.05 C22.73,26.77 22.52,25.99 22.62,25.39 L22.63,25.35 C22.80,24.61 22.16,23.89 21.52,23.60 C20.80,23.26 20.00,23.47 19.37,23.91 C18.67,24.40 18.10,25.23 17.90,26.06 L17.88,26.14 C17.73,26.86 17.61,28.20 18.30,28.61 C18.43,28.69 18.34,28.85 18.21,28.83 C16.70,28.57 15.81,27.66 15.80,26.04 C15.79,24.32 16.71,22.73 18.07,21.72 Z M43.09,21.15 C45.81,20.19 49.20,22.77 48.16,25.76 C47.47,27.72 44.82,26.94 45.06,24.97 L45.07,24.91 C45.23,23.89 44.45,23.40 43.50,23.74 C42.10,24.24 41.34,26.45 42.00,27.74 C42.08,27.90 41.85,28.03 41.76,27.88 L41.67,27.73 C40.93,26.56 40.26,25.70 40.50,24.20 C40.72,22.82 41.78,21.61 43.09,21.15 Z M37.59,14.04 C37.58,13.91 37.72,13.82 37.84,13.85 C38.81,14.09 39.68,14.79 40.56,15.25 C41.52,15.74 42.50,16.14 43.54,16.44 C44.55,16.72 45.58,16.87 46.63,16.86 C47.77,16.85 48.89,16.42 50.01,16.46 C51.69,16.51 52.57,18.96 50.92,19.80 C48.50,21.02 44.92,20.13 42.58,19.11 C40.69,18.30 37.71,16.36 37.59,14.04 Z M25.34,14.60 C26.22,13.46 28.00,13.40 28.78,14.73 C29.59,16.11 28.61,17.49 27.24,17.78 C24.74,18.90 22.18,19.76 19.44,20.11 L19.07,20.16 C16.69,20.45 13.69,20.61 11.54,19.51 C11.33,19.40 11.39,19.08 11.60,19.02 C12.81,18.67 14.17,18.67 15.42,18.45 C16.60,18.23 17.78,17.99 18.94,17.64 C21.22,16.95 23.38,15.96 25.34,14.60 Z" id="🖍-Ink"></path></g><g id="facial-hair/*-None" transform="translate(104.58, 109.48)"></g><g id="accessories/*-None" transform="translate(88.52, 88.98)"></g></g></g></g></g></svg>