<?xml version="1.0" encoding="UTF-8"?><svg width="240px" height="324px" viewBox="0 0 240 324" version="1.1" xmlns="http://www.w3.org/2000/svg" xmlns:xlink="http://www.w3.org/1999/xlink"><title>peep-77</title><desc>Created with Sketch.</desc><g id="Introduction" stroke="none" stroke-width="1" fill="none" fill-rule="evenodd"><g id="variations" transform="translate(-2526.00, -2054.00)"><g id="images" transform="translate(126.00, 110.00)"><g id="a-person/bust" transform="translate(2400.00, 1944.00)"><g id="body/Killer" transform="translate(31.06, 135.05)" fill-rule="evenodd"><path d="M121.82,19.90 C116.59,15.03 118.27,10.34 116.52,4.41 C113.14,-2.92 106.17,-10.15 98.10,-11.71 C94.06,-14.08 88.79,-12.74 86.04,-9.03 C83.45,-8.35 83.37,-4.77 82.50,-2.65 C80.90,1.51 79.68,5.74 78.68,10.06 C47.53,16.55 23.65,37.76 18.67,69.94 C17.82,74.62 17.12,79.32 16.46,84.03 C16.08,88.08 14.05,94.52 18.22,97.14 C18.34,100.05 18.69,102.99 19.80,105.73 C20.22,108.46 20.57,111.20 21.47,113.83 C23.45,118.39 23.75,123.38 25.98,127.92 C27.53,131.27 29.81,133.96 32.63,136.30 C33.83,137.35 35.46,138.48 35.71,140.12 C35.64,142.58 37.51,146.14 40.46,144.98 C42.55,145.77 44.80,145.98 47.02,145.96 C84.63,144.33 122.32,144.20 159.93,146.02 C161.25,146.08 162.51,144.81 162.45,143.50 C161.85,129.18 160.37,114.89 158.04,100.75 C152.84,71.46 147.29,38.70 121.82,19.90 L121.82,19.90 Z" id="🎨-Background" fill="#FFFFFF"></path><path d="M81.59,5.35 L81.73,4.96 C82.58,2.60 83.62,2.43 83.12,4.71 L83.04,5.05 C82.61,7.01 82.09,9.03 81.02,10.73 C79.18,13.68 74.36,14.77 71.14,15.82 C71.15,15.90 71.15,15.97 71.15,16.04 C73.11,16.34 75.13,17.29 76.77,18.35 C78.28,19.32 79.64,20.41 80.65,21.87 L85.62,19.71 C87.25,19.00 88.90,18.15 90.68,17.87 C93.19,17.47 97.06,18.81 96.76,21.98 C96.72,22.40 96.45,22.72 96.12,22.88 C96.38,22.86 96.63,22.85 96.88,22.86 C98.56,22.91 100.93,24.40 100.05,26.36 C99.83,26.86 99.18,26.53 99.13,26.11 C98.80,23.33 95.93,23.98 93.94,24.44 C92.13,24.85 90.35,25.35 88.61,25.97 C86.75,26.62 84.94,27.46 83.28,28.54 C81.57,29.65 79.96,31.00 80.07,33.22 C80.07,33.26 80.00,33.29 79.98,33.24 C79.09,31.35 80.82,29.36 82.22,28.27 C84.24,26.70 86.62,25.56 89.02,24.68 C90.25,24.23 91.52,23.87 92.80,23.55 L93.10,23.48 C93.85,23.30 94.62,23.09 95.41,22.96 C95.12,22.89 94.86,22.68 94.75,22.30 L94.74,22.25 C93.61,17.78 87.56,21.38 85.11,22.46 C83.36,23.23 81.59,23.97 79.86,24.78 L79.64,24.89 C78.29,25.54 76.89,26.30 75.99,27.51 C73.67,30.62 75.75,34.81 76.48,38.09 C76.69,39.03 76.89,40.03 76.91,41.00 C76.92,41.79 76.67,42.53 76.48,43.29 L76.36,43.74 L76.36,43.74 C76.47,43.75 76.57,43.85 76.53,43.96 C75.71,46.64 74.32,49.19 72.97,51.63 C71.59,54.13 70.17,56.62 68.64,59.03 C63.21,67.61 57.00,75.70 50.19,83.22 C46.92,86.82 43.39,90.19 40.20,93.86 C38.72,95.57 37.33,97.36 36.17,99.32 C35.55,100.37 34.99,101.47 34.51,102.60 L34.42,102.83 C34.03,103.75 33.65,104.57 32.93,105.31 C32.57,105.68 31.85,105.53 31.74,105.00 C31.21,102.51 32.97,99.83 34.24,97.80 C35.62,95.61 37.23,93.57 38.94,91.63 C39.42,91.08 39.92,90.54 40.41,90.01 C38.18,90.62 35.83,90.78 33.56,91.18 C31.23,91.59 28.92,92.08 26.66,92.79 C24.59,93.44 22.62,94.30 20.73,95.38 C19.83,95.90 18.94,96.47 18.11,97.10 C18.03,97.16 17.96,97.22 17.88,97.29 C19.23,100.68 20.27,104.21 21.36,107.70 C22.10,110.08 22.83,112.47 23.55,114.86 L25.16,120.24 C26.33,124.12 27.30,128.33 29.36,131.86 C30.24,133.38 31.44,134.76 32.82,135.86 C33.48,136.40 34.21,136.81 34.96,137.20 C35.43,137.45 35.85,137.77 36.29,138.07 C36.58,137.74 37.02,137.54 37.56,137.62 L37.62,137.63 C39.32,137.97 41.07,137.36 42.58,136.62 C44.16,135.84 45.73,134.93 47.06,133.78 C49.68,131.52 51.86,128.70 53.98,125.97 C61.53,116.26 67.97,105.62 73.21,94.49 C75.87,88.83 78.36,83.08 80.70,77.27 C81.87,74.37 83.02,71.47 84.14,68.55 L84.29,68.16 C85.29,65.48 86.17,62.57 87.79,60.21 C87.80,60.19 87.82,60.17 87.84,60.16 C87.84,60.09 87.86,60.03 87.89,59.97 C88.40,59.17 89.35,58.94 90.19,58.56 C91.12,58.14 92.05,57.73 92.99,57.31 C93.72,56.98 94.80,56.70 95.35,56.07 C95.98,55.37 96.19,54.12 96.49,53.25 C97.18,51.28 97.93,49.33 98.67,47.39 C99.33,45.68 99.89,43.84 100.81,42.25 C101.60,40.89 102.72,40.17 104.01,39.39 L104.29,39.22 C104.84,38.89 105.41,38.49 105.63,37.88 C105.98,36.87 105.20,35.90 104.37,35.42 C102.53,34.35 100.33,35.58 98.71,36.52 C97.09,37.47 95.51,38.61 93.77,39.34 C93.74,39.36 93.71,39.30 93.74,39.27 C95.13,37.99 96.83,36.94 98.44,35.90 L98.83,35.64 C99.90,34.95 101.11,34.27 102.39,34.08 C102.12,33.99 102.20,33.65 102.46,33.62 C104.98,33.31 107.53,33.70 110.03,33.12 C112.25,32.59 114.19,31.33 115.75,29.68 C117.21,28.12 118.37,26.31 119.46,24.48 C120.09,23.41 120.70,22.33 121.34,21.26 C121.44,21.10 121.53,20.93 121.63,20.73 C120.49,20.47 119.33,19.62 118.55,18.96 C117.35,17.94 116.47,16.56 115.85,15.12 C114.42,11.73 114.53,7.86 115.61,4.40 C115.67,4.19 115.99,4.18 116.05,4.40 C116.87,7.37 116.95,10.58 118.24,13.41 C118.76,14.54 119.49,15.56 120.38,16.43 C120.83,16.86 121.29,17.23 121.84,17.54 C122.43,17.86 123.07,17.97 123.54,18.49 C123.57,18.52 123.59,18.55 123.62,18.58 C123.89,18.54 124.13,18.58 124.32,18.70 L124.36,18.73 L124.37,18.72 C123.52,18.14 122.66,17.56 121.75,17.05 C121.51,16.92 121.69,16.59 121.93,16.64 L122.53,16.74 C124.52,17.10 126.55,17.50 128.37,18.39 C130.39,19.37 132.31,20.51 134.15,21.80 C137.77,24.33 141.07,27.32 143.95,30.66 C149.27,36.84 153.03,44.26 155.36,52.04 C158.26,61.77 159.39,71.98 160.62,82.03 C161.20,86.84 161.73,91.65 162.20,96.48 L162.32,97.79 C162.56,100.27 162.81,102.75 163.05,105.22 C163.47,105.89 163.50,106.68 163.25,107.36 C163.44,109.37 163.60,111.37 163.73,113.39 C164.07,118.59 164.28,123.80 164.37,129.01 C164.47,134.29 164.27,139.57 164.21,144.85 C164.19,147.08 160.82,147.07 160.77,144.85 C160.63,139.02 160.21,133.18 159.92,127.34 C159.62,121.65 159.35,115.96 159.01,110.27 C158.97,109.73 158.94,109.18 158.91,108.64 C158.42,108.83 157.81,108.91 157.29,109.01 L157.17,109.04 C156.13,109.26 155.09,109.41 154.04,109.51 L153.69,109.54 C152.74,109.61 147.83,109.71 144.93,109.18 C145.17,112.91 145.40,116.63 145.65,120.35 C145.94,124.59 146.00,128.84 146.21,133.08 C146.32,135.20 146.45,137.31 146.72,139.42 C146.84,140.38 146.97,141.34 147.12,142.30 L147.20,142.78 C147.33,143.60 147.50,144.30 147.15,145.04 C147.46,145.98 146.98,147.16 145.74,147.07 C137.75,146.47 129.74,146.22 121.73,146.18 C107.90,146.11 94.07,146.67 80.25,147.05 L76.51,147.15 C63.56,147.50 50.55,147.88 37.66,146.45 C37.63,148.10 34.55,148.08 34.71,146.24 L34.75,145.80 C34.94,143.79 35.18,141.72 35.80,139.79 C35.28,139.81 34.77,139.78 34.28,139.62 C33.59,139.40 32.93,138.99 32.33,138.58 C30.99,137.68 29.86,136.57 28.89,135.29 C26.98,132.78 25.71,129.80 24.70,126.83 C23.64,123.66 22.66,120.45 21.75,117.23 L20.77,113.75 C19.52,109.32 18.30,104.82 17.55,100.27 C17.47,100.38 17.36,100.47 17.22,100.53 C13.25,102.31 9.85,98.67 9.18,94.99 C8.78,92.82 8.87,90.59 8.91,88.40 L8.91,88.16 C8.94,85.63 8.95,83.10 9.08,80.57 C9.51,72.11 11.48,63.91 14.55,56.03 C17.43,48.62 20.93,41.14 25.42,34.55 C27.56,31.43 30.02,28.42 32.99,26.04 C36.12,23.54 39.64,21.63 43.33,20.08 C47.09,18.50 51.00,17.24 54.91,16.06 C59.22,14.75 63.59,13.63 68.03,12.84 C68.35,12.79 68.67,12.88 68.85,13.18 C69.00,13.44 69.15,13.70 69.29,13.97 C69.90,13.59 70.83,13.50 71.44,13.31 C73.34,12.73 76.76,12.37 78.27,11.03 C79.99,9.50 80.82,7.45 81.59,5.35 Z M17.21,97.88 C16.94,98.12 16.68,98.37 16.40,98.60 C16.76,98.44 17.09,98.55 17.33,98.77 C17.29,98.47 17.25,98.17 17.21,97.88 Z M104.53,40.72 C104.12,40.97 103.72,41.22 103.35,41.53 C102.02,42.63 101.57,44.42 101.02,45.99 L100.98,46.08 C100.30,47.98 99.62,49.88 98.90,51.76 C98.67,52.34 98.46,52.98 98.23,53.61 C101.28,56.54 104.39,59.44 107.65,62.13 C113.62,67.05 120.12,71.33 127.03,74.81 C130.58,76.60 134.25,78.24 138.02,79.50 C139.38,79.96 140.77,80.36 142.18,80.66 L142.18,80.64 L142.18,80.64 C142.19,80.59 142.27,80.56 142.28,80.62 L142.29,80.68 L142.29,80.68 C142.89,80.81 143.50,80.91 144.11,80.99 C145.27,81.15 146.44,81.22 147.61,81.21 C148.33,81.20 149.05,81.11 149.76,81.15 C146.60,78.30 143.42,75.47 140.23,72.65 C134.19,67.31 128.12,62.01 122.03,56.71 C119.33,54.36 116.59,52.04 113.90,49.68 L111.31,47.39 C109.02,45.36 106.75,43.30 104.76,40.98 L104.53,40.72 Z M77.53,56.42 C77.34,56.20 77.62,55.91 77.85,56.10 C79.20,57.25 80.72,57.75 82.34,58.36 C82.72,58.51 82.69,59.11 82.25,59.10 C80.36,59.07 78.67,57.85 77.53,56.42 Z M96.44,28.27 L96.58,28.22 C98.48,27.47 100.95,27.10 102.45,28.83 C103.53,30.09 103.81,32.47 102.39,33.57 C102.05,33.83 101.33,33.60 101.55,33.07 C102.17,31.56 102.30,29.57 100.35,28.99 C98.65,28.48 96.67,29.47 95.13,30.16 L94.68,30.35 C91.67,31.69 88.68,33.31 86.84,36.14 C86.79,36.21 86.66,36.17 86.69,36.08 C88.17,32.00 92.67,29.81 96.44,28.27 Z M74.14,19.54 L73.41,19.26 C71.54,18.56 69.23,17.86 68.07,19.86 C67.64,20.61 67.27,21.53 67.11,22.40 L67.09,22.51 C67.04,22.78 66.98,23.06 67.17,23.27 C67.47,23.59 68.42,23.75 68.81,23.89 L71.22,24.76 L71.22,24.76 L72.43,25.21 C72.98,25.41 73.69,25.61 74.10,26.05 C75.52,24.18 77.78,23.12 79.91,22.19 C77.99,21.30 76.13,20.29 74.14,19.54 Z" id="🖍-Ink" fill="#000000"></path></g><g id="head/Afro" transform="translate(78.59, 38.04)" fill-rule="evenodd"><path d="M41.28,17.47 C73.30,15.90 87.75,38.45 88.69,48.53 C89.34,55.52 85.21,63.58 85.21,69.83 C85.21,73.02 89.11,79.87 87.29,84.52 C83.25,94.86 74.68,106.35 63.77,106.35 C52.85,106.35 38.65,109.37 26.59,92.09 C25.46,90.47 11.15,81.26 9.76,72.51 C6.29,50.70 18.43,18.60 41.28,17.47 Z" id="🎨-Background" fill="#FFFFFF"></path><path d="M39.77,3.44 C40.92,2.13 42.85,1.60 44.57,1.70 C47.06,1.85 49.23,3.39 51.71,3.51 C54.32,3.63 56.83,2.72 59.44,3.14 C61.04,3.40 62.62,4.14 63.65,5.39 C67.20,4.38 71.05,5.72 73.31,8.66 C76.10,8.23 79.13,10.08 79.99,12.76 C83.53,12.88 86.87,15.73 87.27,19.29 C88.68,19.67 89.91,20.64 90.67,21.94 C91.54,23.43 91.69,25.15 91.53,26.83 C93.20,27.69 94.05,29.52 94.27,31.45 C95.79,32.59 96.45,34.63 96.14,36.56 C97.31,37.22 97.91,38.75 97.90,40.12 C97.90,41.39 97.56,42.52 98.03,43.75 C98.46,44.84 98.61,45.76 98.38,46.90 L98.35,47.02 C98.31,47.20 98.28,47.38 98.25,47.56 C98.56,47.84 98.83,48.18 99.03,48.59 C99.76,50.06 99.65,51.75 99.09,53.24 C99.34,54.19 99.31,55.20 98.95,56.12 C99.62,57.09 99.98,58.28 99.87,59.52 C99.76,60.91 99.12,62.15 98.16,63.07 C98.42,64.96 97.65,67.01 96.26,68.34 C96.45,69.48 96.28,70.66 95.66,71.74 C95.22,72.51 94.63,73.08 93.94,73.47 C93.96,74.11 93.88,74.75 93.67,75.40 C93.37,76.30 92.88,77.13 92.23,77.80 C92.62,80.28 91.13,83.04 88.51,83.74 C88.29,83.80 88.08,83.82 87.88,83.83 C87.62,86.22 87.05,88.57 86.17,90.81 C83.94,96.51 79.87,101.50 74.57,104.61 C71.95,106.14 69.01,107.19 66.00,107.63 C63.84,107.95 61.76,107.87 59.58,107.66 C56.86,107.38 54.12,106.98 51.47,106.27 L51.04,106.16 C49.95,105.87 48.79,105.53 47.84,104.93 C46.77,104.27 46.22,103.25 45.97,102.04 C45.84,101.37 46.26,100.65 47.00,100.64 L47.04,100.64 C47.20,100.64 47.36,100.64 47.52,100.63 L47.65,100.62 L47.65,100.62 C47.66,100.61 47.66,100.61 47.67,100.61 C47.74,100.60 47.81,100.58 47.88,100.57 C48.69,100.44 49.40,100.57 50.15,100.82 L50.25,100.86 C51.53,101.30 52.79,101.70 54.11,102.01 C55.47,102.32 56.85,102.56 58.24,102.76 L58.37,102.77 L58.42,102.78 L58.44,102.78 L58.44,102.78 C58.44,102.78 58.45,102.78 58.45,102.79 L58.86,102.84 L58.86,102.84 C59.18,102.87 59.50,102.91 59.82,102.94 C60.41,103.00 61.00,103.05 61.60,103.08 C71.81,103.66 80.38,95.61 82.97,85.97 C83.91,82.48 83.97,79.00 83.69,75.52 C83.60,75.27 83.55,74.98 83.55,74.68 C83.55,74.52 83.56,74.36 83.57,74.20 C83.23,70.83 82.63,67.46 82.25,64.07 C81.82,60.12 81.57,56.15 81.66,52.18 C81.71,50.21 81.92,48.27 82.19,46.32 L82.29,45.62 L82.29,45.62 C81.05,45.38 79.90,44.79 78.98,43.94 C76.98,45.09 74.40,45.20 72.43,43.98 C70.23,45.36 67.15,45.49 64.93,44.14 C63.58,45.09 61.89,45.51 60.23,45.14 C59.48,44.98 58.74,44.63 58.11,44.14 C57.65,44.22 57.19,44.25 56.74,44.22 L56.64,44.28 L56.64,44.28 C55.59,44.83 54.42,45.20 53.22,45.16 C52.33,45.13 51.41,44.95 50.56,44.62 C49.65,45.17 48.66,45.54 47.60,45.67 C46.05,45.87 44.38,45.53 43.09,44.65 C40.73,45.99 37.84,46.20 35.29,45.29 C34.77,46.18 34.05,46.94 33.21,47.52 C33.36,48.07 33.41,48.64 33.35,49.20 C33.27,50.11 33.04,50.93 32.67,51.67 C33.06,52.49 33.18,53.50 32.96,54.51 C32.64,55.96 31.80,57.21 30.72,58.19 C30.62,60.50 29.36,62.66 27.30,63.86 C27.20,63.92 27.09,63.97 26.99,64.01 C26.90,64.14 26.79,64.25 26.67,64.34 C25.36,65.55 23.29,65.45 21.65,64.77 C21.62,64.77 21.59,64.77 21.55,64.77 C20.97,64.79 20.57,64.56 20.33,64.22 C20.09,64.24 19.86,64.26 19.62,64.30 C18.75,64.47 17.79,64.78 17.00,65.19 C14.96,66.24 14.01,68.10 13.73,70.33 C13.42,72.77 14.12,75.26 16.01,76.91 C16.93,77.71 18.10,78.22 19.29,78.43 C20.61,78.66 22.01,78.08 22.99,79.22 C23.18,79.44 23.31,79.75 23.21,80.05 C22.88,81.00 22.34,81.36 21.49,81.49 C22.71,82.95 23.97,84.35 25.37,85.66 C26.88,87.08 28.43,88.45 29.80,90.02 C31.23,91.67 32.53,93.43 33.44,95.43 C33.95,96.59 34.36,97.78 34.81,98.96 L34.89,99.17 C35.39,100.42 36.05,101.63 35.28,102.94 C34.98,103.46 34.29,103.96 33.66,103.87 C31.87,103.65 31.27,102.44 30.72,100.87 C30.31,99.68 29.99,98.46 29.55,97.28 C29.46,97.06 29.37,96.85 29.28,96.63 C28.25,96.92 27.12,96.69 26.20,96.10 C25.22,96.54 24.13,96.76 23.08,96.74 C21.67,96.71 20.39,96.32 19.28,95.62 C19.20,95.59 19.11,95.57 19.02,95.55 C17.34,96.19 15.37,96.08 13.85,95.03 C12.87,94.36 12.19,93.45 11.81,92.45 C10.54,92.43 9.28,91.97 8.37,91.07 C7.53,90.24 7.04,89.17 6.89,88.06 C5.80,87.84 4.77,87.31 3.96,86.42 C3.29,85.67 2.88,84.73 2.75,83.74 C1.41,83.36 0.21,82.49 -0.45,81.27 C-1.06,80.14 -1.15,78.91 -0.85,77.80 L-0.93,77.69 L-0.93,77.69 C-2.30,76.97 -3.35,75.79 -3.46,74.10 C-3.49,73.63 -3.44,73.15 -3.31,72.69 C-3.36,72.19 -3.33,71.68 -3.19,71.19 C-5.04,69.39 -5.71,66.50 -4.71,64.11 C-6.51,62.17 -6.99,59.09 -5.67,56.79 C-6.57,55.69 -7.04,54.28 -6.96,52.79 C-6.87,50.92 -6.01,49.29 -4.99,47.78 C-5.75,46.94 -6.15,45.76 -6.12,44.63 C-6.08,42.99 -5.21,41.57 -4.12,40.40 C-5.07,37.51 -4.00,34.38 -1.66,32.55 C-2.14,31.77 -2.31,30.80 -2.16,29.82 C-1.89,28.11 -0.61,26.95 0.78,26.03 C0.49,25.08 0.56,24.07 1.02,23.09 C1.64,21.79 2.80,20.97 4.01,20.27 C4.32,17.39 7.54,14.92 10.24,16.41 C9.57,14.27 11.50,11.95 13.72,11.71 C14.81,8.41 18.55,6.34 21.92,7.16 C23.64,4.80 26.85,3.89 29.57,4.90 C32.56,2.61 36.27,2.27 39.77,3.44 Z M18.46,68.09 C20.56,67.98 22.14,69.69 23.25,71.26 C24.29,72.74 21.62,74.29 20.84,72.67 C20.56,72.09 20.25,71.48 19.82,70.97 C19.75,71.07 19.69,71.17 19.62,71.28 L19.56,71.39 C19.51,71.46 19.47,71.54 19.43,71.63 C19.43,71.64 19.37,71.84 19.36,71.84 C19.19,72.37 18.81,72.71 18.30,72.89 C17.63,73.12 17.00,72.62 16.79,72.03 C16.45,71.10 17.24,70.28 18.06,69.91 C17.25,69.77 16.46,70.05 15.88,70.67 C15.80,70.76 15.66,70.69 15.66,70.58 C15.59,69.11 17.13,68.16 18.46,68.09 Z" id="🖍-Ink" fill="#000000"></path></g><g id="face/Awe" transform="translate(112.18, 77.35)" fill="#000000" fill-rule="evenodd"><path d="M19.93,39.96 C19.97,39.92 20.04,39.91 20.10,39.94 C21.01,40.52 21.12,42.47 21.13,43.59 C21.51,43.69 21.88,43.80 22.23,43.88 C22.98,44.04 23.74,44.19 24.49,44.34 L25.06,44.46 C26.94,44.85 28.86,45.15 30.78,45.30 C32.65,45.44 34.57,45.49 36.43,45.25 C37.23,45.15 38.02,44.98 38.79,44.75 C39.70,44.47 40.43,44.02 41.28,43.63 C43.40,42.64 45.18,45.54 43.14,46.81 C41.38,47.90 38.99,48.30 36.97,48.46 C34.89,48.64 32.83,48.45 30.79,48.12 C28.58,47.77 26.41,47.22 24.31,46.43 C23.43,46.10 22.57,45.69 21.73,45.25 L21.50,45.13 C21.36,45.06 21.22,44.98 21.07,44.90 C20.91,46.30 20.46,47.66 19.92,48.96 L19.90,48.93 C19.60,49.96 18.52,50.59 17.45,50.14 C16.19,49.61 16.09,48.21 16.83,47.22 L16.86,47.18 C17.72,46.07 18.26,44.69 18.73,43.38 C18.98,42.70 19.20,42.01 19.39,41.33 C19.53,40.83 19.54,40.33 19.93,39.96 Z M52.43,28.81 C51.68,31.07 50.05,32.81 47.78,33.58 C45.53,34.34 43.03,34.06 40.72,33.65 C40.22,33.56 39.71,33.46 39.20,33.34 C39.62,33.60 39.99,33.97 40.34,34.35 C40.86,34.92 41.33,35.52 41.48,36.23 C41.62,36.93 41.39,37.47 40.99,37.88 C40.36,38.50 39.34,38.84 38.48,39.02 C36.56,39.44 34.64,39.37 32.72,38.95 C32.23,38.84 31.90,38.58 31.72,38.23 C31.49,37.82 31.47,37.30 31.60,36.83 C31.73,36.36 32.01,35.93 32.42,35.69 C32.75,35.49 33.17,35.44 33.64,35.59 C34.60,35.91 35.54,36.12 36.55,36.15 C36.98,36.16 37.40,36.14 37.83,36.10 C38.07,36.08 38.31,36.05 38.55,36.01 C38.41,35.83 38.27,35.64 38.14,35.44 C37.98,35.22 37.83,34.98 37.68,34.75 C37.26,34.07 36.90,33.37 36.59,32.64 C36.49,32.40 36.40,32.16 36.31,31.93 C36.30,31.89 36.29,31.86 36.28,31.82 C36.25,31.80 36.22,31.78 36.19,31.75 C35.59,31.23 35.08,30.58 34.72,29.78 C33.75,27.61 33.90,24.92 34.49,22.66 C34.97,20.86 36.01,19.19 37.39,18.05 C37.64,17.66 37.80,17.42 37.99,17.21 C38.78,16.39 39.89,15.83 40.97,15.49 C43.39,14.73 46.02,15.28 48.06,16.72 C49.95,18.05 51.43,20.05 52.23,22.27 C52.99,24.37 53.13,26.68 52.43,28.81 Z M19.55,15.08 C22.42,15.05 25.34,15.90 27.67,17.60 C29.90,19.22 31.65,21.62 31.64,24.47 C31.64,27.25 30.16,29.99 28.51,32.14 C26.66,34.56 24.24,35.72 21.20,35.75 C19.62,35.76 18.03,35.62 16.47,35.43 L15.62,35.32 C14.47,35.17 13.29,35.00 12.20,34.60 C6.97,32.70 6.81,25.86 8.74,21.48 C10.24,18.10 14.02,14.81 17.79,15.20 C18.36,15.12 18.95,15.08 19.55,15.08 Z M24.40,18.29 C20.80,16.68 16.43,17.16 12.95,18.89 C11.56,20.39 10.55,22.29 10.15,24.04 C9.71,25.90 9.77,27.91 10.43,29.71 C11.23,31.92 13.20,32.46 15.33,32.80 L16.16,32.93 L16.50,32.98 C18.59,33.29 20.88,33.54 22.89,33.15 C25.13,32.71 26.55,30.90 27.67,29.05 L27.72,28.96 C28.88,27.02 29.85,24.65 28.88,22.42 C28.05,20.53 26.24,19.12 24.40,18.29 Z M45.62,18.86 C44.38,18.17 42.97,18.05 41.64,18.51 C41.07,18.70 40.57,19.02 40.09,19.38 L39.90,19.53 C39.31,19.98 38.76,20.21 38.32,20.82 L38.26,20.90 C38.04,21.24 37.65,21.37 37.29,21.33 C36.87,22.47 36.70,23.71 36.70,24.93 L36.70,25.09 L36.70,25.25 C36.73,26.70 36.98,28.46 38.11,29.42 C39.15,30.30 40.71,30.52 42.11,30.64 L43.18,30.73 L43.47,30.75 C44.94,30.85 46.56,30.82 47.79,29.95 C48.87,29.19 49.37,27.90 49.51,26.62 C49.82,23.62 48.29,20.34 45.62,18.86 Z M18.76,19.14 C20.74,18.12 23.12,18.38 24.79,19.64 C24.65,19.67 24.50,19.71 24.35,19.78 C23.97,19.98 23.74,20.36 23.65,20.76 C23.54,21.22 23.78,21.66 24.24,21.80 C24.63,21.93 25.10,21.99 25.47,21.75 C25.66,21.62 25.79,21.46 25.88,21.25 L25.89,21.22 L25.91,21.20 L25.91,21.18 C25.92,21.18 25.91,21.19 25.90,21.21 C25.91,21.18 25.92,21.15 25.93,21.13 C25.94,21.10 25.96,21.06 25.97,21.03 C25.99,21.01 26.01,20.99 26.03,20.97 C26.34,21.44 26.58,21.97 26.73,22.56 C27.70,26.34 23.71,30.27 20.13,30.66 C18.78,30.81 17.55,30.49 16.53,29.85 C16.54,29.84 16.55,29.83 16.56,29.82 C16.97,29.89 17.46,29.71 17.61,29.25 C17.99,28.08 17.60,26.71 16.33,26.33 C15.51,26.09 14.67,26.36 14.09,26.92 C13.64,25.84 13.49,24.62 13.70,23.39 C13.99,21.67 15.03,20.12 16.65,19.40 C17.43,19.05 18.11,18.98 18.76,19.14 Z M39.61,21.47 L39.67,21.37 C40.28,20.43 41.45,19.28 42.66,19.59 C42.83,19.64 43.00,19.71 43.15,19.80 C43.82,19.71 44.51,19.86 45.09,20.22 L45.07,20.26 C45.07,20.26 45.07,20.27 45.06,20.28 C45.01,20.51 45.04,20.72 45.15,20.93 C45.26,21.16 45.43,21.37 45.65,21.50 C45.81,21.59 45.99,21.64 46.17,21.64 C46.42,21.63 46.65,21.52 46.84,21.34 C46.94,21.25 47.01,21.11 47.05,20.97 C47.15,21.06 47.24,21.15 47.32,21.27 C48.73,23.11 48.53,26.09 46.88,27.73 C46.82,27.80 46.75,27.86 46.68,27.92 C46.01,28.84 44.98,29.47 43.74,29.59 C42.59,29.71 41.44,29.37 40.56,28.68 C40.63,28.64 40.70,28.59 40.76,28.53 C40.91,28.36 41.03,28.19 41.12,27.98 C41.14,27.93 41.17,27.87 41.19,27.82 L41.22,27.74 C41.22,27.73 41.27,27.59 41.26,27.62 L41.26,27.62 L41.27,27.58 C41.43,27.19 41.37,26.74 40.99,26.49 L40.95,26.47 C40.83,26.40 40.68,26.36 40.52,26.36 C40.14,25.89 39.57,25.79 39.04,25.92 L39.02,25.77 C39.02,25.75 39.02,25.72 39.02,25.70 C38.60,24.33 38.80,22.77 39.61,21.47 Z M21.27,7.68 L21.41,7.66 C22.45,7.51 23.15,7.68 23.82,8.57 C24.15,8.99 24.05,9.63 23.82,10.06 C23.11,11.45 21.13,11.16 19.80,11.44 C18.50,11.71 17.21,12.08 15.99,12.62 C14.75,13.16 13.59,13.81 12.45,14.55 C11.43,15.22 10.50,16.22 9.32,16.61 C9.27,16.63 9.21,16.58 9.21,16.52 C9.29,15.19 10.41,13.96 11.27,13.01 C12.27,11.91 13.48,10.94 14.75,10.16 C16.05,9.36 17.46,8.70 18.92,8.24 C19.69,8.00 20.48,7.81 21.27,7.68 Z M37.07,9.49 C38.37,7.58 41.62,7.95 43.54,8.46 C45.94,9.10 48.54,10.39 50.22,12.26 C51.73,13.94 49.47,16.12 47.78,14.71 L47.33,14.33 L47.04,14.09 C45.73,13.03 44.44,12.07 42.86,11.36 C41.00,10.53 39.11,10.12 37.15,9.68 C37.07,9.66 37.02,9.56 37.07,9.49 Z" id="🖍-Ink"></path></g><g id="facial-hair/*-None" transform="translate(104.58, 109.48)"></g><g id="accessories/*-None" transform="translate(88.52, 88.98)"></g></g></g></g></g></svg>