<?xml version="1.0" encoding="UTF-8"?><svg width="240px" height="324px" viewBox="0 0 240 324" version="1.1" xmlns="http://www.w3.org/2000/svg" xmlns:xlink="http://www.w3.org/1999/xlink"><title>peep-26</title><desc>Created with Sketch.</desc><g id="Introduction" stroke="none" stroke-width="1" fill="none" fill-rule="evenodd"><g id="variations" transform="translate(-846.00, -1406.00)"><g id="images" transform="translate(126.00, 110.00)"><g id="a-person/bust" transform="translate(720.00, 1296.00)"><g id="body/Sweater-Dots" transform="translate(31.06, 135.05)" fill-rule="evenodd"><path d="M24.91,152.75 C31.96,152.77 38.81,153.02 45.88,153.04 C74.62,153.14 103.62,153.00 132.46,151.83 C140.61,151.50 142.64,151.51 150.76,151.00 C155.55,150.98 169.95,150.58 169.23,144.06 C168.91,131.89 165.90,119.78 164.95,107.65 C163.13,84.85 161.58,61.34 152.45,40.01 C150.33,34.92 145.79,31.59 141.29,28.60 C136.78,25.36 135.68,21.78 131.52,18.13 C130.64,17.36 125.64,17.04 122.95,15.08 C119.04,12.23 117.10,7.57 115.64,6.78 C114.56,6.19 114.58,2.16 112.43,0.73 C109.54,-1.18 100.33,-2.60 96.98,-2.87 C93.77,-3.13 88.18,-2.59 85.16,-1.41 C80.13,0.55 78.12,4.30 75.91,9.13 C46.64,18.18 19.88,33.50 11.57,64.41 C4.41,90.34 4.15,118.13 6.91,144.72 C7.47,146.66 7.08,149.71 8.76,151.00 C2.92,151.33 24.12,152.54 24.91,152.75 Z" id="🎨-Background" fill="#FFFFFF"></path><path d="M158.05,127.15 C157.49,126.88 156.91,126.56 156.28,126.54 C155.19,126.50 155.19,124.81 156.28,124.85 C157.23,124.88 158.06,125.28 158.90,125.69 C159.87,126.18 159.02,127.64 158.05,127.15 M156.28,79.56 C157.02,79.56 157.77,79.66 158.34,80.18 C158.68,80.48 158.65,81.06 158.34,81.37 C158.01,81.70 157.48,81.68 157.14,81.37 C157.25,81.47 157.14,81.37 157.10,81.35 C157.10,81.34 157.09,81.34 157.09,81.34 C157.08,81.34 157.07,81.33 157.06,81.33 C156.97,81.31 156.88,81.29 156.79,81.27 C156.79,81.28 156.60,81.26 156.56,81.26 C156.47,81.25 156.37,81.25 156.28,81.25 C155.82,81.25 155.44,80.87 155.44,80.41 C155.44,79.95 155.82,79.56 156.28,79.56 M148.33,98.53 C148.09,99.59 146.46,99.14 146.70,98.08 C147.06,96.54 146.99,94.96 146.70,93.42 C146.51,92.35 148.14,91.90 148.33,92.97 C148.68,94.82 148.76,96.68 148.33,98.53 M146.20,37.76 C144.94,37.46 143.70,37.43 142.41,37.43 C141.32,37.43 141.32,35.74 142.41,35.74 C143.84,35.74 145.25,35.80 146.65,36.13 C147.71,36.38 147.26,38.01 146.20,37.76 M141.98,78.95 C141.25,78.58 140.52,78.22 139.79,77.85 C138.82,77.36 139.67,75.91 140.64,76.39 L142.84,77.49 C143.81,77.97 142.95,79.43 141.98,78.95 M141.68,112.24 C140.75,113.58 139.45,114.41 137.89,114.82 C136.83,115.10 136.39,113.47 137.44,113.19 C138.56,112.90 139.55,112.36 140.22,111.39 C140.83,110.50 142.30,111.35 141.68,112.24 M135.84,52.71 C135.59,52.24 135.21,52.05 134.74,52.04 C133.65,52.01 133.65,50.32 134.74,50.35 C135.81,50.37 136.79,50.91 137.30,51.86 C137.81,52.82 136.35,53.67 135.84,52.71 M125.12,64.21 C124.81,64.54 124.23,64.53 123.92,64.21 C123.74,64.01 123.58,63.79 123.46,63.55 C123.41,63.46 123.36,63.36 123.31,63.27 C123.29,63.23 123.26,63.20 123.24,63.16 C123.23,63.15 123.21,63.13 123.19,63.11 C122.87,62.77 122.88,62.26 123.19,61.91 C123.50,61.58 124.08,61.59 124.39,61.91 C124.57,62.11 124.73,62.33 124.85,62.57 C124.90,62.66 124.95,62.76 125.00,62.85 C125.02,62.89 125.05,62.93 125.07,62.96 C125.08,62.97 125.10,62.99 125.12,63.01 C125.44,63.35 125.43,63.86 125.12,64.21 M124.22,89.17 C123.12,89.68 121.91,89.68 120.81,89.17 C120.39,88.98 120.29,88.38 120.50,88.02 C120.75,87.59 121.25,87.52 121.66,87.71 C122.16,87.94 122.86,87.94 123.36,87.71 C123.78,87.52 124.27,87.59 124.52,88.02 C124.73,88.38 124.63,88.98 124.22,89.17 M121.21,106.84 C121.03,107.29 120.62,107.53 120.14,107.55 C119.67,107.57 119.31,107.15 119.29,106.70 C119.28,106.42 119.44,106.17 119.66,106.02 C119.66,106.00 119.66,105.99 119.66,105.97 C119.66,105.50 120.05,105.15 120.50,105.13 C120.96,105.11 121.35,105.53 121.35,105.97 C121.35,106.27 121.33,106.57 121.21,106.84 M116.85,134.94 C115.50,134.96 114.19,135.28 112.84,135.30 C111.75,135.32 111.75,133.63 112.84,133.61 C114.19,133.59 115.50,133.27 116.85,133.25 C117.94,133.23 117.94,134.92 116.85,134.94 M111.24,26.59 C110.46,27.34 109.48,27.71 108.52,28.18 C107.54,28.66 106.69,27.20 107.67,26.72 C108.48,26.32 109.38,26.03 110.05,25.39 C110.84,24.64 112.03,25.84 111.24,26.59 M109.13,46.08 C108.57,45.80 107.99,45.48 107.36,45.46 C106.28,45.42 106.27,43.73 107.36,43.77 C108.31,43.80 109.14,44.20 109.98,44.62 C110.95,45.10 110.10,46.56 109.13,46.08 M98.97,124.30 C98.72,123.83 98.34,123.63 97.87,123.62 C96.78,123.59 96.78,121.90 97.87,121.93 C98.94,121.95 99.92,122.49 100.43,123.44 C100.94,124.40 99.48,125.25 98.97,124.30 M95.45,87.58 C95.11,87.27 95.13,86.70 95.45,86.38 C95.81,86.02 96.18,85.65 96.54,85.29 C96.88,84.95 97.40,84.98 97.74,85.29 C98.07,85.60 98.05,86.17 97.74,86.48 C97.37,86.85 97.01,87.21 96.64,87.58 C96.31,87.91 95.78,87.89 95.45,87.58 M91.30,144.80 C90.08,144.77 88.94,144.42 87.79,144.04 C86.76,143.70 87.20,142.06 88.24,142.41 C89.24,142.74 90.24,143.08 91.30,143.11 C92.39,143.13 92.39,144.83 91.30,144.80 M85.82,108.64 C84.72,108.61 83.81,108.05 83.03,107.30 C82.25,106.54 83.45,105.35 84.23,106.11 C84.67,106.54 85.18,106.94 85.82,106.95 C86.91,106.98 86.91,108.67 85.82,108.64 M89.22,62.15 C89.24,62.60 89.43,63.08 89.71,63.38 C90.45,64.17 89.26,65.36 88.51,64.57 C87.89,63.92 87.56,63.04 87.53,62.15 C87.50,61.06 89.19,61.06 89.22,62.15 M76.33,25.32 C75.98,24.63 75.51,23.82 74.81,23.43 C73.85,22.91 74.71,21.46 75.66,21.97 C76.62,22.49 77.31,23.52 77.79,24.47 C78.29,25.44 76.83,26.29 76.33,25.32 M74.14,42.91 C73.75,42.89 73.36,42.83 72.98,42.73 C72.82,42.68 72.66,42.63 72.50,42.59 C72.43,42.57 72.13,42.53 72.32,42.54 C71.86,42.52 71.47,42.17 71.47,41.70 C71.47,41.26 71.86,40.83 72.32,40.85 C72.94,40.88 73.51,41.20 74.14,41.22 C75.23,41.25 75.23,42.94 74.14,42.91 M68.66,69.93 L66.84,69.93 C65.75,69.93 65.75,68.24 66.84,68.24 L68.66,68.24 C69.75,68.24 69.75,69.93 68.66,69.93 M66.54,144.68 C65.98,144.96 65.33,145.22 64.88,145.65 C64.09,146.40 62.89,145.20 63.69,144.45 C64.26,143.91 64.99,143.57 65.68,143.23 C66.09,143.02 66.60,143.11 66.84,143.53 C67.06,143.90 66.94,144.48 66.54,144.68 M62.46,123.32 C62.39,123.30 62.31,123.29 62.24,123.28 C61.95,123.24 61.65,123.25 61.36,123.25 C60.27,123.25 60.28,121.56 61.36,121.56 C62.22,121.56 63.11,121.57 63.79,122.17 C64.13,122.48 64.09,123.06 63.79,123.37 C63.45,123.71 62.93,123.67 62.59,123.37 C62.63,123.40 62.50,123.33 62.46,123.32 M61.36,94.59 C61.61,94.08 61.61,93.75 61.61,93.19 C61.61,92.10 63.30,92.10 63.30,93.19 C63.30,94.01 63.18,94.70 62.82,95.44 C62.62,95.86 62.04,95.96 61.67,95.75 C61.25,95.50 61.16,95.00 61.36,94.59 M56.48,54.93 C55.50,55.26 54.62,55.73 53.76,56.30 C52.85,56.91 52.00,55.44 52.90,54.84 C53.89,54.19 54.91,53.68 56.03,53.30 C57.06,52.95 57.50,54.58 56.48,54.93 M50.78,26.47 C50.05,26.49 49.30,26.77 48.65,27.09 C47.67,27.56 46.82,26.10 47.79,25.63 C48.72,25.18 49.74,24.81 50.78,24.78 C51.87,24.75 51.86,26.44 50.78,26.47 M48.22,102.44 C47.93,102.45 47.69,102.29 47.54,102.07 C47.52,102.07 47.51,102.07 47.49,102.07 C47.02,102.07 46.67,101.68 46.65,101.23 C46.62,100.77 47.05,100.38 47.49,100.38 C47.79,100.38 48.08,100.40 48.36,100.52 C48.81,100.70 49.05,101.11 49.07,101.59 C49.08,102.06 48.66,102.42 48.22,102.44 M44.06,43.97 C43.03,44.31 42.59,42.68 43.61,42.34 C44.82,41.95 46.06,41.64 47.27,41.25 C48.30,40.91 48.74,42.54 47.71,42.88 C46.51,43.27 45.27,43.58 44.06,43.97 M40.27,75.89 C39.95,76.92 38.32,76.48 38.64,75.44 C38.96,74.43 38.98,73.42 38.98,72.37 C38.98,71.28 40.67,71.29 40.67,72.37 C40.67,73.56 40.63,74.74 40.27,75.89 M28.97,114.11 C28.91,114.53 28.58,114.83 28.14,114.85 C27.70,114.87 27.28,114.45 27.30,114.01 C27.33,113.16 28.02,112.46 28.87,112.43 C29.35,112.41 29.70,112.83 29.72,113.28 C29.74,113.71 29.38,114.05 28.97,114.11 M23.26,65.52 C22.36,65.82 21.41,66.10 20.71,66.76 C19.92,67.51 18.72,66.32 19.51,65.57 C20.44,64.70 21.62,64.28 22.81,63.89 C23.84,63.54 24.28,65.18 23.26,65.52 M19.38,98.36 C19.13,98.78 18.64,98.86 18.22,98.67 C17.67,98.41 17.06,98.42 16.46,98.42 C15.37,98.42 15.37,96.73 16.46,96.73 C17.38,96.73 18.23,96.82 19.08,97.21 C19.49,97.40 19.59,98.00 19.38,98.36 M17.19,138.23 C16.72,138.24 16.36,137.83 16.34,137.38 C16.33,136.95 16.69,136.61 17.09,136.55 C17.15,136.13 17.48,135.82 17.92,135.81 C18.36,135.79 18.78,136.21 18.76,136.65 C18.73,137.50 18.04,138.20 17.19,138.23 M171.17,144.62 C170.88,143.59 170.22,142.75 169.73,141.82 C169.56,141.51 169.50,141.31 169.41,141.08 C169.29,141.33 169.05,141.51 168.69,141.51 C168.01,141.51 167.20,141.47 166.56,141.76 C166.15,141.95 165.66,141.89 165.41,141.46 C165.19,141.09 165.30,140.49 165.71,140.30 C166.66,139.87 167.67,139.82 168.69,139.82 C168.95,139.82 169.14,139.92 169.27,140.06 C169.66,134.70 169.65,129.33 169.28,123.97 C168.89,118.24 167.98,112.62 167.03,106.96 C166.57,104.22 165.97,101.45 166.09,98.65 C166.20,95.88 167.39,93.29 166.55,90.51 C166.21,89.39 165.63,88.37 165.26,87.27 C164.85,86.08 164.89,84.90 165.07,83.67 C165.45,81.17 166.08,78.70 165.08,76.25 C164.63,75.17 163.91,74.20 163.57,73.08 C163.14,71.68 163.20,70.14 163.12,68.70 C162.98,65.79 162.94,62.86 162.70,59.95 C162.59,58.65 162.36,57.41 161.82,56.22 C161.31,55.07 160.55,54.02 160.21,52.80 C159.87,51.60 159.84,50.34 159.66,49.11 C159.47,47.81 159.17,46.53 158.77,45.29 C157.22,40.46 154.38,36.12 151.02,32.36 C147.45,28.37 143.18,25.36 138.66,22.55 C136.28,21.08 133.90,19.60 131.52,18.13 C131.47,18.40 131.29,18.66 130.95,18.77 C130.06,19.07 129.10,19.35 128.40,20.02 C127.61,20.76 126.42,19.57 127.21,18.82 C128.04,18.04 129.07,17.63 130.13,17.27 C129.05,16.58 127.95,15.88 126.73,15.48 C125.66,15.13 124.08,15.44 123.21,14.65 C122.53,14.03 122.31,12.88 122.05,12.04 C121.72,11.00 121.44,9.90 121.02,8.88 C120.74,8.19 120.33,7.52 119.81,6.99 C119.58,6.11 119.16,5.30 118.42,4.82 C116.49,3.53 114.11,4.81 113.26,6.63 C112.56,6.63 111.81,6.79 111.13,6.83 C109.72,6.92 108.31,6.96 106.90,6.95 C104.15,6.94 101.39,6.76 98.65,6.40 C93.76,5.74 89.02,4.42 84.22,3.39 C84.19,3.33 84.16,3.27 84.12,3.20 C83.08,1.47 80.50,1.76 78.88,2.42 C78.18,2.70 77.47,3.05 77.07,3.71 C76.65,4.00 76.28,4.34 76.04,4.71 C75.54,5.46 75.15,6.99 74.13,7.11 C73.46,7.20 72.78,7.07 72.09,7.16 C71.24,7.28 70.47,7.58 69.69,7.92 C63.69,10.53 57.48,13.43 50.97,14.44 C49.45,14.68 47.89,14.92 46.56,15.78 C45.49,16.47 44.65,17.43 43.76,18.33 C42.90,19.22 42.18,19.61 40.95,19.77 C39.45,19.96 38.15,20.37 37.05,21.46 C36.14,22.37 35.55,23.53 34.83,24.58 C34.11,25.65 33.04,26.26 31.93,26.88 C29.32,28.36 26.88,30.14 24.75,32.28 C20.28,36.78 17.57,42.57 14.84,48.22 C11.89,54.32 9.13,60.50 7.22,67.02 C5.34,73.42 4.23,80.00 3.71,86.64 C3.17,93.62 3.09,100.62 2.64,107.59 C2.41,111.08 2.24,114.57 2.07,118.05 C1.90,121.50 1.65,124.95 1.69,128.40 C1.77,135.07 3.10,141.76 5.43,148.00 C6.01,149.55 6.66,151.09 7.35,152.60 C7.95,153.92 10.01,153.77 10.65,152.60 C10.80,152.33 10.92,152.05 11.02,151.76 C12.71,151.78 14.41,151.65 16.09,151.80 C19.06,152.08 22.03,152.23 25.01,152.42 C30.89,152.78 36.79,153.03 42.68,153.36 C43.25,153.40 43.82,153.43 44.39,153.46 C40.19,140.47 40.74,126.42 40.07,112.91 C40.02,111.82 41.71,111.83 41.76,112.91 C42.43,126.48 41.86,140.56 46.21,153.58 C47.89,153.69 49.58,153.83 51.25,154.04 C52.61,154.20 53.97,154.39 55.34,154.32 C56.89,154.25 58.41,153.89 59.93,153.59 C62.68,153.02 65.33,153.28 68.09,153.62 C71.05,153.99 74.02,154.20 76.99,154.33 C88.90,154.85 100.89,155.32 112.80,154.53 C115.68,154.34 118.56,154.06 121.42,153.70 C124.37,153.32 127.29,152.68 130.23,152.32 C133.14,151.97 135.81,152.94 138.68,153.12 C141.61,153.30 144.61,152.69 147.52,152.34 C148.46,152.23 149.41,152.12 150.36,152.01 C149.14,143.64 148.44,135.21 147.77,126.79 C147.68,125.70 149.37,125.71 149.46,126.79 C150.13,135.15 150.81,143.51 152.02,151.81 C157.05,151.23 162.07,150.63 167.05,149.72 C168.46,149.47 169.87,149.05 170.71,147.78 C171.34,146.85 171.47,145.70 171.17,144.62" id="🖍-Ink" fill="#000000"></path></g><g id="head/Hijab" transform="translate(78.59, 38.04)" fill-rule="evenodd"><path d="M54.99,22.23 C86.79,23.24 88.71,38.35 88.71,63.69 C88.71,89.02 72.21,104.99 66.14,107.78 C60.06,110.57 44.07,122.55 29.64,117.03 C15.20,111.51 19.38,88.19 19.38,78.17 C19.38,68.15 23.19,21.22 54.99,22.23 Z" id="Path-2" fill="#FFFFFF"></path><path d="M67.89,99.46 C62.05,102.72 55.36,102.85 49.08,100.79 C45.32,99.57 41.86,97.67 38.63,95.40 C35.82,93.42 33.31,91.23 30.82,88.90 C28.77,84.39 26.95,79.88 26.10,74.97 C25.33,70.55 25.23,65.97 26.12,61.57 C32.68,56.17 39.20,50.73 45.71,45.27 C49.03,42.48 52.36,39.72 55.72,37.00 C57.43,35.61 59.12,34.21 60.83,32.82 C61.11,32.59 61.39,32.37 61.67,32.14 C65.18,34.71 68.95,36.92 72.44,39.53 C74.27,40.91 76.05,42.37 77.74,43.90 C78.63,44.71 79.49,45.54 80.34,46.39 C81.11,47.17 81.86,48.28 82.95,48.58 C83.10,48.62 83.24,48.63 83.38,48.61 C84.84,61.45 85.88,75.32 79.60,86.98 C76.86,92.07 72.98,96.61 67.89,99.46 Z M29.90,104.18 C29.10,103.44 30.30,102.25 31.10,102.98 C36.13,107.59 42.70,110.03 49.34,111.16 C50.41,111.35 49.96,112.98 48.89,112.80 C41.96,111.61 35.14,108.98 29.90,104.18 Z M23.87,111.25 C22.91,110.73 23.76,109.28 24.72,109.79 C28.64,111.89 32.94,112.98 37.29,113.72 C38.37,113.90 37.91,115.53 36.85,115.35 C32.34,114.59 27.92,113.42 23.87,111.25 Z M39.81,40.02 C43.07,37.10 46.56,34.32 50.25,31.98 C53.99,29.61 58.07,28.19 62.47,28.16 C62.17,28.40 61.87,28.68 61.57,28.93 C60.74,29.65 59.91,30.36 59.08,31.08 C57.42,32.51 55.76,33.94 54.12,35.39 C50.89,38.26 47.65,41.11 44.43,43.98 C38.24,49.50 32.18,55.14 26.25,60.94 C26.28,60.80 26.31,60.66 26.35,60.52 C28.31,52.32 33.65,45.55 39.81,40.02 Z M65.30,28.51 C65.32,28.45 65.34,28.39 65.35,28.33 C73.81,29.43 80.87,35.66 83.21,43.86 C83.01,44.14 82.90,44.48 82.94,44.84 C82.96,45.02 82.98,45.20 83.00,45.38 C82.71,45.09 82.41,44.82 82.16,44.57 C81.32,43.71 80.45,42.88 79.57,42.07 C77.75,40.42 75.87,38.87 73.88,37.43 C70.43,34.92 66.69,32.61 62.57,31.40 C62.84,31.18 63.11,30.96 63.38,30.74 C64.20,30.08 64.95,29.53 65.30,28.51 Z M80.47,19.74 C75.28,14.06 68.08,9.91 60.51,8.46 C53.27,7.08 45.78,7.99 38.95,10.67 C24.65,16.30 13.36,28.66 8.08,42.98 C5.00,51.33 3.99,60.48 4.91,69.31 C5.84,78.11 8.48,87.19 13.30,94.67 C13.74,95.36 14.23,96.01 14.73,96.65 C14.51,99.23 13.64,101.76 12.29,103.97 C12.21,104.08 12.14,104.20 12.06,104.32 C10.67,105.36 9.23,106.33 7.83,107.34 C6.61,108.21 5.40,109.11 4.25,110.08 C3.17,110.99 1.92,112.01 1.18,113.24 C0.58,114.25 0.34,115.62 1.16,116.59 C2.15,117.75 3.82,117.34 5.16,117.34 C5.27,117.34 5.38,117.34 5.50,117.34 C5.90,117.59 6.31,117.82 6.71,118.03 C10.76,120.18 14.83,122.31 18.90,124.42 C27.00,128.63 35.07,133.01 43.34,136.89 C47.18,138.69 51.28,140.26 55.57,140.26 C59.60,140.25 63.24,138.65 66.38,136.22 C69.97,133.45 72.96,129.93 75.87,126.48 C77.03,125.10 78.17,123.70 79.29,122.28 C81.43,121.57 83.56,121.36 85.48,122.74 C87.01,123.85 89.04,122.34 89.07,120.68 C89.09,120.08 89.06,119.50 89.00,118.93 C88.61,115.38 86.88,112.16 84.92,109.18 C83.85,107.55 82.72,105.95 81.59,104.37 C81.33,103.99 81.06,103.62 80.81,103.24 C85.36,96.54 88.97,89.11 91.19,81.35 C93.52,73.18 94.31,64.71 93.79,56.24 C92.99,43.27 89.43,29.54 80.47,19.74 Z" id="🖍-Ink" fill="#000000"></path></g><g id="face/Smiling" transform="translate(112.18, 77.35)" fill="#000000" fill-rule="evenodd"><path d="M30.97,50.92 C29.55,50.34 28.28,49.37 27.36,48.14 C27.03,47.71 26.95,47.26 27.02,46.84 C27.09,46.37 27.37,45.95 27.74,45.67 C28.12,45.38 28.59,45.24 29.05,45.32 C29.45,45.38 29.84,45.59 30.15,46.05 L30.22,46.14 C30.77,46.88 31.49,47.49 32.31,47.89 C33.09,48.27 33.97,48.44 34.89,48.34 C36.62,48.14 37.82,47.20 39.09,45.93 C39.25,45.77 39.41,45.60 39.57,45.43 C39.67,45.28 39.81,45.18 39.96,45.13 C40.13,45.07 40.33,45.07 40.51,45.14 C40.68,45.20 40.83,45.31 40.93,45.46 C41.03,45.60 41.09,45.78 41.07,45.98 C40.95,47.31 40.26,48.49 39.28,49.41 C38.19,50.44 36.74,51.16 35.38,51.41 C33.88,51.68 32.35,51.48 30.97,50.92 L30.97,50.92 Z M36.09,30.51 C37.68,31.48 40.11,33.74 38.40,36.15 C36.38,38.27 33.47,35.84 32.04,34.74 C30.71,33.89 29.21,36.08 30.45,37.07 C40.80,44.74 45.01,30.77 36.89,29.37 C36.00,29.22 35.67,30.21 36.09,30.51 Z M17.53,21.59 C17.70,19.40 21.04,18.90 21.37,21.07 C21.66,23.01 21.31,24.79 20.44,26.54 C19.61,28.21 17.51,27.43 17.35,25.91 C17.14,23.87 17.42,22.95 17.53,21.59 Z M42.89,20.62 C43.36,20.01 44.03,19.60 44.83,19.83 C47.34,20.56 46.60,24.13 45.72,25.87 C45.24,26.81 43.69,27.05 42.99,26.22 C41.85,24.86 41.31,22.16 42.76,20.83 C42.80,20.76 42.84,20.69 42.89,20.62 Z M20.41,12.01 L20.80,11.94 C22.03,11.73 23.56,11.53 24.42,12.51 C24.88,13.04 25.04,14.01 24.42,14.51 C23.33,15.39 22.13,15.05 20.83,15.12 C19.75,15.19 18.72,15.36 17.68,15.66 C15.41,16.31 13.56,17.49 11.62,18.80 C11.37,18.97 11.11,18.64 11.23,18.40 C12.35,16.21 14.52,14.41 16.69,13.31 C17.85,12.72 19.12,12.23 20.41,12.01 Z M40.60,11.03 L40.91,11.09 C44.21,11.78 48.50,13.16 50.07,16.41 C50.13,16.87 50.06,16.96 50.01,17.03 L50.00,17.05 C49.95,17.11 49.92,17.18 49.72,17.24 C49.67,17.23 49.61,17.22 49.55,17.20 C48.84,17.01 48.27,16.75 47.72,16.49 L47.13,16.19 C46.43,15.85 45.74,15.53 45.00,15.29 C43.42,14.77 41.80,14.41 40.15,14.22 C39.80,14.17 39.45,14.05 39.18,13.85 C38.92,13.65 38.73,13.38 38.64,13.02 C38.52,12.55 38.56,12.20 38.81,11.78 C38.99,11.46 39.26,11.24 39.57,11.12 C39.89,10.99 40.25,10.96 40.60,11.03 Z" id="🖍-Ink"></path></g><g id="facial-hair/*-None" transform="translate(104.58, 109.48)"></g><g id="accessories/Glasses-2" transform="translate(88.52, 88.98)" fill="#000000" fill-rule="evenodd"><path d="M78.66,20.18 C76.09,22.83 71.81,23.59 68.40,22.17 C59.64,18.50 63.92,7.08 70.68,4.01 C71.53,3.80 72.65,3.30 73.68,3.19 C73.77,3.14 73.98,3.27 74.22,3.15 C81.67,3.98 83.37,15.55 78.66,20.18 M50.39,20.85 C47.52,24.67 42.17,25.85 37.80,24.07 C29.17,20.67 32.23,10.54 38.13,6.57 C50.61,1.88 55.76,13.82 50.39,20.85 M31.68,12.40 C31.67,12.39 31.66,12.39 31.66,12.39 C31.70,12.37 31.75,12.35 31.79,12.33 C31.78,12.36 31.76,12.40 31.75,12.44 C31.73,12.43 31.71,12.41 31.68,12.40 M84.60,8.27 C83.89,8.27 82.87,8.39 82.29,8.88 C80.85,4.02 75.55,-0.47 70.93,2.81 C67.30,3.98 64.60,6.57 63.07,10.02 C60.30,8.37 55.96,9.08 53.56,11.25 C51.99,6.06 48.13,4.25 43.53,3.98 C38.51,3.16 33.51,8.03 31.94,11.94 C30.65,11.80 28.71,11.38 27.49,12.18 C19.56,10.11 5.71,8.96 4.10,10.11 C2.95,10.55 2.32,13.27 3.92,13.41 C5.32,13.21 3.76,11.43 5.17,11.23 C12.67,10.76 19.96,12.28 27.38,12.91 C28.05,13.80 30.19,14.10 31.33,13.74 C29.53,20.38 33.42,24.89 39.24,26.25 C48.25,28.32 56.10,20.25 53.74,11.86 C56.47,10.50 59.61,10.56 62.59,11.27 C57.61,29.58 87.08,28.75 82.48,9.50 C85.54,11.03 86.20,8.58 84.60,8.27" id="🖍-Ink"></path></g></g></g></g></g></svg>