<?xml version="1.0" encoding="UTF-8"?><svg width="240px" height="324px" viewBox="0 0 240 324" version="1.1" xmlns="http://www.w3.org/2000/svg" xmlns:xlink="http://www.w3.org/1999/xlink"><title>peep-94</title><desc>Created with Sketch.</desc><g id="Introduction" stroke="none" stroke-width="1" fill="none" fill-rule="evenodd"><g id="variations" transform="translate(-3246.00, -758.00)"><g id="images" transform="translate(126.00, 110.00)"><g id="a-person/bust" transform="translate(3120.00, 648.00)"><g id="body/Tee-1" transform="translate(31.06, 135.05)"><path d="M163.58,116.88 C162.73,112.07 161.95,107.25 161.24,102.41 C160.90,100.12 160.57,97.82 160.28,95.52 C160.07,93.91 159.76,92.06 160.85,90.87 C162.40,89.19 163.80,87.75 163.99,85.34 C164.16,83.08 163.40,80.61 162.92,78.41 C161.92,73.80 160.67,69.24 159.28,64.73 C157.88,60.15 156.34,55.61 154.78,51.08 C153.32,46.84 151.92,42.57 150.02,38.51 C146.41,30.79 140.31,25.08 132.77,21.27 C130.90,20.32 127.07,16.93 125.11,16.17 C123.31,15.48 123.32,17.51 121.54,16.74 C120.13,16.13 118.81,15.31 118.01,13.95 C117.15,12.46 114.99,10.38 114.66,8.65 C113.97,4.98 114.72,1.86 112.10,-0.90 C109.78,-3.35 106.66,-5.03 103.43,-5.93 C96.32,-7.91 86.85,-6.53 82.56,0.08 C80.51,3.23 79.80,7.05 77.03,9.62 C74.62,11.87 75.16,13.41 72.03,14.56 C71.86,14.63 67.06,13.60 66.88,13.67 C63.46,12.94 60.20,14.98 57.06,16.17 C52.38,17.94 47.93,20.25 43.75,22.99 C35.32,28.52 28.09,35.70 22.14,43.82 C16.13,52.01 11.48,61.19 8.16,70.78 C7.35,73.12 6.63,75.47 5.99,77.86 C5.63,79.19 5.25,80.57 5.69,81.94 C6.04,83.05 6.83,83.88 7.76,84.55 C9.02,85.46 11.55,86.05 11.50,87.88 C11.46,89.27 10.99,90.73 10.76,92.10 C10.49,93.73 10.26,95.38 10.04,97.02 C9.02,104.49 8.22,112.00 7.87,119.54 C7.52,126.96 7.24,134.53 7.75,141.95 C7.78,142.43 7.93,142.88 8.16,143.26 C7.95,143.35 7.93,143.76 8.20,143.81 C8.39,143.85 8.58,143.89 8.78,143.94 C9.17,144.24 9.67,144.42 10.24,144.44 C10.63,144.45 11.01,144.47 11.40,144.49 C15.48,145.34 19.55,146.15 23.68,146.76 C28.71,147.50 33.74,148.10 38.79,148.59 C49.17,149.60 59.47,149.27 69.87,148.72 C80.25,148.18 90.62,148.05 101.01,148.32 C111.41,148.59 121.80,149.05 132.20,149.23 C143.82,149.44 155.42,149.12 167.01,148.20 C168.60,148.07 169.58,146.81 169.27,145.23 C167.39,135.77 165.26,126.38 163.58,116.88 Z" id="🎨-Background" fill="#FFFFFF"></path><path d="M63.64,13.43 C64.72,13.39 65.81,13.56 66.88,13.67 C66.98,13.68 67.01,13.82 66.91,13.84 C64.99,14.24 63.09,14.79 61.21,15.35 L60.40,15.59 C58.28,16.22 56.21,16.86 54.16,17.70 C50.06,19.37 46.16,21.63 42.58,24.22 C28.78,34.20 18.80,49.31 12.49,64.96 C10.78,69.21 9.33,73.56 8.16,77.99 C7.87,79.07 7.60,80.15 7.35,81.23 C7.27,81.55 6.95,82.36 7.13,82.69 C7.28,82.98 7.90,83.15 8.18,83.30 L9.15,83.80 C11.03,84.77 14.16,86.37 14.47,86.52 L14.96,86.76 C22.97,90.69 31.53,94.02 40.54,94.25 L40.61,93.48 L40.61,93.48 C41.01,89.23 41.54,84.95 42.69,80.82 C42.75,80.60 43.04,80.67 43.06,80.87 C43.70,85.75 43.50,90.68 43.27,95.58 C42.88,104.28 42.35,112.96 41.88,121.65 C41.65,126.00 41.35,130.34 41.07,134.68 C40.80,139.03 40.71,143.49 40.09,147.81 C39.95,148.77 38.82,149.29 37.97,149.19 C37.03,149.08 36.30,148.25 36.29,147.29 C36.28,144.78 36.60,142.24 36.77,139.73 C36.94,137.34 37.12,134.96 37.30,132.58 C37.97,123.89 38.74,115.20 39.46,106.52 C39.71,103.43 39.98,100.35 40.26,97.28 C30.72,96.97 21.80,93.43 13.29,89.30 C13.16,92.09 12.87,94.89 12.58,97.67 C11.77,105.45 11.07,113.22 10.54,121.02 C10.27,124.96 10.07,128.90 9.90,132.84 C9.82,134.78 9.75,136.72 9.70,138.66 C9.68,139.31 9.67,139.95 9.65,140.60 L9.62,142.08 C9.60,143.02 9.50,143.89 8.71,144.57 C7.91,145.27 6.83,145.30 6.04,144.57 C4.97,143.59 5.16,142.26 5.19,140.95 C5.22,139.84 5.25,138.73 5.29,137.62 C5.36,135.41 5.45,133.19 5.57,130.98 C5.97,123.23 6.76,115.52 7.80,107.84 L8.21,104.87 C8.97,99.36 9.80,93.72 11.50,88.41 C10.84,88.09 10.18,87.76 9.52,87.42 C8.36,86.83 7.16,86.28 6.03,85.63 C5.13,85.12 4.35,84.41 4.10,83.36 C3.83,82.20 4.25,80.93 4.54,79.79 L4.56,79.69 C4.84,78.55 5.14,77.41 5.45,76.28 C6.73,71.68 8.31,67.18 10.16,62.78 C13.86,53.99 18.64,45.63 24.48,38.07 C29.74,31.26 35.95,25.09 43.23,20.47 C46.78,18.21 50.57,16.35 54.58,15.03 C56.46,14.42 58.50,13.89 60.46,13.67 C61.52,13.55 62.58,13.48 63.64,13.43 Z M82.68,-0.51 C83.96,-1.88 86.49,-0.46 85.88,1.36 C84.44,5.63 82.14,9.53 78.56,12.33 C75.19,14.97 71.17,16.69 66.85,16.32 C66.81,16.32 66.78,16.31 66.76,16.30 L67.13,16.81 C70.06,20.77 73.15,24.67 76.87,27.91 C84.45,34.51 94.77,38.06 104.74,35.53 C112.59,33.54 119.50,27.34 121.53,19.43 C121.24,19.56 120.89,19.60 120.51,19.52 C118.89,19.17 117.28,17.46 116.23,16.23 C115.09,14.90 114.21,13.47 113.56,11.85 C112.37,8.89 111.99,5.07 113.61,2.20 C113.81,1.84 114.27,2.04 114.31,2.39 L114.38,2.93 C114.69,5.62 115.08,8.22 116.35,10.68 C116.97,11.88 117.71,13.05 118.62,14.05 C119.10,14.59 119.63,15.11 120.19,15.56 C120.75,16.00 121.42,16.31 121.91,16.82 L122.00,16.91 L122.00,16.90 C122.13,15.83 122.88,15.36 123.61,15.39 C124.31,15.42 125.15,15.73 125.47,15.88 L125.50,15.90 C130.43,18.26 134.97,21.35 139.25,24.78 C148.09,31.86 154.72,41.13 157.93,52.03 C159.50,57.39 160.41,62.90 161.36,68.39 L161.95,71.76 C162.84,76.83 163.84,81.99 165.85,86.71 C166.37,87.93 165.97,89.07 164.69,89.55 C163.10,90.15 161.50,90.73 159.90,91.30 C160.69,94.68 161.16,98.17 161.75,101.56 C163.01,108.77 164.54,115.93 165.86,123.12 C166.53,126.80 167.13,130.50 167.81,134.18 C168.13,135.95 168.47,137.72 168.80,139.49 C168.97,140.45 169.13,141.40 169.30,142.36 L169.33,142.52 C169.43,143.02 169.55,143.55 169.41,144.05 C169.25,144.63 168.80,145.03 168.40,145.45 C168.07,145.79 167.59,145.79 167.19,145.60 L167.06,145.54 C166.33,145.20 165.77,144.87 165.51,144.05 C165.35,143.53 165.29,142.95 165.18,142.42 C164.98,141.40 164.79,140.38 164.61,139.36 C164.24,137.31 163.89,135.26 163.54,133.21 L163.21,131.28 C162.10,124.66 161.04,118.00 160.51,111.31 C160.27,108.34 160.02,105.38 159.77,102.41 L159.58,100.18 C159.34,97.37 159.04,94.48 159.00,91.63 L158.04,91.97 L158.04,91.97 L153.37,93.62 L153.37,93.62 C152.21,94.03 150.74,94.87 149.49,94.71 C148.88,94.64 148.42,94.45 148.06,94.10 C148.49,100.17 149.07,106.23 149.85,112.26 C150.55,117.75 151.33,123.23 152.26,128.69 C152.72,131.39 153.19,134.09 153.70,136.78 C153.95,138.13 154.22,139.47 154.49,140.81 C154.62,141.48 154.79,142.15 154.89,142.83 C155.01,143.60 154.80,144.08 154.37,144.71 C154.01,145.24 153.30,145.51 152.73,145.15 C151.97,144.67 151.57,144.25 151.34,143.38 C151.14,142.59 151.02,141.76 150.86,140.96 C150.57,139.48 150.29,138.00 150.02,136.52 C149.45,133.42 148.92,130.31 148.46,127.19 C146.81,116.21 145.77,105.13 145.24,94.04 C144.98,88.57 144.90,83.09 144.94,77.61 C144.97,74.80 145.06,71.99 145.26,69.18 C145.46,66.35 145.88,63.57 146.25,60.76 C146.26,60.66 146.40,60.66 146.41,60.76 C146.59,63.91 146.86,67.05 147.00,70.21 C147.13,73.22 147.18,76.24 147.29,79.25 C147.42,83.22 147.61,87.18 147.86,91.14 C148.31,90.65 148.99,90.36 149.67,90.47 C150.65,90.27 151.71,89.75 152.65,89.44 L156.18,88.26 L156.18,88.26 C158.04,87.64 159.90,87.02 161.77,86.42 C160.10,80.81 158.96,75.11 157.98,69.33 L157.55,66.73 C156.68,61.62 155.76,56.50 154.20,51.55 C152.56,46.34 150.10,41.50 146.85,37.11 C143.64,32.79 139.74,28.99 135.72,25.43 C132.28,22.38 128.59,19.63 125.09,16.67 C125.12,16.86 125.13,17.08 125.10,17.32 C124.35,22.78 121.50,27.87 117.53,31.65 C109.56,39.25 97.75,40.83 87.54,37.27 C77.66,33.82 68.93,25.65 65.85,15.54 C65.80,15.37 66.03,15.30 66.12,15.43 C66.29,15.66 66.46,15.90 66.64,16.13 C66.62,16.04 66.67,15.94 66.79,15.89 C70.39,14.50 73.92,12.53 76.62,9.74 C77.93,8.38 79.08,6.84 79.99,5.18 C80.42,4.39 80.81,3.56 81.12,2.71 L81.20,2.49 C81.58,1.42 81.89,0.34 82.68,-0.51 Z" id="🖍-Ink" fill="#000000"></path></g><g id="head/Bun-2" transform="translate(78.59, 38.04)"><path d="M83.98,51.52 C83.48,45.02 84.26,38.21 81.75,32.03 C77.38,21.79 65.14,18.37 55.65,14.47 C51.84,13.34 39.05,13.19 34.60,11.70 C24.52,8.33 22.11,4.32 14.10,10.73 C12.75,11.83 11.91,13.02 11.29,14.64 L11.31,14.65 C11.14,15.33 11.33,16.00 11.72,16.52 C8.25,20.07 6.80,25.39 8.58,30.12 C14.39,42.42 14.12,49.07 12.25,62.29 C9.80,74.63 15.39,79.14 24.65,85.86 C24.27,86.59 24.19,87.56 24.68,88.20 C35.39,103.25 55.57,110.44 72.86,102.80 C79.88,99.67 83.02,92.20 84.81,85.45 C86.89,77.89 87.53,69.93 85.83,62.23 C85.15,58.67 84.26,55.14 83.98,51.52 Z" id="🎨-Background" fill="#FFFFFF"></path><path d="M22.23,-20.47 C23.53,-20.67 24.52,-19.86 24.98,-18.72 L25.01,-18.66 C25.16,-18.28 25.32,-17.90 25.50,-17.53 C28.75,-19.13 33.39,-18.72 35.45,-15.48 C36.92,-13.18 36.02,-10.44 35.47,-7.99 L35.11,-6.38 C35.81,-5.93 36.34,-5.13 36.31,-4.30 L36.31,-4.24 L36.16,-1.99 C36.63,-2.46 37.06,-2.98 37.44,-3.53 C37.71,-4.02 37.99,-4.49 38.30,-4.95 C40.10,-7.66 44.15,-5.31 42.66,-2.40 C42.37,-1.84 42.05,-1.31 41.71,-0.80 C41.32,-0.05 41.00,0.73 40.76,1.53 C41.46,1.83 42.00,2.51 42.06,3.54 C42.19,5.94 40.93,7.94 38.93,9.20 C38.34,9.57 37.73,9.64 37.18,9.50 C37.08,9.63 36.99,9.76 36.89,9.90 C37.69,10.55 38.41,11.29 39.03,12.11 C40.89,11.83 42.77,11.70 44.64,11.69 C46.93,10.57 49.67,10.59 52.14,11.01 C53.72,11.28 55.24,11.81 56.80,12.19 C58.44,12.59 60.11,12.60 61.78,12.87 C63.87,13.21 65.71,14.18 66.86,15.72 C68.13,15.76 69.47,16.28 70.58,16.99 C73.15,18.63 75.72,20.30 78.29,21.95 C79.27,22.59 79.64,23.60 79.46,24.74 L79.45,24.81 L79.36,25.28 L79.57,25.57 C80.35,26.68 81.21,27.84 81.72,29.07 C82.66,30.43 83.51,31.85 84.27,33.32 C85.28,35.29 86.12,37.39 86.69,39.53 C86.83,40.08 86.97,40.63 87.07,41.18 C87.20,41.96 86.99,42.57 86.88,43.32 C86.74,44.27 86.69,45.23 86.54,46.19 C86.45,46.82 85.91,47.13 85.35,47.15 C85.56,48.75 85.71,50.37 85.86,51.98 C86.06,54.27 86.20,56.58 86.32,58.88 C86.94,59.78 88.21,60.49 89.13,60.74 C90.40,61.08 91.73,60.71 92.93,60.28 C93.68,60.01 94.30,60.95 93.93,61.59 C92.78,63.58 90.31,63.57 88.44,62.69 C87.64,62.32 86.95,61.78 86.43,61.08 C86.46,61.75 86.50,62.41 86.53,63.08 L86.56,63.69 C86.94,70.78 87.77,78.11 86.43,85.12 C84.13,97.28 74.07,106.53 61.79,107.25 C55.35,107.63 49.98,105.73 47.31,104.66 C44.64,103.60 45.68,101.44 47.53,102.05 C50.72,103.12 56.59,104.71 61.83,104.02 C74.20,102.41 84.69,96.22 83.61,69.59 C83.46,65.81 82.99,62.03 82.89,58.26 C82.79,54.56 82.83,50.87 82.66,47.18 L82.61,45.92 C82.55,44.45 82.48,42.97 82.37,41.50 C82.23,40.93 82.12,40.35 81.96,39.79 C81.52,38.26 80.94,36.78 80.23,35.37 C80.07,35.49 79.89,35.58 79.70,35.61 C78.24,35.87 76.87,35.80 75.50,35.19 C74.87,34.91 74.30,34.53 73.78,34.07 C73.53,33.85 73.36,33.64 73.23,33.42 C72.57,33.43 71.91,33.23 71.50,32.76 C71.02,32.22 70.95,31.66 71.13,31.14 L71.15,31.09 L71.10,31.07 C70.55,32.51 69.43,33.78 68.21,34.64 C66.29,36.00 63.88,36.40 61.57,36.43 C59.01,36.47 56.32,36.08 53.80,35.68 C53.14,35.57 52.48,35.45 51.83,35.29 C51.80,35.31 51.78,35.34 51.75,35.37 C49.59,37.44 46.55,37.97 43.81,36.79 C42.22,36.10 40.89,35.01 39.72,33.75 C39.70,34.41 39.67,35.06 39.61,35.72 L39.59,35.98 C39.47,37.19 39.25,38.48 38.33,39.36 C36.84,40.78 34.69,40.21 32.97,39.29 C32.98,39.33 32.98,39.38 32.98,39.42 C33.44,41.00 33.90,42.57 34.37,44.15 L34.47,44.48 C34.81,45.60 35.18,46.72 35.28,47.89 C35.47,50.13 33.99,52.33 31.50,51.58 C30.20,51.19 29.15,50.10 28.15,49.22 L27.52,48.67 C29.15,54.01 30.29,59.54 30.39,65.12 C30.40,65.42 30.14,65.65 29.85,65.66 C29.18,65.68 28.46,65.55 27.78,65.28 C27.74,65.28 27.70,65.28 27.66,65.27 C26.51,65.11 25.44,64.69 24.50,64.07 C24.71,64.77 24.81,65.51 24.75,66.28 C24.74,66.47 24.44,66.54 24.40,66.33 C23.86,63.65 20.72,61.62 18.02,62.13 C15.11,62.69 12.97,65.18 12.45,68.03 C11.89,71.08 12.96,74.61 14.96,76.97 C15.87,78.06 17.08,78.96 18.51,79.19 C19.17,79.29 19.85,79.26 20.48,79.07 C20.75,78.99 21.01,78.88 21.26,78.77 C21.64,78.62 22.08,78.60 22.44,78.44 C23.24,78.08 24.05,78.82 23.64,79.64 C23.29,80.37 22.97,80.85 22.38,81.22 C22.86,81.81 23.29,82.62 23.45,82.84 C24.27,83.94 25.10,84.99 26.04,86.00 C26.99,87.03 28.02,87.97 29.12,88.84 L29.58,89.20 C30.64,90.04 31.56,90.82 32.30,92.02 C32.89,92.97 32.13,94.25 31.03,94.24 C27.58,94.19 25.08,91.16 23.30,88.52 C23.04,88.14 22.81,87.74 22.58,87.33 C22.50,87.46 22.41,87.58 22.31,87.69 L22.51,88.22 C23.09,89.77 20.58,90.79 19.85,89.34 C19.32,88.29 18.71,87.28 18.02,86.34 C17.62,86.28 17.23,86.04 17.01,85.72 C16.45,84.91 15.83,84.10 15.30,83.24 C15.01,82.96 14.71,82.70 14.40,82.44 C14.31,82.52 14.22,82.60 14.14,82.68 C13.75,83.55 13.28,84.36 12.69,85.11 L12.56,85.27 C11.43,86.69 9.96,88.15 8.14,88.50 C7.59,88.61 7.05,87.91 7.54,87.47 C8.82,86.33 10.32,85.55 11.50,84.27 C12.08,83.64 12.61,82.95 13.07,82.22 L13.17,82.05 C13.25,81.93 13.32,81.80 13.40,81.67 C12.87,81.31 12.34,80.95 11.81,80.59 C10.35,81.83 8.45,82.40 6.84,83.44 L6.68,83.54 C5.22,84.52 3.68,82.36 4.85,81.17 C6.14,79.87 7.22,78.32 8.36,76.87 C7.82,75.88 7.57,74.71 7.47,73.53 C7.43,73.19 7.41,72.86 7.38,72.52 C6.56,72.53 5.73,72.25 5.04,71.77 L4.77,71.58 C3.92,71.85 3.03,71.98 2.18,71.96 C0.18,71.90 -0.64,69.61 0.61,68.16 C1.89,66.68 4.13,66.36 5.90,67.08 C5.96,67.05 6.02,67.02 6.07,66.98 C5.99,66.60 6.01,66.24 6.11,65.93 L6.08,65.74 C5.69,65.15 5.43,64.46 5.33,63.74 C5.26,63.17 5.27,62.60 5.41,62.04 C5.45,61.85 5.54,61.66 5.61,61.46 C5.47,61.10 5.38,60.72 5.36,60.34 C5.32,60.29 5.27,60.24 5.24,60.19 C4.36,58.96 4.54,57.47 5.37,56.47 C5.38,56.40 5.38,56.34 5.39,56.28 C5.34,56.17 5.30,56.06 5.26,55.94 C4.44,55.12 3.84,54.12 3.95,52.89 C4.01,52.17 4.31,51.52 4.76,51.03 C4.68,50.79 4.68,50.52 4.77,50.29 C4.05,48.38 4.14,46.08 4.66,43.94 C4.55,43.61 4.49,43.26 4.50,42.89 C4.56,41.30 5.93,39.84 7.56,39.86 C7.76,39.86 7.94,39.89 8.12,39.92 L8.12,39.89 C8.18,39.41 8.31,38.97 8.50,38.58 C8.41,38.54 8.32,38.49 8.24,38.43 C7.20,38.98 6.10,39.41 4.94,39.70 C4.09,39.91 3.22,38.94 3.75,38.15 C4.00,37.78 4.27,37.44 4.56,37.14 C4.14,37.14 3.72,37.17 3.30,37.22 C2.53,37.32 1.68,36.80 1.18,36.10 C0.56,36.70 -0.05,37.29 -0.67,37.89 C-2.24,39.41 -4.61,38.29 -4.86,36.29 C-5.32,36.17 -5.76,35.95 -6.14,35.65 C-8.61,36.73 -11.27,37.32 -13.99,37.43 C-15.94,37.51 -17.08,35.23 -16.17,33.63 C-15.56,32.55 -14.80,31.58 -13.92,30.74 C-15.28,31.16 -16.69,31.46 -18.12,31.65 C-18.90,31.75 -19.99,31.11 -20.30,30.40 C-21.49,27.66 -21.39,24.80 -20.02,22.14 C-19.97,22.03 -19.91,21.93 -19.85,21.83 C-19.71,21.48 -19.56,21.13 -19.39,20.79 C-21.07,19.03 -21.22,16.42 -20.31,14.24 C-20.68,13.65 -20.82,12.94 -20.57,12.30 C-19.86,10.45 -18.85,8.74 -17.57,7.27 C-17.69,7.04 -17.80,6.79 -17.89,6.52 C-18.61,4.33 -17.78,1.69 -16.09,0.16 C-15.04,-0.80 -13.82,-1.37 -12.52,-1.74 C-11.97,-2.71 -11.27,-3.58 -10.45,-4.31 C-10.42,-4.38 -10.39,-4.45 -10.35,-4.52 C-9.07,-6.93 -6.75,-8.22 -4.26,-8.52 C-4.16,-9.46 -3.53,-10.35 -2.61,-10.65 C-2.35,-11.46 -1.97,-12.24 -1.45,-12.94 C-0.64,-14.06 0.72,-14.58 2.00,-13.85 C2.70,-13.45 3.37,-12.99 4.00,-12.49 C4.29,-12.62 4.61,-12.70 4.97,-12.73 L5.06,-12.74 L7.14,-12.84 C8.02,-13.23 8.89,-13.63 9.76,-14.03 C10.28,-14.46 10.87,-14.82 11.51,-15.09 C12.23,-15.40 12.97,-15.57 13.71,-15.62 C14.31,-15.82 14.92,-15.99 15.54,-16.13 C16.98,-16.45 18.50,-16.62 20.01,-16.61 C20.04,-17.00 20.05,-17.39 20.05,-17.79 L20.05,-17.99 C20.01,-19.27 21.03,-20.29 22.23,-20.47 Z M20.77,81.83 C20.57,81.88 20.36,81.91 20.15,81.94 C20.21,82.09 20.28,82.25 20.34,82.41 C20.51,82.50 20.68,82.59 20.85,82.68 C20.80,82.39 20.77,82.10 20.77,81.83 Z M9.92,78.61 L9.78,78.86 C9.76,78.91 9.73,78.95 9.71,78.99 C10.01,78.97 10.31,78.97 10.61,79.01 L10.61,78.97 C10.57,78.96 10.53,78.95 10.49,78.93 C10.29,78.83 10.10,78.72 9.92,78.61 Z M15.79,66.80 C17.66,66.91 19.24,67.20 20.94,68.01 L21.09,68.09 C22.59,68.83 25.07,70.21 24.86,72.19 C24.80,72.75 24.40,73.34 23.75,73.30 C21.99,73.18 20.99,71.40 19.80,70.29 C18.59,69.18 17.12,68.03 15.66,67.26 C15.46,67.15 15.54,66.81 15.76,66.80 L15.79,66.80 Z M7.31,40.76 C6.86,40.78 7.01,41.21 7.24,40.85 C7.26,40.82 7.29,40.79 7.31,40.76 Z M31.49,11.70 C27.25,11.81 22.98,14.32 19.80,16.85 C17.03,19.05 14.65,21.67 12.53,24.50 C11.99,25.90 11.52,27.34 11.13,28.79 C10.87,29.74 10.71,30.71 10.49,31.67 L10.42,31.97 C10.25,32.29 10.12,32.63 10.03,32.99 C10.42,33.37 10.91,33.65 11.47,33.78 C11.64,33.82 11.79,33.91 11.91,34.04 C12.35,33.30 12.74,32.52 12.96,31.69 L12.97,31.65 C13.82,30.26 14.74,28.90 15.74,27.60 C18.47,24.00 21.48,20.71 25.10,17.98 C27.84,15.91 30.91,14.28 34.17,13.23 C33.38,12.59 32.47,12.08 31.49,11.70 Z" id="🖍-Ink" fill="#000000"></path></g><g id="face/Smiling" transform="translate(112.18, 77.35)" fill="#000000"><path d="M30.97,50.92 C29.55,50.34 28.28,49.37 27.36,48.14 C27.03,47.71 26.95,47.26 27.02,46.84 C27.09,46.37 27.37,45.95 27.74,45.67 C28.12,45.38 28.59,45.24 29.05,45.32 C29.45,45.38 29.84,45.59 30.15,46.05 L30.22,46.14 C30.77,46.88 31.49,47.49 32.31,47.89 C33.09,48.27 33.97,48.44 34.89,48.34 C36.62,48.14 37.82,47.20 39.09,45.93 C39.25,45.77 39.41,45.60 39.57,45.43 C39.67,45.28 39.81,45.18 39.96,45.13 C40.13,45.07 40.33,45.07 40.51,45.14 C40.68,45.20 40.83,45.31 40.93,45.46 C41.03,45.60 41.09,45.78 41.07,45.98 C40.95,47.31 40.26,48.49 39.28,49.41 C38.19,50.44 36.74,51.16 35.38,51.41 C33.88,51.68 32.35,51.48 30.97,50.92 L30.97,50.92 Z M36.09,30.51 C37.68,31.48 40.11,33.74 38.40,36.15 C36.38,38.27 33.47,35.84 32.04,34.74 C30.71,33.89 29.21,36.08 30.45,37.07 C40.80,44.74 45.01,30.77 36.89,29.37 C36.00,29.22 35.67,30.21 36.09,30.51 Z M17.53,21.59 C17.70,19.40 21.04,18.90 21.37,21.07 C21.66,23.01 21.31,24.79 20.44,26.54 C19.61,28.21 17.51,27.43 17.35,25.91 C17.14,23.87 17.42,22.95 17.53,21.59 Z M42.89,20.62 C43.36,20.01 44.03,19.60 44.83,19.83 C47.34,20.56 46.60,24.13 45.72,25.87 C45.24,26.81 43.69,27.05 42.99,26.22 C41.85,24.86 41.31,22.16 42.76,20.83 C42.80,20.76 42.84,20.69 42.89,20.62 Z M20.41,12.01 L20.80,11.94 C22.03,11.73 23.56,11.53 24.42,12.51 C24.88,13.04 25.04,14.01 24.42,14.51 C23.33,15.39 22.13,15.05 20.83,15.12 C19.75,15.19 18.72,15.36 17.68,15.66 C15.41,16.31 13.56,17.49 11.62,18.80 C11.37,18.97 11.11,18.64 11.23,18.40 C12.35,16.21 14.52,14.41 16.69,13.31 C17.85,12.72 19.12,12.23 20.41,12.01 Z M40.60,11.03 L40.91,11.09 C44.21,11.78 48.50,13.16 50.07,16.41 C50.13,16.87 50.06,16.96 50.01,17.03 L50.00,17.05 C49.95,17.11 49.92,17.18 49.72,17.24 C49.67,17.23 49.61,17.22 49.55,17.20 C48.84,17.01 48.27,16.75 47.72,16.49 L47.13,16.19 C46.43,15.85 45.74,15.53 45.00,15.29 C43.42,14.77 41.80,14.41 40.15,14.22 C39.80,14.17 39.45,14.05 39.18,13.85 C38.92,13.65 38.73,13.38 38.64,13.02 C38.52,12.55 38.56,12.20 38.81,11.78 C38.99,11.46 39.26,11.24 39.57,11.12 C39.89,10.99 40.25,10.96 40.60,11.03 Z" id="🖍-Ink"></path></g><g id="facial-hair/Full-3" transform="translate(104.58, 109.48)" fill="#000000"><path d="M48.17,22.05 C46.20,20.29 43.99,16.77 41.17,19.56 C40.47,20.34 40.19,22.11 39.12,22.46 C37.70,22.92 36.29,21.42 35.81,20.26 C33.83,13.85 42.01,12.09 46.67,13.13 C48.95,14.06 50.63,17.83 50.73,19.80 C50.79,21.12 49.68,23.06 48.17,22.05 M63.01,12.16 C62.99,12.08 62.97,12.00 62.93,11.93 C62.06,11.60 61.37,11.94 60.95,12.56 C60.96,12.72 61.01,12.88 61.04,13.03 C60.71,13.72 60.41,14.58 59.97,15.18 C59.88,15.19 59.79,15.18 59.70,15.15 C52.33,15.92 55.93,8.20 48.45,6.28 C42.66,5.33 32.21,6.42 29.48,12.44 C27.33,22.06 16.39,15.36 12.80,10.36 C8.97,5.81 6.49,0.24 4.10,-5.15 C3.59,-6.30 2.02,-5.48 2.19,-4.38 C-0.02,0.05 0.05,5.37 -0.49,10.23 C-1.42,19.91 -2.33,33.50 6.67,39.42 C18.39,52.67 47.66,57.35 61.18,45.17 C65.86,35.10 65.29,22.82 63.01,12.16" id="🖍-Ink"></path></g><g id="accessories/Glasses-3" transform="translate(88.52, 88.98)" fill="#000000"><path d="M77.56,20.78 C76.14,22.69 73.50,23.30 71.07,23.09 C65.83,22.58 64.17,16.62 64.00,11.99 C67.52,12.98 63.71,5.97 75.73,5.20 C79.97,4.85 78.80,7.41 80.67,9.28 C80.64,13.21 79.98,17.47 77.56,20.78 M52.58,16.27 C49.48,30.78 32.52,27.33 30.74,14.25 C32.38,13.08 31.95,10.22 33.99,9.18 C37.23,7.11 41.28,7.19 44.96,7.24 C49.66,7.57 51.00,9.52 53.42,11.64 C53.30,13.06 52.97,14.74 52.58,16.27 M84.28,2.80 C84.11,2.77 83.93,2.74 83.76,2.71 C83.62,2.64 83.46,2.58 83.28,2.54 C82.86,2.43 82.43,2.36 82.01,2.32 C75.99,0.97 62.04,2.89 61.47,8.04 C59.55,8.68 57.89,8.11 55.66,8.16 C53.97,1.08 24.69,2.08 23.28,6.35 C23.28,6.35 23.27,6.35 23.27,6.35 C21.91,5.93 19.92,6.03 18.37,5.96 C15.06,5.89 11.75,6.19 8.52,6.89 C2.46,7.85 -5.81,8.98 -1.60,16.54 C-1.59,16.54 -1.59,16.55 -1.59,16.55 L-1.59,16.55 C-0.87,17.29 0.37,16.69 0.41,15.68 C-1.00,12.10 2.19,11.67 4.66,10.64 C10.78,8.44 17.02,8.13 23.35,8.81 C23.83,9.37 24.55,9.86 25.32,10.12 C29.55,10.82 27.32,13.97 30.00,14.42 C29.51,25.38 42.80,31.36 50.51,24.16 C53.58,21.15 54.32,16.69 55.03,12.67 C55.41,12.59 55.65,12.38 55.79,12.11 C56.69,11.20 57.26,10.37 59.06,10.12 C60.85,9.87 62.23,10.37 62.42,10.52 C62.47,10.62 62.52,10.71 62.58,10.81 C62.66,10.95 62.77,11.06 62.90,11.15 C61.12,22.06 69.59,28.96 78.14,23.30 C81.85,19.81 82.64,14.46 82.79,9.68 C83.30,9.38 83.62,8.79 83.44,8.05 C83.20,7.03 83.76,6.14 84.66,5.70 C85.83,5.12 85.62,3.02 84.28,2.80" id="🖍-Ink"></path></g></g></g></g></g></svg>