<?xml version="1.0" encoding="UTF-8"?><svg width="240px" height="324px" viewBox="0 0 240 324" version="1.1" xmlns="http://www.w3.org/2000/svg" xmlns:xlink="http://www.w3.org/1999/xlink"><title>peep-105</title><desc>Created with Sketch.</desc><g id="Introduction" stroke="none" stroke-width="1" fill="none" fill-rule="evenodd"><g id="variations" transform="translate(-3486.00, -2054.00)"><g id="images" transform="translate(126.00, 110.00)"><g id="a-person/bust" transform="translate(3360.00, 1944.00)"><g id="body/Blazer-Black-Tee" transform="translate(31.06, 135.05)"><path d="M155.40,48.07 C152.47,34.17 142.07,23.38 128.08,18.01 C125.39,16.49 122.78,9.96 119.17,8.77 C118.59,8.57 119.51,10.10 119.17,10.19 C117.98,10.52 116.64,10.55 115.32,9.38 C112.96,7.28 112.22,1.15 110.78,-1.61 C103.22,-16.22 84.34,-10.50 81.81,5.64 C80.05,6.79 77.56,7.80 75.64,8.73 C73.66,9.68 71.92,11.99 69.89,12.82 C68.07,13.56 65.07,13.04 63.24,13.68 C54.82,16.63 47.68,20.36 42.09,27.92 C40.91,29.52 39.58,31.48 38.51,33.09 C32.98,39.45 29.14,46.59 25.60,54.25 C15.70,76.73 13.01,101.61 10.60,125.83 C10.65,130.07 7.84,141.82 12.00,143.85 C11.75,144.11 11.84,144.63 12.30,144.62 C22.84,144.52 33.36,145.46 43.73,147.29 C48.74,148.18 53.72,149.39 58.82,149.59 C69.41,149.52 79.96,147.74 90.53,149.42 C103.24,149.42 118.69,149.05 132.83,148.51 C146.04,148.00 159.33,149.15 172.38,146.90 C173.41,146.74 173.92,145.48 173.70,144.57 C172.17,138.99 171.42,133.25 170.56,127.53 C170.73,123.87 170.42,120.04 169.07,116.63 C165.53,93.59 160.99,70.70 155.40,48.07 Z" id="🎨-Background" fill="#FFFFFF"></path><path d="M151.13,78.35 C150.86,79.71 150.46,81.06 149.94,82.35 C149.44,83.58 148.69,84.69 148.17,85.92 C148.10,86.08 147.99,86.21 147.85,86.30 L147.89,86.64 L147.89,86.64 L147.93,86.97 C148.19,89.21 148.48,91.45 148.73,93.70 L148.86,94.82 C149.35,99.51 150.14,104.18 150.75,108.86 C151.34,113.44 151.95,118.02 152.60,122.59 C153.27,127.31 153.95,132.02 154.74,136.71 C155.08,138.69 155.43,140.68 155.80,142.66 L156.08,144.17 C158.99,144.87 159.78,148.93 156.82,150.42 C155.48,151.10 153.75,150.94 152.64,149.87 C151.49,148.76 151.45,146.77 151.18,145.27 L150.92,143.87 C149.00,133.39 147.33,122.78 146.55,112.15 C146.34,109.41 146.18,106.66 146.07,103.91 C145.96,101.32 146.01,98.74 145.97,96.15 L145.96,95.45 C145.90,92.69 145.95,89.93 146.02,87.18 C146.03,86.84 146.04,86.50 146.06,86.16 C145.96,86.05 145.89,85.92 145.86,85.78 L145.83,85.61 C145.73,85.17 145.84,84.64 146.18,84.32 C146.33,82.45 146.52,80.57 146.58,78.69 C146.58,78.54 146.80,78.54 146.81,78.69 C146.94,80.29 147.19,81.89 147.44,83.49 C149.04,82.20 150.23,80.08 150.93,78.30 C150.98,78.17 151.16,78.21 151.13,78.35 Z M113.19,3.66 C113.46,4.88 113.99,5.97 114.69,6.98 C115.03,7.47 115.41,7.92 115.87,8.30 C116.26,8.62 116.71,8.84 117.13,9.12 C117.74,9.02 118.37,9.25 118.80,9.70 L118.73,9.05 C118.71,8.83 119.06,8.79 119.10,9.00 C120.95,18.32 122.64,27.65 124.10,37.05 L124.73,41.19 L125.34,45.09 C126.34,51.58 127.30,58.06 128.03,64.60 C129.00,73.32 129.82,82.07 130.41,90.83 C131.01,99.64 131.38,108.47 131.64,117.31 C131.70,119.54 131.77,121.76 131.84,123.99 L132.29,121.32 C132.74,118.66 133.18,116.00 133.56,113.32 C134.92,103.74 136.01,94.10 136.54,84.44 C137.02,75.60 136.86,66.59 134.61,57.98 C134.05,55.81 133.35,53.68 132.52,51.60 C131.71,49.58 130.60,47.71 129.73,45.72 C128.71,43.40 128.41,41.22 128.93,38.72 C129.39,36.55 130.19,34.50 130.33,32.27 C130.60,28.12 129.25,24.10 127.34,20.46 C126.84,19.51 126.31,18.56 125.75,17.63 C124.08,14.80 122.19,12.07 120.23,9.46 C120.12,9.32 120.35,9.16 120.46,9.28 C122.25,11.04 124.20,12.78 125.81,14.71 C126.59,15.65 127.36,16.61 128.08,17.59 C136.01,18.91 142.82,23.85 147.47,30.37 C152.76,37.78 155.43,46.68 157.41,55.46 C159.61,65.21 161.46,75.05 163.44,84.84 C165.48,94.98 167.52,105.12 169.57,115.26 C170.60,120.29 171.62,125.32 172.64,130.36 C173.16,132.91 173.70,135.45 174.27,137.99 C174.56,139.29 174.87,140.59 175.14,141.90 C175.45,143.37 175.16,144.31 174.17,145.39 C173.80,145.80 173.22,145.79 172.76,145.58 L172.62,145.51 L172.48,145.44 C171.92,145.16 171.47,144.88 171.12,144.26 C170.74,143.58 170.67,142.83 170.54,142.07 C170.30,140.68 170.05,139.30 169.81,137.91 C169.44,135.83 169.04,133.75 168.64,131.68 L166.61,121.32 C166.06,118.56 165.52,115.79 164.97,113.03 C163.02,103.16 161.07,93.29 159.12,83.41 C157.25,73.93 155.59,64.39 153.45,54.97 L153.33,54.43 L153.21,53.90 C151.30,45.78 148.64,37.92 143.80,31.04 C140.08,25.74 134.91,21.01 128.82,18.62 C129.25,19.24 129.66,19.87 130.05,20.51 C132.52,24.54 134.32,29.33 133.90,34.13 C133.69,36.48 132.80,38.78 132.88,41.15 C132.96,43.25 134.26,45.10 135.16,46.92 C137.20,51.07 138.67,55.47 139.62,59.98 C141.53,69.05 141.53,78.39 140.87,87.59 C140.15,97.60 138.80,107.60 137.25,117.51 C136.46,122.60 135.41,127.64 134.60,132.71 C134.20,135.22 133.66,137.71 133.18,140.20 L132.96,141.39 C132.83,142.05 132.70,142.71 132.55,143.36 L132.45,143.75 L132.45,143.82 C132.45,144.30 132.32,144.70 132.11,145.01 C131.82,145.94 131.46,146.85 130.98,147.71 C130.73,148.16 130.38,148.41 129.99,148.50 C129.60,149.39 128.72,150.07 127.67,150.07 L113.83,150.02 C105.80,149.98 97.76,149.93 89.72,149.89 C87.70,149.88 85.67,149.84 83.64,149.79 C81.75,149.73 79.92,149.50 78.05,149.27 C75.92,149.00 74.78,147.50 75.09,145.38 C75.16,144.91 75.24,144.45 75.31,143.98 C74.89,144.12 74.39,144.06 74.04,143.72 L73.73,143.41 C73.28,142.97 72.89,142.54 72.61,141.96 C72.32,141.36 72.08,140.73 71.83,140.11 C71.28,138.80 70.74,137.47 70.22,136.14 C69.17,133.48 68.13,130.81 67.16,128.13 C65.23,122.81 63.53,117.41 62.05,111.95 C59.41,102.20 57.50,92.27 56.29,82.25 L56.00,79.86 L55.92,79.16 C55.46,75.28 55.08,71.33 55.26,67.46 C55.37,65.03 55.75,62.58 56.66,60.32 C57.49,58.23 58.78,56.44 60.01,54.57 L60.15,54.36 L60.29,54.14 C61.37,52.44 62.22,50.66 62.26,48.60 C62.31,46.51 61.70,44.48 61.02,42.52 L60.85,42.04 L60.73,41.72 C59.28,37.67 57.63,33.68 58.18,29.28 C58.98,22.79 62.91,17.57 67.85,13.54 C63.46,14.41 59.11,16.13 55.27,18.31 C50.73,20.89 46.65,24.29 43.12,28.13 C36.47,35.39 31.72,44.10 27.83,53.09 C23.76,62.50 20.74,72.36 18.46,82.34 C16.17,92.39 14.64,102.60 13.60,112.84 C13.08,117.94 12.67,123.05 12.33,128.17 C12.15,130.79 12.02,133.41 11.82,136.03 C11.62,138.65 11.52,141.30 10.89,143.84 C10.59,145.03 8.58,145.15 8.36,143.84 C7.89,140.93 8.02,137.91 8.15,134.96 L8.17,134.69 C8.30,131.75 8.47,128.81 8.67,125.87 C9.08,119.86 9.64,113.86 10.36,107.88 C12.89,86.88 17.56,66.00 26.73,46.83 C31.04,37.80 36.58,29.03 44.28,22.51 C47.95,19.41 52.08,16.94 56.54,15.15 C60.52,13.54 64.57,12.78 68.81,12.79 C70.93,11.16 73.21,9.74 75.49,8.53 C75.62,8.46 75.77,8.63 75.65,8.75 C75.59,8.80 75.54,8.86 75.48,8.92 C75.74,8.94 76.00,9.06 76.24,9.31 C77.08,10.18 77.78,11.28 78.41,12.42 C79.37,13.62 80.29,14.86 81.25,16.05 C82.79,17.95 84.36,19.83 85.95,21.69 C88.62,24.81 91.38,27.88 94.26,30.82 L94.74,31.31 C96.23,32.82 97.74,34.63 99.50,35.83 L99.60,35.89 C100.34,36.38 100.87,36.46 101.51,35.74 C102.08,35.08 102.56,34.31 103.06,33.59 L103.17,33.42 C105.69,29.76 108.03,25.96 110.14,22.05 C111.11,20.27 112.02,18.47 112.89,16.64 L113.15,16.09 C113.63,15.09 114.14,14.10 114.53,13.06 C114.62,12.82 114.71,12.58 114.80,12.34 C113.47,11.46 112.43,9.57 112.06,8.09 C111.67,6.56 111.87,4.98 112.56,3.58 C112.69,3.31 113.13,3.38 113.19,3.66 Z M47.54,66.10 C47.35,71.94 47.24,77.79 46.96,83.62 L46.87,85.62 C47.30,86.10 47.55,86.65 47.35,87.40 C47.27,87.69 47.04,87.96 46.75,88.05 L46.66,89.91 C46.26,98.24 45.78,106.56 44.90,114.88 C43.81,125.28 42.55,135.67 41.29,146.06 C41.11,147.53 40.09,148.70 38.49,148.48 C36.89,148.27 36.23,146.86 36.44,145.40 C37.27,139.67 38.07,133.94 38.77,128.19 L39.57,121.64 C40.57,113.46 41.59,105.27 42.77,97.11 C43.26,93.70 43.77,90.29 44.28,86.88 L44.10,86.65 C43.37,85.69 42.61,84.76 41.86,83.82 C40.42,82.01 39.00,80.22 37.68,78.33 C37.61,78.23 37.75,78.09 37.84,78.16 C39.69,79.53 41.44,80.99 43.21,82.48 L44.75,83.79 C45.64,77.89 46.51,72.00 47.30,66.10 C47.32,65.95 47.54,65.94 47.54,66.10 Z M74.16,10.19 C73.04,11.24 71.90,12.27 70.78,13.31 L70.37,13.70 L69.96,14.08 C67.99,15.95 66.10,17.90 64.53,20.14 C61.64,24.24 59.92,29.25 61.12,34.26 C62.11,38.42 64.40,42.18 65.02,46.44 C65.33,48.57 65.18,50.71 64.37,52.73 C63.55,54.78 62.24,56.54 61.07,58.40 C58.51,62.42 58.16,66.85 58.42,71.51 C58.68,76.39 59.24,81.26 59.93,86.09 C61.33,95.88 63.44,105.56 66.23,115.04 C67.63,119.79 69.28,124.44 70.92,129.11 C71.74,131.43 72.69,133.70 73.67,135.95 C74.19,137.14 74.72,138.32 75.26,139.50 C75.06,137.84 75.06,136.13 74.96,134.47 C74.82,132.10 74.64,129.73 74.48,127.37 C74.15,122.56 73.85,117.75 73.59,112.93 C72.65,95.77 71.97,78.59 72.02,61.41 C72.04,52.81 72.22,44.21 72.59,35.63 C72.76,31.58 73.10,27.54 73.40,23.50 L73.46,22.64 C73.73,19.01 74.05,15.38 74.60,11.79 C74.44,11.42 74.30,11.05 74.19,10.66 L74.16,10.52 L74.18,10.52 C74.16,10.41 74.15,10.30 74.16,10.19 Z M83.79,-4.58 C83.81,-4.68 83.95,-4.67 83.98,-4.58 C84.60,-2.46 84.38,-0.14 83.84,1.99 C83.55,3.14 83.14,4.26 82.64,5.33 L82.46,5.71 C82.03,6.63 81.55,7.58 80.71,8.15 C80.36,8.39 79.74,8.40 79.39,8.15 L79.21,8.01 C79.18,7.99 79.16,7.97 79.13,7.94 C78.80,7.67 78.64,7.07 78.79,6.67 C79.18,5.64 80.06,4.89 80.66,3.98 C81.20,3.17 81.67,2.31 82.07,1.42 C82.92,-0.50 83.30,-2.55 83.79,-4.58 Z" id="🖍-Ink" fill="#000000"></path></g><g id="head/Gray-Bun" transform="translate(78.59, 38.04)"><path d="M90.61,41.13 C86.44,15.95 54.66,11.40 33.94,16.71 C33.56,11.86 30.51,7.58 26.70,4.76 C10.53,-6.88 -8.62,12.89 -4.79,29.92 C-4.10,35.09 0.03,40.98 5.80,40.09 C-1.46,53.82 -4.29,81.51 11.69,90.07 C13.23,91.17 13.49,93.40 14.67,94.83 C16.60,97.13 24.83,100.07 29.28,97.71 C30.68,99.00 32.29,100.25 34.18,100.70 C43.93,108.50 58.17,110.26 70.04,107.04 C77.35,105.80 84.93,102.50 88.70,95.76 C91.88,90.63 90.42,84.61 88.95,79.18 C88.32,76.20 87.91,73.18 87.66,70.15 C88.18,69.54 88.21,68.70 88.33,67.93 C88.90,65.22 90.12,62.70 90.74,60.00 C92.11,53.85 91.87,47.29 90.61,41.13" id="🎨-Background" fill="#FFFFFF"></path><path d="M90.27,53.96 C90.03,57.00 88.75,59.73 87.67,62.56 C87.79,60.89 87.73,59.14 87.85,57.41 C86.60,46.52 71.79,43.66 66.05,35.42 C66.26,34.96 66.34,30.80 65.49,31.97 C62.16,46.52 42.41,53.82 28.88,53.85 C27.86,53.00 25.83,53.89 26.21,55.58 C28.23,64.45 28.68,73.72 27.38,82.74 C26.77,85.92 26.66,89.75 24.75,92.49 C22.73,94.42 25.16,94.58 26.50,94.14 C26.88,94.67 27.27,95.18 27.67,95.69 C25.74,97.02 22.93,96.29 20.94,95.40 C18.72,94.23 17.46,91.96 15.85,90.13 C14.97,88.37 13.64,87.35 11.93,86.40 C2.42,79.93 2.67,65.74 4.03,55.48 C8.01,24.97 41.87,10.24 69.04,20.84 C83.71,24.60 90.59,39.78 90.27,53.96 M1.77,36.69 C-4.03,30.90 -2.86,20.80 0.79,14.13 C8.09,0.21 28.86,0.66 31.34,17.54 C20.75,21.17 11.82,28.95 6.50,38.77 C4.77,38.59 3.10,37.81 1.77,36.69 M90.61,41.14 C86.44,15.95 54.66,11.41 33.94,16.71 C33.56,11.87 30.51,7.58 26.70,4.77 C10.53,-6.87 -8.62,12.89 -4.79,29.93 C-4.10,35.09 0.03,40.98 5.80,40.10 C-1.46,53.83 -4.29,81.51 11.69,90.07 C13.23,91.17 13.49,93.40 14.67,94.83 C16.60,97.13 24.83,100.07 29.28,97.72 C30.34,99.02 36.35,102.97 35.91,99.10 C35.47,98.05 34.10,97.78 33.19,97.26 C31.28,96.21 29.62,94.72 28.31,92.97 C32.41,81.42 32.10,68.55 29.80,56.64 C43.52,55.95 59.66,49.94 65.71,36.73 C69.80,46.34 82.49,47.58 85.69,58.33 C85.89,63.97 84.68,69.53 85.55,75.18 C85.81,80.71 88.73,86.21 87.04,91.70 C82.32,103.68 65.33,105.44 54.10,104.94 C51.43,104.72 49.22,103.28 47.03,101.91 C45.71,101.29 44.15,102.59 44.95,103.98 C48.03,108.28 54.35,108.65 59.21,108.50 C71.81,107.75 90.02,104.03 90.67,88.46 C90.26,82.29 87.84,76.38 87.66,70.15 C88.18,69.55 88.21,68.71 88.33,67.94 C88.90,65.23 90.12,62.71 90.74,60.00 C92.11,53.86 91.87,47.29 90.61,41.14" id="🖍-Ink" fill="#000000"></path></g><g id="face/Loving-Grin-1" transform="translate(112.18, 77.35)" fill="#000000"><path d="M20.34,46.26 C20.36,43.93 22.38,43.53 24.30,43.84 C27.54,44.36 30.80,44.73 34.09,44.80 L34.65,44.81 L34.65,44.81 C34.74,44.68 34.90,44.58 35.10,44.55 C36.93,44.36 38.79,44.39 40.62,44.33 C42.22,44.29 43.86,44.13 45.46,44.25 L45.59,44.26 C47.54,44.45 49.60,45.45 49.37,47.74 C49.15,49.87 47.12,51.75 45.50,52.93 C45.17,53.16 44.84,53.39 44.49,53.59 C44.38,53.73 44.23,53.82 44.04,53.84 C42.45,54.70 40.69,55.21 38.86,55.38 C35.00,55.74 30.51,55.36 26.79,53.68 C25.59,53.14 24.46,52.46 23.47,51.62 C21.93,50.33 20.32,48.38 20.34,46.26 Z M35.57,50.88 C34.02,50.83 32.47,51.05 31.00,51.52 C30.00,51.85 29.09,52.47 28.13,52.90 C31.36,54.13 35.11,54.40 38.42,54.17 C39.87,54.08 41.28,53.74 42.60,53.16 C42.39,53.02 42.18,52.87 41.97,52.74 C41.31,52.34 40.63,52.00 39.91,51.73 C38.52,51.21 37.05,50.92 35.57,50.88 Z M36.09,30.51 C35.67,30.21 36.00,29.22 36.89,29.37 C45.01,30.77 40.80,44.74 30.45,37.07 C29.21,36.08 30.71,33.89 32.04,34.74 L32.51,35.10 C34.04,36.28 36.58,38.06 38.40,36.15 C40.11,33.74 37.68,31.48 36.09,30.51 Z M41.58,19.93 C43.30,18.46 45.47,19.55 46.74,21.04 L46.96,21.30 C47.21,21.61 47.49,21.96 47.66,22.34 C49.07,21.14 50.98,20.30 52.80,20.85 C54.57,21.38 55.58,23.07 55.28,24.88 C54.94,26.95 53.37,28.34 51.70,29.41 L51.22,29.71 C49.20,31.00 47.32,32.29 45.66,34.06 C45.39,34.35 44.80,34.31 44.63,33.93 L44.48,33.62 L44.48,33.62 L44.34,33.31 C43.16,30.80 41.90,28.31 40.87,25.74 C40.10,23.83 39.85,21.41 41.58,19.93 Z M21.92,21.27 L22.18,20.96 C23.45,19.49 25.59,18.51 27.28,19.93 C29.07,21.45 28.72,23.96 27.92,25.90 C26.96,28.24 25.83,30.53 24.75,32.82 L24.52,33.31 C24.42,33.52 24.33,33.72 24.23,33.93 C24.05,34.31 23.47,34.35 23.20,34.06 C21.59,32.35 19.77,31.08 17.83,29.84 L17.24,29.46 C15.54,28.38 13.92,26.98 13.57,24.88 C13.27,23.07 14.28,21.37 16.05,20.85 C17.88,20.30 19.78,21.14 21.19,22.34 C21.36,21.95 21.65,21.59 21.92,21.27 L21.92,21.27 Z M24.23,10.71 C24.85,11.51 24.19,12.82 23.29,13.03 C22.18,13.29 21.05,13.13 19.95,13.45 C18.95,13.74 17.99,14.33 17.13,14.91 C16.14,15.57 15.24,16.32 14.41,17.16 C13.92,17.66 13.29,18.85 12.53,18.88 C11.77,18.90 12.79,16.53 12.88,16.32 C13.47,14.87 14.31,13.52 15.36,12.35 C17.43,10.02 21.82,7.58 24.23,10.71 Z M47.36,10.07 L47.87,10.21 C49.15,10.57 50.52,11.01 51.62,11.77 L51.70,11.84 L51.84,11.93 C53.21,12.96 55.16,15.01 54.19,16.80 C54.12,16.92 53.98,16.93 53.86,16.88 C52.56,16.31 51.60,15.18 50.22,14.70 L49.96,14.62 C48.63,14.17 46.97,13.69 45.53,13.74 C44.52,14.07 43.16,13.79 42.89,12.56 L42.88,12.50 L42.86,12.37 C42.71,11.53 42.93,10.46 43.80,10.05 C44.99,9.50 46.16,9.74 47.36,10.07 Z" id="🖍-Ink"></path></g></g></g></g></g></svg>