<?xml version="1.0" encoding="UTF-8"?><svg width="240px" height="324px" viewBox="0 0 240 324" version="1.1" xmlns="http://www.w3.org/2000/svg" xmlns:xlink="http://www.w3.org/1999/xlink"><title>peep-16</title><desc>Created with Sketch.</desc><g id="Introduction" stroke="none" stroke-width="1" fill="none" fill-rule="evenodd"><g id="variations" transform="translate(-606.00, -434.00)"><g id="images" transform="translate(126.00, 110.00)"><g id="a-person/bust" transform="translate(480.00, 324.00)"><g id="body/Killer" transform="translate(31.06, 135.05)" fill-rule="evenodd"><path d="M121.82,19.90 C116.59,15.03 118.27,10.34 116.52,4.41 C113.14,-2.92 106.17,-10.15 98.10,-11.71 C94.06,-14.08 88.79,-12.74 86.04,-9.03 C83.45,-8.35 83.37,-4.77 82.50,-2.65 C80.90,1.51 79.68,5.74 78.68,10.06 C47.53,16.55 23.65,37.76 18.67,69.94 C17.82,74.62 17.12,79.32 16.46,84.03 C16.08,88.08 14.05,94.52 18.22,97.14 C18.34,100.05 18.69,102.99 19.80,105.73 C20.22,108.46 20.57,111.20 21.47,113.83 C23.45,118.39 23.75,123.38 25.98,127.92 C27.53,131.27 29.81,133.96 32.63,136.30 C33.83,137.35 35.46,138.48 35.71,140.12 C35.64,142.58 37.51,146.14 40.46,144.98 C42.55,145.77 44.80,145.98 47.02,145.96 C84.63,144.33 122.32,144.20 159.93,146.02 C161.25,146.08 162.51,144.81 162.45,143.50 C161.85,129.18 160.37,114.89 158.04,100.75 C152.84,71.46 147.29,38.70 121.82,19.90 L121.82,19.90 Z" id="🎨-Background" fill="#FFFFFF"></path><path d="M81.59,5.35 L81.73,4.96 C82.58,2.60 83.62,2.43 83.12,4.71 L83.04,5.05 C82.61,7.01 82.09,9.03 81.02,10.73 C79.18,13.68 74.36,14.77 71.14,15.82 C71.15,15.90 71.15,15.97 71.15,16.04 C73.11,16.34 75.13,17.29 76.77,18.35 C78.28,19.32 79.64,20.41 80.65,21.87 L85.62,19.71 C87.25,19.00 88.90,18.15 90.68,17.87 C93.19,17.47 97.06,18.81 96.76,21.98 C96.72,22.40 96.45,22.72 96.12,22.88 C96.38,22.86 96.63,22.85 96.88,22.86 C98.56,22.91 100.93,24.40 100.05,26.36 C99.83,26.86 99.18,26.53 99.13,26.11 C98.80,23.33 95.93,23.98 93.94,24.44 C92.13,24.85 90.35,25.35 88.61,25.97 C86.75,26.62 84.94,27.46 83.28,28.54 C81.57,29.65 79.96,31.00 80.07,33.22 C80.07,33.26 80.00,33.29 79.98,33.24 C79.09,31.35 80.82,29.36 82.22,28.27 C84.24,26.70 86.62,25.56 89.02,24.68 C90.25,24.23 91.52,23.87 92.80,23.55 L93.10,23.48 C93.85,23.30 94.62,23.09 95.41,22.96 C95.12,22.89 94.86,22.68 94.75,22.30 L94.74,22.25 C93.61,17.78 87.56,21.38 85.11,22.46 C83.36,23.23 81.59,23.97 79.86,24.78 L79.64,24.89 C78.29,25.54 76.89,26.30 75.99,27.51 C73.67,30.62 75.75,34.81 76.48,38.09 C76.69,39.03 76.89,40.03 76.91,41.00 C76.92,41.79 76.67,42.53 76.48,43.29 L76.36,43.74 L76.36,43.74 C76.47,43.75 76.57,43.85 76.53,43.96 C75.71,46.64 74.32,49.19 72.97,51.63 C71.59,54.13 70.17,56.62 68.64,59.03 C63.21,67.61 57.00,75.70 50.19,83.22 C46.92,86.82 43.39,90.19 40.20,93.86 C38.72,95.57 37.33,97.36 36.17,99.32 C35.55,100.37 34.99,101.47 34.51,102.60 L34.42,102.83 C34.03,103.75 33.65,104.57 32.93,105.31 C32.57,105.68 31.85,105.53 31.74,105.00 C31.21,102.51 32.97,99.83 34.24,97.80 C35.62,95.61 37.23,93.57 38.94,91.63 C39.42,91.08 39.92,90.54 40.41,90.01 C38.18,90.62 35.83,90.78 33.56,91.18 C31.23,91.59 28.92,92.08 26.66,92.79 C24.59,93.44 22.62,94.30 20.73,95.38 C19.83,95.90 18.94,96.47 18.11,97.10 C18.03,97.16 17.96,97.22 17.88,97.29 C19.23,100.68 20.27,104.21 21.36,107.70 C22.10,110.08 22.83,112.47 23.55,114.86 L25.16,120.24 C26.33,124.12 27.30,128.33 29.36,131.86 C30.24,133.38 31.44,134.76 32.82,135.86 C33.48,136.40 34.21,136.81 34.96,137.20 C35.43,137.45 35.85,137.77 36.29,138.07 C36.58,137.74 37.02,137.54 37.56,137.62 L37.62,137.63 C39.32,137.97 41.07,137.36 42.58,136.62 C44.16,135.84 45.73,134.93 47.06,133.78 C49.68,131.52 51.86,128.70 53.98,125.97 C61.53,116.26 67.97,105.62 73.21,94.49 C75.87,88.83 78.36,83.08 80.70,77.27 C81.87,74.37 83.02,71.47 84.14,68.55 L84.29,68.16 C85.29,65.48 86.17,62.57 87.79,60.21 C87.80,60.19 87.82,60.17 87.84,60.16 C87.84,60.09 87.86,60.03 87.89,59.97 C88.40,59.17 89.35,58.94 90.19,58.56 C91.12,58.14 92.05,57.73 92.99,57.31 C93.72,56.98 94.80,56.70 95.35,56.07 C95.98,55.37 96.19,54.12 96.49,53.25 C97.18,51.28 97.93,49.33 98.67,47.39 C99.33,45.68 99.89,43.84 100.81,42.25 C101.60,40.89 102.72,40.17 104.01,39.39 L104.29,39.22 C104.84,38.89 105.41,38.49 105.63,37.88 C105.98,36.87 105.20,35.90 104.37,35.42 C102.53,34.35 100.33,35.58 98.71,36.52 C97.09,37.47 95.51,38.61 93.77,39.34 C93.74,39.36 93.71,39.30 93.74,39.27 C95.13,37.99 96.83,36.94 98.44,35.90 L98.83,35.64 C99.90,34.95 101.11,34.27 102.39,34.08 C102.12,33.99 102.20,33.65 102.46,33.62 C104.98,33.31 107.53,33.70 110.03,33.12 C112.25,32.59 114.19,31.33 115.75,29.68 C117.21,28.12 118.37,26.31 119.46,24.48 C120.09,23.41 120.70,22.33 121.34,21.26 C121.44,21.10 121.53,20.93 121.63,20.73 C120.49,20.47 119.33,19.62 118.55,18.96 C117.35,17.94 116.47,16.56 115.85,15.12 C114.42,11.73 114.53,7.86 115.61,4.40 C115.67,4.19 115.99,4.18 116.05,4.40 C116.87,7.37 116.95,10.58 118.24,13.41 C118.76,14.54 119.49,15.56 120.38,16.43 C120.83,16.86 121.29,17.23 121.84,17.54 C122.43,17.86 123.07,17.97 123.54,18.49 C123.57,18.52 123.59,18.55 123.62,18.58 C123.89,18.54 124.13,18.58 124.32,18.70 L124.36,18.73 L124.37,18.72 C123.52,18.14 122.66,17.56 121.75,17.05 C121.51,16.92 121.69,16.59 121.93,16.64 L122.53,16.74 C124.52,17.10 126.55,17.50 128.37,18.39 C130.39,19.37 132.31,20.51 134.15,21.80 C137.77,24.33 141.07,27.32 143.95,30.66 C149.27,36.84 153.03,44.26 155.36,52.04 C158.26,61.77 159.39,71.98 160.62,82.03 C161.20,86.84 161.73,91.65 162.20,96.48 L162.32,97.79 C162.56,100.27 162.81,102.75 163.05,105.22 C163.47,105.89 163.50,106.68 163.25,107.36 C163.44,109.37 163.60,111.37 163.73,113.39 C164.07,118.59 164.28,123.80 164.37,129.01 C164.47,134.29 164.27,139.57 164.21,144.85 C164.19,147.08 160.82,147.07 160.77,144.85 C160.63,139.02 160.21,133.18 159.92,127.34 C159.62,121.65 159.35,115.96 159.01,110.27 C158.97,109.73 158.94,109.18 158.91,108.64 C158.42,108.83 157.81,108.91 157.29,109.01 L157.17,109.04 C156.13,109.26 155.09,109.41 154.04,109.51 L153.69,109.54 C152.74,109.61 147.83,109.71 144.93,109.18 C145.17,112.91 145.40,116.63 145.65,120.35 C145.94,124.59 146.00,128.84 146.21,133.08 C146.32,135.20 146.45,137.31 146.72,139.42 C146.84,140.38 146.97,141.34 147.12,142.30 L147.20,142.78 C147.33,143.60 147.50,144.30 147.15,145.04 C147.46,145.98 146.98,147.16 145.74,147.07 C137.75,146.47 129.74,146.22 121.73,146.18 C107.90,146.11 94.07,146.67 80.25,147.05 L76.51,147.15 C63.56,147.50 50.55,147.88 37.66,146.45 C37.63,148.10 34.55,148.08 34.71,146.24 L34.75,145.80 C34.94,143.79 35.18,141.72 35.80,139.79 C35.28,139.81 34.77,139.78 34.28,139.62 C33.59,139.40 32.93,138.99 32.33,138.58 C30.99,137.68 29.86,136.57 28.89,135.29 C26.98,132.78 25.71,129.80 24.70,126.83 C23.64,123.66 22.66,120.45 21.75,117.23 L20.77,113.75 C19.52,109.32 18.30,104.82 17.55,100.27 C17.47,100.38 17.36,100.47 17.22,100.53 C13.25,102.31 9.85,98.67 9.18,94.99 C8.78,92.82 8.87,90.59 8.91,88.40 L8.91,88.16 C8.94,85.63 8.95,83.10 9.08,80.57 C9.51,72.11 11.48,63.91 14.55,56.03 C17.43,48.62 20.93,41.14 25.42,34.55 C27.56,31.43 30.02,28.42 32.99,26.04 C36.12,23.54 39.64,21.63 43.33,20.08 C47.09,18.50 51.00,17.24 54.91,16.06 C59.22,14.75 63.59,13.63 68.03,12.84 C68.35,12.79 68.67,12.88 68.85,13.18 C69.00,13.44 69.15,13.70 69.29,13.97 C69.90,13.59 70.83,13.50 71.44,13.31 C73.34,12.73 76.76,12.37 78.27,11.03 C79.99,9.50 80.82,7.45 81.59,5.35 Z M17.21,97.88 C16.94,98.12 16.68,98.37 16.40,98.60 C16.76,98.44 17.09,98.55 17.33,98.77 C17.29,98.47 17.25,98.17 17.21,97.88 Z M104.53,40.72 C104.12,40.97 103.72,41.22 103.35,41.53 C102.02,42.63 101.57,44.42 101.02,45.99 L100.98,46.08 C100.30,47.98 99.62,49.88 98.90,51.76 C98.67,52.34 98.46,52.98 98.23,53.61 C101.28,56.54 104.39,59.44 107.65,62.13 C113.62,67.05 120.12,71.33 127.03,74.81 C130.58,76.60 134.25,78.24 138.02,79.50 C139.38,79.96 140.77,80.36 142.18,80.66 L142.18,80.64 L142.18,80.64 C142.19,80.59 142.27,80.56 142.28,80.62 L142.29,80.68 L142.29,80.68 C142.89,80.81 143.50,80.91 144.11,80.99 C145.27,81.15 146.44,81.22 147.61,81.21 C148.33,81.20 149.05,81.11 149.76,81.15 C146.60,78.30 143.42,75.47 140.23,72.65 C134.19,67.31 128.12,62.01 122.03,56.71 C119.33,54.36 116.59,52.04 113.90,49.68 L111.31,47.39 C109.02,45.36 106.75,43.30 104.76,40.98 L104.53,40.72 Z M77.53,56.42 C77.34,56.20 77.62,55.91 77.85,56.10 C79.20,57.25 80.72,57.75 82.34,58.36 C82.72,58.51 82.69,59.11 82.25,59.10 C80.36,59.07 78.67,57.85 77.53,56.42 Z M96.44,28.27 L96.58,28.22 C98.48,27.47 100.95,27.10 102.45,28.83 C103.53,30.09 103.81,32.47 102.39,33.57 C102.05,33.83 101.33,33.60 101.55,33.07 C102.17,31.56 102.30,29.57 100.35,28.99 C98.65,28.48 96.67,29.47 95.13,30.16 L94.68,30.35 C91.67,31.69 88.68,33.31 86.84,36.14 C86.79,36.21 86.66,36.17 86.69,36.08 C88.17,32.00 92.67,29.81 96.44,28.27 Z M74.14,19.54 L73.41,19.26 C71.54,18.56 69.23,17.86 68.07,19.86 C67.64,20.61 67.27,21.53 67.11,22.40 L67.09,22.51 C67.04,22.78 66.98,23.06 67.17,23.27 C67.47,23.59 68.42,23.75 68.81,23.89 L71.22,24.76 L71.22,24.76 L72.43,25.21 C72.98,25.41 73.69,25.61 74.10,26.05 C75.52,24.18 77.78,23.12 79.91,22.19 C77.99,21.30 76.13,20.29 74.14,19.54 Z" id="🖍-Ink" fill="#000000"></path></g><g id="head/Bun" transform="translate(78.59, 38.04)" fill-rule="evenodd"><path d="M31.58,13.50 C63.60,11.92 85.33,37.19 86.27,47.26 C86.91,54.25 86.47,63.58 86.47,69.83 C86.47,73.02 88.08,82.71 86.27,87.36 C82.22,97.71 77.65,105.82 64.99,105.82 C52.32,105.82 33.02,99.25 26.39,90.78 C25.18,89.24 10.14,77.92 10.14,69.02 C10.14,50.04 8.73,14.62 31.58,13.50 Z" id="🎨-Background" fill="#FFFFFF"></path><path d="M9.74,-7.00 C11.56,-7.57 12.73,-6.75 13.56,-5.48 C13.74,-5.51 13.92,-5.51 14.11,-5.46 C14.16,-5.45 14.28,-5.41 14.37,-5.37 C14.44,-5.34 14.50,-5.31 14.56,-5.27 L14.60,-5.29 L14.60,-5.29 C14.74,-5.44 14.88,-5.58 15.03,-5.69 C15.38,-5.93 15.74,-6.00 16.08,-5.95 L16.24,-6.01 L16.24,-6.01 C17.59,-6.48 19.06,-6.26 19.97,-5.10 C20.15,-4.87 20.29,-4.62 20.42,-4.36 C20.69,-4.27 20.95,-4.14 21.17,-3.98 C21.33,-4.05 21.49,-4.11 21.67,-4.16 C22.66,-4.42 23.71,-4.17 24.52,-3.56 C24.92,-3.27 25.21,-2.89 25.43,-2.47 C25.68,-2.41 25.93,-2.30 26.16,-2.16 C26.36,-2.26 26.57,-2.35 26.77,-2.42 C27.53,-2.65 28.35,-2.74 29.14,-2.68 C30.85,-2.55 32.50,-0.60 31.36,1.07 L31.32,1.12 C31.18,1.32 31.05,1.53 30.94,1.74 C31.34,1.92 31.74,2.16 32.10,2.46 C33.88,3.92 34.04,6.16 33.71,8.28 L33.69,8.37 L33.70,8.37 C34.64,8.46 35.46,9.45 34.90,10.37 L34.87,10.42 C34.12,11.59 33.47,12.87 32.75,14.10 C30.75,14.82 28.82,15.71 27.01,16.78 C25.88,17.77 24.81,18.82 23.86,19.98 C23.39,20.57 22.96,21.18 22.56,21.82 C22.88,21.97 23.27,21.96 23.60,21.66 C26.56,18.91 30.14,16.98 33.95,15.69 C34.23,15.60 34.41,15.42 34.51,15.22 C36.20,14.73 37.92,14.36 39.66,14.09 C40.14,13.64 40.64,13.20 41.12,12.75 C41.73,12.17 42.49,12.17 43.06,12.54 C43.34,12.41 43.63,12.30 43.93,12.19 L44.11,12.13 C44.18,12.11 44.26,12.08 44.33,12.05 C46.37,11.43 48.24,11.66 50.24,12.17 L50.50,12.24 C51.44,12.49 52.02,12.45 52.93,12.22 L53.03,12.20 C53.99,11.94 55.02,11.76 56.01,12.02 C57.04,12.30 57.72,12.92 58.42,13.66 L58.49,13.73 C58.82,14.08 59.01,14.12 59.43,14.11 L59.89,14.10 C61.62,14.05 63.32,14.13 64.62,15.46 C65.10,15.96 65.61,16.66 65.92,17.30 L65.96,17.40 C65.98,17.43 65.99,17.45 66.00,17.48 C66.19,17.45 66.48,17.33 66.62,17.30 C68.50,16.94 70.08,17.50 71.29,18.99 C71.55,19.31 71.95,19.95 72.23,20.30 C72.33,20.39 72.42,20.47 72.51,20.57 C72.96,20.86 73.61,20.84 74.12,20.94 C75.51,21.22 76.99,21.75 77.70,23.07 C77.99,23.62 78.10,24.23 78.23,24.83 C78.69,25.14 79.06,25.58 79.34,26.06 C79.69,26.64 79.84,27.35 80.24,27.90 C80.52,28.30 80.97,28.51 81.39,28.76 L81.55,28.85 C82.79,29.59 83.77,30.42 84.18,31.87 L84.21,32.00 C84.28,32.22 84.51,32.86 84.31,32.76 C84.48,32.86 84.78,32.89 84.94,32.95 C85.81,33.23 86.56,33.69 87.02,34.51 C87.37,35.12 87.43,35.77 87.53,36.45 L87.57,36.72 C87.58,36.79 87.60,36.87 87.61,36.94 L87.62,37.01 L87.63,37.02 C87.78,37.08 87.94,37.16 88.09,37.24 C88.80,37.66 89.29,38.39 89.29,39.24 C89.29,39.65 89.17,39.97 88.98,40.25 C89.13,40.48 89.25,40.73 89.33,41.00 C89.51,41.53 89.52,42.11 89.46,42.66 C89.39,43.32 89.22,43.92 89.02,44.55 C88.95,44.79 88.92,45.13 88.80,45.37 C89.01,45.64 89.14,45.97 89.10,46.30 C89.04,46.77 88.83,47.32 88.41,47.58 C88.20,48.60 87.75,49.65 87.31,50.49 C87.26,50.59 87.20,50.67 87.13,50.75 C87.19,54.09 86.95,57.46 86.93,60.80 C86.91,64.44 86.99,68.08 87.11,71.71 C87.33,77.73 88.09,83.96 86.31,89.83 C84.86,94.64 81.95,98.76 78.04,101.89 C74.05,105.09 69.23,106.94 64.11,107.23 C61.51,107.38 58.86,107.08 56.34,106.41 L56.07,106.33 C53.64,105.66 50.82,104.64 49.02,102.85 C48.08,101.90 49.03,99.90 50.42,100.45 C51.80,101.00 53.03,101.81 54.40,102.38 C55.61,102.89 56.89,103.28 58.18,103.56 C60.76,104.15 63.50,104.27 66.13,103.91 C75.61,102.61 82.99,94.74 84.45,85.40 C84.86,82.81 84.85,80.18 84.82,77.57 L84.79,74.70 C84.77,72.31 84.76,69.91 84.85,67.52 C84.96,64.43 85.18,61.36 85.47,58.29 L85.62,56.69 C85.80,54.82 86.00,52.94 86.35,51.10 C86.07,51.11 83.81,47.24 82.55,45.08 C82.09,44.71 81.70,44.26 81.56,43.68 C81.52,43.56 81.51,43.43 81.50,43.31 C81.23,42.88 80.94,42.46 80.64,42.06 L80.57,42.03 C80.52,42.01 80.48,41.99 80.46,41.97 C79.79,41.60 79.24,41.03 78.86,40.37 C78.73,40.15 78.63,39.91 78.54,39.68 C78.01,39.15 77.44,38.64 76.85,38.17 C76.79,38.12 76.73,38.08 76.67,38.03 C75.91,37.75 75.25,37.33 74.77,36.71 C74.57,36.59 74.36,36.47 74.16,36.35 C73.54,36.34 72.92,36.20 72.31,35.95 C71.21,35.49 70.32,34.59 69.21,34.18 C68.04,33.74 66.80,34.74 65.55,34.56 C65.23,34.51 64.91,34.41 64.62,34.27 C63.91,35.02 63.17,35.72 62.34,36.34 C61.15,37.23 59.93,37.64 58.54,38.04 C57.85,38.69 57.09,39.33 56.16,39.42 C54.01,41.13 51.72,42.58 49.31,43.92 C48.92,44.14 48.53,44.24 48.17,44.24 C47.41,44.72 46.58,45.08 45.71,45.33 C45.44,45.41 45.15,45.43 44.88,45.40 L44.12,46.01 L44.12,46.01 C43.59,46.44 43.03,46.65 42.49,46.66 C42.16,46.91 41.82,47.15 41.47,47.38 C41.10,47.62 40.61,47.72 40.13,47.69 C39.38,48.42 38.42,48.50 37.61,48.16 C37.50,48.23 37.38,48.29 37.25,48.35 C37.08,48.43 36.90,48.50 36.71,48.56 C35.87,49.47 34.63,49.95 33.40,49.82 C32.47,50.39 31.40,50.68 30.35,50.62 C30.19,51.42 30.05,52.23 29.94,53.04 L29.93,53.64 C29.93,53.73 29.93,53.81 29.93,53.86 L29.93,53.88 C30.03,56.48 30.09,59.09 30.19,61.70 L30.20,61.90 C30.32,64.18 30.88,68.33 27.53,68.24 C26.28,68.21 25.05,67.29 24.08,66.53 L23.94,66.43 C23.87,66.37 23.79,66.31 23.71,66.25 C22.99,66.15 22.27,65.98 21.54,65.95 C20.64,65.92 19.68,66.01 18.80,66.22 C17.25,66.58 15.74,67.29 14.73,68.57 C14.64,68.68 14.56,68.80 14.48,68.92 C14.41,69.16 14.29,69.38 14.12,69.58 C13.16,71.74 13.72,74.59 14.78,76.56 C16.04,78.91 18.04,80.54 20.56,81.36 L20.68,81.40 C22.40,81.93 23.06,82.97 23.99,84.42 C24.86,85.78 25.87,87.04 26.95,88.24 C29.03,90.56 31.96,92.48 33.17,95.42 C33.41,96.01 32.71,96.57 32.17,96.42 C30.04,95.82 28.55,94.31 27.00,92.80 C25.93,91.75 24.91,90.67 23.94,89.53 C23.74,89.62 23.51,89.69 23.28,89.71 C22.26,89.84 21.20,89.79 20.30,89.23 C19.89,89.27 19.46,89.13 19.14,88.84 C18.85,88.57 18.59,88.27 18.38,87.96 C18.05,87.99 17.74,88.00 17.43,87.95 C17.28,87.94 17.14,87.90 17.01,87.83 C16.77,87.74 16.54,87.59 16.33,87.36 C15.90,86.91 15.74,86.26 15.82,85.64 C15.73,85.62 15.65,85.60 15.57,85.57 C15.00,85.38 14.56,85.00 14.28,84.48 C13.78,84.20 13.33,83.82 12.99,83.41 C12.57,82.92 12.26,82.37 12.07,81.75 C11.88,81.66 11.70,81.56 11.52,81.44 C10.25,80.58 9.53,78.97 10.02,77.48 L10.04,77.43 C10.07,77.37 10.11,77.25 10.17,77.12 C10.16,77.02 10.15,76.91 10.15,76.81 L10.13,76.49 L10.13,76.49 L9.87,76.38 L9.87,76.38 C8.61,75.88 7.75,75.20 7.60,73.77 C7.57,73.48 7.68,73.17 7.86,72.92 L7.86,72.84 L7.86,72.84 C7.78,72.80 7.70,72.76 7.63,72.71 C6.94,72.27 6.51,71.48 6.56,70.66 C6.61,69.92 7.02,69.32 7.48,68.77 L7.62,68.62 C7.63,68.61 7.64,68.59 7.65,68.58 L7.35,68.48 C7.15,68.42 6.96,68.35 6.83,68.28 C6.32,67.99 5.89,67.61 5.63,67.12 C5.59,67.06 5.55,67.00 5.52,66.94 C5.17,66.31 5.13,65.51 5.35,64.84 C5.38,64.76 5.41,64.68 5.44,64.61 C4.51,64.28 3.79,63.60 3.70,62.34 C3.67,61.85 3.78,61.36 4.01,60.94 C3.96,60.66 3.95,60.36 3.98,60.07 C3.66,59.76 3.40,59.39 3.29,58.93 C3.07,58.07 3.46,57.25 4.05,56.50 C3.83,55.90 3.82,55.23 4.07,54.63 C3.98,54.33 3.92,54.02 3.92,53.69 C3.91,52.97 4.13,52.37 4.49,51.86 C3.99,51.25 3.75,50.43 4.05,49.67 C4.26,49.12 4.50,48.63 4.78,48.17 C4.63,47.82 4.55,47.42 4.55,46.98 C4.55,46.19 4.84,45.57 5.30,45.05 C5.10,44.12 5.50,42.98 6.37,42.57 C6.70,42.41 7.14,42.25 7.62,42.12 C7.81,41.55 8.00,40.99 8.20,40.43 C8.51,39.54 8.85,38.67 9.21,37.81 C9.00,37.99 8.79,38.16 8.56,38.31 C7.85,39.21 6.91,40.00 6.12,40.47 C4.55,41.39 2.75,40.84 1.98,39.29 C1.25,39.83 0.37,40.15 -0.56,40.04 C-1.62,39.92 -2.58,39.23 -2.85,38.17 C-2.89,38.01 -2.91,37.84 -2.91,37.68 C-3.52,38.11 -4.15,38.51 -4.85,38.73 C-5.74,39.02 -6.64,38.33 -6.76,37.46 C-6.80,37.12 -6.74,36.81 -6.60,36.56 L-6.69,36.52 C-6.70,36.52 -6.72,36.51 -6.73,36.50 C-7.20,36.29 -7.56,35.89 -7.73,35.43 C-8.74,35.82 -9.89,35.36 -10.21,34.25 C-10.59,32.94 -10.61,31.60 -10.32,30.32 C-11.38,29.54 -12.08,28.24 -12.20,26.88 C-12.28,25.90 -12.05,24.99 -11.64,24.16 C-12.65,23.78 -12.99,22.46 -12.51,21.50 C-13.15,21.14 -13.57,20.37 -13.58,19.61 C-13.86,19.18 -13.95,18.63 -13.72,18.01 C-13.40,17.19 -12.77,16.50 -12.04,15.96 C-12.36,15.41 -12.60,14.81 -12.74,14.19 C-13.34,14.01 -13.83,13.53 -13.93,12.80 C-14.05,11.88 -13.45,11.10 -12.64,10.90 C-12.55,10.62 -12.44,10.35 -12.30,10.08 C-12.70,9.13 -12.64,7.93 -12.13,6.89 C-11.67,5.97 -10.92,5.41 -10.02,5.02 C-10.25,4.24 -9.95,3.46 -9.19,2.88 C-8.26,2.17 -7.24,1.62 -6.17,1.24 C-6.27,-0.03 -5.74,-1.34 -4.48,-1.78 C-4.14,-1.90 -3.79,-1.94 -3.44,-1.94 C-3.18,-2.50 -2.75,-2.96 -2.19,-3.36 C-1.34,-3.97 0.25,-3.60 0.73,-2.64 L0.75,-2.59 C0.77,-2.54 0.80,-2.49 0.82,-2.44 C0.92,-2.90 1.14,-3.34 1.50,-3.70 C2.39,-4.60 3.33,-4.62 4.24,-4.23 C4.41,-4.65 4.61,-5.04 4.86,-5.40 C5.74,-6.70 7.21,-6.87 8.29,-6.16 C8.72,-6.54 9.20,-6.83 9.74,-7.00 Z M16.10,71.34 C17.89,70.64 20.06,70.85 21.83,71.52 L21.96,71.57 C23.53,72.19 26.07,73.56 26.37,75.32 C26.53,76.23 25.67,77.02 24.79,76.54 C24.02,76.13 23.59,75.29 22.98,74.68 C22.38,74.08 21.71,73.59 20.97,73.17 C19.44,72.28 17.83,71.94 16.10,71.68 C15.90,71.65 15.96,71.39 16.10,71.34 Z" id="🖍-Ink" fill="#000000"></path></g><g id="face/Smiling" transform="translate(112.18, 77.35)" fill="#000000" fill-rule="evenodd"><path d="M30.97,50.92 C29.55,50.34 28.28,49.37 27.36,48.14 C27.03,47.71 26.95,47.26 27.02,46.84 C27.09,46.37 27.37,45.95 27.74,45.67 C28.12,45.38 28.59,45.24 29.05,45.32 C29.45,45.38 29.84,45.59 30.15,46.05 L30.22,46.14 C30.77,46.88 31.49,47.49 32.31,47.89 C33.09,48.27 33.97,48.44 34.89,48.34 C36.62,48.14 37.82,47.20 39.09,45.93 C39.25,45.77 39.41,45.60 39.57,45.43 C39.67,45.28 39.81,45.18 39.96,45.13 C40.13,45.07 40.33,45.07 40.51,45.14 C40.68,45.20 40.83,45.31 40.93,45.46 C41.03,45.60 41.09,45.78 41.07,45.98 C40.95,47.31 40.26,48.49 39.28,49.41 C38.19,50.44 36.74,51.16 35.38,51.41 C33.88,51.68 32.35,51.48 30.97,50.92 L30.97,50.92 Z M36.09,30.51 C37.68,31.48 40.11,33.74 38.40,36.15 C36.38,38.27 33.47,35.84 32.04,34.74 C30.71,33.89 29.21,36.08 30.45,37.07 C40.80,44.74 45.01,30.77 36.89,29.37 C36.00,29.22 35.67,30.21 36.09,30.51 Z M17.53,21.59 C17.70,19.40 21.04,18.90 21.37,21.07 C21.66,23.01 21.31,24.79 20.44,26.54 C19.61,28.21 17.51,27.43 17.35,25.91 C17.14,23.87 17.42,22.95 17.53,21.59 Z M42.89,20.62 C43.36,20.01 44.03,19.60 44.83,19.83 C47.34,20.56 46.60,24.13 45.72,25.87 C45.24,26.81 43.69,27.05 42.99,26.22 C41.85,24.86 41.31,22.16 42.76,20.83 C42.80,20.76 42.84,20.69 42.89,20.62 Z M20.41,12.01 L20.80,11.94 C22.03,11.73 23.56,11.53 24.42,12.51 C24.88,13.04 25.04,14.01 24.42,14.51 C23.33,15.39 22.13,15.05 20.83,15.12 C19.75,15.19 18.72,15.36 17.68,15.66 C15.41,16.31 13.56,17.49 11.62,18.80 C11.37,18.97 11.11,18.64 11.23,18.40 C12.35,16.21 14.52,14.41 16.69,13.31 C17.85,12.72 19.12,12.23 20.41,12.01 Z M40.60,11.03 L40.91,11.09 C44.21,11.78 48.50,13.16 50.07,16.41 C50.13,16.87 50.06,16.96 50.01,17.03 L50.00,17.05 C49.95,17.11 49.92,17.18 49.72,17.24 C49.67,17.23 49.61,17.22 49.55,17.20 C48.84,17.01 48.27,16.75 47.72,16.49 L47.13,16.19 C46.43,15.85 45.74,15.53 45.00,15.29 C43.42,14.77 41.80,14.41 40.15,14.22 C39.80,14.17 39.45,14.05 39.18,13.85 C38.92,13.65 38.73,13.38 38.64,13.02 C38.52,12.55 38.56,12.20 38.81,11.78 C38.99,11.46 39.26,11.24 39.57,11.12 C39.89,10.99 40.25,10.96 40.60,11.03 Z" id="🖍-Ink"></path></g><g id="facial-hair/*-None" transform="translate(104.58, 109.48)"></g><g id="accessories/*-None" transform="translate(88.52, 88.98)"></g></g></g></g></g></svg>