<?xml version="1.0" encoding="UTF-8"?><svg width="240px" height="324px" viewBox="0 0 240 324" version="1.1" xmlns="http://www.w3.org/2000/svg" xmlns:xlink="http://www.w3.org/1999/xlink"><title>peep-25</title><desc>Created with Sketch.</desc><g id="Introduction" stroke="none" stroke-width="1" fill="none" fill-rule="evenodd"><g id="variations" transform="translate(-846.00, -1082.00)"><g id="images" transform="translate(126.00, 110.00)"><g id="a-person/bust" transform="translate(720.00, 972.00)"><g id="body/Gaming" transform="translate(31.06, 135.05)" fill-rule="evenodd"><path d="M161.44,82.74 C161.44,81.03 159.07,77.99 159.07,76.44 C161.06,76.09 162.72,73.39 162.28,71.70 C161.50,71.11 159.47,69.94 158.63,69.39 C153.50,69.55 155.45,62.41 154.87,58.78 C154.28,55.23 153.85,51.52 152.99,47.95 C151.48,45.10 150.76,41.89 149.31,39.05 C148.66,38.11 147.61,37.25 147.30,36.15 C144.12,32.68 139.75,30.60 136.15,27.66 C137.55,27.22 137.46,25.33 137.37,24.12 C137.69,22.54 137.35,20.56 135.91,19.67 C135.42,18.09 133.29,17.54 132.05,18.55 C131.23,14.88 128.04,12.66 124.69,11.30 C124.70,11.29 124.70,11.28 124.70,11.27 C121.33,9.93 117.28,9.26 113.91,10.02 C115.69,-9.80 100.52,-10.52 92.82,-8.86 C88.89,-8.01 82.98,-5.35 81.63,-1.67 C80.88,0.41 78.70,7.12 78.39,9.26 C72.51,5.91 65.70,1.48 60.60,8.24 C59.58,9.42 58.45,10.29 56.92,10.70 C52.15,11.93 45.82,11.98 43.11,16.84 C41.49,19.85 42.94,21.84 42.51,24.86 C21.03,39.94 3.09,95.52 7.12,121.37 C8.09,130.62 12.82,147.00 24.50,144.96 C30.46,151.48 130.46,151.48 140.77,144.96 C149.26,147.18 157.88,143.74 161.44,135.61 C165.96,124.46 161.17,112.42 160.32,100.98 C159.81,98.09 159.04,95.80 158.63,92.84 C158.46,91.61 159.05,89.56 158.63,88.42 C158.83,87.68 161.44,84.45 161.44,82.74 Z" id="🎨-Background" fill="#FFFFFF"></path><path d="M114.17,3.61 C114.41,4.63 114.19,5.77 114.23,6.80 C114.27,7.80 114.39,8.78 114.56,9.76 C116.37,8.81 118.51,8.68 120.58,8.99 C123.25,9.39 126.35,10.27 128.44,12.05 C128.96,12.50 129.39,13.02 129.74,13.59 C130.18,14.29 130.45,15.07 131.13,15.56 C132.19,16.33 133.50,16.62 134.51,17.47 C135.55,18.34 136.19,19.63 136.33,20.97 C136.40,21.68 136.28,22.34 136.15,23.04 C136.03,23.66 136.09,23.92 136.25,24.52 C136.38,24.99 136.13,25.52 135.73,25.78 C136.59,26.37 137.44,26.98 138.27,27.61 C143.13,31.30 147.23,35.90 150.08,41.30 L150.15,41.44 L150.23,41.60 C150.92,43.02 152.73,47.19 152.96,48.13 C153.12,48.62 153.28,49.11 153.42,49.60 C153.81,50.91 154.13,52.24 154.40,53.57 L154.47,53.94 C154.69,55.06 155.07,56.39 155.01,57.59 C155.64,60.85 156.19,64.14 156.67,67.43 C156.73,67.86 156.56,68.21 156.30,68.44 C156.93,68.55 157.57,68.67 158.19,68.80 L158.56,68.88 L158.74,68.92 C160.04,69.21 161.33,69.64 162.19,70.74 C163.11,71.92 163.13,73.45 162.20,74.64 C161.41,75.65 160.27,76.14 159.07,76.44 C158.83,76.50 158.59,76.56 158.36,76.60 C158.19,76.64 158.09,76.42 158.24,76.33 L158.50,76.19 L158.84,76.00 C159.75,75.50 160.68,74.94 161.18,74.04 C161.86,72.82 161.32,71.70 160.16,71.08 C159.18,70.56 157.98,70.42 156.90,70.25 L156.45,70.17 C155.32,69.99 154.16,69.88 153.02,70.01 C152.02,70.12 151.01,70.46 150.20,71.07 L150.13,71.13 L150.05,71.19 C149.34,71.81 148.33,73.19 149.66,73.58 C150.68,73.89 151.93,73.81 153.00,73.87 L153.14,73.88 C154.03,73.94 154.97,73.94 155.88,74.05 C156.21,74.08 156.53,74.14 156.84,74.21 C157.74,74.42 157.43,75.63 156.64,75.71 C156.45,75.73 156.25,75.74 156.05,75.75 C155.53,76.14 154.81,76.31 154.20,76.56 C153.61,76.79 153.02,77.02 152.43,77.25 C152.94,77.27 153.45,77.31 153.96,77.38 C154.12,77.39 154.12,77.62 153.96,77.63 C152.73,77.76 151.51,77.89 150.28,78.06 C148.39,78.33 146.52,78.68 144.68,79.21 C143.34,79.60 142.01,80.07 140.73,80.62 L140.34,80.78 L140.18,80.85 C139.01,81.36 137.50,81.95 136.83,83.07 C136.48,83.65 136.33,84.55 136.82,85.10 C137.35,85.70 138.46,85.63 139.20,85.66 L139.26,85.66 C140.82,85.74 142.39,85.75 143.96,85.70 C147.25,85.58 150.54,85.22 153.78,84.59 C154.37,84.47 154.63,85.37 154.03,85.51 C150.22,86.39 146.37,86.88 142.46,86.90 L142.03,86.90 C140.51,87.19 139.01,87.63 137.53,88.12 L137.23,88.22 C136.36,88.51 134.87,88.80 134.35,89.67 C134.01,90.25 134.13,90.65 134.47,90.91 C135.06,91.39 136.33,91.47 136.95,91.50 C139.42,91.59 141.89,91.61 144.37,91.55 C145.60,91.53 146.84,91.48 148.08,91.42 C149.28,91.36 150.57,91.18 151.78,91.29 C152.30,91.34 152.47,92.10 151.91,92.25 C150.42,92.62 148.76,92.59 147.22,92.64 L147.05,92.64 C145.40,92.70 143.75,92.73 142.10,92.72 C140.69,92.72 139.27,92.69 137.86,92.64 L136.61,92.59 L136.39,92.58 C135.72,92.54 135.04,92.46 134.45,92.19 C133.91,93.10 134.31,94.33 135.02,95.05 C135.69,95.74 136.65,96.08 137.58,96.29 C137.67,96.31 137.75,96.33 137.84,96.34 C139.87,96.76 141.94,96.72 143.84,97.66 C145.44,98.44 146.91,99.75 148.70,100.06 C150.30,100.34 151.46,99.64 152.32,98.33 C152.36,98.26 152.41,98.19 152.45,98.11 C153.13,97.03 153.61,95.84 154.32,94.78 C154.68,94.24 155.09,93.72 155.59,93.30 C155.81,93.10 157.38,92.27 157.62,92.02 C158.68,90.94 157.74,88.66 158.02,87.31 C158.34,85.73 159.73,85.17 160.56,83.95 C162.14,81.62 157.80,79.44 159.10,76.89 C159.12,76.86 159.14,76.84 159.16,76.82 C159.28,76.76 159.46,76.84 159.45,76.99 C159.31,78.88 161.11,80.19 161.77,81.83 C162.51,83.70 161.32,84.84 160.11,86.09 C158.56,87.69 159.65,89.49 159.30,91.42 C159.26,91.67 159.19,91.90 159.09,92.10 C159.36,92.26 159.56,92.53 159.61,92.91 C160.14,97.44 160.71,101.95 161.65,106.41 L161.85,107.35 L162.12,108.62 C162.79,111.78 163.41,114.96 163.53,118.19 C163.90,120.92 164.05,123.67 163.83,126.41 C163.16,134.77 158.49,143.52 150.00,146.08 C148.03,146.68 145.95,146.83 143.94,146.41 C143.25,146.27 142.28,145.96 141.41,145.49 C141.46,146.04 141.50,146.60 141.52,147.16 C141.81,147.48 141.93,147.96 141.77,148.37 C141.08,148.14 140.45,147.78 139.88,147.29 L139.79,147.20 C139.45,145.96 139.36,144.59 139.31,143.27 L139.29,142.90 C139.28,142.54 139.27,142.18 139.26,141.83 C139.19,139.66 139.24,137.49 139.35,135.32 L139.43,133.72 C139.62,130.00 139.78,126.28 139.67,122.55 C139.55,118.25 139.19,113.97 138.73,109.70 C138.49,107.50 138.22,105.30 137.94,103.10 C137.72,101.33 137.35,99.42 137.34,97.59 C135.92,97.29 134.52,96.70 133.65,95.51 C132.72,94.25 132.58,92.63 133.41,91.33 C132.61,90.24 133.26,89.21 134.25,88.52 C132.73,87.67 131.89,85.36 131.67,83.75 C131.52,82.65 131.47,81.00 131.94,79.75 C131.26,79.78 130.59,79.85 129.91,79.96 C129.13,80.10 128.36,80.30 127.61,80.55 L127.22,80.68 C127.03,80.74 126.81,80.82 126.60,80.91 C127.96,83.17 126.21,85.22 123.95,85.81 C123.53,85.92 123.09,86.00 122.65,86.06 C121.65,86.20 120.64,86.24 119.65,86.33 C117.76,86.50 115.86,86.75 113.97,86.83 C113.55,86.85 113.28,86.66 113.15,86.38 C113.15,86.38 113.15,86.38 113.15,86.37 C113.10,86.30 113.07,86.23 113.06,86.15 C113.07,86.15 113.08,86.16 113.08,86.16 C112.99,85.65 113.30,85.04 113.97,84.96 C116.70,84.65 119.48,84.64 122.22,84.41 L122.40,84.40 C123.26,84.32 124.27,84.19 124.95,83.64 C125.59,83.13 125.64,82.47 125.39,81.88 C125.39,81.89 125.38,81.91 125.38,81.93 C125.36,82.04 125.20,82.04 125.15,81.96 C124.99,81.72 124.95,81.48 124.99,81.25 C124.80,81.03 124.57,80.84 124.32,80.69 C123.21,80.01 121.76,79.83 120.50,79.63 C119.13,79.41 117.74,79.32 116.35,79.25 C113.62,79.12 110.88,79.34 108.19,79.83 C108.08,79.85 108.04,79.70 108.15,79.66 C109.19,79.31 110.26,79.02 111.35,78.79 C111.32,78.79 111.30,78.78 111.27,78.78 C111.18,78.75 111.11,78.64 111.14,78.54 C111.15,78.53 111.15,78.51 111.16,78.50 C110.70,78.29 110.51,77.58 111.06,77.29 C112.80,76.39 114.84,75.99 116.75,75.62 C118.58,75.27 120.43,75.02 122.29,74.80 C125.42,74.43 128.83,74.44 131.85,73.45 L131.97,73.41 C133.20,72.98 134.67,72.13 134.75,70.68 C134.88,68.49 131.62,69.06 130.27,69.11 C126.56,69.25 122.85,69.51 119.15,69.91 C118.40,69.99 117.64,70.07 116.89,70.15 C115.73,70.28 114.58,70.42 113.42,70.56 C112.78,70.64 112.12,70.75 111.46,70.85 C111.25,70.90 111.05,70.94 110.84,70.95 C110.83,70.96 110.82,70.95 110.81,70.95 C109.84,71.08 108.87,71.18 107.93,71.16 C107.82,71.15 107.75,70.98 107.87,70.93 C109.08,70.42 110.44,70.11 111.80,69.87 C112.64,69.25 113.65,68.74 114.49,68.26 C115.63,67.59 116.94,66.61 118.24,66.21 C118.83,65.75 119.49,65.38 120.10,65.13 C119.93,64.85 119.86,64.47 119.90,64.16 C120.01,63.01 120.93,62.37 121.98,62.15 C122.31,62.08 122.69,62.03 123.09,62.01 C123.10,61.80 123.20,61.59 123.41,61.43 L123.47,61.39 L123.51,61.35 C124.22,60.77 125.63,59.15 123.94,59.03 C123.04,58.97 122.27,59.63 121.56,60.08 C120.07,61.00 118.63,61.05 116.93,60.82 L116.17,60.71 L116.04,60.69 C114.82,60.53 113.57,60.51 112.88,61.76 C112.15,63.10 111.89,64.32 110.41,65.06 C108.99,65.77 107.42,65.91 106.12,66.87 C104.72,67.91 103.67,69.36 102.53,70.65 C100.02,73.49 97.14,76.00 94.17,78.36 L93.64,78.78 C90.91,80.94 88.09,83.06 85.03,84.73 C85.01,84.74 84.99,84.74 84.97,84.74 C84.89,84.73 84.83,84.63 84.90,84.56 C88.47,81.08 92.65,78.27 96.32,74.89 C97.95,73.39 99.50,71.81 100.99,70.18 C102.29,68.74 103.44,67.13 104.96,65.91 C105.70,65.32 106.49,64.86 107.38,64.54 C108.22,64.25 109.15,64.10 109.92,63.64 C111.42,62.75 111.27,60.64 112.78,59.68 C114.06,58.85 115.63,59.15 117.06,59.35 L117.23,59.37 C118.16,59.49 119.11,59.60 120.00,59.23 C120.87,58.87 121.58,58.20 122.46,57.84 C123.68,57.33 125.42,57.45 126.05,58.80 C126.66,60.09 125.83,61.26 124.88,62.11 C126.18,62.35 127.33,62.98 127.43,64.27 C128.39,64.24 129.34,64.21 130.30,64.17 C133.64,64.06 137.00,63.83 140.34,63.89 C140.27,63.55 140.23,63.20 140.23,62.84 C140.23,62.64 140.23,62.45 140.25,62.24 C140.27,61.90 140.50,61.69 140.84,61.65 L141.60,61.57 L141.85,61.54 C143.26,61.41 144.84,61.38 145.92,62.32 C146.50,62.82 146.97,63.99 146.68,64.76 C147.34,64.99 147.97,65.28 148.54,65.64 C149.68,65.26 150.87,65.30 152.01,65.70 L152.15,65.75 C152.96,66.05 154.11,66.61 154.55,67.42 C153.48,60.16 152.04,52.97 150.22,45.87 C149.07,43.03 147.61,40.32 145.83,37.82 C141.37,31.51 134.94,27.17 129.16,22.19 C128.65,22.75 128.10,23.28 127.59,23.80 L127.37,24.02 C126.33,25.07 125.24,26.09 124.12,27.07 C121.79,29.13 119.34,31.04 116.90,32.97 C111.99,36.87 107.56,41.00 103.86,46.09 C103.80,46.18 103.61,46.13 103.67,46.00 C106.20,39.98 111.45,35.40 116.22,31.15 C118.73,28.92 121.29,26.74 123.70,24.40 C124.83,23.31 125.92,22.18 126.95,21.00 L127.20,20.70 C127.87,19.91 129.45,17.51 130.49,19.25 C130.70,19.61 130.69,20.07 130.49,20.43 C130.19,20.95 129.82,21.44 129.41,21.91 C130.86,22.71 132.29,23.54 133.69,24.43 C133.61,24.00 133.63,23.53 133.70,23.06 L133.73,22.91 L133.83,22.32 C133.97,21.46 134.05,20.66 133.50,19.82 C132.82,18.76 131.52,18.43 130.50,17.82 C129.31,17.12 128.69,16.18 128.06,14.99 C126.84,12.71 124.10,11.80 121.74,11.06 L121.44,10.97 C119.26,10.29 116.90,9.93 114.72,10.58 C114.92,11.53 115.19,12.47 115.53,13.39 C115.88,14.36 116.69,15.44 116.61,16.49 C116.55,17.22 115.68,18.00 114.96,17.44 C113.93,16.66 113.73,15.38 113.45,14.15 C113.19,12.97 113.02,11.76 112.94,10.55 C112.87,9.39 112.93,8.23 113.07,7.07 L113.18,6.22 L113.21,6.02 C113.33,5.16 113.51,4.26 113.99,3.59 C114.04,3.53 114.15,3.52 114.17,3.61 Z M84.42,-1.21 C84.43,-1.14 84.44,-1.08 84.45,-1.01 C84.53,-0.72 84.55,-0.44 84.54,-0.16 C84.55,-0.06 84.54,0.04 84.52,0.14 C84.48,0.47 84.40,0.81 84.30,1.18 C84.07,1.96 83.81,2.74 83.52,3.50 C82.94,5.01 82.26,6.46 81.42,7.84 C79.90,10.34 77.96,12.41 75.68,14.20 C76.12,14.56 76.54,14.93 76.96,15.29 C79.01,17.06 81.00,18.90 82.93,20.79 C86.36,24.15 89.72,27.57 93.00,31.07 C94.61,32.80 96.20,34.55 97.78,36.32 L97.83,36.37 L97.89,36.44 C98.45,37.12 99.57,38.74 100.40,38.48 C100.83,38.35 101.27,37.72 101.56,37.41 L102.09,36.86 C102.26,36.68 102.44,36.49 102.61,36.30 C105.69,32.92 108.61,29.41 111.35,25.74 C112.69,23.95 113.98,22.13 115.23,20.28 C115.87,19.32 116.50,18.36 117.11,17.39 C117.71,16.45 118.19,15.44 119.07,14.74 C119.71,14.23 120.60,14.70 120.44,15.54 C120.18,16.87 119.27,17.99 118.54,19.11 C117.82,20.24 117.07,21.36 116.31,22.46 C114.85,24.59 113.32,26.67 111.74,28.71 C110.38,30.46 108.96,32.18 107.50,33.85 L107.11,34.31 C105.54,36.10 104.00,38.00 102.26,39.63 C100.71,41.09 99.02,40.67 97.60,39.24 C95.81,37.45 94.15,35.51 92.43,33.64 C88.99,29.92 85.52,26.23 82.01,22.57 L80.86,21.37 C79.51,19.97 78.17,18.55 76.86,17.11 L76.70,16.93 C75.21,15.25 73.69,13.15 71.58,12.30 C71.43,12.24 71.48,12.02 71.65,12.05 C73.00,12.30 74.13,12.99 75.18,13.80 C76.13,12.24 76.97,10.59 77.71,8.90 L77.24,8.69 C73.86,7.23 70.05,5.76 66.43,6.00 C64.97,6.09 63.41,6.65 62.40,7.74 C61.49,8.74 61.03,10.08 60.19,11.14 C59.23,12.35 57.98,12.90 56.44,12.94 L55.70,12.97 C54.84,13.00 54.01,13.04 53.14,13.23 C50.78,13.74 48.29,14.57 46.31,15.99 C45.59,16.51 44.84,17.22 44.50,18.00 C44.15,18.77 44.05,19.67 44.02,20.51 C44.00,20.91 44.13,21.45 44.02,21.84 C44.04,21.80 44.04,21.82 44.04,21.87 C44.36,22.12 44.57,22.53 44.60,22.94 C46.57,21.91 48.62,21.01 50.70,20.20 C53.02,19.29 55.41,18.57 57.81,17.88 C60.15,17.21 62.60,16.93 64.99,16.45 C65.29,16.39 65.40,16.80 65.12,16.91 C62.61,17.87 60.18,19.02 57.65,19.92 C55.12,20.83 52.61,21.81 50.15,22.90 C45.41,25.01 40.82,27.70 37.08,31.34 C33.43,34.90 30.61,39.22 27.99,43.56 C25.35,47.94 23.00,52.47 20.90,57.13 C16.75,66.34 13.63,76.03 11.58,85.93 C9.59,95.56 8.47,105.53 8.84,115.38 C9.02,120.05 9.59,124.73 10.92,129.23 C11.55,131.37 12.35,133.47 13.35,135.48 C14.41,137.59 15.83,139.47 16.80,141.62 C16.88,141.80 16.91,141.97 16.90,142.12 C21.02,145.69 27.47,143.29 31.93,141.16 C42.19,136.25 52.26,130.88 61.83,124.72 C71.28,118.63 80.23,111.84 88.97,104.80 C88.29,104.10 87.69,103.32 87.17,102.61 C86.09,101.15 85.28,99.49 84.72,97.76 C84.06,95.74 83.86,93.57 84.04,91.46 L84.10,90.86 C84.27,88.86 84.48,86.83 84.92,84.88 C84.92,84.85 84.94,84.84 84.96,84.84 C84.98,84.84 85.01,84.86 85.01,84.88 C86.19,88.66 86.29,92.73 87.62,96.46 C88.15,97.96 88.98,99.41 89.97,100.65 C90.40,101.19 90.90,101.66 91.42,102.12 C91.45,101.88 91.50,101.65 91.57,101.43 L91.62,101.25 C91.69,101.03 91.78,100.79 91.89,100.57 C91.73,100.53 91.57,100.47 91.40,100.41 C91.28,100.37 91.25,100.16 91.40,100.13 C91.83,100.03 92.26,99.98 92.70,99.96 C92.77,99.95 92.84,99.95 92.90,99.95 C93.73,99.93 94.57,99.99 95.37,100.00 C96.75,100.02 98.12,100.05 99.50,100.11 C102.14,100.22 105.11,100.73 107.71,100.11 C110.07,99.56 112.39,97.98 114.28,96.50 C115.93,95.21 117.21,93.67 118.58,92.14 C118.48,92.16 118.38,92.17 118.28,92.19 L117.40,92.31 C116.28,92.46 114.96,92.57 114.07,92.04 C113.74,91.83 113.83,91.37 114.18,91.24 C115.08,90.91 116.20,91.18 117.17,91.14 C117.92,91.10 118.69,91.02 119.43,90.86 C119.68,90.81 119.92,90.75 120.16,90.68 C121.93,90.17 124.00,88.38 122.60,86.43 C122.55,86.35 122.61,86.28 122.68,86.27 C122.71,86.26 122.74,86.27 122.77,86.29 C124.37,87.62 123.54,89.99 122.03,91.01 C121.51,91.36 120.92,91.60 120.31,91.78 C120.43,91.99 120.45,92.26 120.31,92.51 C119.13,94.61 117.12,96.47 115.25,97.96 C113.32,99.49 111.10,100.93 108.71,101.61 C105.95,102.39 102.92,101.80 100.12,101.55 C98.60,101.42 97.09,101.26 95.58,101.09 C95.17,101.04 94.75,101.00 94.32,100.96 C94.72,101.49 95.04,102.10 95.25,102.47 C95.93,103.65 95.30,105.22 93.99,105.58 C93.85,105.62 93.71,105.64 93.57,105.65 C93.21,106.36 92.37,106.88 91.59,106.61 C91.25,106.50 90.92,106.34 90.60,106.15 C85.69,110.47 80.51,114.52 75.19,118.32 C65.32,125.37 54.97,131.80 44.24,137.46 C41.82,138.74 39.38,139.98 36.93,141.17 L34.81,142.19 C32.48,143.31 30.08,144.43 27.60,145.13 C27.11,145.27 26.60,145.38 26.08,145.46 C26.08,145.51 26.08,145.56 26.08,145.60 C25.61,145.66 25.20,145.67 24.86,145.63 L24.78,145.62 C21.73,145.83 18.47,145.08 16.51,142.86 C16.19,143.09 15.71,143.11 15.29,142.78 C13.18,141.13 11.92,138.60 10.81,136.19 C9.69,133.74 8.81,131.19 8.17,128.58 C6.88,123.37 6.36,117.99 6.34,112.62 C6.24,91.95 11.42,71.09 20.41,52.53 C22.69,47.82 25.20,43.20 27.99,38.78 C30.77,34.37 34.00,30.26 38.14,27.05 C39.33,26.12 40.57,25.27 41.84,24.50 C40.99,24.07 40.65,22.99 40.59,22.03 C40.45,19.90 40.71,17.44 41.96,15.64 C43.71,13.12 46.84,11.56 49.74,10.81 C51.26,10.41 52.83,10.18 54.39,10.10 C55.20,10.06 56.04,10.20 56.84,10.11 C57.54,10.03 57.97,9.61 58.38,9.06 C59.41,7.65 60.09,6.16 61.57,5.13 C63.10,4.06 65.07,3.66 66.91,3.77 C69.05,3.89 71.00,4.74 72.89,5.71 C74.59,6.58 76.24,7.55 77.85,8.58 C78.14,7.89 78.42,7.20 78.68,6.50 C79.18,5.14 79.62,3.74 79.97,2.34 C80.33,0.92 80.28,-0.95 81.36,-2.02 C82.30,-2.95 84.11,-2.59 84.42,-1.21 Z M157.41,93.57 L157.40,93.57 C155.21,94.87 154.16,98.11 153.13,99.53 C153.21,100.01 153.27,100.49 153.39,100.94 C153.66,101.98 154.01,103.00 154.41,103.99 C155.12,105.73 156.01,107.38 156.83,109.07 C157.49,110.43 158.14,111.81 158.64,113.23 C158.59,113.29 158.54,113.35 158.50,113.43 C157.95,114.46 157.52,114.26 156.51,114.03 L156.51,114.03 C155.93,112.26 155.10,110.61 154.35,108.91 L154.17,108.50 L153.99,108.08 C153.37,106.63 152.80,105.17 152.46,103.61 C152.25,102.62 152.17,101.60 152.15,100.59 C151.61,101.04 150.95,101.36 150.12,101.49 C148.35,101.76 146.75,100.65 145.30,99.75 L144.98,99.56 C144.07,99.01 143.18,98.50 142.13,98.24 C140.95,97.94 139.73,97.94 138.53,97.79 C138.38,97.77 138.24,97.75 138.09,97.73 C138.56,99.28 138.78,100.97 139.06,102.53 C139.44,104.71 139.76,106.91 140.07,109.10 C140.66,113.35 141.07,117.64 141.28,121.93 C141.48,126.08 141.38,130.22 141.23,134.37 L141.15,136.39 C141.09,138.04 141.04,139.69 141.07,141.34 C141.15,141.34 141.23,141.36 141.31,141.38 C142.15,141.57 142.71,142.42 143.48,142.80 C145.08,143.60 147.02,143.59 148.73,143.18 C152.62,142.26 155.85,139.55 157.98,136.23 C160.54,132.25 161.47,127.57 161.44,122.89 C161.41,117.62 160.56,112.58 159.37,107.49 L159.29,107.16 C158.29,102.93 157.67,93.61 157.41,93.57 Z M48.55,82.93 C48.58,84.35 48.00,85.87 47.68,87.25 C47.34,88.73 47.00,90.21 46.66,91.70 L46.35,93.03 C46.09,94.14 45.83,95.24 45.61,96.36 C45.42,97.27 45.34,98.48 45.03,99.49 C48.69,98.01 52.35,96.55 56.01,95.07 C60.51,93.26 65.04,91.49 69.55,89.70 C74.05,87.92 78.52,85.90 83.11,84.37 C84.20,84.01 84.94,85.76 83.90,86.24 C79.24,88.40 74.30,90.09 69.53,91.99 L62.62,94.73 C56.29,97.24 49.96,99.75 43.59,102.16 C39.25,103.80 34.93,105.50 30.57,107.06 C28.48,107.80 26.39,108.51 24.31,109.28 C22.58,109.93 20.70,110.88 20.06,112.75 C20.03,112.85 19.89,112.81 19.91,112.71 C20.17,110.90 21.51,109.77 23.02,108.92 C25.02,107.78 27.23,106.96 29.34,106.04 L29.63,105.92 C33.95,104.03 38.31,102.23 42.68,100.45 C42.63,100.34 42.61,100.23 42.60,100.11 L42.59,100.11 C42.51,99.31 42.88,98.58 43.15,97.83 L43.91,95.68 C44.42,94.24 44.88,92.79 45.35,91.34 C45.84,89.82 46.34,88.31 46.83,86.80 C47.25,85.51 47.54,83.99 48.26,82.84 C48.34,82.70 48.58,82.78 48.55,82.93 Z M132.70,79.75 L132.64,80.02 C132.58,80.34 132.52,80.67 132.51,80.99 C132.46,81.85 132.56,82.70 132.79,83.52 C133.01,84.33 133.32,85.12 133.76,85.84 C134.18,86.52 134.79,87.05 135.17,87.75 C135.21,87.82 135.24,87.89 135.25,87.97 C135.40,87.90 135.54,87.85 135.68,87.80 C136.86,87.43 138.07,87.12 139.29,86.88 L139.09,86.87 L138.97,86.86 C136.93,86.69 135.00,86.02 135.42,83.64 C135.66,82.29 136.71,81.39 137.85,80.75 L137.99,80.67 C138.05,80.63 138.11,80.60 138.17,80.57 C137.15,80.40 136.40,80.18 135.15,79.97 C134.33,79.84 133.51,79.76 132.70,79.75 Z M39.49,50.39 C41.50,54.45 43.01,58.76 44.14,63.13 C44.69,65.25 45.16,67.38 45.54,69.53 L45.66,70.25 L45.73,70.64 C46.08,72.55 46.52,74.63 46.01,76.50 C45.84,77.11 44.83,77.35 44.54,76.69 C43.69,74.70 43.81,72.40 43.56,70.27 C43.30,68.03 42.94,65.80 42.50,63.59 C41.65,59.34 40.45,55.19 39.12,51.07 L38.97,50.61 C38.86,50.31 39.35,50.11 39.49,50.39 Z M116.60,68.53 C116.00,68.82 115.41,69.07 114.88,69.33 C114.84,69.35 114.80,69.37 114.75,69.39 C115.35,69.29 115.95,69.20 116.55,69.11 C116.55,68.91 116.56,68.72 116.60,68.53 Z M140.00,66.50 C139.91,66.53 139.83,66.58 139.76,66.64 L139.72,66.68 C139.64,66.75 139.58,66.85 139.55,66.95 C139.50,67.05 139.47,67.16 139.48,67.28 L139.51,67.50 C139.55,67.64 139.62,67.77 139.72,67.87 L139.90,68.01 C140.01,68.07 140.13,68.11 140.27,68.12 L140.32,68.12 L140.49,68.12 C140.59,68.12 140.68,68.09 140.77,68.05 C140.86,68.02 140.94,67.97 141.01,67.91 L141.04,67.87 C141.12,67.80 141.18,67.71 141.22,67.60 C141.26,67.52 141.29,67.42 141.29,67.33 L141.29,67.28 L141.26,67.05 C141.22,66.93 141.16,66.81 141.08,66.72 L141.04,66.68 L140.87,66.55 C140.76,66.48 140.63,66.44 140.50,66.43 L140.44,66.43 L140.32,66.43 C140.21,66.43 140.10,66.45 140.00,66.50 Z M134.50,66.22 C134.05,66.30 133.80,66.84 133.91,67.26 C134.04,67.71 134.47,67.92 134.91,67.85 L134.95,67.85 C135.46,67.75 135.96,67.79 136.45,67.97 C136.88,68.13 137.37,67.79 137.49,67.38 C137.62,66.91 137.33,66.50 136.90,66.34 C136.13,66.05 135.30,66.07 134.50,66.22 Z M45.49,36.19 C46.51,37.69 47.15,39.68 47.78,41.40 L47.84,41.57 C48.51,43.37 49.16,45.18 49.76,47.01 C50.96,50.65 52.53,54.46 52.82,58.30 C52.87,59.01 51.79,59.30 51.47,58.67 C50.57,56.86 50.08,54.97 49.55,53.03 C49.03,51.18 48.50,49.34 47.97,47.50 C47.44,45.66 46.92,43.81 46.40,41.97 C45.89,40.17 45.18,38.18 45.07,36.31 C45.05,36.07 45.37,36.02 45.49,36.19 Z M68.56,24.13 C69.93,25.08 71.05,26.46 72.20,27.65 C73.37,28.85 74.53,30.06 75.67,31.29 C77.59,33.34 79.46,35.43 81.40,37.46 C85.27,41.50 89.65,45.21 94.98,47.11 C96.28,47.57 95.71,49.65 94.42,49.18 C88.96,47.20 84.43,43.54 80.44,39.39 C78.38,37.25 76.48,34.96 74.63,32.63 C73.77,31.53 72.91,30.44 72.07,29.33 L71.56,28.67 C70.49,27.26 69.19,25.86 68.41,24.28 C68.37,24.19 68.47,24.06 68.56,24.13 Z" id="🖍-Ink" fill="#000000"></path></g><g id="head/Mohawk-2" transform="translate(78.59, 38.04)" fill-rule="evenodd"><path d="M91.86,77.51 C88.29,61.33 87.59,43.55 78.17,29.41 C74.05,23.65 67.44,16.14 59.71,18.50 C60.03,15.09 60.33,11.68 60.61,8.26 C60.77,6.31 61.50,3.70 59.84,2.20 C57.11,-0.00 52.60,3.37 50.49,5.26 C45.92,9.63 44.11,13.89 38.09,16.81 C35.68,15.09 33.33,13.28 30.88,11.61 C28.38,9.90 24.81,7.13 22.22,10.28 C20.03,12.95 21.43,17.16 22.30,20.09 C22.74,21.60 23.19,23.24 23.81,24.78 C23.86,25.95 23.95,27.13 24.08,28.29 C19.62,29.09 15.03,29.76 10.77,31.31 C8.45,32.57 8.65,35.43 10.30,37.14 C12.77,39.53 15.89,41.40 19.30,42.66 C18.68,44.80 17.20,46.62 15.33,47.80 C14.71,48.20 14.35,48.78 14.23,49.40 C13.27,49.88 12.25,50.22 11.17,50.44 C9.83,50.72 9.06,52.29 9.41,53.55 C10.37,56.59 13.79,54.85 16.00,54.63 C16.07,56.76 16.11,58.97 17.07,60.94 C11.92,62.29 7.45,67.22 8.65,72.78 C9.73,78.09 15.46,79.72 20.00,80.92 C20.34,81.13 20.34,81.32 20.45,81.83 C21.20,85.27 20.57,89.06 19.39,92.33 C19.07,93.22 19.54,94.33 20.25,94.87 C23.95,97.22 25.17,90.06 29.39,94.62 C29.07,94.57 28.29,94.18 28.33,94.75 C33.79,104.34 49.93,104.93 59.82,105.17 C61.00,105.74 62.37,105.42 63.73,105.05 C65.02,104.98 66.32,104.88 67.61,104.75 C69.96,104.32 74.10,104.83 74.25,101.51 C80.34,99.11 85.57,94.96 89.13,89.47 C91.78,85.82 92.82,81.96 91.86,77.51 L91.86,77.51 Z" id="🎨-Background" fill="#FFFFFF"></path><path d="M54.96,0.99 L55.32,0.83 C56.54,0.30 57.88,-0.21 59.22,0.08 C60.76,0.42 61.66,1.75 62.04,3.19 C62.48,4.87 62.68,6.65 62.80,8.38 C62.92,10.16 62.88,11.95 62.74,13.73 C62.63,15.22 62.40,16.95 61.84,18.39 C61.87,18.37 61.89,18.36 61.93,18.35 C64.11,18.13 66.12,18.26 68.21,18.96 C70.15,19.62 72.04,20.54 73.73,21.70 C77.38,24.21 80.20,28.00 82.17,31.92 C86.17,39.89 87.01,48.91 88.13,57.62 L88.17,57.89 C88.77,62.55 89.57,67.14 90.86,71.66 L91.08,72.43 C92.26,76.57 92.96,80.59 92.02,84.88 C90.20,93.16 83.79,99.41 76.38,103.01 C72.59,104.86 68.50,106.22 64.36,107.00 C60.11,107.80 55.52,107.94 51.65,105.74 C49.73,104.65 51.42,101.87 53.36,102.82 C57.36,104.76 61.90,104.12 66.05,103.05 C70.18,101.99 74.23,100.49 77.89,98.28 C84.17,94.48 89.46,87.91 89.63,80.29 C89.73,76.00 87.90,71.91 87.01,67.77 C86.24,64.12 85.75,60.42 85.30,56.71 L84.96,53.96 C83.98,46.08 82.75,37.96 78.70,30.99 C75.13,24.84 68.97,19.95 61.89,18.64 C61.85,18.64 61.82,18.62 61.80,18.59 C61.58,19.76 60.30,20.85 59.48,21.52 C58.31,22.47 56.90,23.16 55.36,23.13 C52.40,23.07 49.85,20.77 47.82,18.85 C47.59,18.63 47.84,18.33 48.10,18.36 C50.46,18.72 52.48,20.64 54.90,20.61 C56.14,20.59 57.09,19.92 57.90,19.04 C58.21,18.71 58.47,18.31 58.76,17.94 C58.83,16.97 59.11,16.02 59.23,15.06 C59.34,14.16 59.44,13.25 59.50,12.34 C59.62,10.50 59.58,8.64 59.38,6.80 C59.29,6.01 59.18,5.21 59.01,4.43 L58.92,4.08 C58.82,3.60 58.75,3.16 58.17,3.21 C56.87,3.32 55.42,4.11 54.29,4.71 C49.91,7.02 46.72,10.59 44.36,14.79 C44.51,14.86 44.65,14.96 44.78,15.09 C45.05,15.34 45.18,15.79 45.06,16.15 C44.59,17.52 42.92,17.56 41.75,18.10 C40.46,18.69 39.26,19.44 38.12,20.27 C35.88,21.89 33.82,23.80 31.86,25.75 C28.77,28.83 25.90,32.10 23.14,35.46 L22.55,36.77 C21.96,38.09 21.39,39.41 20.91,40.78 C20.13,43.01 19.49,45.29 18.99,47.59 C18.49,49.92 18.16,52.29 18.03,54.66 C17.92,56.78 18.20,58.89 18.19,61.00 C18.38,61.35 18.45,61.75 18.36,62.15 C18.95,62.32 19.53,62.57 20.06,62.93 C20.19,63.01 20.11,63.22 19.96,63.18 C19.27,63.01 18.59,62.98 17.92,63.04 C17.57,63.48 16.99,63.76 16.43,63.74 L16.20,63.74 L16.20,63.74 C16.02,63.74 15.85,63.71 15.68,63.66 C14.74,64.09 13.88,64.72 13.14,65.47 C11.38,67.26 10.53,69.61 10.66,72.12 C10.78,74.60 12.10,76.84 14.28,78.03 C15.26,78.56 16.34,78.84 17.45,78.86 C18.51,78.88 19.91,78.55 20.79,79.25 C20.89,79.32 20.95,79.43 20.99,79.54 C21.05,79.29 21.12,79.03 21.19,78.77 C21.24,78.58 21.57,78.55 21.61,78.77 L21.66,79.06 C22.39,83.19 22.65,87.46 25.57,90.77 C26.93,92.32 28.57,93.71 30.26,94.90 L30.54,95.09 C31.26,95.59 32.04,96.08 32.90,96.26 C33.85,96.46 34.64,96.40 35.52,96.93 C35.93,97.17 36.19,97.72 36.03,98.19 C35.06,101.22 31.22,99.86 29.29,98.66 C28.21,97.99 27.16,97.19 26.19,96.30 C25.34,96.82 24.34,97.15 23.47,97.28 C22.14,97.48 20.72,97.20 19.65,96.34 C18.53,95.43 18.14,94.10 18.33,92.69 C18.43,91.99 18.61,91.31 18.81,90.63 L18.97,90.07 C19.21,89.27 19.39,88.43 19.87,87.73 C20.11,87.37 20.68,87.40 20.80,87.85 C21.08,88.87 20.96,90.01 20.89,91.07 L20.87,91.32 C20.82,92.11 20.49,93.34 21.18,93.93 C22.02,94.64 22.95,94.31 23.84,93.82 C23.75,93.71 23.66,93.60 23.57,93.49 C20.67,89.80 19.95,85.21 20.75,80.73 C20.00,81.71 18.05,81.92 17.01,81.85 C15.39,81.73 13.79,81.23 12.41,80.36 C9.51,78.55 7.88,75.36 7.81,71.96 C7.74,68.67 9.21,65.34 11.93,63.42 C12.65,62.91 13.45,62.52 14.28,62.26 C13.88,60.65 13.83,58.87 13.92,57.13 C12.95,57.26 11.90,57.09 11.02,56.79 L10.88,56.74 C9.53,56.26 7.81,55.28 7.55,53.76 C7.24,51.89 9.55,50.81 10.89,50.06 C11.52,49.71 12.16,49.39 12.82,49.12 L13.03,49.04 C13.60,48.82 14.28,48.40 14.86,48.73 C14.90,48.75 14.91,48.80 14.90,48.84 C14.79,49.66 13.46,50.35 12.87,50.86 C12.41,51.25 11.97,51.66 11.55,52.09 C11.28,52.37 10.87,53.07 10.51,53.27 C10.68,53.36 10.87,53.57 11.01,53.65 C11.39,53.87 11.80,54.03 12.23,54.14 C12.87,54.29 13.52,54.22 14.16,54.21 C14.42,51.65 14.90,49.14 15.66,46.68 C16.94,42.55 19.04,38.20 22.04,34.93 C24.23,30.81 27.07,27.05 30.31,23.69 C32.39,21.53 34.59,19.44 37.02,17.69 C38.10,16.91 39.24,16.21 40.44,15.64 L40.84,15.46 C41.51,15.15 42.33,14.75 43.10,14.63 C43.60,12.64 44.50,10.74 45.58,9.01 C47.08,6.63 49.05,4.62 51.35,3.02 C52.48,2.23 53.69,1.54 54.96,0.99 Z M15.03,70.39 C16.96,69.09 19.33,68.58 21.63,68.78 C22.78,68.87 23.91,69.14 24.98,69.55 L25.43,69.73 C26.45,70.14 27.55,70.64 27.59,71.88 C27.60,72.37 27.24,72.76 26.80,72.91 C25.74,73.29 24.87,72.40 23.99,71.92 C23.10,71.45 22.16,71.13 21.18,70.88 C21.09,70.85 21.00,70.83 20.90,70.81 C20.95,70.91 20.98,71.02 20.97,71.14 C20.95,71.43 20.86,71.65 20.78,71.92 C20.76,72.00 20.70,72.51 20.64,72.57 C20.66,72.74 20.66,72.90 20.66,73.07 C20.68,73.58 20.62,74.01 20.36,74.46 C19.71,75.59 17.86,75.69 17.24,74.46 C16.62,73.24 17.10,72.04 18.04,71.16 C18.30,70.92 18.64,70.67 19.02,70.50 C17.71,70.38 16.39,70.44 15.08,70.61 C14.96,70.63 14.94,70.45 15.03,70.39 Z M15.14,29.25 C17.79,28.80 20.56,28.71 23.23,28.98 C23.38,28.99 23.43,29.21 23.27,29.25 C19.20,30.14 14.99,30.44 11.36,32.68 L11.19,32.79 C10.84,33.01 10.02,33.43 9.84,33.82 C9.64,34.29 10.19,34.88 10.45,35.22 C11.02,35.97 11.74,36.63 12.53,37.15 C13.36,37.71 14.26,38.13 15.23,38.40 C15.68,38.53 16.16,38.60 16.61,38.74 C17.13,38.91 17.30,39.17 17.69,39.52 C18.14,39.92 17.99,40.68 17.50,40.96 L17.36,41.04 C16.73,41.41 16.37,41.52 15.56,41.37 C14.93,41.26 14.32,41.04 13.73,40.79 C12.64,40.34 11.64,39.75 10.72,39.01 L10.58,38.90 C8.94,37.54 6.17,34.57 8.00,32.41 C9.61,30.51 12.79,29.65 15.14,29.25 Z M21.67,8.70 C24.21,5.71 27.79,7.75 30.34,9.54 C33.09,11.47 35.47,13.75 37.39,16.50 C37.51,16.67 37.28,16.88 37.11,16.78 C34.97,15.49 32.82,14.26 30.63,13.07 C29.73,12.58 28.83,12.10 27.91,11.65 L27.42,11.42 C26.65,11.04 25.54,10.34 24.72,10.80 C22.96,11.77 24.05,14.96 24.41,16.50 L24.45,16.65 L25.56,21.74 L25.56,21.74 L26.06,24.02 L26.06,24.02 C26.24,24.17 26.39,24.37 26.50,24.62 C26.78,25.30 26.55,26.22 25.86,26.57 C23.81,27.63 23.12,25.57 22.73,24.02 C22.42,22.77 22.10,21.51 21.79,20.26 L21.26,18.19 C20.46,15.05 19.32,11.46 21.67,8.70 Z" id="🖍-Ink" fill="#000000"></path></g><g id="face/Smiling" transform="translate(112.18, 77.35)" fill="#000000" fill-rule="evenodd"><path d="M30.97,50.92 C29.55,50.34 28.28,49.37 27.36,48.14 C27.03,47.71 26.95,47.26 27.02,46.84 C27.09,46.37 27.37,45.95 27.74,45.67 C28.12,45.38 28.59,45.24 29.05,45.32 C29.45,45.38 29.84,45.59 30.15,46.05 L30.22,46.14 C30.77,46.88 31.49,47.49 32.31,47.89 C33.09,48.27 33.97,48.44 34.89,48.34 C36.62,48.14 37.82,47.20 39.09,45.93 C39.25,45.77 39.41,45.60 39.57,45.43 C39.67,45.28 39.81,45.18 39.96,45.13 C40.13,45.07 40.33,45.07 40.51,45.14 C40.68,45.20 40.83,45.31 40.93,45.46 C41.03,45.60 41.09,45.78 41.07,45.98 C40.95,47.31 40.26,48.49 39.28,49.41 C38.19,50.44 36.74,51.16 35.38,51.41 C33.88,51.68 32.35,51.48 30.97,50.92 L30.97,50.92 Z M36.09,30.51 C37.68,31.48 40.11,33.74 38.40,36.15 C36.38,38.27 33.47,35.84 32.04,34.74 C30.71,33.89 29.21,36.08 30.45,37.07 C40.80,44.74 45.01,30.77 36.89,29.37 C36.00,29.22 35.67,30.21 36.09,30.51 Z M17.53,21.59 C17.70,19.40 21.04,18.90 21.37,21.07 C21.66,23.01 21.31,24.79 20.44,26.54 C19.61,28.21 17.51,27.43 17.35,25.91 C17.14,23.87 17.42,22.95 17.53,21.59 Z M42.89,20.62 C43.36,20.01 44.03,19.60 44.83,19.83 C47.34,20.56 46.60,24.13 45.72,25.87 C45.24,26.81 43.69,27.05 42.99,26.22 C41.85,24.86 41.31,22.16 42.76,20.83 C42.80,20.76 42.84,20.69 42.89,20.62 Z M20.41,12.01 L20.80,11.94 C22.03,11.73 23.56,11.53 24.42,12.51 C24.88,13.04 25.04,14.01 24.42,14.51 C23.33,15.39 22.13,15.05 20.83,15.12 C19.75,15.19 18.72,15.36 17.68,15.66 C15.41,16.31 13.56,17.49 11.62,18.80 C11.37,18.97 11.11,18.64 11.23,18.40 C12.35,16.21 14.52,14.41 16.69,13.31 C17.85,12.72 19.12,12.23 20.41,12.01 Z M40.60,11.03 L40.91,11.09 C44.21,11.78 48.50,13.16 50.07,16.41 C50.13,16.87 50.06,16.96 50.01,17.03 L50.00,17.05 C49.95,17.11 49.92,17.18 49.72,17.24 C49.67,17.23 49.61,17.22 49.55,17.20 C48.84,17.01 48.27,16.75 47.72,16.49 L47.13,16.19 C46.43,15.85 45.74,15.53 45.00,15.29 C43.42,14.77 41.80,14.41 40.15,14.22 C39.80,14.17 39.45,14.05 39.18,13.85 C38.92,13.65 38.73,13.38 38.64,13.02 C38.52,12.55 38.56,12.20 38.81,11.78 C38.99,11.46 39.26,11.24 39.57,11.12 C39.89,10.99 40.25,10.96 40.60,11.03 Z" id="🖍-Ink"></path></g><g id="facial-hair/*-None" transform="translate(104.58, 109.48)"></g><g id="accessories/Sunglasses" transform="translate(88.52, 88.98)" fill="#000000" fill-rule="evenodd"><path d="M71.37,3.17 C76.33,3.17 79.16,4.24 80.19,4.32 L80.22,4.32 C80.66,4.35 81.04,4.39 81.45,4.54 C82.94,5.12 83.19,6.68 82.31,7.67 C82.25,9.71 82.52,12.10 82.06,14.15 C81.49,22.79 77.43,24.25 75.12,24.78 C73.96,25.04 72.59,25.15 71.36,24.87 C69.26,24.79 67.18,24.13 65.41,22.99 C62.93,21.39 61.10,18.94 60.50,16.03 C60.22,14.64 60.09,13.19 60.24,11.78 L60.26,11.59 C59.46,11.20 58.53,11.13 57.57,11.10 C57.11,11.08 56.65,11.07 56.22,11.09 C55.79,11.13 55.36,11.20 54.94,11.29 C54.47,11.43 54.03,11.66 53.63,12.02 L53.60,12.56 C53.52,13.90 53.35,15.24 53.08,16.55 C52.68,18.48 52.03,20.33 50.67,21.71 C50.20,22.40 49.63,23.01 48.93,23.55 C46.41,25.50 42.98,26.21 39.82,25.94 C33.43,25.40 29.73,20.32 28.88,18.14 L28.83,18.01 C28.21,16.40 27.72,14.30 25.78,13.96 L25.36,13.88 C24.48,13.72 23.66,13.48 23.14,12.62 C22.91,12.24 22.79,11.82 22.76,11.39 C22.46,11.41 22.15,11.43 21.85,11.45 C19.44,11.96 4.99,12.40 3.83,12.40 C3.83,12.40 1.61,13.33 0.68,12.61 C0.03,12.10 -0.19,11.43 0.17,10.67 C0.71,9.53 3.20,8.84 4.30,8.62 C4.30,8.62 22.13,8.77 23.41,8.53 C24.20,7.71 25.62,7.82 26.81,7.69 C27.79,6.99 29.17,6.52 30.25,6.21 C30.47,6.12 30.69,6.04 30.90,5.97 C32.89,5.26 34.96,4.88 37.06,4.68 C39.23,4.48 41.40,4.57 43.55,4.86 C44.46,4.99 45.36,5.15 46.25,5.35 C47.85,5.56 49.43,5.91 51.03,6.32 L51.35,6.41 C53.03,6.85 54.76,7.23 56.51,6.93 C57.92,6.69 59.29,6.14 60.60,5.55 L60.77,5.47 C63.64,4.16 68.13,3.17 71.37,3.17 Z M46.07,7.97 C45.01,7.74 44.56,9.38 45.62,9.61 C46.38,9.78 47.02,10.16 47.45,10.80 L47.49,10.87 C48.07,11.79 49.54,10.94 48.95,10.01 C48.30,8.97 47.28,8.24 46.07,7.97 Z M77.15,6.96 C76.78,6.69 76.21,6.89 75.99,7.26 C75.75,7.67 75.91,8.13 76.26,8.40 L76.30,8.42 C76.62,8.65 76.93,9.06 76.97,9.47 L76.97,9.52 C77.01,10.61 78.71,10.62 78.66,9.52 C78.62,8.45 78.00,7.56 77.15,6.96 Z" id="🖍-Ink"></path></g></g></g></g></g></svg>