<?xml version="1.0" encoding="UTF-8"?><svg width="240px" height="324px" viewBox="0 0 240 324" version="1.1" xmlns="http://www.w3.org/2000/svg" xmlns:xlink="http://www.w3.org/1999/xlink"><title>peep-87</title><desc>Created with Sketch.</desc><g id="Introduction" stroke="none" stroke-width="1" fill="none" fill-rule="evenodd"><g id="variations" transform="translate(-3006.00, -758.00)"><g id="images" transform="translate(126.00, 110.00)"><g id="a-person/bust" transform="translate(2880.00, 648.00)"><g id="body/Dress" transform="translate(31.06, 135.05)" fill-rule="evenodd"><path d="M161.74,136.42 C161.23,131.66 160.91,126.87 160.73,122.08 C160.55,117.30 160.79,112.46 160.89,107.68 C161.10,97.95 161.45,88.20 160.67,78.49 C159.94,69.31 158.26,60.19 155.61,51.37 C154.32,47.07 152.96,42.61 150.84,38.64 C148.70,34.65 145.32,31.99 141.60,29.55 C137.65,26.96 133.73,24.31 129.79,21.69 C126.48,19.50 120.53,16.94 117.82,14.00 C114.96,10.91 114.43,3.24 112.52,-0.42 C110.67,-3.99 105.43,-6.32 101.40,-6.32 C94.72,-6.32 89.65,-6.66 84.16,-0.48 C81.42,2.61 83.60,5.72 80.73,8.68 C78.09,11.41 71.34,14.20 67.93,15.78 C63.85,17.67 59.68,19.34 55.44,20.83 C51.11,22.35 46.68,23.48 42.33,24.91 C38.16,26.28 32.71,31.94 29.48,34.94 C26.47,37.72 25.72,37.41 23.43,40.79 C18.41,48.21 13.39,55.72 9.39,63.75 C7.40,67.75 5.47,71.96 4.75,76.41 C3.98,81.15 4.74,85.73 5.99,90.32 C7.26,94.99 11.30,99.44 12.62,104.10 C13.22,106.24 11.14,108.59 12.10,110.61 C12.58,111.62 13.18,112.52 13.87,113.40 C14.39,114.08 16.46,113.93 16.72,114.76 C16.99,115.60 15.50,117.34 15.48,118.21 C15.45,119.45 15.40,120.69 15.36,121.93 L15.12,129.28 C14.96,134.10 14.80,138.93 14.64,143.75 C14.59,145.33 14.51,146.87 14.89,148.36 C14.76,148.23 14.63,148.10 14.51,147.94 C14.16,147.49 13.43,147.87 13.72,148.40 C14.21,149.29 14.92,149.91 15.75,150.35 C16.71,151.77 162.57,154.95 163.29,150.79 C163.69,148.46 162.96,145.97 162.67,143.65 C162.36,141.24 162.00,138.84 161.74,136.42 Z" id="🎨-Background" fill="#FFFFFF"></path><path d="M13.57,76.41 C13.93,75.39 15.56,75.83 15.20,76.86 C13.35,82.16 14.66,87.92 16.66,92.97 C17.06,93.98 15.42,94.42 15.03,93.42 C12.93,88.10 11.63,81.97 13.57,76.41 M25.96,106.65 C31.17,107.38 36.38,107.84 41.63,108.20 C41.86,108.22 42.06,108.18 42.24,108.11 C42.08,110.51 41.96,112.92 41.86,115.32 C40.43,115.28 38.97,115.38 37.55,115.34 C35.70,115.29 33.84,115.19 32.00,115.05 C28.42,114.78 24.84,114.35 21.31,113.75 C19.98,113.53 18.30,113.40 16.80,112.96 C15.37,112.54 14.11,111.85 13.44,110.55 C12.87,109.46 12.77,108.11 12.77,106.89 C12.77,106.06 12.91,105.21 13.00,104.36 C13.11,104.29 13.21,104.20 13.28,104.10 C14.86,104.59 16.49,104.94 18.08,105.28 C20.68,105.83 23.32,106.28 25.96,106.65 M23.02,87.11 C23.05,88.72 23.49,90.19 24.36,91.55 C24.95,92.47 23.49,93.32 22.90,92.41 C21.88,90.80 21.36,89.01 21.33,87.11 C21.31,86.02 23.00,86.02 23.02,87.11 M156.57,104.73 C157.27,104.77 157.98,104.80 158.69,104.83 C159.31,105.37 160.18,105.64 160.97,105.47 C160.99,105.54 161.02,105.62 161.04,105.70 C161.18,106.25 161.25,106.83 161.33,107.38 C161.41,107.93 161.47,108.48 161.51,109.03 C161.53,109.31 161.67,109.93 161.50,110.17 C161.35,110.39 161.01,110.37 160.78,110.40 C160.15,110.47 159.52,110.50 158.89,110.55 C157.70,110.65 156.51,110.76 155.32,110.86 C154.16,110.96 152.88,110.93 151.74,111.24 C151.55,108.95 151.37,106.67 151.21,104.38 C152.97,104.64 154.81,104.63 156.57,104.73 M8.65,100.94 C9.36,102.31 10.02,103.66 11.38,104.49 C11.55,104.59 11.75,104.65 11.96,104.66 C11.80,105.32 11.71,105.98 11.62,106.60 C11.44,107.96 11.40,109.37 11.74,110.71 C12.07,112.01 12.62,113.18 13.70,114.01 C14.20,114.40 14.74,114.69 15.32,114.93 C15.22,115.20 15.16,115.47 15.19,115.77 C15.06,116.46 14.97,117.17 14.87,117.84 C14.65,119.34 14.43,120.83 14.26,122.34 C13.92,125.33 13.65,128.32 13.42,131.33 C13.20,134.32 13.03,137.32 12.90,140.32 C12.83,141.86 12.77,143.39 12.71,144.93 C12.65,146.51 12.40,148.12 13.10,149.59 C13.66,150.77 15.56,150.70 16.14,149.59 C16.88,148.17 16.66,146.48 16.68,144.93 C16.70,143.46 16.73,142.00 16.76,140.53 C16.82,137.53 16.91,134.54 16.99,131.54 C17.06,128.61 17.15,125.68 17.21,122.76 C17.24,121.23 17.24,119.69 17.25,118.16 C17.25,117.31 17.29,116.40 17.22,115.52 C17.75,115.64 18.28,115.75 18.81,115.86 C22.83,116.68 26.89,117.28 30.97,117.65 C33.02,117.84 35.08,117.97 37.14,118.04 C38.65,118.10 40.22,118.21 41.75,118.15 C41.63,121.82 41.58,125.49 41.58,129.16 C41.59,131.81 41.62,134.46 41.69,137.10 C41.72,138.50 41.75,139.89 41.80,141.28 C41.82,141.91 41.82,142.54 41.86,143.16 C41.87,143.36 41.90,143.55 41.93,143.73 C41.79,144.13 41.68,144.52 41.58,144.88 C41.12,146.66 41.12,148.37 41.33,150.17 C41.50,151.71 42.79,153.13 44.50,152.59 C44.78,152.51 45.05,152.41 45.33,152.32 C47.84,152.61 50.36,152.67 52.91,152.72 C56.63,152.79 60.35,152.82 64.07,152.84 C71.37,152.87 78.68,152.89 85.98,152.91 C100.66,152.96 115.33,153.00 130.01,153.04 C134.08,153.05 138.16,153.06 142.23,153.07 C144.34,153.08 146.44,153.08 148.55,153.16 C149.53,153.20 150.52,153.25 151.50,153.27 C152.64,153.29 153.65,152.96 154.73,152.66 C155.35,152.49 155.59,151.87 155.46,151.35 C156.45,151.59 157.64,151.09 157.97,149.98 C158.22,149.17 158.13,148.30 157.76,147.55 L157.76,147.55 C157.06,143.09 156.16,138.66 155.46,134.20 C154.69,129.31 153.95,124.42 153.29,119.52 C152.80,115.81 152.40,118.44 152.05,114.72 C153.57,114.84 155.29,114.37 156.79,114.18 C157.87,114.04 158.96,113.93 160.04,113.78 C159.96,114.87 159.98,115.98 159.95,117.03 C159.90,119.10 159.92,121.17 159.98,123.25 C160.08,127.26 160.30,124.93 160.66,128.92 C161.03,132.94 161.48,136.95 162.02,140.95 C162.30,143.01 162.60,145.07 162.91,147.13 C163.06,148.09 163.21,149.04 163.36,150.00 C163.55,151.13 163.61,152.21 164.45,153.05 C165.10,153.70 166.41,153.64 166.84,152.75 C167.38,151.61 167.14,150.64 166.93,149.45 C166.77,148.49 166.62,147.53 166.46,146.58 C166.13,144.52 165.82,142.47 165.53,140.41 C164.96,136.45 164.42,132.48 163.95,128.51 C163.47,124.50 162.97,126.84 162.49,122.84 C162.26,120.82 162.02,118.80 161.74,116.79 C161.60,115.75 161.51,114.65 161.32,113.58 C161.38,113.57 161.44,113.56 161.50,113.55 C162.78,113.31 163.88,112.59 164.20,111.27 C164.51,110.00 164.14,108.54 163.88,107.30 C163.66,106.24 163.46,104.89 162.78,103.99 C165.18,100.93 166.74,97.08 167.74,93.38 C168.82,89.35 169.28,85.14 169.37,80.98 C169.48,76.15 169.12,71.35 168.29,66.63 C168.27,65.63 168.23,64.64 168.15,63.64 C167.43,53.84 164.38,42.24 154.70,37.66 C154.67,37.65 154.63,37.63 154.59,37.61 C153.83,36.70 152.88,35.89 152.12,35.13 C150.76,33.77 149.35,32.48 147.85,31.29 C144.88,28.93 141.62,27.04 138.23,25.34 C134.81,23.63 131.33,22.01 127.99,20.14 C125.07,18.50 122.45,16.53 119.96,14.31 C117.16,11.81 115.16,8.44 114.38,4.76 C114.34,4.57 114.06,4.62 114.05,4.80 C113.85,11.55 118.40,17.51 123.64,21.28 C129.90,25.78 137.46,27.91 143.81,32.28 C145.39,33.37 146.86,34.59 148.27,35.89 C146.12,35.67 143.93,35.81 141.91,36.40 C141.11,36.36 140.31,36.34 139.52,36.30 C137.70,36.21 135.87,36.13 134.05,36.05 C130.33,35.88 126.62,35.73 122.90,35.60 C115.60,35.34 108.31,35.15 101.01,35.02 C86.34,34.76 71.66,34.71 57.00,35.13 C53.02,35.25 32.12,34.46 30.18,34.68 C33.03,32.22 36.15,30.20 39.58,28.55 C43.88,26.48 48.32,25.11 52.90,23.85 C62.35,21.25 72.16,18.75 79.72,12.16 C81.60,10.53 83.26,8.64 84.63,6.56 C85.94,4.57 87.39,2.02 87.42,-0.41 C87.45,-2.14 85.05,-2.76 84.20,-1.29 C83.67,-0.37 83.40,0.63 82.97,1.59 C82.54,2.54 82.03,3.46 81.46,4.34 C80.34,6.06 78.96,7.60 77.45,8.99 C74.23,11.95 70.34,14.12 66.31,15.77 C57.15,19.49 47.14,21.06 38.47,25.98 C34.68,28.13 31.05,31.09 28.77,34.87 C28.40,34.93 28.03,35.00 27.67,35.07 C27.94,34.73 28.21,34.39 28.49,34.04 C28.67,33.82 28.39,33.52 28.17,33.72 C23.86,37.56 19.89,41.70 16.29,46.22 C12.84,50.55 9.63,55.08 7.36,60.14 C3.27,69.24 2.37,79.64 4.48,89.37 C5.06,92.02 5.87,94.62 6.90,97.13 C7.43,98.42 8.01,99.70 8.65,100.94" id="🖍-Ink" fill="#000000"></path></g><g id="head/Medium-Bangs-3" transform="translate(78.59, 38.04)" fill-rule="evenodd"><path d="M54.21,8.24 C66.20,8.24 81.23,21.93 85.62,27.75 C89.32,32.65 88.80,57.88 88.80,72.85 C88.80,75.98 87.38,81.90 86.87,84.90 C84.99,95.87 76.79,105.07 60.57,105.07 C47.35,105.07 37.19,100.89 27.36,90.18 C25.11,87.74 14.16,96.48 11.92,93.33 C6.07,93.33 1.18,38.64 12.66,22.23 C24.15,5.83 42.21,8.24 54.21,8.24 Z" id="🎨-Background" fill="#FFFFFF"></path><path d="M18.15,12.09 C25.08,5.78 34.32,2.75 43.63,2.97 C48.46,3.09 53.27,4.01 57.83,5.58 C60.10,6.37 62.31,7.40 64.42,8.57 C65.18,8.99 65.88,9.48 66.56,10.00 L66.73,10.13 L66.73,10.13 C68.54,10.78 70.16,11.95 71.62,13.32 C74.56,13.09 77.52,13.35 80.37,14.26 C84.32,15.52 87.98,17.83 90.55,21.12 C93.55,24.95 94.54,29.59 94.19,34.38 L94.12,35.19 C93.77,39.43 93.14,44.87 89.67,47.65 C89.41,47.86 89.11,48.02 88.81,48.12 C91.05,51.95 92.89,56.21 93.98,60.51 C98.18,76.93 94.95,94.05 89.91,109.88 C89.50,111.18 87.53,112.05 86.52,110.77 C84.73,108.50 82.13,106.76 79.20,106.43 C77.39,106.23 75.60,106.60 73.89,105.78 C73.22,105.45 72.57,104.92 72.11,104.28 C69.23,105.37 66.12,105.89 63.04,105.76 C57.99,105.56 52.59,103.81 49.12,99.97 C48.56,99.35 48.42,98.66 48.55,98.04 C48.98,97.88 49.43,97.76 49.89,97.69 C54.30,100.29 59.16,102.03 64.38,102.14 C67.39,102.20 70.34,101.78 72.78,99.89 C73.31,99.48 73.80,99.03 74.25,98.55 C79.36,95.26 82.97,89.67 84.68,83.68 C86.28,78.09 86.08,72.28 85.53,66.55 L85.24,63.53 C84.82,59.09 84.43,54.65 84.32,50.19 L84.35,50.19 L84.35,50.19 C85.43,50.12 85.44,48.43 84.35,48.50 C81.54,48.68 78.75,48.22 75.94,48.42 C75.92,47.09 75.82,45.77 75.43,44.49 C75.21,43.76 73.94,43.62 73.80,44.49 C73.62,45.66 73.56,46.83 73.54,48.00 C69.34,47.95 65.14,47.59 60.95,47.74 C60.17,46.91 59.92,45.45 59.56,44.43 C59.51,44.28 59.46,44.13 59.40,43.98 C59.08,45.44 58.63,46.86 58.04,48.26 L57.01,48.26 C51.17,48.29 45.20,48.46 39.50,49.68 C39.10,49.37 38.87,48.84 38.80,48.36 C38.39,45.22 37.80,42.16 36.75,39.17 L36.60,38.75 C36.59,38.71 36.58,38.68 36.56,38.64 C35.79,39.88 34.87,41.04 33.87,42.12 C33.28,42.76 32.66,43.37 32.02,43.96 C31.40,44.65 30.76,45.33 30.14,46.01 C30.17,46.14 30.19,46.27 30.21,46.40 C30.39,47.83 30.41,49.28 30.28,50.71 C30.02,53.31 29.29,55.81 28.12,58.12 L28.08,58.35 C27.90,59.44 27.65,60.56 27.05,61.37 C27.79,62.20 28.36,63.19 28.69,64.30 C28.99,65.28 27.63,66.13 26.93,65.32 C26.37,64.69 25.75,64.16 25.07,63.74 C25.02,63.80 24.95,63.82 24.86,63.78 C22.96,62.72 19.73,63.04 17.84,64.03 C15.48,65.27 14.56,67.80 14.82,70.37 C15.07,72.82 16.14,75.69 18.22,76.95 C19.18,77.53 19.92,77.58 20.94,77.30 C21.26,77.21 21.66,76.94 21.83,76.81 L22.00,76.67 C22.67,76.14 23.29,75.78 24.07,75.77 C24.88,75.52 25.68,75.87 25.99,76.71 L26.01,76.76 C26.15,77.19 26.41,77.73 26.36,78.39 C26.30,79.09 25.98,79.73 25.50,80.24 C25.41,80.33 25.33,80.42 25.24,80.50 C33.50,89.45 34.56,103.39 30.32,114.56 C30.14,115.05 29.94,115.54 29.74,116.02 C29.03,117.66 26.30,117.15 25.96,115.52 C25.85,115.03 25.74,114.55 25.61,114.07 C25.38,113.18 25.12,112.29 24.83,111.42 L24.71,111.10 C24.46,110.38 24.23,109.66 23.97,108.94 L23.95,108.86 C23.94,108.82 23.93,108.79 23.92,108.74 L23.49,109.68 L23.49,109.68 L22.18,112.50 C21.57,113.82 19.64,113.11 19.56,111.84 L19.56,111.79 C19.56,111.56 19.55,111.33 19.53,111.10 C19.44,109.37 19.14,107.69 18.67,106.05 L18.50,106.26 C15.96,109.40 12.97,112.35 8.88,113.08 C7.85,113.26 6.69,112.19 7.40,111.15 C7.69,110.72 7.97,110.28 8.23,109.83 C8.00,109.73 7.79,109.61 7.59,109.50 C6.03,108.63 4.74,107.38 3.67,105.97 C1.40,102.99 0.59,99.22 0.39,95.54 C0.18,91.65 0.53,87.55 1.59,83.80 C2.05,82.17 2.67,80.61 3.39,79.10 C3.34,78.97 3.29,78.83 3.24,78.70 C2.47,76.53 1.83,74.31 1.30,72.07 C0.23,67.54 -0.35,62.87 -0.41,58.22 C-0.54,49.89 0.90,41.42 3.92,33.65 C7.05,25.63 11.75,17.91 18.15,12.09 Z M14.26,84.95 C13.68,84.05 12.25,84.86 12.78,85.77 L12.80,85.81 C13.71,87.24 14.14,88.87 14.66,90.47 C15.00,91.50 16.63,91.06 16.29,90.02 L16.18,89.67 C15.66,88.05 15.18,86.40 14.26,84.95 Z M19.26,67.69 L19.64,67.50 C20.84,66.93 21.90,66.54 23.32,67.04 C25.22,67.71 27.26,69.84 25.97,71.91 C25.50,72.67 24.66,72.98 23.79,72.80 C22.33,72.50 21.96,71.18 21.22,70.10 L21.09,69.92 C20.64,69.26 20.07,68.36 19.31,68.10 C19.14,68.05 19.07,67.78 19.26,67.69 Z M20.33,23.76 L20.45,23.65 C21.27,22.92 20.07,21.73 19.26,22.45 C15.54,25.74 14.24,30.89 12.31,35.28 C11.88,36.27 13.33,37.13 13.77,36.14 C15.61,31.95 16.84,26.94 20.33,23.76 L20.33,23.76 Z M65.07,22.32 C64.09,21.88 63.24,23.30 64.18,23.76 L64.21,23.78 C67.50,25.26 68.90,28.63 70.24,31.75 C70.66,32.75 72.12,31.89 71.70,30.90 L71.46,30.34 C70.06,27.12 68.43,23.84 65.07,22.32 Z M70.22,20.28 C69.19,19.93 68.75,21.56 69.77,21.92 C72.55,22.89 74.47,24.98 76.08,27.37 C76.68,28.27 78.15,27.42 77.54,26.52 C75.66,23.74 73.44,21.41 70.22,20.28 Z" id="🖍-Ink" fill="#000000"></path></g><g id="face/Smiling" transform="translate(112.18, 77.35)" fill="#000000" fill-rule="evenodd"><path d="M30.97,50.92 C29.55,50.34 28.28,49.37 27.36,48.14 C27.03,47.71 26.95,47.26 27.02,46.84 C27.09,46.37 27.37,45.95 27.74,45.67 C28.12,45.38 28.59,45.24 29.05,45.32 C29.45,45.38 29.84,45.59 30.15,46.05 L30.22,46.14 C30.77,46.88 31.49,47.49 32.31,47.89 C33.09,48.27 33.97,48.44 34.89,48.34 C36.62,48.14 37.82,47.20 39.09,45.93 C39.25,45.77 39.41,45.60 39.57,45.43 C39.67,45.28 39.81,45.18 39.96,45.13 C40.13,45.07 40.33,45.07 40.51,45.14 C40.68,45.20 40.83,45.31 40.93,45.46 C41.03,45.60 41.09,45.78 41.07,45.98 C40.95,47.31 40.26,48.49 39.28,49.41 C38.19,50.44 36.74,51.16 35.38,51.41 C33.88,51.68 32.35,51.48 30.97,50.92 L30.97,50.92 Z M36.09,30.51 C37.68,31.48 40.11,33.74 38.40,36.15 C36.38,38.27 33.47,35.84 32.04,34.74 C30.71,33.89 29.21,36.08 30.45,37.07 C40.80,44.74 45.01,30.77 36.89,29.37 C36.00,29.22 35.67,30.21 36.09,30.51 Z M17.53,21.59 C17.70,19.40 21.04,18.90 21.37,21.07 C21.66,23.01 21.31,24.79 20.44,26.54 C19.61,28.21 17.51,27.43 17.35,25.91 C17.14,23.87 17.42,22.95 17.53,21.59 Z M42.89,20.62 C43.36,20.01 44.03,19.60 44.83,19.83 C47.34,20.56 46.60,24.13 45.72,25.87 C45.24,26.81 43.69,27.05 42.99,26.22 C41.85,24.86 41.31,22.16 42.76,20.83 C42.80,20.76 42.84,20.69 42.89,20.62 Z M20.41,12.01 L20.80,11.94 C22.03,11.73 23.56,11.53 24.42,12.51 C24.88,13.04 25.04,14.01 24.42,14.51 C23.33,15.39 22.13,15.05 20.83,15.12 C19.75,15.19 18.72,15.36 17.68,15.66 C15.41,16.31 13.56,17.49 11.62,18.80 C11.37,18.97 11.11,18.64 11.23,18.40 C12.35,16.21 14.52,14.41 16.69,13.31 C17.85,12.72 19.12,12.23 20.41,12.01 Z M40.60,11.03 L40.91,11.09 C44.21,11.78 48.50,13.16 50.07,16.41 C50.13,16.87 50.06,16.96 50.01,17.03 L50.00,17.05 C49.95,17.11 49.92,17.18 49.72,17.24 C49.67,17.23 49.61,17.22 49.55,17.20 C48.84,17.01 48.27,16.75 47.72,16.49 L47.13,16.19 C46.43,15.85 45.74,15.53 45.00,15.29 C43.42,14.77 41.80,14.41 40.15,14.22 C39.80,14.17 39.45,14.05 39.18,13.85 C38.92,13.65 38.73,13.38 38.64,13.02 C38.52,12.55 38.56,12.20 38.81,11.78 C38.99,11.46 39.26,11.24 39.57,11.12 C39.89,10.99 40.25,10.96 40.60,11.03 Z" id="🖍-Ink"></path></g><g id="facial-hair/*-None" transform="translate(104.58, 109.48)"></g><g id="accessories/Glasses-3" transform="translate(88.52, 88.98)" fill="#000000" fill-rule="evenodd"><path d="M77.56,20.78 C76.14,22.69 73.50,23.30 71.07,23.09 C65.83,22.58 64.17,16.62 64.00,11.99 C67.52,12.98 63.71,5.97 75.73,5.20 C79.97,4.85 78.80,7.41 80.67,9.28 C80.64,13.21 79.98,17.47 77.56,20.78 M52.58,16.27 C49.48,30.78 32.52,27.33 30.74,14.25 C32.38,13.08 31.95,10.22 33.99,9.18 C37.23,7.11 41.28,7.19 44.96,7.24 C49.66,7.57 51.00,9.52 53.42,11.64 C53.30,13.06 52.97,14.74 52.58,16.27 M84.28,2.80 C84.11,2.77 83.93,2.74 83.76,2.71 C83.62,2.64 83.46,2.58 83.28,2.54 C82.86,2.43 82.43,2.36 82.01,2.32 C75.99,0.97 62.04,2.89 61.47,8.04 C59.55,8.68 57.89,8.11 55.66,8.16 C53.97,1.08 24.69,2.08 23.28,6.35 C23.28,6.35 23.27,6.35 23.27,6.35 C21.91,5.93 19.92,6.03 18.37,5.96 C15.06,5.89 11.75,6.19 8.52,6.89 C2.46,7.85 -5.81,8.98 -1.60,16.54 C-1.59,16.54 -1.59,16.55 -1.59,16.55 L-1.59,16.55 C-0.87,17.29 0.37,16.69 0.41,15.68 C-1.00,12.10 2.19,11.67 4.66,10.64 C10.78,8.44 17.02,8.13 23.35,8.81 C23.83,9.37 24.55,9.86 25.32,10.12 C29.55,10.82 27.32,13.97 30.00,14.42 C29.51,25.38 42.80,31.36 50.51,24.16 C53.58,21.15 54.32,16.69 55.03,12.67 C55.41,12.59 55.65,12.38 55.79,12.11 C56.69,11.20 57.26,10.37 59.06,10.12 C60.85,9.87 62.23,10.37 62.42,10.52 C62.47,10.62 62.52,10.71 62.58,10.81 C62.66,10.95 62.77,11.06 62.90,11.15 C61.12,22.06 69.59,28.96 78.14,23.30 C81.85,19.81 82.64,14.46 82.79,9.68 C83.30,9.38 83.62,8.79 83.44,8.05 C83.20,7.03 83.76,6.14 84.66,5.70 C85.83,5.12 85.62,3.02 84.28,2.80" id="🖍-Ink"></path></g></g></g></g></g></svg>