<?xml version="1.0" encoding="UTF-8"?><svg width="240px" height="324px" viewBox="0 0 240 324" version="1.1" xmlns="http://www.w3.org/2000/svg" xmlns:xlink="http://www.w3.org/1999/xlink"><title>peep-3</title><desc>Created with Sketch.</desc><g id="Introduction" stroke="none" stroke-width="1" fill="none" fill-rule="evenodd"><g id="variations" transform="translate(-126.00, -758.00)"><g id="images" transform="translate(126.00, 110.00)"><g id="a-person/bust" transform="translate(0.00, 648.00)"><g id="body/Striped-Pocket-Tee" transform="translate(31.06, 135.05)" fill-rule="evenodd"><path d="M86.44,-6.19 C97.78,-7.01 113.32,-4.76 116.60,8.17 C117.61,12.88 119.62,14.94 122.98,18.02 C144.35,45.38 69.81,49.97 65.97,23.30 C57.90,26.24 49.11,26.86 41.04,29.84 C36.65,31.46 32.68,34.01 28.88,36.68 C13.35,47.71 -1.95,59.06 -17.42,70.17 C-11.44,72.92 -0.05,83.45 -4.69,90.53 C-5.77,91.90 -7.38,92.85 -8.79,93.86 L-9.54,94.40 C-11.15,95.55 -13.86,97.51 -15.36,98.58 L-15.63,98.78 C-15.74,98.86 -15.86,98.95 -15.98,99.03 C-5.17,114.83 7.47,129.41 21.49,142.42 C22.69,143.53 22.20,146.02 20.47,146.30 L18.41,146.61 C11.76,147.58 4.99,148.45 -1.71,147.92 C-8.24,147.21 -12.17,141.43 -16.63,137.25 C-25.53,128.14 -33.83,118.43 -41.38,108.16 L-41.53,107.95 C-43.89,104.73 -47.01,101.45 -47.23,97.30 C-47.65,96.05 -46.55,94.27 -45.50,93.42 L-45.14,92.90 C-39.49,84.77 -33.10,76.93 -25.09,71.05 C-25.12,70.17 -24.72,69.25 -23.92,68.67 L9.55,44.44 L9.55,44.44 C18.18,38.50 26.21,31.51 35.57,26.71 C45.14,22.10 55.94,21.92 65.75,18.07 C65.96,15.30 71.78,14.59 71.60,15.02 C77.75,11.31 80.91,6.89 81.89,2.83 C82.87,-1.23 81.65,-4.93 86.44,-6.19 Z M169.20,80.79 C179.55,65.22 189.41,82.45 193.72,92.84 C198.81,107.05 188.27,124.54 181.46,136.79 C178.95,140.20 175.65,147.37 171.23,147.89 C160.10,147.85 148.94,147.06 137.80,146.83 C130.60,145.04 140.70,134.23 147.67,138.18 C149.79,138.97 150.84,141.37 152.90,142.14 C153.65,142.30 153.70,141.96 154.01,141.22 L154.05,141.11 C154.60,139.82 155.13,138.52 155.66,137.22 C160.20,126.04 165.00,114.96 169.77,103.89 C170.78,101.48 169.36,99.50 167.50,98.07 C166.07,96.90 159.96,94.04 165.72,95.30 C163.50,90.15 166.17,84.92 169.20,80.79 Z M143.51,59.47 C144.51,59.34 145.79,60.35 145.94,61.32 C147.21,69.39 145.79,77.36 144.10,85.25 L143.78,86.70 C143.16,89.58 142.46,92.51 140.90,95.03 C139.30,97.61 136.89,99.55 134.12,100.73 C125.25,104.27 114.20,100.77 107.67,94.15 C103.49,88.42 107.17,81.23 107.87,74.96 C107.21,73.26 106.96,71.31 106.58,69.57 L106.53,69.36 L105.04,62.85 C104.71,61.42 105.76,59.46 107.48,59.65 C119.45,61.03 131.55,60.97 143.51,59.47 Z" id="🎨-Background" fill="#FFFFFF"></path><path d="M185.32,78.75 C185.29,78.59 185.48,78.47 185.60,78.59 C187.71,80.62 189.20,83.22 190.83,85.62 C192.39,87.91 194.08,90.12 195.24,92.64 C196.32,94.99 197.01,97.38 197.22,99.96 C197.43,102.52 197.16,105.09 196.70,107.62 C195.82,112.60 193.91,117.31 191.83,121.88 C189.80,126.33 187.50,130.65 185.08,134.90 L184.21,136.41 C183.16,138.25 182.09,140.10 180.94,141.88 C179.51,144.11 178.21,146.40 176.33,148.26 C175.00,149.58 172.48,148.26 173.09,146.37 C173.35,145.55 173.56,144.77 173.97,144.01 C174.28,143.43 174.63,142.87 174.96,142.29 C175.62,141.15 176.27,140.00 176.93,138.85 C178.32,136.44 179.77,134.08 181.15,131.67 C183.52,127.48 185.77,123.21 187.76,118.82 L187.99,118.30 C189.82,114.23 191.55,110.02 192.35,105.62 C193.20,100.99 192.44,96.62 190.79,92.26 C189.94,90.01 188.99,87.81 187.99,85.61 L187.80,85.19 C186.84,83.10 185.82,81.02 185.32,78.75 Z M83.04,-1.42 C83.06,-1.50 83.20,-1.50 83.21,-1.42 C83.80,2.52 82.49,6.68 80.34,9.96 C79.17,11.75 77.73,13.36 76.03,14.66 L75.89,14.76 C74.16,16.06 71.81,17.31 69.65,16.47 C69.59,16.44 69.52,16.41 69.46,16.38 C69.71,16.76 69.93,17.15 70.16,17.55 C70.84,18.72 71.44,19.94 72.11,21.13 C73.29,23.26 74.70,25.16 76.48,26.82 C83.60,33.47 93.60,35.05 102.99,34.97 L103.65,34.97 C107.78,34.94 113.18,35.15 116.36,32.16 C118.07,30.56 119.01,28.28 119.86,26.14 C120.70,24.04 121.27,21.87 121.97,19.74 C120.52,18.74 119.19,17.53 118.14,16.11 C117.05,14.63 116.23,12.96 115.75,11.18 L115.68,10.92 C115.31,9.50 114.94,7.63 115.54,6.29 C115.60,6.13 115.86,6.14 115.93,6.29 C116.25,6.93 116.31,7.65 116.51,8.33 C116.73,9.13 116.99,9.92 117.33,10.68 C117.99,12.14 118.86,13.53 119.90,14.75 C120.76,15.76 121.69,16.68 122.75,17.46 C123.38,16.38 124.84,16.23 126.06,16.59 C127.69,17.07 129.30,17.68 130.88,18.33 L131.19,18.46 C132.75,19.10 134.51,19.70 135.97,20.58 C136.85,21.00 137.70,21.43 138.50,21.80 C142.48,23.67 146.40,25.66 150.30,27.68 L151.14,28.11 C152.77,28.96 154.39,29.82 155.82,31.01 C157.26,32.22 158.39,33.87 159.44,35.42 C161.86,38.97 164.13,42.61 166.52,46.17 C171.34,53.36 176.16,60.54 181.01,67.71 C182.18,69.45 183.51,71.14 184.56,72.95 C185.57,74.68 185.54,76.45 185.34,78.38 L185.31,78.74 C184.93,82.28 184.28,85.68 182.30,88.71 C179.17,93.48 174.25,96.45 169.04,98.50 C169.68,98.97 170.28,99.49 171.03,99.81 C172.20,100.31 173.44,100.57 174.71,100.67 C176.05,100.78 177.57,100.44 178.66,101.36 C179.10,101.72 179.11,102.60 178.66,102.97 C177.61,103.82 176.26,103.58 174.98,103.44 L174.90,103.43 C173.72,103.30 172.55,103.08 171.44,102.64 C171.16,102.53 170.89,102.41 170.62,102.28 C170.63,102.30 170.64,102.33 170.63,102.36 C170.44,103.82 170.03,105.19 169.59,106.58 L169.32,107.47 C168.76,109.27 168.19,111.06 167.61,112.86 C166.50,116.28 165.29,119.67 164.08,123.05 L163.03,125.97 C161.95,128.97 160.86,131.96 159.66,134.90 C158.92,136.72 158.17,138.54 157.42,140.35 C156.70,142.13 156.09,144.04 155.18,145.73 C154.44,147.12 152.41,146.12 152.74,144.70 C153.16,142.82 153.97,140.96 154.58,139.14 C155.21,137.29 155.82,135.43 156.46,133.58 C157.56,130.38 158.79,127.21 160.02,124.05 L161.24,120.91 C162.44,117.84 163.65,114.77 164.94,111.74 L165.08,111.40 C166.43,108.23 167.82,104.66 170.26,102.21 C170.29,102.17 170.34,102.15 170.38,102.15 C169.78,101.83 169.22,101.43 168.72,100.96 L168.70,100.94 C168.51,100.73 167.70,99.71 167.44,99.10 C167.10,99.22 166.76,99.34 166.42,99.45 C165.83,99.65 165.35,99.51 165.00,99.19 L164.35,99.60 C163.64,100.03 162.89,100.43 162.12,100.45 C161.14,100.48 160.37,99.94 159.85,99.15 C159.38,98.44 159.10,97.67 158.51,97.03 C157.93,96.41 157.25,95.88 156.56,95.37 L155.75,94.78 C154.25,93.69 152.81,92.59 151.61,91.15 C151.00,90.43 150.19,89.56 149.82,88.69 C149.75,88.52 149.71,88.36 149.70,88.21 C149.62,88.75 149.54,89.30 149.45,89.85 C148.30,97.52 147.37,105.25 147.07,113.01 C146.93,116.84 146.86,120.67 147.03,124.50 C147.12,126.41 147.26,128.32 147.45,130.23 C147.54,131.18 147.64,132.13 147.76,133.09 L147.79,133.31 C147.82,133.60 147.84,133.88 147.82,134.15 C148.75,134.61 149.28,135.76 149.65,136.67 C149.93,137.36 149.71,138.03 149.26,138.51 C149.80,139.01 150.29,139.59 150.70,140.26 C150.78,140.39 150.60,140.50 150.50,140.42 C149.83,139.88 149.11,139.45 148.35,139.11 C147.96,139.26 147.53,139.30 147.13,139.19 C146.70,139.07 146.33,138.78 146.06,138.42 C143.92,138.07 141.70,138.50 139.78,139.83 C139.38,140.11 139.02,140.43 138.68,140.77 C138.62,140.83 138.56,140.91 138.49,140.98 L138.91,141.14 C139.09,141.21 139.23,141.26 139.28,141.27 C139.65,141.34 140.02,141.38 140.39,141.42 L140.95,141.46 C143.09,141.64 145.23,141.70 147.22,142.59 C147.63,142.78 147.49,143.43 147.09,143.54 C145.64,143.93 144.20,143.90 142.72,143.79 L142.40,143.77 C141.03,143.66 139.55,143.67 138.21,143.29 C138.53,144.17 138.09,145.32 136.75,145.50 C132.72,146.03 128.67,145.78 124.63,145.42 C120.56,145.07 116.49,144.73 112.40,144.51 C99.20,143.82 85.97,143.95 72.74,144.14 L65.27,144.25 C59.31,144.33 53.35,144.40 47.40,144.35 L44.61,144.32 C43.43,144.31 42.25,144.30 41.07,144.26 L40.36,144.24 C38.96,144.19 37.10,144.40 35.89,143.57 C34.88,142.89 34.66,141.63 35.26,140.62 C35.44,140.33 35.68,140.07 35.93,139.81 C36.45,135.41 36.74,130.98 37.03,126.55 C38.06,111.07 37.46,95.66 35.09,80.33 C28.73,82.27 22.48,84.71 16.38,87.32 C13.08,88.73 9.80,90.20 6.56,91.74 C3.60,93.15 0.63,94.90 -2.54,95.81 C-2.82,96.07 -3.23,96.19 -3.58,96.08 L-3.63,96.06 L-3.63,96.06 C-3.96,96.14 -4.32,96.09 -4.67,95.88 C-4.75,95.83 -4.82,95.79 -4.89,95.75 L-5.00,95.68 C-6.11,94.98 -7.23,94.11 -8.02,93.05 C-8.97,93.94 -10.00,94.76 -11.02,95.58 C-12.11,96.48 -13.21,97.38 -14.29,98.29 C-14.73,98.65 -15.20,98.99 -15.58,99.41 L-15.64,99.47 C-15.65,99.48 -15.65,99.49 -15.66,99.50 C-14.02,100.56 -12.57,102.18 -11.28,103.59 C-9.90,105.09 -8.56,106.65 -7.23,108.21 L-5.95,109.73 C3.14,120.46 12.32,131.58 24.08,139.47 C25.94,140.72 24.17,143.76 22.32,142.48 C18.83,140.08 15.52,137.40 12.34,134.59 C6.78,129.66 1.77,124.14 -2.92,118.38 C-5.29,115.46 -7.59,112.48 -9.85,109.47 L-10.61,108.45 C-11.63,107.09 -12.65,105.73 -13.62,104.33 L-13.82,104.04 C-14.68,102.81 -15.58,101.43 -16.13,100.01 C-16.34,100.22 -16.58,100.40 -16.93,100.54 C-17.53,100.77 -18.26,100.28 -18.40,99.70 C-18.76,98.29 -17.53,97.45 -16.54,96.70 C-15.33,95.80 -14.09,94.93 -12.86,94.06 L-12.41,93.75 C-10.87,92.65 -9.32,91.52 -7.63,90.66 C-7.58,90.59 -7.52,90.53 -7.45,90.47 C-7.37,90.41 -7.29,90.35 -7.21,90.29 C-9.22,87.02 -11.43,83.89 -13.89,80.92 C-15.74,78.69 -17.70,76.56 -19.78,74.55 L-20.72,73.64 C-22.13,72.28 -23.60,70.89 -25.17,69.71 L-25.66,70.27 C-26.31,71.01 -26.97,71.74 -27.67,72.44 C-29.05,73.81 -30.41,75.21 -31.76,76.60 C-34.01,78.93 -36.18,81.32 -38.34,83.72 L-39.42,84.92 C-41.67,87.42 -44.09,89.88 -46.13,92.55 L-46.23,92.68 C-47.13,93.88 -47.76,95.21 -47.35,96.73 C-46.95,98.20 -46.00,99.50 -45.17,100.77 L-45.09,100.90 C-41.74,106.12 -38.15,111.21 -34.30,116.09 C-26.60,125.84 -17.81,135.09 -7.32,141.88 C-5.87,142.82 -7.23,145.15 -8.68,144.20 C-14.81,140.20 -20.43,135.39 -25.61,130.22 C-30.36,125.48 -34.66,120.26 -38.70,114.90 C-40.67,112.29 -42.55,109.62 -44.36,106.89 C-46.11,104.24 -48.14,101.52 -49.40,98.60 C-50.07,97.06 -50.32,95.40 -49.77,93.78 C-49.27,92.29 -48.28,91.06 -47.25,89.89 L-47.16,89.78 C-44.79,87.13 -42.39,84.50 -39.96,81.90 C-37.52,79.30 -34.98,76.78 -32.37,74.34 C-30.33,72.42 -28.20,70.72 -25.92,69.16 C-26.13,69.01 -26.33,68.87 -26.54,68.74 C-27.18,68.32 -27.34,67.44 -26.78,66.87 C-25.26,65.34 -23.50,64.00 -21.85,62.60 C-20.30,61.28 -18.75,59.96 -17.19,58.64 C-14.03,55.96 -10.87,53.28 -7.71,50.60 C-2.03,45.78 3.61,40.93 9.27,36.09 C11.63,34.08 14.01,32.08 16.38,30.09 L20.60,26.54 L20.60,26.54 L22.67,24.80 C23.72,23.92 24.80,23.04 26.01,22.36 C28.84,20.77 32.24,20.09 35.36,19.24 L35.56,19.19 C39.06,18.23 42.57,17.33 46.11,16.53 C49.65,15.72 53.20,14.99 56.77,14.33 C59.98,13.73 63.26,13.22 66.53,13.15 C67.34,12.84 68.36,12.73 69.16,13.06 C69.49,13.20 69.83,13.40 70.14,13.65 C71.74,13.09 73.32,12.82 74.81,11.87 C76.30,10.92 77.62,9.67 78.73,8.30 C81.03,5.46 82.23,2.10 83.04,-1.42 Z M119.80,94.92 C118.53,94.83 117.39,95.35 116.26,95.91 C116.90,96.19 117.54,96.46 118.17,96.73 L122.42,98.55 L122.42,98.55 C123.82,99.15 125.31,99.67 126.64,100.40 C126.74,100.46 126.81,100.52 126.87,100.59 C128.26,99.71 129.72,98.91 131.13,98.07 C131.45,97.88 131.77,97.68 132.10,97.49 C130.42,98.05 128.71,98.33 126.89,97.81 C124.47,97.11 122.36,95.10 119.80,94.92 Z M123.27,90.66 L123.05,90.51 C121.82,89.67 120.35,88.58 118.86,89.34 C118.15,89.70 117.58,90.27 116.88,90.66 C116.19,91.05 115.42,91.34 114.64,91.52 C113.35,91.82 111.87,91.87 110.48,91.58 L110.51,93.46 L110.51,93.46 C111.56,93.89 112.60,94.33 113.64,94.78 C114.32,94.55 114.97,94.27 115.66,93.97 L116.12,93.76 C117.44,93.16 118.77,92.77 120.23,92.95 C122.98,93.31 125.06,95.35 127.69,96.03 C130.91,96.87 133.82,94.46 136.86,93.87 C137.36,93.77 137.88,93.71 138.39,93.70 L138.57,93.70 L138.64,93.66 C139.30,93.27 140.28,92.91 140.73,92.26 C141.23,91.56 141.27,90.38 141.44,89.56 C141.45,89.48 141.47,89.39 141.48,89.31 C141.20,89.31 140.90,89.32 140.61,89.38 C139.68,89.55 138.80,89.88 137.94,90.25 C136.30,90.94 134.70,91.74 132.98,92.20 C131.29,92.65 129.52,92.87 127.79,92.62 C126.09,92.37 124.68,91.61 123.27,90.66 Z M123.54,84.07 L123.28,83.90 C122.61,83.47 121.84,83.03 121.02,83.19 C120.29,83.33 119.65,83.91 119.01,84.27 C117.61,85.07 116.03,85.50 114.42,85.61 C113.09,85.70 111.70,85.54 110.41,85.14 L110.46,89.30 L110.46,89.30 C110.93,89.45 111.42,89.55 111.93,89.59 C113.49,89.71 115.01,89.33 116.32,88.47 L116.98,88.03 C118.11,87.29 119.17,86.70 120.67,86.97 C122.15,87.24 123.40,88.19 124.61,89.02 L124.81,89.16 C126.20,90.07 127.62,90.67 129.32,90.68 C131.17,90.70 132.99,90.18 134.71,89.55 C136.41,88.93 138.03,88.18 139.86,87.95 C140.41,87.88 141.10,87.85 141.74,87.96 C141.82,87.49 141.90,87.02 141.98,86.55 C142.14,85.54 142.28,84.53 142.40,83.52 C139.17,82.65 136.18,85.46 133.18,86.33 C131.44,86.84 129.54,86.83 127.80,86.34 C126.18,85.89 124.92,84.96 123.54,84.07 Z M123.55,77.07 C122.86,76.93 122.17,77.25 121.59,77.58 C120.09,78.41 118.80,79.57 117.10,80.01 C114.92,80.57 112.53,80.08 110.36,79.16 C110.37,80.45 110.38,81.73 110.39,83.01 C110.80,83.17 111.22,83.29 111.64,83.39 C113.16,83.74 114.77,83.69 116.26,83.25 C117.79,82.81 118.95,81.60 120.48,81.23 C122.04,80.84 123.52,81.59 124.77,82.45 L125.15,82.70 C126.59,83.68 127.99,84.53 129.79,84.70 C131.69,84.87 133.35,84.27 135.05,83.48 L135.44,83.30 C137.60,82.31 140.39,81.19 142.54,82.31 C142.71,80.71 142.83,79.12 142.91,77.52 C142.62,77.41 142.31,77.33 141.96,77.32 C141.12,77.32 140.23,77.59 139.45,77.86 C137.73,78.47 136.13,79.37 134.43,80.02 C132.82,80.64 131.03,80.96 129.31,80.68 C127.72,80.43 126.52,79.60 125.42,78.45 L125.26,78.29 C124.78,77.77 124.26,77.21 123.55,77.07 Z M124.81,71.14 C124.01,70.71 123.04,70.32 122.12,70.45 C121.24,70.56 120.66,71.16 120.12,71.80 L119.82,72.15 C118.85,73.29 117.90,74.25 116.41,74.73 C114.86,75.21 113.22,75.02 111.78,74.31 C111.27,74.06 110.80,73.74 110.32,73.43 L110.35,76.80 L110.35,76.80 C111.30,77.28 112.27,77.71 113.34,77.97 C115.31,78.45 116.98,78.09 118.66,77.00 L118.84,76.89 C120.11,76.06 121.41,75.06 122.98,74.97 C124.51,74.88 125.65,75.73 126.66,76.77 L126.78,76.89 C128.05,78.23 129.33,78.88 131.22,78.73 C133.05,78.58 134.76,77.77 136.44,77.07 L136.59,77.01 C138.13,76.38 139.90,75.73 141.58,75.97 C141.98,76.03 142.50,76.15 142.97,76.37 C143.04,74.79 143.07,73.21 143.07,71.63 C142.12,70.80 140.63,70.67 139.43,71.01 C137.55,71.54 136.02,72.91 134.23,73.66 C132.64,74.32 130.98,74.47 129.36,73.84 C127.69,73.20 126.38,71.96 124.81,71.14 Z M142.97,64.49 C140.17,64.59 137.42,66.42 134.75,67.11 C131.76,67.89 129.32,66.83 126.65,65.65 L126.31,65.50 C124.94,64.90 123.47,64.36 121.96,64.61 C120.48,64.85 119.18,65.67 117.91,66.41 L117.66,66.55 C115.35,67.86 112.99,68.77 110.29,68.54 C110.31,69.39 110.30,70.23 110.30,71.06 C110.75,71.32 111.18,71.60 111.58,71.87 L111.73,71.96 C113.01,72.76 114.34,73.29 115.88,72.80 C117.36,72.31 118.06,71.02 119.07,69.96 C120.01,68.98 121.23,68.39 122.60,68.45 C124.07,68.51 125.47,69.15 126.68,69.95 C127.90,70.74 129.08,71.76 130.50,72.16 C133.69,73.05 136.43,69.67 139.45,69.14 C140.72,68.92 142.12,69.20 143.07,69.97 C143.06,68.15 143.02,66.32 142.97,64.49 Z M118.84,63.73 C118.44,63.74 118.05,63.76 117.65,63.78 C116.19,63.84 114.73,63.91 113.27,64.00 C112.25,64.05 111.01,64.36 110.02,64.05 C109.99,64.15 109.96,64.25 109.91,64.35 C110.06,65.09 110.16,65.87 110.21,66.65 C111.13,66.75 112.06,66.72 112.97,66.53 C115.14,66.08 116.90,64.71 118.84,63.73 Z M142.93,63.10 C137.59,63.47 132.21,63.34 126.86,63.46 L126.22,63.47 C126.19,63.47 126.17,63.48 126.14,63.48 C126.76,63.71 127.37,63.99 127.97,64.26 L128.58,64.54 C130.01,65.20 131.47,65.74 133.07,65.62 C134.79,65.50 136.41,64.80 138.01,64.23 C139.54,63.69 141.31,63.33 142.94,63.56 C142.94,63.41 142.93,63.26 142.93,63.10 Z" id="🖍-Ink" fill="#000000"></path></g><g id="head/Bantu-Knots" transform="translate(78.59, 38.04)" fill-rule="evenodd"><path d="M87.14,52.89 C86.90,48.26 86.69,43.48 85.80,38.93 C85.36,36.70 84.50,34.63 83.09,32.84 C81.80,31.20 80.18,29.93 78.54,28.67 C75.24,26.13 72.07,23.32 68.38,21.35 C64.83,19.47 61.00,18.33 57.03,17.82 C49.38,16.84 41.35,18.48 34.71,22.40 C28.27,26.21 23.09,32.13 19.88,38.87 C18.29,42.22 17.09,45.76 16.45,49.42 C15.68,53.78 15.75,58.15 15.78,62.55 C15.79,64.04 15.78,65.52 15.70,67.00 C15.58,67.71 15.52,68.44 15.52,69.22 C14.06,71.14 13.47,73.70 14.38,76.06 C15.84,79.83 19.97,81.55 23.73,80.89 C23.89,81.87 24.30,82.84 24.80,83.78 C25.67,85.38 26.63,86.96 27.65,88.46 C29.77,91.59 32.18,94.42 35.07,96.86 C40.78,101.69 48.01,104.87 55.52,105.32 C62.35,105.74 69.55,103.80 75.13,99.79 C78.02,97.71 80.52,95.16 82.38,92.10 C84.55,88.54 85.73,84.43 86.34,80.33 C87.68,71.31 87.61,61.97 87.14,52.89 L87.14,52.89 Z" id="🎨-Background" fill="#FFFFFF"></path><path d="M33.27,5.09 C33.01,2.18 35.69,-0.01 38.18,0.81 C38.64,0.86 39.08,1.01 39.48,1.25 C40.62,1.95 40.87,3.08 40.57,4.05 C41.11,4.46 41.53,5.01 41.75,5.67 C41.97,6.36 41.94,7.02 41.74,7.60 C42.52,8.11 43.11,8.89 43.25,9.86 C43.31,10.32 43.28,10.77 43.18,11.19 C44.36,11.59 45.32,12.49 45.31,13.85 C45.99,13.89 46.68,13.90 47.38,13.86 C47.48,13.58 47.60,13.31 47.78,13.05 C48.15,12.54 48.67,12.19 49.25,11.98 L49.33,11.95 L49.33,11.79 C48.88,11.30 48.68,10.69 49.15,10.01 C49.23,9.90 49.33,9.80 49.44,9.72 C49.47,9.43 49.54,9.14 49.61,8.86 C49.23,8.31 49.27,7.41 49.92,7.14 C49.83,6.61 49.82,6.06 49.92,5.51 C50.33,3.24 52.51,1.70 54.77,1.79 C55.05,1.80 55.33,1.84 55.59,1.91 C56.14,1.96 56.69,2.09 57.22,2.27 C57.84,2.48 58.00,3.00 57.87,3.44 C58.71,4.56 58.95,6.09 58.10,7.47 C58.07,7.52 58.03,7.57 58.00,7.62 C58.17,7.75 58.31,7.91 58.42,8.13 C58.70,8.68 58.63,9.37 58.21,9.82 C58.10,9.94 57.95,10.04 57.80,10.09 L57.79,10.14 L57.79,10.14 C57.74,10.87 57.62,11.60 57.40,12.29 C58.29,13.12 58.89,14.25 58.99,15.46 C59.32,15.49 59.66,15.53 59.99,15.57 C60.04,15.24 60.24,14.94 60.55,14.70 C60.80,14.51 61.08,14.35 61.36,14.24 C61.49,13.54 61.83,12.87 62.39,12.34 C62.59,12.14 62.82,11.97 63.06,11.82 C63.05,11.06 63.22,10.30 63.64,9.58 C63.99,8.99 64.50,8.56 65.08,8.28 C65.50,7.43 66.28,6.74 67.42,6.34 C68.27,6.05 69.17,6.40 69.82,6.95 L69.96,7.08 L69.96,7.08 C70.55,7.60 70.77,8.56 70.55,9.31 C70.45,9.65 70.28,10.06 70.03,10.39 C70.29,11.55 69.77,12.52 68.96,13.07 C69.24,13.46 69.47,13.89 69.66,14.36 C70.00,15.16 69.62,16.15 69.01,16.78 C69.28,17.21 69.45,17.70 69.52,18.20 C69.79,18.21 70.06,18.26 70.32,18.34 C70.46,17.85 70.74,17.39 71.15,17.02 C71.33,16.67 71.55,16.34 71.79,16.05 C72.17,15.59 72.66,15.27 73.20,15.13 C73.27,14.96 73.37,14.80 73.50,14.65 C73.37,13.17 74.35,11.64 75.86,11.64 C75.97,11.30 76.10,10.96 76.25,10.62 C76.56,9.96 77.21,9.57 77.91,9.44 C78.33,8.43 79.14,7.70 80.53,7.58 C83.64,7.31 85.60,11.08 84.84,13.79 C84.62,14.60 84.09,15.34 83.38,15.79 C83.20,15.91 83.01,16.00 82.83,16.07 C82.64,16.33 82.39,16.57 82.06,16.75 C81.99,16.80 81.92,16.83 81.84,16.87 C81.85,18.08 81.01,19.06 79.98,19.38 C80.04,20.14 79.85,20.90 79.27,21.49 L79.23,21.53 L79.23,21.53 L79.15,21.61 L79.14,21.64 C79.34,22.17 79.32,22.76 79.03,23.24 C79.05,23.68 79.13,24.11 79.28,24.52 C79.85,24.99 80.36,25.52 80.81,26.10 C81.11,25.82 81.56,25.70 81.96,25.85 C82.07,25.81 82.18,25.79 82.29,25.78 C82.47,25.76 82.64,25.76 82.82,25.77 C82.90,25.66 82.99,25.55 83.09,25.44 C83.83,24.72 84.89,24.73 85.74,25.18 C85.89,25.07 86.06,24.97 86.26,24.89 C88.42,23.98 89.83,26.72 90.04,28.43 C90.16,29.36 89.35,29.94 88.53,29.99 C88.36,30.55 87.83,30.96 87.23,31.10 C87.33,31.79 86.87,32.51 86.24,32.77 C85.96,32.89 85.69,32.92 85.43,32.89 L85.44,33.05 L85.44,33.05 C85.49,33.71 85.16,34.12 84.71,34.31 C84.63,34.63 84.41,34.87 84.13,34.99 C85.19,37.45 86.03,40.02 86.70,42.56 C87.82,46.75 88.57,51.02 89.07,55.32 C89.95,62.89 89.99,70.62 89.10,78.19 C88.65,82.04 87.90,85.81 86.37,89.39 C85.10,92.37 83.32,94.96 81.28,97.47 C77.22,102.45 71.41,106.12 65.00,107.03 C61.64,107.51 58.19,107.35 54.91,106.43 C51.64,105.52 48.16,103.96 46.10,101.18 C45.54,100.43 45.82,99.21 46.44,98.58 C47.14,97.88 48.16,97.83 49.03,98.25 C50.56,98.99 51.94,100.01 53.50,100.72 C54.91,101.36 56.43,101.77 57.94,102.06 C60.95,102.64 64.21,102.49 67.20,101.69 C72.63,100.24 77.41,96.73 80.44,92.00 C84.03,86.42 85.31,79.87 85.90,73.35 C86.54,66.21 86.47,58.97 85.62,51.86 C85.20,48.33 84.55,44.83 83.78,41.36 C83.23,38.89 82.62,36.43 82.04,33.97 C81.51,33.47 81.00,32.95 80.51,32.41 L80.50,32.41 L80.50,32.41 C80.43,32.43 80.37,32.44 80.30,32.44 C77.38,32.66 74.23,32.37 71.74,30.69 C70.73,30.01 69.87,29.14 69.24,28.15 C68.34,27.53 67.53,26.75 66.92,25.84 C66.49,25.37 66.07,24.87 65.68,24.36 C64.71,23.07 64.19,21.72 63.61,20.24 C63.60,20.21 63.59,20.17 63.59,20.14 C63.47,19.96 63.40,19.76 63.36,19.56 C62.06,19.41 60.77,19.30 59.48,19.24 C59.02,19.22 58.57,19.20 58.11,19.19 C58.23,19.64 58.30,20.10 58.32,20.57 C58.69,20.59 59.06,20.63 59.45,20.70 C61.25,20.98 62.41,21.91 63.51,23.36 C64.57,24.77 65.43,26.46 66.06,28.11 C66.44,29.12 65.93,30.24 65.08,30.89 C62.87,31.08 60.70,31.55 58.67,32.49 C58.60,32.53 58.55,32.58 58.52,32.65 C56.90,33.14 55.26,33.58 53.63,33.95 C52.05,34.32 50.46,34.47 48.88,34.07 C48.20,33.89 47.53,33.64 46.88,33.36 C46.52,33.40 46.14,33.33 45.76,33.11 C45.17,32.77 44.58,32.40 44.00,32.01 C42.97,31.52 41.96,30.99 40.99,30.38 L40.99,30.37 L40.99,30.37 C40.22,29.44 39.12,28.49 37.89,27.77 C37.76,27.56 37.64,27.34 37.54,27.11 C37.01,25.82 37.23,24.26 38.35,23.38 C38.36,23.07 38.50,22.77 38.79,22.53 C39.02,22.34 39.26,22.16 39.51,21.99 C39.46,21.95 39.41,21.92 39.36,21.88 C39.25,21.80 39.16,21.72 39.06,21.63 C38.32,22.04 37.57,22.44 36.80,22.80 C36.78,22.81 36.76,22.83 36.74,22.84 C35.29,23.79 33.93,24.88 32.46,25.79 C32.11,26.01 31.77,26.22 31.42,26.44 C31.29,26.61 31.16,26.79 31.04,26.98 C30.99,27.26 30.91,27.54 30.81,27.81 C31.00,27.97 31.16,28.17 31.26,28.41 C31.72,28.58 32.14,28.80 32.54,29.06 L32.90,29.22 L32.90,29.22 C33.35,28.85 33.83,28.52 34.35,28.25 C35.97,28.35 37.72,29.50 38.95,30.67 C39.04,30.77 39.12,30.87 39.20,30.97 C39.28,31.03 39.36,31.10 39.44,31.16 C39.57,31.30 39.68,31.44 39.79,31.57 C39.92,31.72 40.05,31.80 40.19,31.83 C40.95,32.54 41.65,33.34 42.14,34.17 C42.91,35.50 42.37,37.16 41.80,38.46 C41.71,38.67 41.61,38.88 41.51,39.09 C40.42,40.55 39.39,42.06 38.36,43.56 C37.67,44.24 36.98,44.91 36.32,45.61 C36.21,45.68 36.10,45.75 35.98,45.82 C34.06,46.80 32.20,45.69 30.38,45.00 L30.17,44.93 C28.29,44.24 25.95,43.80 25.83,41.34 C25.81,41.01 25.82,40.67 25.86,40.32 C26.32,39.09 26.85,37.89 27.44,36.71 C27.33,36.58 27.22,36.44 27.13,36.28 C26.94,36.04 26.78,35.78 26.66,35.50 C25.78,37.18 24.95,38.97 23.82,40.44 C23.21,41.25 22.43,41.55 21.61,41.54 C21.27,41.72 20.88,41.78 20.51,41.73 L20.55,42.18 C20.58,42.56 20.62,42.93 20.68,43.30 C21.47,43.28 22.30,43.50 23.04,43.79 C25.20,44.65 27.29,45.83 29.38,46.86 C30.39,47.36 31.77,47.77 32.59,48.55 C33.23,49.14 33.15,49.88 32.91,50.65 C32.87,50.78 32.83,50.91 32.78,51.04 L32.78,51.08 L32.78,51.08 C32.11,51.93 31.65,52.94 31.31,53.98 C30.77,54.91 30.38,55.96 30.13,56.98 C29.91,57.81 29.76,58.66 29.67,59.52 L29.64,59.75 L29.63,59.78 L29.62,59.98 L29.62,59.98 C29.48,61.49 29.50,63.01 29.62,64.51 C29.66,64.92 29.70,65.34 29.76,65.75 C29.52,66.49 28.40,66.59 27.83,66.14 C27.19,65.64 26.52,65.19 25.82,64.78 C24.88,65.22 23.78,65.29 22.72,64.94 C22.64,64.91 22.57,64.88 22.50,64.85 C21.71,64.95 20.92,65.14 20.17,65.35 L19.94,65.42 C18.74,65.78 17.60,66.23 16.70,67.15 C15.09,68.78 14.57,71.42 14.90,73.62 C15.22,75.77 16.46,78.22 18.71,78.84 C19.62,79.10 20.61,79.09 21.50,78.73 C21.84,78.60 22.13,78.40 22.42,78.19 C22.77,77.92 23.05,77.62 23.47,77.46 C23.85,77.30 24.50,77.32 24.69,77.31 C25.27,77.28 25.76,77.73 25.93,78.25 C26.45,79.84 25.67,81.00 24.41,81.78 C24.94,82.58 25.44,83.42 25.96,84.17 C26.94,85.59 27.97,86.95 29.04,88.29 C30.14,89.67 31.31,90.99 32.58,92.20 C33.16,92.75 33.75,93.29 34.36,93.80 L34.70,94.07 C35.27,94.55 35.77,95.04 35.75,95.87 C35.74,96.33 35.43,96.77 34.97,96.89 C33.35,97.33 31.66,95.20 30.60,94.11 L30.52,94.03 C29.24,92.74 28.05,91.35 26.98,89.88 C25.87,88.37 24.97,86.70 24.24,84.98 C23.90,84.18 23.53,83.27 23.27,82.34 C21.86,82.89 20.23,83.09 19.11,82.96 C18.07,82.84 17.13,82.54 16.28,82.11 C16.11,82.50 15.87,82.86 15.59,83.17 C14.53,84.28 13.00,84.60 11.51,84.59 C9.61,84.57 7.90,83.37 7.83,81.35 C7.79,80.03 8.47,78.90 9.46,78.14 C9.83,77.23 10.53,76.48 11.54,76.23 C10.87,74.16 10.75,71.88 11.25,69.78 C11.75,67.71 12.89,65.75 14.57,64.46 L14.67,64.38 L14.63,64.41 C14.23,64.62 13.84,64.86 13.45,65.09 L13.27,65.19 C11.53,66.18 9.50,67.02 7.47,66.49 C4.24,65.66 3.96,61.63 6.74,60.04 C7.70,59.49 8.81,59.28 9.90,59.14 C10.08,58.92 10.28,58.72 10.51,58.55 C10.54,57.81 10.91,57.07 11.57,56.61 C12.24,56.13 13.00,56.09 13.70,56.30 C13.96,56.11 14.25,55.94 14.56,55.80 C14.83,55.68 15.10,55.60 15.38,55.54 C15.37,55.32 15.37,55.10 15.37,54.88 C15.32,54.67 15.30,54.46 15.27,54.23 C15.22,54.22 15.17,54.21 15.12,54.20 C14.41,54.05 13.76,53.73 13.20,53.29 C12.30,53.86 11.21,54.08 9.91,53.69 C8.70,53.34 7.56,52.21 7.00,50.92 C6.23,50.77 5.49,50.54 4.83,50.12 C3.62,50.41 2.31,49.94 1.82,48.68 C1.46,47.75 1.89,46.63 2.68,46.05 C2.90,45.88 3.15,45.91 3.34,46.04 C3.39,45.89 3.45,45.74 3.51,45.60 C3.54,45.54 3.57,45.48 3.60,45.42 C3.57,44.19 4.02,43.00 5.13,42.34 C5.96,41.85 6.96,41.79 7.85,42.08 C8.34,41.62 8.96,41.27 9.73,41.08 C11.09,40.74 12.52,41.13 13.48,42.14 C13.69,42.08 13.91,42.04 14.13,42.01 C14.21,41.44 14.40,40.90 14.80,40.47 C15.09,40.16 15.44,39.92 15.81,39.75 C15.98,39.11 16.27,38.53 16.73,38.05 C16.51,37.86 16.30,37.64 16.12,37.39 C15.92,37.36 15.73,37.32 15.53,37.26 C14.51,36.93 13.81,36.29 13.33,35.49 C12.45,35.71 11.51,35.63 10.59,35.05 C9.93,34.63 9.43,33.97 9.16,33.22 L8.41,32.96 L8.41,32.96 C7.70,32.70 7.19,32.23 6.89,31.67 C6.52,31.81 6.11,31.80 5.78,31.55 C3.83,30.04 5.16,27.55 7.25,27.05 C8.10,26.85 8.84,26.96 9.50,27.27 C9.97,26.82 10.56,26.48 11.23,26.33 C12.02,26.15 12.84,26.28 13.57,26.62 L13.76,26.62 L13.76,26.62 C14.49,26.08 15.42,25.84 16.57,26.10 C17.86,26.40 18.75,27.12 19.34,28.07 C19.54,27.89 19.75,27.74 19.99,27.61 C20.66,27.25 21.38,27.16 22.06,27.27 C22.29,26.94 22.53,26.62 22.77,26.30 C22.19,25.84 21.80,25.14 21.78,24.36 C21.60,24.26 21.43,24.13 21.27,24.02 C20.48,23.46 19.80,22.76 19.50,21.82 C19.35,21.35 19.29,20.86 19.31,20.37 C19.22,20.35 19.14,20.33 19.05,20.30 C15.68,19.33 14.29,14.69 16.95,12.19 C18.35,10.89 20.48,11.63 21.86,12.59 C22.80,13.25 23.55,14.07 24.23,14.98 C24.26,14.99 24.29,14.99 24.33,15.00 C25.30,15.23 26.08,15.85 26.65,16.65 C27.66,16.48 28.74,16.67 29.70,17.37 C30.40,17.89 30.84,18.52 31.07,19.21 C31.98,18.73 32.91,18.32 33.87,17.95 C33.93,17.80 34.00,17.65 34.07,17.50 C34.22,17.21 34.41,16.96 34.63,16.74 C34.39,16.47 34.18,16.17 34.00,15.83 C33.18,14.22 33.48,12.60 34.39,11.37 C33.99,10.47 33.87,9.46 34.10,8.49 C34.15,8.31 34.20,8.14 34.27,7.97 C33.71,7.11 33.36,6.12 33.27,5.09 Z M18.49,70.02 C19.08,69.87 19.21,69.69 19.87,69.74 C20.38,69.78 20.90,69.87 21.39,70.00 C22.57,70.30 23.67,70.92 24.63,71.64 C26.00,72.67 24.36,74.58 23.27,73.49 L23.24,73.45 C22.50,72.67 21.68,72.05 20.76,71.50 C20.29,71.22 19.81,71.02 19.32,70.79 C18.98,70.63 18.79,70.37 18.47,70.20 C18.39,70.16 18.41,70.04 18.49,70.02 Z M21.64,54.52 C21.31,54.41 20.94,54.65 20.86,54.97 C20.76,55.31 20.96,55.61 21.27,55.73 L21.30,55.75 C21.71,55.89 22.09,56.14 22.41,56.43 L22.48,56.50 C23.07,57.07 23.96,56.17 23.38,55.60 C22.88,55.12 22.29,54.76 21.64,54.52 Z M36.80,31.44 C36.47,30.71 35.40,31.33 35.69,32.05 L35.71,32.08 C36.01,32.74 35.88,33.50 35.56,34.12 L35.52,34.18 C35.13,34.89 36.22,35.54 36.62,34.82 C37.21,33.76 37.31,32.55 36.80,31.44 Z M46.01,22.35 L45.99,22.28 C45.84,21.48 44.62,21.82 44.77,22.62 C45.02,23.95 45.98,24.82 47.22,25.25 C47.99,25.52 48.32,24.30 47.56,24.03 C46.74,23.74 46.19,23.20 46.01,22.35 L46.01,22.35 Z M65.98,21.07 L65.77,21.06 L65.77,21.06 L65.93,21.28 L65.93,21.28 C65.95,21.21 65.96,21.14 65.98,21.07 Z" id="🖍-Ink" fill="#000000"></path></g><g id="face/Hectic" transform="translate(112.18, 77.35)" fill="#000000" fill-rule="evenodd"><path d="M32.09,43.48 C34.06,42.78 36.15,43.04 38.13,43.77 L38.31,43.84 C40.14,44.54 42.37,45.75 43.11,47.63 C43.26,48.01 43.33,48.39 43.34,48.77 C43.58,48.80 43.83,48.83 44.07,48.87 C44.56,48.96 44.54,49.74 44.07,49.84 C43.77,49.91 43.47,49.96 43.16,49.99 C42.88,50.87 42.29,51.67 41.55,52.23 C39.82,53.55 37.43,53.79 35.34,53.99 C33.02,54.22 30.70,54.16 28.39,53.88 L27.58,53.78 C25.69,53.53 23.58,53.22 21.98,52.20 C20.46,51.25 19.43,49.42 20.07,47.63 C20.73,45.81 22.97,45.03 24.64,44.44 C27.03,43.60 29.58,43.27 32.09,43.48 Z M28.75,49.60 C28.77,50.14 28.79,50.67 28.81,51.21 C28.82,51.37 28.77,51.52 28.69,51.65 C29.84,51.78 30.99,51.84 32.14,51.84 C31.93,51.21 31.92,50.47 31.91,49.79 C30.85,49.74 29.80,49.68 28.75,49.60 Z M32.99,49.84 L33.08,50.19 C33.22,50.73 33.35,51.29 33.33,51.82 C33.87,51.80 34.40,51.77 34.94,51.72 L35.62,51.66 C35.77,51.65 35.93,51.64 36.09,51.62 C36.12,51.07 36.19,50.51 36.24,49.95 C35.16,49.93 34.07,49.89 32.99,49.84 Z M37.29,49.98 C37.34,50.47 37.39,50.97 37.41,51.46 C38.28,51.33 39.14,51.12 39.87,50.74 C40.23,50.55 40.53,50.33 40.75,50.07 C40.01,50.06 39.27,50.02 38.56,50.01 C38.42,50.01 38.28,50.00 38.14,50.00 L37.29,49.98 Z M22.14,48.85 C22.20,49.87 23.81,50.60 24.64,50.84 C25.44,51.07 26.24,51.26 27.06,51.40 C27.04,51.34 27.03,51.27 27.04,51.21 C27.09,50.63 27.14,50.06 27.20,49.48 L26.76,49.45 C25.22,49.33 23.63,49.23 22.14,48.85 Z M32.21,44.97 C32.33,46.25 32.51,47.52 32.75,48.78 L33.19,48.79 L33.19,48.79 C34.24,48.80 35.29,48.81 36.34,48.81 C36.34,48.76 36.34,48.71 36.35,48.66 C36.38,47.59 36.37,46.52 36.33,45.46 C35.00,45.16 33.60,45.07 32.21,44.97 Z M36.88,45.59 C36.99,46.66 37.09,47.74 37.18,48.81 L38.10,48.81 C38.25,48.81 38.41,48.81 38.56,48.81 C39.42,48.80 40.31,48.74 41.19,48.72 C41.12,48.26 40.85,47.79 40.35,47.36 C39.29,46.46 38.12,45.92 36.88,45.59 Z M31.39,44.72 C30.37,44.83 29.37,45.01 28.38,45.26 C28.63,46.01 28.58,46.87 28.64,47.65 C28.66,48.00 28.68,48.34 28.70,48.69 C29.76,48.71 30.82,48.74 31.88,48.76 C31.85,47.49 31.87,46.22 31.94,44.95 L31.83,44.94 L31.83,44.94 C31.65,44.93 31.50,44.84 31.39,44.72 Z M27.70,45.44 C27.24,45.57 26.78,45.72 26.33,45.88 L25.83,46.06 C24.63,46.50 23.05,47.13 22.38,48.11 C22.27,48.27 22.20,48.43 22.17,48.58 C23.85,48.43 25.59,48.58 27.28,48.65 C27.30,48.43 27.33,48.20 27.35,47.98 L27.39,47.65 C27.48,46.93 27.48,46.14 27.70,45.44 Z M36.09,30.09 C37.68,31.06 40.11,33.32 38.40,35.73 C36.38,37.85 33.47,35.42 32.04,34.32 C30.71,33.46 29.21,35.66 30.45,36.65 C40.80,44.32 45.01,30.34 36.89,28.95 C36.00,28.80 35.67,29.79 36.09,30.09 Z M16.53,18.33 C18.80,14.39 24.41,14.34 27.62,17.35 C30.68,20.22 31.06,25.13 28.61,28.49 C26.01,32.07 20.94,33.06 16.83,31.79 C12.98,30.59 10.91,26.41 12.23,22.58 C12.94,20.51 14.59,19.07 16.53,18.33 Z M14.42,11.72 C16.34,10.03 19.82,8.39 22.40,9.22 C23.89,9.70 24.53,12.10 22.88,12.86 C20.96,13.74 18.74,13.38 16.79,14.29 C15.97,14.67 15.20,15.15 14.62,15.85 C14.17,16.41 13.72,17.13 13.06,17.45 C12.89,17.54 12.66,17.54 12.52,17.38 C11.10,15.77 13.17,12.83 14.42,11.72 Z M41.79,9.14 C42.97,8.81 44.29,8.81 45.49,9.02 C46.69,9.23 47.91,9.73 48.90,10.46 L49.01,10.54 C50.08,11.35 51.36,12.53 51.29,13.96 C51.23,15.15 49.98,15.96 48.89,15.34 C48.01,14.82 47.59,13.80 46.84,13.12 C46.22,12.56 45.50,12.11 44.72,11.80 C43.86,11.46 43.00,11.30 42.08,11.28 C41.37,11.27 40.65,11.50 39.96,11.58 C40.01,11.69 39.46,11.64 39.15,11.54 C38.91,11.44 38.91,11.14 38.99,10.95 C39.39,10.00 40.86,9.40 41.79,9.14 Z M43.08,15.83 C45.06,15.43 47.27,15.87 48.93,17.03 C51.90,19.11 53.24,23.43 51.86,26.80 C50.48,30.15 46.73,32.28 43.15,31.64 C39.50,30.99 36.67,27.31 37.07,23.60 C37.24,22.02 37.92,20.60 38.94,19.53 C38.95,19.49 38.96,19.45 38.97,19.41 C39.69,17.51 41.05,16.23 43.08,15.83 Z M24.93,18.86 C22.65,17.49 19.31,18.25 17.36,19.91 C16.97,20.24 16.53,20.14 16.29,19.85 C14.97,20.92 14.03,22.42 13.88,24.25 C13.61,27.52 15.94,29.67 19.08,29.92 C22.28,30.17 25.60,29.27 27.11,26.20 C28.42,23.55 27.46,20.38 24.93,18.86 Z M46.46,19.00 C44.68,18.30 42.12,18.71 40.57,19.91 C39.38,21.44 38.81,23.53 39.26,25.25 C39.92,27.73 42.30,29.66 44.91,29.38 C47.32,29.13 49.51,27.19 49.77,24.73 C50.02,22.37 48.72,19.89 46.46,19.00 Z M44.95,22.71 C45.35,22.42 45.84,22.74 45.99,23.13 L46.07,23.31 C46.11,23.40 46.16,23.50 46.16,23.50 L46.18,23.55 C46.20,23.59 46.23,23.62 46.25,23.66 C46.27,23.68 46.43,23.87 46.45,23.90 C46.70,24.21 46.84,24.50 46.83,24.92 C46.81,25.73 46.05,26.31 45.26,26.11 C44.41,25.90 44.05,25.02 44.12,24.21 C44.19,23.57 44.42,23.08 44.95,22.71 Z M21.84,22.86 C22.22,22.52 22.80,22.49 23.17,22.86 C23.37,23.07 23.45,23.29 23.60,23.53 L23.67,23.64 C23.82,23.87 23.98,24.10 24.02,24.38 C24.12,25.06 23.91,25.68 23.24,25.97 C22.58,26.24 21.97,25.96 21.57,25.42 C21.10,24.77 21.24,23.41 21.84,22.86 Z" id="🖍-Ink"></path></g><g id="facial-hair/*-None" transform="translate(104.58, 109.48)"></g><g id="accessories/*-None" transform="translate(88.52, 88.98)"></g></g></g></g></g></svg>