<?xml version="1.0" encoding="UTF-8"?><svg width="240px" height="324px" viewBox="0 0 240 324" version="1.1" xmlns="http://www.w3.org/2000/svg" xmlns:xlink="http://www.w3.org/1999/xlink"><title>peep-82</title><desc>Created with Sketch.</desc><g id="Introduction" stroke="none" stroke-width="1" fill="none" fill-rule="evenodd"><g id="variations" transform="translate(-2766.00, -1406.00)"><g id="images" transform="translate(126.00, 110.00)"><g id="a-person/bust" transform="translate(2640.00, 1296.00)"><g id="body/Tee-1" transform="translate(31.06, 135.05)" fill-rule="evenodd"><path d="M163.58,116.88 C162.73,112.07 161.95,107.25 161.24,102.41 C160.90,100.12 160.57,97.82 160.28,95.52 C160.07,93.91 159.76,92.06 160.85,90.87 C162.40,89.19 163.80,87.75 163.99,85.34 C164.16,83.08 163.40,80.61 162.92,78.41 C161.92,73.80 160.67,69.24 159.28,64.73 C157.88,60.15 156.34,55.61 154.78,51.08 C153.32,46.84 151.92,42.57 150.02,38.51 C146.41,30.79 140.31,25.08 132.77,21.27 C130.90,20.32 127.07,16.93 125.11,16.17 C123.31,15.48 123.32,17.51 121.54,16.74 C120.13,16.13 118.81,15.31 118.01,13.95 C117.15,12.46 114.99,10.38 114.66,8.65 C113.97,4.98 114.72,1.86 112.10,-0.90 C109.78,-3.35 106.66,-5.03 103.43,-5.93 C96.32,-7.91 86.85,-6.53 82.56,0.08 C80.51,3.23 79.80,7.05 77.03,9.62 C74.62,11.87 75.16,13.41 72.03,14.56 C71.86,14.63 67.06,13.60 66.88,13.67 C63.46,12.94 60.20,14.98 57.06,16.17 C52.38,17.94 47.93,20.25 43.75,22.99 C35.32,28.52 28.09,35.70 22.14,43.82 C16.13,52.01 11.48,61.19 8.16,70.78 C7.35,73.12 6.63,75.47 5.99,77.86 C5.63,79.19 5.25,80.57 5.69,81.94 C6.04,83.05 6.83,83.88 7.76,84.55 C9.02,85.46 11.55,86.05 11.50,87.88 C11.46,89.27 10.99,90.73 10.76,92.10 C10.49,93.73 10.26,95.38 10.04,97.02 C9.02,104.49 8.22,112.00 7.87,119.54 C7.52,126.96 7.24,134.53 7.75,141.95 C7.78,142.43 7.93,142.88 8.16,143.26 C7.95,143.35 7.93,143.76 8.20,143.81 C8.39,143.85 8.58,143.89 8.78,143.94 C9.17,144.24 9.67,144.42 10.24,144.44 C10.63,144.45 11.01,144.47 11.40,144.49 C15.48,145.34 19.55,146.15 23.68,146.76 C28.71,147.50 33.74,148.10 38.79,148.59 C49.17,149.60 59.47,149.27 69.87,148.72 C80.25,148.18 90.62,148.05 101.01,148.32 C111.41,148.59 121.80,149.05 132.20,149.23 C143.82,149.44 155.42,149.12 167.01,148.20 C168.60,148.07 169.58,146.81 169.27,145.23 C167.39,135.77 165.26,126.38 163.58,116.88 Z" id="🎨-Background" fill="#FFFFFF"></path><path d="M63.64,13.43 C64.72,13.39 65.81,13.56 66.88,13.67 C66.98,13.68 67.01,13.82 66.91,13.84 C64.99,14.24 63.09,14.79 61.21,15.35 L60.40,15.59 C58.28,16.22 56.21,16.86 54.16,17.70 C50.06,19.37 46.16,21.63 42.58,24.22 C28.78,34.20 18.80,49.31 12.49,64.96 C10.78,69.21 9.33,73.56 8.16,77.99 C7.87,79.07 7.60,80.15 7.35,81.23 C7.27,81.55 6.95,82.36 7.13,82.69 C7.28,82.98 7.90,83.15 8.18,83.30 L9.15,83.80 C11.03,84.77 14.16,86.37 14.47,86.52 L14.96,86.76 C22.97,90.69 31.53,94.02 40.54,94.25 L40.61,93.48 L40.61,93.48 C41.01,89.23 41.54,84.95 42.69,80.82 C42.75,80.60 43.04,80.67 43.06,80.87 C43.70,85.75 43.50,90.68 43.27,95.58 C42.88,104.28 42.35,112.96 41.88,121.65 C41.65,126.00 41.35,130.34 41.07,134.68 C40.80,139.03 40.71,143.49 40.09,147.81 C39.95,148.77 38.82,149.29 37.97,149.19 C37.03,149.08 36.30,148.25 36.29,147.29 C36.28,144.78 36.60,142.24 36.77,139.73 C36.94,137.34 37.12,134.96 37.30,132.58 C37.97,123.89 38.74,115.20 39.46,106.52 C39.71,103.43 39.98,100.35 40.26,97.28 C30.72,96.97 21.80,93.43 13.29,89.30 C13.16,92.09 12.87,94.89 12.58,97.67 C11.77,105.45 11.07,113.22 10.54,121.02 C10.27,124.96 10.07,128.90 9.90,132.84 C9.82,134.78 9.75,136.72 9.70,138.66 C9.68,139.31 9.67,139.95 9.65,140.60 L9.62,142.08 C9.60,143.02 9.50,143.89 8.71,144.57 C7.91,145.27 6.83,145.30 6.04,144.57 C4.97,143.59 5.16,142.26 5.19,140.95 C5.22,139.84 5.25,138.73 5.29,137.62 C5.36,135.41 5.45,133.19 5.57,130.98 C5.97,123.23 6.76,115.52 7.80,107.84 L8.21,104.87 C8.97,99.36 9.80,93.72 11.50,88.41 C10.84,88.09 10.18,87.76 9.52,87.42 C8.36,86.83 7.16,86.28 6.03,85.63 C5.13,85.12 4.35,84.41 4.10,83.36 C3.83,82.20 4.25,80.93 4.54,79.79 L4.56,79.69 C4.84,78.55 5.14,77.41 5.45,76.28 C6.73,71.68 8.31,67.18 10.16,62.78 C13.86,53.99 18.64,45.63 24.48,38.07 C29.74,31.26 35.95,25.09 43.23,20.47 C46.78,18.21 50.57,16.35 54.58,15.03 C56.46,14.42 58.50,13.89 60.46,13.67 C61.52,13.55 62.58,13.48 63.64,13.43 Z M82.68,-0.51 C83.96,-1.88 86.49,-0.46 85.88,1.36 C84.44,5.63 82.14,9.53 78.56,12.33 C75.19,14.97 71.17,16.69 66.85,16.32 C66.81,16.32 66.78,16.31 66.76,16.30 L67.13,16.81 C70.06,20.77 73.15,24.67 76.87,27.91 C84.45,34.51 94.77,38.06 104.74,35.53 C112.59,33.54 119.50,27.34 121.53,19.43 C121.24,19.56 120.89,19.60 120.51,19.52 C118.89,19.17 117.28,17.46 116.23,16.23 C115.09,14.90 114.21,13.47 113.56,11.85 C112.37,8.89 111.99,5.07 113.61,2.20 C113.81,1.84 114.27,2.04 114.31,2.39 L114.38,2.93 C114.69,5.62 115.08,8.22 116.35,10.68 C116.97,11.88 117.71,13.05 118.62,14.05 C119.10,14.59 119.63,15.11 120.19,15.56 C120.75,16.00 121.42,16.31 121.91,16.82 L122.00,16.91 L122.00,16.90 C122.13,15.83 122.88,15.36 123.61,15.39 C124.31,15.42 125.15,15.73 125.47,15.88 L125.50,15.90 C130.43,18.26 134.97,21.35 139.25,24.78 C148.09,31.86 154.72,41.13 157.93,52.03 C159.50,57.39 160.41,62.90 161.36,68.39 L161.95,71.76 C162.84,76.83 163.84,81.99 165.85,86.71 C166.37,87.93 165.97,89.07 164.69,89.55 C163.10,90.15 161.50,90.73 159.90,91.30 C160.69,94.68 161.16,98.17 161.75,101.56 C163.01,108.77 164.54,115.93 165.86,123.12 C166.53,126.80 167.13,130.50 167.81,134.18 C168.13,135.95 168.47,137.72 168.80,139.49 C168.97,140.45 169.13,141.40 169.30,142.36 L169.33,142.52 C169.43,143.02 169.55,143.55 169.41,144.05 C169.25,144.63 168.80,145.03 168.40,145.45 C168.07,145.79 167.59,145.79 167.19,145.60 L167.06,145.54 C166.33,145.20 165.77,144.87 165.51,144.05 C165.35,143.53 165.29,142.95 165.18,142.42 C164.98,141.40 164.79,140.38 164.61,139.36 C164.24,137.31 163.89,135.26 163.54,133.21 L163.21,131.28 C162.10,124.66 161.04,118.00 160.51,111.31 C160.27,108.34 160.02,105.38 159.77,102.41 L159.58,100.18 C159.34,97.37 159.04,94.48 159.00,91.63 L158.04,91.97 L158.04,91.97 L153.37,93.62 L153.37,93.62 C152.21,94.03 150.74,94.87 149.49,94.71 C148.88,94.64 148.42,94.45 148.06,94.10 C148.49,100.17 149.07,106.23 149.85,112.26 C150.55,117.75 151.33,123.23 152.26,128.69 C152.72,131.39 153.19,134.09 153.70,136.78 C153.95,138.13 154.22,139.47 154.49,140.81 C154.62,141.48 154.79,142.15 154.89,142.83 C155.01,143.60 154.80,144.08 154.37,144.71 C154.01,145.24 153.30,145.51 152.73,145.15 C151.97,144.67 151.57,144.25 151.34,143.38 C151.14,142.59 151.02,141.76 150.86,140.96 C150.57,139.48 150.29,138.00 150.02,136.52 C149.45,133.42 148.92,130.31 148.46,127.19 C146.81,116.21 145.77,105.13 145.24,94.04 C144.98,88.57 144.90,83.09 144.94,77.61 C144.97,74.80 145.06,71.99 145.26,69.18 C145.46,66.35 145.88,63.57 146.25,60.76 C146.26,60.66 146.40,60.66 146.41,60.76 C146.59,63.91 146.86,67.05 147.00,70.21 C147.13,73.22 147.18,76.24 147.29,79.25 C147.42,83.22 147.61,87.18 147.86,91.14 C148.31,90.65 148.99,90.36 149.67,90.47 C150.65,90.27 151.71,89.75 152.65,89.44 L156.18,88.26 L156.18,88.26 C158.04,87.64 159.90,87.02 161.77,86.42 C160.10,80.81 158.96,75.11 157.98,69.33 L157.55,66.73 C156.68,61.62 155.76,56.50 154.20,51.55 C152.56,46.34 150.10,41.50 146.85,37.11 C143.64,32.79 139.74,28.99 135.72,25.43 C132.28,22.38 128.59,19.63 125.09,16.67 C125.12,16.86 125.13,17.08 125.10,17.32 C124.35,22.78 121.50,27.87 117.53,31.65 C109.56,39.25 97.75,40.83 87.54,37.27 C77.66,33.82 68.93,25.65 65.85,15.54 C65.80,15.37 66.03,15.30 66.12,15.43 C66.29,15.66 66.46,15.90 66.64,16.13 C66.62,16.04 66.67,15.94 66.79,15.89 C70.39,14.50 73.92,12.53 76.62,9.74 C77.93,8.38 79.08,6.84 79.99,5.18 C80.42,4.39 80.81,3.56 81.12,2.71 L81.20,2.49 C81.58,1.42 81.89,0.34 82.68,-0.51 Z" id="🖍-Ink" fill="#000000"></path></g><g id="head/Medium-Bangs-3" transform="translate(78.59, 38.04)" fill-rule="evenodd"><path d="M54.21,8.24 C66.20,8.24 81.23,21.93 85.62,27.75 C89.32,32.65 88.80,57.88 88.80,72.85 C88.80,75.98 87.38,81.90 86.87,84.90 C84.99,95.87 76.79,105.07 60.57,105.07 C47.35,105.07 37.19,100.89 27.36,90.18 C25.11,87.74 14.16,96.48 11.92,93.33 C6.07,93.33 1.18,38.64 12.66,22.23 C24.15,5.83 42.21,8.24 54.21,8.24 Z" id="🎨-Background" fill="#FFFFFF"></path><path d="M18.15,12.09 C25.08,5.78 34.32,2.75 43.63,2.97 C48.46,3.09 53.27,4.01 57.83,5.58 C60.10,6.37 62.31,7.40 64.42,8.57 C65.18,8.99 65.88,9.48 66.56,10.00 L66.73,10.13 L66.73,10.13 C68.54,10.78 70.16,11.95 71.62,13.32 C74.56,13.09 77.52,13.35 80.37,14.26 C84.32,15.52 87.98,17.83 90.55,21.12 C93.55,24.95 94.54,29.59 94.19,34.38 L94.12,35.19 C93.77,39.43 93.14,44.87 89.67,47.65 C89.41,47.86 89.11,48.02 88.81,48.12 C91.05,51.95 92.89,56.21 93.98,60.51 C98.18,76.93 94.95,94.05 89.91,109.88 C89.50,111.18 87.53,112.05 86.52,110.77 C84.73,108.50 82.13,106.76 79.20,106.43 C77.39,106.23 75.60,106.60 73.89,105.78 C73.22,105.45 72.57,104.92 72.11,104.28 C69.23,105.37 66.12,105.89 63.04,105.76 C57.99,105.56 52.59,103.81 49.12,99.97 C48.56,99.35 48.42,98.66 48.55,98.04 C48.98,97.88 49.43,97.76 49.89,97.69 C54.30,100.29 59.16,102.03 64.38,102.14 C67.39,102.20 70.34,101.78 72.78,99.89 C73.31,99.48 73.80,99.03 74.25,98.55 C79.36,95.26 82.97,89.67 84.68,83.68 C86.28,78.09 86.08,72.28 85.53,66.55 L85.24,63.53 C84.82,59.09 84.43,54.65 84.32,50.19 L84.35,50.19 L84.35,50.19 C85.43,50.12 85.44,48.43 84.35,48.50 C81.54,48.68 78.75,48.22 75.94,48.42 C75.92,47.09 75.82,45.77 75.43,44.49 C75.21,43.76 73.94,43.62 73.80,44.49 C73.62,45.66 73.56,46.83 73.54,48.00 C69.34,47.95 65.14,47.59 60.95,47.74 C60.17,46.91 59.92,45.45 59.56,44.43 C59.51,44.28 59.46,44.13 59.40,43.98 C59.08,45.44 58.63,46.86 58.04,48.26 L57.01,48.26 C51.17,48.29 45.20,48.46 39.50,49.68 C39.10,49.37 38.87,48.84 38.80,48.36 C38.39,45.22 37.80,42.16 36.75,39.17 L36.60,38.75 C36.59,38.71 36.58,38.68 36.56,38.64 C35.79,39.88 34.87,41.04 33.87,42.12 C33.28,42.76 32.66,43.37 32.02,43.96 C31.40,44.65 30.76,45.33 30.14,46.01 C30.17,46.14 30.19,46.27 30.21,46.40 C30.39,47.83 30.41,49.28 30.28,50.71 C30.02,53.31 29.29,55.81 28.12,58.12 L28.08,58.35 C27.90,59.44 27.65,60.56 27.05,61.37 C27.79,62.20 28.36,63.19 28.69,64.30 C28.99,65.28 27.63,66.13 26.93,65.32 C26.37,64.69 25.75,64.16 25.07,63.74 C25.02,63.80 24.95,63.82 24.86,63.78 C22.96,62.72 19.73,63.04 17.84,64.03 C15.48,65.27 14.56,67.80 14.82,70.37 C15.07,72.82 16.14,75.69 18.22,76.95 C19.18,77.53 19.92,77.58 20.94,77.30 C21.26,77.21 21.66,76.94 21.83,76.81 L22.00,76.67 C22.67,76.14 23.29,75.78 24.07,75.77 C24.88,75.52 25.68,75.87 25.99,76.71 L26.01,76.76 C26.15,77.19 26.41,77.73 26.36,78.39 C26.30,79.09 25.98,79.73 25.50,80.24 C25.41,80.33 25.33,80.42 25.24,80.50 C33.50,89.45 34.56,103.39 30.32,114.56 C30.14,115.05 29.94,115.54 29.74,116.02 C29.03,117.66 26.30,117.15 25.96,115.52 C25.85,115.03 25.74,114.55 25.61,114.07 C25.38,113.18 25.12,112.29 24.83,111.42 L24.71,111.10 C24.46,110.38 24.23,109.66 23.97,108.94 L23.95,108.86 C23.94,108.82 23.93,108.79 23.92,108.74 L23.49,109.68 L23.49,109.68 L22.18,112.50 C21.57,113.82 19.64,113.11 19.56,111.84 L19.56,111.79 C19.56,111.56 19.55,111.33 19.53,111.10 C19.44,109.37 19.14,107.69 18.67,106.05 L18.50,106.26 C15.96,109.40 12.97,112.35 8.88,113.08 C7.85,113.26 6.69,112.19 7.40,111.15 C7.69,110.72 7.97,110.28 8.23,109.83 C8.00,109.73 7.79,109.61 7.59,109.50 C6.03,108.63 4.74,107.38 3.67,105.97 C1.40,102.99 0.59,99.22 0.39,95.54 C0.18,91.65 0.53,87.55 1.59,83.80 C2.05,82.17 2.67,80.61 3.39,79.10 C3.34,78.97 3.29,78.83 3.24,78.70 C2.47,76.53 1.83,74.31 1.30,72.07 C0.23,67.54 -0.35,62.87 -0.41,58.22 C-0.54,49.89 0.90,41.42 3.92,33.65 C7.05,25.63 11.75,17.91 18.15,12.09 Z M14.26,84.95 C13.68,84.05 12.25,84.86 12.78,85.77 L12.80,85.81 C13.71,87.24 14.14,88.87 14.66,90.47 C15.00,91.50 16.63,91.06 16.29,90.02 L16.18,89.67 C15.66,88.05 15.18,86.40 14.26,84.95 Z M19.26,67.69 L19.64,67.50 C20.84,66.93 21.90,66.54 23.32,67.04 C25.22,67.71 27.26,69.84 25.97,71.91 C25.50,72.67 24.66,72.98 23.79,72.80 C22.33,72.50 21.96,71.18 21.22,70.10 L21.09,69.92 C20.64,69.26 20.07,68.36 19.31,68.10 C19.14,68.05 19.07,67.78 19.26,67.69 Z M20.33,23.76 L20.45,23.65 C21.27,22.92 20.07,21.73 19.26,22.45 C15.54,25.74 14.24,30.89 12.31,35.28 C11.88,36.27 13.33,37.13 13.77,36.14 C15.61,31.95 16.84,26.94 20.33,23.76 L20.33,23.76 Z M65.07,22.32 C64.09,21.88 63.24,23.30 64.18,23.76 L64.21,23.78 C67.50,25.26 68.90,28.63 70.24,31.75 C70.66,32.75 72.12,31.89 71.70,30.90 L71.46,30.34 C70.06,27.12 68.43,23.84 65.07,22.32 Z M70.22,20.28 C69.19,19.93 68.75,21.56 69.77,21.92 C72.55,22.89 74.47,24.98 76.08,27.37 C76.68,28.27 78.15,27.42 77.54,26.52 C75.66,23.74 73.44,21.41 70.22,20.28 Z" id="🖍-Ink" fill="#000000"></path></g><g id="face/Smiling" transform="translate(112.18, 77.35)" fill="#000000" fill-rule="evenodd"><path d="M30.97,50.92 C29.55,50.34 28.28,49.37 27.36,48.14 C27.03,47.71 26.95,47.26 27.02,46.84 C27.09,46.37 27.37,45.95 27.74,45.67 C28.12,45.38 28.59,45.24 29.05,45.32 C29.45,45.38 29.84,45.59 30.15,46.05 L30.22,46.14 C30.77,46.88 31.49,47.49 32.31,47.89 C33.09,48.27 33.97,48.44 34.89,48.34 C36.62,48.14 37.82,47.20 39.09,45.93 C39.25,45.77 39.41,45.60 39.57,45.43 C39.67,45.28 39.81,45.18 39.96,45.13 C40.13,45.07 40.33,45.07 40.51,45.14 C40.68,45.20 40.83,45.31 40.93,45.46 C41.03,45.60 41.09,45.78 41.07,45.98 C40.95,47.31 40.26,48.49 39.28,49.41 C38.19,50.44 36.74,51.16 35.38,51.41 C33.88,51.68 32.35,51.48 30.97,50.92 L30.97,50.92 Z M36.09,30.51 C37.68,31.48 40.11,33.74 38.40,36.15 C36.38,38.27 33.47,35.84 32.04,34.74 C30.71,33.89 29.21,36.08 30.45,37.07 C40.80,44.74 45.01,30.77 36.89,29.37 C36.00,29.22 35.67,30.21 36.09,30.51 Z M17.53,21.59 C17.70,19.40 21.04,18.90 21.37,21.07 C21.66,23.01 21.31,24.79 20.44,26.54 C19.61,28.21 17.51,27.43 17.35,25.91 C17.14,23.87 17.42,22.95 17.53,21.59 Z M42.89,20.62 C43.36,20.01 44.03,19.60 44.83,19.83 C47.34,20.56 46.60,24.13 45.72,25.87 C45.24,26.81 43.69,27.05 42.99,26.22 C41.85,24.86 41.31,22.16 42.76,20.83 C42.80,20.76 42.84,20.69 42.89,20.62 Z M20.41,12.01 L20.80,11.94 C22.03,11.73 23.56,11.53 24.42,12.51 C24.88,13.04 25.04,14.01 24.42,14.51 C23.33,15.39 22.13,15.05 20.83,15.12 C19.75,15.19 18.72,15.36 17.68,15.66 C15.41,16.31 13.56,17.49 11.62,18.80 C11.37,18.97 11.11,18.64 11.23,18.40 C12.35,16.21 14.52,14.41 16.69,13.31 C17.85,12.72 19.12,12.23 20.41,12.01 Z M40.60,11.03 L40.91,11.09 C44.21,11.78 48.50,13.16 50.07,16.41 C50.13,16.87 50.06,16.96 50.01,17.03 L50.00,17.05 C49.95,17.11 49.92,17.18 49.72,17.24 C49.67,17.23 49.61,17.22 49.55,17.20 C48.84,17.01 48.27,16.75 47.72,16.49 L47.13,16.19 C46.43,15.85 45.74,15.53 45.00,15.29 C43.42,14.77 41.80,14.41 40.15,14.22 C39.80,14.17 39.45,14.05 39.18,13.85 C38.92,13.65 38.73,13.38 38.64,13.02 C38.52,12.55 38.56,12.20 38.81,11.78 C38.99,11.46 39.26,11.24 39.57,11.12 C39.89,10.99 40.25,10.96 40.60,11.03 Z" id="🖍-Ink"></path></g><g id="facial-hair/*-None" transform="translate(104.58, 109.48)"></g><g id="accessories/*-None" transform="translate(88.52, 88.98)"></g></g></g></g></g></svg>